<?xml version="1.0" encoding="utf-8"?>
<!-- Generator: Adobe Illustrator 16.0.0, SVG Export Plug-In . SVG Version: 6.00 Build 0)  -->
<!DOCTYPE svg PUBLIC "-//W3C//DTD SVG 1.1//EN" "http://www.w3.org/Graphics/SVG/1.1/DTD/svg11.dtd" [
	<!ENTITY ns_flows "http://ns.adobe.com/Flows/1.0/">
	<!ENTITY ns_extend "http://ns.adobe.com/Extensibility/1.0/">
	<!ENTITY ns_ai "http://ns.adobe.com/AdobeIllustrator/10.0/">
	<!ENTITY ns_graphs "http://ns.adobe.com/Graphs/1.0/">
]>
<svg version="1.1" id="Layer_1" xmlns:x="&ns_extend;" xmlns:i="&ns_ai;" xmlns:graph="&ns_graphs;"
	 xmlns="http://www.w3.org/2000/svg" xmlns:xlink="http://www.w3.org/1999/xlink" xmlns:a="http://ns.adobe.com/AdobeSVGViewerExtensions/3.0/"
	 x="0px" y="0px" width="400px" height="560px" viewBox="0 0 400 560" enable-background="new 0 0 400 560" xml:space="preserve">
<g id="Layer_1_1_" display="none">
	<g display="inline">
		<rect fill="#233F5B" width="400" height="560"/>
		<g>
			<polygon fill="#FDF27F" points="399.992,243.093 399.992,42.939 0.008,333.826 0.008,560 			"/>
		</g>
		<g>
			<rect x="55.404" y="31.167" fill="#D3B76E" width="289.19" height="48.5"/>
			<polygon fill="#D3B76E" points="68.398,72.854 29.744,72.854 38.111,55.417 29.744,37.979 81.064,37.979 81.064,50.011 
				55.404,50.011 			"/>
			<polygon fill="#D3B76E" points="331.602,72.854 370.256,72.854 361.889,55.417 370.256,37.979 318.936,37.979 318.936,50.011 
				344.596,50.011 			"/>
			<text transform="matrix(1 0 0 1 68.3594 65.5186)" fill="#A18F54" font-family="'Novecentowide-DemiBold'" font-size="27.1191">James Rodríguez</text>
			<g>
				<text transform="matrix(1 0 0 1 67.3594 64.5186)" fill="#FFFFFF" font-family="'Novecentowide-DemiBold'" font-size="27.1191">James Rodríguez</text>
			</g>
			<rect x="49.207" y="37.979" fill="#A18F54" width="6.197" height="34.877"/>
			<rect x="344.596" y="37.979" fill="#A18F54" width="6.197" height="34.877"/>
		</g>
		<g>
			<polygon fill="#762930" points="39.5,423.526 39.5,141.178 360.5,141.178 360.5,423.526 200,495.674 			"/>
			<g>
				<path fill="#010101" d="M356,145.678v274.938L200,490.74L44,420.615V145.678H356 M365,136.678h-9H44h-9v9v274.938v5.821
					l5.311,2.388l156,70.125l3.689,1.657l3.689-1.657l156-70.125l5.311-2.388v-5.821V145.678V136.678L365,136.678z"/>
			</g>
		</g>
		<g>
			<path fill="#D4B66D" d="M365,136.678v9v274.938v5.801L200,500.24L35,426.406v-5.791V145.678v-9h9h312H365 M372,129.678h-7h-9H44
				h-9h-7v7v9v274.938v5.791v4.537l4.141,1.853l165,73.834L200,507.91l2.858-1.279l165-73.824l4.142-1.853v-4.537v-5.801V145.678v-9
				V129.678L372,129.678z"/>
		</g>
		<g>
			<g>
				<defs>
					<polygon id="SVGID_1_" points="356,420.615 200,490.74 44,420.615 44,145.678 356,145.678 					"/>
				</defs>
				<clipPath id="SVGID_2_">
					<use xlink:href="#SVGID_1_"  overflow="visible"/>
				</clipPath>
				<path clip-path="url(#SVGID_2_)" fill="#602129" d="M440.357,432.928c0,0-7.903-16.039-20.922-20.106
					c-3.153-0.985-9.48-3.127-17.361-5.89c-6.421-2.42-13.523-5.399-19.25-8.58c-14.122-7.847-33.821-16.563-38.354-17.435
					c-4.532-0.872-15.168-6.103-19.178-8.195c-2.852-1.486-6.047-1.651-7.66-1.623l-1.849-0.615
					c-2.266-1.864-9.132-7.132-16.817-9.269c0,0-2.439,0-5.056,0.351l-11.559-8.745c-0.34-18.17-0.559-46.721,1.009-60.65
					c1.784,2.137,4.674,4.566,7.76,2.97c5.056-2.613,14.993-29.114,17.261-38.18c2.266-9.065,1.396-23.188-7.846-25.455
					c-3.494-0.855-6.29,0.033-8.511,1.923c0.301-0.406,0.49-0.644,0.49-0.644c3.951-10.46-1.396-36.265-1.396-36.265
					s-0.464-1.161,0.231-11.621c0.698-10.461-4.647-23.479-4.647-23.479l3.952,5.812l-2.325-7.207
					c0.464,0.696,2.789,3.021,2.789,3.021l-2.558-5.347c0.933,0.698,2.558,2.791,2.558,2.791
					c-2.325-6.741-10.229-13.948-10.229-13.948c0.698-0.231,3.488,0.697,3.488,0.697c-2.094-3.254-9.764-6.741-9.764-6.741
					l3.254-0.233c-2.092-1.858-5.812-1.859-6.275-2.788c-0.466-0.931-1.628-2.325-1.628-2.325l3.022-1.86
					c-2.095-0.929-6.044-1.86-6.044-1.86l-7.206-4.184c0,0,3.484-0.232,2.789-0.697c-1.512-1.008-9.995-1.859-9.995-1.859
					l5.579-0.697c-3.255-2.325-8.138-3.487-8.138-3.487c0.931-0.232,3.254-1.394,3.254-1.394
					c-3.485-0.931-10.691-1.163-10.691-1.163c0.931-0.232,3.486-0.233,3.486-0.233c-4.184-1.395-13.25-0.93-13.25-0.93
					c-2.093-0.93-6.045-3.254-6.045-3.254c1.86,0,6.276,0.696,6.276,0.696c-12.784-4.881-25.337-2.324-25.337-2.324
					s-0.931,0.465,0.929-0.465c1.86-0.931,5.579-1.627,5.579-1.627c-39.518-10.927-69.04,34.402-69.04,34.402
					c-17.201,12.553-17.666,39.286-19.991,53c-2.062,12.168,3.009,39.137,4.181,45.071c-1.691-2.463-4.25-5.343-7.145-5.902
					c-0.443-0.086-0.884-0.162-1.314-0.219c-0.288-0.093-0.552-0.143-0.775-0.13c-0.103,0.006-0.21,0.018-0.321,0.034
					c-2.938-0.093-5.43,1.348-6.675,8.516c-0.647,2.597-0.998,5.914-0.825,10.137c-0.025,1.296-0.034,2.678-0.023,4.152
					c0,0,0.871,16.563,8.368,28.418c7.481,11.833,13.922,13.938,17.066,8.226c1.247,10.618,3.45,26.08,6.295,32.571
					c1.334,3.045,4.507,8.325,8.63,14.141c0.816,5.401,3.319,23.592,5.502,39.575l-2.51,5.793c0,0-7.205,6.741-8.136,7.438
					c-0.931,0.698-4.416,3.952-6.276,4.649c-1.859,0.697-10.691,5.58-13.25,6.976c-2.558,1.394-6.974,5.578-11.622,7.438
					c-4.648,1.858-19.062,9.994-19.991,10.924c-0.931,0.931-15.343,9.996-16.737,10.692c-1.396,0.698-32.774,17.436-32.774,17.436
					l-2.094,6.974c0,0,0.278-0.135,0.78-0.378c-5.819,11.316-19.491,39.72-22.863,63.606c-4.185,29.638,456.429,3.485,455.383-8.021
					C476.97,503.828,440.357,432.928,440.357,432.928z M312.042,369.235l-1.617-0.943c1.203,0.454,2.361,0.963,3.358,1.522
					L312.042,369.235z"/>
			</g>
		</g>
		<polygon fill="none" points="355.761,420.222 199.762,490.347 43.761,420.222 43.761,145.284 355.761,145.284 		"/>
		<g>
			<g>
				<defs>
					<polygon id="SVGID_3_" points="356,420.615 200,490.74 44,420.615 44,78.333 356,79 389.666,191 356,302.333 					"/>
				</defs>
				<clipPath id="SVGID_4_">
					<use xlink:href="#SVGID_3_"  overflow="visible"/>
				</clipPath>
				<g clip-path="url(#SVGID_4_)">
					<path fill="#FDF27F" d="M412.352,421.923c0,0-7.903-16.039-20.922-20.106c-13.018-4.067-79.965-27.778-87.869-33.822
						c-7.901-6.044-13.325-6.637-13.325-6.637l-6.193-4.297l-11.165-5.338c0,0-1.742,46.607-98.329,74.502
						c0,0-3.485-0.175-8.02-0.696c-4.532-0.522-27.546-6.8-31.73-12.901s-7.845-25.279-5.753-35.564c0,0-9.066,7.671-11.158,9.589
						s-13.771,8.368-18.306,11.854c-4.533,3.487-9.415,6.976-11.855,7.323c-2.439,0.348-5.928,1.568-7.146,2.267
						c-1.222,0.696-15.865,9.24-20.573,13.947c-4.707,4.708-38.703,19.526-39.925,21.792c-1.22,2.268-21.269,38.879-25.453,68.518
						s456.429,3.486,455.383-8.02C448.963,492.823,412.352,421.923,412.352,421.923z"/>
					<path fill="#FBE37C" d="M123.64,412.16c0,0,15.109,26.034,38.007,26.269c22.896,0.232,0,0,0,0s51.259,5.812,114.949-49.979
						c0,0-47.886,56.72-116.228,53.465C160.368,441.915,140.842,443.773,123.64,412.16z"/>
					<path fill="#FBE37C" d="M265.903,407.512c0,0,6.044-2.326,16.735-0.466c10.692,1.86,39.519,5.579,49.746,6.974
						c10.229,1.396,17.202,3.722,17.202,3.722s-24.641-1.86-39.053-1.86C296.122,415.88,267.299,407.512,265.903,407.512z"/>
					<path fill="#FBE37C" d="M30.656,452.607c0,0,38.588-16.271,46.492-19.062c7.901-2.79,31.147-14.412,31.147-14.412
						s-35.333,21.852-33.009,21.386c2.325-0.466,35.799-9.764,40.912-8.368s17.202,6.043,17.202,6.043s-31.613,5.579-50.211,7.438
						C64.595,447.494,30.656,452.607,30.656,452.607z"/>
					<path fill="#F8B199" d="M271.134,360.497c0,0-11.159-7.148-13.6-9.938c-2.44-2.789-3.835-6.276-3.835-6.276
						s-1.046-54.045-0.697-57.184c0.348-3.139,0.522-8.543,0.522-8.543s5.056,5.057,7.671,4.358c2.614-0.698,5.929-5.056,6.451-6.45
						c0.521-1.394,12.377-26.849,12.9-32.08c0.522-5.229,1.221-22.489-8.544-23.71c-9.762-1.22-13.946,9.415-14.12,10.112
						c0,0-2.79-37.484-8.021-47.595c-5.23-10.112-16.736-26.5-16.736-26.5s-43.238-27.372-63.112-20.225
						c-19.875,7.148-61.021,12.728-61.193,31.905c-0.177,19.177-4.533,65.901-4.186,66.599c0.351,0.697-9.414-10.111-12.552-9.938
						c-3.139,0.174-10.635,5.404-6.8,27.895c0,0,3.835,29.464,18.829,32.776c0,0,5.056-1.046,5.579-2.44c0.521-1.395,0,0,0,0
						s4.531,27.896,6.449,32.253c1.918,4.358,9.414,15.343,9.414,15.343l5.057,42.017l-1.395,6.509c0,0-3.719,22.084,5.812,33.707
						c0,0,16.271,12.553,33.938,13.716c0,0,9.995-2.094,11.855-2.094C182.684,424.713,251.781,408.093,271.134,360.497z"/>
					<path fill="#FFFFFF" d="M170.596,308.717l0.465,2.674c0,0,21.852,2.557,29.639-1.162c0,0-6.159-4.648-7.089-5.93
						c-0.932-1.275-2.093-2.439-2.093-2.439s-16.389-0.812-17.552,0.697C172.804,304.068,170.596,308.717,170.596,308.717z"/>
					<path fill="#FFFFFF" d="M137.354,238.631c0,0,5.231-7.206,11.274-7.67c6.044-0.465,12.438,1.395,15.575,7.206l-0.93,2.093
						c0,0-15.228,5.346-24.178,1.162c-8.949-4.185,0,0,0,0S137.471,239.561,137.354,238.631z"/>
					<path fill="#FFFFFF" d="M199.071,237.702c0,0,7.206-8.485,11.972-8.602s15.341,5.817,14.761,8.253
						C224.642,242.235,203.139,242.583,199.071,237.702z"/>
					<path fill="#B2806E" d="M167.398,309.064c0,0,5.812-5.055,6.565-5.928c0.758-0.872,14.124-2.556,16.854-1.277
						c2.73,1.277,0,0,0,0s2.905,4.766,3.776,4.939s7.846,1.917,7.846,1.917l2.268,0.174l5.056-0.696c0,0,2.315,0.944,2.963,1.918
						c0.351,0.523,0.351-4.185-6.101-6.275c-6.451-2.093,0,0,0,0s-10.287-9.589-14.296-9.938c-4.011-0.349-6.277,1.221-8.893,0.873
						c-2.614-0.351-8.367-0.698-8.367-0.698S159.902,300,157.287,306.8c0,0-0.87-4.185-0.522-5.057c0,0-5.928,5.753-2.964,13.075
						c0,0,1.221-4.707,4.532-4.707c3.313,0,8.368-1.569,8.368-1.569L167.398,309.064z"/>
					<path fill="#B2806E" d="M158.508,314.993c0,0,6.625,6.102,13.947,7.672c7.322,1.568,11.854,0.522,12.728,0.522
						c0.871,0,6.626-1.047,6.626-1.047s9.063-1.569,12.553-9.589c0,0-2.849,12.088-16.099,15.575c0,0,10.346,1.395,16.794,12.319
						c0,0-8.366-9.765-21.792-8.543c-13.424,1.222-22.896,5.753-25.803,9.938c0,0,5.056-10.81,14.993-13.25
						C172.455,328.592,163.216,322.49,158.508,314.993z"/>
					<path fill="#B2806E" d="M208.37,251.881c0.43,0.296-9.066-1.744-17.086-12.029l-1.569,11.855c0,0-0.349-20.573-0.174-21.619
						c0.174-1.045,3.486,3.313,4.358,3.836c0,0,4.489-4.286,5.229-4.533c0.522-0.174-5.579,0.35-8.021-2.44
						c-2.44-2.79-4.357-5.929-4.357-5.929s2.574,3.067,3.835,3.487c0.522,0.174,4.532-7.321,10.811-8.368
						c0,0-1.744,0.697-2.44,1.396c0,0,6.799-2.79,12.552-1.744c0,0-3.138-1.396-4.011-1.396c-0.522,0,13.949-0.174,15.866,0.35
						c1.918,0.521,0.696,0.174,0.696,0.174l2.093,1.221l-4.185-3.312c0,0,13.075,3.662,19.7,12.727c0,0-3.661-1.22-5.579-1.742
						c0,0,0.953,0.952,1.568,1.567c0.523,0.523-4.184-0.871-9.937-1.567l2.092,1.567c0,0-5.754-1.567-15.865,0.523
						c0,0,8.193,1.395,10.461,2.964c2.268,1.568,5.404,4.01,8.193,9.24c0,0-3.312-3.487-6.8-5.23c0,0,5.057,6.625,5.754,8.194
						c0,0-2.964,0.349-5.229-0.872c0,0-3.43,3.138-10.055,0.872c0,0,5.114,0.232,9.183-3.313c0,0-3.138-6.974-8.892-7.496
						s-8.718-0.349-9.59,0.697c-0.872,1.045-8.019,7.148-8.019,7.148s7.554,3.428,15.283,2.848c7.729-0.582,0,0,0,0
						s-1.859,2.905-2.731,3.079c-0.871,0.175-4.357,0.873-7.67-0.522c0,0,4.707,2.268,10.459,2.441c0,0-10.11,1.046-15.688-3.139
						C198.607,242.814,201.047,246.826,208.37,251.881z"/>
					<path fill="#B2806E" d="M119.281,228.694c0,0,8.02-4.011,13.424-3.487c0,0-2.44,1.743-3.139,2.614
						c0,0,14.645-4.882,27.721-1.395c0,0-19.177-2.614-29.115,14.472c0,0,6.976-7.672,13.424-8.718c0,0-8.891,5.404-11.156,10.286
						c0,0,5.403,0.35,6.45,0.523c0,0,6.8,2.44,12.378,0c0,0-8.193,0.349-12.553-2.789c0,0,5.753-9.066,13.077-9.066
						c7.321,0,12.726,3.487,15.166,7.322c0,0-5.927,2.964-12.378,4.184c0,0-1.917,4.186-1.743,4.883c0,0,4.186-1.221,5.58-2.267
						c0,0-7.847,5.926-15.691,5.926c0,0,18.479,1.745,27.896-9.413c0,0-4.708,13.25-14.471,17.435c0,0,14.471-5.056,18.653-21.271
						c0,0-2.963,1.396-3.486,1.744c0,0-3.312-3.836-5.404-4.882c0,0,4.824,2.169,5.754,2.789c0.522,0.349,3.661-2.266,4.533-4.533
						c0.872-2.266,0,0,0,0s2.789-7.496-0.522-14.818c0,0,0.696,3.312,0,6.8c0,0-1.396-6.451-14.818-8.194
						c0,0,2.265,0.871,2.789,1.395c0,0-9.591-2.268-17.437-0.175c0,0,2.269-1.743,2.965-1.917l-5.754,1.396l2.789-2.441
						c0,0-5.926,1.569-6.449,1.917l2.615-3.835c0,0-11.158,6.103-16.911,10.112l2.091-0.523
						C125.557,222.766,121.896,225.904,119.281,228.694z"/>
					<path fill="#B2806E" d="M124.336,291.631l9.765,3.487c0,0-19.178-13.599-21.271-24.756c-6.276-33.475,8.02-62.066,26.85-64.507
						c0,0-10.81,0-13.948,0c0,0-2.788-28.941,10.693-40.331c0,0-19.526-1.162-23.479,11.622
						c-3.952,12.785-8.601,46.957-7.205,55.325c1.394,8.369,2.556,37.659,2.789,40.216c0.23,2.558,4.184,32.08,7.671,41.377
						c3.486,9.298,21.385,31.613,28.126,37.426c6.742,5.811,14.878,7.438,14.878,7.438l1.395-9.298c0,0-18.827-8.485-31.381-25.919
						C129.219,323.711,121.896,308.02,124.336,291.631z"/>
					<path fill="#B2806E" d="M155.021,350.792c0,0,24.406-16.04,50.675-3.488l12.554,5.349c0,0-50.91,12.783-59.045,7.902
						C151.069,355.674,155.021,350.792,155.021,350.792z"/>
					<path fill="#B2806E" d="M201.279,348.467c0,0,23.479-6.74,36.497-29.521c0,0,2.091-14.18-3.255-25.105
						c0,0-6.046,3.488-7.672,4.65c0,0,21.153-23.246,22.781-49.746c0,0-0.466-25.803-18.365-36.729c0,0-5.346-2.789-13.017-2.092
						c0,0,7.902-2.79,11.622-1.628c0,0,12.32-33.241-13.715-49.746c0,0,35.564,9.298,41.146,50.21c0,0-2.093,16.737-1.163,22.548
						c0.931,5.812-0.465,25.105-1.396,30.686c-0.929,5.579-1.396,34.869-1.396,35.564c0,0.699-3.485,24.408-18.597,38.123
						c-15.109,13.716-32.312,26.5-32.312,26.5L201.279,348.467z"/>
					<path fill="#B2806E" d="M166.645,283.729c0,0-3.486-4.067-2.674-6.741c0.813-2.673,6.857-4.533,8.833-3.139
						c1.978,1.396,4.476,6.589,7.847,6.714c3.949,0.145,4.999-0.857,7.758-4.011c1.83-2.093,1.308-2.006,1.308-2.006
						s8.428-0.464,9.822,2.674c1.395,3.14-0.06,6.8-2.935,6.654c-2.878-0.146-7.644-1.771-9.852-0.842l-0.436,5.229l-0.845-5.578
						l-0.317,5.348l-3.022,1.857l-2.905-1.277c0,0-0.378-6.625-0.378-6.044c0,0.582-1.018,5.928-1.018,5.928l-0.843-7.206
						C176.988,281.287,168.155,285.588,166.645,283.729"/>
					<path fill="#B2806E" d="M141.307,349.164c0,0,23.826,38.355,28.011,40.448c4.186,2.092,28.593,2.092,30.336,0.349
						s16.041-20.572,18.132-31.033C217.784,358.928,157.229,367.993,141.307,349.164"/>
					<path fill="#B2806E" d="M226.152,349.862c0,0-16.389,38.354-33.125,57.184c0,0,13.946-24.756,21.968-48.815L226.152,349.862"/>
					<path fill="#B2806E" d="M142.816,350.908c0,0,16.389,38.354,33.125,57.185c0,0-13.946-24.757-21.968-48.815L142.816,350.908"/>
					<path fill="#B2806E" d="M247.306,316.389l5.579,61.368l1.396-22.78c0,0,11.392,3.951,13.02,14.877l0,0
						c0,0,3.951-8.367,3.485-13.481l-17.782-15.574l-0.582-33.708L247.306,316.389"/>
					<path fill="#B2806E" d="M132.007,336.961l4.883,71.132l-4.185-13.25c0,0-4.533-3.487-4.184-5.229
						c0.349-1.744,0.696-16.041,0.696-16.041l1.395-3.95l-4.532-36.495L132.007,336.961"/>
					<path fill="#B2806E" d="M262.068,237.411c0,0,4.53-12.553,10.11-12.901c5.578-0.349,10.636,17.26,0.696,28.941
						c0,0,0.175-13.076-2.44-22.143c-2.613-9.064,0,0,0,0S265.903,232.355,262.068,237.411z"/>
					<path fill="#B2806E" d="M269.825,244.82c0,0-4.794-3.574-7.495-3.226c-2.704,0.35-3.662,2.093-2.181,5.405
						c1.48,3.312,2.527,6.625,2.614,7.845c0.088,1.22-1.831,7.496-2.354,8.718c-0.523,1.22-0.35,1.568-0.35,1.568
						s7.563-1.484,9.938-7.234C272.267,252.405,272.267,247.261,269.825,244.82z"/>
					<path fill="#B2806E" d="M96.615,272.105c0,0-7.846-7.148-8.892-21.271c-1.045-14.122-1.045-20.397,1.918-21.792
						c0,0,6.45,1.395,10.636,14.645c0,0-1.046-2.093-4.358-1.047c0,0-8.543,7.497-2.44,21.445
						C93.479,264.085,95.047,269.142,96.615,272.105z"/>
					<path fill="#B2806E" d="M103.067,266.875c0,0-0.438-0.61-3.4-1.656c-2.964-1.046-7.321-2.964-5.753-14.036
						c0,0,4.097-11.681,8.804-2.004c0,0,1.483,2.528,0.96,4.795C103.155,256.239,100.016,259.901,103.067,266.875z"/>
					<path fill="#B2806E" d="M215.17,288.493c0,0-7.148-10.925-18.479-17.696c-0.107-0.062,0,0,0,0
						c2.613,2.674,3.369,2.266,5.055,5.957C209.01,282.392,215.17,288.493,215.17,288.493z"/>
					<path fill="#B2806E" d="M148.812,288.609c0,0,6.904-9.184,16.61-18.307c0.087-0.083-1.569,2.267-1.569,2.267
						c-0.812,1.164-0.311,0.61-1.951,4.302C154.82,282.507,148.812,288.609,148.812,288.609z"/>
					<path fill="#B2806E" d="M208.893,300.521c0,0,4.359,4.884,3.836,10.983c0,0-1.918-4.01-3.485-5.055
						C209.242,306.451,209.939,303.138,208.893,300.521z"/>
					<path fill="#010101" d="M123.059,225.962c0,0,2.944-1.132,6.016-2.084c2.316-0.719,4.707-1.336,5.957-1.286l-5.812,1.859
						c0,0,5.659-1.206,7.694-1.463c0.242-0.03,0.434-0.049,0.558-0.049c1.162,0-3.604,1.512-3.604,1.512s19.76-0.93,24.757,0.581
						c4.999,1.51,8.601,0.813,9.531-0.813c0,0,1.161-2.79-2.79-4.649c0,0,2.094,0.813,2.324,3.486c0,0,0.697-2.093-4.997-3.603
						c0,0,2.092,0.93,2.79,1.977c0,0-5.23-2.21-9.416-2.674c-4.185-0.464-14.295,1.859-14.295,1.859l6.855-2.092l-9.182,1.511
						l4.067-2.092c0,0-7.902,1.743-10.228,2.439l6.393-3.138l-5.929,1.975l4.301-3.486l-11.39,6.395l4.299-1.628L123.059,225.962z"
						/>
					<path fill="#010101" d="M239.403,224.335c0,0-4.882-1.917-9.765-2.615c0,0,3.661,1.396,4.358,1.917
						c0,0-6.275-1.045-11.681-1.22l2.964,0.872c0,0-8.718,0-13.425,1.394c-4.707,1.396-14.645,2.268-19.353,0
						c0,0,2.267-5.056,5.057-5.927c0,0-2.268,1.917-2.79,4.533c0,0,2.965-5.928,11.157-6.102c0,0-4.882,1.045-6.799,3.312
						c0,0,4.882-4.185,14.47-2.963c9.59,1.22,12.029,1.743,12.029,1.743l-10.982-2.789l9.764-0.698l9.065,4.185l-8.021-5.229
						C225.455,214.747,233.823,218.93,239.403,224.335z"/>
					<path fill="#010101" d="M198.84,233.75c0,0,5.348-3.836,7.555-4.069c2.209-0.23,13.481-0.929,15.227-0.23
						c1.743,0.696,8.835,5.578,9.646,6.392c0,0-5.346-6.161-10.343-7.671c-5-1.51-14.297,0.116-15.344,0.465
						C204.534,228.984,198.84,233.75,198.84,233.75z"/>
					<path fill="#010101" d="M208.604,240.839c0,0-4.185-0.348-6.975-1.86c0,0-0.582-1.742,0.581-3.253c0,0,3.486-4.068,6.974-4.532
						c3.488-0.465,9.764-0.582,15.344,6.043c0,0-1.6,2.5-6.045,3.72c0,0,3.748,0.464,7.408-2.239l4.681,1.31
						c0,0-7.323-9.298-11.624-11.274c0,0-9.297-1.395-11.506,1.162c0,0-8.602,5.928-11.508,8.951
						C195.934,238.865,198.84,240.839,208.604,240.839z"/>
					<path fill="#010101" d="M145.433,242.814c0,0-4.098,0.262-6.974-3.312c0,0,3.661-7.728,12.901-8.368
						c0,0,6.914,0.292,11.332,6.276c0,0,0.087,1.481,0,1.743c0,0-1.25,1.366-3.952,1.803c0,0,6.479,0.029,9.007-1.803
						c0,0-5.142-6.276-12.987-8.716c0,0-11.159-3.14-22.665,10.896c0,0,3.923,0.437,5.057,0.349
						C137.15,241.683,139.68,243.164,145.433,242.814z"/>
					<path fill="#010101" d="M131.137,237.672c0,0,10.896-10.374,21.792-7.845c10.896,2.528,12.901,4.097,12.901,4.097
						s-6.625-4.794-10.635-5.404C151.188,227.91,142.294,226.253,131.137,237.672z"/>
					<path fill="#010101" d="M183.612,280.241c0,0,5.114-2.789,6.511-6.625c0,0-0.35,1.395-0.698,2.092c0,0,6.508,0.466,7.438,2.79
						c0,0-2.905,1.86-9.183,0.465C187.682,278.963,185.82,280.009,183.612,280.241z"/>
					<path fill="#010101" d="M178.034,279.66c0,0-4.068-4.068-5.695-6.625c0,0,0.581,1.744,0.93,2.093c0,0-5.347,0-6.044,4.299
						c0,0,4.999,0.35,7.557-0.929L178.034,279.66z"/>
					<path fill="#010101" d="M196.689,270.797c-0.339-0.247,4.618,4.272,4.474,6.189c-0.192,2.53-3.021,6.276-5.23,6.393
						c-2.207,0.117-3.602-0.116-3.602-0.116s3.347,0.77,4.271,0.61c2.527-0.436,4.678-3.051,5.26-7.235
						C201.861,276.638,202.529,275.069,196.689,270.797z"/>
					<path fill="#010101" d="M166.354,269.142c0,0-4.184,5.414-3.922,8.542c0.086,1.047,4.097,6.451,5.143,6.538
						c1.047,0.087,2.354-0.349,2.354-0.349s-1.133,0.784-2.79,0.784c0,0-2.963-1.481-5.577-6.712
						C161.56,277.945,161.56,274.371,166.354,269.142z"/>
					<path fill="#010101" d="M207.208,304.766c0,0-12.971-11.846-17.202-10.578c-4.647,1.396-7.09,2.675-12.205,0.467
						c0,0-9.646,1.395-17.781,8.601c0,0,10.926-10.345,16.854-9.88c0,0,4.78,1.55,8.834,0.233
						C190.355,292.097,193.144,290.469,207.208,304.766z"/>
					<path fill="#010101" d="M108.53,273.616c0,0,2.904,33.125,7.438,43.47c3.588,8.19,20.456,32.545,33.474,39.983
						c0,0,27.854,10.825,53.696,2.556c17.437-5.579,40.949-31.929,45.795-43.236c4.186-9.764,4.416-30.685,4.416-30.685
						s-1.627,19.76-5.346,29.057c0,0-19.759,30.453-41.61,39.75c0,0-25.337,9.765-56.951-0.93c0,0-21.386-16.969-31.612-38.122
						C117.829,315.459,114.225,308.484,108.53,273.616z"/>
					<path fill="#010101" d="M239.636,328.477c-0.231,0.696-20.225,39.285-40.68,53c0,0,9.996-9.996,13.018-16.97
						c0,0-6.975,10.461-12.089,13.02c0,0-20.92,2.091-32.544-1.86c0,0-9.298-7.438-10.924-9.995c0,0,7.902,11.621,14.412,16.271
						c0,0-19.295-14.412-29.522-32.777c0,0,7.672,8.369,15.808,9.764c8.137,1.396,40.912,3.021,49.746-3.021
						C215.693,349.862,239.636,328.477,239.636,328.477z"/>
					<path fill="#010101" d="M156.183,309.299c0,0,0.117-1.046,2.559-0.813c2.439,0.231,12.437-4.067,14.646-6.741l1.859,0.116
						l-0.116,2.905c0,0,11.507,2.094,16.04-0.348l-0.35-2.559c0,0,6.276,3.371,9.415,4.533c3.139,1.161,6.508,1.741,6.158,3.021
						c0,0-5.694,1.744-7.438,1.047c-0.582-0.232-0.931-3.021-3.488-1.396c-2.856,1.819-18.362,1.511-23.245,0
						c0,0-0.604,1.891-1.162,2.324C170.015,312.204,155.834,311.623,156.183,309.299z"/>
					<path fill="#010101" d="M167.459,302.904c0.114-0.349,19.757-3.834,31.032-0.696c0,0-6.16,0.581-6.625,0.696
						c0,0-13.251-0.696-17.901,0.232L167.459,302.904z"/>
					<path fill="#010101" d="M203.662,314.121c0,0-4.358,7.323-11.157,6.8c-8.754-0.674-14.297-0.522-19.003,0.349
						c-4.708,0.872-13.25-4.532-13.25-4.532s7.321,6.975,16.562,8.193c0,0,8.193,2.093,13.772-1.568
						C190.587,323.361,198.434,323.361,203.662,314.121z"/>
					<path fill="#010101" d="M253.699,276.812c0,0-6.975,52.129,1.045,81.418c0,0-1.917-59.625,0.873-79.152L253.699,276.812z"/>
					<path fill="#010101" d="M124.336,329.638c0.35,1.046,9.415,67.995,9.415,67.995l-4.532-62.416L124.336,329.638z"/>
					<path fill="#010101" d="M253.524,278.556c0,0,4.532,8.194,9.589,5.579c5.056-2.615,14.993-29.115,17.261-38.181
						c2.266-9.066,1.395-23.188-7.846-25.454c-9.241-2.266-13.601,7.671-15.344,16.04c0,0,5.23-17.957,15.169-14.993
						c0,0,11.682,2.964,6.975,24.583c0,0-9.938,30.161-17.086,35.74c0,0-7.498,0.174-8.543-8.021L253.524,278.556z"/>
					<path fill="#010101" d="M262.998,235.842c0,0,4.997-12.437,10.926-11.39c0,0,9.413,5.462,2.672,23.246
						c0,0,3.69-12.989-1.045-19.759c0,0,1.627,2.905,1.045,4.647c-0.581,1.745-4.066,10.664-4.066,10.664s-0.088-6.799-3.254-13.918
						C269.274,229.333,266.717,229.914,262.998,235.842z"/>
					<path fill="#010101" d="M268.46,263.621c0,0,3.37-1.047,4.416-6.395C272.876,257.227,272.992,262.575,268.46,263.621z"/>
					<path fill="#010101" d="M269.971,244.908c0,0-6.625-4.999-9.414-3.721c-2.789,1.279-2.789,5.464-1.047,7.671
						c1.745,2.21,2.326,11.274-0.349,14.878c-2.673,3.602,4.417,2.789,9.646-3.835c0,0-4.997,4.881-7.554,4.067
						c0,0,9.646-8.021-0.234-18.016c0,0-1.741-3.11,0-3.574C262.765,241.915,265.815,242.554,269.971,244.908z"/>
					<path fill="#010101" d="M103.416,234.97c0.401,0.597-3.836-8.543-9.241-9.589c-5.403-1.045-10.11-0.871-9.937,22.49
						c0,0,0.871,16.562,8.368,28.418s13.946,13.948,17.086,8.194v-3.139c0,0-1.57,5.23-7.148,3.312
						c-5.579-1.917-14.819-12.204-16.912-36.263c0,0-1.742-24.408,6.976-22.491C92.606,225.904,98.011,226.95,103.416,234.97z"/>
					<path fill="#010101" d="M99.405,241.595c0,0-5.057-10.81-10.286-11.854c0,0-4.707,10.982,1.918,25.802
						c0,0-1.918-9.588,4.708-15.516C95.745,240.026,98.534,240.026,99.405,241.595z"/>
					<path fill="#010101" d="M98.447,245.169c0,0,4.533-0.437,6.887,8.455c0,0-5.754,6.103-2.093,11.854
						c3.661,5.754,2.439,6.451,2.439,6.451s-2.439-4.882-5.229-5.928s-6.799-1.743-6.625-8.368c0,0-0.522,6.103,6.975,7.322
						c0,0-3.486-6.103,2.091-11.681C102.892,253.276,103.765,246.564,98.447,245.169z"/>
					<path fill="#010101" d="M101.557,232.472c0,0-6.741-32.544-4.418-46.259c2.325-13.715,2.79-40.447,19.991-53
						c0,0,29.522-45.329,69.04-34.402c0,0-3.719,0.696-5.579,1.627c-1.858,0.93-0.929,0.465-0.929,0.465s12.553-2.558,25.337,2.324
						c0,0-4.416-0.696-6.276-0.696c0,0,3.952,2.325,6.045,3.254c0,0,9.066-0.465,13.25,0.93c0,0-2.557,0-3.486,0.233
						c0,0,7.206,0.231,10.691,1.163c0,0-2.323,1.161-3.254,1.394c0,0,4.882,1.162,8.138,3.487l-5.579,0.696
						c0,0,8.483,0.853,9.994,1.86c0.696,0.465-2.788,0.697-2.788,0.697l7.206,4.184c0,0,3.949,0.932,6.044,1.86l-3.022,1.859
						c0,0,1.162,1.396,1.628,2.325c0.464,0.93,4.185,0.931,6.275,2.789l-3.254,0.233c0,0,7.67,3.487,9.764,6.741
						c0,0-2.79-0.931-3.488-0.697c0,0,7.903,7.207,10.229,13.948c0,0-1.625-2.092-2.558-2.791l2.558,5.347
						c0,0-2.325-2.325-2.789-3.022l2.325,7.207l-3.952-5.812c0,0,5.347,13.018,4.647,23.479
						c-0.695,10.459-0.231,11.623-0.231,11.623s5.347,25.803,1.396,36.264c0,0-7.903,9.529-8.369,23.71
						c0,0-0.232-21.619-12.319-33.938c0,0,6.509-29.058-6.975-40.681c0,0,3.721,4.649,4.187,8.136c0,0-6.976-16.736-22.55-15.108
						c-15.575,1.628-15.575,3.952-15.575,3.952s8.137-8.602,9.299-8.834c0,0-12.32,2.325-15.342,6.276l1.395-7.206l-5.113,5.114
						l4.882-9.995l-7.902,10.693l0.464-2.325l-2.79,2.093l3.952-8.369l-6.508,7.671l0.929-3.952l-3.485,4.185l2.558-8.833
						l-3.953,7.903l-2.323-0.698l2.558-8.601l-5.58,9.53l-0.231-3.021l-2.79,2.789l-0.93-6.043l-1.395,5.579
						c0,0-0.467-13.714-0.467-13.017c0,0.698-1.857,13.482-1.857,13.482l-2.094-2.324l-2.556,3.951l-0.233-3.721L162,163.204
						l-0.698-3.022l-1.395,2.092l-1.396-3.021l-0.465,3.487l-0.231-13.019l-1.395,12.321l-2.326-2.79l0.697,3.72l-3.254-3.486
						l1.628,5.347c0,0-9.064-0.232-16.737-10.461c0,0,1.86,7.902,8.833,13.018c0,0-13.481,1.162-18.596,10.229
						c0,0,3.022-5.812,4.881-7.438c0,0-17.899,8.368-10.692,37.658c0,0-17.666,16.504-13.716,42.308
						C107.135,250.138,105.974,238.282,101.557,232.472z"/>
					<path fill="#010101" d="M175.768,267.572c0,0-0.349-34.694-0.521-35.74l-1.568-4.01l0.522,5.229L175.768,267.572z"/>
					<polygon fill="#010101" points="190.062,228.52 189.366,231.832 189.541,265.48 					"/>
					<path fill="#010101" d="M253.002,340.797c0,0,6.973,8.02,10.111,10.111c3.138,2.092,7.671,5.579,7.671,5.579
						s-1.045,42.54-96.585,69.039l-15.342,13.251l2.789-0.35l14.295-12.205c0,0,84.383-16.562,97.282-71.479
						c0,0,11.158,2.093,14.646,5.579c0,0,1.046,4.011,1.046,4.533c0,0,3.487-2.965,5.579-0.872s7.497,5.404,8.195,5.579
						c0.695,0.175-10.287-3.661-11.333-4.011c-1.047-0.349-2.79,0-2.79,0s-1.918,6.45-2.093,7.147c0,0,5.579-0.348,7.322,1.918
						c1.743,2.267,57.882,19.179,62.066,20.572c4.184,1.395,25.977,5.578,36.438,19.7l5.229-1.743c0,0-7.497-8.367-13.599-11.507
						c0,0,11.506,4.882,16.389,12.204l4.531-0.349c0,0-6.102-8.892-13.424-11.683c0,0-22.49-6.625-36.611-14.47
						c-14.122-7.846-33.821-16.562-38.354-17.434c-4.533-0.872-15.168-6.104-19.178-8.195c-4.011-2.092-8.718-1.569-8.718-1.569
						s-8.193-7.32-17.608-9.938c0,0-2.44,0-5.056,0.35L253.002,340.797z"/>
					<path fill="#010101" d="M278.223,384.73l6.51-7.903c0,0,21.852,7.438,36.265,12.087c14.411,4.648,61.833,16.271,69.038,29.058
						l-5.577,5.812c0,0-28.593-16.737-47.422-20.224C318.205,400.073,278.223,384.73,278.223,384.73z"/>
					<path fill="#010101" d="M136.191,413.091c-10.229-13.25-5.579-43.47-5.579-43.47l-3.021,6.974c0,0-7.205,6.741-8.136,7.438
						s-4.416,3.952-6.276,4.649c-1.859,0.697-10.691,5.58-13.25,6.976c-2.558,1.394-6.974,5.578-11.622,7.438
						s-19.062,9.995-19.991,10.924c-0.931,0.932-15.343,9.996-16.737,10.693c-1.396,0.698-32.774,17.436-32.774,17.436l-2.094,6.974
						c0,0,50.909-24.642,51.374-25.569c0.465-0.931,28.593-9.531,33.938-13.481c5.348-3.952,17.203-13.02,17.203-13.02
						c-0.232-0.696,2.558-8.833,2.558-8.833l-3.022,0.465l4.882-3.485l4.649-4.417c-3.488,22.314,6.973,33.473,6.973,33.473
						c19.295,15.575,37.193,13.483,37.193,13.483l2.325-2.324C156.648,426.807,136.191,413.091,136.191,413.091z M105.043,401.468
						c-4.648,2.325-12.785,5.812-17.202,7.671c-4.416,1.859-13.948,7.438-17.897,6.975c0,0,9.763-8.602,14.878-8.602
						c5.112,0,9.995-2.558,11.854-3.952c1.858-1.396,12.783-9.995,16.038-10.228C112.714,393.332,109.692,399.143,105.043,401.468z"
						/>
					<path fill="#010101" d="M161.995,338.007c0,0,21.153-15.575,39.052-0.698C201.047,337.309,185.24,327.312,161.995,338.007z"/>
					<circle fill="#010101" cx="214.239" cy="234.738" r="6.218"/>
					<path fill="#010101" d="M157.229,236.016c0,3.435-2.783,6.219-6.218,6.219s-6.219-2.784-6.219-6.219
						c0-3.434,2.842-5.287,6.276-5.287C154.502,230.729,157.229,232.583,157.229,236.016z"/>
					<path fill="#452E14" d="M154.306,236.713c-0.711,1.001-1.877,1.656-3.197,1.656c-1.321,0-2.486-0.655-3.196-1.656h-0.95
						c-0.021,0.171-0.037,0.346-0.037,0.523c0,2.311,1.874,4.185,4.185,4.185c2.312,0,4.185-1.874,4.185-4.185
						c0-0.178-0.015-0.353-0.036-0.523H154.306z"/>
					<path fill="#452E14" d="M217.186,235.552c-0.71,1.001-1.876,1.656-3.196,1.656c-1.321,0-2.488-0.655-3.198-1.656h-0.951
						c-0.021,0.171-0.035,0.347-0.035,0.523c0,2.311,1.873,4.185,4.186,4.185c2.311,0,4.184-1.874,4.184-4.185
						c0-0.177-0.014-0.353-0.036-0.523H217.186z"/>
					<path fill="#FFFFFF" d="M155.561,234.332c-0.059-0.439-0.137-0.794-0.464-1.122c-0.296-0.295-0.703-0.464-1.122-0.464
						c-0.379,0-0.743,0.144-1.029,0.389c-0.033-0.085-0.062-0.171-0.109-0.252c-0.536-0.917-1.75-1.238-2.668-0.7
						c-0.907,0.53-1.244,1.714-0.721,2.634c0.439,0.772,1.358,1.169,2.224,0.932c0.36-0.1,0.657-0.304,0.892-0.561
						c0.296,0.483,0.886,0.822,1.413,0.822c0.782,0,1.713-0.73,1.598-1.596C155.567,234.386,155.564,234.358,155.561,234.332z"/>
					<path fill="#FFFFFF" d="M213.23,230.879c-0.04-0.027-0.078-0.05-0.118-0.076c-1.505-0.971-3.431,0.955-2.46,2.459
						c0.024,0.04,0.051,0.078,0.076,0.118c0.635,0.984,2.01,1.231,2.87,0.37C214.461,232.889,214.215,231.513,213.23,230.879z"/>
					<path fill="#FFFFFF" d="M215.111,232.322c-1.393,0-1.393,2.158,0,2.158C216.503,234.48,216.503,232.322,215.111,232.322z"/>
					<path fill="#262826" d="M123.64,138.559c0,0,1.742-12.9,9.764-20.396c0,0-2.441,3.312-3.836,7.67
						c0,0,8.719-13.076,21.271-19.003c0,0-18.48,8.543-21.444,38.181c0,0-0.174-13.076,1.744-18.306c0,0-4.011,7.147-4.011,15.168
						c0,0,0.35-10.983,0.872-12.378C127.998,129.493,124.859,133.154,123.64,138.559z"/>
					<path fill="#262826" d="M130.961,146.927c0,0,1.918-22.665,14.995-32.951c0,0-6.8,8.194-9.066,17.783
						c0,0,2.268-3.661,3.139-3.835c0,0-6.276,12.553-5.23,22.665l-1.918-1.918c0,0,0.872-7.846,1.744-9.937
						C134.623,138.733,131.833,143.266,130.961,146.927z"/>
					<path fill="#262826" d="M137.762,150.938c0,0,2.44-35.043,28.939-42.541c0,0-22.49,6.276-27.021,44.108L137.762,150.938z"/>
					<path fill="#262826" d="M150.488,158.957c0,0-4.358-21.096,8.543-37.484c0,0-7.148,5.057-9.416,14.472
						c0,0,1.396-8.021,5.929-13.947c0,0-5.056,5.579-5.752,8.194c0,0,2.091-8.194,9.065-13.076c0,0-21.62,13.25-14.82,43.586
						c0,0-2.092-12.204,2.093-22.839c0,0-1.569,10.461,0.696,18.132c0,0-0.87-9.764,1.395-15.865
						C148.221,140.127,148.221,152.506,150.488,158.957z"/>
					<path fill="#262826" d="M153.451,147.276c0,0,5.929-16.563,9.938-20.921c0,0-3.312,3.312-4.01,4.357
						c0,0,3.836-13.424,10.809-20.572c0,0-5.229,9.415-5.927,13.076c0,0,6.625-9.24,15.517-14.471c0,0-5.928,6.625-7.672,9.938
						c0,0,5.057-5.404,10.811-7.671c0,0-5.754,4.009-8.543,7.671c0,0,7.322-6.799,14.296-6.799c0,0-31.032,16.039-29.638,47.072
						c0,0-2.268-12.553,0.521-19.178c0,0-4.01,5.229-4.01,18.132c0,0-0.521-8.369,1.396-15.517L153.451,147.276z"/>
					<path fill="#262826" d="M163.562,155.993c0,0,0.35-16.04,10.287-27.72c0,0-1.744,4.184-2.268,6.102
						c0,0,3.662-8.02,9.765-11.506c0,0-3.836,4.01-5.754,10.46c0,0,10.112-15.517,20.572-19.178c0,0-8.543,4.185-15.342,16.214
						c0,0,6.799-10.811,14.992-12.902c0,0-12.378,9.065-16.562,25.803c0,0,2.441-6.974,5.058-8.892c0,0-5.755,12.902-5.93,22.839
						l-1.22-5.056l-0.349,4.358h-2.092c0,0-0.35-12.029,2.267-19.526c0,0-3.835,12.378-3.835,18.306l-2.094-0.174
						c0,0,0-12.204,1.568-16.388c0,0-3.486,13.946-3.312,16.562l-1.918-0.349c0,0,0-11.158,2.441-16.563
						C169.841,138.384,163.562,151.111,163.562,155.993z"/>
					<path fill="#262826" d="M181.87,155.121c0,0,9.938-24.059,24.757-30.336c0,0-6.8,4.708-8.892,9.415
						c0,0,9.238-8.717,17.781-10.46c0,0-11.331,2.439-18.305,15.69c0,0,7.321-8.368,11.68-9.415c0,0-10.284,12.379-14.992,23.362
						c0,0,2.79-9.589,6.625-14.122c0,0-4.186,3.139-6.104,5.579c0,0,1.918-7.323,2.441-7.671c0,0-8.543,13.076-9.764,20.05
						c0,0,1.568-10.81,5.928-16.562c0,0-6.449,11.332-7.846,15.517c0,0,0.523-6.451,0.871-7.323
						C186.054,148.845,182.044,153.552,181.87,155.121z"/>
					<path fill="#262826" d="M198.258,151.809c0,0,6.976-17.607,14.471-21.27C212.729,130.539,202.791,142.568,198.258,151.809z"/>
					<path fill="#262826" d="M200.002,152.855c0,0,7.495-17.435,17.608-23.015C217.61,129.841,204.534,143.439,200.002,152.855z"/>
					<path fill="#262826" d="M202.616,153.901c0,0,9.415-19.701,24.932-24.061c0,0-7.496,4.185-9.24,6.974
						c0,0,5.404-3.661,9.415-5.229c0,0-5.404,4.708-8.718,8.021c0,0,6.062-4.063,6.974-3.836c0.698,0.175-7.321,7.497-9.763,12.379
						c0,0,10.461-12.379,20.572-15.691c0,0-3.661,2.615-4.881,3.662c0,0,7.845-3.312,11.155-3.487c0,0-5.928,3.312-6.974,3.835
						c0,0,6.974-1.568,10.461-0.872c0,0-6.799,0-14.644,4.707c0,0,4.706-2.092,12.029-1.567c0,0-11.508,1.917-20.226,10.982
						c0,0,5.405-6.799,8.021-7.845c0,0-8.021,4.358-11.682,10.286c0,0,3.797-6.693,4.706-7.148c0.697-0.348-5.928,5.405-8.368,8.893
						c0,0,3.662-6.276,4.358-6.975c0.523-0.522-7.823,7.998-8.543,8.717c-0.523,0.523,2.79-6.974,2.79-6.974
						s-5.726,7.517-6.625,8.717c-0.523,0.697,8.542-14.471,8.717-14.993c0,0-11.158,11.157-11.507,12.9
						c-0.348,1.744-0.348,0.697-0.348,0.697l6.448-12.029L202.616,153.901z"/>
					<path fill="#262826" d="M235.916,152.971c0,0,14.877-5.113,20.456-2.092C256.372,150.879,250.328,155.761,235.916,152.971z"/>
					<path fill="#262826" d="M244.865,141c0,0,8.483-1.627,15.108,4.417c0,0-1.975-1.278-4.184-1.859c0,0,2.673,1.512,4.417,4.533
						c0,0-2.44-1.744-4.649-2.79c0,0,2.558,2.559,3.255,3.835c0,0-3.836-4.532-14.528-5.928c0,0,7.556,0.232,9.531,1.511
						c0,0-1.859-1.858-7.671-2.557c0,0,4.067-0.233,5.113,0.116C251.259,142.278,249.05,141.464,244.865,141z"/>
					<path fill="#3B3C3B" d="M255.676,229.681c0,0-2.325-13.017-7.672-17.666c0,0,3.021-16.04,0.233-23.478
						c0,0,3.485,1.395,8.833,10.46c0,0-2.094-4.882-4.187-7.671c0,0,3.255,2.091,6.511,9.763l-2.324-6.508
						c0,0,3.949,6.508,5.346,9.763l-2.092-8.136c0,0,3.486,14.413,3.72,17.899c0.232,3.486-0.698,7.902-0.698,7.902
						S255.676,227.59,255.676,229.681z"/>
					<path fill="#3B3C3B" d="M104.113,229.217c0,0,9.414-19.525,12.9-22.315c0,0-4.185-19.527,4.185-37.658
						c0,0-8.717,3.138-13.25,7.672c0,0,6.625-6.625,9.415-8.021c0,0-12.901,5.929-15.344,12.204l3.14-10.11
						c0,0-6.625,10.11-6.625,18.131C98.534,197.138,102.369,220.5,104.113,229.217z"/>
				</g>
			</g>
		</g>
		<g>
			<path fill="#FFFFFF" d="M200.001,524.574c-15.623,0-28.334-12.71-28.334-28.334c0-15.623,12.711-28.332,28.334-28.332
				c15.622,0,28.332,12.709,28.332,28.332C228.333,511.864,215.623,524.574,200.001,524.574z"/>
			<path fill="#D4B66D" d="M200.001,469.908c14.543,0,26.332,11.789,26.332,26.332c0,14.545-11.789,26.334-26.332,26.334
				c-14.545,0-26.334-11.789-26.334-26.334C173.667,481.697,185.456,469.908,200.001,469.908 M200.001,465.908
				c-16.727,0-30.334,13.606-30.334,30.332s13.607,30.334,30.334,30.334c16.726,0,30.332-13.608,30.332-30.334
				S216.727,465.908,200.001,465.908L200.001,465.908z"/>
		</g>
		<g>
			<g>
				<defs>
					<circle id="SVGID_5_" cx="200" cy="496.24" r="23.355"/>
				</defs>
				<clipPath id="SVGID_6_">
					<use xlink:href="#SVGID_5_"  overflow="visible"/>
				</clipPath>
				<g clip-path="url(#SVGID_6_)">
					<polygon fill="#21418C" points="162.379,495.914 162.379,498.844 162.379,498.844 162.379,501.572 162.379,501.77 
						162.379,504.697 162.379,507.625 239.303,507.625 239.303,504.697 239.303,501.77 239.303,501.572 239.303,498.844 
						239.303,498.844 239.303,495.914 					"/>
					<rect x="162.379" y="507.625" fill="#CE2028" width="76.924" height="12.449"/>
					<polygon fill="#FECF0A" points="162.379,472.242 162.379,484.205 162.379,487.133 162.379,489.863 162.379,490.061 
						162.379,492.988 162.379,495.914 239.303,495.914 239.303,492.988 239.303,490.061 239.303,489.863 239.303,487.133 
						239.303,484.205 239.303,472.242 					"/>
				</g>
			</g>
		</g>
	</g>
	<g display="inline">
		<g>
			<g>
				<defs>
					<polygon id="SVGID_7_" points="-64,420.615 -220,490.74 -376,420.615 -376,145.678 -64,145.678 					"/>
				</defs>
				<clipPath id="SVGID_8_">
					<use xlink:href="#SVGID_7_"  overflow="visible"/>
				</clipPath>
				<g clip-path="url(#SVGID_8_)">
					<path fill="#709F5B" d="M24.596,425.17c0,0-2.593-2.394-6.92-6.193c-1.086-1.439-2.309-2.836-3.664-4.098
						c-30.979-32.142-92.242-59.18-107.799-65.727c-0.726-0.406-1.438-0.81-2.13-1.206c-2.109-2.812-6.304-7.776-11.586-10.854
						c0.013-0.115,0.024-0.229,0.038-0.345c-0.014,0.114-0.024,0.226-0.038,0.345c-1.021-0.595-2.079-1.123-3.174-1.547
						c-3.506-5.812-6.333-13.74-8.244-20.035c-0.022-1.106-0.034-1.836-0.034-2.093c0-2.382-2.312-35.99-2.896-44.426
						c0.112-0.147,0.173-0.245,0.173-0.245c19.079-2.574,23.771-31.194,23.771-31.194c5.149-22.562-2.424-31.042-10.146-31.95
						c-3.073-0.361-5.929,1.052-8.254,2.884c0.294-3.145,1.347-16.028,0.758-34.306c-0.683-21.124-9.539-36.342-10.449-38.612
						c-0.908-2.271-5.905-6.586-11.129-16.581c-4.083-7.81-11.632-13.539-14.738-15.671c-0.158-0.227-0.31-0.44-0.479-0.685
						c-6.017-8.535-14.786-9.224-20.639-8.497c-5.292-6.958-12.07-7.109-15.066-6.766l-0.409-0.637
						c-10.678-11.812-18.853-8.404-18.853-8.404c3.407,0.454,6.814,1.59,6.814,1.59c-11.812-2.271-30.437,6.133-32.254,6.587
						s-2.727,0-9.086-0.681c-1.926-0.207-4.603,0.778-7.441,2.296c-2.282,0.143-5.036,0.314-6.868,0.429
						c0,0-7.7,2.242-11.232,12.451c-2.759,1.127-6.486,2.086-8.303,2.541c-2.017,0.504-2.664,5.735-2.864,8.419
						c-7.324-0.444-10.081,6.345-10.081,6.345c2.68-4.614,7.2-5.225,10.006-5.101c-0.008,0.202-0.012,0.331-0.012,0.331
						c-7.951,4.543-11.811,16.126-12.039,17.262s-0.228,3.181-2.499,6.132c-2.27,2.953-0.454,12.267-0.454,12.267
						c-12.231,21.188-4.092,43.205-3.449,44.861c-2.54,13.863-0.865,26.005-0.865,26.005c-0.117,1.673-0.177,3.668-0.196,5.851
						c-0.432,6.947-1.317,18.101-1.317,23.603c0,7.875,14.006,37.554,14.006,37.554c0.909,6.664,2.499,16.657,7.496,26.348
						c4.354,8.447,19.38,20.292,19.38,20.292c2.971,2.257,8.085,4.605,13.204,6.63c0.293,2.394,0.782,6.185,1.481,10.931
						c-8.349,5.515-71.826,47.428-79.039,52.095c-1.364,0.883-2.87,2.468-4.425,4.466c-0.037,0.023-0.083,0.055-0.119,0.078
						c-5.979,3.868-12.771,19.981-15.535,27.064c-10.094,16.467-20.854,34.576-20.579,35.396
						c0.454,1.364,46.564,66.1,113.341,68.824c66.779,2.725,228.957-26.803,228.957-26.803l42.93-81.608
						c1.085,0.972,1.771,1.564,2.044,1.655c0.486,0.162,0.215-1.541-0.77-4.08L24.596,425.17z M-111.644,340.628
						c-0.022-0.037-0.044-0.073-0.066-0.11c0.02,0.02,0.037,0.038,0.058,0.058L-111.644,340.628z M-114.435,208.421
						c0.89-0.513,1.706-0.892,2.445-1.167C-112.756,207.613-113.59,208.009-114.435,208.421z M-174.288,94.327
						c-2.929,0.496-4.86,1.266-4.86,1.266l-5.223-2.499l-2.699-4.199C-179.632,88.745-175.676,92.608-174.288,94.327z
						 M-255.238,89.459c1.743-0.145,3.183-0.301,4.392-0.456c-6.103,3.589-12.456,9.056-13.478,10.223
						c-0.5,0.572-1.541,1.145-2.815,1.681C-265.492,97.312-261.396,89.973-255.238,89.459z"/>
				</g>
			</g>
		</g>
	</g>
</g>
<g id="Layer_1_copy">
	<g>
		<rect fill="#233F5B" width="400" height="560"/>
		<g>
			<polygon fill="#FDF27F" points="399.992,243.093 399.992,42.939 0.008,333.826 0.008,560 			"/>
		</g>
		<g>
			<rect x="55.404" y="31.167" fill="#D3B76E" width="289.19" height="48.5"/>
			<polygon fill="#D3B76E" points="68.398,72.854 29.744,72.854 38.111,55.417 29.744,37.979 81.064,37.979 81.064,50.011 
				55.404,50.011 			"/>
			<polygon fill="#D3B76E" points="331.602,72.854 370.256,72.854 361.889,55.417 370.256,37.979 318.936,37.979 318.936,50.011 
				344.596,50.011 			"/>
			<g>
				<g>
					<path fill="#A18F54" d="M86.315,46.591v10.737c0,5.532-3.31,8.623-8.353,8.623c-3.605,0-6.589-2.062-7.701-4.854l3.715-1.003
						c0.705,1.464,2.144,2.332,3.986,2.332c2.929,0,4.582-1.897,4.582-4.935v-10.9H86.315z"/>
					<path fill="#A18F54" d="M100.498,61.938h-8.216l-1.41,3.634h-4.066l7.81-18.98h3.552l7.81,18.98h-4.066L100.498,61.938z
						 M99.196,58.604l-1.87-4.8c-0.407-1.057-0.896-2.63-0.922-2.63h-0.027c-0.027,0-0.516,1.573-0.922,2.63l-1.871,4.8H99.196z"/>
					<path fill="#A18F54" d="M126.424,46.591v18.98h-3.715v-5.938c0-3.986,0.136-6.725,0.108-6.725h-0.027
						c-0.027,0-1.355,2.332-1.681,2.874l-2.956,5.098h-1.952l-2.955-5.098c-0.354-0.542-1.682-2.874-1.709-2.874h-0.026
						c-0.026,0,0.136,2.738,0.136,6.725v5.938h-3.715v-18.98h3.553l3.932,6.508c1.464,2.413,1.708,3.011,1.735,3.011h0.026
						c0.026,0,0.271-0.598,1.735-3.011l3.958-6.508H126.424z"/>
					<path fill="#A18F54" d="M144.512,62.047v3.525h-13.584v-18.98h13.422v3.525h-9.652v4.04h7.619v3.308h-7.619v4.583
						L144.512,62.047L144.512,62.047z"/>
					<path fill="#A18F54" d="M157.422,52.367c-0.435-1.898-2.088-2.874-3.77-2.874c-1.735,0-2.848,0.84-2.848,1.979
						c0,1.52,2.143,2.062,4.528,2.874c2.766,0.949,5.938,2.413,5.938,5.804c0,3.389-2.929,5.802-7.268,5.802
						c-3.985,0-6.725-2.25-7.755-5.694l3.634-0.976c0.406,1.708,1.925,3.308,4.284,3.308c2.033,0,3.091-1.003,3.091-2.278
						c0-1.925-2.576-2.386-5.261-3.335c-2.25-0.812-5.07-1.979-5.07-5.288c0-2.955,2.929-5.477,6.941-5.477
						c3.553,0,6.372,2.169,7.186,5.152L157.422,52.367z"/>
					<path fill="#A18F54" d="M181.72,65.572l-3.77-6.48c-0.081,0-0.136,0-0.217,0h-2.874v6.48h-3.77v-18.98h6.644
						c4.664,0,7.457,2.522,7.457,6.346c0,2.603-1.274,4.5-3.579,5.449l4.338,7.187L181.72,65.572L181.72,65.572z M174.859,55.729
						h3.361c2.088,0,3.063-1.354,3.063-2.793c0-1.49-1.003-2.819-3.063-2.819h-3.361V55.729z"/>
					<path fill="#A18F54" d="M197.015,46.212c5.45,0,9.87,4.148,9.87,9.87s-4.42,9.87-9.87,9.87c-5.449,0-9.843-4.148-9.843-9.87
						S191.564,46.212,197.015,46.212z M197.015,62.237c3.498,0,5.938-2.522,5.938-6.155c0-3.661-2.44-6.155-5.938-6.155
						c-3.471,0-5.911,2.495-5.911,6.155C191.104,59.715,193.544,62.237,197.015,62.237z"/>
					<path fill="#A18F54" d="M218.141,46.591c5.424,0,9.815,3.877,9.815,9.572c0,5.667-4.365,9.409-9.762,9.409h-8.242v-18.98
						L218.141,46.591L218.141,46.591z M218.194,62.047c3.146,0,5.856-2.196,5.856-5.884c0-3.688-2.712-6.047-5.911-6.047h-4.42
						v11.931H218.194z"/>
					<path fill="#A18F54" d="M241.652,65.572l-3.771-6.48c-0.081,0-0.136,0-0.217,0h-2.874v6.48h-3.77v-18.98h6.644
						c4.664,0,7.457,2.522,7.457,6.346c0,2.603-1.274,4.5-3.579,5.449l4.338,7.187L241.652,65.572L241.652,65.572z M234.792,55.729
						h3.362c2.088,0,3.062-1.354,3.062-2.793c0-1.49-1.003-2.819-3.062-2.819h-3.362V55.729z"/>
					<path fill="#A18F54" d="M255.402,42.958l-6.453,2.793l-1.112-2.007l6.264-3.362L255.402,42.958z M249.085,65.572v-18.98h3.769
						v18.98H249.085z"/>
					<path fill="#A18F54" d="M271.536,63.592c-1.03,1.166-3.28,2.359-5.748,2.359c-5.45,0-9.843-4.148-9.843-9.87
						s4.393-9.87,9.843-9.87c3.769,0.027,6.914,1.979,8.622,5.016l-3.85,1.004c-1.03-1.41-2.901-2.306-4.772-2.306
						c-3.552,0-5.911,2.549-5.911,6.155c0,3.769,2.604,6.182,6.128,6.182c3.254,0,4.962-1.79,5.56-3.254v-0.812h-5.261v-3.064h8.486
						V65.57h-3.254c0-1.573,0.026-1.952,0.026-1.979L271.536,63.592L271.536,63.592z"/>
					<path fill="#A18F54" d="M294.1,46.591v10.737c0,5.586-3.198,8.623-8.188,8.623c-5.016,0-8.188-3.037-8.188-8.623V46.591h3.77
						v10.684c0,3.524,1.519,5.151,4.42,5.151c2.874,0,4.393-1.627,4.393-5.151V46.591H294.1z"/>
					<path fill="#A18F54" d="M311.402,62.047v3.525h-13.584v-18.98h13.422v3.525h-9.653v4.04h7.619v3.308h-7.619v4.583
						L311.402,62.047L311.402,62.047z"/>
					<path fill="#A18F54" d="M330.737,50.116l-9.11,10.25c-0.812,0.895-1.627,1.708-1.627,1.734l0.026,0.027
						c0.026,0,1.221-0.082,2.767-0.082h7.944v3.525h-15.862v-3.525l9.409-10.385c0.623-0.705,1.653-1.545,1.653-1.572l-0.026-0.026
						c-0.027,0-1.546,0.054-2.793,0.054h-7.972v-3.525h15.591V50.116z"/>
				</g>
				<g>
					<g>
						<path fill="#FFFFFF" d="M85.315,45.591v10.737c0,5.532-3.31,8.623-8.353,8.623c-3.605,0-6.589-2.062-7.701-4.854l3.715-1.003
							c0.705,1.464,2.144,2.332,3.986,2.332c2.929,0,4.582-1.897,4.582-4.935v-10.9H85.315z"/>
						<path fill="#FFFFFF" d="M99.498,60.938h-8.216l-1.41,3.634h-4.066l7.81-18.98h3.552l7.81,18.98h-4.066L99.498,60.938z
							 M98.196,57.604l-1.87-4.8c-0.407-1.057-0.896-2.63-0.922-2.63h-0.027c-0.027,0-0.516,1.573-0.922,2.63l-1.871,4.8H98.196z"/>
						<path fill="#FFFFFF" d="M125.424,45.591v18.98h-3.715v-5.938c0-3.986,0.136-6.725,0.108-6.725h-0.027
							c-0.027,0-1.355,2.332-1.681,2.874l-2.956,5.098h-1.952l-2.955-5.098c-0.354-0.542-1.682-2.874-1.709-2.874h-0.026
							c-0.026,0,0.136,2.738,0.136,6.725v5.938h-3.715v-18.98h3.553l3.932,6.508c1.464,2.413,1.708,3.011,1.735,3.011h0.026
							c0.026,0,0.271-0.598,1.735-3.011l3.958-6.508H125.424z"/>
						<path fill="#FFFFFF" d="M143.512,61.047v3.525h-13.584v-18.98h13.422v3.525h-9.652v4.04h7.619v3.308h-7.619v4.583
							L143.512,61.047L143.512,61.047z"/>
						<path fill="#FFFFFF" d="M156.422,51.367c-0.435-1.898-2.088-2.874-3.77-2.874c-1.735,0-2.848,0.84-2.848,1.979
							c0,1.52,2.143,2.062,4.528,2.874c2.766,0.949,5.938,2.413,5.938,5.804c0,3.389-2.929,5.802-7.268,5.802
							c-3.985,0-6.725-2.25-7.755-5.694l3.634-0.976c0.406,1.708,1.925,3.308,4.284,3.308c2.033,0,3.091-1.003,3.091-2.278
							c0-1.925-2.576-2.386-5.261-3.335c-2.25-0.812-5.07-1.979-5.07-5.288c0-2.955,2.929-5.477,6.941-5.477
							c3.553,0,6.372,2.169,7.186,5.152L156.422,51.367z"/>
						<path fill="#FFFFFF" d="M180.72,64.572l-3.77-6.48c-0.081,0-0.136,0-0.217,0h-2.874v6.48h-3.77v-18.98h6.644
							c4.664,0,7.457,2.522,7.457,6.346c0,2.603-1.274,4.5-3.579,5.449l4.338,7.187L180.72,64.572L180.72,64.572z M173.859,54.729
							h3.361c2.088,0,3.063-1.354,3.063-2.793c0-1.49-1.003-2.819-3.063-2.819h-3.361V54.729z"/>
						<path fill="#FFFFFF" d="M196.015,45.212c5.45,0,9.87,4.148,9.87,9.87s-4.42,9.87-9.87,9.87c-5.449,0-9.843-4.148-9.843-9.87
							S190.564,45.212,196.015,45.212z M196.015,61.237c3.498,0,5.938-2.522,5.938-6.155c0-3.661-2.44-6.155-5.938-6.155
							c-3.471,0-5.911,2.495-5.911,6.155C190.104,58.715,192.544,61.237,196.015,61.237z"/>
						<path fill="#FFFFFF" d="M217.141,45.591c5.424,0,9.815,3.877,9.815,9.572c0,5.667-4.365,9.409-9.762,9.409h-8.242v-18.98
							L217.141,45.591L217.141,45.591z M217.194,61.047c3.146,0,5.856-2.196,5.856-5.884c0-3.688-2.712-6.047-5.911-6.047h-4.42
							v11.931H217.194z"/>
						<path fill="#FFFFFF" d="M240.652,64.572l-3.771-6.48c-0.081,0-0.136,0-0.217,0h-2.874v6.48h-3.77v-18.98h6.644
							c4.664,0,7.457,2.522,7.457,6.346c0,2.603-1.274,4.5-3.579,5.449l4.338,7.187L240.652,64.572L240.652,64.572z M233.792,54.729
							h3.362c2.088,0,3.062-1.354,3.062-2.793c0-1.49-1.003-2.819-3.062-2.819h-3.362V54.729z"/>
						<path fill="#FFFFFF" d="M254.402,41.958l-6.453,2.793l-1.112-2.007l6.264-3.362L254.402,41.958z M248.085,64.572v-18.98h3.769
							v18.98H248.085z"/>
						<path fill="#FFFFFF" d="M270.536,62.592c-1.03,1.166-3.28,2.359-5.748,2.359c-5.45,0-9.843-4.148-9.843-9.87
							s4.393-9.87,9.843-9.87c3.769,0.027,6.914,1.979,8.622,5.016l-3.85,1.004c-1.03-1.41-2.901-2.306-4.772-2.306
							c-3.552,0-5.911,2.549-5.911,6.155c0,3.769,2.604,6.182,6.128,6.182c3.254,0,4.962-1.79,5.56-3.254v-0.812h-5.261v-3.064
							h8.486V64.57h-3.254c0-1.573,0.026-1.952,0.026-1.979L270.536,62.592L270.536,62.592z"/>
						<path fill="#FFFFFF" d="M293.1,45.591v10.737c0,5.586-3.198,8.623-8.188,8.623c-5.016,0-8.188-3.037-8.188-8.623V45.591h3.77
							v10.684c0,3.524,1.519,5.151,4.42,5.151c2.874,0,4.393-1.627,4.393-5.151V45.591H293.1z"/>
						<path fill="#FFFFFF" d="M310.402,61.047v3.525h-13.584v-18.98h13.422v3.525h-9.653v4.04h7.619v3.308h-7.619v4.583
							L310.402,61.047L310.402,61.047z"/>
						<path fill="#FFFFFF" d="M329.737,49.116l-9.11,10.25c-0.812,0.895-1.627,1.708-1.627,1.734l0.026,0.027
							c0.026,0,1.221-0.082,2.767-0.082h7.944v3.525h-15.862v-3.525l9.409-10.385c0.623-0.705,1.653-1.545,1.653-1.572l-0.026-0.026
							c-0.027,0-1.546,0.054-2.793,0.054h-7.972v-3.525h15.591V49.116z"/>
					</g>
				</g>
			</g>
			<rect x="49.207" y="37.979" fill="#A18F54" width="6.197" height="34.877"/>
			<rect x="344.596" y="37.979" fill="#A18F54" width="6.197" height="34.877"/>
		</g>
		<g>
			<polygon fill="#762930" points="39.5,423.526 39.5,141.178 360.5,141.178 360.5,423.526 200,495.674 			"/>
			<g>
				<path fill="#010101" d="M356,145.678v274.938L200,490.74L44,420.615V145.678H356 M365,136.678h-9H44h-9v9v274.938v5.821
					l5.311,2.388l156,70.125l3.689,1.657l3.689-1.657l156-70.125l5.311-2.388v-5.821V145.678V136.678L365,136.678z"/>
			</g>
		</g>
		<g>
			<path fill="#D4B66D" d="M365,136.678v9v274.938v5.801L200,500.24L35,426.406v-5.791V145.678v-9h9h312H365 M372,129.678h-7h-9H44
				h-9h-7v7v9v274.938v5.791v4.537l4.141,1.853l165,73.834L200,507.91l2.858-1.279l165-73.824l4.142-1.853v-4.537v-5.801V145.678v-9
				V129.678L372,129.678z"/>
		</g>
		<g>
			<g>
				<defs>
					<polygon id="SVGID_9_" points="356,420.615 200,490.74 44,420.615 44,145.678 356,145.678 					"/>
				</defs>
				<clipPath id="SVGID_10_">
					<use xlink:href="#SVGID_9_"  overflow="visible"/>
				</clipPath>
				<path clip-path="url(#SVGID_10_)" fill="#602129" d="M440.357,432.928c0,0-7.903-16.039-20.922-20.106
					c-3.153-0.985-9.48-3.127-17.361-5.89c-6.421-2.42-13.523-5.399-19.25-8.58c-14.122-7.847-33.821-16.563-38.354-17.435
					c-4.532-0.872-15.168-6.103-19.178-8.195c-2.852-1.486-6.047-1.651-7.66-1.623l-1.849-0.615
					c-2.266-1.864-9.132-7.132-16.817-9.269c0,0-2.439,0-5.056,0.351l-11.559-8.745c-0.34-18.17-0.559-46.721,1.009-60.65
					c1.784,2.137,4.674,4.566,7.76,2.97c5.056-2.613,14.993-29.114,17.261-38.18c2.266-9.065,1.396-23.188-7.846-25.455
					c-3.494-0.855-6.29,0.033-8.511,1.923c0.301-0.406,0.49-0.644,0.49-0.644c3.951-10.46-1.396-36.265-1.396-36.265
					s-0.464-1.161,0.231-11.621c0.698-10.461-4.647-23.479-4.647-23.479l3.952,5.812l-2.325-7.207
					c0.464,0.696,2.789,3.021,2.789,3.021l-2.558-5.347c0.933,0.698,2.558,2.791,2.558,2.791
					c-2.325-6.741-10.229-13.948-10.229-13.948c0.698-0.231,3.488,0.697,3.488,0.697c-2.094-3.254-9.764-6.741-9.764-6.741
					l3.254-0.233c-2.092-1.858-5.812-1.859-6.275-2.788c-0.466-0.931-1.628-2.325-1.628-2.325l3.022-1.86
					c-2.095-0.929-6.044-1.86-6.044-1.86l-7.206-4.184c0,0,3.484-0.232,2.789-0.697c-1.512-1.008-9.995-1.859-9.995-1.859
					l5.579-0.697c-3.255-2.325-8.138-3.487-8.138-3.487c0.931-0.232,3.254-1.394,3.254-1.394
					c-3.485-0.931-10.691-1.163-10.691-1.163c0.931-0.232,3.486-0.233,3.486-0.233c-4.184-1.395-13.25-0.93-13.25-0.93
					c-2.093-0.93-6.045-3.254-6.045-3.254c1.86,0,6.276,0.696,6.276,0.696c-12.784-4.881-25.337-2.324-25.337-2.324
					s-0.931,0.465,0.929-0.465c1.86-0.931,5.579-1.627,5.579-1.627c-39.518-10.927-69.04,34.402-69.04,34.402
					c-17.201,12.553-17.666,39.286-19.991,53c-2.062,12.168,3.009,39.137,4.181,45.071c-1.691-2.463-4.25-5.343-7.145-5.902
					c-0.443-0.086-0.884-0.162-1.314-0.219c-0.288-0.093-0.552-0.143-0.775-0.13c-0.103,0.006-0.21,0.018-0.321,0.034
					c-2.938-0.093-5.43,1.348-6.675,8.516c-0.647,2.597-0.998,5.914-0.825,10.137c-0.025,1.296-0.034,2.678-0.023,4.152
					c0,0,0.871,16.563,8.368,28.418c7.481,11.833,13.922,13.938,17.066,8.226c1.247,10.618,3.45,26.08,6.295,32.571
					c1.334,3.045,4.507,8.325,8.63,14.141c0.816,5.401,3.319,23.592,5.502,39.575l-2.51,5.793c0,0-7.205,6.741-8.136,7.438
					c-0.931,0.698-4.416,3.952-6.276,4.649c-1.859,0.697-10.691,5.58-13.25,6.976c-2.558,1.394-6.974,5.578-11.622,7.438
					c-4.648,1.858-19.062,9.994-19.991,10.924c-0.931,0.931-15.343,9.996-16.737,10.692c-1.396,0.698-32.774,17.436-32.774,17.436
					l-2.094,6.974c0,0,0.278-0.135,0.78-0.378c-5.819,11.316-19.491,39.72-22.863,63.606c-4.185,29.638,456.429,3.485,455.383-8.021
					C476.97,503.828,440.357,432.928,440.357,432.928z M312.042,369.235l-1.617-0.943c1.203,0.454,2.361,0.963,3.358,1.522
					L312.042,369.235z"/>
			</g>
		</g>
		<polygon fill="none" points="355.761,420.222 199.762,490.347 43.761,420.222 43.761,145.284 355.761,145.284 		"/>
		<g>
			<g>
				<defs>
					<polygon id="SVGID_11_" points="356,420.615 200,490.74 44,420.615 44,78.333 356,79 389.666,191 356,302.333 					"/>
				</defs>
				<clipPath id="SVGID_12_">
					<use xlink:href="#SVGID_11_"  overflow="visible"/>
				</clipPath>
				<g clip-path="url(#SVGID_12_)">
					<path fill="#FDF27F" d="M412.352,421.923c0,0-7.903-16.039-20.922-20.106c-13.018-4.067-79.965-27.778-87.869-33.822
						c-7.901-6.044-14.399-6.953-14.399-6.953l-6.257-4.424l-10.027-4.896c0,0-1.742,46.607-98.329,74.502
						c0,0-3.485-0.175-8.02-0.696c-4.532-0.522-27.546-6.799-31.73-12.901c-4.185-6.102-7.845-25.279-5.753-35.565
						c0,0-9.066,7.672-11.158,9.59s-13.771,8.367-18.306,11.854c-4.533,3.487-9.415,6.975-11.855,7.323
						c-2.439,0.348-5.928,1.567-7.146,2.267c-1.222,0.696-15.865,9.24-20.573,13.947c-4.707,4.708-38.703,19.526-39.925,21.792
						c-1.22,2.268-21.269,38.879-25.453,68.518s456.429,3.486,455.383-8.02C448.963,492.823,412.352,421.923,412.352,421.923z"/>
					<path fill="#FBE37C" d="M123.64,412.16c0,0,15.109,26.034,38.007,26.269c22.896,0.232,0,0,0,0s51.259,5.812,114.949-49.979
						c0,0-47.886,56.72-116.228,53.465C160.368,441.915,140.842,443.773,123.64,412.16z"/>
					<path fill="#FBE37C" d="M265.903,407.512c0,0,6.044-2.326,16.735-0.466c10.692,1.86,39.519,5.579,49.746,6.974
						c10.229,1.396,17.202,3.722,17.202,3.722s-24.641-1.86-39.053-1.86C296.122,415.88,267.299,407.512,265.903,407.512z"/>
					<path fill="#FBE37C" d="M30.656,452.607c0,0,38.588-16.271,46.492-19.062c7.901-2.79,31.147-14.412,31.147-14.412
						s-35.333,21.852-33.009,21.386c2.325-0.466,35.799-9.764,40.912-8.368s17.202,6.043,17.202,6.043s-31.613,5.579-50.211,7.438
						C64.595,447.494,30.656,452.607,30.656,452.607z"/>
					<path fill="#F8B199" d="M271.134,360.497c0,0-11.159-7.148-13.6-9.938c-2.44-2.789-3.835-6.276-3.835-6.276
						s-1.046-54.045-0.697-57.184c0.348-3.139,0.522-8.543,0.522-8.543s5.056,5.057,7.671,4.358c2.614-0.698,5.929-5.056,6.451-6.45
						c0.521-1.394,12.377-26.849,12.9-32.08c0.522-5.229,1.221-22.489-8.544-23.71c-9.762-1.22-13.946,9.415-14.12,10.112
						c0,0-2.79-37.484-8.021-47.595c-5.23-10.112-16.736-26.5-16.736-26.5s-43.238-27.372-63.112-20.225
						c-19.875,7.148-61.021,12.728-61.193,31.905c-0.177,19.177-4.533,65.901-4.186,66.599c0.351,0.697-9.414-10.111-12.552-9.938
						c-3.139,0.174-10.635,5.404-6.8,27.895c0,0,3.835,29.464,18.829,32.776c0,0,5.056-1.046,5.579-2.44c0.521-1.395,0,0,0,0
						s4.531,27.896,6.449,32.253c1.918,4.358,9.414,15.343,9.414,15.343l5.057,42.017l-1.395,6.509c0,0-3.719,22.084,5.812,33.707
						c0,0,16.271,12.553,33.938,13.716c0,0,9.995-2.094,11.855-2.094C182.684,424.713,251.781,408.093,271.134,360.497z"/>
					<path fill="#FFFFFF" d="M170.596,308.717l0.465,2.674c0,0,21.852,2.557,29.639-1.162c0,0-6.159-4.648-7.089-5.93
						c-0.932-1.275-2.093-2.439-2.093-2.439s-16.389-0.812-17.552,0.697C172.804,304.068,170.596,308.717,170.596,308.717z"/>
					<path fill="#FFFFFF" d="M137.354,238.631c0,0,5.231-7.206,11.274-7.67c6.044-0.465,12.438,1.395,15.575,7.206l-0.93,2.093
						c0,0-15.228,5.346-24.178,1.162c-8.949-4.185,0,0,0,0S137.471,239.561,137.354,238.631z"/>
					<path fill="#FFFFFF" d="M199.071,237.702c0,0,7.206-8.485,11.972-8.602s15.341,5.817,14.761,8.253
						C224.642,242.235,203.139,242.583,199.071,237.702z"/>
					<path fill="#B2806E" d="M167.398,309.064c0,0,5.812-5.055,6.565-5.928c0.758-0.872,14.124-2.556,16.854-1.277
						c2.73,1.277,0,0,0,0s2.905,4.766,3.776,4.939s7.846,1.917,7.846,1.917l2.268,0.174l5.056-0.696c0,0,2.315,0.944,2.963,1.918
						c0.351,0.523,0.351-4.185-6.101-6.275c-6.451-2.093,0,0,0,0s-10.287-9.589-14.296-9.938c-4.011-0.349-6.277,1.221-8.893,0.873
						c-2.614-0.351-8.367-0.698-8.367-0.698S159.902,300,157.287,306.8c0,0-0.87-4.185-0.522-5.057c0,0-5.928,5.753-2.964,13.075
						c0,0,1.221-4.707,4.532-4.707c3.313,0,8.368-1.569,8.368-1.569L167.398,309.064z"/>
					<path fill="#B2806E" d="M158.508,314.993c0,0,6.625,6.102,13.947,7.672c7.322,1.568,11.854,0.522,12.728,0.522
						c0.871,0,6.626-1.047,6.626-1.047s9.063-1.569,12.553-9.589c0,0-2.849,12.088-16.099,15.575c0,0,10.346,1.395,16.794,12.319
						c0,0-8.366-9.765-21.792-8.543c-13.424,1.222-22.896,5.753-25.803,9.938c0,0,5.056-10.81,14.993-13.25
						C172.455,328.592,163.216,322.49,158.508,314.993z"/>
					<path fill="#B2806E" d="M208.37,251.881c0.43,0.296-9.066-1.744-17.086-12.029l-1.569,11.855c0,0-0.349-20.573-0.174-21.619
						c0.174-1.045,3.486,3.313,4.358,3.836c0,0,4.489-4.286,5.229-4.533c0.522-0.174-5.579,0.35-8.021-2.44
						c-2.44-2.79-4.357-5.929-4.357-5.929s2.574,3.067,3.835,3.487c0.522,0.174,4.532-7.321,10.811-8.368
						c0,0-1.744,0.697-2.44,1.396c0,0,6.799-2.79,12.552-1.744c0,0-3.138-1.396-4.011-1.396c-0.522,0,13.949-0.174,15.866,0.35
						c1.918,0.521,0.696,0.174,0.696,0.174l2.093,1.221l-4.185-3.312c0,0,13.075,3.662,19.7,12.727c0,0-3.661-1.22-5.579-1.742
						c0,0,0.953,0.952,1.568,1.567c0.523,0.523-4.184-0.871-9.937-1.567l2.092,1.567c0,0-5.754-1.567-15.865,0.523
						c0,0,8.193,1.395,10.461,2.964c2.268,1.568,5.404,4.01,8.193,9.24c0,0-3.312-3.487-6.8-5.23c0,0,5.057,6.625,5.754,8.194
						c0,0-2.964,0.349-5.229-0.872c0,0-3.43,3.138-10.055,0.872c0,0,5.114,0.232,9.183-3.313c0,0-3.138-6.974-8.892-7.496
						s-8.718-0.349-9.59,0.697c-0.872,1.045-8.019,7.148-8.019,7.148s7.554,3.428,15.283,2.848c7.729-0.582,0,0,0,0
						s-1.859,2.905-2.731,3.079c-0.871,0.175-4.357,0.873-7.67-0.522c0,0,4.707,2.268,10.459,2.441c0,0-10.11,1.046-15.688-3.139
						C198.607,242.814,201.047,246.826,208.37,251.881z"/>
					<path fill="#B2806E" d="M119.281,228.694c0,0,8.02-4.011,13.424-3.487c0,0-2.44,1.743-3.139,2.614
						c0,0,14.645-4.882,27.721-1.395c0,0-19.177-2.614-29.115,14.472c0,0,6.976-7.672,13.424-8.718c0,0-8.891,5.404-11.156,10.286
						c0,0,5.403,0.35,6.45,0.523c0,0,6.8,2.44,12.378,0c0,0-8.193,0.349-12.553-2.789c0,0,5.753-9.066,13.077-9.066
						c7.321,0,12.726,3.487,15.166,7.322c0,0-5.927,2.964-12.378,4.184c0,0-1.917,4.186-1.743,4.883c0,0,4.186-1.221,5.58-2.267
						c0,0-7.847,5.926-15.691,5.926c0,0,18.479,1.745,27.896-9.413c0,0-4.708,13.25-14.471,17.435c0,0,14.471-5.056,18.653-21.271
						c0,0-2.963,1.396-3.486,1.744c0,0-3.312-3.836-5.404-4.882c0,0,4.824,2.169,5.754,2.789c0.522,0.349,3.661-2.266,4.533-4.533
						c0.872-2.266,0,0,0,0s2.789-7.496-0.522-14.818c0,0,0.696,3.312,0,6.8c0,0-1.396-6.451-14.818-8.194
						c0,0,2.265,0.871,2.789,1.395c0,0-9.591-2.268-17.437-0.175c0,0,2.269-1.743,2.965-1.917l-5.754,1.396l2.789-2.441
						c0,0-5.926,1.569-6.449,1.917l2.615-3.835c0,0-11.158,6.103-16.911,10.112l2.091-0.523
						C125.557,222.766,121.896,225.904,119.281,228.694z"/>
					<path fill="#B2806E" d="M124.336,291.631l9.765,3.487c0,0-19.178-13.599-21.271-24.756c-6.276-33.475,8.02-62.066,26.85-64.507
						c0,0-10.81,0-13.948,0c0,0-2.788-28.941,10.693-40.331c0,0-19.526-1.162-23.479,11.622
						c-3.952,12.785-8.601,46.957-7.205,55.325c1.394,8.369,2.556,37.659,2.789,40.216c0.23,2.558,4.184,32.08,7.671,41.377
						c3.486,9.298,21.385,31.613,28.126,37.426c6.742,5.811,14.878,7.438,14.878,7.438l1.395-9.298c0,0-18.827-8.485-31.381-25.919
						C129.219,323.711,121.896,308.02,124.336,291.631z"/>
					<path fill="#B2806E" d="M155.021,350.792c0,0,24.406-16.04,50.675-3.488l12.554,5.349c0,0-50.91,12.783-59.045,7.902
						C151.069,355.674,155.021,350.792,155.021,350.792z"/>
					<path fill="#B2806E" d="M201.279,348.467c0,0,23.479-6.74,36.497-29.521c0,0,2.091-14.18-3.255-25.105
						c0,0-6.046,3.488-7.672,4.65c0,0,21.153-23.246,22.781-49.746c0,0-0.466-25.803-18.365-36.729c0,0-5.346-2.789-13.017-2.092
						c0,0,7.902-2.79,11.622-1.628c0,0,12.32-33.241-13.715-49.746c0,0,35.564,9.298,41.146,50.21c0,0-2.093,16.737-1.163,22.548
						c0.931,5.812-0.465,25.105-1.396,30.686c-0.929,5.579-1.396,34.869-1.396,35.564c0,0.699-3.485,24.408-18.597,38.123
						c-15.109,13.716-32.312,26.5-32.312,26.5L201.279,348.467z"/>
					<path fill="#B2806E" d="M166.645,283.729c0,0-3.486-4.067-2.674-6.741c0.813-2.673,6.857-4.533,8.833-3.139
						c1.978,1.396,4.476,6.589,7.847,6.714c3.949,0.145,4.999-0.857,7.758-4.011c1.83-2.093,1.308-2.006,1.308-2.006
						s8.428-0.464,9.822,2.674c1.395,3.14-0.06,6.8-2.935,6.654c-2.878-0.146-7.644-1.771-9.852-0.842l-0.436,5.229l-0.845-5.578
						l-0.317,5.348l-3.022,1.857l-2.905-1.277c0,0-0.378-6.625-0.378-6.044c0,0.582-1.018,5.928-1.018,5.928l-0.843-7.206
						C176.988,281.287,168.155,285.588,166.645,283.729"/>
					<path fill="#B2806E" d="M141.307,349.164c0,0,23.826,38.355,28.011,40.448c4.186,2.092,28.593,2.092,30.336,0.349
						s16.041-20.572,18.132-31.033C217.784,358.928,157.229,367.993,141.307,349.164"/>
					<path fill="#B2806E" d="M226.152,349.862c0,0-16.389,38.354-33.125,57.184c0,0,13.946-24.756,21.968-48.815L226.152,349.862"/>
					<path fill="#B2806E" d="M142.816,350.908c0,0,16.389,38.354,33.125,57.185c0,0-13.946-24.757-21.968-48.815L142.816,350.908"/>
					<path fill="#B2806E" d="M247.306,316.389l5.579,61.368l1.396-22.78c0,0,11.392,3.951,13.02,14.877l0,0
						c0,0,3.951-8.367,3.485-13.481l-17.782-15.574l-0.582-33.708L247.306,316.389"/>
					<path fill="#B2806E" d="M132.007,336.961l4.883,71.132l-4.185-13.25c0,0-4.533-3.487-4.184-5.229
						c0.349-1.744,0.696-16.041,0.696-16.041l1.395-3.95l-4.532-36.495L132.007,336.961"/>
					<path fill="#B2806E" d="M262.068,237.411c0,0,4.53-12.553,10.11-12.901c5.578-0.349,10.636,17.26,0.696,28.941
						c0,0,0.175-13.076-2.44-22.143c-2.613-9.064,0,0,0,0S265.903,232.355,262.068,237.411z"/>
					<path fill="#B2806E" d="M269.825,244.82c0,0-4.794-3.574-7.495-3.226c-2.704,0.35-3.662,2.093-2.181,5.405
						c1.48,3.312,2.527,6.625,2.614,7.845c0.088,1.22-1.831,7.496-2.354,8.718c-0.523,1.22-0.35,1.568-0.35,1.568
						s7.563-1.484,9.938-7.234C272.267,252.405,272.267,247.261,269.825,244.82z"/>
					<path fill="#B2806E" d="M96.615,272.105c0,0-7.846-7.148-8.892-21.271c-1.045-14.122-1.045-20.397,1.918-21.792
						c0,0,6.45,1.395,10.636,14.645c0,0-1.046-2.093-4.358-1.047c0,0-8.543,7.497-2.44,21.445
						C93.479,264.085,95.047,269.142,96.615,272.105z"/>
					<path fill="#B2806E" d="M103.067,266.875c0,0-0.438-0.61-3.4-1.656c-2.964-1.046-7.321-2.964-5.753-14.036
						c0,0,4.097-11.681,8.804-2.004c0,0,1.483,2.528,0.96,4.795C103.155,256.239,100.016,259.901,103.067,266.875z"/>
					<path fill="#B2806E" d="M215.17,288.493c0,0-7.148-10.925-18.479-17.696c-0.107-0.062,0,0,0,0
						c2.613,2.674,3.369,2.266,5.055,5.957C209.01,282.392,215.17,288.493,215.17,288.493z"/>
					<path fill="#B2806E" d="M148.812,288.609c0,0,6.904-9.184,16.61-18.307c0.087-0.083-1.569,2.267-1.569,2.267
						c-0.812,1.164-0.311,0.61-1.951,4.302C154.82,282.507,148.812,288.609,148.812,288.609z"/>
					<path fill="#B2806E" d="M208.893,300.521c0,0,4.359,4.884,3.836,10.983c0,0-1.918-4.01-3.485-5.055
						C209.242,306.451,209.939,303.138,208.893,300.521z"/>
					<path fill="#010101" d="M123.059,225.962c0,0,2.944-1.132,6.016-2.084c2.316-0.719,4.707-1.336,5.957-1.286l-5.812,1.859
						c0,0,5.659-1.206,7.694-1.463c0.242-0.03,0.434-0.049,0.558-0.049c1.162,0-3.604,1.512-3.604,1.512s19.76-0.93,24.757,0.581
						c4.999,1.51,8.601,0.813,9.531-0.813c0,0,1.161-2.79-2.79-4.649c0,0,2.094,0.813,2.324,3.486c0,0,0.697-2.093-4.997-3.603
						c0,0,2.092,0.93,2.79,1.977c0,0-5.23-2.21-9.416-2.674c-4.185-0.464-14.295,1.859-14.295,1.859l6.855-2.092l-9.182,1.511
						l4.067-2.092c0,0-7.902,1.743-10.228,2.439l6.393-3.138l-5.929,1.975l4.301-3.486l-11.39,6.395l4.299-1.628L123.059,225.962z"
						/>
					<path fill="#010101" d="M239.403,224.335c0,0-4.882-1.917-9.765-2.615c0,0,3.661,1.396,4.358,1.917
						c0,0-6.275-1.045-11.681-1.22l2.964,0.872c0,0-8.718,0-13.425,1.394c-4.707,1.396-14.645,2.268-19.353,0
						c0,0,2.267-5.056,5.057-5.927c0,0-2.268,1.917-2.79,4.533c0,0,2.965-5.928,11.157-6.102c0,0-4.882,1.045-6.799,3.312
						c0,0,4.882-4.185,14.47-2.963c9.59,1.22,12.029,1.743,12.029,1.743l-10.982-2.789l9.764-0.698l9.065,4.185l-8.021-5.229
						C225.455,214.747,233.823,218.93,239.403,224.335z"/>
					<path fill="#010101" d="M198.84,233.75c0,0,5.348-3.836,7.555-4.069c2.209-0.23,13.481-0.929,15.227-0.23
						c1.743,0.696,8.835,5.578,9.646,6.392c0,0-5.346-6.161-10.343-7.671c-5-1.51-14.297,0.116-15.344,0.465
						C204.534,228.984,198.84,233.75,198.84,233.75z"/>
					<path fill="#010101" d="M208.604,240.839c0,0-4.185-0.348-6.975-1.86c0,0-0.582-1.742,0.581-3.253c0,0,3.486-4.068,6.974-4.532
						c3.488-0.465,9.764-0.582,15.344,6.043c0,0-1.6,2.5-6.045,3.72c0,0,3.748,0.464,7.408-2.239l4.681,1.31
						c0,0-7.323-9.298-11.624-11.274c0,0-9.297-1.395-11.506,1.162c0,0-8.602,5.928-11.508,8.951
						C195.934,238.865,198.84,240.839,208.604,240.839z"/>
					<path fill="#010101" d="M145.433,242.814c0,0-4.098,0.262-6.974-3.312c0,0,3.661-7.728,12.901-8.368
						c0,0,6.914,0.292,11.332,6.276c0,0,0.087,1.481,0,1.743c0,0-1.25,1.366-3.952,1.803c0,0,6.479,0.029,9.007-1.803
						c0,0-5.142-6.276-12.987-8.716c0,0-11.159-3.14-22.665,10.896c0,0,3.923,0.437,5.057,0.349
						C137.15,241.683,139.68,243.164,145.433,242.814z"/>
					<path fill="#010101" d="M131.137,237.672c0,0,10.896-10.374,21.792-7.845c10.896,2.528,12.901,4.097,12.901,4.097
						s-6.625-4.794-10.635-5.404C151.188,227.91,142.294,226.253,131.137,237.672z"/>
					<path fill="#010101" d="M183.612,280.241c0,0,5.114-2.789,6.511-6.625c0,0-0.35,1.395-0.698,2.092c0,0,6.508,0.466,7.438,2.79
						c0,0-2.905,1.86-9.183,0.465C187.682,278.963,185.82,280.009,183.612,280.241z"/>
					<path fill="#010101" d="M178.034,279.66c0,0-4.068-4.068-5.695-6.625c0,0,0.581,1.744,0.93,2.093c0,0-5.347,0-6.044,4.299
						c0,0,4.999,0.35,7.557-0.929L178.034,279.66z"/>
					<path fill="#010101" d="M196.689,270.797c-0.339-0.247,4.618,4.272,4.474,6.189c-0.192,2.53-3.021,6.276-5.23,6.393
						c-2.207,0.117-3.602-0.116-3.602-0.116s3.347,0.77,4.271,0.61c2.527-0.436,4.678-3.051,5.26-7.235
						C201.861,276.638,202.529,275.069,196.689,270.797z"/>
					<path fill="#010101" d="M166.354,269.142c0,0-4.184,5.414-3.922,8.542c0.086,1.047,4.097,6.451,5.143,6.538
						c1.047,0.087,2.354-0.349,2.354-0.349s-1.133,0.784-2.79,0.784c0,0-2.963-1.481-5.577-6.712
						C161.56,277.945,161.56,274.371,166.354,269.142z"/>
					<path fill="#010101" d="M207.208,304.766c0,0-12.971-11.846-17.202-10.578c-4.647,1.396-7.09,2.675-12.205,0.467
						c0,0-9.646,1.395-17.781,8.601c0,0,10.926-10.345,16.854-9.88c0,0,4.78,1.55,8.834,0.233
						C190.355,292.097,193.144,290.469,207.208,304.766z"/>
					<path fill="#010101" d="M108.53,273.616c0,0,2.904,33.125,7.438,43.47c3.588,8.19,20.456,32.545,33.474,39.983
						c0,0,27.854,10.825,53.696,2.556c17.437-5.579,40.949-31.929,45.795-43.236c4.186-9.764,4.416-30.685,4.416-30.685
						s-1.627,19.76-5.346,29.057c0,0-19.759,30.453-41.61,39.75c0,0-25.337,9.765-56.951-0.93c0,0-21.386-16.969-31.612-38.122
						C117.829,315.459,114.225,308.484,108.53,273.616z"/>
					<path fill="#010101" d="M239.636,328.477c-0.231,0.696-20.225,39.285-40.68,53c0,0,9.996-9.996,13.018-16.97
						c0,0-6.975,10.461-12.089,13.02c0,0-20.92,2.091-32.544-1.86c0,0-9.298-7.438-10.924-9.995c0,0,7.902,11.621,14.412,16.271
						c0,0-19.295-14.412-29.522-32.777c0,0,7.672,8.369,15.808,9.764c8.137,1.396,40.912,3.021,49.746-3.021
						C215.693,349.862,239.636,328.477,239.636,328.477z"/>
					<path fill="#010101" d="M156.183,309.299c0,0,0.117-1.046,2.559-0.813c2.439,0.231,12.437-4.067,14.646-6.741l1.859,0.116
						l-0.116,2.905c0,0,11.507,2.094,16.04-0.348l-0.35-2.559c0,0,6.276,3.371,9.415,4.533c3.139,1.161,6.508,1.741,6.158,3.021
						c0,0-5.694,1.744-7.438,1.047c-0.582-0.232-0.931-3.021-3.488-1.396c-2.856,1.819-18.362,1.511-23.245,0
						c0,0-0.604,1.891-1.162,2.324C170.015,312.204,155.834,311.623,156.183,309.299z"/>
					<path fill="#010101" d="M167.459,302.904c0.114-0.349,19.757-3.834,31.032-0.696c0,0-6.16,0.581-6.625,0.696
						c0,0-13.251-0.696-17.901,0.232L167.459,302.904z"/>
					<path fill="#010101" d="M203.662,314.121c0,0-4.358,7.323-11.157,6.8c-8.754-0.674-14.297-0.522-19.003,0.349
						c-4.708,0.872-13.25-4.532-13.25-4.532s7.321,6.975,16.562,8.193c0,0,8.193,2.093,13.772-1.568
						C190.587,323.361,198.434,323.361,203.662,314.121z"/>
					<path fill="#010101" d="M253.699,276.812c0,0-6.975,52.129,1.045,81.418c0,0-1.917-59.625,0.873-79.152L253.699,276.812z"/>
					<path fill="#010101" d="M124.336,329.638c0.35,1.046,9.415,67.995,9.415,67.995l-4.532-62.416L124.336,329.638z"/>
					<path fill="#010101" d="M253.524,278.556c0,0,4.532,8.194,9.589,5.579c5.056-2.615,14.993-29.115,17.261-38.181
						c2.266-9.066,1.395-23.188-7.846-25.454c-9.241-2.266-13.601,7.671-15.344,16.04c0,0,5.23-17.957,15.169-14.993
						c0,0,11.682,2.964,6.975,24.583c0,0-9.938,30.161-17.086,35.74c0,0-7.498,0.174-8.543-8.021L253.524,278.556z"/>
					<path fill="#010101" d="M262.998,235.842c0,0,4.997-12.437,10.926-11.39c0,0,9.413,5.462,2.672,23.246
						c0,0,3.69-12.989-1.045-19.759c0,0,1.627,2.905,1.045,4.647c-0.581,1.745-4.066,10.664-4.066,10.664s-0.088-6.799-3.254-13.918
						C269.274,229.333,266.717,229.914,262.998,235.842z"/>
					<path fill="#010101" d="M268.46,263.621c0,0,3.37-1.047,4.416-6.395C272.876,257.227,272.992,262.575,268.46,263.621z"/>
					<path fill="#010101" d="M269.971,244.908c0,0-6.625-4.999-9.414-3.721c-2.789,1.279-2.789,5.464-1.047,7.671
						c1.745,2.21,2.326,11.274-0.349,14.878c-2.673,3.602,4.417,2.789,9.646-3.835c0,0-4.997,4.881-7.554,4.067
						c0,0,9.646-8.021-0.234-18.016c0,0-1.741-3.11,0-3.574C262.765,241.915,265.815,242.554,269.971,244.908z"/>
					<path fill="#010101" d="M103.416,234.97c0.401,0.597-3.836-8.543-9.241-9.589c-5.403-1.045-10.11-0.871-9.937,22.49
						c0,0,0.871,16.562,8.368,28.418s13.946,13.948,17.086,8.194v-3.139c0,0-1.57,5.23-7.148,3.312
						c-5.579-1.917-14.819-12.204-16.912-36.263c0,0-1.742-24.408,6.976-22.491C92.606,225.904,98.011,226.95,103.416,234.97z"/>
					<path fill="#010101" d="M99.405,241.595c0,0-5.057-10.81-10.286-11.854c0,0-4.707,10.982,1.918,25.802
						c0,0-1.918-9.588,4.708-15.516C95.745,240.026,98.534,240.026,99.405,241.595z"/>
					<path fill="#010101" d="M98.447,245.169c0,0,4.533-0.437,6.887,8.455c0,0-5.754,6.103-2.093,11.854
						c3.661,5.754,2.439,6.451,2.439,6.451s-2.439-4.882-5.229-5.928s-6.799-1.743-6.625-8.368c0,0-0.522,6.103,6.975,7.322
						c0,0-3.486-6.103,2.091-11.681C102.892,253.276,103.765,246.564,98.447,245.169z"/>
					<path fill="#010101" d="M101.557,232.472c0,0-6.741-32.544-4.418-46.259c2.325-13.715,2.79-40.447,19.991-53
						c0,0,29.522-45.329,69.04-34.402c0,0-3.719,0.696-5.579,1.627c-1.858,0.93-0.929,0.465-0.929,0.465s12.553-2.558,25.337,2.324
						c0,0-4.416-0.696-6.276-0.696c0,0,3.952,2.325,6.045,3.254c0,0,9.066-0.465,13.25,0.93c0,0-2.557,0-3.486,0.233
						c0,0,7.206,0.231,10.691,1.163c0,0-2.323,1.161-3.254,1.394c0,0,4.882,1.162,8.138,3.487l-5.579,0.696
						c0,0,8.483,0.853,9.994,1.86c0.696,0.465-2.788,0.697-2.788,0.697l7.206,4.184c0,0,3.949,0.932,6.044,1.86l-3.022,1.859
						c0,0,1.162,1.396,1.628,2.325c0.464,0.93,4.185,0.931,6.275,2.789l-3.254,0.233c0,0,7.67,3.487,9.764,6.741
						c0,0-2.79-0.931-3.488-0.697c0,0,7.903,7.207,10.229,13.948c0,0-1.625-2.092-2.558-2.791l2.558,5.347
						c0,0-2.325-2.325-2.789-3.022l2.325,7.207l-3.952-5.812c0,0,5.347,13.018,4.647,23.479
						c-0.695,10.459-0.231,11.623-0.231,11.623s5.347,25.803,1.396,36.264c0,0-7.903,9.529-8.369,23.71
						c0,0-0.232-21.619-12.319-33.938c0,0,6.509-29.058-6.975-40.681c0,0,3.721,4.649,4.187,8.136c0,0-6.976-16.736-22.55-15.108
						c-15.575,1.628-15.575,3.952-15.575,3.952s8.137-8.602,9.299-8.834c0,0-12.32,2.325-15.342,6.276l1.395-7.206l-5.113,5.114
						l4.882-9.995l-7.902,10.693l0.464-2.325l-2.79,2.093l3.952-8.369l-6.508,7.671l0.929-3.952l-3.485,4.185l2.558-8.833
						l-3.953,7.903l-2.323-0.698l2.558-8.601l-5.58,9.53l-0.231-3.021l-2.79,2.789l-0.93-6.043l-1.395,5.579
						c0,0-0.467-13.714-0.467-13.017c0,0.698-1.857,13.482-1.857,13.482l-2.094-2.324l-2.556,3.951l-0.233-3.721L162,163.204
						l-0.698-3.022l-1.395,2.092l-1.396-3.021l-0.465,3.487l-0.231-13.019l-1.395,12.321l-2.326-2.79l0.697,3.72l-3.254-3.486
						l1.628,5.347c0,0-9.064-0.232-16.737-10.461c0,0,1.86,7.902,8.833,13.018c0,0-13.481,1.162-18.596,10.229
						c0,0,3.022-5.812,4.881-7.438c0,0-17.899,8.368-10.692,37.658c0,0-17.666,16.504-13.716,42.308
						C107.135,250.138,105.974,238.282,101.557,232.472z"/>
					<path fill="#010101" d="M175.768,267.572c0,0-0.349-34.694-0.521-35.74l-1.568-4.01l0.522,5.229L175.768,267.572z"/>
					<polygon fill="#010101" points="190.062,228.52 189.366,231.832 189.541,265.48 					"/>
					<path fill="#010101" d="M253.002,340.797c0,0,6.973,8.02,10.111,10.111c3.138,2.092,7.671,5.579,7.671,5.579
						s-1.045,42.54-96.585,69.039l-15.342,13.251l2.789-0.35l14.295-12.205c0,0,84.383-16.562,97.282-71.479
						c0,0,11.158,2.093,14.646,5.579c0,0,1.046,4.011,1.046,4.533c0,0,3.487-2.965,5.579-0.872s7.497,5.404,8.195,5.579
						c0.695,0.175-10.287-3.661-11.333-4.011c-1.047-0.349-2.79,0-2.79,0s-1.918,6.45-2.093,7.147c0,0,5.579-0.348,7.322,1.918
						c1.743,2.267,57.882,19.179,62.066,20.572c4.184,1.395,25.977,5.578,36.438,19.7l5.229-1.743c0,0-7.497-8.367-13.599-11.507
						c0,0,11.506,4.882,16.389,12.204l4.531-0.349c0,0-6.102-8.892-13.424-11.683c0,0-22.49-6.625-36.611-14.47
						c-14.122-7.846-33.821-16.562-38.354-17.434c-4.533-0.872-15.168-6.104-19.178-8.195c-4.011-2.092-8.718-1.569-8.718-1.569
						s-8.193-7.32-17.608-9.938c0,0-2.44,0-5.056,0.35L253.002,340.797z"/>
					<path fill="#010101" d="M278.223,384.73l6.51-7.903c0,0,21.852,7.438,36.265,12.087c14.411,4.648,61.833,16.271,69.038,29.058
						l-5.577,5.812c0,0-28.593-16.737-47.422-20.224C318.205,400.073,278.223,384.73,278.223,384.73z"/>
					<path fill="#010101" d="M136.191,413.091c-10.229-13.25-5.579-43.47-5.579-43.47l-3.021,6.974c0,0-7.205,6.741-8.136,7.438
						s-4.416,3.952-6.276,4.649c-1.859,0.697-10.691,5.58-13.25,6.976c-2.558,1.394-6.974,5.578-11.622,7.438
						s-19.062,9.995-19.991,10.924c-0.931,0.932-15.343,9.996-16.737,10.693c-1.396,0.698-32.774,17.436-32.774,17.436l-2.094,6.974
						c0,0,50.909-24.642,51.374-25.569c0.465-0.931,28.593-9.531,33.938-13.481c5.348-3.952,17.203-13.02,17.203-13.02
						c-0.232-0.696,2.558-8.833,2.558-8.833l-3.022,0.465l4.882-3.485l4.649-4.417c-3.488,22.314,6.973,33.473,6.973,33.473
						c19.295,15.575,37.193,13.483,37.193,13.483l2.325-2.324C156.648,426.807,136.191,413.091,136.191,413.091z M105.043,401.468
						c-4.648,2.325-12.785,5.812-17.202,7.671c-4.416,1.859-13.948,7.438-17.897,6.975c0,0,9.763-8.602,14.878-8.602
						c5.112,0,9.995-2.558,11.854-3.952c1.858-1.396,12.783-9.995,16.038-10.228C112.714,393.332,109.692,399.143,105.043,401.468z"
						/>
					<path fill="#010101" d="M161.995,338.007c0,0,21.153-15.575,39.052-0.698C201.047,337.309,185.24,327.312,161.995,338.007z"/>
					<circle fill="#010101" cx="214.239" cy="234.738" r="6.218"/>
					<path fill="#010101" d="M157.229,236.016c0,3.435-2.783,6.219-6.218,6.219s-6.219-2.784-6.219-6.219
						c0-3.434,2.842-5.287,6.276-5.287C154.502,230.729,157.229,232.583,157.229,236.016z"/>
					<path fill="#452E14" d="M154.306,236.713c-0.711,1.001-1.877,1.656-3.197,1.656c-1.321,0-2.486-0.655-3.196-1.656h-0.95
						c-0.021,0.171-0.037,0.346-0.037,0.523c0,2.311,1.874,4.185,4.185,4.185c2.312,0,4.185-1.874,4.185-4.185
						c0-0.178-0.015-0.353-0.036-0.523H154.306z"/>
					<path fill="#452E14" d="M217.186,235.552c-0.71,1.001-1.876,1.656-3.196,1.656c-1.321,0-2.488-0.655-3.198-1.656h-0.951
						c-0.021,0.171-0.035,0.347-0.035,0.523c0,2.311,1.873,4.185,4.186,4.185c2.311,0,4.184-1.874,4.184-4.185
						c0-0.177-0.014-0.353-0.036-0.523H217.186z"/>
					<path fill="#FFFFFF" d="M155.561,234.332c-0.059-0.439-0.137-0.794-0.464-1.122c-0.296-0.295-0.703-0.464-1.122-0.464
						c-0.379,0-0.743,0.144-1.029,0.389c-0.033-0.085-0.062-0.171-0.109-0.252c-0.536-0.917-1.75-1.238-2.668-0.7
						c-0.907,0.53-1.244,1.714-0.721,2.634c0.439,0.772,1.358,1.169,2.224,0.932c0.36-0.1,0.657-0.304,0.892-0.561
						c0.296,0.483,0.886,0.822,1.413,0.822c0.782,0,1.713-0.73,1.598-1.596C155.567,234.386,155.564,234.358,155.561,234.332z"/>
					<path fill="#FFFFFF" d="M213.23,230.879c-0.04-0.027-0.078-0.05-0.118-0.076c-1.505-0.971-3.431,0.955-2.46,2.459
						c0.024,0.04,0.051,0.078,0.076,0.118c0.635,0.984,2.01,1.231,2.87,0.37C214.461,232.889,214.215,231.513,213.23,230.879z"/>
					<path fill="#FFFFFF" d="M215.111,232.322c-1.393,0-1.393,2.158,0,2.158C216.503,234.48,216.503,232.322,215.111,232.322z"/>
					<path fill="#262826" d="M123.64,138.559c0,0,1.742-12.9,9.764-20.396c0,0-2.441,3.312-3.836,7.67
						c0,0,8.719-13.076,21.271-19.003c0,0-18.48,8.543-21.444,38.181c0,0-0.174-13.076,1.744-18.306c0,0-4.011,7.147-4.011,15.168
						c0,0,0.35-10.983,0.872-12.378C127.998,129.493,124.859,133.154,123.64,138.559z"/>
					<path fill="#262826" d="M130.961,146.927c0,0,1.918-22.665,14.995-32.951c0,0-6.8,8.194-9.066,17.783
						c0,0,2.268-3.661,3.139-3.835c0,0-6.276,12.553-5.23,22.665l-1.918-1.918c0,0,0.872-7.846,1.744-9.937
						C134.623,138.733,131.833,143.266,130.961,146.927z"/>
					<path fill="#262826" d="M137.762,150.938c0,0,2.44-35.043,28.939-42.541c0,0-22.49,6.276-27.021,44.108L137.762,150.938z"/>
					<path fill="#262826" d="M150.488,158.957c0,0-4.358-21.096,8.543-37.484c0,0-7.148,5.057-9.416,14.472
						c0,0,1.396-8.021,5.929-13.947c0,0-5.056,5.579-5.752,8.194c0,0,2.091-8.194,9.065-13.076c0,0-21.62,13.25-14.82,43.586
						c0,0-2.092-12.204,2.093-22.839c0,0-1.569,10.461,0.696,18.132c0,0-0.87-9.764,1.395-15.865
						C148.221,140.127,148.221,152.506,150.488,158.957z"/>
					<path fill="#262826" d="M153.451,147.276c0,0,5.929-16.563,9.938-20.921c0,0-3.312,3.312-4.01,4.357
						c0,0,3.836-13.424,10.809-20.572c0,0-5.229,9.415-5.927,13.076c0,0,6.625-9.24,15.517-14.471c0,0-5.928,6.625-7.672,9.938
						c0,0,5.057-5.404,10.811-7.671c0,0-5.754,4.009-8.543,7.671c0,0,7.322-6.799,14.296-6.799c0,0-31.032,16.039-29.638,47.072
						c0,0-2.268-12.553,0.521-19.178c0,0-4.01,5.229-4.01,18.132c0,0-0.521-8.369,1.396-15.517L153.451,147.276z"/>
					<path fill="#262826" d="M163.562,155.993c0,0,0.35-16.04,10.287-27.72c0,0-1.744,4.184-2.268,6.102
						c0,0,3.662-8.02,9.765-11.506c0,0-3.836,4.01-5.754,10.46c0,0,10.112-15.517,20.572-19.178c0,0-8.543,4.185-15.342,16.214
						c0,0,6.799-10.811,14.992-12.902c0,0-12.378,9.065-16.562,25.803c0,0,2.441-6.974,5.058-8.892c0,0-5.755,12.902-5.93,22.839
						l-1.22-5.056l-0.349,4.358h-2.092c0,0-0.35-12.029,2.267-19.526c0,0-3.835,12.378-3.835,18.306l-2.094-0.174
						c0,0,0-12.204,1.568-16.388c0,0-3.486,13.946-3.312,16.562l-1.918-0.349c0,0,0-11.158,2.441-16.563
						C169.841,138.384,163.562,151.111,163.562,155.993z"/>
					<path fill="#262826" d="M181.87,155.121c0,0,9.938-24.059,24.757-30.336c0,0-6.8,4.708-8.892,9.415
						c0,0,9.238-8.717,17.781-10.46c0,0-11.331,2.439-18.305,15.69c0,0,7.321-8.368,11.68-9.415c0,0-10.284,12.379-14.992,23.362
						c0,0,2.79-9.589,6.625-14.122c0,0-4.186,3.139-6.104,5.579c0,0,1.918-7.323,2.441-7.671c0,0-8.543,13.076-9.764,20.05
						c0,0,1.568-10.81,5.928-16.562c0,0-6.449,11.332-7.846,15.517c0,0,0.523-6.451,0.871-7.323
						C186.054,148.845,182.044,153.552,181.87,155.121z"/>
					<path fill="#262826" d="M198.258,151.809c0,0,6.976-17.607,14.471-21.27C212.729,130.539,202.791,142.568,198.258,151.809z"/>
					<path fill="#262826" d="M200.002,152.855c0,0,7.495-17.435,17.608-23.015C217.61,129.841,204.534,143.439,200.002,152.855z"/>
					<path fill="#262826" d="M202.616,153.901c0,0,9.415-19.701,24.932-24.061c0,0-7.496,4.185-9.24,6.974
						c0,0,5.404-3.661,9.415-5.229c0,0-5.404,4.708-8.718,8.021c0,0,6.062-4.063,6.974-3.836c0.698,0.175-7.321,7.497-9.763,12.379
						c0,0,10.461-12.379,20.572-15.691c0,0-3.661,2.615-4.881,3.662c0,0,7.845-3.312,11.155-3.487c0,0-5.928,3.312-6.974,3.835
						c0,0,6.974-1.568,10.461-0.872c0,0-6.799,0-14.644,4.707c0,0,4.706-2.092,12.029-1.567c0,0-11.508,1.917-20.226,10.982
						c0,0,5.405-6.799,8.021-7.845c0,0-8.021,4.358-11.682,10.286c0,0,3.797-6.693,4.706-7.148c0.697-0.348-5.928,5.405-8.368,8.893
						c0,0,3.662-6.276,4.358-6.975c0.523-0.522-7.823,7.998-8.543,8.717c-0.523,0.523,2.79-6.974,2.79-6.974
						s-5.726,7.517-6.625,8.717c-0.523,0.697,8.542-14.471,8.717-14.993c0,0-11.158,11.157-11.507,12.9
						c-0.348,1.744-0.348,0.697-0.348,0.697l6.448-12.029L202.616,153.901z"/>
					<path fill="#262826" d="M235.916,152.971c0,0,14.877-5.113,20.456-2.092C256.372,150.879,250.328,155.761,235.916,152.971z"/>
					<path fill="#262826" d="M244.865,141c0,0,8.483-1.627,15.108,4.417c0,0-1.975-1.278-4.184-1.859c0,0,2.673,1.512,4.417,4.533
						c0,0-2.44-1.744-4.649-2.79c0,0,2.558,2.559,3.255,3.835c0,0-3.836-4.532-14.528-5.928c0,0,7.556,0.232,9.531,1.511
						c0,0-1.859-1.858-7.671-2.557c0,0,4.067-0.233,5.113,0.116C251.259,142.278,249.05,141.464,244.865,141z"/>
					<path fill="#3B3C3B" d="M255.676,229.681c0,0-2.325-13.017-7.672-17.666c0,0,3.021-16.04,0.233-23.478
						c0,0,3.485,1.395,8.833,10.46c0,0-2.094-4.882-4.187-7.671c0,0,3.255,2.091,6.511,9.763l-2.324-6.508
						c0,0,3.949,6.508,5.346,9.763l-2.092-8.136c0,0,3.486,14.413,3.72,17.899c0.232,3.486-0.698,7.902-0.698,7.902
						S255.676,227.59,255.676,229.681z"/>
					<path fill="#3B3C3B" d="M104.113,229.217c0,0,9.414-19.525,12.9-22.315c0,0-4.185-19.527,4.185-37.658
						c0,0-8.717,3.138-13.25,7.672c0,0,6.625-6.625,9.415-8.021c0,0-12.901,5.929-15.344,12.204l3.14-10.11
						c0,0-6.625,10.11-6.625,18.131C98.534,197.138,102.369,220.5,104.113,229.217z"/>
				</g>
			</g>
		</g>
		<g>
			<path fill="#FFFFFF" d="M200.001,524.574c-15.623,0-28.334-12.71-28.334-28.334c0-15.623,12.711-28.332,28.334-28.332
				c15.622,0,28.332,12.709,28.332,28.332C228.333,511.864,215.623,524.574,200.001,524.574z"/>
			<path fill="#D4B66D" d="M200.001,469.908c14.543,0,26.332,11.789,26.332,26.332c0,14.545-11.789,26.334-26.332,26.334
				c-14.545,0-26.334-11.789-26.334-26.334C173.667,481.697,185.456,469.908,200.001,469.908 M200.001,465.908
				c-16.727,0-30.334,13.606-30.334,30.332s13.607,30.334,30.334,30.334c16.726,0,30.332-13.608,30.332-30.334
				S216.727,465.908,200.001,465.908L200.001,465.908z"/>
		</g>
		<g>
			<g>
				<defs>
					<circle id="SVGID_13_" cx="200" cy="496.24" r="23.355"/>
				</defs>
				<clipPath id="SVGID_14_">
					<use xlink:href="#SVGID_13_"  overflow="visible"/>
				</clipPath>
				<g clip-path="url(#SVGID_14_)">
					<polygon fill="#21418C" points="162.379,495.914 162.379,498.844 162.379,498.844 162.379,501.572 162.379,501.77 
						162.379,504.697 162.379,507.625 239.303,507.625 239.303,504.697 239.303,501.77 239.303,501.572 239.303,498.844 
						239.303,498.844 239.303,495.914 					"/>
					<rect x="162.379" y="507.625" fill="#CE2028" width="76.924" height="12.449"/>
					<polygon fill="#FECF0A" points="162.379,472.242 162.379,484.205 162.379,487.133 162.379,489.863 162.379,490.061 
						162.379,492.988 162.379,495.914 239.303,495.914 239.303,492.988 239.303,490.061 239.303,489.863 239.303,487.133 
						239.303,484.205 239.303,472.242 					"/>
				</g>
			</g>
		</g>
	</g>
</g>
</svg>
