<?xml version="1.0" encoding="utf-8"?>
<!-- Generator: Adobe Illustrator 16.0.0, SVG Export Plug-In . SVG Version: 6.00 Build 0)  -->
<!DOCTYPE svg PUBLIC "-//W3C//DTD SVG 1.1//EN" "http://www.w3.org/Graphics/SVG/1.1/DTD/svg11.dtd" [
	<!ENTITY ns_flows "http://ns.adobe.com/Flows/1.0/">
	<!ENTITY ns_extend "http://ns.adobe.com/Extensibility/1.0/">
	<!ENTITY ns_ai "http://ns.adobe.com/AdobeIllustrator/10.0/">
	<!ENTITY ns_graphs "http://ns.adobe.com/Graphs/1.0/">
]>
<svg version="1.1" xmlns:x="&ns_extend;" xmlns:i="&ns_ai;" xmlns:graph="&ns_graphs;"
	 xmlns="http://www.w3.org/2000/svg" xmlns:xlink="http://www.w3.org/1999/xlink" xmlns:a="http://ns.adobe.com/AdobeSVGViewerExtensions/3.0/"
	 x="0px" y="0px" width="400px" height="560px" viewBox="0 0 400 560" enable-background="new 0 0 400 560" xml:space="preserve">
<g id="Layer_1" display="none">
	<g display="inline">
		<g>
			<defs>
				<polygon id="SVGID_97_" points="356,-159.385 200,-89.26 44,-159.385 44,-434.322 356,-434.322 				"/>
			</defs>
			<clipPath id="SVGID_2_">
				<use xlink:href="#SVGID_97_"  overflow="visible"/>
			</clipPath>
			<path clip-path="url(#SVGID_2_)" fill="#DAB128" d="M422.49-75.398c-2.885-12.652-7.546-21.395-7.546-21.395
				c-21.497-26.725-129.172-86.045-139.684-91.799c-7.748-46.885,10.292-94.176,13.957-103.115
				c9.88-0.602,18.066-12.441,18.733-14.109c0.916-2.291,3.437-5.728,8.705-20.161c5.271-14.435-0.916-23.599-7.561-25.202
				c-0.543-0.131-1.091-0.189-1.639-0.195c0.057-2.105,0.582-6.764,3.472-14.468c4.124-10.997,2.75-22.224,2.75-22.224
				c-1.833-51.549-30.472-70.336-70.565-86.832s-79.043,9.852-83.396,17.184c-4.354,7.332-19.703,21.994-27.264,33.908
				c-6.102,9.613,0.178,29.961,2.831,37.462c-0.65,4.729-0.748,9.562-0.159,14.622c1.135,9.752,0,17.412-1.833,25.966
				c0,0-4.276,21.841,1.451,43.378c4.229,15.898,4.307,26.037,5.729,32.074c1.832,7.791,2.978,18.559,7.331,23.369l0.908,17.252
				l-12.974,8.256c0,0-9.119,4.609-23.229,11.826c-26.553,12.869-100.738,51.445-135.777,71.916
				c-8.902,4.463-16.236,8.66-18.387,12.047c-0.277,0.318-0.415,0.568-0.396,0.742c0,0-0.892,1.74-2.26,4.555
				c-0.714,0.414-1.103,0.639-1.103,0.639s0.221,0.133,0.617,0.365c-3.824,7.932-10.575,22.67-13.141,32.932
				c0,0,2.193-5.535,5.24-12.369c-9.284,22.857-21.126,52.082-21.126,52.082s31.159,78.812,34.215,79.424
				c3.054,0.611,480.212-38.49,480.822-38.49C441.216-5.76,433.978-45.715,422.49-75.398z M209.434-148.877
				c4.129,0.781,7.978,1.402,11.585,1.896c-10.821-0.256-22.313-3.01-32.942-10.828C194.764-153.51,201.921-150.295,209.434-148.877
				z M275.868-185.295c-0.001,0.023-0.004,0.059-0.006,0.088c-0.013-0.066-0.024-0.133-0.037-0.199L275.868-185.295z"/>
		</g>
		<g>
			<defs>
				<polygon id="SVGID_99_" points="356,-159.387 200,-89.27 44,-159.387 44,-507.66 356,-507.66 356,-245.93 				"/>
			</defs>
			<clipPath id="SVGID_4_">
				<use xlink:href="#SVGID_99_"  overflow="visible"/>
			</clipPath>
			<g clip-path="url(#SVGID_4_)">
				<path fill="#1D191A" d="M416.715-17.26c0,0-15.272-84.312-36.657-98.975s-97.754-62.316-106.917-67.205
					c-9.165-4.889-18.33-10.387-18.33-10.387s-3.665,24.438-18.328,28.104c-14.662,3.666-56.208,20.771-84.923-15.273
					c-28.715-36.047-35.893-50.709-35.893-50.709S1.264-174.889-15.843-165.111c-17.106,9.775-47.653,21.383-50.708,28.715
					c-3.056,7.332-31.771,78.203-31.771,78.203s31.159,78.812,34.215,79.424C-61.054,21.842,416.104-17.26,416.715-17.26z"/>
			</g>
		</g>
	</g>
	<g display="inline">
		<rect x="0" y="0.001" transform="matrix(1 -0.0013 0.0013 1 -0.3608 0.2581)" fill="#223D73" width="400" height="560"/>
		<g>
			<polygon fill="#E02B39" points="399.935,242.836 399.676,42.682 0.069,334.084 0.361,560.258 			"/>
		</g>
		<g>
			<g>
				<polygon fill="#FFFFFF" points="39.848,423.733 39.482,141.385 360.482,140.971 360.848,423.319 200.44,495.674 				"/>
				<g>
					<path fill="#010101" d="M355.988,145.477l0.355,274.938l-155.91,70.326l-156.09-69.924l-0.355-274.938L355.988,145.477
						 M364.977,136.465l-9,0.012l-312,0.402l-9,0.012l0.012,9l0.355,274.938l0.008,5.822l5.312,2.38l156.09,69.924l3.692,1.653
						l3.688-1.663l155.91-70.326l5.308-2.394l-0.008-5.822l-0.355-274.938L364.977,136.465L364.977,136.465z"/>
				</g>
			</g>
			<g>
				<path fill="#D3B76E" d="M364.814,136.465l0.012,9l0.355,274.938l0.007,5.826L200.284,500.24L35.188,426.279l-0.007-5.451
					l-0.355-274.938l-0.011-9l9-0.012l311.999-0.402L364.814,136.465 M371.806,129.456l-7,0.009l-9,0.012l-311.999,0.402l-9,0.012
					l-7,0.009l0.009,6.999l0.011,9l0.355,274.938l0.007,5.451l0.006,4.528l4.132,1.852l165.096,73.961l2.865,1.283l2.863-1.285
					l164.904-74.012l4.139-1.858l-0.005-4.536l-0.007-5.826l-0.355-274.938l-0.012-9L371.806,129.456L371.806,129.456z"/>
			</g>
			<g>
				<defs>
					<polygon id="SVGID_171_" points="356.344,420.414 200.434,490.74 44.344,420.816 43.988,145.879 355.988,145.477 					"/>
				</defs>
				<clipPath id="SVGID_6_">
					<use xlink:href="#SVGID_171_"  overflow="visible"/>
				</clipPath>
				<path clip-path="url(#SVGID_6_)" fill="#DCDCD5" d="M459.047,497.539c-7.697-25.621-18.882-51.627-34.032-60.918
					c-27.428-16.818-113.428-72.52-119.431-75.179c-4.69-2.077-14.162-7.556-18.085-9.854
					c-3.672-39.359,10.405-64.054,10.405-64.054l-0.428,0.143c0.743-0.68,1.512-1.443,2.3-2.271
					c2.622-2.753,4.621-3.131,4.621-3.131c10.497-2.639,21.349-20.152,21.349-20.152c11.097-17.927,2.042-40.696-6.74-42.906
					c8.817-47.725-2.775-65.957-2.775-65.957c2.252,0.748,4.256,3.745,4.256,3.745c-8.554-40.989-53.316-51.182-53.316-51.182
					c-21.494,4.528-19.771-15.475-67.275-19.163c-47.504-3.688-39.693,43.802-39.693,43.802
					c-36.487,9.297-24.676,57.031-20.417,64.026c3.21,5.271,3.165,18.78,2.946,25.117c-1.822,10.773-4.154,21.479-6.123,31.387
					c-3.975,20.005,8.418,48.653,13.074,57.732c3.644,7.108,11.592,22.944,16.949,33.639c0.163,3.51,0.583,12.447,1.057,22.216
					c-2.31,1.196-11.551,5.98-23.518,12.107c-6.15,3.1-13.107,6.635-20.461,10.421c-20.546,10.399-42.237,21.162-50.727,24.634
					c-17.99,7.357-64.624,34.085-71.866,103.427c0,0,0.503-1.971,1.56-5.37c-0.584,3.554-1.003,7.179-1.221,10.869
					c0,0,246.155,120.185,471.049,37.893C472.504,558.56,468.684,528.312,459.047,497.539z M324.922,261.77
					c-1.054,1.995-2.139,3.45-2.982,4.426C323,264.789,324.008,263.311,324.922,261.77z M425.199,438.869
					c-0.117-0.081-0.232-0.17-0.35-0.249C424.85,438.62,424.971,438.698,425.199,438.869z"/>
			</g>
			<g>
				<defs>
					<polygon id="SVGID_173_" points="356.344,420.414 200.434,490.732 44.344,420.816 43.895,72.543 355.894,72.141 
						373.993,217.182 356.231,333.871 					"/>
				</defs>
				<clipPath id="SVGID_8_">
					<use xlink:href="#SVGID_173_"  overflow="visible"/>
				</clipPath>
				<g clip-path="url(#SVGID_8_)">
					<path fill="#E02B39" d="M449.173,560.59c0,0-12.124-95.985-47.655-119.939c-35.53-23.954-126.104-80.338-130.104-80.832
						l-3.004-2.496c0,0,11.534,26.484-72.397,79.594c0,0-19.324,5.525-33.835-2.456c0,0-17.943-19.478-16.971-40.979
						c0.973-21.502,0.215-27.001,0.215-27.001S49.982,413.104,20.51,434.143c0,0-39.451,38.551-42.386,88.555
						C-21.876,522.697,224.279,642.881,449.173,560.59z"/>
					<path fill="#9E1D22" d="M278.948,386.476c0,0-13.651,11.685-37.303,22.715c0,0,19.32-8.691,37.306-20.048
						c0,0,38.383,37.284,51.102,78.601C330.053,467.743,318.993,421.757,278.948,386.476z"/>
					<path fill="#9E1D22" d="M254.955,392.09c-0.772,0.682,16.812-16.605,19.301-25.608c0,0-2.502-1.665-3.168-1.83
						c-0.668-0.165,0.16-4.166,0.16-4.166l6.839,3.324C278.087,363.81,275.266,374.146,254.955,392.09z"/>
					<path fill="#9E1D22" d="M151.156,419.641c0,0-13.352-15.15-19.877-35.309c0,0-50.321,9.732-84.572,74.11
						c0,0,34.589-61.044,83.242-70.773C129.949,387.669,136.973,405.658,151.156,419.641z"/>
					<path fill="#9E1D22" d="M160.012,435.963c1.001,0.999,2.34,4.664,5.007,4.994c2.668,0.329,22.338,2.971,28.001,0.963
						c5.665-2.007,15.657-8.353,15.657-8.353s-11.322,9.349-16.321,10.021c-4.999,0.673-22.334,0.028-27.336-1.299L160.012,435.963z
						"/>
					<path fill="#9E1D22" d="M397.359,446.322c-0.205-0.067-0.853-0.523-1.902-1.271c-4.096-2.926-14.313-10.338-28.121-16.689
						c-17.344-7.978-37.031-24.619-37.031-24.619s13.021,16.316,24.028,21.969c11.007,5.653,16.678,7.645,20.346,9.307"/>
					<path fill="#9E1D22" d="M140.593,370.32c0,0-3.647,14.338,5.71,32.326c0,0-2.036-20.494-1.377-33.665c0.325-6.501,0,0,0,0
						L140.593,370.32z"/>
					<path fill="#F8B199" d="M267.925,368.572c0,0-10.533-25.986-3.067-52.246s7.466-26.26,7.466-26.26s3.493-5.504,7.992-6.51
						c4.498-1.006,22.982-14.613,25.793-31.616c0,0,2.804-23.005-9.705-29.989c0,0-3.166-0.161-3.667-0.661
						c-0.5-0.499-36.34-68.202-69.599-75.409c-33.26-7.207-78.031-24.15-96.486,10.624c-18.455,34.773-6.456,34.508-6.456,34.508
						s1.541,31.749-2.936,49.754c-4.477,18.006-6.455,34.759,4.574,57.495c11.029,22.735,22.559,45.471,22.812,47.97
						c0.254,2.5,0.814,49.749,0.814,49.749s3.034,26.496,18.553,40.727c0,0,22.506,4.471,30.502,1.461
						C202.511,435.157,252.22,403.093,267.925,368.572z"/>
					<path fill="#FFFFFF" d="M209.931,227.647c0,0-8.118,5.261-21.56,2.652c0,0-1.379-3.311-0.505-4.062s7.87-3.322,11.684-2.891
						c3.813,0.434,9.566,2.926,9.566,2.926L209.931,227.647z"/>
					<path fill="#FFFFFF" d="M131.249,232.583c0,0,5.921,3.492,17.417,0.644c0,0,0.997-2.168-3.005-3.996
						c-4.003-1.829-9.419-2.322-9.419-2.322s-4.164,2.006-5.076,6.007"/>
					<path fill="#D1937A" d="M260.822,288.832c0,0,5.559,45.492-56.384,90.072c-9.823,7.07-43.944,5.242-48.505-3.438
						c-5.514-10.492-7.033-25.49-7.033-25.49s0.021,16.167,12.024,18.484s29.003,2.795,35.998-1.547
						c6.994-4.342,32.643-18.375,42.295-30.055c9.651-11.68,13.981-14.685,13.981-14.685S263.18,306.828,260.822,288.832"/>
					<path fill="#D1937A" d="M149.747,359.809c0,0,0.995-4.168,6.327-4.342c4.607-0.15,28.778-0.551,38.836,2.117
						c5.002,1.326,13.501,0.065,13.501,0.065s31.229-15.79,45.948-39.56c0,0-13.958,32.519-48.191,45.062
						c0,0-2.994,4.754-23.242,5.78C162.677,369.959,153.26,369.138,149.747,359.809z"/>
					<path fill="#D1937A" d="M150.897,347.64c0,0,21.982-13.861,51.832-1.899C202.729,345.74,170.493,324.448,150.897,347.64z"/>
					<path fill="#D1937A" d="M152.494,325.847"/>
					<path fill="#D1937A" d="M148.358,316.852c0,0,2.507,5.997,3.884,7.495c0,0,0.259,6.25,5.889,9.993l-0.252-0.875
						c0,0,6.881,4.366,12.006,3.734c5.124-0.632,8.87-3.512,11.736-10.266c0,0-2.124,0.878-3.123,1.129
						c0,0,6.246-3.008,11.859-11.89c0,0-7.362,9.884-22.36,11.653C167.997,327.826,155.374,329.343,148.358,316.852z"/>
					<path fill="#D1937A" d="M154.029,321.22c-1.08-0.11-3.168-1.913-0.835-2.832c0,0,24.754,2.968,34.994-4.212
						C188.188,314.176,178.201,323.688,154.029,321.22z"/>
					<path fill="#D1937A" d="M146.093,305.312c0,0,7.406-8.094,11.741-7.015c4.336,1.078,7.17,2.99,9.254,2.655
						c2.083-0.336,7.664-2.926,11.08-2.598c3.417,0.328,15.168,1.396,19.674,5.558c0,0-3.586-1.244-5.752-1.075
						c-2.166,0.168-32.664,1.208-44.995,3.891L146.093,305.312z"/>
					<path fill="#D1937A" d="M171.383,287.76c0,0,1.486,4.25,0.654,6.312c0,0-0.644,2.125-4.642,3.38c0,0-1.751-0.372-2.752-1.371
						c0,0,1.869-4.628,1.428-7.377c0,0,0.942,3.812-0.553,7.001c0,0,1.313,0.686,1.751,0.747c0,0,2.999-0.816,4.121-2.63
						c0,0-2.373,1.753-3.997,2.005l-1.313-0.623c0,0,0.56-2.188,0.621-2.751c0,0,2.439,1.122,4.249-0.818
						C170.95,291.635,171.637,291.01,171.383,287.76z"/>
					<path fill="#D1937A" d="M189.305,275.758c0,0-12.8-6.817-23.004-3.305c-6.606,2.275-8.998,1.346-8.998,1.346
						s2.531,4.965,3.008,5.912c0.25,0.5-4.38-3.119-4.387-8.744l-0.246,3.375c0,0-3.125,0.005-4-0.119l0.127,1.5
						c0,0-5,0.131-6.122,2.258c0,0,3.881,4.495,7.759,6.615c0,0,4.255,3.994,8.002,1.489c0,0-1.248,1.627-3.498,1.88
						c0,0,3.876,0.119,7.12-4.385c0,0,3.25,0.371,5.497-2.069c0,0-2.873,1.379-6.188-0.117c0,0,0.808-3.876,3.995-3.38
						c3.188,0.496,5.067,3.181,5.505,3.43c0.438,0.25,9.938,1.113,12.685-1.891L189.305,275.758z"/>
					<path fill="#D1937A" d="M155.743,356.802c0,0-9.519-14.655-11.881-36.652c0,0-1.822,7.669-1.821,8.503
						c0,0-9.444-20.655-7.46-32.658c1.984-12.002-13.099-11.482-19.277-21.308c0,0,4.358,18.828,10.038,29.821
						c5.681,10.992,12.033,25.817,16.045,34.312c4.011,8.494,4.511,8.66,4.511,8.66s3.685,13.995,8.024,18.989
						c0.618,0.712-0.001-0.666-0.001-0.666L155.743,356.802z"/>
					<path fill="#D1937A" d="M143.577,293.233"/>
					<path fill="#D1937A" d="M136.094,305.992c0,0-1.759-6.997,7.483-12.759C143.577,293.233,133.075,291.246,136.094,305.992z"/>
					<path fill="#D1937A" d="M154.782,257.969c0,0-14.98,15.02-11.975,20.016c1.503,2.498,8.382,5.113,8.382,5.113
						s-7.381-4.448-6.011-8.367c2.141-6.123,5.737-9.882,5.737-9.882L154.782,257.969z"/>
					<path fill="#D1937A" d="M184.457,263.598c0,0,6.835,1.824,10.175,6.486c0,0-1.506-3.163-3.34-4.662
						c0,0,2.833-0.505,6.843,7.324c4.011,7.828,10.677,7.82,14.015,10.815s5.512,9.159,6.015,11.658c0,0-1.674-6.247-6.428-8.991
						c0,0,4.171,3.662,3.93,10.328c0,0-0.423-4.998-6.011-8.491c0,0,6.351,13.158,1.362,22.331c0,0,3.317-11.754-3.695-21.162
						c-4.97-6.669-9.004-3.321-15.353-15.98c0,0-0.671-2-3.006-4.496C188.964,268.758,187.126,265.595,184.457,263.598z"/>
					<path fill="#D1937A" d="M148.354,312.978c0,0-4.667-0.161-6.51-7.158c0,0-1.164,1.835-1.163,2.335s-2.512-8.83,9.315-14.846
						c0,0-4.163,4.506-0.657,9.001c0,0-3.663,2.006-3.66,4.172S148.354,312.978,148.354,312.978z"/>
					<path fill="#D1937A" d="M194.214,301.668c0,0,7.999-0.386,6.119-4.133c0,0-2.256-4.623,0.868-5.252s7.258,5.616,5.02,14.744
						c0,0-0.003-2-0.754-2.874c0,0-2.496,2.878-6.62,3.634c-4.124,0.755-0.001-0.5-0.001-0.5S197.216,303.289,194.214,301.668z"/>
					<path fill="#D1937A" d="M203.912,358.905c0,0,27.973-21.036,24.24-72.698c0,0-3.348-10.662,11.313-16.015
						c11.495-4.197,21.979-16.028,18.275-43.69c0,0,0.807-21.168-20.875-33.306c0,0,6.001,0.825,6.502,1.325
						c0,0-3.673-3.496-7.175-5.158c0,0,7.338,2.99,8.005,3.49c0.669,0.498-6.673-5.326-8.008-5.99l8.337,2.656
						c0,0-8.876-33.155-33.383-38.124c0,0,48.746-3.062,53.567,52.431l1.797,35.998c0,0-3.169,62.754-13.892,83.768
						C252.617,323.592,225.662,358.377,203.912,358.905z"/>
					<g>
						<path fill="#D1937A" d="M226.597,212.69c0.016,0.006,0.035,0.016,0.045,0.02C226.659,212.716,226.638,212.706,226.597,212.69z
							"/>
						<path fill="#D1937A" d="M193.536,248.848c1.401,0.752,2.36,0.943,2.36,0.943C195.062,249.504,194.276,249.188,193.536,248.848
							z"/>
						<path fill="#D1937A" d="M221.471,210.717c0,0,4.628,1.771,5.126,1.974c-0.436-0.197-3.542-1.976-3.542-1.976l5.338,2.408
							l-4.589-3.41l3.503,2.162l-3.589-3.578l3.503,2.162l-3.67-3.495l3.167,1.079l-5.671-3.493l3.585,0.745l-1.251-0.748
							l1.416-0.585l-4.836-0.743l2.167-1.003l-1.918-0.082l-1.333-0.831l2.582,0.414l-4.084-1.495l1.75-0.336l-5.834-0.159
							l1.333-0.918l-2.75,0.17l3.748-1.589l-17.584,0.44l1.25-0.585c0,0-4.165,0.671-4.499,0.672c-0.25,0,1.664-1.085,1.664-1.085
							s-4.499,0.422-5.83,1.09l1.163-2.084c0,0-2.417,0.919-3.083,1.337l0.332-1.501c0,0-2.663,1.588-4.408,5.84
							c0,0-0.338-3,0.494-5.084c0,0-1.414,3.086-1.494,4.586c0,0-1.757-3.748-1.673-3.498s0.173,3.916,0.089,3.666
							c-0.085-0.25-2.342-6.08-2.342-6.08l1.255,4.081l-1.92-3.163l1.005,4.164l-3.339-4.328l1.338,3.165l-1.837-2.248l1.003,2.165
							l-2.254-2.663l2.757,5.496l-2.254-3.497l1.588,3.081l-2.17-2.747l2.09,6.08l-5.172-4.993l4.007,5.329
							c0,0-6.09-4.242-5.839-3.992c0.25,0.249,4.422,3.494,4.422,3.494l-5.337-2.16l5.421,3.743l-4.334-1.411l3.084,1.412
							l-3.416-0.412l6.17,3.159l-7.504-3.073l3.503,2.411l-3.666,0.255l7.087,2.324l-3.75-0.244c0,0-0.289,2.541,3.219,9.036
							c0,0-1.255-3.748-0.467-6.29c0,0,0.053,7.833,5.728,14.658c0,0,0.497-2.25,1.12-3.835c0.014-0.033,0.043-0.034,0.07-0.055
							c-0.217,1.52-0.659,5.632,0.275,9.222c0,0,0.82,10.475,11.952,15.58c-2.357-1.262-5.967-4.107-8.404-10.293
							c0,0,4.798,4.951,16.13,3.687c0,0-3.666-0.245-5.417-0.575c0,0,6.502,1.074,10.664-1.432c0,0-9.502-1.737-16.926-7.561
							c0,0,15.166-0.52,20.246-3.276c0,0,7.834,1.407,12.004,3.151l-1.167-1.165l1.667,0.831l0.665-1c0,0-2.084-1.416-2.835-1.831
							c0,0,4.129,1.144,4.668,1.411c0.334,0.167-9.682-10.32-32.096-8.959c0,0,3.5-1.254,6.583-1.091c0,0-4.752-0.911-6.251-0.742
							c0,0-4.34-4.078-0.928-8.499c0,0,5.245-2.59,10.83-1.598l3.582-1.838l-2.414,1.67l2.415-0.92l-2.913,2.337l2.748-1.169
							l-1.498,1.502l4.997-2.591l-2.247,2.17l6.828-3.176l-3.247,2.254l3.415-1.755l-4.496,2.924l4.748-1.924l-2.666,1.504
							l3.749-0.838l-2.831,1.42l2.999-0.92c0,0-3.496,2.921-4.246,3.172c0,0,7.246-3.177,7.996-3.344l-2.332,1.92L221.471,210.717z
							 M184.125,233.181c-0.502-1.499,0.746-3.313,0.746-3.313s-0.56,2.251-0.371,3c0.188,0.75,0.689,1.375,1.189,1.749
							C185.689,234.616,184.627,234.68,184.125,233.181z M196.3,223.29c7.203,0.15,13.256,4.67,13.256,4.67
							c-7.932,4.636-22.684,2.654-22.684,2.654S185.05,223.055,196.3,223.29z"/>
					</g>
					<path fill="#D1937A" d="M148.881,237.477c0,0-17.247,2.521-24.749,0.781c0,0,1.462,2.248,4.296,3.744
						c0,0,6.587,2.742,9.212,2.363c0,0-5.708,1.3-12.253-2.234c0,0,4.546,4.037,11.131,4.861c4.845,0.605,13.865-7.768,13.865-7.768
						s-4.246,2.755-5.621,2.882C144.762,242.106,148.507,238.227,148.881,237.477z"/>
					<path fill="#D1937A" d="M120.725,213.763c0,0,5.743-5.758,15.497-2.521s14.004,2.982,15.503,1.98
						c0,0,6.755,3.991,10.016,12.236c0,0-1.51-7.748-9.77-14.986c0,0-4.762-8.994-15.516-11.98c0,0,3.002,1.246,4.003,2.244
						c0,0-9.422-4.737-17.996,2.857C122.462,203.594,119.715,205.764,120.725,213.763z"/>
					<path fill="#D1937A" d="M146.488,224.229c1.501,0.748,3.504,2.745,3.504,2.745c-3.727-12.365-14.229-11.46-17.801-10.764
						c9.075-1.975,17.791,3.264,17.791,3.264c-12.513-9.484-25.505-3.967-28-0.214s-4.474,20.506-4.474,20.506
						c2.497-2.503,12.741-6.517,12.741-6.517s-0.508-6.249,9.241-6.762s12.681,11.066,12.681,11.066
						C151.662,230.556,146.488,224.229,146.488,224.229z M122.91,228.344c0,0,2.323-7.837,10.156-8.848
						c7.832-1.01,14.172,4.316,14.172,4.316c-2.503-2.164-11.671-3.152-11.671-3.152c7.002,1.491,8.672,4.156,8.672,4.156
						C131.897,217.498,122.91,228.344,122.91,228.344z"/>
					<path fill="#D1937A" d="M175.27,248.442c0,0-2.729,15.753-1.229,15.751s9.364-1.016,10.417-0.596
						C185.29,263.93,176.787,261.94,175.27,248.442z"/>
					<path fill="#D1937A" d="M154.529,256.219c0,0,9.877-30.263,4.703-36.422c0,0-3.218,24.67-10.459,31.18
						c0,0,3.934-4.006,4.994-4.007C154.518,246.969,154.775,253.219,154.529,256.219z"/>
					<path fill="#D1937A" d="M154.943,253.969c0,0,10.295-30.18,5.446-41.008c0,0,2.01,7.665-0.814,13.668L154.943,253.969z"/>
					<path fill="#D1937A" d="M122.462,203.594c0,0,3.569-10.921,16.567-12.938l-9.333,1.012l-0.335-2.667
						c0,0,11.329-2.015,21.659-4.694c0,0-20.094,3.026-22.329,3.029c-1,0.002,7.331-1.676,13.663-3.185
						c0,0-4.025-18.161,7.965-26.177c0,0,23.005,3.636,48.335,0.604c25.33-3.033,37.681,10.285,42.693,20.278l-0.02-15.665
						c0,0-12.693-18.984-40.362-21.948c-27.672-2.965-34.339-3.29-36.338-2.621c-1.999,0.671-38.311,18.05-38.307,21.384
						c0.005,3.334-3.966,26.004-3.63,27.67c0.336,1.668-0.324,7.334,0.012,9.334c0.337,2-2.992,6.004-2.992,6.004L122.462,203.594z"
						/>
					<path fill="#D1937A" d="M117.763,243.017c0,0-6.461,30.258,10.054,41.487c0,0-10.752-1.236-11.756-4.735
						C115.056,276.27,109.279,255.527,117.763,243.017z"/>
					<path fill="#D1937A" d="M273.633,270.482"/>
					<path fill="#D1937A" d="M293.661,261.289c0,0,0.736-10.626-6.142-13.117c-6.878-2.49-7.002-1.865-7.002-1.865
						s-3.122,2.504-1.992,6.877c1.131,4.374,2.635,6.997,1.261,8.248c-1.373,1.252-7.241,6.26-6.739,7.635
						C273.549,270.44,274.18,275.064,293.661,261.289z"/>
					<path fill="#D1937A" d="M298.78,256.408c0,0,2.484-11.963-7.36-22.116c0,0,4.004,3.495,5.006,4.993
						c1.002,1.499,0.501,0.667,0.501,0.667s-5.178-7.827-7.179-8.492c0,0-1.665,0.837-1.83,1.503c0,0,4.344,7.662,4.184,13.495
						c0,0-1.51-7.165-9.847-9.654c0,0-1.165,0.835-2.58,3.337c0,0,5.396-16.924,13.233-14.685
						C292.908,225.456,309.412,230.352,298.78,256.408"/>
					<path fill="#D1937A" d="M294.11,221.789c0,0-16.998,1.771-22.716,26.154c0,0,0.862-9.377,5.978-16.883
						c0,0-10.116,6.388-11.604,16.515c0,0,0.343-24.876,10.34-27.389s12.618-4.891,13.995-4.143c1.375,0.748,3.878,2.62,3.878,2.62
						L294.11,221.789"/>
					<path fill="#D1937A" d="M216.622,391.223c0.41-1.615-14.415,34.105-19.947,40.693c-5.326,6.34-22.327,5.694-31.001,1.373
						c0,0-5.679-10.326-8.711-34.989c-0.476-3.871-0.958,32.335,6.716,36.991c7.672,4.657,29.506,4.462,32.334,1.625
						C198.844,434.08,208.662,422.566,216.622,391.223z"/>
					<path fill="#D1937A" d="M265.168,298.493c0,0-18.958,32.357,0.096,73.333l2.325-6.336c0,0-12.365-24.317-2.405-54.997
						c9.961-30.68,7.64-21.01,7.64-21.01s-6.993,5.675-5.008-5.827C267.815,283.656,261.494,293.498,265.168,298.493z"/>
					<path fill="#010101" d="M205.675,303.32c0,0,0.573-8.417-3.178-9.079s-0.495,4.083-0.493,5.333c0,0-1.664,3.336-13.915,2.519
						c0,0-13.085-1.149-17.333,0.606c0,0-3.497,0.921-5.832,0.008c-2.335-0.914-6.379-3.368-12.709,0.39c0,0-5.247,2.257-6.206,2.3
						c-1.731,0.079-1.17-3.332-1.506-4.748c-0.334-1.415-0.917-1.248-0.917-1.248s-2.582,2.004-2.078,5.336
						c0,0-0.084-1.582,0.997-3.001c0,0-0.654,9.583,6.349,11.908c0,0,0.004,2.418,0.755,3.583c0,0-0.836-1.667,0.245-3.584
						c0,0,3.757,4.828,20.504,3.14c0,0,23.079-4.278,27.57-11.201c0,0-2.827,5.253-6.326,6.508c0,0,9.664-3.681,12.906-9.601
						c0,0,0.58-1.083,0.412-2.916c0,0,0.585,0.999,0.671,3.999"/>
					<path fill="#010101" d="M188.693,317.926c0,0-7.488,8.676-19.488,8.858s-15.838-2.979-19.677-8.308
						c0,0,3.506,6.495,5.842,7.492c0,0-1.335-0.831-2.336-0.997c0,0,0.841,5.332,4.013,7.828c0,0-1.503-1.998-1.838-2.998
						c-0.336-0.999-0.502-1.499-0.336-0.999c0.169,0.5,7.68,9.158,16.843,6.812c0,0,5.329-2.676,7.157-6.844
						c0,0-4.332,1.174-9.498,0.846C169.375,329.617,180.206,327.937,188.693,317.926z"/>
					<path fill="#FFFFFF" d="M186.936,312.011l-2.002-1.413c0,0,0.33-1.918-0.004-3.084c0,0,0.34,3.918-2.327,5.087
						c0,0-2.916,0.254-3.832-0.245c-0.919-0.499-1.17-1.165-1.17-1.165l-0.586-3.249c0,0,0.507,5.416,0.007,5.75
						c-0.501,0.333-4.165,1.922-7.5,1.26l-0.917-0.75c0,0-0.422-4.333-0.339-3.916c0.084,0.417,0.173,3.916,0.006,4.25
						c-0.166,0.334-0.915,0.835-0.915,0.835s-3.75,0.339-6,0.008l-1.002-1.415l-0.421-4l-0.244,4.5c0,0-2.168,0.004-2.587-1.579
						c-0.418-1.584-0.088-4.75-0.088-4.75s1.664-1.336,3.168,1.162c0,0,0.494-4.252,3.91-4.173c3.418,0.08,4.173,3.662,4.173,3.662
						s-0.007-3.583,2.826-4.337c2.833-0.753,5.25-0.425,5.921,2.409c0,0,2.328-4.838,4.745-4.007s2.92,3.08,2.92,3.08
						s2.162-3.587,4.412-2.839c2.252,0.746,3.255,3.329,3.255,3.329s0.748-2.834,2.164-3.003c1.416-0.168,2.754,3.08,2.754,3.08
						s-2.998,2.754-3.58,2.754c-0.584,0.001-1.835-1.747-1.668-1.497c0.166,0.249,0.086,1.999-0.247,2.333L186.936,312.011z"/>
					<path fill="#010101" d="M171.822,289.196c-0.086-0.386,1.379,3.374,0.632,5.499c0,0-2.871,2.879-5.37,3.258
						c0,0-2.502-0.872-3.003-1.746c0,0,1.456-2.168,1.993-5.753c0,0-0.077,3.668-1.118,5.503c0,0,1.544,0.872,2.294,1.121
						c0,0,3.206-1.004,4.787-3.006C172.037,294.072,172.62,292.779,171.822,289.196z"/>
					<path fill="#010101" d="M193.299,270.544c0,0,4.262,9.244,11.016,12.61c6.755,3.367,7.757,5.365,8.383,6.114
						c0,0-2.253-2.372-5.129-3.243c0,0,6.888,9.866,4.526,20.619c0,0,1.734-12.002-4.774-18.869
						c-5.452-5.752-8.505-3.738-13.141-12.482c0,0,1.128,2.498,4.631,4.494C198.811,279.787,196.435,279.04,193.299,270.544z"/>
					<path fill="#010101" d="M141.203,294.111c0,0-5.619,3.882-5.236,10.132C135.967,304.243,133.457,297.121,141.203,294.111z"/>
					<path fill="#010101" d="M197.372,231.102c0,0,8.374-0.762,11.746-3.266c0,0-4.691-2.932-8.692-3.426
						c0,0-0.436,1.562-0.81,2.125c0,0-1.188,0.002-1.624,0.127c0,0,0.875,0.25,1.25,0.624c0,0-0.934,2.688-2.745,3.628
						c0,0-3.188,0.255-4.625-0.118c0,0-1.938-0.811-3.191-3.184c0,0,0.628,2.249,1.253,2.811c0,0-1.812,0.69-2.937,0.566
						l-1.188-0.936c0,0-0.624,0.563-0.871,3.501c0,0-0.82-6.749,4.487-9.943c0,0,11.869-4.641,32.072,7.146
						c0,0-0.688-0.156-2.813-0.903c0,0,1.97,1.092,2.345,1.278c0,0-3.063-0.934-3.501-1.058c0,0,2.908,1.496,3.221,1.683
						c0,0-6.254-2.991-10.941-3.298C209.807,228.46,207.434,230.275,197.372,231.102z"/>
					<path fill="#010101" d="M223.309,230.005c0,0-5.255-3.806-10.131-4.362C213.178,225.643,220.619,228.696,223.309,230.005z"/>
					<path fill="#010101" d="M202.635,240.844c0,0-8.374,0.324-13.567-3.67c0,0,0.878,2.437,5.567,3.931c0,0-2-0.747-3.502-1.995
						C191.133,239.109,193.072,241.044,202.635,240.844z"/>
					<path fill="#010101" d="M151.691,235.973c0,0-2.261-8.31-11.451-10.36c0,0-11.754-3.235-17.176,8.96
						c0,0,1.938,0.372,3.312-0.192c1.374-0.563,3.123-1.066,4.748-1.068c0,0,0.471,1.124,3.877,1.026c0,0-2.501-0.091-3.252-1.215
						c0,0,0.873-1.813,1.747-2.314c0,0-0.499,1.229,0.253,2.688c0,0,2.627,0.912,5.544,0.783c0,0,4.124-0.712,4.388-5.484
						c0,0,3.189,1.309,4.441,3.244c0,0,0.189,0.938,0.002,1.375c0,0-2.249,0.65-3.874,0.652c0,0,3.001,0.537,5.459-0.258
						C149.71,233.809,150.938,234.036,151.691,235.973z"/>
					<path fill="#010101" d="M280.688,282.307c2.499-0.629,14.491-7.02,19.101-18.9c0,0-1.494,4.752-2.742,6.379
						c0,0,8.242-6.386,8.346-22.761c0.104-16.376-5.404-22.993-9.906-24.487c0,0-7.628-2.615-19.108,12.524
						c0,0,10.104-15.638,18.981-13.899s18.282,24.852,7.056,42.991c0,0-10.853,17.514-21.349,20.152c0,0-2,0.378-4.621,3.131
						c-3.542,3.722-6.742,6.259-8.744,4.886c-2.002-1.372-0.01-7.875-0.01-7.875s-0.244,4.626,0.758,6.25
						c0,0,3.624-1.005,6.495-4.009S280.071,282.461,280.688,282.307z"/>
					<path fill="#010101" d="M281.878,235.555c0,0,4.987-10.007,9.863-9.388c4.876,0.618,15.763,9.729,7.039,30.241
						c0,0,2.489-7.879-2.771-15.997c0,0,3.63,3.745,3.887,9.245c0,0,1.982-13.378-6.649-18.741c0,0-5.003-2.244-6.998,1.509
						c0,0,2.714,3.664,2.593,7.039C288.842,239.463,287.378,235.547,281.878,235.555z"/>
					<path fill="#010101" d="M152.896,346.721c0,0,18.604-13.471,46.998-1.811C199.895,344.91,175.375,329.692,152.896,346.721z"/>
					<path fill="#010101" d="M119.239,225.015c0,0,1.473-21.502-2.786-28.497c-4.26-6.994-16.071-54.729,20.417-64.025
						c0,0-7.812-47.49,39.693-43.802s45.78,23.69,67.274,19.163c0,0,44.764,10.192,53.316,51.182c0,0-2.004-2.998-4.255-3.745
						c0,0,11.774,18.485,2.587,66.997c0,0-27.513-9.465-29.219,24.787l-4.751-1.493c0,0,6.204-35.509-19.065-50.476
						c0,0,8.005,3.989,10.76,7.486c0,0-5.76-6.993-9.513-9.738c0,0,5.755,3.742,6.756,4.741c0,0-5.007-5.743-7.259-7.24l8.006,4.739
						c0,0-10.299-37.486-38.302-39.95s-54.999,1.071-63.251-0.668c0,0-22.741,6.779-25.215,26.782
						C124.434,181.258,123.723,212.259,119.239,225.015z"/>
					<path fill="#010101" d="M174.804,209.692c0,0-2.835-0.746-4.667-0.743c0,0,2.855-0.293,3.166-0.088
						c0.25,0.167-2.586-1.58-3.337-1.912l5.338,2.492c-0.25,0.001-1.501-0.33-1.501-0.33L174.804,209.692z"/>
					<path fill="#010101" d="M176.718,207.94c0,0-3.836-0.995-4.252-0.995c-0.25,0.001,3.419,0.413,3.419,0.413l-2.001-0.581
						l3.251,0.579l-5.255-3.493l6.756,4.241L176.718,207.94z"/>
					<path fill="#010101" d="M179.553,208.854l-1.023-1.16l-4.484-5.083l4.171,4.078l-2.34-5.747l2.172,4.497
						c0,0-1.84-4.998-1.756-4.748S179.553,208.854,179.553,208.854z"/>
					<polygon fill="#010101" points="179.78,206.365 177.378,201.856 179.381,204.771 176.874,198.939 179.631,204.104 
						177.374,198.773 180.882,205.185 177.955,198.355 180.879,202.685 179.872,197.854 182.463,204.1 181.128,201.852 
						182.465,205.6 179.877,201.77 182.467,207.683 180.213,204.686 180.966,206.519 179.798,205.186 181.218,208.185 					"/>
					<path fill="#010101" d="M183.384,206.432l-0.161-1.736l-0.432-4.679c0,0,1.548,5.372,1.799,6.038l-1.336-3.289L183.384,206.432
						z"/>
					<path fill="#010101" d="M184.34,205.93c0,0,0.555-6.188,3.927-8.441c0,0-1.749,1.189-2.432,4.753c0,0,0.995-4.189,4.618-5.319
						c0,0-2.436,1.316-3.806,5.006c0,0,1.808-3.69,7.682-4.322c0,0-2.937,0.378-5.185,2.506c0,0,2.123-1.939,7.811-1.76
						c0,0-3.312-0.121-6.123,1.57c0,0,3.248-1.191,6.437-0.883c0,0-3.062,0.004-4.998,1.381c0,0,6.372-2.008,12.748-1.579
						c0,0-4.438-0.494-5.501-0.368c0,0,7.062-1.071,11.749-0.702c0,0-4.625-0.057-5.999,0.508c0,0,5.812-0.383,6.625-0.321
						c0,0-4.438,0.693-4.875,0.757c-0.437,0.062-0.437,0.062-0.437,0.062l6.811-1.134c0,0-5.622,1.82-6.31,2.07
						c-0.688,0.252-0.25,0.063-0.25,0.063l1.312-0.814l-5.061,1.757l2.999-0.629l-2.561,1.003c0,0,7.07-1.444,8.755-1.718
						c0.143-0.023,0.246-0.039,0.305-0.044c0.75-0.063-3.123,1.255-3.123,1.255s3.78-0.588,6.122-0.52
						c0.086,0.003,0.17,0.007,0.252,0.011c2.312,0.122-3.749,0.505-4.312,0.693c0,0,6.062-0.195,8.188,0.177
						c0,0-4.125,0.255-6.812,0.571c0,0,5.001,0.243,6.813,0.554c0,0-4.719,0.063-7.252,0.293c-0.107,0.01-0.211,0.02-0.311,0.029
						c-2.437,0.253,4.063,0.057,4.063,0.057s-3.438,0.755-3.812,0.881l8.249-0.762c0,0-4.749,0.819-5.124,0.82
						c0,0,4.688,0.306,6.376,0.741c0,0-3.125-0.059-3.688-0.12c0,0,4.189,1.494,6.379,2.992c0,0-4.315-2.12-7.441-2.804
						c0,0,5.253,2.118,7.692,4.115c0,0-4.815-2.618-7.004-3.241c0,0,4.878,2.244,7.068,4.554c0,0-3.628-2.183-5.191-2.993
						c0,0,4.066,3.057,4.88,3.807c0,0-2.001-0.998-2.439-1.185c-0.438-0.188-0.438-0.188-0.438-0.188l2.815,1.81
						c0,0-1.939-1.248-3.753-1.809l1.939,1.373c0,0-2.063-0.936-2.501-1.06l1.063,0.687l-1.813-0.498c0,0-3.185,2.129-4.31,2.443
						s-0.25,0.062-0.25,0.062s4.371-2.881,4.934-3.443l-2.437,1.128l2.561-1.503c0,0-3.686,1.129-3.998,1.192l3.248-1.317
						c0,0-2.938,0.316-3.25,0.317l2.374-1.065l-2.437,0.753l2.748-1.379c0,0-3,0.004-3.188,0.067l3-0.504l-4.375,0.192l3.624-0.942
						l-3.312,0.13l-4.683,4.006l2.809-2.879l-5.371,3.007l3.685-2.566l-5.371,2.944c0,0,7.244-4.385,7.432-4.385l-6.185,2.633
						l4.81-2.881l-1.625,0.627l1.124-0.939c0,0-2.499,0.816-2.687,0.941c-0.187,0.125-4.371,2.381-4.371,2.381l7.431-4.76
						l-7.87,3.635l5.684-3.132l-10.182,4.388l7.119-3.946l-6.246,2.883l2.748-2.191c0,0-5.435,2.695-5.997,2.945l3.684-3.004
						c0,0-3.709,2.459-4.059,2.692c-0.188,0.125,2.872-2.504,2.872-2.504l-3.872,2.88l2.185-2.315l-4.309,2.818
						c-0.188,0.062,1.809-2.69,1.809-2.69l-2.621,2.254c0,0,2.184-2.503,3.059-2.691c0,0-3.373,1.379-4.186,1.943
						c0,0,3.061-2.191,4.185-2.381c0,0-3.998,1.38-5.497,2.069c0,0,3.061-1.691,3.311-1.691l-1.688,0.252
						c0,0,1.374-1.064,1.748-1.314c0,0-2.872,1.753-4.121,3.067c0,0,2.19-2.671,2.435-2.753c0.188-0.062-2.061,1.815-2.061,1.815
						l0.998-2.002c0,0-2.372,2.816-2.371,3.004l1.559-2.814c0,0-3.746,3.066-4.184,3.38c0,0,4.058-3.817,4.995-4.194h0.25
						l-3.686,2.067l1.997-2.44c0,0-2.372,1.941-2.435,2.191l2.434-3.504c0,0-2.871,3.316-3.183,4.004c0,0,2.182-4.627,3.368-5.441
						c0,0-3.059,3.504-4.117,6.193c0,0,1.432-4.814,2.492-5.816c0,0-1.497,1.939-1.622,2.252l0.248-1.625
						c0,0-0.747,2.376-0.747,2.188s-0.127-1.812-0.127-1.812S184.589,205.367,184.34,205.93z"/>
					<path fill="#010101" d="M148.805,210.893c0,0-3.344-7.578-8.43-9.488c0,0,2.92,1.495,4.756,4.826c0,0-1.67-3.331-6.672-4.991
						c0,0,2.085,0.913,3.587,2.495c0,0-2.252-1.83-6.004-2.908c0,0,2.668,1.08,4.42,2.744c0,0-3.42-2.746-10.087-2.32
						c0,0,2.918-0.004,5.085,1.077c0,0-6.251-1.325-9.914,1.013c0,0,2.247-1.671,3.247-1.838c0,0-5.082,1.757-6.328,4.508
						c-1.246,2.752-1.245,3.419-1.245,3.419l0.667,1.332c0,0,2.331-2.837,6.166-2.008c0,0-2.335-0.497-3.585-0.411
						c0,0,3.25-0.504,5.667,0.325l-3.084-0.996c0,0,4.833,0.827,5.918,1.243l-3.252-1.163c0,0,5.753,1.742,6.587,1.991
						c0.832,0.249-3.252-1.578-3.252-1.578s6.587,2.324,7.753,2.489c0,0-4.168-1.577-5.503-2.243c0,0,7.753,2.49,9.419,2.488
						c0,0-2.25-0.748-2.835-0.913c-0.582-0.165-0.582-0.165-0.582-0.165l4.251,0.994c0,0-3.503-2.496-5.588-3.243l6.254,3.158
						l-5.505-4.076l6.089,4.159l-4.089-3.911l4.59,4.161c0,0-2.755-3.331-4.425-4.744c0,0,4.297,3.949,4.756,4.409
						c0.335,0.334-2.92-3.246-2.586-2.997c0.333,0.25,2.921,3.331,2.921,3.331l-1.671-3.332
						C146.301,207.729,148.639,210.644,148.805,210.893z"/>
					<path fill="#010101" d="M251.87,325.844c10.229-13.14,8.95-38.345,8.95-38.345c0.336,1.332-2.467,25.586-8.955,34.679
						c-7.438,10.424-33.87,35.959-56.193,43.988c0,0-29.744,5.038-42.587-2.195c0,0-6.178-8.742-9.458-32.237
						c0,0,2.287,28.247,7.96,34.072c6.971,7.156,37.397,6.277,49.337,1.854C221.914,359.882,251.87,325.844,251.87,325.844z"/>
					<path fill="#010101" d="M148.657,355.102c0,0-16.543-33.104-22.307-44.346c-4.656-9.08-17.049-37.729-13.075-57.734
						c3.975-20.005,9.444-43.262,9.168-63.762c0,0,2.53,23.247-6.421,61.009c0,0-6.975,20.009,10.823,56.986
						c0,0,19.175,38.351,19.426,39.35C146.522,347.604,148.657,355.102,148.657,355.102z"/>
					<path fill="#010101" d="M182.062,280.684c0,0-6.013-9.742-16.877-1.354c0,0,3.874-0.755,5-0.256
						C171.31,279.572,171.94,283.946,182.062,280.684z"/>
					<path fill="#010101" d="M151.31,279.473c0,0,0.997-2.251,2.498-1.628s4.756,4.244,7.007,4.866c0,0-3.251-0.496-3.877-1.12
						C156.938,281.591,154.064,282.845,151.31,279.473z"/>
					<path fill="#010101" d="M184.914,263.805c0,0,6.438,5.619,3.766,11.62c-2.617,5.878-6.742,5.884-6.742,5.884
						s5.979,0.36,7.991-6.386C191.796,268.671,184.914,263.805,184.914,263.805z"/>
					<path fill="#010101" d="M150.666,265.349c0,0-5.364,7.632-5.112,9.632c0.253,2,1.007,4.999,5.135,7.618
						c0,0-5.128-2.118-6.009-6.742S150.666,265.349,150.666,265.349z"/>
					<path fill="#010101" d="M163.315,283.707c0,0-14.59-5.563-10.852-14.735c0,0-3.493,4.671,0.094,8.667
						C156.338,281.848,163.315,283.707,163.315,283.707z"/>
					<path fill="#010101" d="M129.135,240.439c0,0,13.938-0.019,18.061-1.523c0,0-5.372,2.319-5.622,2.382
						c-0.25,0.063-3.936,1.505-8.376-0.114L129.135,240.439z"/>
					<path fill="#010101" d="M293.66,260.664c0,0,1.233-13.502-10.896-16.861c0,0-5.185,1.945-2.742,5.754
						c1.538,2.399,6.376,0.992,7.874-0.51C287.896,249.047,292.771,249.291,293.66,260.664z"/>
					<path fill="#010101" d="M281.421,268.93c0.537-0.321-6.119,3.883-7.997,1.511c-1.879-2.372,2.117-5.753,3.99-6.755
						c1.874-1.003,3.496-3.63,1.991-6.878c-1.504-3.248-3.263-10.246,3.358-13.005c0,0-5.996,2.883-2.609,12.254
						c0,0,2.049,5.622-2.614,8.004c0,0-5.833,3.851-3.867,6.213C274.8,271.627,278.299,270.809,281.421,268.93z"/>
					<path fill="#010101" d="M270.146,281.319c0,0-0.674-5.499,1.493-5.335c2.166,0.164,7.167,0.824,11.662-3.015
						C283.302,272.97,277.979,280.976,270.146,281.319z"/>
					<path fill="#010101" d="M274.573,289.564c0,0-18.708,32.774-7.394,83.01c0,0-17.629-35.394,2.646-81.42L274.573,289.564z"/>
					<path fill="#010101" d="M143.226,342.816c0,0,2.655,57.164,2.991,58.163c0.335,1-0.316-51.333-0.316-51.333L143.226,342.816z"
						/>
					<path fill="none" stroke="#231F20" stroke-miterlimit="10" d="M145.928,305.814c0,0,7.739-8.344,12.74-7.517
						c5.001,0.826,6.714,3.532,11.044,2.026c4.332-1.506,8.953-4.054,26.878,2.174"/>
					<path fill="#010101" d="M449.173,560.59c0,0-14.131-101.482-47.489-121.938c-27.428-16.818-113.428-72.521-119.432-75.179
						c-6.003-2.66-19.848-10.893-19.848-10.893s1.67,3.045,2.261,7.997c1.438,12.049-5.186,37.896-69.983,76.841
						c0,0-13.997,2.519-31.003-2.127c0,0-17.359-19.644-17.386-40.311l-1.371-28.665c0,0-77.28,40.099-95.271,47.456
						c-17.991,7.357-64.624,34.084-71.867,103.427c0,0,19.897-78.025,73.202-100.762l91.607-45.785c0,0,0.364,23.999,1.702,26.664
						c0,0,2.196,23.165,19.717,39.642c0,0,14.506,4.482,31.171,2.127c0,0,63.285-36.748,76.734-76.267c0,0,4.334,0.661,4.67,1.994
						c0,0-3.656,9.005-7.982,13.343c0,0,9.652-10.012,10.314-13.013c0,0,104.583,63.532,122.598,75.509
						C401.518,440.65,431.543,460.111,449.173,560.59z"/>
					<path fill="#FFFFFF" d="M195.022,226.346c-0.047,1.246,1.865,1.309,1.863,0.066
						C196.885,225.238,195.066,225.205,195.022,226.346z"/>
					<path fill="#FFFFFF" d="M201.671,227.63c-0.583-0.407-1.253-0.47-1.937-0.59c-0.287-0.049-0.602-0.15-0.893-0.151
						c-0.377-0.003-0.73,0.08-1.1,0.074c-0.123-0.002-0.148,0.155-0.059,0.218c0.293,0.206,0.392,0.399,0.692,0.562
						c0.264,0.143,0.518,0.246,0.801,0.352c0.72,0.266,1.454,0.591,2.235,0.497C201.922,228.529,202.112,227.938,201.671,227.63z"/>
					<path fill="#FFFFFF" d="M136.541,229.848c-0.037-0.006-0.074-0.012-0.111-0.019c-0.094-0.016-0.168-0.001-0.246,0.008
						c-0.192-0.372-0.558-0.648-1.104-0.647c-1.684,0.002-1.681,2.611,0.003,2.609c0.547-0.001,0.912-0.279,1.103-0.651
						c0.078,0.009,0.152,0.023,0.246,0.008c0.037-0.007,0.074-0.013,0.111-0.019C137.183,231.028,137.182,229.954,136.541,229.848z"
						/>
					<path fill="#544C4C" d="M220.92,106.05c-4.17-3.161-29.024-18.963-59.518-13.924c0,0,8.165-1.677,19.501,1.143
						c0,0-16.665,0.354-31.146,15.372c0,0,21.811-16.693,41.483-13.053c0,0-16.005-3.812-37.98,15.383
						c0,0,12.151-11.516,28.649-13.203c0,0-14.329,3.519-21.649,13.027c0,0,16.812-16.189,40.985-11.387
						c0,0-5.335-0.658-9.167,0.846c0,0,7.166-1.676,16.173,3.479c0,0-5.67-1.827-10.67-1.486c0,0,10.838,3.152,18.015,11.478
						c0,0-12.344-9.152-30.174-5.796c0,0,9.499-1.012,16.669,1.645c0,0-4.5,0.006-7,0.343c0,0,8.501,0.489,13.004,2.817
						c0,0-4.332,0.006-7.666,0.011c0,0,19.671,3.973,32.353,14.29c0,0-13.346-8.649-28.511-7.964c0,0,11.333,0.154,23.843,7.804
						c0,0-3.668-1.329-5.168-1.493c0,0,8.003,2.822,10.34,4.652c0,0-6.502-1.324-7.002-1.491l7.17,3.325
						c0,0-14.844-7.814-29.676-7.296c0,0,11.002,0.985,21.174,5.473c0,0-7.502-1.656-8.668-1.655c0,0,10.174,3.128,14.506,5.153
						c0.243,0.113,0.466,0.223,0.667,0.327c3.837,1.996-16.842-5.978-25.341-5.217c-0.787,0.07,25.006,4.468,44.02,15.193
						c0,0-10.01-7.237-14.511-8.481c0,0,12.756,4.733,15.008,5.98c0,0-8.507-4.739-10.257-5.236l9.503,2.237
						c0,0-10.758-5.736-11.759-6.234l10.004,2.986l-12.758-6.733c-0.752-0.999,17.919,2.812,42.608,19.112
						c0,0-12.344-8.985-16.18-10.646c0,0,18.508,7.811,24.183,12.637c0,0-12.513-9.651-14.348-10.482
						c0,0,17.679,9.811,19.349,11.476c1.668,1.665,0.501,0.666,0.501,0.666s-22.545-34.472-50.05-38.604
						c0,0,6.419,2.826,8.172,5.073c0,0-3.753-2.744-10.004-3.236S220.92,106.05,220.92,106.05z"/>
					<path fill="#544C4C" d="M211.627,137.896c0,0,18.749-0.899,37.269,13.952c0,0-5.507-4.743-12.508-5.484
						c0,0,8.251,0.239,17.522,17.228c0,0-6.763-9.991-16.518-13.479c0,0,9.01,7.238,12.266,11.983c0,0-7.764-10.739-23.268-13.72
						c0,0,7.251,0.491,8.251,0.739c1,0.249-2.756-4.246-12.757-5.483c0,0,9.697,0.585,11.001,1.235
						C233.887,145.366,230.129,139.121,211.627,137.896z"/>
					<path fill="#544C4C" d="M113.919,170.521c0,0-1.536-27.998,19.705-34.775c0,0-6.495,3.508-8.491,6.261
						c0,0,7.243-5.009,9.244-4.262c0,0-3.248,2.004-4.746,3.256c0,0,4.747-2.506,6.75-0.509c2.002,1.998,3.509,7.246,5.012,9.744
						c0,0-9.99,7.513-13.234,12.017c0,0,6.237-10.008,10.735-11.764c0,0-11.247,2.515-16.73,15.271c0,0,0.988-9.001,11.978-17.266
						c0,0-11.247,2.265-15.979,16.271c0,0,0.237-9.5,7.976-18.51C126.138,146.256,116.148,154.519,113.919,170.521z"/>
				</g>
			</g>
			<g>
				<path fill="#FFFFFF" d="M200.303,524.574c-15.604,0-28.314-12.694-28.334-28.298c-0.01-7.568,2.928-14.687,8.272-20.045
					c5.345-5.357,12.456-8.313,20.024-8.323c15.64,0,28.349,12.693,28.369,28.295c0.02,15.623-12.673,28.351-28.295,28.371H200.303z
					"/>
				<path fill="#D3B76E" d="M200.305,469.908c14.527-0.001,26.311,11.767,26.33,26.298c0.019,14.545-11.755,26.349-26.298,26.368
					c-0.011,0-0.023,0-0.034,0c-14.53,0-26.315-11.767-26.334-26.301c-0.02-14.543,11.755-26.347,26.3-26.365
					C200.28,469.908,200.293,469.908,200.305,469.908 M200.307,465.908h-0.002h-0.003h-0.039c-8.103,0.01-15.716,3.175-21.438,8.911
					s-8.867,13.357-8.856,21.46c0.021,16.704,13.629,30.295,30.334,30.295c16.764-0.022,30.354-13.648,30.332-30.373
					C230.612,479.497,217.007,465.908,200.307,465.908L200.307,465.908z"/>
			</g>
			<g>
				<g>
					<g>
						<path fill="#F2F2F2" d="M177.652,490.666c3.078-12.512,15.717-20.153,28.225-17.075c12.512,3.078,20.153,15.714,17.075,28.225
							c-3.079,12.51-15.714,20.154-28.226,17.074C182.219,515.812,174.571,503.176,177.652,490.666"/>
						<path fill="#E02B39" d="M209.639,494.906c0.447,4.874-3.137,9.188-8.007,9.638c-4.871,0.45-9.186-3.131-9.634-8.004
							c-0.451-4.871,3.133-9.187,8.003-9.636C204.872,486.454,209.186,490.036,209.639,494.906"/>
						<path fill="#223D73" d="M193.235,491.156c-1.263,2.096-0.598,4.814,1.496,6.076c2.092,1.266,4.812,0.594,6.076-1.499
							c1.261-2.093,3.979-2.759,6.074-1.496c2.09,1.262,2.761,3.981,1.496,6.071c-2.527,4.186-7.962,5.523-12.148,2.998
							C192.049,500.779,190.708,495.342,193.235,491.156"/>
					</g>
					<path fill="#3F3F40" d="M186.441,505.637l2.306,3.408l1.151-0.773l-2.31-3.41L186.441,505.637z M186.076,505.098l1.148-0.777
						l-2.307-3.411l-1.151,0.775L186.076,505.098z M182,502.884l4.98,7.36l1.146-0.774l-4.979-7.36L182,502.884z M185.538,500.49
						l4.98,7.361l1.146-0.777l-4.979-7.363L185.538,500.49z M216.095,490.961l-2.304-3.413l-1.149,0.776l2.306,3.412
						L216.095,490.961z M213.422,487.008l-2.304-3.412l-1.147,0.776l2.306,3.411L213.422,487.008z M218.491,489.343l1.146-0.777
						l-2.31-3.411l-1.147,0.777L218.491,489.343z M216.963,484.613l-2.307-3.411l-1.149,0.776l2.31,3.412L216.963,484.613z
						 M217.864,489.766l-4.974-7.365l-1.152,0.775l4.98,7.361L217.864,489.766z M213.542,509.437l1.151,0.772l2.299-3.417
						l-1.151-0.774L213.542,509.437z M216.205,505.478l1.149,0.771l2.3-3.414l-1.152-0.771L216.205,505.478z M214.067,504.828
						l-2.296,3.415l1.147,0.776l2.3-3.417L214.067,504.828z M217.88,501.643l-1.147-0.774l-2.301,3.417l1.15,0.775L217.88,501.643z
						 M212.297,503.634l-2.301,3.417l1.153,0.773l2.295-3.416L212.297,503.634z M213.812,503.868l2.294-3.417l-1.149-0.777
						l-2.298,3.418L213.812,503.868z M185.526,491l1.149,0.772l4.959-7.377l-1.147-0.771L185.526,491z M184.9,490.58l4.965-7.377
						l-1.152-0.771l-4.962,7.378L184.9,490.58z M188.091,482.012l-1.147-0.773l-4.965,7.376l1.151,0.774L188.091,482.012z"/>
				</g>
			</g>
		</g>
		<g>
			
				<rect x="55.114" y="31.166" transform="matrix(1 -0.0013 0.0013 1 -0.0715 0.2583)" fill="#D3B76E" width="289.192" height="48.5"/>
			<polygon fill="#D3B76E" points="68.131,73.023 29.477,73.073 37.821,55.625 29.432,38.198 80.752,38.133 80.768,50.164 
				55.107,50.197 			"/>
			<polygon fill="#D3B76E" points="331.334,72.684 369.988,72.634 361.599,55.207 369.943,37.759 318.623,37.825 318.639,49.856 
				344.299,49.823 			"/>
			
				<text transform="matrix(1 -0.0013 0.0013 1 67.5352 65.627)" fill="#9D8E52" font-family="'Novecentowide-DemiBold'" font-size="27.1191" letter-spacing="2">Son Heung-Min</text>
			<g>
				
					<text transform="matrix(1 -0.0013 0.0013 1 66.5332 64.6279)" fill="#FFFFFF" font-family="'Novecentowide-DemiBold'" font-size="27.1191" letter-spacing="2">Son Heung-Min</text>
			</g>
			
				<rect x="34.578" y="52.509" transform="matrix(0.0013 1 -1 0.0013 107.556 3.5202)" fill="#9D8E52" width="34.875" height="6.197"/>
			
				<rect x="329.967" y="52.127" transform="matrix(0.0013 1 -1 0.0013 402.1823 -292.2496)" fill="#9D8E52" width="34.875" height="6.197"/>
		</g>
	</g>
</g>
<g id="Layer_1_copy">
	<g>
		<g>
			<defs>
				<polygon id="SVGID_291_" points="356,-159.385 200,-89.26 44,-159.385 44,-434.322 356,-434.322 				"/>
			</defs>
			<clipPath id="SVGID_10_">
				<use xlink:href="#SVGID_291_"  overflow="visible"/>
			</clipPath>
			<path clip-path="url(#SVGID_10_)" fill="#DAB128" d="M422.49-75.398c-2.885-12.652-7.546-21.395-7.546-21.395
				c-21.497-26.725-129.172-86.045-139.684-91.799c-7.748-46.885,10.292-94.176,13.957-103.115
				c9.88-0.602,18.066-12.441,18.733-14.109c0.916-2.291,3.437-5.728,8.705-20.161c5.271-14.435-0.916-23.599-7.561-25.202
				c-0.543-0.131-1.091-0.189-1.639-0.195c0.057-2.105,0.582-6.764,3.472-14.468c4.124-10.997,2.75-22.224,2.75-22.224
				c-1.833-51.549-30.472-70.336-70.565-86.832s-79.043,9.852-83.396,17.184c-4.354,7.332-19.703,21.994-27.264,33.908
				c-6.102,9.613,0.178,29.961,2.831,37.462c-0.65,4.729-0.748,9.562-0.159,14.622c1.135,9.752,0,17.412-1.833,25.966
				c0,0-4.276,21.841,1.451,43.378c4.229,15.898,4.307,26.037,5.729,32.074c1.832,7.791,2.978,18.559,7.331,23.369l0.908,17.252
				l-12.974,8.256c0,0-9.119,4.609-23.229,11.826c-26.553,12.869-100.738,51.445-135.777,71.916
				c-8.902,4.463-16.236,8.66-18.387,12.047c-0.277,0.318-0.415,0.568-0.396,0.742c0,0-0.892,1.74-2.26,4.555
				c-0.714,0.414-1.103,0.639-1.103,0.639s0.221,0.133,0.617,0.365c-3.824,7.932-10.575,22.67-13.141,32.932
				c0,0,2.193-5.535,5.24-12.369c-9.284,22.857-21.126,52.082-21.126,52.082s31.159,78.812,34.215,79.424
				c3.054,0.611,480.212-38.49,480.822-38.49C441.216-5.76,433.978-45.715,422.49-75.398z M209.434-148.877
				c4.129,0.781,7.978,1.402,11.585,1.896c-10.821-0.256-22.313-3.01-32.942-10.828C194.764-153.51,201.921-150.295,209.434-148.877
				z M275.868-185.295c-0.001,0.023-0.004,0.059-0.006,0.088c-0.013-0.066-0.024-0.133-0.037-0.199L275.868-185.295z"/>
		</g>
		<g>
			<defs>
				<polygon id="SVGID_293_" points="356,-159.387 200,-89.27 44,-159.387 44,-507.66 356,-507.66 356,-245.93 				"/>
			</defs>
			<clipPath id="SVGID_12_">
				<use xlink:href="#SVGID_293_"  overflow="visible"/>
			</clipPath>
			<g clip-path="url(#SVGID_12_)">
				<path fill="#1D191A" d="M416.715-17.26c0,0-15.272-84.312-36.657-98.975s-97.754-62.316-106.917-67.205
					c-9.165-4.889-18.33-10.387-18.33-10.387s-3.665,24.438-18.328,28.104c-14.662,3.666-56.208,20.771-84.923-15.273
					c-28.715-36.047-35.893-50.709-35.893-50.709S1.264-174.889-15.843-165.111c-17.106,9.775-47.653,21.383-50.708,28.715
					c-3.056,7.332-31.771,78.203-31.771,78.203s31.159,78.812,34.215,79.424C-61.054,21.842,416.104-17.26,416.715-17.26z"/>
			</g>
		</g>
	</g>
	<g>
		<rect fill="#223D73" width="400" height="560"/>
		<g>
			<polygon fill="#E02B39" points="399.982,243.094 399.982,42.939 0,333.826 0,560 			"/>
		</g>
		<g>
			<g>
				<polygon fill="#FFFFFF" points="39.662,423.526 39.662,141.178 360.662,141.178 360.662,423.526 200.162,495.674 				"/>
				<g>
					<path fill="#010101" d="M356.162,145.678v274.938l-156,70.125l-156-70.125V145.678H356.162 M365.162,136.678h-9h-312h-9v9
						v274.938v5.822l5.311,2.387l156,70.125l3.689,1.658l3.689-1.658l156-70.125l5.311-2.387v-5.822V145.678V136.678
						L365.162,136.678z"/>
				</g>
			</g>
			<g>
				<path fill="#D3B76E" d="M365,136.678v9v274.938v5.826L200,500.24L35,426.066v-5.451V145.678v-9h9h312H365 M372,129.678h-7h-9H44
					h-9h-7v7v9v274.938v5.451v4.528l4.13,1.856l165,74.174l2.863,1.287l2.865-1.282l165-73.798l4.142-1.854v-4.537v-5.826V145.678
					v-9V129.678L372,129.678z"/>
			</g>
			<g>
				<defs>
					<polygon id="SVGID_375_" points="356.162,420.615 200.162,490.74 44.162,420.615 44.162,145.678 356.162,145.678 					"/>
				</defs>
				<clipPath id="SVGID_14_">
					<use xlink:href="#SVGID_375_"  overflow="visible"/>
				</clipPath>
				<path clip-path="url(#SVGID_14_)" fill="#DCDCD5" d="M458.766,497.873c-7.664-25.631-18.814-51.65-33.953-60.961
					c-27.406-16.854-113.334-72.666-119.334-75.334c-4.688-2.082-14.152-7.572-18.072-9.877
					c-3.621-39.363,10.488-64.041,10.488-64.041l-0.428,0.143c0.744-0.678,1.514-1.441,2.303-2.268
					c2.625-2.75,4.625-3.125,4.625-3.125c10.5-2.625,21.375-20.125,21.375-20.125c11.119-17.912,2.094-40.692-6.686-42.914
					c8.879-47.713-2.689-65.961-2.689-65.961c2.25,0.75,4.25,3.75,4.25,3.75c-8.5-41-53.25-51.25-53.25-51.25
					c-21.5,4.5-19.75-15.5-67.25-19.25s-39.75,43.75-39.75,43.75c-36.5,9.25-24.75,57-20.5,64
					c3.203,5.276,3.141,18.785,2.914,25.121c-1.836,10.771-4.182,21.475-6.164,31.379c-4,20,8.355,48.664,13,57.75
					c3.635,7.113,11.562,22.959,16.906,33.66c0.158,3.51,0.566,12.447,1.027,22.217c-2.311,1.193-11.559,5.967-23.533,12.078
					c-6.154,3.092-13.115,6.617-20.475,10.395c-20.559,10.373-42.264,21.107-50.758,24.568c-18,7.334-64.668,34-72,103.334
					c0,0,0.506-1.971,1.566-5.369c-0.588,3.553-1.012,7.178-1.234,10.867c0,0,246,120.502,471,38.502
					C472.145,558.912,468.363,528.658,458.766,497.873z M324.945,261.932c-1.057,1.994-2.143,3.447-2.988,4.422
					C323.02,264.947,324.029,263.471,324.945,261.932z M424.994,439.16c-0.117-0.082-0.232-0.17-0.35-0.25
					C424.645,438.91,424.766,438.988,424.994,439.16z"/>
			</g>
			<g>
				<defs>
					<polygon id="SVGID_377_" points="356.162,420.615 200.162,490.732 44.162,420.615 44.162,72.342 356.162,72.342 
						374.074,217.406 356.162,334.072 					"/>
				</defs>
				<clipPath id="SVGID_16_">
					<use xlink:href="#SVGID_377_"  overflow="visible"/>
				</clipPath>
				<g clip-path="url(#SVGID_16_)">
					<path fill="#E02B39" d="M448.811,560.912c0,0-12-96.002-47.5-120.002s-126-80.5-130-81l-3-2.5c0,0,11.5,26.5-72.5,79.5
						c0,0-19.332,5.502-33.832-2.498c0,0-17.918-19.502-16.918-41.002s0.25-27,0.25-27s-95.5,46.5-125,67.5c0,0-39.5,38.5-42.5,88.5
						C-22.189,522.41,223.811,642.912,448.811,560.912z"/>
					<path fill="#9E1D22" d="M278.811,386.578c0,0-13.666,11.666-37.332,22.666c0,0,19.332-8.666,37.332-20
						c0,0,38.334,37.334,51,78.668C329.811,467.912,318.811,421.91,278.811,386.578z"/>
					<path fill="#9E1D22" d="M254.811,392.16c-0.773,0.682,16.834-16.582,19.334-25.582c0,0-2.5-1.668-3.166-1.834
						c-0.668-0.166,0.166-4.166,0.166-4.166l6.834,3.332C277.979,363.91,275.145,374.244,254.811,392.16z"/>
					<path fill="#9E1D22" d="M150.977,419.578c0,0-13.332-15.168-19.832-35.334c0,0-50.334,9.668-84.668,74
						c0,0,34.668-60.998,83.334-70.666C129.811,387.578,136.811,405.576,150.977,419.578z"/>
					<path fill="#9E1D22" d="M159.811,435.912c1,1,2.334,4.666,5,5c2.668,0.332,22.334,3,28,1c5.668-2,15.668-8.334,15.668-8.334
						s-11.334,9.334-16.334,10s-22.334,0-27.334-1.334L159.811,435.912z"/>
					<path fill="#9E1D22" d="M397.145,446.578c-0.205-0.068-0.852-0.525-1.9-1.275c-4.092-2.932-14.301-10.355-28.1-16.725
						c-17.334-8-37-24.668-37-24.668s13,16.334,24,22c11,5.668,16.668,7.666,20.334,9.334"/>
					<path fill="#9E1D22" d="M140.477,370.244c0,0-3.666,14.334,5.668,32.334c0,0-2.01-20.498-1.334-33.668c0.334-6.5,0,0,0,0
						L140.477,370.244z"/>
					<path fill="#F8B199" d="M267.811,368.66c0,0-10.5-26-3-52.25s7.5-26.25,7.5-26.25s3.5-5.5,8-6.5s23.002-14.582,25.834-31.582
						c0,0,2.834-23.001-9.666-30.001c0,0-3.166-0.167-3.666-0.667s-36.252-68.25-69.502-75.5s-78-24.25-96.5,10.5
						s-6.5,34.5-6.5,34.5s1.5,31.75-3,49.75s-6.5,34.75,4.5,57.5s22.5,45.5,22.75,48s0.75,49.75,0.75,49.75s3,26.5,18.5,40.75
						c0,0,22.5,4.5,30.5,1.5S252.061,403.16,267.811,368.66z"/>
					<path fill="#FFFFFF" d="M209.998,227.66c0,0-8.125,5.25-21.562,2.625c0,0-1.375-3.312-0.5-4.062s7.875-3.312,11.688-2.875
						s9.562,2.938,9.562,2.938L209.998,227.66z"/>
					<path fill="#FFFFFF" d="M131.311,232.494c0,0,5.916,3.5,17.416,0.666c0,0,1-2.166-3-4c-4-1.833-9.416-2.333-9.416-2.333
						s-4.166,1.999-5.084,6"/>
					<path fill="#D1937A" d="M260.811,288.91c0,0,5.5,45.5-56.5,90c-9.832,7.059-43.951,5.186-48.5-3.5c-5.5-10.5-7-25.5-7-25.5
						s0,16.168,12,18.5c12,2.334,29,2.834,36-1.5c7-4.332,32.666-18.332,42.334-30c9.666-11.666,14-14.666,14-14.666
						S263.145,306.91,260.811,288.91"/>
					<path fill="#D1937A" d="M149.645,359.744c0,0,1-4.166,6.332-4.334c4.607-0.145,28.779-0.514,38.834,2.168
						c5,1.332,13.5,0.082,13.5,0.082s31.25-15.75,46-39.5c0,0-14,32.5-48.25,45c0,0-3,4.75-23.25,5.75
						S153.145,369.078,149.645,359.744z"/>
					<path fill="#D1937A" d="M150.811,347.576c0,0,22-13.832,51.834-1.832C202.645,345.744,170.436,324.41,150.811,347.576z"/>
					<path fill="#D1937A" d="M152.436,325.785"/>
					<path fill="#D1937A" d="M148.311,316.785c0,0,2.5,6,3.875,7.5c0,0,0.25,6.25,5.875,10l-0.25-0.875c0,0,6.875,4.375,12,3.75
						s8.875-3.5,11.75-10.25c0,0-2.125,0.875-3.125,1.125c0,0,6.25-3,11.875-11.875c0,0-7.375,9.875-22.375,11.625
						C167.936,327.785,155.311,329.285,148.311,316.785z"/>
					<path fill="#D1937A" d="M153.977,321.16c-1.08-0.111-3.166-1.916-0.832-2.832c0,0,24.75,3,35-4.168
						C188.145,314.16,178.145,323.66,153.977,321.16z"/>
					<path fill="#D1937A" d="M146.061,305.244c0,0,7.416-8.084,11.75-7s7.166,3,9.25,2.666c2.084-0.332,7.668-2.916,11.084-2.582
						c3.416,0.332,15.166,1.416,19.666,5.582c0,0-3.584-1.248-5.75-1.082s-32.666,1.166-45,3.832L146.061,305.244z"/>
					<path fill="#D1937A" d="M171.373,287.723c0,0,1.48,4.252,0.646,6.314c0,0-0.646,2.123-4.646,3.373c0,0-1.75-0.375-2.75-1.375
						c0,0,1.875-4.625,1.438-7.375c0,0,0.938,3.812-0.562,7c0,0,1.312,0.688,1.75,0.75c0,0,3-0.812,4.125-2.625c0,0-2.375,1.75-4,2
						l-1.312-0.625c0,0,0.562-2.188,0.625-2.75c0,0,2.438,1.125,4.25-0.812C170.936,291.598,171.623,290.973,171.373,287.723z"/>
					<path fill="#D1937A" d="M189.311,275.744c0,0-12.791-6.834-23-3.334c-6.609,2.268-9,1.334-9,1.334s2.525,4.969,3,5.916
						c0.25,0.5-4.375-3.125-4.375-8.75l-0.25,3.375c0,0-3.125,0-4-0.125l0.125,1.5c0,0-5,0.125-6.125,2.25c0,0,3.875,4.5,7.75,6.625
						c0,0,4.25,4,8,1.5c0,0-1.25,1.625-3.5,1.875c0,0,3.875,0.125,7.125-4.375c0,0,3.25,0.375,5.5-2.062
						c0,0-2.875,1.375-6.188-0.125c0,0,0.812-3.875,4-3.375s5.062,3.188,5.5,3.438s9.938,1.125,12.688-1.875L189.311,275.744z"/>
					<path fill="#D1937A" d="M155.645,356.744c0,0-9.5-14.666-11.834-36.666c0,0-1.832,7.666-1.832,8.5
						c0,0-9.418-20.668-7.418-32.668s-13.084-11.5-19.25-21.332c0,0,4.334,18.834,10,29.834s12,25.832,16,34.332
						s4.5,8.666,4.5,8.666s3.666,14,8,19c0.617,0.713,0-0.666,0-0.666L155.645,356.744z"/>
					<path fill="#D1937A" d="M143.561,293.16"/>
					<path fill="#D1937A" d="M136.061,305.91c0,0-1.75-7,7.5-12.75C143.561,293.16,133.061,291.16,136.061,305.91z"/>
					<path fill="#D1937A" d="M154.811,257.91c0,0-15,15-12,20c1.5,2.5,8.375,5.125,8.375,5.125s-7.375-4.457-6-8.375
						c2.148-6.121,5.75-9.875,5.75-9.875L154.811,257.91z"/>
					<path fill="#D1937A" d="M184.479,263.578c0,0,6.832,1.834,10.166,6.5c0,0-1.502-3.166-3.334-4.666c0,0,2.834-0.502,6.834,7.332
						s10.666,7.834,14,10.834s5.5,9.166,6,11.666c0,0-1.666-6.25-6.416-9c0,0,4.166,3.668,3.916,10.334c0,0-0.416-5-6-8.5
						c0,0,6.334,13.166,1.334,22.332c0,0,3.332-11.748-3.668-21.166c-4.961-6.676-9-3.332-15.332-16c0,0-0.668-2-3-4.5
						C188.979,268.744,187.145,265.578,184.479,263.578z"/>
					<path fill="#D1937A" d="M148.311,312.912c0,0-4.666-0.168-6.5-7.168c0,0-1.166,1.834-1.166,2.334s-2.5-8.834,9.334-14.834
						c0,0-4.168,4.5-0.668,9c0,0-3.666,2.002-3.666,4.168S148.311,312.912,148.311,312.912z"/>
					<path fill="#D1937A" d="M194.186,301.66c0,0,8-0.375,6.125-4.125c0,0-2.25-4.625,0.875-5.25s7.25,5.625,5,14.75
						c0,0,0-2-0.75-2.875c0,0-2.5,2.875-6.625,3.625s0-0.5,0-0.5S197.186,303.285,194.186,301.66z"/>
					<path fill="#D1937A" d="M203.811,358.91c0,0,28-21,24.334-72.666c0,0-3.334-10.666,11.334-16c11.5-4.184,22-16,18.332-43.667
						c0,0,0.834-21.167-20.832-33.333c0,0,6,0.834,6.5,1.334c0,0-3.668-3.501-7.168-5.168c0,0,7.334,3,8,3.5
						c0.668,0.5-6.666-5.333-8-6l8.334,2.668c0,0-8.834-33.168-33.334-38.168c0,0,48.75-3,53.5,52.5l1.75,36
						c0,0-3.25,62.75-14,83.75C252.561,323.66,225.561,358.41,203.811,358.91z"/>
					<g>
						<path fill="#D1937A" d="M226.684,212.725c0.016,0.007,0.035,0.017,0.045,0.02C226.746,212.75,226.725,212.74,226.684,212.725z
							"/>
						<path fill="#D1937A" d="M193.576,248.84c1.4,0.754,2.359,0.945,2.359,0.945C195.102,249.498,194.316,249.18,193.576,248.84z"
							/>
						<path fill="#D1937A" d="M221.561,210.744c0,0,4.625,1.778,5.123,1.98c-0.436-0.196-3.539-1.98-3.539-1.98l5.334,2.416
							l-4.584-3.416l3.5,2.166l-3.584-3.582l3.5,2.166l-3.666-3.5l3.166,1.084l-5.666-3.5l3.584,0.75l-1.25-0.75l1.416-0.584
							l-4.834-0.75l2.168-1l-1.918-0.084l-1.332-0.832l2.582,0.416l-4.082-1.5l1.75-0.334l-5.834-0.166l1.334-0.916l-2.75,0.166
							l3.75-1.584l-17.584,0.418l1.25-0.584c0,0-4.166,0.666-4.5,0.666c-0.25,0,1.666-1.082,1.666-1.082s-4.5,0.416-5.832,1.082
							l1.166-2.082c0,0-2.418,0.916-3.084,1.332l0.334-1.5c0,0-2.666,1.584-4.416,5.834c0,0-0.334-3,0.5-5.084
							c0,0-1.418,3.084-1.5,4.584c0,0-1.752-3.75-1.668-3.5s0.168,3.916,0.084,3.666s-2.334-6.082-2.334-6.082l1.25,4.082
							l-1.916-3.166l1,4.166l-3.334-4.332l1.334,3.166l-1.834-2.25l1,2.166l-2.25-2.666l2.75,5.5l-2.25-3.5l1.584,3.084l-2.166-2.75
							l2.082,6.082l-5.166-5l4,5.334c0,0-6.084-4.25-5.834-4s4.418,3.5,4.418,3.5l-5.334-2.166l5.416,3.75l-4.332-1.418l3.082,1.418
							l-3.416-0.418l6.166,3.168l-7.5-3.084l3.5,2.416l-3.666,0.25l7.084,2.334l-3.75-0.25c0,0-0.293,2.541,3.207,9.041
							c0,0-1.25-3.75-0.459-6.291c0,0,0.043,7.834,5.709,14.666c0,0,0.5-2.25,1.125-3.833c0.014-0.034,0.043-0.034,0.07-0.055
							c-0.219,1.52-0.666,5.632,0.264,9.222c0,0,0.807,10.477,11.932,15.596c-2.355-1.266-5.961-4.115-8.391-10.305
							c0,0,4.791,4.959,16.125,3.709c0,0-3.666-0.25-5.416-0.584c0,0,6.5,1.084,10.666-1.416c0,0-9.5-1.75-16.916-7.584
							c0,0,15.166-0.5,20.25-3.25c0,0,7.832,1.418,12,3.168l-1.166-1.168l1.666,0.834l0.666-1c0,0-2.082-1.417-2.832-1.834
							c0,0,4.127,1.149,4.666,1.418c0.334,0.166-9.668-10.334-32.084-9c0,0,3.502-1.25,6.584-1.084c0,0-4.75-0.916-6.25-0.75
							c0,0-4.334-4.084-0.916-8.5c0,0,5.248-2.584,10.832-1.584l3.584-1.832l-2.416,1.666l2.416-0.916l-2.916,2.332l2.75-1.166
							l-1.5,1.5l5-2.584l-2.25,2.168l6.832-3.168l-3.25,2.25l3.418-1.75l-4.5,2.918l4.75-1.918l-2.668,1.5l3.75-0.832l-2.832,1.416
							l3-0.916c0,0-3.5,2.916-4.25,3.166c0,0,7.25-3.167,8-3.334l-2.334,1.918L221.561,210.744z M184.186,233.16
							c-0.5-1.5,0.75-3.312,0.75-3.312s-0.562,2.25-0.375,3s0.688,1.375,1.188,1.75C185.748,234.598,184.686,234.66,184.186,233.16z
							 M196.373,223.285c7.203,0.16,13.25,4.688,13.25,4.688c-7.938,4.625-22.688,2.625-22.688,2.625
							S185.123,223.035,196.373,223.285z"/>
					</g>
					<path fill="#D1937A" d="M148.936,237.41c0,0-17.25,2.5-24.75,0.75c0,0,1.459,2.25,4.291,3.75c0,0,6.584,2.75,9.209,2.375
						c0,0-5.709,1.293-12.25-2.25c0,0,4.541,4.043,11.125,4.875c4.844,0.613,13.875-7.75,13.875-7.75s-4.25,2.75-5.625,2.875
						C144.811,242.035,148.561,238.16,148.936,237.41z"/>
					<path fill="#D1937A" d="M120.811,213.66c0,0,5.75-5.75,15.5-2.5s14,3,15.5,2c0,0,6.75,4,10,12.25c0,0-1.5-7.75-9.75-15
						c0,0-4.75-9-15.5-12c0,0,3,1.25,4,2.25c0,0-9.416-4.75-18,2.834C122.561,203.494,119.811,205.66,120.811,213.66z"/>
					<path fill="#D1937A" d="M146.561,224.16c1.5,0.75,3.5,2.75,3.5,2.75c-3.711-12.369-14.215-11.479-17.787-10.785
						c9.078-1.965,17.787,3.285,17.787,3.285c-12.5-9.5-25.5-4-28-0.25s-4.5,20.5-4.5,20.5c2.5-2.5,12.75-6.5,12.75-6.5
						s-0.5-6.25,9.25-6.75s12.666,11.084,12.666,11.084C151.727,230.494,146.561,224.16,146.561,224.16z M122.977,228.244
						c0,0,2.334-7.834,10.168-8.834s14.166,4.334,14.166,4.334c-2.5-2.166-11.666-3.166-11.666-3.166c7,1.5,8.666,4.166,8.666,4.166
						C131.979,217.41,122.977,228.244,122.977,228.244z"/>
					<path fill="#D1937A" d="M175.311,248.41c0,0-2.75,15.75-1.25,15.75s9.365-1.004,10.418-0.582
						C185.311,263.91,176.811,261.91,175.311,248.41z"/>
					<path fill="#D1937A" d="M154.561,256.16c0,0,9.916-30.25,4.75-36.416c0,0-3.25,24.666-10.5,31.166c0,0,3.939-4,5-4
						C154.561,246.91,154.811,253.16,154.561,256.16z"/>
					<path fill="#D1937A" d="M154.977,253.91c0,0,10.334-30.166,5.5-41c0,0,2,7.668-0.832,13.668L154.977,253.91z"/>
					<path fill="#D1937A" d="M122.561,203.494c0,0,3.584-10.916,16.584-12.916l-9.334,1l-0.332-2.668c0,0,11.332-2,21.666-4.666
						c0,0-20.098,3-22.334,3c-1,0,7.334-1.666,13.668-3.166c0,0-4.002-18.168,7.998-26.168c0,0,23,3.667,48.334,0.667
						s37.668,10.333,42.668,20.333v-15.666c0,0-12.668-19-40.334-22c-27.668-3-34.334-3.334-36.334-2.667s-38.334,18-38.334,21.333
						c0,3.334-4,26-3.666,27.667s-0.334,7.333,0,9.333s-3,6-3,6L122.561,203.494z"/>
					<path fill="#D1937A" d="M117.811,242.91c0,0-6.5,30.25,10,41.5c0,0-10.75-1.25-11.75-4.75S109.311,255.41,117.811,242.91z"/>
					<path fill="#D1937A" d="M273.645,270.578"/>
					<path fill="#D1937A" d="M293.686,261.41c0,0,0.75-10.625-6.125-13.125s-7-1.875-7-1.875s-3.125,2.5-2,6.875s2.625,7,1.25,8.25
						s-7.25,6.25-6.75,7.625S274.186,275.16,293.686,261.41z"/>
					<path fill="#D1937A" d="M298.811,256.535c0,0,2.5-11.959-7.332-22.125c0,0,4,3.5,5,5s0.5,0.668,0.5,0.668
						s-5.168-7.834-7.168-8.501c0,0-1.666,0.833-1.832,1.5c0,0,4.334,7.667,4.166,13.501c0,0-1.5-7.168-9.834-9.668
						c0,0-1.166,0.834-2.584,3.334c0,0,5.418-16.917,13.252-14.667C292.979,225.577,309.477,230.494,298.811,256.535"/>
					<path fill="#D1937A" d="M294.186,221.91c0,0-17,1.75-22.75,26.125c0,0,0.875-9.375,6-16.875c0,0-10.125,6.375-11.625,16.5
						c0,0,0.375-24.875,10.375-27.375s12.625-4.875,14-4.125s3.875,2.625,3.875,2.625L294.186,221.91"/>
					<path fill="#D1937A" d="M216.479,391.244c0.412-1.615-14.459,34.088-20,40.668c-5.334,6.332-22.334,5.666-31.002,1.332
						c0,0-5.666-10.332-8.666-35c-0.471-3.871-1,32.334,6.668,37c7.666,4.668,29.5,4.5,32.332,1.668
						C198.645,434.078,208.479,422.578,216.479,391.244z"/>
					<path fill="#D1937A" d="M265.145,298.578c0,0-19,32.332,0,73.332l2.334-6.332c0,0-12.334-24.334-2.334-55
						c10-30.668,7.666-21,7.666-21s-7,5.666-5-5.834C267.811,283.744,261.477,293.578,265.145,298.578z"/>
					<path fill="#010101" d="M205.645,303.328c0,0,0.584-8.416-3.166-9.084c-3.75-0.666-0.5,4.084-0.5,5.334
						c0,0-1.668,3.332-13.918,2.5c0,0-13.084-1.166-17.334,0.584c0,0-3.498,0.916-5.832,0c-2.334-0.918-6.375-3.377-12.709,0.373
						c0,0-5.25,2.25-6.209,2.293c-1.732,0.076-1.166-3.334-1.5-4.75c-0.332-1.416-0.916-1.25-0.916-1.25s-2.584,2-2.084,5.334
						c0,0-0.082-1.584,1-3c0,0-0.666,9.582,6.334,11.916c0,0,0,2.418,0.75,3.584c0,0-0.834-1.668,0.25-3.584
						c0,0,3.75,4.834,20.5,3.166c0,0,23.084-4.248,27.584-11.166c0,0-2.834,5.25-6.334,6.5c0,0,9.668-3.668,12.918-9.584
						c0,0,0.582-1.082,0.416-2.916c0,0,0.584,1,0.666,4"/>
					<path fill="#010101" d="M188.645,317.912c0,0-7.5,8.666-19.5,8.832c-12,0.168-15.834-3-19.666-8.332c0,0,3.498,6.5,5.832,7.5
						c0,0-1.334-0.834-2.334-1c0,0,0.834,5.332,4.002,7.832c0,0-1.5-2-1.834-3s-0.5-1.5-0.334-1c0.168,0.5,7.668,9.168,16.834,6.834
						c0,0,5.332-2.668,7.166-6.834c0,0-4.334,1.168-9.5,0.834C169.311,329.578,180.145,327.912,188.645,317.912z"/>
					<path fill="#FFFFFF" d="M186.895,311.994l-2-1.416c0,0,0.332-1.918,0-3.084c0,0,0.334,3.918-2.334,5.084
						c0,0-2.916,0.25-3.832-0.25c-0.918-0.5-1.168-1.166-1.168-1.166l-0.582-3.25c0,0,0.5,5.416,0,5.75
						c-0.502,0.332-4.168,1.916-7.502,1.25l-0.916-0.75c0,0-0.416-4.334-0.334-3.918c0.084,0.418,0.168,3.916,0,4.25
						c-0.166,0.334-0.916,0.834-0.916,0.834s-3.75,0.334-6,0l-1-1.416l-0.416-4l-0.25,4.5c0,0-2.168,0-2.584-1.584
						s-0.082-4.75-0.082-4.75s1.666-1.334,3.166,1.166c0,0,0.5-4.25,3.916-4.166c3.418,0.084,4.168,3.666,4.168,3.666
						s-0.002-3.582,2.832-4.332s5.25-0.418,5.918,2.416c0,0,2.334-4.834,4.75-4s2.916,3.084,2.916,3.084s2.166-3.584,4.416-2.834
						s3.25,3.334,3.25,3.334s0.752-2.834,2.168-3c1.416-0.168,2.75,3.082,2.75,3.082s-3.002,2.75-3.584,2.75
						c-0.584,0-1.832-1.75-1.666-1.5s0.084,2-0.25,2.334L186.895,311.994z"/>
					<path fill="#010101" d="M171.811,289.16c-0.086-0.387,1.375,3.375,0.625,5.5c0,0-2.875,2.875-5.375,3.25c0,0-2.5-0.875-3-1.75
						c0,0,1.459-2.166,2-5.75c0,0-0.082,3.668-1.125,5.502c0,0,1.543,0.875,2.293,1.125c0,0,3.207-1,4.791-3
						C172.02,294.037,172.604,292.744,171.811,289.16z"/>
					<path fill="#010101" d="M193.311,270.535c0,0,4.25,9.25,11,12.625s7.75,5.375,8.375,6.125c0,0-2.25-2.375-5.125-3.25
						c0,0,6.875,9.875,4.5,20.625c0,0,1.75-12-4.75-18.875c-5.445-5.76-8.5-3.75-13.125-12.5c0,0,1.125,2.5,4.625,4.5
						C198.811,279.785,196.436,279.035,193.311,270.535z"/>
					<path fill="#010101" d="M141.186,294.035c0,0-5.625,3.875-5.25,10.125C135.936,304.16,133.436,297.035,141.186,294.035z"/>
					<path fill="#010101" d="M197.436,231.098c0,0,8.375-0.75,11.75-3.25c0,0-4.688-2.938-8.688-3.438c0,0-0.438,1.562-0.812,2.125
						c0,0-1.188,0-1.625,0.125c0,0,0.875,0.25,1.25,0.625c0,0-0.938,2.688-2.75,3.625c0,0-3.188,0.25-4.625-0.125
						c0,0-1.938-0.812-3.188-3.188c0,0,0.625,2.25,1.25,2.812c0,0-1.812,0.688-2.938,0.562l-1.188-0.938c0,0-0.625,0.562-0.875,3.5
						c0,0-0.812-6.75,4.5-9.938c0,0,11.875-4.625,32.062,7.188c0,0-0.688-0.156-2.812-0.906c0,0,1.969,1.094,2.344,1.281
						c0,0-3.062-0.938-3.5-1.062c0,0,2.906,1.5,3.219,1.688c0,0-6.25-3-10.938-3.312
						C209.873,228.473,207.498,230.285,197.436,231.098z"/>
					<path fill="#010101" d="M223.373,230.035c0,0-5.25-3.812-10.125-4.375C213.248,225.66,220.686,228.723,223.373,230.035z"/>
					<path fill="#010101" d="M202.686,240.848c0,0-8.375,0.312-13.562-3.688c0,0,0.875,2.438,5.562,3.938c0,0-2-0.75-3.5-2
						C191.186,239.098,193.123,241.035,202.686,240.848z"/>
					<path fill="#010101" d="M151.748,235.91c0,0-2.25-8.312-11.438-10.375c0,0-11.75-3.25-17.188,8.938
						c0,0,1.938,0.375,3.312-0.188s3.125-1.062,4.75-1.062c0,0,0.469,1.125,3.875,1.031c0,0-2.5-0.094-3.25-1.219
						c0,0,0.875-1.812,1.75-2.312c0,0-0.5,1.229,0.25,2.688c0,0,2.625,0.917,5.543,0.792c0,0,4.125-0.708,4.395-5.479
						c0,0,3.188,1.312,4.438,3.25c0,0,0.188,0.938,0,1.375c0,0-2.25,0.646-3.875,0.646c0,0,3,0.541,5.459-0.25
						C149.77,233.744,150.998,233.973,151.748,235.91z"/>
					<path fill="#010101" d="M280.686,282.41c2.5-0.625,14.5-7,19.125-18.875c0,0-1.5,4.75-2.75,6.375c0,0,8.25-6.375,8.375-22.75
						s-5.375-23-9.875-24.5c0,0-7.625-2.625-19.125,12.5c0,0,10.125-15.625,19-13.875s18.25,24.875,7,43
						c0,0-10.875,17.5-21.375,20.125c0,0-2,0.375-4.625,3.125c-3.547,3.717-6.75,6.25-8.75,4.875s0-7.875,0-7.875
						s-0.25,4.625,0.75,6.25c0,0,3.625-1,6.5-4S280.068,282.564,280.686,282.41z"/>
					<path fill="#010101" d="M281.936,235.66c0,0,5-10,9.875-9.375s15.75,9.75,7,30.25c0,0,2.5-7.875-2.75-16
						c0,0,3.625,3.75,3.875,9.25c0,0,2-13.375-6.625-18.75c0,0-5-2.25-7,1.5c0,0,2.709,3.668,2.584,7.043
						C288.895,239.578,287.436,235.66,281.936,235.66z"/>
					<path fill="#010101" d="M152.811,346.66c0,0,21-11.75,47-1.75C199.811,344.91,175.311,329.66,152.811,346.66z"/>
					<path fill="#010101" d="M119.311,224.91c0,0,1.5-21.5-2.75-28.5s-16-54.75,20.5-64c0,0-7.75-47.5,39.75-43.75
						s45.75,23.75,67.25,19.25c0,0,44.75,10.25,53.25,51.25c0,0-2-3-4.25-3.75c0,0,11.75,18.5,2.5,67c0,0-27.5-9.5-29.25,24.75
						l-4.75-1.5c0,0,6.25-35.5-19-50.5c0,0,8,4,10.75,7.5c0,0-5.75-7-9.5-9.75c0,0,5.75,3.75,6.75,4.75c0,0-5-5.75-7.25-7.25l8,4.75
						c0,0-10.25-37.5-38.25-40s-55,1-63.25-0.75c0,0-22.75,6.75-25.25,26.75C124.561,181.16,123.811,212.16,119.311,224.91z"/>
					<path fill="#010101" d="M174.895,209.66c0,0-2.834-0.75-4.666-0.75c0,0,2.855-0.289,3.166-0.082
						c0.25,0.166-2.584-1.584-3.334-1.918l5.334,2.5c-0.25,0-1.5-0.332-1.5-0.332L174.895,209.66z"/>
					<path fill="#010101" d="M176.811,207.91c0,0-3.834-1-4.25-1c-0.25,0,3.418,0.418,3.418,0.418l-2-0.584l3.25,0.584l-5.25-3.5
						l6.75,4.25L176.811,207.91z"/>
					<path fill="#010101" d="M179.645,208.828l-1.021-1.161l-4.479-5.089l4.166,4.082l-2.332-5.75l2.166,4.5c0,0-1.834-5-1.75-4.75
						S179.645,208.828,179.645,208.828z"/>
					<polygon fill="#010101" points="179.875,206.34 177.479,201.828 179.479,204.744 176.979,198.91 179.729,204.078 
						177.479,198.744 180.979,205.16 178.061,198.328 180.979,202.66 179.979,197.828 182.561,204.078 181.229,201.828 
						182.561,205.578 179.979,201.744 182.561,207.66 180.311,204.66 181.061,206.494 179.895,205.16 181.311,208.16 					"/>
					<path fill="#010101" d="M183.479,206.41l-0.158-1.736l-0.426-4.68c0,0,1.541,5.375,1.791,6.041l-1.332-3.291L183.479,206.41z"
						/>
					<path fill="#010101" d="M184.436,205.91c0,0,0.562-6.188,3.938-8.438c0,0-1.75,1.188-2.438,4.75c0,0,1-4.188,4.625-5.312
						c0,0-2.438,1.312-3.812,5c0,0,1.812-3.688,7.688-4.312c0,0-2.938,0.375-5.188,2.5c0,0,2.125-1.938,7.812-1.75
						c0,0-3.312-0.125-6.125,1.562c0,0,3.25-1.188,6.438-0.875c0,0-3.062,0-5,1.375c0,0,6.375-2,12.75-1.562
						c0,0-4.438-0.5-5.5-0.375c0,0,7.062-1.062,11.75-0.688c0,0-4.625-0.062-6,0.5c0,0,5.812-0.375,6.625-0.312
						c0,0-4.438,0.688-4.875,0.75s-0.438,0.062-0.438,0.062l6.812-1.125c0,0-5.625,1.812-6.312,2.062s-0.25,0.062-0.25,0.062
						l1.312-0.812l-5.062,1.75l3-0.625l-2.562,1c0,0,7.072-1.436,8.758-1.707c0.143-0.023,0.246-0.037,0.305-0.043
						c0.75-0.062-3.125,1.25-3.125,1.25s3.781-0.582,6.123-0.51c0.086,0.002,0.17,0.006,0.252,0.01
						c2.312,0.125-3.75,0.5-4.312,0.688c0,0,6.062-0.188,8.188,0.188c0,0-4.125,0.25-6.812,0.562c0,0,5,0.25,6.812,0.562
						c0,0-4.719,0.059-7.252,0.283c-0.107,0.01-0.211,0.02-0.311,0.029c-2.438,0.25,4.062,0.062,4.062,0.062
						s-3.438,0.75-3.812,0.875l8.25-0.75c0,0-4.75,0.812-5.125,0.812c0,0,4.688,0.312,6.375,0.75c0,0-3.125-0.062-3.688-0.125
						c0,0,4.188,1.5,6.375,3c0,0-4.312-2.125-7.438-2.812c0,0,5.25,2.125,7.688,4.125c0,0-4.812-2.625-7-3.25
						c0,0,4.875,2.25,7.062,4.562c0,0-3.625-2.188-5.188-3c0,0,4.062,3.062,4.875,3.812c0,0-2-1-2.438-1.188
						s-0.438-0.188-0.438-0.188l2.812,1.812c0,0-1.938-1.25-3.75-1.812l1.938,1.375c0,0-2.062-0.938-2.5-1.062l1.062,0.688
						l-1.812-0.5c0,0-3.188,2.125-4.312,2.438s-0.25,0.062-0.25,0.062s4.375-2.875,4.938-3.438l-2.438,1.125l2.562-1.5
						c0,0-3.688,1.125-4,1.188l3.25-1.312c0,0-2.938,0.312-3.25,0.312l2.375-1.062l-2.438,0.75l2.75-1.375c0,0-3,0-3.188,0.062
						l3-0.5l-4.375,0.188l3.625-0.938l-3.312,0.125l-4.688,4l2.812-2.875l-5.375,3l3.688-2.562l-5.375,2.938
						c0,0,7.25-4.375,7.438-4.375l-6.188,2.625l4.812-2.875l-1.625,0.625l1.125-0.938c0,0-2.5,0.812-2.688,0.938
						s-4.375,2.375-4.375,2.375l7.438-4.75l-7.875,3.625l5.688-3.125l-10.188,4.375l7.125-3.938l-6.25,2.875l2.75-2.188
						c0,0-5.438,2.688-6,2.938l3.688-3c0,0-3.713,2.455-4.062,2.688c-0.188,0.125,2.875-2.5,2.875-2.5l-3.875,2.875l2.188-2.312
						l-4.312,2.812c-0.188,0.062,1.812-2.688,1.812-2.688l-2.625,2.25c0,0,2.188-2.5,3.062-2.688c0,0-3.375,1.375-4.188,1.938
						c0,0,3.062-2.188,4.188-2.375c0,0-4,1.375-5.5,2.062c0,0,3.062-1.688,3.312-1.688l-1.688,0.25c0,0,1.375-1.062,1.75-1.312
						c0,0-2.875,1.75-4.125,3.062c0,0,2.193-2.668,2.438-2.75c0.188-0.062-2.062,1.812-2.062,1.812l1-2c0,0-2.375,2.812-2.375,3
						l1.562-2.812c0,0-3.75,3.062-4.188,3.375c0,0,4.062-3.812,5-4.188h0.25l-3.688,2.062l2-2.438c0,0-2.375,1.938-2.438,2.188
						l2.438-3.5c0,0-2.875,3.312-3.188,4c0,0,2.188-4.625,3.375-5.438c0,0-3.062,3.5-4.125,6.188c0,0,1.438-4.812,2.5-5.812
						c0,0-1.5,1.938-1.625,2.25l0.25-1.625c0,0-0.75,2.375-0.75,2.188s-0.125-1.812-0.125-1.812S184.686,205.348,184.436,205.91z"/>
					<path fill="#010101" d="M148.895,210.828c0,0-3.334-7.584-8.418-9.5c0,0,2.918,1.499,4.75,4.832c0,0-1.666-3.333-6.666-5
						c0,0,2.084,0.917,3.584,2.5c0,0-2.25-1.832-6-2.916c0,0,2.666,1.084,4.416,2.75c0,0-3.416-2.75-10.084-2.334
						c0,0,2.918,0,5.084,1.084c0,0-6.25-1.334-9.916,1c0,0,2.25-1.667,3.25-1.834c0,0-5.084,1.75-6.334,4.5s-1.25,3.418-1.25,3.418
						l0.666,1.332c0,0,2.334-2.833,6.168-2c0,0-2.334-0.5-3.584-0.416c0,0,3.25-0.5,5.666,0.334l-3.082-1
						c0,0,4.832,0.833,5.916,1.25l-3.25-1.168c0,0,5.75,1.75,6.584,2c0.832,0.25-3.25-1.582-3.25-1.582s6.584,2.333,7.75,2.5
						c0,0-4.166-1.584-5.5-2.25c0,0,7.75,2.5,9.416,2.5c0,0-2.25-0.751-2.834-0.918c-0.582-0.166-0.582-0.166-0.582-0.166l4.25,1
						c0,0-3.5-2.5-5.584-3.25l6.25,3.166l-5.5-4.082l6.084,4.166l-4.084-3.916l4.584,4.166c0,0-2.75-3.334-4.418-4.75
						c0,0,4.291,3.956,4.75,4.416c0.334,0.334-2.916-3.25-2.582-3c0.332,0.25,2.916,3.334,2.916,3.334l-1.666-3.334
						C146.395,207.66,148.729,210.578,148.895,210.828z"/>
					<path fill="#010101" d="M251.811,325.91c10.246-13.125,9-38.332,9-38.332c0.334,1.332-2.5,25.582-9,34.666
						c-7.451,10.416-33.916,35.916-56.25,43.916c0,0-29.75,5-42.584-2.25c0,0-6.166-8.75-9.416-32.25c0,0,2.25,28.25,7.916,34.084
						c6.961,7.164,37.389,6.324,49.334,1.916C221.811,359.91,251.811,325.91,251.811,325.91z"/>
					<path fill="#010101" d="M148.561,355.035c0,0-16.5-33.125-22.25-44.375c-4.645-9.086-17-37.75-13-57.75s9.5-43.25,9.25-63.75
						c0,0,2.5,23.25-6.5,61c0,0-7,20,10.75,57c0,0,19.125,38.375,19.375,39.375S148.561,355.035,148.561,355.035z"/>
					<path fill="#010101" d="M182.061,280.66c0,0-6-9.75-16.875-1.375c0,0,3.875-0.75,5-0.25S171.936,283.91,182.061,280.66z"/>
					<path fill="#010101" d="M151.311,279.41c0,0,1-2.25,2.5-1.625s4.75,4.25,7,4.875c0,0-3.25-0.5-3.875-1.125
						C156.936,281.535,154.061,282.785,151.311,279.41z"/>
					<path fill="#010101" d="M184.936,263.785c0,0,6.43,5.627,3.75,11.625c-2.625,5.875-6.75,5.875-6.75,5.875s5.979,0.369,8-6.375
						C191.811,268.66,184.936,263.785,184.936,263.785z"/>
					<path fill="#010101" d="M150.686,265.285c0,0-5.375,7.625-5.125,9.625s1,5,5.125,7.625c0,0-5.125-2.125-6-6.75
						S150.686,265.285,150.686,265.285z"/>
					<path fill="#010101" d="M163.311,283.66c0,0-14.582-5.582-10.832-14.75c0,0-3.5,4.668,0.082,8.668
						C156.336,281.791,163.311,283.66,163.311,283.66z"/>
					<path fill="#010101" d="M129.186,240.348c0,0,13.938,0,18.062-1.5c0,0-5.375,2.312-5.625,2.375s-3.938,1.5-8.375-0.125
						L129.186,240.348z"/>
					<path fill="#010101" d="M293.686,260.785c0,0,1.25-13.5-10.875-16.875c0,0-5.188,1.938-2.75,5.75
						c1.535,2.402,6.375,1,7.875-0.5C287.936,249.16,292.811,249.41,293.686,260.785z"/>
					<path fill="#010101" d="M281.436,269.035c0.537-0.32-6.125,3.875-8,1.5s2.125-5.75,4-6.75s3.5-3.625,2-6.875
						s-3.25-10.25,3.375-13c0,0-6,2.875-2.625,12.25c0,0,2.041,5.625-2.625,8c0,0-5.838,3.844-3.875,6.209
						C274.811,271.725,278.311,270.91,281.436,269.035z"/>
					<path fill="#010101" d="M270.145,281.41c0,0-0.666-5.5,1.5-5.332c2.166,0.166,7.166,0.832,11.666-3
						C283.311,273.078,277.979,281.076,270.145,281.41z"/>
					<path fill="#010101" d="M274.561,289.66c0,0-18.75,32.752-7.5,83c0,0-17.584-35.416,2.75-81.416L274.561,289.66z"/>
					<path fill="#010101" d="M143.145,342.744c0,0,2.582,57.166,2.916,58.166s-0.25-51.334-0.25-51.334L143.145,342.744z"/>
					<path fill="none" stroke="#231F20" stroke-miterlimit="10" d="M145.895,305.744c0,0,7.75-8.332,12.75-7.5
						c5,0.834,6.709,3.541,11.041,2.041c4.334-1.5,8.959-4.041,26.875,2.209"/>
					<path fill="#010101" d="M448.811,560.912c0,0-14-101.502-47.332-122c-27.406-16.854-113.334-72.666-119.334-75.334
						c-6-2.666-19.834-10.918-19.834-10.918s1.666,3.047,2.25,8c1.424,12.051-5.234,37.891-70.082,76.752c0,0-14,2.5-31-2.168
						c0,0-17.334-19.666-17.334-40.332l-1.334-28.668c0,0-77.332,40-95.332,47.334s-64.668,34-72,103.334
						c0,0,19.998-78,73.332-100.668l91.666-45.666c0,0,0.334,23.998,1.668,26.666c0,0,2.166,23.168,19.666,39.666
						c0,0,14.5,4.502,31.168,2.168c0,0,63.332-36.666,76.832-76.168c0,0,4.334,0.668,4.668,2c0,0-3.668,9-8,13.334
						c0,0,9.666-10,10.332-13c0,0,104.5,63.666,122.5,75.666C401.311,440.91,431.311,460.41,448.811,560.912z"/>
					<path fill="#FFFFFF" d="M195.092,226.34c-0.049,1.246,1.863,1.311,1.863,0.068C196.955,225.235,195.137,225.199,195.092,226.34
						z"/>
					<path fill="#FFFFFF" d="M201.738,227.633c-0.582-0.407-1.252-0.472-1.936-0.592c-0.287-0.051-0.602-0.152-0.893-0.154
						c-0.377-0.002-0.73,0.08-1.1,0.074c-0.123-0.002-0.148,0.154-0.059,0.218c0.293,0.206,0.391,0.399,0.691,0.562
						c0.264,0.143,0.518,0.248,0.801,0.354c0.719,0.266,1.453,0.592,2.234,0.5C201.988,228.533,202.18,227.941,201.738,227.633z"/>
					<path fill="#FFFFFF" d="M136.605,229.767c-0.037-0.007-0.074-0.013-0.111-0.019c-0.094-0.016-0.168-0.002-0.246,0.008
						c-0.191-0.373-0.557-0.65-1.104-0.65c-1.684,0-1.684,2.609,0,2.609c0.547,0,0.912-0.277,1.104-0.648
						c0.078,0.008,0.152,0.023,0.246,0.008c0.037-0.007,0.074-0.014,0.111-0.02C137.246,230.947,137.246,229.873,136.605,229.767z"
						/>
					<path fill="#544C4C" d="M221.145,106.078c-4.166-3.168-29-19.001-59.5-14.001c0,0,8.168-1.666,19.5,1.167
						c0,0-16.666,0.333-31.166,15.333c0,0,21.832-16.667,41.5-13c0,0-16-3.833-38,15.333c0,0,12.166-11.499,28.666-13.166
						c0,0-14.334,3.5-21.666,13c0,0,16.832-16.167,41-11.334c0,0-5.334-0.666-9.168,0.834c0,0,7.168-1.666,16.168,3.5
						c0,0-5.668-1.833-10.668-1.5c0,0,10.834,3.167,18,11.5c0,0-12.332-9.167-30.166-5.834c0,0,9.5-1,16.666,1.667
						c0,0-4.5,0-7,0.333c0,0,8.5,0.501,13,2.834c0,0-4.332,0-7.666,0c0,0,19.666,4,32.334,14.333c0,0-13.334-8.667-28.5-8
						c0,0,11.332,0.167,23.832,7.833c0,0-3.666-1.333-5.166-1.5c0,0,8,2.834,10.334,4.667c0,0-6.5-1.333-7-1.5l7.166,3.333
						c0,0-14.834-7.833-29.666-7.333c0,0,11,1,21.166,5.5c0,0-7.5-1.667-8.666-1.667c0,0,10.17,3.141,14.5,5.172
						c0.242,0.113,0.465,0.223,0.666,0.328c3.834,2-16.834-6-25.334-5.25c-0.787,0.07,25,4.5,44,15.25c0,0-10-7.25-14.5-8.5
						c0,0,12.75,4.75,15,6c0,0-8.5-4.75-10.25-5.25l9.5,2.25c0,0-10.75-5.75-11.75-6.25l10,3l-12.75-6.75
						c-0.75-1,17.916,2.834,42.584,19.168c0,0-12.332-9.001-16.166-10.668c0,0,18.498,7.834,24.166,12.668
						c0,0-12.5-9.667-14.334-10.5c0,0,17.666,9.833,19.334,11.5c1.666,1.666,0.5,0.666,0.5,0.666s-22.5-34.5-50-38.667
						c0,0,6.416,2.833,8.166,5.083c0,0-3.75-2.75-10-3.25S221.145,106.078,221.145,106.078z"/>
					<path fill="#544C4C" d="M211.811,137.91c0,0,18.75-0.875,37.25,14c0,0-5.5-4.75-12.5-5.5c0,0,8.25,0.25,17.5,17.25
						c0,0-6.75-10-16.5-13.5c0,0,9,7.25,12.25,12c0,0-7.75-10.75-23.25-13.75c0,0,7.25,0.5,8.25,0.75s-2.75-4.25-12.75-5.5
						c0,0,9.697,0.599,11,1.25C234.061,145.41,230.311,139.16,211.811,137.91z"/>
					<path fill="#544C4C" d="M114.061,170.41c0,0-1.5-28,19.75-34.75c0,0-6.5,3.5-8.5,6.25c0,0,7.25-5,9.25-4.25
						c0,0-3.25,2-4.75,3.25c0,0,4.75-2.5,6.75-0.5s3.5,7.25,5,9.75c0,0-10,7.5-13.25,12c0,0,6.25-10,10.75-11.75
						c0,0-11.25,2.5-16.75,15.25c0,0,1-9,12-17.25c0,0-11.25,2.25-16,16.25c0,0,0.25-9.5,8-18.5
						C126.311,146.16,116.311,154.41,114.061,170.41z"/>
				</g>
			</g>
			<g>
				<path fill="#FFFFFF" d="M200.023,524.574c-15.623,0-28.334-12.711-28.334-28.334c0-15.622,12.711-28.332,28.334-28.332
					c15.622,0,28.332,12.71,28.332,28.332C228.355,511.863,215.646,524.574,200.023,524.574z"/>
				<path fill="#D3B76E" d="M200.023,469.908c14.543,0,26.332,11.789,26.332,26.332c0,14.545-11.789,26.334-26.332,26.334
					c-14.545,0-26.334-11.789-26.334-26.334C173.689,481.697,185.479,469.908,200.023,469.908 M200.023,465.908
					c-16.727,0-30.334,13.607-30.334,30.332c0,16.727,13.607,30.334,30.334,30.334c16.725,0,30.332-13.607,30.332-30.334
					C230.355,479.516,216.748,465.908,200.023,465.908L200.023,465.908z"/>
			</g>
			<g>
				<g>
					<g>
						<path fill="#F2F2F2" d="M177.381,490.637c3.094-12.508,15.742-20.133,28.246-17.037c12.508,3.094,20.133,15.738,17.039,28.246
							c-3.096,12.506-15.74,20.133-28.248,17.037C181.914,515.789,174.283,503.143,177.381,490.637"/>
						<path fill="#E02B39" d="M209.361,494.92c0.441,4.873-3.148,9.182-8.02,9.627c-4.871,0.443-9.182-3.143-9.623-8.018
							c-0.445-4.871,3.145-9.182,8.016-9.625S208.914,490.049,209.361,494.92"/>
						<path fill="#223D73" d="M192.963,491.148c-1.266,2.094-0.604,4.812,1.488,6.078c2.09,1.268,4.811,0.6,6.078-1.492
							c1.264-2.09,3.982-2.754,6.076-1.488c2.088,1.266,2.756,3.984,1.488,6.074c-2.533,4.182-7.969,5.512-12.152,2.982
							C191.764,500.77,190.43,495.33,192.963,491.148"/>
					</g>
					<path fill="#3F3F40" d="M186.15,505.619l2.301,3.412l1.152-0.773l-2.305-3.412L186.15,505.619z M185.785,505.08l1.15-0.775
						l-2.303-3.414l-1.152,0.773L185.785,505.08z M181.713,502.861l4.971,7.367l1.146-0.773l-4.971-7.367L181.713,502.861z
						 M185.254,500.473l4.971,7.367l1.146-0.775l-4.969-7.371L185.254,500.473z M215.822,490.982l-2.299-3.416l-1.15,0.775
						l2.301,3.414L215.822,490.982z M213.154,487.025l-2.299-3.416l-1.148,0.775l2.301,3.414L213.154,487.025z M218.221,489.367
						l1.146-0.775l-2.305-3.414l-1.148,0.775L218.221,489.367z M216.699,484.635l-2.303-3.414l-1.15,0.775l2.305,3.416
						L216.699,484.635z M217.594,489.789l-4.965-7.371l-1.152,0.773l4.971,7.367L217.594,489.789z M213.246,509.455l1.15,0.773
						l2.303-3.414l-1.15-0.775L213.246,509.455z M215.914,505.498l1.148,0.773l2.305-3.41l-1.152-0.773L215.914,505.498z
						 M213.777,504.846l-2.301,3.412l1.146,0.779l2.305-3.414L213.777,504.846z M217.594,501.666l-1.146-0.775l-2.305,3.414
						l1.148,0.775L217.594,501.666z M212.008,503.65l-2.305,3.414l1.152,0.775l2.299-3.414L212.008,503.65z M213.523,503.887
						l2.299-3.414l-1.148-0.779l-2.303,3.414L213.523,503.887z M185.254,490.982l1.148,0.773l4.969-7.371l-1.146-0.773
						L185.254,490.982z M184.629,490.561l4.975-7.369l-1.152-0.773l-4.971,7.371L184.629,490.561z M187.83,481.996l-1.146-0.775
						l-4.975,7.371l1.15,0.775L187.83,481.996z"/>
				</g>
			</g>
		</g>
		<g>
			<rect x="55.404" y="31.166" fill="#D3B76E" width="289.191" height="48.5"/>
			<polygon fill="#D3B76E" points="68.398,72.854 29.744,72.854 38.111,55.416 29.744,37.979 81.064,37.979 81.064,50.01 
				55.404,50.01 			"/>
			<polygon fill="#D3B76E" points="331.602,72.854 370.256,72.854 361.889,55.416 370.256,37.979 318.936,37.979 318.936,50.01 
				344.596,50.01 			"/>
			<g>
				<g>
					<path fill="#9D8E52" d="M79.59,52.201c-0.434-1.898-2.088-2.875-3.77-2.875c-1.734,0-2.846,0.842-2.846,1.98
						c0,1.518,2.141,2.061,4.527,2.873c2.766,0.949,5.938,2.414,5.938,5.803c0,3.391-2.928,5.803-7.266,5.803
						c-3.986,0-6.725-2.25-7.756-5.693l3.635-0.977c0.406,1.709,1.924,3.309,4.283,3.309c2.033,0,3.092-1.004,3.092-2.277
						c0-1.926-2.576-2.387-5.262-3.336c-2.25-0.812-5.07-1.979-5.07-5.287c0-2.955,2.93-5.477,6.941-5.477
						c3.553,0,6.373,2.168,7.186,5.15L79.59,52.201z"/>
					<path fill="#9D8E52" d="M97.814,46.047c5.449,0,9.869,4.148,9.869,9.869s-4.42,9.869-9.869,9.869
						c-5.451,0-9.844-4.148-9.844-9.869S92.363,46.047,97.814,46.047z M97.814,62.07c3.498,0,5.938-2.521,5.938-6.154
						c0-3.66-2.439-6.156-5.938-6.156c-3.471,0-5.912,2.496-5.912,6.156C91.902,59.549,94.344,62.07,97.814,62.07z"/>
					<path fill="#9D8E52" d="M130.004,46.426v18.98h-3.553l-5.396-7.32c-1.707-2.332-3.795-5.316-3.822-5.316h-0.027
						c-0.027,0,0.027,2.74,0.027,6.508v6.129h-3.77v-18.98h3.553l5.504,7.402c1.301,1.709,3.688,5.098,3.715,5.098h0.027
						c0.027,0-0.027-3.092-0.027-6.291v-6.209H130.004z"/>
					<path fill="#9D8E52" d="M162.463,46.426v18.98h-3.768V57.57h-8.217v7.836h-3.768v-18.98h3.768v7.592h8.217v-7.592H162.463z"/>
					<path fill="#9D8E52" d="M183.264,61.881v3.525H169.68v-18.98h13.422v3.525h-9.652v4.039h7.619v3.309h-7.619v4.582H183.264z"/>
					<path fill="#9D8E52" d="M205.557,46.426v10.736c0,5.586-3.199,8.623-8.189,8.623c-5.016,0-8.188-3.037-8.188-8.623V46.426
						h3.768v10.684c0,3.523,1.52,5.15,4.42,5.15c2.875,0,4.393-1.627,4.393-5.15V46.426H205.557z"/>
					<path fill="#9D8E52" d="M228.525,46.426v18.98h-3.553l-5.395-7.32c-1.709-2.332-3.797-5.316-3.824-5.316h-0.027
						c-0.027,0,0.027,2.74,0.027,6.508v6.129h-3.768v-18.98h3.551l5.504,7.402c1.303,1.709,3.688,5.098,3.715,5.098h0.027
						c0.027,0-0.027-3.092-0.027-6.291v-6.209H228.525z"/>
					<path fill="#9D8E52" d="M249.922,63.426c-1.029,1.166-3.279,2.359-5.748,2.359c-5.449,0-9.842-4.148-9.842-9.869
						s4.393-9.869,9.842-9.869c3.77,0.025,6.914,1.979,8.623,5.016l-3.85,1.004c-1.031-1.41-2.902-2.307-4.773-2.307
						c-3.551,0-5.91,2.549-5.91,6.156c0,3.77,2.604,6.182,6.127,6.182c3.254,0,4.963-1.789,5.559-3.254v-0.812h-5.26v-3.064h8.486
						v10.439h-3.254c0-1.572,0.027-1.953,0.027-1.98H249.922z"/>
					<path fill="#9D8E52" d="M272.135,54.234v3.092H259.77v-3.092H272.135z"/>
					<path fill="#9D8E52" d="M297.842,46.426v18.98h-3.715v-5.938c0-3.986,0.137-6.725,0.109-6.725h-0.027
						c-0.027,0-1.355,2.332-1.682,2.873l-2.955,5.098h-1.953l-2.955-5.098c-0.352-0.541-1.682-2.873-1.709-2.873h-0.025
						c-0.027,0,0.135,2.738,0.135,6.725v5.938h-3.715v-18.98h3.553l3.932,6.508c1.463,2.412,1.707,3.01,1.734,3.01h0.027
						c0.027,0,0.271-0.598,1.736-3.01l3.957-6.508H297.842z"/>
					<path fill="#9D8E52" d="M305.059,65.406v-18.98h3.768v18.98H305.059z"/>
					<path fill="#9D8E52" d="M332.582,46.426v18.98h-3.553l-5.396-7.32c-1.707-2.332-3.795-5.316-3.822-5.316h-0.027
						c-0.027,0,0.027,2.74,0.027,6.508v6.129h-3.77v-18.98h3.553l5.504,7.402c1.301,1.709,3.688,5.098,3.715,5.098h0.027
						c0.027,0-0.027-3.092-0.027-6.291v-6.209H332.582z"/>
				</g>
				<g>
					<g>
						<path fill="#FFFFFF" d="M78.59,51.201c-0.434-1.898-2.088-2.875-3.77-2.875c-1.734,0-2.846,0.842-2.846,1.98
							c0,1.518,2.141,2.061,4.527,2.873c2.766,0.949,5.938,2.414,5.938,5.803c0,3.391-2.928,5.803-7.266,5.803
							c-3.986,0-6.725-2.25-7.756-5.693l3.635-0.977c0.406,1.709,1.924,3.309,4.283,3.309c2.033,0,3.092-1.004,3.092-2.277
							c0-1.926-2.576-2.387-5.262-3.336c-2.25-0.812-5.07-1.979-5.07-5.287c0-2.955,2.93-5.477,6.941-5.477
							c3.553,0,6.373,2.168,7.186,5.15L78.59,51.201z"/>
						<path fill="#FFFFFF" d="M96.814,45.047c5.449,0,9.869,4.148,9.869,9.869s-4.42,9.869-9.869,9.869
							c-5.451,0-9.844-4.148-9.844-9.869S91.363,45.047,96.814,45.047z M96.814,61.07c3.498,0,5.938-2.521,5.938-6.154
							c0-3.66-2.439-6.156-5.938-6.156c-3.471,0-5.912,2.496-5.912,6.156C90.902,58.549,93.344,61.07,96.814,61.07z"/>
						<path fill="#FFFFFF" d="M129.004,45.426v18.98h-3.553l-5.396-7.32c-1.707-2.332-3.795-5.316-3.822-5.316h-0.027
							c-0.027,0,0.027,2.74,0.027,6.508v6.129h-3.77v-18.98h3.553l5.504,7.402c1.301,1.709,3.688,5.098,3.715,5.098h0.027
							c0.027,0-0.027-3.092-0.027-6.291v-6.209H129.004z"/>
						<path fill="#FFFFFF" d="M161.463,45.426v18.98h-3.768V56.57h-8.217v7.836h-3.768v-18.98h3.768v7.592h8.217v-7.592H161.463z"/>
						<path fill="#FFFFFF" d="M182.264,60.881v3.525H168.68v-18.98h13.422v3.525h-9.652v4.039h7.619v3.309h-7.619v4.582H182.264z"/>
						<path fill="#FFFFFF" d="M204.557,45.426v10.736c0,5.586-3.199,8.623-8.189,8.623c-5.016,0-8.188-3.037-8.188-8.623V45.426
							h3.768v10.684c0,3.523,1.52,5.15,4.42,5.15c2.875,0,4.393-1.627,4.393-5.15V45.426H204.557z"/>
						<path fill="#FFFFFF" d="M227.525,45.426v18.98h-3.553l-5.395-7.32c-1.709-2.332-3.797-5.316-3.824-5.316h-0.027
							c-0.027,0,0.027,2.74,0.027,6.508v6.129h-3.768v-18.98h3.551l5.504,7.402c1.303,1.709,3.688,5.098,3.715,5.098h0.027
							c0.027,0-0.027-3.092-0.027-6.291v-6.209H227.525z"/>
						<path fill="#FFFFFF" d="M248.922,62.426c-1.029,1.166-3.279,2.359-5.748,2.359c-5.449,0-9.842-4.148-9.842-9.869
							s4.393-9.869,9.842-9.869c3.77,0.025,6.914,1.979,8.623,5.016l-3.85,1.004c-1.031-1.41-2.902-2.307-4.773-2.307
							c-3.551,0-5.91,2.549-5.91,6.156c0,3.77,2.604,6.182,6.127,6.182c3.254,0,4.963-1.789,5.559-3.254v-0.812h-5.26v-3.064h8.486
							v10.439h-3.254c0-1.572,0.027-1.953,0.027-1.98H248.922z"/>
						<path fill="#FFFFFF" d="M271.135,53.234v3.092H258.77v-3.092H271.135z"/>
						<path fill="#FFFFFF" d="M296.842,45.426v18.98h-3.715v-5.938c0-3.986,0.137-6.725,0.109-6.725h-0.027
							c-0.027,0-1.355,2.332-1.682,2.873l-2.955,5.098h-1.953l-2.955-5.098c-0.352-0.541-1.682-2.873-1.709-2.873h-0.025
							c-0.027,0,0.135,2.738,0.135,6.725v5.938h-3.715v-18.98h3.553l3.932,6.508c1.463,2.412,1.707,3.01,1.734,3.01h0.027
							c0.027,0,0.271-0.598,1.736-3.01l3.957-6.508H296.842z"/>
						<path fill="#FFFFFF" d="M304.059,64.406v-18.98h3.768v18.98H304.059z"/>
						<path fill="#FFFFFF" d="M331.582,45.426v18.98h-3.553l-5.396-7.32c-1.707-2.332-3.795-5.316-3.822-5.316h-0.027
							c-0.027,0,0.027,2.74,0.027,6.508v6.129h-3.77v-18.98h3.553l5.504,7.402c1.301,1.709,3.688,5.098,3.715,5.098h0.027
							c0.027,0-0.027-3.092-0.027-6.291v-6.209H331.582z"/>
					</g>
				</g>
			</g>
			<rect x="49.207" y="37.979" fill="#9D8E52" width="6.197" height="34.875"/>
			<rect x="344.596" y="37.979" fill="#9D8E52" width="6.197" height="34.875"/>
		</g>
	</g>
</g>
</svg>
