<?xml version="1.0" encoding="utf-8"?>
<!-- Generator: Adobe Illustrator 16.0.0, SVG Export Plug-In . SVG Version: 6.00 Build 0)  -->
<!DOCTYPE svg PUBLIC "-//W3C//DTD SVG 1.1//EN" "http://www.w3.org/Graphics/SVG/1.1/DTD/svg11.dtd" [
	<!ENTITY ns_flows "http://ns.adobe.com/Flows/1.0/">
	<!ENTITY ns_extend "http://ns.adobe.com/Extensibility/1.0/">
	<!ENTITY ns_ai "http://ns.adobe.com/AdobeIllustrator/10.0/">
	<!ENTITY ns_graphs "http://ns.adobe.com/Graphs/1.0/">
]>
<svg version="1.1" xmlns:x="&ns_extend;" xmlns:i="&ns_ai;" xmlns:graph="&ns_graphs;"
	 xmlns="http://www.w3.org/2000/svg" xmlns:xlink="http://www.w3.org/1999/xlink" xmlns:a="http://ns.adobe.com/AdobeSVGViewerExtensions/3.0/"
	 x="0px" y="0px" width="400px" height="560px" viewBox="0 0 400 560" enable-background="new 0 0 400 560" xml:space="preserve">
<g id="Layer_1" display="none">
	<g display="inline">
		<g>
			<defs>
				<polygon id="SVGID_97_" points="-64,420.615 -220,490.74 -376,420.615 -376,145.678 -64,145.678 				"/>
			</defs>
			<clipPath id="SVGID_2_">
				<use xlink:href="#SVGID_97_"  overflow="visible"/>
			</clipPath>
			<path clip-path="url(#SVGID_2_)" fill="#DAB128" d="M2.49,504.602c-2.885-12.652-7.546-21.395-7.546-21.395
				c-21.497-26.725-129.172-86.045-139.684-91.799c-7.748-46.885,10.292-94.176,13.957-103.115
				c9.88-0.602,18.066-12.441,18.733-14.109c0.916-2.291,3.437-5.728,8.705-20.161c5.271-14.435-0.916-23.599-7.561-25.202
				c-0.543-0.131-1.091-0.189-1.639-0.195c0.057-2.105,0.582-6.764,3.472-14.468c4.124-10.997,2.75-22.224,2.75-22.224
				c-1.833-51.549-30.472-70.336-70.565-86.832s-79.043,9.852-83.396,17.184c-4.354,7.332-19.703,21.994-27.264,33.908
				c-6.102,9.613,0.178,29.961,2.831,37.462c-0.65,4.729-0.748,9.562-0.159,14.622c1.135,9.752,0,17.412-1.833,25.966
				c0,0-4.276,21.841,1.451,43.378c4.229,15.898,4.307,26.037,5.729,32.074c1.832,7.791,2.978,18.559,7.331,23.369l0.908,17.252
				l-12.974,8.256c0,0-9.119,4.609-23.229,11.826c-26.553,12.869-100.738,51.445-135.777,71.916
				c-8.902,4.463-16.236,8.66-18.387,12.047c-0.277,0.318-0.415,0.568-0.396,0.742c0,0-0.892,1.74-2.26,4.555
				c-0.714,0.414-1.103,0.639-1.103,0.639s0.221,0.133,0.617,0.365c-3.824,7.932-10.575,22.67-13.141,32.932
				c0,0,2.193-5.535,5.24-12.369c-9.284,22.857-21.126,52.082-21.126,52.082s31.159,78.812,34.215,79.424
				c3.054,0.611,480.212-38.49,480.822-38.49C21.216,574.24,13.978,534.285,2.49,504.602z M-210.566,431.123
				c4.129,0.781,7.978,1.402,11.585,1.896c-10.821-0.256-22.313-3.01-32.942-10.828
				C-225.236,426.49-218.079,429.705-210.566,431.123z M-144.132,394.705c-0.001,0.023-0.004,0.059-0.006,0.088
				c-0.013-0.066-0.024-0.133-0.037-0.199L-144.132,394.705z"/>
		</g>
	</g>
	<g display="inline">
		<g>
			<defs>
				<polygon id="SVGID_117_" points="356,-159.35 200,-89.232 44,-159.35 44,-507.619 356,-507.619 356,-245.893 				"/>
			</defs>
			<clipPath id="SVGID_4_">
				<use xlink:href="#SVGID_117_"  overflow="visible"/>
			</clipPath>
			<g clip-path="url(#SVGID_4_)">
				<path fill="#FFFFFF" d="M465.052-107.2c0,0-100.229-72.423-110.572-78.242c-10.348-5.818-32.98-18.106-34.92-18.106
					s-40.861-14.557-44.096-16.495c-3.232-1.94-12.377-11.092-12.377-11.092s-26.016,80.031-82.92,112.47c0,0-20.113-0.688-29.167-5
					c0,0-9.048-33.324-7.756-48.842c1.294-15.521-0.214-24.787-0.214-25.65s-3.232-9.271-3.232-9.271s-3.449,7.332-4.742,8.84
					c-1.295,1.508-5.176,2.154-5.176,2.154s-77.31,24.765-82.053,27.781c-4.742,3.016-29.812,11.231-33.693,23.949
					S-2.464-86.076,0.554-66.243c0,0,39.661,43.753,65.097,48.927C80.888-14.219,254.55,29.154,364.179,3.376
					C437.503-13.869,462.546-101.24,465.052-107.2z"/>
			</g>
		</g>
	</g>
	<g display="inline">
		<rect fill="#006948" width="400" height="560"/>
		<g>
			<polygon fill="#FED208" points="399.992,243.093 399.992,42.939 0.008,333.826 0.008,560 			"/>
		</g>
		<g>
			<rect x="55.404" y="31.166" fill="#D3B76E" width="289.191" height="48.5"/>
			<polygon fill="#D3B76E" points="68.398,72.854 29.744,72.854 38.111,55.416 29.744,37.979 81.064,37.979 81.064,50.011 
				55.404,50.011 			"/>
			<polygon fill="#D3B76E" points="331.602,72.854 370.256,72.854 361.889,55.416 370.256,37.979 318.936,37.979 318.936,50.011 
				344.596,50.011 			"/>
			
				<text transform="matrix(1 0 0 1 90.0273 65.5186)" fill="#A08F53" font-family="'Novecentowide-DemiBold'" font-size="27.1191" letter-spacing="5">Sadio Mané</text>
			<g>
				
					<text transform="matrix(1 0 0 1 89.0273 64.5186)" fill="#FFFFFF" font-family="'Novecentowide-DemiBold'" font-size="27.1191" letter-spacing="5">Sadio Mané</text>
			</g>
			<rect x="49.207" y="37.979" fill="#A08F53" width="6.197" height="34.876"/>
			<rect x="344.596" y="37.979" fill="#A08F53" width="6.197" height="34.876"/>
		</g>
		<g>
			<polygon fill="#B32527" points="39.5,423.526 39.5,141.178 360.5,141.178 360.5,423.526 200,495.674 			"/>
			<g>
				<path fill="#010101" d="M356,145.678v274.938L200,490.74L44,420.615V145.678H356 M365,136.678h-9H44h-9v9v274.938v5.822
					l5.311,2.387l156,70.125l3.689,1.658l3.689-1.658l156-70.125l5.311-2.387v-5.822V145.678V136.678L365,136.678z"/>
			</g>
		</g>
		<g>
			<path fill="#D3B76E" d="M365,136.678v9v274.938v5.801L200,500.24L35,426.406v-5.791V145.678v-9h9h312H365 M372,129.678h-7h-9H44
				h-9h-7v7v9v274.938v5.791v4.536l4.141,1.854l165,73.834l2.859,1.279l2.858-1.279l165-73.824l4.142-1.853v-4.537v-5.801V145.678
				v-9V129.678L372,129.678z"/>
		</g>
		<g>
			<defs>
				<polygon id="SVGID_175_" points="356,420.615 200,490.74 44,420.615 44,145.678 356,145.678 				"/>
			</defs>
			<clipPath id="SVGID_6_">
				<use xlink:href="#SVGID_175_"  overflow="visible"/>
			</clipPath>
			<g clip-path="url(#SVGID_6_)">
				<path fill="#0464A9" d="M81.537,492.157c0,0,16.112-15.112,21.021-16.875c0,0-12.749,6.13-13.553,6.331
					c-0.806,0.201,11.483-9.171,18.522-11.259c-7.054,1.816-10.627,2.86-16.879,5.953c0,0,8.763-6.435,10.004-6.352
					c-2.418,0.263-3.617,0.415-5.966,0.786c0,0,16.312-6.978,19.661-7.57c0,0-14.589,2.668-15.684,2.669
					c-0.955,0.002,9.144-4.276,9.144-4.276c-4.147,0.349-6.247,0.549-10.341,1.093c3.668-1.249,5.569-1.789,9.348-2.796
					c-2.531,0.055-3.804,0.093-6.336,0.198c0,0,18.439-5.245,22.126-6.408c-4.971,0.651-7.724,0.996-13.137,1.764
					c9.018-2.784,18.077-5.698,27.425-7.167c-8.6,0.178-13.206,1.136-23.882,2.914c5.378-1.438,8.036-2.286,12.824-3.43
					c-2.658-0.625-4.051-0.835-6.922-1.286c4.337-1.044,6.344-1.478,10.244-2.282c-2.884-0.422-4.368-0.576-7.511-0.662
					c0,0,15.02-3.096,17.189-2.851c-3.77-0.868-5.666-1.257-9.712-1.685c0,0,12.364-1.414,14.712-0.77
					c-4.173-1.482-6.227-2.216-10.594-3.284c0,0,11.316,0.104,14.298,0.781c-5.417-2.604-7.997-3.972-13.623-5.967
					c2.5,0.107,3.711,0.246,6.108,0.655c-1.91-1.619-2.864-2.447-4.81-4.08c0,0,9.129,3.195,10.497,3.52
					c-3.169-2.535-4.723-3.852-7.929-6.349c2.271,0.563,3.38,0.927,5.587,1.775c-1.913-2.499-2.859-3.805-4.771-6.448
					c0,0,8.011,4.776,10.26,6.338c-2.037-2.658-3.031-4.053-5.023-6.883c0,0,10.449,7.342,12.111,9.164
					c-3.194-3.904-4.698-5.999-7.696-10.188c0,0,9.272,9.379,10.431,10.866c-3.585-4.696-5.243-7.259-8.527-12.379
					c0,0,8.508,8.974,9.447,10.284c-5.053-7.354-7.292-11.393-11.873-18.963c3.787,5.012,5.649,7.748,9.619,13.365
					c-1.764-3.189-2.617-4.834-4.301-8.127c3.369,3.594,5.05,5.683,8.588,10.367c-2.476-4.344-3.656-6.536-5.974-10.812
					c3.687,3.603,5.521,5.901,9.432,11.056c-0.503-2.347-13.482-22.658-13.482-22.658s-7.11-0.151-7.79,1.158
					c-6.275,12.083-15.536,28.596-26.253,40.271c-10.147,11.056-16.771,11.935-16.771,11.935
					c-10.889,10.809-16.721,25.91-20.358,40.561"/>
			</g>
			<g clip-path="url(#SVGID_6_)">
				<path fill="#85191B" d="M331.723,172.146c0.07,0.259,0.128,0.474,0.176,0.654C331.849,172.611,331.789,172.392,331.723,172.146z
					"/>
				<path fill="#85191B" d="M331.577,171.607c0.052,0.189,0.101,0.37,0.146,0.538C331.679,171.984,331.63,171.801,331.577,171.607z"
					/>
				<path fill="#85191B" d="M331.898,172.8c0.007,0.022,0.012,0.044,0.019,0.065C331.911,172.844,331.905,172.822,331.898,172.8z"/>
				<path fill="#85191B" d="M331.917,172.865C332.167,173.794,332.123,173.633,331.917,172.865L331.917,172.865z"/>
				<path fill="#85191B" d="M334.409,212.791C334.423,212.785,334.425,212.785,334.409,212.791L334.409,212.791z"/>
			</g>
			<path clip-path="url(#SVGID_6_)" fill="#85191B" d="M384.579,479.482c-6.716-4.908-19.32-13.524-34.285-23.412
				c-22.115-14.611-37.122-20.931-37.122-20.931s-43.837-18.956-55.685-25.276c-8.604-4.588-14.273-4.593-16.743-4.253l1.189-27.051
				c5.779-6.041,15.212-17.274,20.687-31.094c8.295-20.932,15.008-51.734,14.613-59.238c-0.396-7.505-2.37-20.932,0-28.436
				c2.369-7.503,1.579-17.377,0.395-22.511c0,0,0.987-20.931-1.777-29.619c-2.025-6.366-3.536-17.401-16.93-31.854
				c-2.962-6.429-8.679-13.981-10.503-15.805c-2.073-2.074-3.556-6.812-4.739-9.775c-1.186-2.961-4.739-5.034-7.405-7.404
				c-2.664-2.369-4.738-9.182-5.923-11.847s-4.738-7.7-7.701-9.774c-2.961-2.072-3.555-2.666-5.33-5.33
				c-1.777-2.666-9.182-4.443-11.551-5.332c-2.37-0.889-5.035-4.738-7.701-6.812c-2.666-2.072-5.627,0.297-8.59,0.889
				c-2.962,0.593-5.33-1.48-9.478-2.369c-4.146-0.889-9.182,6.22-11.847,6.22c-2.666,0-4.442-0.593-7.404,0
				c-2.963,0.593-4.74,3.851-9.775,2.665c-5.033-1.184-11.551,3.555-14.513,6.812c-2.961,3.258-42.944,38.504-42.944,38.504
				c-31.429,36.033-19.487,82.716-17.223,90.415c-0.455-0.097-0.916-0.181-1.395-0.236c-8.289-0.964-15.008,6.714-11.191,23.696
				c0,0,2.766,11.188,3.029,15.401s6.841,21.744,19.22,25.803c0.741,0.243,1.452,0.397,2.146,0.515l2.935,67.488
				c-0.198,0.222-0.41,0.464-0.629,0.719c-2.071,0.969-5.353,2.928-7.894,6.416c-5.024,3.752-12.378,10.129-18.541,12.931
				c-8.689,3.948-15.008,7.898-24.092,11.058c-9.084,3.16-29.619,10.663-51.341,16.982c-15.052,4.379-25.548,10.841-30.576,14.397
				c-26.29,14.537-45.509,54.099-45.509,54.099l15.404,18.365c0,0-13.627,63.393,1.185,2.37c2.843-11.713,7.13-21.454,12.196-29.561
				c1.615,20.541,6.553,42.92,6.553,42.92l43.54,39.689c0,0,330.921-8.401,366.069-23.407
				c35.148-15.007,45.028-54.488,45.028-54.488S394.915,486.652,384.579,479.482z M241.927,411.761
				c-0.066-0.249-0.132-0.496-0.213-0.754c0.041-0.002,0.082-0.004,0.126-0.005C241.87,411.247,241.899,411.501,241.927,411.761z"/>
		</g>
		<g>
			<defs>
				<polygon id="SVGID_177_" points="356,420.613 200,490.73 44,420.613 44,72.34 356,72.34 356,334.07 				"/>
			</defs>
			<clipPath id="SVGID_8_">
				<use xlink:href="#SVGID_177_"  overflow="visible"/>
			</clipPath>
			<g clip-path="url(#SVGID_8_)">
				<path fill="#574137" d="M281.932,434.02c0.884-0.6-5.458-60.753-3.173-63.696c2.285-2.944,19.463-18.345,28.052-42.93
					c8.591-24.582,12.737-41.761,11.256-55.979c-1.482-14.216,0.592-21.621,0.888-23.989c0.296-2.37,3.258-16.883,0.296-22.511
					c-2.961-5.627,0,0,0,0s5.319-27.176-12.439-53.016c-11.978-17.429-21.028-29.026-29.617-31.69
					c-8.589-2.666-114.03-29.915-133.874,10.365c-19.845,40.281-16.29,62.494-15.994,63.68c0.296,1.184-7.699,22.213-7.699,22.213
					s-13.846-3.973-13.583,14.72c0,0,1.976,11.058,2.37,13.429c0.395,2.369,1.711,11.978,2.633,13.952s5.661,14.086,11.058,16.851
					c5.397,2.765,10.796,5.002,10.796,5.002l2.105,101.103C135.005,401.522,206.516,485.077,281.932,434.02z"/>
				<path fill="#FFFFFF" d="M199.114,243.025c0,0,13.165-9.676,21.26-8.097c8.097,1.579,13.165,10.071,13.165,10.071
					S213.857,251.779,199.114,243.025"/>
				<path fill="#FFFFFF" d="M274.282,249.344c0,0,8.294-9.083,17.97-7.569s12.637,8.885,12.703,9.215
					c0.066,0.329-1.581,1.975-1.581,1.975S296.727,258.822,274.282,249.344"/>
				<path fill="#473631" d="M149.179,302.156c0,0-2.369,69.316,42.657,97.754c33.602,21.223,40.88,15.996,42.657,14.812
					c1.777-1.186,18.957-28.438,24.883-31.993c5.924-3.555,5.924-7.109,5.924-7.109s-46.211,5.925-60.43,0.593
					s-23.105-14.219-24.883-15.996S153.327,342.443,149.179,302.156z"/>
				<path fill="#473631" d="M227.55,322.8c0,0,19.481-17.771,31.199-17.377c0,0,3.027,0.659,5.266,1.448
					c2.237,0.79,3.291,0.79,4.739,0.526s10.003-3.027,13.427-1.315c3.424,1.711,8.688,4.869,10.269,8.161
					c1.579,3.291,3.894,5.481,1.118,11.585c-0.329,0.724-3.291-1.58-3.291-1.58s-0.592-1.712-8.096-2.896
					c-7.505-1.185-19.614,0-27.382-0.264c-7.768-0.263-15.271,1.581-15.797,1.976s-11.452,2.369-11.452,2.369V322.8"/>
				<path fill="#473631" d="M234.263,285.018c0,0,8.952-7.107,15.27-5.66c6.32,1.448,14.087,9.874,20.67,7.637
					c6.581-2.239,7.503-5.925,8.293-10.138c0,0,0,5.135-1.712,7.898c-1.711,2.765,0,0,0,0s3.029-3.027,5.793-4.213
					c2.766-1.185,7.897,3.817,5.002,9.216c-2.896,5.396,0,0,0,0s-2.501,3.818-5.397,4.081c-2.896,0.263-4.213-0.396-4.213-0.396
					s-5.134-4.08-5.527-3.817c-0.396,0.263-5.662,5.661-12.64,0.658c-6.977-5.002-11.583-0.396-11.583-0.396
					s-2.239,3.95-8.162,2.501C234.131,290.941,234.263,285.018,234.263,285.018"/>
				<path fill="#473631" d="M259.407,270.669c0,0-3.687,11.322,5.791,15.798c0,0-3.948-0.526-4.475-0.658
					C260.197,285.676,253.614,282.254,259.407,270.669z"/>
				<path fill="#473631" d="M274.546,271.591c0,0,4.739,8.688,0.13,13.164c0,0,2.502-1.448,3.029-2.633
					C278.231,280.938,279.942,277.516,274.546,271.591z"/>
				<path fill="#473631" d="M274.81,264.745c0,0,2.632,6.451,4.08,6.978c1.448,0.527,6.452,1.976,8.162,3.817
					c0,0-3.555-3.949-6.582-5.396C277.998,268.961,274.81,264.745,274.81,264.745z"/>
				<path fill="#473631" d="M278.1,220.514c0,0-8.029,8.557-4.476,14.481c0,0-3.688,5.792-2.633,14.085c0,0-0.132-5.661,6.056-8.556
					c0,0-3.687,2.765-4.081,6.449c0,0,2.896-2.633,4.081-2.896c0,0-4.081,4.082-4.606,5.661c0,0,4.431,4.472,14.699,3.945
					c0,0-9.435-1.707-12.857-4.34c0,0,9.479-10.005,18.562-7.899c9.083,2.107,11.848,7.241,11.978,8.689
					c0,0-3.158,5.002-7.239,4.739c0,0,7.239,0.131,10.662-3.687c0,0-2.501-10.531-15.4-11.98c0,0,10.926-3.158,17.376,12.901
					c0,0,0.526-5.134-0.264-6.845c-0.789-1.711-8.425-11.453-25.802-7.109c0,0,6.845-1.842,7.504-1.711c0,0,0.658-1.316,1.186-1.316
					c0,0,12.11-0.79,19.351,11.19c0,0-2.37-12.376-18.3-14.35c0,0,8.558-6.977,15.667-4.213c0,0-1.119-0.725-1.515-0.789
					c0,0,2.766-0.132,4.477,2.829l-0.789-1.776c0-0.197,1.776,1.579,2.303,3.291c0,0-0.196-1.438-0.196-1.646
					c0-0.197,1.315,2.238,1.578,3.094c0.264,0.855,0.197,0.395,0.197,0.395l-0.264-2.173c0,0,1.317,2.962,1.579,5.069
					c0,0,1.449-10.4-10.661-17.113c0,0,1.579,1.513,2.237,2.896c0,0-10.926-7.964-28.236,0.132c0,0,2.566-1.908,3.356-2.237
					c0,0-5.661,0.723-7.175,5.792C276.454,225.517,276.125,222.883,278.1,220.514z"/>
				<g>
					<path fill="#473631" d="M215.372,247.435c0,0-2.389-0.477-5.785-0.61C211.382,247.066,213.475,247.711,215.372,247.435z"/>
					<path fill="#473631" d="M257.563,236.574c-4.739-2.896-7.108-10.531-7.108-10.531c-12.374-15.008-28.962-14.481-28.962-14.481
						c1.977,0.264,8.557,2.896,8.557,2.896c-19.877-6.45-31.198,0.527-31.198,0.527c0.395-0.527,5.528-2.765,5.528-2.765
						c-3.685,0.921-14.349,6.582-14.349,6.582c1.976-1.844,9.61-5.793,9.61-5.793c-28.04,9.609-27.251,31.331-27.251,31.331
						c7.504,2.765,22.379,0.526,22.379,0.526c5.533,1.331,10.955,1.805,14.817,1.957c-5.927-0.799-10.735-3.668-10.735-3.668
						c1.58-2.369,15.007-8.82,22.773-8.03c7.768,0.789,10.927,10.531,10.795,11.321s3.555,1.58,3.555,1.58
						c-1.316,4.476-13.297,11.585-13.297,11.585c8.03-1.976,18.562-10.138,18.562-10.138c-0.79,4.082-4.345,11.321-4.345,11.321
						c3.817-1.446,19.352-10.137,19.221-12.11C255.984,246.71,257.563,236.574,257.563,236.574z M217.445,229.038
						c2.024-0.297,6.664,1.826,6.664,1.826c-4.739-1.876-11.206-0.395-11.206-0.395S215.423,229.334,217.445,229.038z
						 M211.917,234.862c2.172-0.986,5.775-1.975,5.775-1.975l0.248-1.185c1.826-0.493,4.688,0.1,4.984,0.148
						c0.296,0.05,0.198,1.234,0.198,1.234c0.44,0.109,2.275,1.204,3.186,1.757c0.177,0.1,0.349,0.204,0.516,0.316
						c0,0-0.203-0.127-0.516-0.316C220.899,231.808,211.917,234.862,211.917,234.862z M236.155,245.229
						c-0.049-1.086-3.472-4.88-2.961-4.642c0.839,0.396,1.479,0.841,1.728,0.792c0.245-0.05,0.838-0.494,0.838-0.494
						c0.149-0.889-0.345-3.259-0.345-3.259C237.438,240.639,236.155,245.229,236.155,245.229z"/>
				</g>
				<path fill="#473631" d="M238.476,275.343c0,0,4.739-5.43,12.342-4.937c0,0-3.062-2.37-5.332-2.863
					C245.485,267.543,240.45,272.084,238.476,275.343z"/>
				<path fill="#473631" d="M232.552,329.25c0,0,13.033,12.375,20.799,14.745c0,0-13.033,4.738-20.404,14.611
					c0,0,17.641-14.218,31.199-11.979c13.56,2.238,17.245,6.318,19.352,10.4c0,0-1.054-6.057-8.293-10.005
					c0,0,3.291-0.922,4.871-3.291l7.897-8.426c0,0-7.239,7.241-10.795,7.372c-3.554,0.132-12.9,0.658-18.692-0.921
					C252.693,340.177,232.552,329.25,232.552,329.25"/>
				<path fill="#473631" d="M295.557,349.607c0,0,11.552-42.058,10.366-58.349c0,0,10.366-13.623,11.255-24.285
					C317.178,266.974,318.954,312.882,295.557,349.607z"/>
				<path fill="#473631" d="M198.944,319.337c0,0,3.556-25.475-4.145-29.031c-7.703-3.554-32.586-10.662-38.511-17.772
					c0,0-4.146,39.101,4.147,51.544c8.294,12.439,34.955,30.214,53.913,32.584C214.35,356.661,197.761,345.997,198.944,319.337z"/>
				<path fill="#473631" d="M114.995,246.447c5.728-3.79,14.613,9.083,14.613,9.083s-15.798-0.526-17.773,13.954
					C111.835,269.484,105.647,252.635,114.995,246.447z"/>
				<path fill="#473631" d="M133.556,262.902c0,0-11.847-5.135-14.349,6.715c0,0-0.526,8.95,4.081,9.477
					c4.607,0.527,6.056,1.976,7.372,2.635c1.316,0.656,2.765,1.447,3.555,0.263c0.79-1.186-0.526-3.424-0.79-4.213
					C133.162,276.988,129.871,270.538,133.556,262.902z"/>
				<path fill="#473631" d="M138.954,293.115c0,0,0.395-2.766-4.344-1.975c-4.739,0.79-8.097,0.394-8.097,0.394
					S131.252,297.063,138.954,293.115z"/>
				<path fill="#473631" d="M260.328,295.023c0,0,0.922,8.162,1.843,8.688c0.921,0.525,4.74,1.711,6.188,1.448
					c1.448-0.264,4.346-1.711,4.346-1.711s-0.66-7.241-1.713-9.083c0,0-0.264,4.343-0.658,5.265c0,0-4.213,2.105-6.846,0.789
					L260.328,295.023z"/>
				<path fill="#473631" d="M172.345,220.474c0,0,10.367-11.552,18.66-13.329c8.293-1.776,29.618-3.258,29.618-3.258
					s-21.917-3.554-31.396,0C179.75,207.441,172.345,220.474,172.345,220.474z"/>
				<path fill="#473631" d="M292.595,210.699c0.889,0.296,11.848,0.592,15.401,2.962c3.554,2.369,9.773,8.589,11.254,11.254
					c1.481,2.666,0.298-5.923,0.298-5.923s-7.701-8.293-12.144-8.885C302.962,209.515,292.595,210.699,292.595,210.699z"/>
				<path fill="#473631" d="M144.505,293.63c0,0,2.961,11.847-3.852,15.993c0,0,2.962-2.073,2.075-7.699c0,0-0.89,5.034-4.444,6.811
					l2.369,97.148l-5.254-6.336l-3.038-98.809C132.361,300.738,141.247,299.257,144.505,293.63"/>
				<polygon fill="#473631" points="273.64,373.598 279.266,436.98 281.932,434.02 280.748,368.859 				"/>
				<path fill="#473631" d="M204.116,247.5c0.296,0.198,15.502,2.469,26.462,0.493c0,0-5.529,4.543-17.872,7.801
					c0,0,9.479-3.356,12.44-5.331c0,0-8.194,2.172-15.303,2.862c0,0,6.812-1.283,8.589-2.37c0,0-7.108,1.581-8.393,1.284
					C208.758,251.943,204.116,247.5,204.116,247.5z"/>
				<path fill="#473631" d="M280.437,254.018c0,0,4.739,4.442,11.65,6.613c0,0-6.418-3.355-8.688-5.034
					c0,0,7.011,3.554,10.563,4.541c0,0-7.293-3.344-7.699-3.751c-0.298-0.296,11.354,5.429,13.723,4.146
					c2.37-1.283,4.443-4.64,4.443-4.64s-1.087,0.987-5.627,0.79C294.259,256.484,280.437,254.018,280.437,254.018z"/>
				<path fill="#473631" d="M213.792,311.281c0,0-9.083,15.6-7.504,21.72c1.581,6.122,12.243,15.996,16.785,17.772
					c0,0-11.058-12.243-8.293-16.191c2.764-3.949,5.727-8.096,4.739-8.491C218.531,325.696,213.398,324.511,213.792,311.281z"/>
				<path fill="#473631" d="M217.148,285.018c0,0-29.224,3.159-46.6-3.948c0,0,19.745,10.268,24.484,11.058
					S217.148,285.018,217.148,285.018z"/>
				<path fill="#473631" d="M284.598,220.176c0,0-7.404,6.812-14.513,6.812c-7.109,0-21.621-3.85-24.584-5.923
					c-2.96-2.073,6.518,11.255,6.518,11.255s5.034,5.627,6.516,5.627c1.48,0,18.363,2.073,19.251-1.776"/>
				<path fill="#473631" d="M135.598,366.374c0,0-6.517,6.318-6.912,10.86c-0.396,4.541,2.962,15.994,3.159,16.587
					c0.198,0.592,3.555,5.726,3.555,5.726L135.598,366.374"/>
				<path fill="#FFFFFF" d="M445.424,480.52c0,0-51.832-37.022-70.491-46.5c-18.659-9.479-31.69-15.401-31.69-15.401
					s-42.946-18.363-49.462-19.548c-6.518-1.186-8.59-1.778-8.59-1.778s8.59,31.691-32.58,41.762s-87.373,3.555-105.145-22.213
					c-17.771-25.769-20.755-37.041-20.755-37.041s-43.812,21.937-64.544,27.563c-20.733,5.626-62.791,25.175-74.047,36.726
					c-11.254,11.552,2.666,74.637,2.666,74.637l43.54,39.689c0,0,330.921-8.401,366.069-23.407
					C435.544,520.001,445.424,480.52,445.424,480.52z"/>
				<path fill="#27AA8F" d="M281.918,415.146c0,0-14.81,22.116-47.392,22.906s-79.358-7.292-101.276-42.537l-6.539-15.716
					c0,0-14.429,27.587,21.644,53.33c21.009,14.993,108.47,37.885,135.932-6.333c0,0,8.787-13.329,4.345-28.436l-4.626-3.143
					C284.005,395.219,287.53,407.232,281.918,415.146z"/>
				<path fill="#27AA8F" d="M62.167,407.363c0,0-21.406,20.392-21.406,29.278c0,0-53.912,7.702-68.724,68.725
					s-1.185-2.37-1.185-2.37l-15.404-18.365c0,0,20.143-41.472,47.396-55.098C30.097,415.906,62.167,407.363,62.167,407.363"/>
				<path fill="#B0B8BC" d="M54.045,550.41c0-1.186-16.299-107.478-13.284-113.769c3.016-6.289,54.751-26.431,72.524-30.775
					c0,0-59.636,22.116-69.904,31.989L54.045,550.41z"/>
				<path fill="#B0B8BC" d="M347.081,450.099c10.081,8.207,46.215,30.125,55.396,39.011c8.381,8.109,7.001,26.546,7.001,26.546
					s-0.396-24.485-7.108-31.199C395.656,477.743,347.081,450.099,347.081,450.099z"/>
				<path fill="#B0B8BC" d="M189.504,452.469c1.976,1.183,34.359,9.083,50.946,7.107c16.587-1.975,36.333-16.981,36.333-16.981
					s-17.991,17.739-33.568,18.561C206.824,463.075,189.504,452.469,189.504,452.469z"/>
				<path fill="#B0B8BC" d="M319.843,421.876c1.186,0,10.07-2.073,14.809,3.851c4.739,5.923,15.105,14.216,15.105,14.216
					s-13.328-10.069-17.474-13.032C328.137,423.95,319.843,421.876,319.843,421.876z"/>
				<path fill="#B0B8BC" d="M296.444,407.066c0,0-1.776,16.884-7.996,23.99C288.448,431.057,299.11,425.43,296.444,407.066z"/>
				<path fill="#010101" d="M281.918,147.188c0,0,30.606,23.499,36.134,53.118c1.958,10.482-0.196,21.523-0.196,21.523
					s-3.554-3.159-5.133-4.739c0,0,7.897,9.479,6.317,19.747c-1.579,10.268-3.949,24.484-2.763,34.358
					c1.184,9.873-5.136,51.735-18.563,72.666c0,0,1.734-9.938,2.371-11.848c0.395-1.185-4.43,18.48-10.748,25.59
					c-6.32,7.108-12.159,11.139-12.159,11.139s-32.778-7.504-49.761-0.79c-16.98,6.714-50.945-11.848-58.845-21.326
					c-7.897-9.479-18.167-33.174-18.167-40.679c0,0,1.186,31.991,20.537,51.343c19.352,19.351,61.609,42.651,62.794,42.651
					c1.186,0,20.536-18.167,22.511-18.957c0,0,15.797-1.974,23.695-9.083c0,0,17.377-15.007,25.67-35.938
					c8.295-20.932,15.008-51.734,14.613-59.238c-0.396-7.505-2.37-20.932,0-28.436c2.369-7.503,1.579-17.377,0.395-22.511
					c0,0,0.987-20.931-1.777-29.619C316.079,187.472,314.302,170.095,281.918,147.188z"/>
				<path fill="#010101" d="M224.851,323.326c0,0,21.983-20.338,35.609-18.956c0,0,5.133,2.105,9.083,1.315
					c3.95-0.789,9.281-1.907,13.033-0.525c3.751,1.382,17.509,9.872,11.189,21.918l-1.316-1.053c0,0,8.03-11.979-10.531-19.681
					c0,0-4.576-0.988-10.006,0.395c-4.131,1.052-6.055,0.395-11.584-1.184c0,0-13.757-0.199-33.504,17.969L224.851,323.326z"/>
				<path fill="#010101" d="M232.552,329.25c0,0,14.771,9.596,20.733,11.849c8.886,3.355,22.313,3.554,26.263,1.579
					S291,332.015,291,332.015s-8.095,8.887-12.44,9.479c-4.344,0.593-18.955,0.593-25.274-2.37
					C246.968,336.161,232.552,329.25,232.552,329.25z"/>
				<path fill="#010101" d="M293.173,326.288c0,0-14.02-3.949-17.377-2.962c-3.355,0.988-10.861,0.396-10.861,0.396
					s0.594,2.765,0.198,4.146c0,0-0.987-3.357-2.962-5.332l-0.098,0.79c0,0-19.154-3.751-32.878,3.555c0,0-5.529,0.592-6.22-0.988
					c-0.691-1.578,14.02-13.031,19.745-14.808c0,0-7.503,4.343-12.735,11.847c0,0,17.573-10.169,30.605-6.911
					c0,0,8.788,1.579,12.439,0.396C276.685,315.231,291,315.823,293.173,326.288z"/>
				<path fill="#010101" d="M260.197,295.944c-0.198-0.431,0.921,7.636,1.579,8.293c0.658,0.659,4.87,1.582,6.582,1.448
					c1.712-0.13,5.135-1.578,5.135-1.578s-0.527-5.003-2.106-8.163c0,0,0.921,5.792,0.788,6.846c0,0-2.236,1.711-3.554,1.711
					c0,0-4.476,0.263-6.055-1.315C262.566,303.186,260.987,297.656,260.197,295.944z"/>
				<path fill="#010101" d="M274.413,288.112c0,0,7.438-3.291,9.348-6.385c0,0-0.922,1.712-1.185,1.975c0,0,3.356-0.921,4.014,0.461
					c0.659,1.382-1.119,4.344-4.672,4.476C278.363,288.771,275.533,287.914,274.413,288.112z"/>
				<path fill="#010101" d="M241.931,287.783c0,0,2.074-5.431,8.688-4.542c6.615,0.889,9.281,5.035,10.071,6.812
					c0.789,1.778,3.259,2.271,4.738,2.371c0,0-3.061,0.987-5.231-1.482C258.024,288.475,246.474,295.089,241.931,287.783z"/>
				<path fill="#010101" d="M268.095,291.634c0,0,9.38-1.777,10.269-12.934C278.363,278.7,279.252,290.152,268.095,291.634z"/>
				<path fill="#010101" d="M277.475,292.719c0,0,2.665,1.383,3.456,1.088c0.79-0.298,8.885-3.457,9.181-10.861
					c0.298-7.405-6.91-9.677-9.872-10.564c0,0,10.17,0.592,10.564,10.959c0,0-0.988,8.688-10.269,11.157
					C280.535,294.497,279.548,294.3,277.475,292.719z"/>
				<path fill="#010101" d="M241.372,273.172c0,0-8.426,5.659-5.793,13.689c2.208,6.736,10.27,5.528,10.27,5.528
					s-5.793,1.581-9.742-2.368C232.156,286.071,234.526,275.935,241.372,273.172z"/>
				<path fill="#010101" d="M246.638,223.541c0,0-5.661-6.845-14.086-7.503c0,0,4.213,1.053,5.661,2.106
					c0,0-12.508-4.345-18.825-4.213c0,0,3.554,0.921,4.213,1.316c0,0-9.217-2.106-14.35-1.186l1.316,0.264
					c0,0-7.898,0.791-11.584,3.291l2.106-2.369c0,0-6.847,5.134-8.295,5.924l5.135-4.081c0,0-7.441,4.972-8.029,5.266
					c-0.526,0.263,4.869-4.607,4.869-4.607s-13.163,9.479-14.875,11.848c0,0,7.898-5.66,8.294-5.66l-4.344,3.422
					c0,0,6.581-4.343,7.107-4.476l-2.633,2.238c0,0,8.031-5.396,8.689-5.66l-3.951,3.422c0,0,7.637-5.002,8.559-5.134l-2.107,2.106
					c0,0,5.792-2.633,8.821-2.633c0,0-5.925,1.843-6.319,2.238c0,0,4.344-0.922,5.792-0.658l-2.896,0.658
					c0,0,6.714,0.657,10.793,2.369c4.082,1.711,7.11,2.896,12.112,2.896c0,0-5.266-0.79-8.951-2.765c0,0,8.293,3.028,16.85,2.369
					c0,0-3.291-0.131-5.792-1.315C229.919,223.016,242.819,226.043,246.638,223.541z"/>
				<path fill="#010101" d="M316.771,234.271c0,0-0.791-5.134-4.048-7.997c0,0,1.579,1.975,2.368,5.134c0,0-0.888-3.061-3.456-5.232
					c0,0,1.284,2.073,1.68,3.061c0,0-0.889-2.47-4.542-3.949c0,0,1.876,1.283,2.469,2.171c0,0-3.062-2.171-5.827-2.171
					c0,0,2.074,0.592,2.666,1.185c0,0-6.416-1.185-12.735,2.666c0,0,2.172-1.579,2.567-1.579c0,0-2.665,0.986-4.739,2.27
					c-2.074,1.284-8.49,3.259-10.268,3.159c0,0,5.924-1.283,7.504-2.468c0,0-7.604,2.863-12.046,2.172c0,0-2.667-0.789-2.172-4.641
					c0,0-0.099,1.68,1.382,3.357c0,0-2.765-4.049,1.875-8.491c0,0-2.369,2.271-2.172,5.628c0,0,0.396-6.714,9.184-7.701
					c0,0-3.555,0.691-5.234,2.468c0,0,7.109-4.344,15.303-2.961c0,0-2.961,0-3.75,0.396c0,0,6.318-1.186,11.65,1.678
					c0,0-3.753-2.073-6.023-2.469c0,0,3.852,0.1,8.194,2.962c0,0-3.258-2.271-4.936-3.061c0,0,5.824,2.073,8.097,4.146
					c0,0-2.666-2.369-3.457-2.863c0,0,4.641,3.062,5.036,3.654c0,0-0.922-1.646-2.469-3.16
					C308.772,221.337,315.389,225.286,316.771,234.271z"/>
				<path fill="#010101" d="M283.99,235.851c0,0,16.292-6.221,27.054,7.7C311.044,243.551,303.935,229.235,283.99,235.851z"/>
				<path fill="#010101" d="M284.683,239.7c0,0,18.066-7.603,25.176,10.664C309.858,250.364,305.811,231.703,284.683,239.7z"/>
				<path fill="#010101" d="M284.58,253.044c0,0-6.743-1.726-9.673-3.964c0,0,7.668-7.001,15.896-6.517
					c10.07,0.593,13.526,8.392,13.526,8.392s-2.37,3.753-6.517,3.852c0,0,5.332,0.396,7.701-3.357c0,0-0.493-8.589-11.85-10.662
					c0,0-9.477-2.073-20.635,8.786C273.03,249.573,276.353,252.518,284.58,253.044z"/>
				<path fill="#010101" d="M203.326,230.387c0,0,17.51-8.03,31.331,7.24c0,0-3.044-4.245-6.582-6.187c0,0,5.068,2.534,7.109,4.212
					C235.185,235.652,221.099,222.225,203.326,230.387z"/>
				<path fill="#010101" d="M198.457,237.627c0,0,22.642-14.48,33.042-0.395C231.499,237.232,223.47,221.304,198.457,237.627z"/>
				<path fill="#010101" d="M215.24,247.435c0,0-10.466-0.855-14.809-4.542c0,0,15.665-9.742,22.115-6.45s9.214,8.293,9.214,8.293
					s-3.225,2.041-6.515,2.173c0,0,8.228,0.855,10.202-1.515c0,0-3.818-10.268-14.086-11.188
					c-10.269-0.922-21.721,7.108-23.827,9.346C197.535,243.551,205.236,248.355,215.24,247.435z"/>
				<path fill="#010101" d="M133.952,249.737c0,0-4.74-13.295-16.061-14.611c-8.289-0.964-15.008,6.714-11.191,23.696
					c0,0,2.766,11.188,3.029,15.401s6.841,21.744,19.22,25.803c8.03,2.632,13.427-2.765,13.427-2.765s1.448-0.527,2.106-0.527
					c0.396,0,0.79-4.738-2.765-7.898c0,0,1.58,1.843-0.131,6.451c0,0-5.002,5.529-13.164,2.896c0,0-12.639-4.345-17.772-23.563
					c0,0-2.237-13.823-3.027-16.324c-0.79-2.502-4.476-21.589,9.874-21.983C117.497,236.312,126.315,236.179,133.952,249.737z"/>
				<path fill="#010101" d="M128.949,254.477c0.405,0.429-7.899-13.296-16.324-10.662c-8.425,2.633-3.687,34.886,6.715,43.18
					c0,0-13.165-14.086-1.712-27.777c0,0-4.74,4.08-5.66,6.845c0,0-2.766-12.9,2.764-16.981
					C114.731,249.08,119.472,244.473,128.949,254.477z"/>
				<path fill="#010101" d="M125,262.113c0,0,7.635-2.238,9.741,1.054c0,0-3.817,9.872,0.264,15.664c0,0,2.369,6.978-4.345,2.897
					c0,0,3.95,1.183,3.685-0.659c-0.262-1.843-6.712-5.135-1.973-15.402C132.372,265.667,135.927,260.401,125,262.113z"/>
				<path fill="#010101" d="M119.626,236.467c0,0-17.475-52.128,16.883-91.52c0,0,39.983-35.246,42.944-38.504
					c2.962-3.258,9.479-7.996,14.513-6.812c5.035,1.186,6.812-2.072,9.775-2.665c2.962-0.593,4.738,0,7.404,0
					c2.665,0,7.7-7.108,11.847-6.22c4.147,0.889,6.516,2.962,9.478,2.369c2.963-0.592,5.924-2.961,8.59-0.889
					c2.666,2.074,5.331,5.924,7.701,6.812c2.369,0.889,9.773,2.666,11.551,5.332c1.775,2.664,2.369,3.258,5.33,5.33
					c2.963,2.074,6.517,7.109,7.701,9.774s3.259,9.478,5.923,11.847c2.666,2.37,6.22,4.443,7.405,7.404
					c1.184,2.963,2.666,7.701,4.739,9.775c1.966,1.965,8.46,10.588,11.146,17.284c0.146,0.366,0.282,0.726,0.405,1.078
					c2.368,6.812-17.18-24.879-28.139-19.548c-10.958,5.332-11.848,2.666-17.474,1.186c-5.628-1.482-5.035-0.89-11.848-1.482
					c-6.812-0.592-9.181-0.592-14.514-5.33c-5.331-4.739-18.362-10.663-20.14-8.293c-1.776,2.369-20.437,8.589-26.656,7.404
					c-6.22-1.186-38.504,6.516-42.945,29.321c-4.443,22.807,13.108,33.937,13.108,33.937s-16.663,14.638-13.997,35.667
					C140.358,239.726,132.065,234.098,119.626,236.467z"/>
				<polygon fill="#010101" points="131.056,299.631 135.399,399.547 135.005,300.816 				"/>
				<path fill="#010101" d="M285.077,363.609l-2.188,49.759c0,0-2.156,4.873-2.074,3.813c-1.104-18.826-2.566-45.585-2.057-46.858
					C279.548,368.348,285.077,363.609,285.077,363.609z"/>
				<path fill="#010101" d="M235.728,356.124c0,0,8.475-4.362,16.883-7.405c8.037-2.907,23.086-2.685,29.617,6.812
					c0,0-2.368-7.7-15.697-9.479C253.202,344.276,246.687,349.016,235.728,356.124z"/>
				<g>
					<defs>
						<path id="SVGID_179_" d="M199.114,243.025c0,0,13.165-9.676,21.26-8.097c8.097,1.579,13.165,10.071,13.165,10.071
							S213.857,251.779,199.114,243.025"/>
					</defs>
					<clipPath id="SVGID_10_">
						<use xlink:href="#SVGID_179_"  overflow="visible"/>
					</clipPath>
					<circle clip-path="url(#SVGID_10_)" fill="#010101" cx="218.071" cy="239.997" r="6.45"/>
				</g>
				<g>
					<defs>
						<path id="SVGID_181_" d="M274.282,249.344c0,0,8.294-9.083,17.97-7.569s12.637,8.885,12.703,9.215
							c0.066,0.329-1.581,1.975-1.581,1.975S296.727,258.822,274.282,249.344"/>
					</defs>
					<clipPath id="SVGID_12_">
						<use xlink:href="#SVGID_181_"  overflow="visible"/>
					</clipPath>
					<ellipse clip-path="url(#SVGID_12_)" fill="#010101" cx="294.95" cy="246.842" rx="6.188" ry="6.451"/>
				</g>
				<path fill="#010101" d="M282.313,394.413c0,0,0.161,4.161-0.1,9.577c-0.072,1.501,1.128,2.828,0.701,4.52
					c-2.566,10.152-12.847,22.815-46.594,27.286c0,0-96.557,2.37-107.636-57.575c0,0,3.949-9.873,6.714-10.268
					c0,0-20.536,5.924-11.058,31.594c0,0,0-12.242,2.369-16.192c0,0,7.108,54.896,109.79,56.475c0,0,41.862-0.789,48.576-32.384
					C285.077,407.445,287.052,401.916,282.313,394.413z"/>
				<path fill="#010101" d="M432.779,472.213c-0.395-1.184-17.376-13.031-39.493-27.645c-22.115-14.611-37.122-20.931-37.122-20.931
					s-43.837-18.956-55.685-25.276c-11.849-6.318-18.166-3.948-18.166-3.948l1.578,5.134c0,0,10.269-0.789,18.166,2.766
					c7.899,3.554,46.207,21.325,57.266,27.248c9.672,5.184,36.728,19.748,39.887,21.723
					C402.37,453.258,432.779,472.213,432.779,472.213z"/>
				<path fill="#010101" d="M-2.43,433.116c0,0,12.242-10.663,33.963-16.981c21.722-6.319,42.257-13.822,51.341-16.982
					c9.084-3.159,15.402-7.109,24.092-11.058c8.688-3.949,19.745-15.007,23.3-15.797c0,0-3.555,5.923-3.555,7.502
					c0,0-12.638,9.479-23.3,15.009c-10.664,5.528-69.113,23.301-79.776,29.619S-7.959,441.41-7.959,441.41L-2.43,433.116z"/>
				<path fill="#010101" d="M135.005,373.877c0,0-5.134,8.096-4.937,13.428l-3.357-8.293c0,0,3.16-8.491,7.899-10.664
					L135.005,373.877z"/>
				<g>
					<g>
						<path fill="#4A2623" d="M218.183,244.681c-2.213,0-4.124-1.28-5.044-3.139c0.388,2.51,2.554,4.433,5.173,4.433
							c2.893,0,5.237-2.343,5.242-5.233C222.836,243.024,220.704,244.681,218.183,244.681z"/>
						<path fill="#4A2623" d="M218.222,243.788c-1.747,0-3.258-1.013-3.982-2.48c0.307,1.983,2.018,3.502,4.086,3.502
							c2.285,0,4.137-1.85,4.138-4.134C221.899,242.479,220.214,243.788,218.222,243.788z"/>
					</g>
				</g>
				<g>
					<g>
						<path fill="#4A2623" d="M295.038,251.354c-2.215,0-4.123-1.281-5.044-3.14c0.389,2.511,2.554,4.435,5.172,4.435
							c2.894,0,5.239-2.344,5.243-5.235C299.693,249.696,297.56,251.354,295.038,251.354z"/>
						<path fill="#4A2623" d="M295.077,250.461c-1.748,0-3.258-1.012-3.982-2.481c0.308,1.982,2.018,3.503,4.086,3.503
							c2.284,0,4.137-1.851,4.139-4.134C298.753,249.151,297.069,250.461,295.077,250.461z"/>
					</g>
				</g>
				<path fill="#37302D" d="M120.655,234.862c0,0-18.825-59.238,22.115-73.193c0,0-12.77,22.38,9.742,42.784
					c0,0-13.691,9.083-14.086,32.253C138.427,236.706,128.949,232.361,120.655,234.862z"/>
				<path fill="#322929" d="M135.399,153.902c0,0,2.369-10.136,8.819-13.295c6.452-3.16,7.109-5.135,7.109-5.135
					s-3.159,1.711-4.08,1.711c0,0,12.374-10.399,13.163-11.584c0,0-1.931,3.109-1.711,4.213c0.131,0.658,4.607-8.162,8.951-10.006
					c4.346-1.842,6.582-4.212,6.582-4.212s-3.554,2.106-4.87,2.37c0,0,5.793-4.74,6.977-6.188c1.185-1.448,7.505-9.479,12.243-9.742
					c0,0-1.711,1.054-2.238,2.37c0,0,4.871-4.212,7.24-3.159c2.37,1.053,5.003,2.896,6.978,2.764c0,0-2.502-1.184-3.817-2.501
					c0,0,2.04-0.428,3.817-1.415c1.778-0.986,7.8-2.666,10.466-1.975c0,0-0.494,1.975-2.074,2.863c0,0,2.863-1.185,4.246-3.456
					c1.383-2.271,7.604-6.614,10.169-5.528c2.567,1.086,6.221,1.875,7.108,1.975c0,0-2.565,2.073-4.738,2.172
					c0,0,4.146-0.099,5.924-1.975c0,0,5.825-2.271,8.591-0.395c2.764,1.876,3.849,6.713,7.995,8.885c0,0-1.875-1.678-2.764-4.047
					c0,0,0.493,0.987,3.555,1.975c3.061,0.987,9.676,2.468,11.255,5.727c0,0-1.679,0.986-3.553-0.494c0,0,3.257,3.455,7.207,3.554
					c0,0,5.034,2.765,6.121,8.491c0,0,0-1.668,0-2.172c0-0.296,4.442,4.838,4.54,10.762c0,0-0.889-2.172-1.678-3.159
					c0,0,1.383,3.948-0.986,5.924c0,0,1.283-1.481,0.395-3.949c0,0,0,2.863-1.382,2.073c-1.383-0.79-2.567-1.283-3.061-0.889
					c0,0,0.985,0.297,1.48,1.185c0,0-1.679-1.185-3.95-0.592c0,0-0.395-2.567,1.976-4.146c0,0-1.087,1.382-1.087,2.171
					c0,0,1.679-2.566,3.159-2.764c0,0-3.257-0.987-4.542,0.494c0,0-0.689-1.975-0.196-3.852c0,0-1.481,1.58-1.383,2.863
					c0.099,1.284-1.876,1.975-3.555,1.383c0,0,1.581-0.099,2.173-1.283c0,0-1.877,0.889-2.566-1.186
					c-0.691-2.073-1.778-3.949-3.752-4.344c0,0,1.777,0.889,2.271,2.765c0,0-1.777-2.073-4.345-1.481c0,0,0.963,0.525,1.58,0.987
					c0.396,0.296-2.666,2.271-2.766,3.653c0,0-0.888-3.159,0.396-6.022c0,0-2.052,0.888-2.764,0.888
					c-0.298,0,0.394-2.271,1.382-2.863l-1.68,0.593c0,0,2.074-3.356,4.543-3.06c0,0-3.949-1.383-5.924,0.492
					c-1.975,1.877-2.468,1.877-3.752,1.383c0,0,2.469-0.197,2.863-2.073c0,0-1.678,0.987-3.949,1.086s-4.246,1.086-4.542,1.579
					c0,0,2.173-2.369,4.542-2.369c2.37,0,3.555-2.271,3.555-2.271s-2.074,1.58-4.345,1.382c-2.271-0.197-8.294,1.481-10.269,5.529
					c0,0,0.691-4.541,3.851-6.318c0,0,8.688-1.679,11.157-6.221c0,0-5.232,5.232-10.367,4.049
					c-5.134-1.186-13.427-0.197-16.783,2.172c0,0,2.467-2.963,6.021-4.246c0,0-11.156,1.975-14.81,5.924
					c-3.652,3.949-8.293,4.938-10.069,4.938c0,0,5.726-0.988,7.996-4.838c0,0-5.727,4.344-10.762,2.862
					c-5.036-1.481-10.959-1.579-14.118,0.198c0,0,3.751-1.086,5.529-0.297c0,0-9.182,1.086-14.612,6.221c0,0,2.27-1.086,2.961-0.988
					c0,0-6.516,2.271-7.996,5.135c-1.482,2.863-3.555,5.924-6.32,6.418c0,0,3.161-1.283,3.753-4.443c0,0-3.16,4.838-8.887,6.021
					c-5.726,1.186-6.615,4.938-6.615,4.938s2.369-3.061,3.95-3.258c0,0-3.26,2.073-4.543,5.924
					c-1.282,3.851-4.344,5.727-4.344,5.727s2.666-1.975,2.567-5.035c0,0-4.442,0.099-6.417,2.764c0,0,0.789-2.073,1.975-2.665
					c0,0-2.963,2.37-3.949,5.825c-0.988,3.455-2.469,5.134-2.469,5.134s1.58-2.863,0.889-5.035
					C140.04,147.485,136.585,149.953,135.399,153.902z"/>
				<path fill="#F6D280" d="M299.162,162.986c0,0-8.951-10.269-11.453-12.375c-2.501-2.105-2.501-3.686-2.501-3.686
					s-0.102-0.376-0.271-0.927c-0.403-1.321-1.186-3.649-1.836-4.208c0,0,2.239,2.963,2.633,4.74c0,0-1.448-4.345-2.435-5.464
					c-0.986-1.118-1.053-3.291-1.053-3.291s-0.329,0.987-0.066,2.633c0,0-0.79-3.356-0.263-4.278
					c0.525-0.922-0.657-2.106-0.856-2.172c0,0,1.186,0.526,1.415,2.139c0,0,0.659-0.625,1.12-0.395c0,0-0.658-0.099-0.725,0.428
					c0,0,1.578-0.559,1.842,0.461s0.527,1.81,0.89,2.041c0,0-0.329-0.594-0.263-1.252c0,0,1.348,0.758,1.217,2.634
					c0,0,0.032-0.46-0.263-0.757c0,0,0.361,0.559,0.065,1.646c0,0,0.264-0.396,0.328-0.593c0,0,0.396,0.625,0.363,1.514
					c0,0,0.139-0.396,0.099-0.592c-0.034-0.165-0.033,1.053,0.493,1.645c0,0-0.361-0.229-0.56-0.46c0,0,0.429,1.382,0.889,1.448
					s1.186,1.48,1.383,2.83c0,0-0.132-0.855-0.625-1.283c0,0,0.658,1.381,0.428,2.764s0.361,1.613,0.624,1.975
					c0,0-0.821-0.756-0.23-2.237c0,0,0,0.428,0.56,0.69c0.56,0.264,1.515,0.625,1.91,1.284c0,0-0.461-0.493-0.923-0.56
					c0,0,1.383,0.855,1.746,2.6c0,0,0.032-0.691-0.264-1.185c0,0,1.481,1.515,1.776,2.271c0,0-0.625-0.263-0.921-0.296
					c0,0,1.446,0.527,1.58,2.04c0.131,1.514,0.099,1.745,0.559,2.008c0,0-0.46-0.461-0.23-1.842c0,0,0.066,0.986,0.592,1.283
					c0.527,0.296,1.416,1.053,1.58,2.27c0,0-0.263-0.789-0.855-1.25c0,0,0.855,1.218,0.889,2.369c0,0,0.297-0.493,0.297-0.889
					c0,0,0.065,0.988-0.527,1.316c0,0,0.757-0.197,0.855-1.02c0,0,1.087,0.757,1.284,1.744c0,0-0.495-0.133-0.955-0.033
					c0,0,1.481,0.23,2.206,1.844c0,0-0.197-0.626-1.284-0.988c0,0,1.25,0.527,1.284,2.107c0,0-0.396-1.383-1.516-1.712
					c0,0,0.627,0.593,0.758,1.151c0,0-0.526-0.691-0.921-0.724C299.031,162.394,299.162,162.689,299.162,162.986z"/>
				<path fill="#FFFFFF" d="M220.6,238.032c0.075-0.184,0.019-0.438-0.076-0.603c0.033-0.111,0.053-0.229,0.053-0.351
					c0-0.67-0.561-1.229-1.23-1.229c-0.671,0-1.23,0.56-1.23,1.229c0,0.619,0.478,1.143,1.078,1.22
					c0.003,0.007,0.006,0.015,0.01,0.021c-0.003-0.008-0.005-0.014-0.007-0.021l0,0c0.127,0.229,0.37,0.389,0.645,0.389
					c0.277,0,0.52-0.16,0.646-0.389c-0.002,0.007-0.004,0.014-0.008,0.021c0.008-0.015,0.014-0.029,0.02-0.044
					c0.018-0.033,0.031-0.068,0.043-0.104C220.562,238.126,220.581,238.079,220.6,238.032z"/>
				<path fill="#FFFFFF" d="M295.249,243.729c-0.021-0.216-0.07-0.356-0.213-0.522c-0.024-0.028-0.048-0.058-0.071-0.085
					c-0.26-0.303-0.77-0.266-1.035,0c-0.189,0.189-0.261,0.505-0.175,0.764c-1.006,0.304-0.898,2.027,0.32,2.027
					c0.92,0,1.207-0.979,0.862-1.592C295.132,244.184,295.272,243.95,295.249,243.729z"/>
			</g>
		</g>
		<g>
			<path fill="#FFFFFF" d="M200.001,524.574c-15.623,0-28.334-12.711-28.334-28.334c0-15.622,12.711-28.332,28.334-28.332
				c15.622,0,28.332,12.71,28.332,28.332C228.333,511.863,215.623,524.574,200.001,524.574z"/>
			<path fill="#D3B76E" d="M200.001,469.908c14.543,0,26.332,11.789,26.332,26.332c0,14.545-11.789,26.334-26.332,26.334
				c-14.545,0-26.334-11.789-26.334-26.334C173.667,481.697,185.456,469.908,200.001,469.908 M200.001,465.908
				c-16.727,0-30.334,13.607-30.334,30.332c0,16.727,13.607,30.334,30.334,30.334c16.726,0,30.332-13.607,30.332-30.334
				C230.333,479.516,216.727,465.908,200.001,465.908L200.001,465.908z"/>
		</g>
		<g>
			<g>
				<defs>
					<circle id="SVGID_183_" cx="200" cy="496.241" r="23.356"/>
				</defs>
				<clipPath id="SVGID_14_">
					<use xlink:href="#SVGID_183_"  overflow="visible"/>
				</clipPath>
				<polygon clip-path="url(#SVGID_14_)" fill="#006948" points="175.394,472.32 175.394,496.102 175.394,519.598 191.778,519.598 
					191.778,496.102 191.778,472.32 				"/>
				<polygon clip-path="url(#SVGID_14_)" fill="#FED208" points="191.718,472.32 191.718,496.102 191.718,519.598 208.102,519.598 
					208.102,496.102 208.102,472.32 				"/>
				<polygon clip-path="url(#SVGID_14_)" fill="#ED3B27" points="208.041,472.32 208.041,496.102 208.041,519.598 224.425,519.598 
					224.425,496.102 224.425,472.32 				"/>
			</g>
			<polygon fill="#006948" points="201.977,497.378 205.994,494.459 201.028,494.459 199.493,489.736 197.958,494.459 
				192.993,494.459 197.011,497.378 195.476,502.101 199.493,499.182 203.511,502.101 			"/>
		</g>
	</g>
</g>
<g id="Layer_1_copy">
	<g>
		<g>
			<defs>
				<polygon id="SVGID_291_" points="-64,420.615 -220,490.74 -376,420.615 -376,145.678 -64,145.678 				"/>
			</defs>
			<clipPath id="SVGID_16_">
				<use xlink:href="#SVGID_291_"  overflow="visible"/>
			</clipPath>
			<path clip-path="url(#SVGID_16_)" fill="#DAB128" d="M2.49,504.602c-2.885-12.652-7.546-21.395-7.546-21.395
				c-21.497-26.725-129.172-86.045-139.684-91.799c-7.748-46.885,10.292-94.176,13.957-103.115
				c9.88-0.602,18.066-12.441,18.733-14.109c0.916-2.291,3.437-5.728,8.705-20.161c5.271-14.435-0.916-23.599-7.561-25.202
				c-0.543-0.131-1.091-0.189-1.639-0.195c0.057-2.105,0.582-6.764,3.472-14.468c4.124-10.997,2.75-22.224,2.75-22.224
				c-1.833-51.549-30.472-70.336-70.565-86.832s-79.043,9.852-83.396,17.184c-4.354,7.332-19.703,21.994-27.264,33.908
				c-6.102,9.613,0.178,29.961,2.831,37.462c-0.65,4.729-0.748,9.562-0.159,14.622c1.135,9.752,0,17.412-1.833,25.966
				c0,0-4.276,21.841,1.451,43.378c4.229,15.898,4.307,26.037,5.729,32.074c1.832,7.791,2.978,18.559,7.331,23.369l0.908,17.252
				l-12.974,8.256c0,0-9.119,4.609-23.229,11.826c-26.553,12.869-100.738,51.445-135.777,71.916
				c-8.902,4.463-16.236,8.66-18.387,12.047c-0.277,0.318-0.415,0.568-0.396,0.742c0,0-0.892,1.74-2.26,4.555
				c-0.714,0.414-1.103,0.639-1.103,0.639s0.221,0.133,0.617,0.365c-3.824,7.932-10.575,22.67-13.141,32.932
				c0,0,2.193-5.535,5.24-12.369c-9.284,22.857-21.126,52.082-21.126,52.082s31.159,78.812,34.215,79.424
				c3.054,0.611,480.212-38.49,480.822-38.49C21.216,574.24,13.978,534.285,2.49,504.602z M-210.566,431.123
				c4.129,0.781,7.978,1.402,11.585,1.896c-10.821-0.256-22.313-3.01-32.942-10.828
				C-225.236,426.49-218.079,429.705-210.566,431.123z M-144.132,394.705c-0.001,0.023-0.004,0.059-0.006,0.088
				c-0.013-0.066-0.024-0.133-0.037-0.199L-144.132,394.705z"/>
		</g>
	</g>
	<g>
		<g>
			<defs>
				<polygon id="SVGID_311_" points="356,-159.35 200,-89.232 44,-159.35 44,-507.619 356,-507.619 356,-245.893 				"/>
			</defs>
			<clipPath id="SVGID_18_">
				<use xlink:href="#SVGID_311_"  overflow="visible"/>
			</clipPath>
			<g clip-path="url(#SVGID_18_)">
				<path fill="#FFFFFF" d="M465.052-107.2c0,0-100.229-72.423-110.572-78.242c-10.348-5.818-32.98-18.106-34.92-18.106
					s-40.861-14.557-44.096-16.495c-3.232-1.94-12.377-11.092-12.377-11.092s-26.016,80.031-82.92,112.47c0,0-20.113-0.688-29.167-5
					c0,0-9.048-33.324-7.756-48.842c1.294-15.521-0.214-24.787-0.214-25.65s-3.232-9.271-3.232-9.271s-3.449,7.332-4.742,8.84
					c-1.295,1.508-5.176,2.154-5.176,2.154s-77.31,24.765-82.053,27.781c-4.742,3.016-29.812,11.231-33.693,23.949
					S-2.464-86.076,0.554-66.243c0,0,39.661,43.753,65.097,48.927C80.888-14.219,254.55,29.154,364.179,3.376
					C437.503-13.869,462.546-101.24,465.052-107.2z"/>
			</g>
		</g>
	</g>
	<g>
		<rect fill="#006948" width="400" height="560"/>
		<g>
			<polygon fill="#FED208" points="399.992,243.093 399.992,42.939 0.008,333.826 0.008,560 			"/>
		</g>
		<g>
			<rect x="55.404" y="31.166" fill="#D3B76E" width="289.191" height="48.5"/>
			<polygon fill="#D3B76E" points="68.398,72.854 29.744,72.854 38.111,55.416 29.744,37.979 81.064,37.979 81.064,50.011 
				55.404,50.011 			"/>
			<polygon fill="#D3B76E" points="331.602,72.854 370.256,72.854 361.889,55.416 370.256,37.979 318.936,37.979 318.936,50.011 
				344.596,50.011 			"/>
			<g>
				<g>
					<path fill="#A08F53" d="M102.034,52.188c-0.435-1.897-2.088-2.874-3.77-2.874c-1.735,0-2.847,0.84-2.847,1.979
						c0,1.519,2.142,2.061,4.528,2.874c2.766,0.949,5.938,2.413,5.938,5.803c0,3.389-2.928,5.803-7.267,5.803
						c-3.985,0-6.725-2.251-7.755-5.694l3.634-0.976c0.406,1.707,1.925,3.308,4.284,3.308c2.033,0,3.091-1.003,3.091-2.278
						c0-1.925-2.576-2.386-5.261-3.334c-2.25-0.814-5.07-1.98-5.07-5.288c0-2.956,2.929-5.478,6.941-5.478
						c3.553,0,6.372,2.17,7.186,5.152L102.034,52.188z"/>
					<path fill="#A08F53" d="M125.654,61.76h-8.216l-1.41,3.634h-4.066l7.809-18.98h3.552l7.81,18.98h-4.067L125.654,61.76z
						 M124.353,58.425l-1.87-4.8c-0.407-1.057-0.896-2.629-0.922-2.629h-0.027c-0.027,0-0.516,1.572-0.922,2.629l-1.871,4.8H124.353
						z"/>
					<path fill="#A08F53" d="M146.699,46.413c5.423,0,9.815,3.878,9.815,9.571c0,5.668-4.365,9.409-9.762,9.409h-8.242v-18.98
						H146.699z M146.753,61.869c3.146,0,5.857-2.197,5.857-5.885s-2.712-6.047-5.911-6.047h-4.42v11.932H146.753z"/>
					<path fill="#A08F53" d="M165.006,65.394v-18.98h3.769v18.98H165.006z"/>
					<path fill="#A08F53" d="M187.134,46.033c5.45,0,9.87,4.148,9.87,9.87s-4.42,9.87-9.87,9.87s-9.843-4.148-9.843-9.87
						S181.684,46.033,187.134,46.033z M187.134,62.059c3.498,0,5.938-2.521,5.938-6.155c0-3.661-2.44-6.155-5.938-6.155
						c-3.471,0-5.911,2.494-5.911,6.155C181.223,59.537,183.663,62.059,187.134,62.059z"/>
					<path fill="#A08F53" d="M236.407,46.413v18.98h-3.715v-5.938c0-3.985,0.136-6.725,0.108-6.725h-0.027
						c-0.027,0-1.355,2.332-1.681,2.875l-2.956,5.098h-1.952l-2.955-5.098c-0.353-0.543-1.682-2.875-1.709-2.875h-0.026
						c-0.027,0,0.135,2.739,0.135,6.725v5.938h-3.714v-18.98h3.552l3.932,6.508c1.464,2.413,1.708,3.01,1.735,3.01h0.027
						c0.026,0,0.271-0.597,1.735-3.01l3.958-6.508H236.407z"/>
					<path fill="#A08F53" d="M257.479,61.76h-8.216l-1.41,3.634h-4.066l7.809-18.98h3.552l7.81,18.98h-4.067L257.479,61.76z
						 M256.178,58.425l-1.87-4.8c-0.407-1.057-0.896-2.629-0.922-2.629h-0.027c-0.027,0-0.516,1.572-0.922,2.629l-1.871,4.8H256.178
						z"/>
					<path fill="#A08F53" d="M286.876,46.413v18.98h-3.553l-5.396-7.321c-1.708-2.332-3.796-5.314-3.823-5.314h-0.027
						c-0.027,0,0.027,2.738,0.027,6.508v6.128h-3.769v-18.98h3.552l5.504,7.402c1.302,1.708,3.688,5.098,3.715,5.098h0.027
						c0.027,0-0.027-3.091-0.027-6.29v-6.21H286.876z"/>
					<path fill="#A08F53" d="M310.388,61.869v3.524h-13.584v-18.98h13.422v3.524h-9.653v4.041h7.619v3.308h-7.619v4.583H310.388z
						 M301.792,45.572l-1.111-2.006l6.264-3.363l1.302,2.576L301.792,45.572z"/>
				</g>
				<g>
					<g>
						<path fill="#FFFFFF" d="M101.034,51.188c-0.435-1.897-2.088-2.874-3.77-2.874c-1.735,0-2.847,0.84-2.847,1.979
							c0,1.519,2.142,2.061,4.528,2.874c2.766,0.949,5.938,2.413,5.938,5.803c0,3.389-2.928,5.803-7.267,5.803
							c-3.985,0-6.725-2.251-7.755-5.694l3.634-0.976c0.406,1.707,1.925,3.308,4.284,3.308c2.033,0,3.091-1.003,3.091-2.278
							c0-1.925-2.576-2.386-5.261-3.334c-2.25-0.814-5.07-1.98-5.07-5.288c0-2.956,2.929-5.478,6.941-5.478
							c3.553,0,6.372,2.17,7.186,5.152L101.034,51.188z"/>
						<path fill="#FFFFFF" d="M124.654,60.76h-8.216l-1.41,3.634h-4.066l7.809-18.98h3.552l7.81,18.98h-4.067L124.654,60.76z
							 M123.353,57.425l-1.87-4.8c-0.407-1.057-0.896-2.629-0.922-2.629h-0.027c-0.027,0-0.516,1.572-0.922,2.629l-1.871,4.8
							H123.353z"/>
						<path fill="#FFFFFF" d="M145.699,45.413c5.423,0,9.815,3.878,9.815,9.571c0,5.668-4.365,9.409-9.762,9.409h-8.242v-18.98
							H145.699z M145.753,60.869c3.146,0,5.857-2.197,5.857-5.885s-2.712-6.047-5.911-6.047h-4.42v11.932H145.753z"/>
						<path fill="#FFFFFF" d="M164.006,64.394v-18.98h3.769v18.98H164.006z"/>
						<path fill="#FFFFFF" d="M186.134,45.033c5.45,0,9.87,4.148,9.87,9.87s-4.42,9.87-9.87,9.87s-9.843-4.148-9.843-9.87
							S180.684,45.033,186.134,45.033z M186.134,61.059c3.498,0,5.938-2.521,5.938-6.155c0-3.661-2.44-6.155-5.938-6.155
							c-3.471,0-5.911,2.494-5.911,6.155C180.223,58.537,182.663,61.059,186.134,61.059z"/>
						<path fill="#FFFFFF" d="M235.407,45.413v18.98h-3.715v-5.938c0-3.985,0.136-6.725,0.108-6.725h-0.027
							c-0.027,0-1.355,2.332-1.681,2.875l-2.956,5.098h-1.952l-2.955-5.098c-0.353-0.543-1.682-2.875-1.709-2.875h-0.026
							c-0.027,0,0.135,2.739,0.135,6.725v5.938h-3.714v-18.98h3.552l3.932,6.508c1.464,2.413,1.708,3.01,1.735,3.01h0.027
							c0.026,0,0.271-0.597,1.735-3.01l3.958-6.508H235.407z"/>
						<path fill="#FFFFFF" d="M256.479,60.76h-8.216l-1.41,3.634h-4.066l7.809-18.98h3.552l7.81,18.98h-4.067L256.479,60.76z
							 M255.178,57.425l-1.87-4.8c-0.407-1.057-0.896-2.629-0.922-2.629h-0.027c-0.027,0-0.516,1.572-0.922,2.629l-1.871,4.8
							H255.178z"/>
						<path fill="#FFFFFF" d="M285.876,45.413v18.98h-3.553l-5.396-7.321c-1.708-2.332-3.796-5.314-3.823-5.314h-0.027
							c-0.027,0,0.027,2.738,0.027,6.508v6.128h-3.769v-18.98h3.552l5.504,7.402c1.302,1.708,3.688,5.098,3.715,5.098h0.027
							c0.027,0-0.027-3.091-0.027-6.29v-6.21H285.876z"/>
						<path fill="#FFFFFF" d="M309.388,60.869v3.524h-13.584v-18.98h13.422v3.524h-9.653v4.041h7.619v3.308h-7.619v4.583H309.388z
							 M300.792,44.572l-1.111-2.006l6.264-3.363l1.302,2.576L300.792,44.572z"/>
					</g>
				</g>
			</g>
			<rect x="49.207" y="37.979" fill="#A08F53" width="6.197" height="34.876"/>
			<rect x="344.596" y="37.979" fill="#A08F53" width="6.197" height="34.876"/>
		</g>
		<g>
			<polygon fill="#B32527" points="39.5,423.526 39.5,141.178 360.5,141.178 360.5,423.526 200,495.674 			"/>
			<g>
				<path fill="#010101" d="M356,145.678v274.938L200,490.74L44,420.615V145.678H356 M365,136.678h-9H44h-9v9v274.938v5.822
					l5.311,2.387l156,70.125l3.689,1.658l3.689-1.658l156-70.125l5.311-2.387v-5.822V145.678V136.678L365,136.678z"/>
			</g>
		</g>
		<g>
			<path fill="#D3B76E" d="M365,136.678v9v274.938v5.801L200,500.24L35,426.406v-5.791V145.678v-9h9h312H365 M372,129.678h-7h-9H44
				h-9h-7v7v9v274.938v5.791v4.536l4.141,1.854l165,73.834l2.859,1.279l2.858-1.279l165-73.824l4.142-1.853v-4.537v-5.801V145.678
				v-9V129.678L372,129.678z"/>
		</g>
		<g>
			<defs>
				<polygon id="SVGID_365_" points="356,420.615 200,490.74 44,420.615 44,145.678 356,145.678 				"/>
			</defs>
			<clipPath id="SVGID_20_">
				<use xlink:href="#SVGID_365_"  overflow="visible"/>
			</clipPath>
			<g clip-path="url(#SVGID_20_)">
				<path fill="#0464A9" d="M81.537,492.157c0,0,16.112-15.112,21.021-16.875c0,0-12.749,6.13-13.553,6.331
					c-0.806,0.201,11.483-9.171,18.522-11.259c-7.054,1.816-10.627,2.86-16.879,5.953c0,0,8.763-6.435,10.004-6.352
					c-2.418,0.263-3.617,0.415-5.966,0.786c0,0,16.312-6.978,19.661-7.57c0,0-14.589,2.668-15.684,2.669
					c-0.955,0.002,9.144-4.276,9.144-4.276c-4.147,0.349-6.247,0.549-10.341,1.093c3.668-1.249,5.569-1.789,9.348-2.796
					c-2.531,0.055-3.804,0.093-6.336,0.198c0,0,18.439-5.245,22.126-6.408c-4.971,0.651-7.724,0.996-13.137,1.764
					c9.018-2.784,18.077-5.698,27.425-7.167c-8.6,0.178-13.206,1.136-23.882,2.914c5.378-1.438,8.036-2.286,12.824-3.43
					c-2.658-0.625-4.051-0.835-6.922-1.286c4.337-1.044,6.344-1.478,10.244-2.282c-2.884-0.422-4.368-0.576-7.511-0.662
					c0,0,15.02-3.096,17.189-2.851c-3.77-0.868-5.666-1.257-9.712-1.685c0,0,12.364-1.414,14.712-0.77
					c-4.173-1.482-6.227-2.216-10.594-3.284c0,0,11.316,0.104,14.298,0.781c-5.417-2.604-7.997-3.972-13.623-5.967
					c2.5,0.107,3.711,0.246,6.108,0.655c-1.91-1.619-2.864-2.447-4.81-4.08c0,0,9.129,3.195,10.497,3.52
					c-3.169-2.535-4.723-3.852-7.929-6.349c2.271,0.563,3.38,0.927,5.587,1.775c-1.913-2.499-2.859-3.805-4.771-6.448
					c0,0,8.011,4.776,10.26,6.338c-2.037-2.658-3.031-4.053-5.023-6.883c0,0,10.449,7.342,12.111,9.164
					c-3.194-3.904-4.698-5.999-7.696-10.188c0,0,9.272,9.379,10.431,10.866c-3.585-4.696-5.243-7.259-8.527-12.379
					c0,0,8.508,8.974,9.447,10.284c-5.053-7.354-7.292-11.393-11.873-18.963c3.787,5.012,5.649,7.748,9.619,13.365
					c-1.764-3.189-2.617-4.834-4.301-8.127c3.369,3.594,5.05,5.683,8.588,10.367c-2.476-4.344-3.656-6.536-5.974-10.812
					c3.687,3.603,5.521,5.901,9.432,11.056c-0.503-2.347-13.482-22.658-13.482-22.658s-7.11-0.151-7.79,1.158
					c-6.275,12.083-15.536,28.596-26.253,40.271c-10.147,11.056-16.771,11.935-16.771,11.935
					c-10.889,10.809-16.721,25.91-20.358,40.561"/>
			</g>
			<g clip-path="url(#SVGID_20_)">
				<path fill="#85191B" d="M331.723,172.146c0.07,0.259,0.128,0.474,0.176,0.654C331.849,172.611,331.789,172.392,331.723,172.146z
					"/>
				<path fill="#85191B" d="M331.577,171.607c0.052,0.189,0.101,0.37,0.146,0.538C331.679,171.984,331.63,171.801,331.577,171.607z"
					/>
				<path fill="#85191B" d="M331.898,172.8c0.007,0.022,0.012,0.044,0.019,0.065C331.911,172.844,331.905,172.822,331.898,172.8z"/>
				<path fill="#85191B" d="M331.917,172.865C332.167,173.794,332.123,173.633,331.917,172.865L331.917,172.865z"/>
				<path fill="#85191B" d="M334.409,212.791C334.423,212.785,334.425,212.785,334.409,212.791L334.409,212.791z"/>
			</g>
			<path clip-path="url(#SVGID_20_)" fill="#85191B" d="M384.579,479.482c-6.716-4.908-19.32-13.524-34.285-23.412
				c-22.115-14.611-37.122-20.931-37.122-20.931s-43.837-18.956-55.685-25.276c-8.604-4.588-14.273-4.593-16.743-4.253l1.189-27.051
				c5.779-6.041,15.212-17.274,20.687-31.094c8.295-20.932,15.008-51.734,14.613-59.238c-0.396-7.505-2.37-20.932,0-28.436
				c2.369-7.503,1.579-17.377,0.395-22.511c0,0,0.987-20.931-1.777-29.619c-2.025-6.366-3.536-17.401-16.93-31.854
				c-2.962-6.429-8.679-13.981-10.503-15.805c-2.073-2.074-3.556-6.812-4.739-9.775c-1.186-2.961-4.739-5.034-7.405-7.404
				c-2.664-2.369-4.738-9.182-5.923-11.847s-4.738-7.7-7.701-9.774c-2.961-2.072-3.555-2.666-5.33-5.33
				c-1.777-2.666-9.182-4.443-11.551-5.332c-2.37-0.889-5.035-4.738-7.701-6.812c-2.666-2.072-5.627,0.297-8.59,0.889
				c-2.962,0.593-5.33-1.48-9.478-2.369c-4.146-0.889-9.182,6.22-11.847,6.22c-2.666,0-4.442-0.593-7.404,0
				c-2.963,0.593-4.74,3.851-9.775,2.665c-5.033-1.184-11.551,3.555-14.513,6.812c-2.961,3.258-42.944,38.504-42.944,38.504
				c-31.429,36.033-19.487,82.716-17.223,90.415c-0.455-0.097-0.916-0.181-1.395-0.236c-8.289-0.964-15.008,6.714-11.191,23.696
				c0,0,2.766,11.188,3.029,15.401s6.841,21.744,19.22,25.803c0.741,0.243,1.452,0.397,2.146,0.515l2.935,67.488
				c-0.198,0.222-0.41,0.464-0.629,0.719c-2.071,0.969-5.353,2.928-7.894,6.416c-5.024,3.752-12.378,10.129-18.541,12.931
				c-8.689,3.948-15.008,7.898-24.092,11.058c-9.084,3.16-29.619,10.663-51.341,16.982c-15.052,4.379-25.548,10.841-30.576,14.397
				c-26.29,14.537-45.509,54.099-45.509,54.099l15.404,18.365c0,0-13.627,63.393,1.185,2.37c2.843-11.713,7.13-21.454,12.196-29.561
				c1.615,20.541,6.553,42.92,6.553,42.92l43.54,39.689c0,0,330.921-8.401,366.069-23.407
				c35.148-15.007,45.028-54.488,45.028-54.488S394.915,486.652,384.579,479.482z M241.927,411.761
				c-0.066-0.249-0.132-0.496-0.213-0.754c0.041-0.002,0.082-0.004,0.126-0.005C241.87,411.247,241.899,411.501,241.927,411.761z"/>
		</g>
		<g>
			<defs>
				<polygon id="SVGID_367_" points="356,420.613 200,490.73 44,420.613 44,72.34 356,72.34 356,334.07 				"/>
			</defs>
			<clipPath id="SVGID_22_">
				<use xlink:href="#SVGID_367_"  overflow="visible"/>
			</clipPath>
			<g clip-path="url(#SVGID_22_)">
				<path fill="#574137" d="M281.932,434.02c0.884-0.6-5.458-60.753-3.173-63.696c2.285-2.944,19.463-18.345,28.052-42.93
					c8.591-24.582,12.737-41.761,11.256-55.979c-1.482-14.216,0.592-21.621,0.888-23.989c0.296-2.37,3.258-16.883,0.296-22.511
					c-2.961-5.627,0,0,0,0s5.319-27.176-12.439-53.016c-11.978-17.429-21.028-29.026-29.617-31.69
					c-8.589-2.666-114.03-29.915-133.874,10.365c-19.845,40.281-16.29,62.494-15.994,63.68c0.296,1.184-7.699,22.213-7.699,22.213
					s-13.846-3.973-13.583,14.72c0,0,1.976,11.058,2.37,13.429c0.395,2.369,1.711,11.978,2.633,13.952s5.661,14.086,11.058,16.851
					c5.397,2.765,10.796,5.002,10.796,5.002l2.105,101.103C135.005,401.522,206.516,485.077,281.932,434.02z"/>
				<path fill="#FFFFFF" d="M199.114,243.025c0,0,13.165-9.676,21.26-8.097c8.097,1.579,13.165,10.071,13.165,10.071
					S213.857,251.779,199.114,243.025"/>
				<path fill="#FFFFFF" d="M274.282,249.344c0,0,8.294-9.083,17.97-7.569s12.637,8.885,12.703,9.215
					c0.066,0.329-1.581,1.975-1.581,1.975S296.727,258.822,274.282,249.344"/>
				<path fill="#473631" d="M149.179,302.156c0,0-2.369,69.316,42.657,97.754c33.602,21.223,40.88,15.996,42.657,14.812
					c1.777-1.186,18.957-28.438,24.883-31.993c5.924-3.555,5.924-7.109,5.924-7.109s-46.211,5.925-60.43,0.593
					s-23.105-14.219-24.883-15.996S153.327,342.443,149.179,302.156z"/>
				<path fill="#473631" d="M227.55,322.8c0,0,19.481-17.771,31.199-17.377c0,0,3.027,0.659,5.266,1.448
					c2.237,0.79,3.291,0.79,4.739,0.526s10.003-3.027,13.427-1.315c3.424,1.711,8.688,4.869,10.269,8.161
					c1.579,3.291,3.894,5.481,1.118,11.585c-0.329,0.724-3.291-1.58-3.291-1.58s-0.592-1.712-8.096-2.896
					c-7.505-1.185-19.614,0-27.382-0.264c-7.768-0.263-15.271,1.581-15.797,1.976s-11.452,2.369-11.452,2.369V322.8"/>
				<path fill="#473631" d="M234.263,285.018c0,0,8.952-7.107,15.27-5.66c6.32,1.448,14.087,9.874,20.67,7.637
					c6.581-2.239,7.503-5.925,8.293-10.138c0,0,0,5.135-1.712,7.898c-1.711,2.765,0,0,0,0s3.029-3.027,5.793-4.213
					c2.766-1.185,7.897,3.817,5.002,9.216c-2.896,5.396,0,0,0,0s-2.501,3.818-5.397,4.081c-2.896,0.263-4.213-0.396-4.213-0.396
					s-5.134-4.08-5.527-3.817c-0.396,0.263-5.662,5.661-12.64,0.658c-6.977-5.002-11.583-0.396-11.583-0.396
					s-2.239,3.95-8.162,2.501C234.131,290.941,234.263,285.018,234.263,285.018"/>
				<path fill="#473631" d="M259.407,270.669c0,0-3.687,11.322,5.791,15.798c0,0-3.948-0.526-4.475-0.658
					C260.197,285.676,253.614,282.254,259.407,270.669z"/>
				<path fill="#473631" d="M274.546,271.591c0,0,4.739,8.688,0.13,13.164c0,0,2.502-1.448,3.029-2.633
					C278.231,280.938,279.942,277.516,274.546,271.591z"/>
				<path fill="#473631" d="M274.81,264.745c0,0,2.632,6.451,4.08,6.978c1.448,0.527,6.452,1.976,8.162,3.817
					c0,0-3.555-3.949-6.582-5.396C277.998,268.961,274.81,264.745,274.81,264.745z"/>
				<path fill="#473631" d="M278.1,220.514c0,0-8.029,8.557-4.476,14.481c0,0-3.688,5.792-2.633,14.085c0,0-0.132-5.661,6.056-8.556
					c0,0-3.687,2.765-4.081,6.449c0,0,2.896-2.633,4.081-2.896c0,0-4.081,4.082-4.606,5.661c0,0,4.431,4.472,14.699,3.945
					c0,0-9.435-1.707-12.857-4.34c0,0,9.479-10.005,18.562-7.899c9.083,2.107,11.848,7.241,11.978,8.689
					c0,0-3.158,5.002-7.239,4.739c0,0,7.239,0.131,10.662-3.687c0,0-2.501-10.531-15.4-11.98c0,0,10.926-3.158,17.376,12.901
					c0,0,0.526-5.134-0.264-6.845c-0.789-1.711-8.425-11.453-25.802-7.109c0,0,6.845-1.842,7.504-1.711c0,0,0.658-1.316,1.186-1.316
					c0,0,12.11-0.79,19.351,11.19c0,0-2.37-12.376-18.3-14.35c0,0,8.558-6.977,15.667-4.213c0,0-1.119-0.725-1.515-0.789
					c0,0,2.766-0.132,4.477,2.829l-0.789-1.776c0-0.197,1.776,1.579,2.303,3.291c0,0-0.196-1.438-0.196-1.646
					c0-0.197,1.315,2.238,1.578,3.094c0.264,0.855,0.197,0.395,0.197,0.395l-0.264-2.173c0,0,1.317,2.962,1.579,5.069
					c0,0,1.449-10.4-10.661-17.113c0,0,1.579,1.513,2.237,2.896c0,0-10.926-7.964-28.236,0.132c0,0,2.566-1.908,3.356-2.237
					c0,0-5.661,0.723-7.175,5.792C276.454,225.517,276.125,222.883,278.1,220.514z"/>
				<g>
					<path fill="#473631" d="M215.372,247.435c0,0-2.389-0.477-5.785-0.61C211.382,247.066,213.475,247.711,215.372,247.435z"/>
					<path fill="#473631" d="M257.563,236.574c-4.739-2.896-7.108-10.531-7.108-10.531c-12.374-15.008-28.962-14.481-28.962-14.481
						c1.977,0.264,8.557,2.896,8.557,2.896c-19.877-6.45-31.198,0.527-31.198,0.527c0.395-0.527,5.528-2.765,5.528-2.765
						c-3.685,0.921-14.349,6.582-14.349,6.582c1.976-1.844,9.61-5.793,9.61-5.793c-28.04,9.609-27.251,31.331-27.251,31.331
						c7.504,2.765,22.379,0.526,22.379,0.526c5.533,1.331,10.955,1.805,14.817,1.957c-5.927-0.799-10.735-3.668-10.735-3.668
						c1.58-2.369,15.007-8.82,22.773-8.03c7.768,0.789,10.927,10.531,10.795,11.321s3.555,1.58,3.555,1.58
						c-1.316,4.476-13.297,11.585-13.297,11.585c8.03-1.976,18.562-10.138,18.562-10.138c-0.79,4.082-4.345,11.321-4.345,11.321
						c3.817-1.446,19.352-10.137,19.221-12.11C255.984,246.71,257.563,236.574,257.563,236.574z M217.445,229.038
						c2.024-0.297,6.664,1.826,6.664,1.826c-4.739-1.876-11.206-0.395-11.206-0.395S215.423,229.334,217.445,229.038z
						 M211.917,234.862c2.172-0.986,5.775-1.975,5.775-1.975l0.248-1.185c1.826-0.493,4.688,0.1,4.984,0.148
						c0.296,0.05,0.198,1.234,0.198,1.234c0.44,0.109,2.275,1.204,3.186,1.757c0.177,0.1,0.349,0.204,0.516,0.316
						c0,0-0.203-0.127-0.516-0.316C220.899,231.808,211.917,234.862,211.917,234.862z M236.155,245.229
						c-0.049-1.086-3.472-4.88-2.961-4.642c0.839,0.396,1.479,0.841,1.728,0.792c0.245-0.05,0.838-0.494,0.838-0.494
						c0.149-0.889-0.345-3.259-0.345-3.259C237.438,240.639,236.155,245.229,236.155,245.229z"/>
				</g>
				<path fill="#473631" d="M238.476,275.343c0,0,4.739-5.43,12.342-4.937c0,0-3.062-2.37-5.332-2.863
					C245.485,267.543,240.45,272.084,238.476,275.343z"/>
				<path fill="#473631" d="M232.552,329.25c0,0,13.033,12.375,20.799,14.745c0,0-13.033,4.738-20.404,14.611
					c0,0,17.641-14.218,31.199-11.979c13.56,2.238,17.245,6.318,19.352,10.4c0,0-1.054-6.057-8.293-10.005
					c0,0,3.291-0.922,4.871-3.291l7.897-8.426c0,0-7.239,7.241-10.795,7.372c-3.554,0.132-12.9,0.658-18.692-0.921
					C252.693,340.177,232.552,329.25,232.552,329.25"/>
				<path fill="#473631" d="M295.557,349.607c0,0,11.552-42.058,10.366-58.349c0,0,10.366-13.623,11.255-24.285
					C317.178,266.974,318.954,312.882,295.557,349.607z"/>
				<path fill="#473631" d="M198.944,319.337c0,0,3.556-25.475-4.145-29.031c-7.703-3.554-32.586-10.662-38.511-17.772
					c0,0-4.146,39.101,4.147,51.544c8.294,12.439,34.955,30.214,53.913,32.584C214.35,356.661,197.761,345.997,198.944,319.337z"/>
				<path fill="#473631" d="M114.995,246.447c5.728-3.79,14.613,9.083,14.613,9.083s-15.798-0.526-17.773,13.954
					C111.835,269.484,105.647,252.635,114.995,246.447z"/>
				<path fill="#473631" d="M133.556,262.902c0,0-11.847-5.135-14.349,6.715c0,0-0.526,8.95,4.081,9.477
					c4.607,0.527,6.056,1.976,7.372,2.635c1.316,0.656,2.765,1.447,3.555,0.263c0.79-1.186-0.526-3.424-0.79-4.213
					C133.162,276.988,129.871,270.538,133.556,262.902z"/>
				<path fill="#473631" d="M138.954,293.115c0,0,0.395-2.766-4.344-1.975c-4.739,0.79-8.097,0.394-8.097,0.394
					S131.252,297.063,138.954,293.115z"/>
				<path fill="#473631" d="M260.328,295.023c0,0,0.922,8.162,1.843,8.688c0.921,0.525,4.74,1.711,6.188,1.448
					c1.448-0.264,4.346-1.711,4.346-1.711s-0.66-7.241-1.713-9.083c0,0-0.264,4.343-0.658,5.265c0,0-4.213,2.105-6.846,0.789
					L260.328,295.023z"/>
				<path fill="#473631" d="M172.345,220.474c0,0,10.367-11.552,18.66-13.329c8.293-1.776,29.618-3.258,29.618-3.258
					s-21.917-3.554-31.396,0C179.75,207.441,172.345,220.474,172.345,220.474z"/>
				<path fill="#473631" d="M292.595,210.699c0.889,0.296,11.848,0.592,15.401,2.962c3.554,2.369,9.773,8.589,11.254,11.254
					c1.481,2.666,0.298-5.923,0.298-5.923s-7.701-8.293-12.144-8.885C302.962,209.515,292.595,210.699,292.595,210.699z"/>
				<path fill="#473631" d="M144.505,293.63c0,0,2.961,11.847-3.852,15.993c0,0,2.962-2.073,2.075-7.699c0,0-0.89,5.034-4.444,6.811
					l2.369,97.148l-5.254-6.336l-3.038-98.809C132.361,300.738,141.247,299.257,144.505,293.63"/>
				<polygon fill="#473631" points="273.64,373.598 279.266,436.98 281.932,434.02 280.748,368.859 				"/>
				<path fill="#473631" d="M204.116,247.5c0.296,0.198,15.502,2.469,26.462,0.493c0,0-5.529,4.543-17.872,7.801
					c0,0,9.479-3.356,12.44-5.331c0,0-8.194,2.172-15.303,2.862c0,0,6.812-1.283,8.589-2.37c0,0-7.108,1.581-8.393,1.284
					C208.758,251.943,204.116,247.5,204.116,247.5z"/>
				<path fill="#473631" d="M280.437,254.018c0,0,4.739,4.442,11.65,6.613c0,0-6.418-3.355-8.688-5.034
					c0,0,7.011,3.554,10.563,4.541c0,0-7.293-3.344-7.699-3.751c-0.298-0.296,11.354,5.429,13.723,4.146
					c2.37-1.283,4.443-4.64,4.443-4.64s-1.087,0.987-5.627,0.79C294.259,256.484,280.437,254.018,280.437,254.018z"/>
				<path fill="#473631" d="M213.792,311.281c0,0-9.083,15.6-7.504,21.72c1.581,6.122,12.243,15.996,16.785,17.772
					c0,0-11.058-12.243-8.293-16.191c2.764-3.949,5.727-8.096,4.739-8.491C218.531,325.696,213.398,324.511,213.792,311.281z"/>
				<path fill="#473631" d="M217.148,285.018c0,0-29.224,3.159-46.6-3.948c0,0,19.745,10.268,24.484,11.058
					S217.148,285.018,217.148,285.018z"/>
				<path fill="#473631" d="M284.598,220.176c0,0-7.404,6.812-14.513,6.812c-7.109,0-21.621-3.85-24.584-5.923
					c-2.96-2.073,6.518,11.255,6.518,11.255s5.034,5.627,6.516,5.627c1.48,0,18.363,2.073,19.251-1.776"/>
				<path fill="#473631" d="M135.598,366.374c0,0-6.517,6.318-6.912,10.86c-0.396,4.541,2.962,15.994,3.159,16.587
					c0.198,0.592,3.555,5.726,3.555,5.726L135.598,366.374"/>
				<path fill="#FFFFFF" d="M445.424,480.52c0,0-51.832-37.022-70.491-46.5c-18.659-9.479-31.69-15.401-31.69-15.401
					s-42.946-18.363-49.462-19.548c-6.518-1.186-8.59-1.778-8.59-1.778s8.59,31.691-32.58,41.762s-87.373,3.555-105.145-22.213
					c-17.771-25.769-20.755-37.041-20.755-37.041s-43.812,21.937-64.544,27.563c-20.733,5.626-62.791,25.175-74.047,36.726
					c-11.254,11.552,2.666,74.637,2.666,74.637l43.54,39.689c0,0,330.921-8.401,366.069-23.407
					C435.544,520.001,445.424,480.52,445.424,480.52z"/>
				<path fill="#27AA8F" d="M281.918,415.146c0,0-14.81,22.116-47.392,22.906s-79.358-7.292-101.276-42.537l-6.539-15.716
					c0,0-14.429,27.587,21.644,53.33c21.009,14.993,108.47,37.885,135.932-6.333c0,0,8.787-13.329,4.345-28.436l-4.626-3.143
					C284.005,395.219,287.53,407.232,281.918,415.146z"/>
				<path fill="#27AA8F" d="M62.167,407.363c0,0-21.406,20.392-21.406,29.278c0,0-53.912,7.702-68.724,68.725
					s-1.185-2.37-1.185-2.37l-15.404-18.365c0,0,20.143-41.472,47.396-55.098C30.097,415.906,62.167,407.363,62.167,407.363"/>
				<path fill="#B0B8BC" d="M54.045,550.41c0-1.186-16.299-107.478-13.284-113.769c3.016-6.289,54.751-26.431,72.524-30.775
					c0,0-59.636,22.116-69.904,31.989L54.045,550.41z"/>
				<path fill="#B0B8BC" d="M347.081,450.099c10.081,8.207,46.215,30.125,55.396,39.011c8.381,8.109,7.001,26.546,7.001,26.546
					s-0.396-24.485-7.108-31.199C395.656,477.743,347.081,450.099,347.081,450.099z"/>
				<path fill="#B0B8BC" d="M189.504,452.469c1.976,1.183,34.359,9.083,50.946,7.107c16.587-1.975,36.333-16.981,36.333-16.981
					s-17.991,17.739-33.568,18.561C206.824,463.075,189.504,452.469,189.504,452.469z"/>
				<path fill="#B0B8BC" d="M319.843,421.876c1.186,0,10.07-2.073,14.809,3.851c4.739,5.923,15.105,14.216,15.105,14.216
					s-13.328-10.069-17.474-13.032C328.137,423.95,319.843,421.876,319.843,421.876z"/>
				<path fill="#B0B8BC" d="M296.444,407.066c0,0-1.776,16.884-7.996,23.99C288.448,431.057,299.11,425.43,296.444,407.066z"/>
				<path fill="#010101" d="M281.918,147.188c0,0,30.606,23.499,36.134,53.118c1.958,10.482-0.196,21.523-0.196,21.523
					s-3.554-3.159-5.133-4.739c0,0,7.897,9.479,6.317,19.747c-1.579,10.268-3.949,24.484-2.763,34.358
					c1.184,9.873-5.136,51.735-18.563,72.666c0,0,1.734-9.938,2.371-11.848c0.395-1.185-4.43,18.48-10.748,25.59
					c-6.32,7.108-12.159,11.139-12.159,11.139s-32.778-7.504-49.761-0.79c-16.98,6.714-50.945-11.848-58.845-21.326
					c-7.897-9.479-18.167-33.174-18.167-40.679c0,0,1.186,31.991,20.537,51.343c19.352,19.351,61.609,42.651,62.794,42.651
					c1.186,0,20.536-18.167,22.511-18.957c0,0,15.797-1.974,23.695-9.083c0,0,17.377-15.007,25.67-35.938
					c8.295-20.932,15.008-51.734,14.613-59.238c-0.396-7.505-2.37-20.932,0-28.436c2.369-7.503,1.579-17.377,0.395-22.511
					c0,0,0.987-20.931-1.777-29.619C316.079,187.472,314.302,170.095,281.918,147.188z"/>
				<path fill="#010101" d="M224.851,323.326c0,0,21.983-20.338,35.609-18.956c0,0,5.133,2.105,9.083,1.315
					c3.95-0.789,9.281-1.907,13.033-0.525c3.751,1.382,17.509,9.872,11.189,21.918l-1.316-1.053c0,0,8.03-11.979-10.531-19.681
					c0,0-4.576-0.988-10.006,0.395c-4.131,1.052-6.055,0.395-11.584-1.184c0,0-13.757-0.199-33.504,17.969L224.851,323.326z"/>
				<path fill="#010101" d="M232.552,329.25c0,0,14.771,9.596,20.733,11.849c8.886,3.355,22.313,3.554,26.263,1.579
					S291,332.015,291,332.015s-8.095,8.887-12.44,9.479c-4.344,0.593-18.955,0.593-25.274-2.37
					C246.968,336.161,232.552,329.25,232.552,329.25z"/>
				<path fill="#010101" d="M293.173,326.288c0,0-14.02-3.949-17.377-2.962c-3.355,0.988-10.861,0.396-10.861,0.396
					s0.594,2.765,0.198,4.146c0,0-0.987-3.357-2.962-5.332l-0.098,0.79c0,0-19.154-3.751-32.878,3.555c0,0-5.529,0.592-6.22-0.988
					c-0.691-1.578,14.02-13.031,19.745-14.808c0,0-7.503,4.343-12.735,11.847c0,0,17.573-10.169,30.605-6.911
					c0,0,8.788,1.579,12.439,0.396C276.685,315.231,291,315.823,293.173,326.288z"/>
				<path fill="#010101" d="M260.197,295.944c-0.198-0.431,0.921,7.636,1.579,8.293c0.658,0.659,4.87,1.582,6.582,1.448
					c1.712-0.13,5.135-1.578,5.135-1.578s-0.527-5.003-2.106-8.163c0,0,0.921,5.792,0.788,6.846c0,0-2.236,1.711-3.554,1.711
					c0,0-4.476,0.263-6.055-1.315C262.566,303.186,260.987,297.656,260.197,295.944z"/>
				<path fill="#010101" d="M274.413,288.112c0,0,7.438-3.291,9.348-6.385c0,0-0.922,1.712-1.185,1.975c0,0,3.356-0.921,4.014,0.461
					c0.659,1.382-1.119,4.344-4.672,4.476C278.363,288.771,275.533,287.914,274.413,288.112z"/>
				<path fill="#010101" d="M241.931,287.783c0,0,2.074-5.431,8.688-4.542c6.615,0.889,9.281,5.035,10.071,6.812
					c0.789,1.778,3.259,2.271,4.738,2.371c0,0-3.061,0.987-5.231-1.482C258.024,288.475,246.474,295.089,241.931,287.783z"/>
				<path fill="#010101" d="M268.095,291.634c0,0,9.38-1.777,10.269-12.934C278.363,278.7,279.252,290.152,268.095,291.634z"/>
				<path fill="#010101" d="M277.475,292.719c0,0,2.665,1.383,3.456,1.088c0.79-0.298,8.885-3.457,9.181-10.861
					c0.298-7.405-6.91-9.677-9.872-10.564c0,0,10.17,0.592,10.564,10.959c0,0-0.988,8.688-10.269,11.157
					C280.535,294.497,279.548,294.3,277.475,292.719z"/>
				<path fill="#010101" d="M241.372,273.172c0,0-8.426,5.659-5.793,13.689c2.208,6.736,10.27,5.528,10.27,5.528
					s-5.793,1.581-9.742-2.368C232.156,286.071,234.526,275.935,241.372,273.172z"/>
				<path fill="#010101" d="M246.638,223.541c0,0-5.661-6.845-14.086-7.503c0,0,4.213,1.053,5.661,2.106
					c0,0-12.508-4.345-18.825-4.213c0,0,3.554,0.921,4.213,1.316c0,0-9.217-2.106-14.35-1.186l1.316,0.264
					c0,0-7.898,0.791-11.584,3.291l2.106-2.369c0,0-6.847,5.134-8.295,5.924l5.135-4.081c0,0-7.441,4.972-8.029,5.266
					c-0.526,0.263,4.869-4.607,4.869-4.607s-13.163,9.479-14.875,11.848c0,0,7.898-5.66,8.294-5.66l-4.344,3.422
					c0,0,6.581-4.343,7.107-4.476l-2.633,2.238c0,0,8.031-5.396,8.689-5.66l-3.951,3.422c0,0,7.637-5.002,8.559-5.134l-2.107,2.106
					c0,0,5.792-2.633,8.821-2.633c0,0-5.925,1.843-6.319,2.238c0,0,4.344-0.922,5.792-0.658l-2.896,0.658
					c0,0,6.714,0.657,10.793,2.369c4.082,1.711,7.11,2.896,12.112,2.896c0,0-5.266-0.79-8.951-2.765c0,0,8.293,3.028,16.85,2.369
					c0,0-3.291-0.131-5.792-1.315C229.919,223.016,242.819,226.043,246.638,223.541z"/>
				<path fill="#010101" d="M316.771,234.271c0,0-0.791-5.134-4.048-7.997c0,0,1.579,1.975,2.368,5.134c0,0-0.888-3.061-3.456-5.232
					c0,0,1.284,2.073,1.68,3.061c0,0-0.889-2.47-4.542-3.949c0,0,1.876,1.283,2.469,2.171c0,0-3.062-2.171-5.827-2.171
					c0,0,2.074,0.592,2.666,1.185c0,0-6.416-1.185-12.735,2.666c0,0,2.172-1.579,2.567-1.579c0,0-2.665,0.986-4.739,2.27
					c-2.074,1.284-8.49,3.259-10.268,3.159c0,0,5.924-1.283,7.504-2.468c0,0-7.604,2.863-12.046,2.172c0,0-2.667-0.789-2.172-4.641
					c0,0-0.099,1.68,1.382,3.357c0,0-2.765-4.049,1.875-8.491c0,0-2.369,2.271-2.172,5.628c0,0,0.396-6.714,9.184-7.701
					c0,0-3.555,0.691-5.234,2.468c0,0,7.109-4.344,15.303-2.961c0,0-2.961,0-3.75,0.396c0,0,6.318-1.186,11.65,1.678
					c0,0-3.753-2.073-6.023-2.469c0,0,3.852,0.1,8.194,2.962c0,0-3.258-2.271-4.936-3.061c0,0,5.824,2.073,8.097,4.146
					c0,0-2.666-2.369-3.457-2.863c0,0,4.641,3.062,5.036,3.654c0,0-0.922-1.646-2.469-3.16
					C308.772,221.337,315.389,225.286,316.771,234.271z"/>
				<path fill="#010101" d="M283.99,235.851c0,0,16.292-6.221,27.054,7.7C311.044,243.551,303.935,229.235,283.99,235.851z"/>
				<path fill="#010101" d="M284.683,239.7c0,0,18.066-7.603,25.176,10.664C309.858,250.364,305.811,231.703,284.683,239.7z"/>
				<path fill="#010101" d="M284.58,253.044c0,0-6.743-1.726-9.673-3.964c0,0,7.668-7.001,15.896-6.517
					c10.07,0.593,13.526,8.392,13.526,8.392s-2.37,3.753-6.517,3.852c0,0,5.332,0.396,7.701-3.357c0,0-0.493-8.589-11.85-10.662
					c0,0-9.477-2.073-20.635,8.786C273.03,249.573,276.353,252.518,284.58,253.044z"/>
				<path fill="#010101" d="M203.326,230.387c0,0,17.51-8.03,31.331,7.24c0,0-3.044-4.245-6.582-6.187c0,0,5.068,2.534,7.109,4.212
					C235.185,235.652,221.099,222.225,203.326,230.387z"/>
				<path fill="#010101" d="M198.457,237.627c0,0,22.642-14.48,33.042-0.395C231.499,237.232,223.47,221.304,198.457,237.627z"/>
				<path fill="#010101" d="M215.24,247.435c0,0-10.466-0.855-14.809-4.542c0,0,15.665-9.742,22.115-6.45s9.214,8.293,9.214,8.293
					s-3.225,2.041-6.515,2.173c0,0,8.228,0.855,10.202-1.515c0,0-3.818-10.268-14.086-11.188
					c-10.269-0.922-21.721,7.108-23.827,9.346C197.535,243.551,205.236,248.355,215.24,247.435z"/>
				<path fill="#010101" d="M133.952,249.737c0,0-4.74-13.295-16.061-14.611c-8.289-0.964-15.008,6.714-11.191,23.696
					c0,0,2.766,11.188,3.029,15.401s6.841,21.744,19.22,25.803c8.03,2.632,13.427-2.765,13.427-2.765s1.448-0.527,2.106-0.527
					c0.396,0,0.79-4.738-2.765-7.898c0,0,1.58,1.843-0.131,6.451c0,0-5.002,5.529-13.164,2.896c0,0-12.639-4.345-17.772-23.563
					c0,0-2.237-13.823-3.027-16.324c-0.79-2.502-4.476-21.589,9.874-21.983C117.497,236.312,126.315,236.179,133.952,249.737z"/>
				<path fill="#010101" d="M128.949,254.477c0.405,0.429-7.899-13.296-16.324-10.662c-8.425,2.633-3.687,34.886,6.715,43.18
					c0,0-13.165-14.086-1.712-27.777c0,0-4.74,4.08-5.66,6.845c0,0-2.766-12.9,2.764-16.981
					C114.731,249.08,119.472,244.473,128.949,254.477z"/>
				<path fill="#010101" d="M125,262.113c0,0,7.635-2.238,9.741,1.054c0,0-3.817,9.872,0.264,15.664c0,0,2.369,6.978-4.345,2.897
					c0,0,3.95,1.183,3.685-0.659c-0.262-1.843-6.712-5.135-1.973-15.402C132.372,265.667,135.927,260.401,125,262.113z"/>
				<path fill="#010101" d="M119.626,236.467c0,0-17.475-52.128,16.883-91.52c0,0,39.983-35.246,42.944-38.504
					c2.962-3.258,9.479-7.996,14.513-6.812c5.035,1.186,6.812-2.072,9.775-2.665c2.962-0.593,4.738,0,7.404,0
					c2.665,0,7.7-7.108,11.847-6.22c4.147,0.889,6.516,2.962,9.478,2.369c2.963-0.592,5.924-2.961,8.59-0.889
					c2.666,2.074,5.331,5.924,7.701,6.812c2.369,0.889,9.773,2.666,11.551,5.332c1.775,2.664,2.369,3.258,5.33,5.33
					c2.963,2.074,6.517,7.109,7.701,9.774s3.259,9.478,5.923,11.847c2.666,2.37,6.22,4.443,7.405,7.404
					c1.184,2.963,2.666,7.701,4.739,9.775c1.966,1.965,8.46,10.588,11.146,17.284c0.146,0.366,0.282,0.726,0.405,1.078
					c2.368,6.812-17.18-24.879-28.139-19.548c-10.958,5.332-11.848,2.666-17.474,1.186c-5.628-1.482-5.035-0.89-11.848-1.482
					c-6.812-0.592-9.181-0.592-14.514-5.33c-5.331-4.739-18.362-10.663-20.14-8.293c-1.776,2.369-20.437,8.589-26.656,7.404
					c-6.22-1.186-38.504,6.516-42.945,29.321c-4.443,22.807,13.108,33.937,13.108,33.937s-16.663,14.638-13.997,35.667
					C140.358,239.726,132.065,234.098,119.626,236.467z"/>
				<polygon fill="#010101" points="131.056,299.631 135.399,399.547 135.005,300.816 				"/>
				<path fill="#010101" d="M285.077,363.609l-2.188,49.759c0,0-2.156,4.873-2.074,3.813c-1.104-18.826-2.566-45.585-2.057-46.858
					C279.548,368.348,285.077,363.609,285.077,363.609z"/>
				<path fill="#010101" d="M235.728,356.124c0,0,8.475-4.362,16.883-7.405c8.037-2.907,23.086-2.685,29.617,6.812
					c0,0-2.368-7.7-15.697-9.479C253.202,344.276,246.687,349.016,235.728,356.124z"/>
				<g>
					<defs>
						<path id="SVGID_369_" d="M199.114,243.025c0,0,13.165-9.676,21.26-8.097c8.097,1.579,13.165,10.071,13.165,10.071
							S213.857,251.779,199.114,243.025"/>
					</defs>
					<clipPath id="SVGID_24_">
						<use xlink:href="#SVGID_369_"  overflow="visible"/>
					</clipPath>
					<circle clip-path="url(#SVGID_24_)" fill="#010101" cx="218.071" cy="239.997" r="6.45"/>
				</g>
				<g>
					<defs>
						<path id="SVGID_371_" d="M274.282,249.344c0,0,8.294-9.083,17.97-7.569s12.637,8.885,12.703,9.215
							c0.066,0.329-1.581,1.975-1.581,1.975S296.727,258.822,274.282,249.344"/>
					</defs>
					<clipPath id="SVGID_26_">
						<use xlink:href="#SVGID_371_"  overflow="visible"/>
					</clipPath>
					<ellipse clip-path="url(#SVGID_26_)" fill="#010101" cx="294.95" cy="246.842" rx="6.188" ry="6.451"/>
				</g>
				<path fill="#010101" d="M282.313,394.413c0,0,0.161,4.161-0.1,9.577c-0.072,1.501,1.128,2.828,0.701,4.52
					c-2.566,10.152-12.847,22.815-46.594,27.286c0,0-96.557,2.37-107.636-57.575c0,0,3.949-9.873,6.714-10.268
					c0,0-20.536,5.924-11.058,31.594c0,0,0-12.242,2.369-16.192c0,0,7.108,54.896,109.79,56.475c0,0,41.862-0.789,48.576-32.384
					C285.077,407.445,287.052,401.916,282.313,394.413z"/>
				<path fill="#010101" d="M432.779,472.213c-0.395-1.184-17.376-13.031-39.493-27.645c-22.115-14.611-37.122-20.931-37.122-20.931
					s-43.837-18.956-55.685-25.276c-11.849-6.318-18.166-3.948-18.166-3.948l1.578,5.134c0,0,10.269-0.789,18.166,2.766
					c7.899,3.554,46.207,21.325,57.266,27.248c9.672,5.184,36.728,19.748,39.887,21.723
					C402.37,453.258,432.779,472.213,432.779,472.213z"/>
				<path fill="#010101" d="M-2.43,433.116c0,0,12.242-10.663,33.963-16.981c21.722-6.319,42.257-13.822,51.341-16.982
					c9.084-3.159,15.402-7.109,24.092-11.058c8.688-3.949,19.745-15.007,23.3-15.797c0,0-3.555,5.923-3.555,7.502
					c0,0-12.638,9.479-23.3,15.009c-10.664,5.528-69.113,23.301-79.776,29.619S-7.959,441.41-7.959,441.41L-2.43,433.116z"/>
				<path fill="#010101" d="M135.005,373.877c0,0-5.134,8.096-4.937,13.428l-3.357-8.293c0,0,3.16-8.491,7.899-10.664
					L135.005,373.877z"/>
				<g>
					<g>
						<path fill="#4A2623" d="M218.183,244.681c-2.213,0-4.124-1.28-5.044-3.139c0.388,2.51,2.554,4.433,5.173,4.433
							c2.893,0,5.237-2.343,5.242-5.233C222.836,243.024,220.704,244.681,218.183,244.681z"/>
						<path fill="#4A2623" d="M218.222,243.788c-1.747,0-3.258-1.013-3.982-2.48c0.307,1.983,2.018,3.502,4.086,3.502
							c2.285,0,4.137-1.85,4.138-4.134C221.899,242.479,220.214,243.788,218.222,243.788z"/>
					</g>
				</g>
				<g>
					<g>
						<path fill="#4A2623" d="M295.038,251.354c-2.215,0-4.123-1.281-5.044-3.14c0.389,2.511,2.554,4.435,5.172,4.435
							c2.894,0,5.239-2.344,5.243-5.235C299.693,249.696,297.56,251.354,295.038,251.354z"/>
						<path fill="#4A2623" d="M295.077,250.461c-1.748,0-3.258-1.012-3.982-2.481c0.308,1.982,2.018,3.503,4.086,3.503
							c2.284,0,4.137-1.851,4.139-4.134C298.753,249.151,297.069,250.461,295.077,250.461z"/>
					</g>
				</g>
				<path fill="#37302D" d="M120.655,234.862c0,0-18.825-59.238,22.115-73.193c0,0-12.77,22.38,9.742,42.784
					c0,0-13.691,9.083-14.086,32.253C138.427,236.706,128.949,232.361,120.655,234.862z"/>
				<path fill="#322929" d="M135.399,153.902c0,0,2.369-10.136,8.819-13.295c6.452-3.16,7.109-5.135,7.109-5.135
					s-3.159,1.711-4.08,1.711c0,0,12.374-10.399,13.163-11.584c0,0-1.931,3.109-1.711,4.213c0.131,0.658,4.607-8.162,8.951-10.006
					c4.346-1.842,6.582-4.212,6.582-4.212s-3.554,2.106-4.87,2.37c0,0,5.793-4.74,6.977-6.188c1.185-1.448,7.505-9.479,12.243-9.742
					c0,0-1.711,1.054-2.238,2.37c0,0,4.871-4.212,7.24-3.159c2.37,1.053,5.003,2.896,6.978,2.764c0,0-2.502-1.184-3.817-2.501
					c0,0,2.04-0.428,3.817-1.415c1.778-0.986,7.8-2.666,10.466-1.975c0,0-0.494,1.975-2.074,2.863c0,0,2.863-1.185,4.246-3.456
					c1.383-2.271,7.604-6.614,10.169-5.528c2.567,1.086,6.221,1.875,7.108,1.975c0,0-2.565,2.073-4.738,2.172
					c0,0,4.146-0.099,5.924-1.975c0,0,5.825-2.271,8.591-0.395c2.764,1.876,3.849,6.713,7.995,8.885c0,0-1.875-1.678-2.764-4.047
					c0,0,0.493,0.987,3.555,1.975c3.061,0.987,9.676,2.468,11.255,5.727c0,0-1.679,0.986-3.553-0.494c0,0,3.257,3.455,7.207,3.554
					c0,0,5.034,2.765,6.121,8.491c0,0,0-1.668,0-2.172c0-0.296,4.442,4.838,4.54,10.762c0,0-0.889-2.172-1.678-3.159
					c0,0,1.383,3.948-0.986,5.924c0,0,1.283-1.481,0.395-3.949c0,0,0,2.863-1.382,2.073c-1.383-0.79-2.567-1.283-3.061-0.889
					c0,0,0.985,0.297,1.48,1.185c0,0-1.679-1.185-3.95-0.592c0,0-0.395-2.567,1.976-4.146c0,0-1.087,1.382-1.087,2.171
					c0,0,1.679-2.566,3.159-2.764c0,0-3.257-0.987-4.542,0.494c0,0-0.689-1.975-0.196-3.852c0,0-1.481,1.58-1.383,2.863
					c0.099,1.284-1.876,1.975-3.555,1.383c0,0,1.581-0.099,2.173-1.283c0,0-1.877,0.889-2.566-1.186
					c-0.691-2.073-1.778-3.949-3.752-4.344c0,0,1.777,0.889,2.271,2.765c0,0-1.777-2.073-4.345-1.481c0,0,0.963,0.525,1.58,0.987
					c0.396,0.296-2.666,2.271-2.766,3.653c0,0-0.888-3.159,0.396-6.022c0,0-2.052,0.888-2.764,0.888
					c-0.298,0,0.394-2.271,1.382-2.863l-1.68,0.593c0,0,2.074-3.356,4.543-3.06c0,0-3.949-1.383-5.924,0.492
					c-1.975,1.877-2.468,1.877-3.752,1.383c0,0,2.469-0.197,2.863-2.073c0,0-1.678,0.987-3.949,1.086s-4.246,1.086-4.542,1.579
					c0,0,2.173-2.369,4.542-2.369c2.37,0,3.555-2.271,3.555-2.271s-2.074,1.58-4.345,1.382c-2.271-0.197-8.294,1.481-10.269,5.529
					c0,0,0.691-4.541,3.851-6.318c0,0,8.688-1.679,11.157-6.221c0,0-5.232,5.232-10.367,4.049
					c-5.134-1.186-13.427-0.197-16.783,2.172c0,0,2.467-2.963,6.021-4.246c0,0-11.156,1.975-14.81,5.924
					c-3.652,3.949-8.293,4.938-10.069,4.938c0,0,5.726-0.988,7.996-4.838c0,0-5.727,4.344-10.762,2.862
					c-5.036-1.481-10.959-1.579-14.118,0.198c0,0,3.751-1.086,5.529-0.297c0,0-9.182,1.086-14.612,6.221c0,0,2.27-1.086,2.961-0.988
					c0,0-6.516,2.271-7.996,5.135c-1.482,2.863-3.555,5.924-6.32,6.418c0,0,3.161-1.283,3.753-4.443c0,0-3.16,4.838-8.887,6.021
					c-5.726,1.186-6.615,4.938-6.615,4.938s2.369-3.061,3.95-3.258c0,0-3.26,2.073-4.543,5.924
					c-1.282,3.851-4.344,5.727-4.344,5.727s2.666-1.975,2.567-5.035c0,0-4.442,0.099-6.417,2.764c0,0,0.789-2.073,1.975-2.665
					c0,0-2.963,2.37-3.949,5.825c-0.988,3.455-2.469,5.134-2.469,5.134s1.58-2.863,0.889-5.035
					C140.04,147.485,136.585,149.953,135.399,153.902z"/>
				<path fill="#F6D280" d="M299.162,162.986c0,0-8.951-10.269-11.453-12.375c-2.501-2.105-2.501-3.686-2.501-3.686
					s-0.102-0.376-0.271-0.927c-0.403-1.321-1.186-3.649-1.836-4.208c0,0,2.239,2.963,2.633,4.74c0,0-1.448-4.345-2.435-5.464
					c-0.986-1.118-1.053-3.291-1.053-3.291s-0.329,0.987-0.066,2.633c0,0-0.79-3.356-0.263-4.278
					c0.525-0.922-0.657-2.106-0.856-2.172c0,0,1.186,0.526,1.415,2.139c0,0,0.659-0.625,1.12-0.395c0,0-0.658-0.099-0.725,0.428
					c0,0,1.578-0.559,1.842,0.461s0.527,1.81,0.89,2.041c0,0-0.329-0.594-0.263-1.252c0,0,1.348,0.758,1.217,2.634
					c0,0,0.032-0.46-0.263-0.757c0,0,0.361,0.559,0.065,1.646c0,0,0.264-0.396,0.328-0.593c0,0,0.396,0.625,0.363,1.514
					c0,0,0.139-0.396,0.099-0.592c-0.034-0.165-0.033,1.053,0.493,1.645c0,0-0.361-0.229-0.56-0.46c0,0,0.429,1.382,0.889,1.448
					s1.186,1.48,1.383,2.83c0,0-0.132-0.855-0.625-1.283c0,0,0.658,1.381,0.428,2.764s0.361,1.613,0.624,1.975
					c0,0-0.821-0.756-0.23-2.237c0,0,0,0.428,0.56,0.69c0.56,0.264,1.515,0.625,1.91,1.284c0,0-0.461-0.493-0.923-0.56
					c0,0,1.383,0.855,1.746,2.6c0,0,0.032-0.691-0.264-1.185c0,0,1.481,1.515,1.776,2.271c0,0-0.625-0.263-0.921-0.296
					c0,0,1.446,0.527,1.58,2.04c0.131,1.514,0.099,1.745,0.559,2.008c0,0-0.46-0.461-0.23-1.842c0,0,0.066,0.986,0.592,1.283
					c0.527,0.296,1.416,1.053,1.58,2.27c0,0-0.263-0.789-0.855-1.25c0,0,0.855,1.218,0.889,2.369c0,0,0.297-0.493,0.297-0.889
					c0,0,0.065,0.988-0.527,1.316c0,0,0.757-0.197,0.855-1.02c0,0,1.087,0.757,1.284,1.744c0,0-0.495-0.133-0.955-0.033
					c0,0,1.481,0.23,2.206,1.844c0,0-0.197-0.626-1.284-0.988c0,0,1.25,0.527,1.284,2.107c0,0-0.396-1.383-1.516-1.712
					c0,0,0.627,0.593,0.758,1.151c0,0-0.526-0.691-0.921-0.724C299.031,162.394,299.162,162.689,299.162,162.986z"/>
				<path fill="#FFFFFF" d="M220.6,238.032c0.075-0.184,0.019-0.438-0.076-0.603c0.033-0.111,0.053-0.229,0.053-0.351
					c0-0.67-0.561-1.229-1.23-1.229c-0.671,0-1.23,0.56-1.23,1.229c0,0.619,0.478,1.143,1.078,1.22
					c0.003,0.007,0.006,0.015,0.01,0.021c-0.003-0.008-0.005-0.014-0.007-0.021l0,0c0.127,0.229,0.37,0.389,0.645,0.389
					c0.277,0,0.52-0.16,0.646-0.389c-0.002,0.007-0.004,0.014-0.008,0.021c0.008-0.015,0.014-0.029,0.02-0.044
					c0.018-0.033,0.031-0.068,0.043-0.104C220.562,238.126,220.581,238.079,220.6,238.032z"/>
				<path fill="#FFFFFF" d="M295.249,243.729c-0.021-0.216-0.07-0.356-0.213-0.522c-0.024-0.028-0.048-0.058-0.071-0.085
					c-0.26-0.303-0.77-0.266-1.035,0c-0.189,0.189-0.261,0.505-0.175,0.764c-1.006,0.304-0.898,2.027,0.32,2.027
					c0.92,0,1.207-0.979,0.862-1.592C295.132,244.184,295.272,243.95,295.249,243.729z"/>
			</g>
		</g>
		<g>
			<path fill="#FFFFFF" d="M200.001,524.574c-15.623,0-28.334-12.711-28.334-28.334c0-15.622,12.711-28.332,28.334-28.332
				c15.622,0,28.332,12.71,28.332,28.332C228.333,511.863,215.623,524.574,200.001,524.574z"/>
			<path fill="#D3B76E" d="M200.001,469.908c14.543,0,26.332,11.789,26.332,26.332c0,14.545-11.789,26.334-26.332,26.334
				c-14.545,0-26.334-11.789-26.334-26.334C173.667,481.697,185.456,469.908,200.001,469.908 M200.001,465.908
				c-16.727,0-30.334,13.607-30.334,30.332c0,16.727,13.607,30.334,30.334,30.334c16.726,0,30.332-13.607,30.332-30.334
				C230.333,479.516,216.727,465.908,200.001,465.908L200.001,465.908z"/>
		</g>
		<g>
			<g>
				<defs>
					<circle id="SVGID_373_" cx="200" cy="496.241" r="23.356"/>
				</defs>
				<clipPath id="SVGID_28_">
					<use xlink:href="#SVGID_373_"  overflow="visible"/>
				</clipPath>
				<polygon clip-path="url(#SVGID_28_)" fill="#006948" points="175.394,472.32 175.394,496.102 175.394,519.598 191.778,519.598 
					191.778,496.102 191.778,472.32 				"/>
				<polygon clip-path="url(#SVGID_28_)" fill="#FED208" points="191.718,472.32 191.718,496.102 191.718,519.598 208.102,519.598 
					208.102,496.102 208.102,472.32 				"/>
				<polygon clip-path="url(#SVGID_28_)" fill="#ED3B27" points="208.041,472.32 208.041,496.102 208.041,519.598 224.425,519.598 
					224.425,496.102 224.425,472.32 				"/>
			</g>
			<polygon fill="#006948" points="201.977,497.378 205.994,494.459 201.028,494.459 199.493,489.736 197.958,494.459 
				192.993,494.459 197.011,497.378 195.476,502.101 199.493,499.182 203.511,502.101 			"/>
		</g>
	</g>
</g>
</svg>
