<?xml version="1.0" encoding="utf-8"?>
<!-- Generator: Adobe Illustrator 16.0.0, SVG Export Plug-In . SVG Version: 6.00 Build 0)  -->
<!DOCTYPE svg PUBLIC "-//W3C//DTD SVG 1.1//EN" "http://www.w3.org/Graphics/SVG/1.1/DTD/svg11.dtd" [
	<!ENTITY ns_flows "http://ns.adobe.com/Flows/1.0/">
	<!ENTITY ns_extend "http://ns.adobe.com/Extensibility/1.0/">
	<!ENTITY ns_ai "http://ns.adobe.com/AdobeIllustrator/10.0/">
	<!ENTITY ns_graphs "http://ns.adobe.com/Graphs/1.0/">
]>
<svg version="1.1" id="Layer_1" xmlns:x="&ns_extend;" xmlns:i="&ns_ai;" xmlns:graph="&ns_graphs;"
	 xmlns="http://www.w3.org/2000/svg" xmlns:xlink="http://www.w3.org/1999/xlink" xmlns:a="http://ns.adobe.com/AdobeSVGViewerExtensions/3.0/"
	 x="0px" y="0px" width="400px" height="560px" viewBox="0 0 400 560" enable-background="new 0 0 400 560" xml:space="preserve">
<g>
	<g>
		<rect fill="#FFFFFF" width="400" height="560"/>
		<g>
			<polygon fill="#E9262B" points="399.992,243.094 399.992,42.939 0.008,333.826 0.008,560 			"/>
		</g>
		<g>
			<rect x="55.404" y="31.168" fill="#D3B76E" width="289.192" height="48.5"/>
			<polygon fill="#D3B76E" points="68.398,72.855 29.744,72.855 38.111,55.418 29.744,37.979 81.064,37.979 81.064,50.012 
				55.404,50.012 			"/>
			<polygon fill="#D3B76E" points="331.602,72.855 370.256,72.855 361.889,55.418 370.256,37.979 318.936,37.979 318.936,50.012 
				344.596,50.012 			"/>
			
				<text transform="matrix(1 0 0 1 110.8818 65.5186)" fill="#A08F53" font-family="'Novecentowide-DemiBold'" font-size="27.1191" letter-spacing="4">Dele Alli</text>
			<g>
				
					<text transform="matrix(1 -0.0053 0.0053 1 109.958 65.0654)" fill="#FFFFFF" font-family="'Novecentowide-DemiBold'" font-size="27.1191" letter-spacing="4">Dele Alli</text>
			</g>
			<rect x="49.207" y="37.979" fill="#A08F53" width="6.197" height="34.877"/>
			<rect x="344.596" y="37.979" fill="#A08F53" width="6.197" height="34.877"/>
		</g>
		<g>
			<polygon fill="#0A57A3" points="39.5,423.526 39.5,141.178 360.5,141.178 360.5,423.526 200,495.674 			"/>
			<g>
				<path fill="#010101" d="M356,145.678v274.938L200,490.74L44,420.615V145.678H356 M365,136.678h-9H44h-9v9v274.938v5.821
					l5.311,2.388l156,70.125l3.689,1.658l3.689-1.658l156-70.125l5.311-2.388v-5.821V145.678V136.678L365,136.678z"/>
			</g>
		</g>
		<g>
			<path fill="#D3B76E" d="M365,136.678v9v274.938v5.801L200,500.24L35,426.404v-5.789V145.678v-9h9h312H365 M372,129.678h-7h-9H44
				h-9h-7v7v9v274.938v5.789v4.536l4.141,1.854l165,73.836L200,507.91l2.857-1.279l165-73.824l4.143-1.853v-4.537v-5.801V145.678v-9
				V129.678L372,129.678z"/>
		</g>
		<g>
			<g>
				<defs>
					<polygon id="SVGID_1_" points="356,420.615 200,490.74 44,420.615 44,145.678 356,145.678 					"/>
				</defs>
				<clipPath id="SVGID_2_">
					<use xlink:href="#SVGID_1_"  overflow="visible"/>
				</clipPath>
				<path clip-path="url(#SVGID_2_)" fill="#194378" d="M425.146,417.889c-13.775-10-24.791-18.067-25.621-18.897
					c-2.314-2.314-5.209-4.629-6.943-5.209c-1.736-0.578-10.703-6.363-13.598-8.388c-2.894-2.026-21.408-13.6-58.728-24.303
					c0,0-5.745-8.262-14.135-10.285c0,0,0.34-0.258,0.01,0.5c-0.088-0.086-0.147-0.146-0.187-0.184
					c0.158-4.797-0.938-21.197-2.372-27.641c-1.298-5.841-1.505-31.015-1.535-38.869c4.44-2.908,9.435-7.314,12.435-13.59
					c0,0,3.276-6.896,4.34-19.742l3.762-2.051c0,0,0.963-1.156,2.988-3.184c2.022-2.023,1.352-4.049,1.254-5.494
					c-0.099-1.447,0.481-3.088,0.481-3.088c1.832-1.832,1.252-4.049,1.156-4.436c-0.097-0.385-0.097-2.506,3.183-7.135
					c3.278-4.629,1.157-10.512,1.157-10.512c1.543-3.279,0.097-7.041,0.097-7.041c0.674-0.963,1.543-2.988,1.254-4.434
					c-0.289-1.447,0.192-3.859,0.192-3.859c0.963-4.049-0.869-5.592-1.832-6.557c-0.965-0.965-0.771-1.639-0.098-5.014
					c0.676-3.375-1.929-5.787-1.929-5.787c-0.385-3.953-4.146-4.533-4.146-4.533c-0.192-2.121-3.088-3.375-3.664-4.146
					c-0.578-0.771-0.192-2.701,0.481-5.498c0.675-2.795-0.577-4.725-0.577-4.725c0.385-3.182-2.703-6.365-2.703-6.365
					s-1.156-0.965-1.156-3.277c0-2.314-1.541-4.34-1.541-4.34c-1.256-4.438-5.11-4.629-5.399-4.725
					c-0.289-0.098-1.642-0.098-3.279-1.93c-1.641-1.832-5.109-2.797-5.109-2.797c-0.965-2.121-4.533-2.797-6.27-3.375
					c-1.737-0.578-3.568-3.953-3.568-3.953c-0.578-4.148-3.182-4.436-4.436-4.533c-1.254-0.096-2.025-0.385-2.025-0.385
					c-1.158-2.895-5.98-4.051-5.98-4.051c-0.674-1.736-3.471-2.893-3.471-2.893c-0.676-1.736-3.664-1.447-3.664-1.447
					c-2.604-4.145-6.75-2.797-6.75-2.797c-2.604-2.988-4.82-0.77-4.82-0.77c-1.157-0.289-3.278,0.096-3.278,0.096
					c-1.735-2.699-4.822-2.219-5.688-2.219c-0.867,0-1.158-0.289-3.474-1.928c-2.313-1.641-5.594,0.191-7.039,0.965
					c-1.446,0.771-3.086-0.098-3.086-0.098c-2.797-2.508-6.461-0.578-7.33-0.096c-0.866,0.48-1.639-0.289-1.639-0.289
					c-2.025-1.254-4.146-0.869-4.146-0.869c-0.773-1.35-2.894-1.254-2.894-1.254c-3.763-2.312-6.365,1.641-6.365,1.641
					c-2.412-0.482-4.049,2.025-4.049,2.025c-2.121-1.447-4.244-0.867-5.884,0.191c-1.641,1.061-3.856,0.482-3.856,0.482
					c-3.762-1.734-7.521,0.676-8.68,1.93c-1.156,1.254-2.893,0.385-2.893,0.385c-3.762-1.445-6.172,1.543-6.172,1.543
					c-3.953-1.254-2.895,4.051-6.461,3.086c-0.119-0.031-0.236-0.059-0.352-0.084c-3.393-0.715-5.922,1.73-6.107,4.713
					c-0.193,3.086-1.158,5.016-1.158,5.016c-4.629,0.096-4.436,5.785-4.436,5.785c-2.895,0.676-2.895,4.34-2.895,5.207
					c0,0.869-0.289,3.279-2.41,4.051s-2.988,6.654-2.988,6.654c1.639-0.387,3.471,0.674,3.471,0.674
					c-3.471-0.674-5.498,3.086-5.498,3.086c-2.748,1.012-2.459,4.629-2.459,4.629c-3.037,3.037-0.723,7.955-0.289,8.68
					c0.434,0.723,0,7.232-0.869,8.244c-0.867,1.012-2.457,3.473-2.168,5.062c0.289,1.592-1.156,2.748-1.156,2.748
					c-3.473,3.328-3.184,7.377-2.605,10.416c0.578,3.037-0.434,5.352-0.434,5.352c-1.471,4.291,0.895,5.771,1.654,6.125
					c-0.34,2.328-0.447,3.711-0.447,3.711c-8.293,9.354-6.582,15.889-3.568,25.266c1.736,5.4-1.643,15.621-1.643,15.621
					c-3.951,14.562-2.893,26.037,1.352,33.365c4.244,7.33,13.887,38.573,13.887,38.573c3.086,18.707,16.199,16.974,16.199,16.974
					c2.605,1.059,7.924,1.979,13.201,2.688c1.689,3.451,5.566,12.176,8.85,27.107c-0.678,0.504-4.012,3.129-6.428,7.617
					c0,0-21.988,9.645-41.658,15.045c-19.672,5.399-38.959,10.026-42.43,15.043c0,0-20.059,10.801-20.83,14.657
					c-0.051,0.255-0.168,0.604-0.336,1.037c-0.787,1.148-1.404,2.345-1.785,3.59c-0.148,0.49-0.318,1.054-0.494,1.646
					C78.125,440.334,69.525,461.9,70.58,491.91c-0.016,2.467,0.102,4.729,0.4,6.695c0,0,35.486,39.149,58.246,43.778
					c13.635,2.773,169.025,41.582,267.117,18.515c65.607-15.429,88.019-93.605,90.261-98.939
					C486.604,461.959,453.27,437.873,425.146,417.889z M208.555,445.975c0.051,0.179,0.104,0.347,0.158,0.509
					c-0.445-0.269-0.877-0.554-1.291-0.859C207.775,445.734,208.152,445.85,208.555,445.975z M204.537,446.436
					c0,0,0.809,0.832,2.547,1.906c-1.543-0.438-2.908-0.91-3.99-1.426c0,0-3.279-17.311-4.297-31.652
					C199.807,424.969,201.557,436.92,204.537,446.436z M251.158,440.947c-5.023,4.27-10.432,8.151-16.244,11.467
					c0,0-0.607-0.043-1.654-0.129C235.883,451.127,242.5,447.842,251.158,440.947z"/>
			</g>
		</g>
		<g>
			<g id="Layer_1_1_" display="none">
				<defs>
					<polygon id="SVGID_3_" points="356,420.65 200,490.768 44,420.65 44,72.381 356,72.381 356,334.107 					"/>
				</defs>
				<clipPath id="SVGID_4_" display="inline">
					<use xlink:href="#SVGID_3_"  overflow="visible"/>
				</clipPath>
				<g display="inline" clip-path="url(#SVGID_4_)">
					<path fill="#FFFFFF" d="M465.052,472.8c0,0-100.229-72.423-110.571-78.242c-10.349-5.817-32.98-18.105-34.92-18.105
						c-1.94,0-40.861-14.558-44.097-16.495c-3.231-1.94-12.377-11.092-12.377-11.092s-26.017,80.031-82.92,112.47
						c0,0-20.113-0.688-29.167-5c0,0-9.048-33.324-7.756-48.842c1.294-15.521-0.214-24.787-0.214-25.65
						c0-0.862-3.232-9.271-3.232-9.271s-3.449,7.332-4.742,8.84c-1.295,1.508-5.176,2.154-5.176,2.154s-77.31,24.765-82.053,27.78
						c-4.742,3.017-29.812,11.231-33.693,23.949c-3.881,12.718-16.598,58.629-13.58,78.462c0,0,39.661,43.753,65.097,48.927
						c15.237,3.099,188.899,46.472,298.529,20.692C437.503,566.131,462.546,478.76,465.052,472.8z"/>
					<path fill="#B0B8BC" d="M245.415,420.207c0,0-46.686,49.801-65.526,57.336c-17.244,6.896-28.021-0.433-28.021-0.433
						s-7.759-6.468-12.069-34.058c0,0,4.311,34.489,12.069,39.231c12.01,7.337,27.159,0.86,31.47-1.726
						C187.649,477.975,222.564,457.712,245.415,420.207z"/>
					<path fill="#B0B8BC" d="M30.3,455.127c0.303,3.031-9.055-21.124-7.331-24.574c1.729-3.446,4.314-7.327,4.314-7.327
						S29.87,450.816,30.3,455.127z"/>
					<path fill="#B0B8BC" d="M54.873,419.777c0,0,0.86-6.465,14.226-7.761c13.363-1.291,28.02-3.88,28.02-3.88
						s-21.982,6.038-28.881,8.192C61.337,418.484,54.873,419.777,54.873,419.777z"/>
					<path fill="#B0B8BC" d="M282.057,391.756c0,0,6.896-11.64,9.053-13.797c2.154-2.153,6.897-2.153,6.897-2.153
						s-3.021,8.192-5.604,10.346C289.814,388.307,282.057,391.756,282.057,391.756z"/>
					<path fill="#B0B8BC" d="M322.148,402.533c0,0,1.722,0.86,10.345,14.654c8.62,13.797,18.969,28.022,18.969,28.022
						s-24.142-23.709-25.437-29.746C324.734,409.432,322.148,402.533,322.148,402.533z"/>
					<path fill="#B0B8BC" d="M33.748,520.652c0,0,4.309-58.626,24.14-68.113c19.832-9.485,63.802-23.277,68.975-26.728
						c5.172-3.448,10.348-12.932,10.348-12.932s2.586,12.068-11.208,17.241c-13.796,5.173-60.352,19.833-68.976,27.592
						C48.403,465.473,37.196,489.613,33.748,520.652z"/>
					<path fill="#B0B8BC" d="M252.741,399.946c0,0,19.827,26.728,46.559,37.935c26.728,11.21,80.179,44.836,105.185,89.67
						c0,0-51.729-64.664-93.979-78.46C268.259,435.295,252.741,399.946,252.741,399.946z"/>
					<path fill="#E9262B" d="M277.118,361.115c0,0-12.774,28.543-21.993,37.76c0,0,19.357-17.744,26.997-35.917L277.118,361.115z"/>
					<path fill="#E9262B" d="M133.847,381.92c0,0,4.479,21.07,5.268,23.439c0,0-7.11-13.168-8.428-20.806L133.847,381.92z"/>
					<path fill="#F8B199" d="M258.452,347.138l-2.263-73.069c0,0,19.828-3.448,21.769-42.245c0,0-0.646-15.736-14.226-27.376
						c-13.58-11.639-26.293-55.396-40.305-65.956c-14.012-10.561-79.32-21.555-90.746-16.812
						c-11.426,4.742-29.746,9.699-35.78,31.47c-6.034,21.769-8.405,26.079-8.621,37.719l-0.862,2.802c0,0-9.487,7.76-5.604,21.555
						c3.878,13.796,2.37,16.167,1.078,19.831c-1.294,3.664-6.465,26.512-1.727,35.78c4.743,9.268,8.409,19.614,9.056,20.907
						c0.646,1.294,6.465,19.83,7.973,25.437c1.51,5.604,4.094,11.854,6.467,14.654c2.373,2.803,2.373,4.096,6.898,4.742
						c4.527,0.647,10.56,1.295,11.208,1.508c0.646,0.217,8.839,0.648,8.839,0.648s5.387,11.424,7.758,21.555
						c2.369,10.129,5.174,26.728,5.174,26.728s-1.833,13.472-1.186,19.614c0.646,6.144,5.174,42.355,6.465,46.881
						c0,0,23.279,7.761,31.363,7.113c0,0,50.436-19.077,79.211-101.199L258.452,347.138z"/>
					<path fill="#FFFFFF" d="M146.964,215.817c0,0,3.232-10.294,6.682-11.37c3.449-1.078,14.98-1.185,20.801,5.55l-0.646,1.617
						C173.8,211.614,159.735,219.05,146.964,215.817z"/>
					<path fill="#FFFFFF" d="M90.114,220.561c0,0,0.16-7.543,3.932-8.946c3.773-1.401,12.719-1.671,15.145-0.214
						c2.424,1.454,4.902,4.147,5.228,5.495c0.321,1.348-0.271,2.856-0.271,2.856S103.854,223.793,90.114,220.561z"/>
					<path fill="#B2806E" d="M100.351,247.234c0,0,2.909,2.586,5.173,2.749c0,0,1.94,3.232,3.071,4.687c0,0-1.777-4.366-1.615-4.85
						c0,0,7.76,0.97,12.609-3.071c4.849-4.041,19.884-1.617,21.662,9.699c0,0,0.647,2.343-1.535,3.557
						c-2.184,1.212-9.539,2.829-19.238-1.294c0,0-4.77-0.646-6.305-0.08C114.173,258.631,102.614,256.287,100.351,247.234z"/>
					<path fill="#B2806E" d="M100.431,248.526c0,0-1.857,0.889-2.018,2.021c-0.163,1.132,1.371,8.407,6.947,9.619
						c0,0,2.832,0,3.801-1.697c0.971-1.698,0.405-2.102,0.405-2.102S101.886,253.135,100.431,248.526z"/>
					<path fill="#B2806E" d="M113.501,265.231c0,0-2.803,9.915-3.234,10.346c-0.434,0.432,1.078,2.586,1.724,2.695
						c0.646,0.106,3.987-0.648,4.204-1.401c0.215-0.755,1.508-8.191,1.508-8.191s-1.725,7.329-2.154,7.868v-3.019
						c0,0-1.94,0.755-2.373,0.862c-0.43,0.109-1.078-0.862-1.078-0.862L113.501,265.231z"/>
					<path fill="#B2806E" d="M102.291,290.881c0,0-1.292-10.885,3.56-10.669c4.848,0.217,7.004,1.726,7.975,1.401
						c0.969-0.323,4.201-1.724,6.143-1.724c1.939,0,10.561,3.339,15.627,6.787l-0.754,0.864c0,0-10.672-2.694-15.951-0.323
						c0,0-3.881,0.646-6.574-0.107C112.315,287.109,105.632,284.739,102.291,290.881z"/>
					<path fill="#B2806E" d="M105.767,290.072c0,0-1.133,2.263-0.97,3.154c0,0,14.224,4.525,23.925-3.479
						C128.722,289.749,114.901,294.922,105.767,290.072z"/>
					<path fill="#B2806E" d="M82.03,213.285c0,0,2.373-6.358,5.712-7.652c0,0-1.511,1.294-1.724,1.94c0,0,4.74-3.448,11.207-0.862
						c0,0-11.744,1.076-11.099,13.903l3.017,1.831l0.539,4.958c0,0,9.158-1.4,10.887-2.586c0,0-5.736,2.92-6.36,3.125
						c-0.323,0.107,10.238-3.341,10.238-3.341s-9.809,5.818-13.903,6.357c0,0,13.366-2.047,20.586-8.621l-1.833,0.755l1.833-2.263
						c0,0-16.488,1.185-20.047,0.214c0,0-0.861-1.509-0.646-2.37c0.216-0.862,2.263-6.251,2.802-6.684
						c0.537-0.43,7.652-2.37,11.641-1.615c3.984,0.756,6.467,1.938,6.895,2.479c0.432,0.539,2.934,2.533,2.695,4.688
						c-0.243,2.156-1.615,2.749-1.615,2.749s2.047-0.972,2.262-1.295c0.217-0.322,0.863-1.722,0.863-1.722s-0.107-3.664-1.294-5.175
						c0,0,0.702-2.103,0.323-3.934c0,0,0.162,1.563-0.484,2.965c0,0,0.916-2.264-0.971-5.336c0,0,0.015,0.869,0.107,1.239
						c0.053,0.216-1.887-6.95-5.442-9.753c0,0,0.811,1.132,1.241,2.586c0,0-0.865-1.617-3.502-2.695c0,0,1.291,0.809,1.615,1.511
						c0,0-2.209-1.833-4.578-2.479c0,0,1.668,0.916,2.045,1.455c0,0-11.264-6.251-19.722-0.646
						C85.318,197.012,79.121,205.31,82.03,213.285z"/>
					<g>
						<path fill="#B2806E" d="M127.508,207.683c0.003-0.017,0.003-0.044,0.005-0.058
							C127.513,207.625,127.511,207.647,127.508,207.683z"/>
						<path fill="#B2806E" d="M169.522,189.835c-9.785-4.576-18.525-2.355-18.525-2.355c1.833,0.01,3.66,1.097,3.66,1.097
							c-5.385-1.105-11.106,0.915-11.106,0.915c2.052-0.528,4.528-0.086,4.528-0.086c-8.837-0.366-12.913,6.779-12.913,6.779
							c-0.21-1.08-0.091-3.181-0.091-3.181c-0.977,1.396-0.993,4.846-0.993,4.846c-0.214-0.271-1.872-3.188-1.872-3.188
							c-0.113,0.914,0.252,3.395,0.252,3.395c-0.802-0.975-1.6-3.402-1.6-3.402c-0.072,3.771,1.106,4.909,1.106,4.909
							c-2.197-1.79-2.298-3.622-2.298-3.622c-0.085,6.251,2.539,9.442,2.539,9.442c-1.287-1.298-2.25-2.759-2.25-2.759
							c-1.012,8.562,0.75,12.129,0.75,12.129c-3.268-3.749-3.229-6.647-3.202-7.071c-0.136,1.251,0.813,7.252,3.513,9.66
							c2.734,2.438,4.814,6.812,4.814,6.812c-1.924-3.243-5.957-5.204-5.957-5.204c5.801,3.909,7.066,9.896,7.066,9.896
							s1.467-2.74,1.809-6.296c0.342-3.556,5.543-9.348,5.543-9.348c-0.49,0.968-2.311,9.689-2.146,9.043
							c0.283-1.108,1.963-4.355,2.448-4.514c0.483-0.161,4.368-1.111,4.368-1.111s-1.294,0.317-1.773-0.494
							c-0.481-0.811,3.597-8.226,6.035-11.285c2.441-3.06,8.736-1.251,14.549,0.72c5.809,1.968,6.275,5.364,6.275,5.364
							c-3.578,4.511-22.014,5.872-22.014,5.872l-4.368,0.786l3.169,2.011l-3.66-0.774c12.252,6.852,20.665,5.062,20.665,5.062
							c-11.744-0.273-15.39-3.74-15.39-3.74c5.261,3.476,14.645,2.013,17.881,1.489c3.234-0.521,8.011-7.396,8.011-7.396
							c3.339,0.662,15.177,4.279,15.177,4.279C195.231,199.771,179.309,194.411,169.522,189.835z M172.042,203.859
							c-6.988-3.699-17.669-1.599-17.669-1.599c10.491-7.708,17.891,0.091,17.891,0.091c-4.823-2.774-8.667-2.266-8.667-2.266
							C169.698,200.882,172.042,203.859,172.042,203.859z M156.267,219.527c-3.15-0.257-3.387-1.43-3.387-1.43
							c0.121,0.039,7.676,0.199,11.85-1.762C164.729,216.336,159.419,219.787,156.267,219.527z"/>
					</g>
					<path fill="#B2806E" d="M103.908,320.949c0,0,16.921-22.094,44.294-4.633c0,0-14.657-12.289-27.805-9.916
						C120.397,306.4,111.347,307.263,103.908,320.949z"/>
					<path fill="#B2806E" d="M133.545,292.82c0,0-17.351,6.357-27.267,3.664c-0.091,0.141,0,0,0,0l-2.37-1.614
						c0,0,4.85,3.987,6.144,4.526c0,0,2.045,3.556,2.91,3.985c0.859,0.433,9.053-0.647,12.393-3.772L133.545,292.82z"/>
					<path fill="#B2806E" d="M135.269,242.383c0,0-6.304,0-10.668-2.424c0,0,6.625-2.264,7.597-2.101
						C133.169,238.019,133.814,241.413,135.269,242.383z"/>
					<path fill="#B2806E" d="M105.523,332.698c0,0,6.469-4.313,9.917-4.098c0,0,4.527,2.156,5.171,1.078
						c0.647-1.078,12.501-8.621,18.106-8.404c5.604,0.214,29.1,3.665,45.912-10.133c0,0,17.244-25.003,3.018-46.989l-15.088-5.603
						c0,0,31.468,0.862,38.367-13.582c0,0,8.082-17.781-8.623-42.029c0,0-9.483-16.814-43.539-21.125c0,0,18.104-0.859,30.605,6.037
						c0,0-5.602-7.761-13.794-9.485c0,0-8.188-49.574,27.589-49.574c35.781,0,42.678,28.452,43.539,41.384
						c0.865,12.934,12.504,26.729,12.504,26.729s9.484,18.751,6.682,19.936c-2.803,1.188-18.752,6.36-17.459,11.103
						c1.293,4.741-0.432,11.64-0.432,11.64s-13.793,9.483-10.346,15.95c3.447,6.467,5.174,11.207,1.293,16.38
						c-3.881,5.175-5.002,9.296-4.571,10.588c0.435,1.294,6.298,29.073-24.312,39.854c-30.607,10.776-38.798,12.068-38.798,12.068
						s-33.624,0.431-39.659,3.449c-6.037,3.016-12.504,0-12.504,0S112.206,340.025,105.523,332.698"/>
					<path fill="#B2806E" d="M153.376,277.303c0,0,7.434,7.437,5.334,13.255c-2.102,5.817-4.525,8.243-4.525,8.243
						S158.548,292.498,153.376,277.303z"/>
					<path fill="#B2806E" d="M113.284,140.861c0,0-17.137,16.814-19.4,44.618c0,0,7.275,0,11.965,0.323
						c0,0-12.611,1.617-18.43,8.729c-5.82,7.113,0,0,0,0s1.938-20.692,4.527-28.774c2.586-8.082,13.254-26.512,16.166-27.159
						C111.021,137.952,113.284,140.861,113.284,140.861"/>
					<path fill="#B2806E" d="M80.09,267.817c-0.28,0.076,6.899,16.597,8.407,18.969c1.508,2.37,6.251,11.854,9.268,29.312
						c3.02,17.459,9.701,18.97,9.701,18.97l1.292-2.804c-10.343-6.467-8.621-23.062-8.837-26.295
						c-0.217-3.233-4.959-13.887-9.699-27.159c-3.773-10.563,1.398-19.615,1.398-19.615S86.288,266.147,80.09,267.817z"/>
					<path fill="#B2806E" d="M114.901,203.908c0,0,4.527,6.79,2.262,10.994c-2.262,4.203-6.195,14.495-6.249,15.733
						c-0.056,1.241,0,0,0,0s-10.563,9.809-10.483,17.891c0.082,8.084,0,0,0,0l2.184,0.485c0,0,1.617-8.407,6.629-13.579
						c0,0,0.809,1.939,1.615,3.231c0,0,0.325-8.891,5.01-16.326C120.558,214.902,120.235,210.375,114.901,203.908z"/>
					<path fill="#B2806E" d="M254.896,229.288c0,0,10.508-10.183,16.004-8.082c5.498,2.101,8.893,23.763-0.969,36.051
						c0,0,6.141-16.652-5.496-29.261C264.436,227.996,259.583,226.542,254.896,229.288z"/>
					<path fill="#B2806E" d="M243.042,258.551c0,0-1.24-3.234,3.771-5.66c5.011-2.424,5.334-3.556,5.174-5.656
						c-0.163-2.103-2.426-8.245,0.484-9.216c2.91-0.969,10.75,2.426,13.82,11.64c0,0,5.57,12.999-11.639,8.082
						c-0.566-0.161-1.047-0.591-1.047-0.591S248.484,264.532,243.042,258.551"/>
					<path fill="#B2806E" d="M269.525,257.982c0,0-3.879,3.801-8.164,4.689c-4.282,0.889-5.819,3.152-3.717,4.526
						C259.747,268.573,269.122,262.106,269.525,257.982z"/>
					<path fill="#B2806E" d="M152.515,341.104c0,0,26.941-5.815,39.443-9.268c12.5-3.451,39.875-30.607,39.875-30.607
						s1.938-25.436,0,0c-1.94,25.434-39.66,104.109-39.66,104.109l19.185-73.934l-57.12,49.792l14.229-22.633l-29.316-12.505
						L152.515,341.104z"/>
					<path fill="#B2806E" d="M194.112,427.536c0,0-9.807,31.793-13.254,34.38c-3.451,2.586-5.658,0.162-5.658,0.162
						s-13.689-0.969-17.138-2.264c-3.446-1.295-5.768-5.119-5.335-31.416c0,0,3.989,21.825,6.146,25.271
						c0,0,14.763,3.771,17.779,2.911L194.112,427.536z"/>
					<path fill="#B2806E" d="M134.623,337.871c0.862,1.291,15.088,21.984,14.226,100.441c0,0,0.862,14.657,3.879,18.971
						c3.018,4.311,0,0,0,0l-3.879-7.653c0,0-6.25-22.847-5.818-42.677c0.43-19.831,1.076-15.628,1.076-15.628l-2.586-17.674
						c0,0-0.431-21.123-9.914-35.78H134.623z"/>
					<path fill="#B2806E" d="M231.616,281.182c0,0,6.145,10.993,20.047,7.762c0,0-3.788,0.183-6.038-1.442
						c0,0,6.361-0.175,7.654-0.823c0,0,0.324,49.146-5.819,78.891l7.113-34.594v44.292c0,0,6.145-11.312,6.788-20.044
						c0.646-8.729-0.321-31.359-1.293-38.476c-0.971-7.113-1.293-15.195-1.293-15.195l-2.264-20.368l-0.322-7.114
						c0,0-12.619,9.51-18.439,5.307c-5.82-4.202-5.484-8.539-5.484-8.539L231.616,281.182z"/>
					<path fill="#010101" d="M106.602,143.448c0,0-17.245,23.28-17.245,48.282c0,0,1.512-1.076,3.235-1.293
						c0,0-11.856,7.76-10.777,19.615c1.078,11.855,6.034,10.562,1.508,28.451c-4.526,17.891-3.446,27.806,0.862,36.211
						c4.311,8.407,14.226,36.426,15.088,42.68c0.861,6.25,6.467,18.32,10.561,17.242c4.098-1.078,10.994-3.449,14.658-1.291
						c0,0,2.947-2.973,6.035-4.096c7.113-2.587,28.884-3.021,42.248-2.156c13.363,0.861,46.984-2.153,59.059-25.864
						c0,0,4.311-8.625,2.803-16.6c0,0,6.25,23.925-22.203,39.877L160.92,373.22l16.166-20.262l-5.389,3.018
						c0,0-25.863-8.839-30.606-10.778c0,0,4.954-1.506,6.032-2.154c0,0-23.925-1.939-30.821-4.74c0,0-14.655,1.937-18.106-18.969
						c0,0-10.775-34.92-15.518-43.109c-4.745-8.19-5.928-21.016-1.511-37.288c0,0,3.776-11.426,1.835-17.461
						c-3.367-10.479-5.281-17.783,3.988-28.235C86.989,193.24,89.356,162.633,106.602,143.448z"/>
					<path fill="#010101" d="M115.655,255.64c0,0,0.213-2.048,1.291-2.264c1.078-0.214,4.529-1.186,6.576-2.693
						c2.047-1.511,7.436-1.94,8.838,3.017c0,0-0.539-1.831-2.156-2.264c0,0,2.695,3.667,1.508,4.743
						c-1.186,1.078-5.173,2.693-8.082-3.34c0,0-3.556,1.292-5.496,1.076C118.134,253.915,116.73,253.592,115.655,255.64z"/>
					<path fill="#010101" d="M99.462,250.629c0,0,1.375-0.565,2.344,0.403c0.971,0.97,6.307,5.335,7.438,5.738l-2.022-0.403
						c0,0-1.938,0.566-2.667,0.484c-0.727-0.081-3.071-0.97-3.152-5.253C101.401,251.599,101.646,250.629,99.462,250.629z"/>
					<path fill="#010101" d="M138.503,244.969c0,0,6.508,6.959,2.587,12.718c-3.448,5.065-11.479,3.611-12.341,3.396
						c0,0,9.213,5.011,13.417-3.396C142.166,257.687,145.294,251.436,138.503,244.969z"/>
					<path fill="#010101" d="M100.188,244.485c0,0-3.637,3.232-2.262,8.002s5.173,8.649,7.516,8.164
						c2.344-0.485,3.639-1.052,3.639-1.052s-1.697,1.778-3.721,1.698c-2.018-0.081-5.576-2.021-7.919-8.568
						C97.441,252.729,95.581,247.718,100.188,244.485z"/>
					<path fill="#010101" d="M147.45,290.021c-3.234-1.188-13.58-4.744-16.814-6.576c-3.232-1.831-10.481-5.98-16.14-2.424
						c0,0-4.121-0.592-6.491-1.024c-2.373-0.432-7.868,0-6.251,10.237c0,0-0.755,1.187-1.185,1.295c0,0-1.404-1.402-1.404-1.939
						c0-0.322-0.213,3.881,2.048,6.357c0,0-0.644-1.725-0.106-2.909c0,0,1.293-0.755,2.156-0.539c0,0,1.781-5.362,5.549-4.957
						c3.259,0.351,5.685,3.177,11.8,0.431c2.685-1.205,13.366,0,16.384,1.186c3.017,1.188,5.066,1.725,5.066,1.725l-7.115,1.403
						c0,0,10.456-0.972,11.639-0.972c1.188,0,1.188,0.216,0.648,1.293C147.233,292.605,150.683,291.204,147.45,290.021z
						 M118.134,286.626c-2.588,0.922-5.441-0.219-6.195-0.433c-0.755-0.215-6.846-1.563-9.215,2.855c0,0-1.617-9.16,4.311-8.299
						c4.664,0.68,6.359,1.348,7.436,1.238c0,0,6.413-5.334,19.938,4.688C134.407,286.677,125.247,284.091,118.134,286.626z"/>
					<path fill="#010101" d="M103.153,293.79c0,0,1.543,4.132,13.256,2.694c11.426-1.4,16.381-3.447,16.381-3.447
						s-8.082,3.878-16.381,4.201C108.823,297.535,105.202,297.993,103.153,293.79z"/>
					<path fill="#010101" d="M106.171,318.686c0,0,14.227-14.871,38.153-4.739C144.324,313.945,121.526,299.934,106.171,318.686z"/>
					<path fill="#010101" d="M82.407,201.08c0,0,3.881-5.336,7.678-5.416c0,0-2.424,0.243-4.203,2.669c0,0,3.638-3.315,8.811-2.346
						c0,0-2.666-0.403-4.281,0.729c0,0,4.363-1.212,9.456,0.889c0,0-1.617-0.97-3.558-1.374c0,0,3.879,0.162,7.84,3.475
						c0,0-0.564-0.969-0.97-1.372c0,0,3.071,2.504,4.606,5.656c0,0-0.727-2.909-1.372-3.638c0,0,2.344,2.748,2.829,4.446
						c0,0-1.051-3.718-2.829-5.578c0,0,3.152,2.911,4.524,6.709c0,0-0.563-3.798-2.666-6.467c0,0,1.697,1.618,2.586,4.446
						c0,0-0.322-2.989-1.049-4.203c0,0,1.939,2.184,2.1,8.244c0,0-0.16-2.181-0.809-3.232c0,0,0.406,1.778,0.244,3.072
						c0,0-0.727-2.264-2.021-4.041c0,0,0.566,1.938,0.323,3.396c0,0-0.485-1.86-1.294-2.749c0,0,0.275,1.792,0.405,2.181
						c0.08,0.243-0.405-1.535-3.154-3.232c0,0,1.456,1.294,2.183,3.072c0,0-1.777-2.021-8.082-2.749c0,0,3.639,0.565,5.738,2.183
						c0,0-2.828-1.212-4.525-1.374c0,0,2.1,0.971,2.426,1.454c0,0-1.86-1.049-4.204-1.454c0,0,1.778,1.294,2.103,1.617
						c0.241,0.24-4.689-1.94-8.649-1.052c0,0,3.476-0.969,4.606-0.726c1.132,0.242,0.323,0.16,0.323,0.16s-4.93-1.294-8.728,0.405
						c0,0,1.857-1.294,2.424-1.375c0,0-3.312,0.484-6.062,3.396c0,0,0.809-1.94,1.133-2.103c0,0-2.83,2.346-3.396,4.203l0.565-1.857
						c0,0-2.266,3.393-2.103,4.524C81.519,212.799,80.79,203.828,82.407,201.08z"/>
					<path fill="#010101" d="M187.108,204.018c0,0-9.27-10.238-16.705-12.824c0,0,5.498,2.586,8.623,6.142
						c0,0-6.574-6.36-17.244-8.515c0,0,3.449,1.186,4.095,1.834c0,0-4.097-1.509-10.022-3.019c0,0,5.387,2.586,7.111,3.558
						c1.729,0.969,2.374,1.615,2.374,1.615s-9.593-2.048-15.09-3.449c0,0,2.265,0.646,2.589,0.97c0,0-4.206-0.646-7.762,0.325
						c0,0,3.918-0.056,4.42,0.32c0.43,0.325-6.037-0.214-9.485,1.078c0,0,3.448-0.43,4.419-0.106c0,0-5.495,0.755-7.867,4.634
						c0,0,0.755-1.832,1.078-2.262c0,0-2.156,2.154-2.479,5.71c0,0-0.862-3.879-0.539-4.524c0,0-0.753,4.203,0.647,7.004
						c0,0-2.265-4.85-2.371-5.389c0,0,0.861,4.203,1.185,4.958c0,0-2.8-5.065-2.909-5.604c0,0,1.883,5.318,2.156,6.144
						c0.109,0.323-3.019-3.987-3.019-3.987s0.862,5.063,4.311,7.65c0,0-2.442-3.531-2.587-4.095
						c-0.106-0.431,2.803,3.019,2.803,3.019l-1.078-2.264l1.725,1.94l-0.862-2.156l1.617,1.94c0,0-0.755-3.234-0.216-5.282
						c0,0-0.215,2.909,0.971,3.987c0,0,4.634,0.756,8.621-1.724c0,0-2.803,0.323-4.526,0.646c0,0,7.976-2.154,9.915-4.633
						c0,0-1.4,0.539-2.911,0.432c0,0,8.517-2.803,9.81-3.881c0,0-2.802,2.479-3.557,2.803c0,0,4.635-2.586,5.818-3.232l-0.859,1.615
						c0,0,4.859-1.104,10.02,1.51c0,0-4.094-2.372-4.955-2.695c0,0,6.303,1.334,11.639,5.389c0,0-4.204-4.337-8.947-5.818
						c0,0,7.545,2.262,13.152,7.866c0,0-5.716-5.712-8.516-6.897c0,0,6.68,2.803,10.99,7.221l-2.047-2.801
						C180.642,199.168,184.415,200.893,187.108,204.018z"/>
					<path fill="#010101" d="M116.301,206.711c0,0,2.479,5.496,0.862,8.191c-1.615,2.695-5.816,11.423-6.249,15.733
						c-0.433,4.31-0.433,4.311-0.433,4.311s2.156-12.608,7.221-18.966C117.702,215.98,119.749,212.962,116.301,206.711z"/>
					<path fill="#010101" d="M100.353,221.369c0,0-5.092,0.403-9.376-1.134c0,0,0.078-5.496,3.474-7.437
						c0,0,0.646-0.726,6.709-1.212c6.062-0.485,11.477,1.052,13.014,5.578c0,0,0.566,3.396-4.121,3.638c0,0,4.364-0.325,4.77-0.809
						c1.045-1.257,0.483-3.96-2.186-6.467c0,0,1.943,0.97,2.587,1.697c0,0-2.989-4.769-11.558-5.82
						c-8.569-1.05-15.277,1.697-15.68,10.59c0,0,0.726-5.497,3.961-7.518c0,0-3.315,5.497-2.184,9.699c0,0,0.242,0.162,0.485-0.646
						C90.248,221.529,94.289,222.581,100.353,221.369z"/>
					<path fill="#010101" d="M91.972,217.921"/>
					<path fill="#010101" d="M158.873,215.912c0,0-7.195,1.333-10.995-0.471c0,0,3.018-8.191,7.867-9.916
						c4.85-1.724,13.471,0.323,17.781,4.311c0,0-1.398,3.019-3.984,3.665c0,0,4.094-0.433,6.467-2.909c0,0-0.326-0.539-0.972-1.509
						c0,0,2.021,0.645,4.741,2.585c0,0-9.591-9.914-21.23-9.052c0,0-7.759,0.214-12.395,6.788c0,0,2.158-2.478,4.636-2.909
						c0,0-4.634,7.112-4.85,11.103C145.939,217.598,154.454,218.499,158.873,215.912z"/>
					<path fill="#010101" d="M252.632,222.984c0,0,5.604-7.327,13.259-6.145c5.471,0.848,12.771,3.234,10.021,26.352
						c0,0-1.779,22.47-17.136,28.776c0,0-10.237,6.195-21.338,7.113c0,0-2.748-2.264-3.231-4.366c0,0,0.16,5.497,1.938,7.761
						s3.719,4.851,8.244,5.174c0,0-2.908,0-6.627-4.526c0,0,6.684,7.545,10.67-3.342c0,0,17.139-5.496,24.25-20.367
						c0,0,4.202-8.838,5.063-25.22c0,0,0.433-15.413-9.377-17.89C268.368,216.304,258.993,213.068,252.632,222.984z"/>
					<path fill="#010101" d="M257.27,227.62c0.905-0.78,9.629-8.521,14.334-5.498c0,0,9.594,13.363,0.754,29.313
						c0,0,3.231-17.888-8.515-26.079C263.843,225.356,260.501,225.68,257.27,227.62z"/>
					<path fill="#010101" d="M264.489,245.51c0.188,0.284-6.41-9.631-10.482-8.623c-3.477,0.862-3.42,4.311-2.987,6.144
						c0.43,1.832,0.401,6.062-2.48,8.082c-3.082,2.163-8.191,5.013-6.17,8.568c1.564,2.757,7.572,2.534,11.238-2.531
						c0,0-7.117,6.491-10.564,1.401c0,0-0.754-3.314,4.527-5.604c4.971-2.156,7.115-4.204,5.066-9.377c0,0-2.105-5.389,1.612-5.711
						C257.257,237.597,263.223,243.597,264.489,245.51z"/>
					<path fill="#010101" d="M130.097,339.381c0.324,0.969,16.166,27.48,16.812,89.881c0,0,3.557-57.228-12.611-89.881H130.097
						L130.097,339.381z"/>
					<path fill="#010101" d="M87.742,189.197c0,0-4.041-1.292-2.101-6.95c0,0,1.129-2.587,0.482-5.981
						c-0.646-3.395-0.969-7.922,2.912-11.64c0,0,1.615-1.294,1.292-3.071c-0.323-1.778,1.455-4.527,2.424-5.658
						c0.972-1.132,1.457-8.405,0.972-9.214c-0.486-0.809-3.072-6.307,0.322-9.699c0,0-0.322-4.043,2.747-5.175
						c0,0,2.266-4.201,6.146-3.448c0,0-2.047-1.186-3.88-0.753c0,0,0.969-6.574,3.341-7.438c2.371-0.862,2.693-3.556,2.693-4.526
						c0-0.969,0-5.063,3.236-5.818c0,0-0.217-6.36,4.955-6.467c0,0,1.08-2.157,1.295-5.605c0.207-3.333,3.034-6.065,6.826-5.268
						c0.13,0.029,0.262,0.061,0.393,0.095c3.986,1.079,2.803-4.85,7.221-3.448c0,0,2.695-3.341,6.898-1.724
						c0,0,1.94,0.971,3.232-0.433c1.295-1.398,5.496-4.095,9.701-2.156c0,0,2.478,0.648,4.309-0.537
						c1.834-1.185,4.205-1.831,6.576-0.216c0,0,1.829-2.8,4.524-2.261c0,0,2.909-4.42,7.114-1.834c0,0,2.369-0.108,3.23,1.401
						c0,0,2.373-0.432,4.639,0.969c0,0,0.859,0.862,1.828,0.323c0.972-0.539,5.068-2.693,8.193,0.109c0,0,1.832,0.971,3.449,0.106
						c1.615-0.861,5.279-2.909,7.865-1.075c2.586,1.831,2.912,2.154,3.881,2.154s4.42-0.54,6.357,2.477c0,0,2.373-0.43,3.666-0.106
						c0,0,2.479-2.478,5.389,0.861c0,0,4.635-1.508,7.543,3.126c0,0,3.34-0.323,4.096,1.617c0,0,3.125,1.292,3.879,3.232
						c0,0,5.391,1.294,6.682,4.526c0,0,0.865,0.323,2.267,0.433c1.397,0.106,4.312,0.43,4.957,5.065c0,0,2.049,3.771,3.985,4.417
						c1.941,0.646,5.929,1.401,7.007,3.771c0,0,3.879,1.08,5.711,3.128c1.832,2.047,3.344,2.047,3.666,2.154
						c0.321,0.108,4.633,0.323,6.034,5.279c0,0,1.722,2.264,1.722,4.852c0,2.587,1.295,3.663,1.295,3.663s3.451,3.557,3.021,7.114
						c0,0,1.399,2.154,0.646,5.28c-0.754,3.125-1.185,5.281-0.541,6.144c0.646,0.862,3.881,2.263,4.099,4.634
						c0,0,4.203,0.647,4.633,5.065c0,0,2.912,2.693,2.156,6.467c-0.754,3.771-0.97,4.526,0.106,5.603
						c1.078,1.078,3.125,2.803,2.047,7.329c0,0-0.539,2.695-0.213,4.312c0.321,1.615-0.647,3.878-1.404,4.956
						c0,0,1.617,4.202-0.106,7.868c0,0,2.373,6.574-1.291,11.747c-3.664,5.172-3.664,7.545-3.559,7.975
						c0.106,0.433,0.756,2.911-1.291,4.959c0,0-0.648,1.831-0.539,3.448c0.108,1.615,0.86,3.878-1.402,6.142
						c-2.266,2.264-3.34,3.558-3.34,3.558l-4.744,2.586c0,0,2.695-16.057-8.188-20.692c0,0-6.145-1.078-8.62,0.539
						c-2.482,1.617-11.425-5.065-11.855-9.053c-0.434-3.988-2.264-7.437-2.91-7.976c0,0,1.725,1.94,1.398,5.603
						c0,0,0.217-4.309-3.125-7.326c-3.34-3.019-4.851-6.897-4.851-6.897s0.972,3.771,1.94,5.065c0,0-4.098-5.497-4.526-7.438
						c0,0,0.858,4.742,1.291,5.389c0,0-2.905-4.095-5.062-7.327c-2.154-3.234-4.959-4.852-4.959-4.852s2.371,2.05,3.233,4.097
						c0,0-2.694-2.479-4.957-4.526c-2.266-2.048-3.125-7.329-3.018-8.73c0,0-0.861,4.526,1.399,7.868c0,0-4.85-5.714-1.832-13.687
						c0,0-0.43,3.556,0,4.85c0,0,0.539-9.915,7.006-12.718c0,0,0.431-2.909-1.834-4.201c-2.262-1.295-8.514-5.605-5.711-13.257
						c0,0-10.992,0.753-14.117-2.909c-3.125-3.667-5.713-4.959-7.761-4.529c-2.047,0.433-5.926,0.972-9.051-1.185
						c0,0-7.869,3.017-14.443,0c0,0-1.834-1.186-4.85-0.216c-3.017,0.971-7.006,0.646-8.729-0.107c0,0-6.035,3.342-11.532,1.617
						c0,0-2.048,1.508-4.311,2.264c-2.263,0.753-10.779,4.311-15.194,0.969c0,0-6.145,0-8.299,1.294
						c-2.156,1.292-7.328,3.665-11.639,0.107c0,0,1.4,1.724,3.555,2.263c0,0-4.203,0.539-6.898,0.862
						c-2.691,0.323-6.357,7.222-7.004,8.298c-0.646,1.078-11.533,20.802-12.179,30.715L87.742,189.197z"/>
					<path fill="#010101" d="M108.595,256.771c0.404,0.317-8.728-4.201-8.728-9.213c0-5.013,6.734-14.282,11.047-16.922l0.27,1.078
						c0,0-8.569,5.496-10.185,16.004C100.999,247.718,99.382,249.497,108.595,256.771z"/>
					<path fill="#010101" d="M117.972,232.2c0,0,7.922-8.245,7.598-12.448c-0.322-4.204-0.646-10.669-0.646-10.669
						s2.747,9.052,1.452,13.093C125.087,226.219,117.972,232.2,117.972,232.2z"/>
					<path fill="#010101" d="M268.152,259.52c0.345-0.378-8.084,9.699-10.022,6.952C256.189,263.724,263.141,265.016,268.152,259.52
						z"/>
					<path fill="#010101" d="M259.641,363.736c0,0,2.586-28.449-2.158-53.023l-2.586,18.537c0,0,1.727-37.075,0.865-53.025
						l3.016-4.257c0,0,0,38.312,1.725,46.072c1.725,7.759,3.016,28.452,2.586,31.902
						C262.654,353.391,259.641,363.736,259.641,363.736z"/>
					<path fill="#010101" d="M262.874,347.885c0,0-7.549,19.623-7.979,20.917c-0.43,1.292-21.016,56.255-74.686,90.527
						c0,0-20.367,2.587-29.098-6.467c0,0-9.59-31.36-5.279-56.364l-4.743-25.003c0,0-4.312,3.017-7.329,8.621
						c0,0-24.573,10.776-46.558,16.812c-21.987,6.035-43.54,11.205-47.421,16.812c0,0-22.416,12.071-23.278,16.383
						c-0.862,4.311-18.106,32.33-16.382,76.729c0,0,6.037-56.471,18.536-74.145c0,0,4.312,17.244,4.312,15.949
						c0-1.293-3.878-17.244-2.587-19.83c1.293-2.586,17.675-12.069,20.693-12.932c3.016-0.864-2.926,4.824,0.09,3.103
						c3.018-1.725,8.963-8.274,8.963-8.274s26.726-8.192,37.506-10.776c10.777-2.589,45.693-15.091,45.693-15.091
						s4.742,18.537,5.604,19.831c0,0-3.448-18.535-3.017-19.831c0.428-1.292,3.449-6.465,3.449-6.465s1.291,20.259,2.586,22.414
						c0,0,1.078,32.98,7.865,54.644c0,0,8.73,9.051,30.717,7.112c0,0,44.186-16.061,77.381-90.206c0,0,5.064-16.49,6.68-16.49
						c1.617,0,9.053,6.791,9.053,6.791s-1.074,6.25-6.25,17.89c0,0,6.467-7.545,10.777-17.89c0,0,51.084,16.812,62.078,25.865
						c10.994,9.053,20.109,16.454,21.338,15.843c1.941-0.971,7.545,3.341,7.545,3.341s69.406,49.576,92.037,62.615
						c0,0-90.854-65.312-93.439-67.896c-2.584-2.585-5.817-5.172-7.76-5.819c-1.938-0.646-11.959-7.111-15.193-9.375
						c-3.231-2.264-23.928-15.196-65.635-27.159C279.146,360.071,272.247,350.146,262.874,347.885z"/>
					<g>
						<g>
							<defs>
								<path id="SVGID_5_" d="M146.964,215.817c0,0,3.232-10.294,6.682-11.37c3.449-1.078,14.98-1.185,20.801,5.55l-0.646,1.617
									C173.8,211.614,159.735,219.05,146.964,215.817z"/>
							</defs>
							<clipPath id="SVGID_6_">
								<use xlink:href="#SVGID_5_"  overflow="visible"/>
							</clipPath>
							<circle clip-path="url(#SVGID_6_)" fill="#010101" cx="158.765" cy="210.267" r="6.493"/>
						</g>
						<g>
							<g>
								<defs>
									<path id="SVGID_7_" d="M90.114,220.561c0,0,0.16-7.543,3.932-8.946c3.773-1.401,12.719-1.671,15.145-0.214
										c2.424,1.454,4.902,4.147,5.228,5.495c0.321,1.348-0.271,2.856-0.271,2.856S103.854,223.793,90.114,220.561z"/>
								</defs>
								<clipPath id="SVGID_8_">
									<use xlink:href="#SVGID_7_"  overflow="visible"/>
								</clipPath>
								<path clip-path="url(#SVGID_8_)" fill="#010101" d="M107.437,215.98c0,3.495-2.835,6.331-6.333,6.331
									c-3.493,0-6.329-2.836-6.329-6.331c0-3.496,2.836-6.331,6.329-6.331C104.602,209.649,107.437,212.484,107.437,215.98z"/>
							</g>
							<path fill="#A66443" d="M158.44,214.48c-2.391,0-4.449-1.422-5.443-3.487c0.42,2.787,2.755,4.926,5.582,4.926
								c3.123,0,5.652-2.604,5.656-5.815C163.462,212.641,161.159,214.48,158.44,214.48z"/>
							<path fill="#A66443" d="M158.481,213.488c-1.887,0-3.514-1.123-4.297-2.755c0.33,2.204,2.178,3.891,4.408,3.891
								c2.467,0,4.465-2.056,4.467-4.592C162.449,212.036,160.632,213.488,158.481,213.488z"/>
							<path fill="#A66443" d="M100.674,220.194c-2.388,0-4.45-1.424-5.442-3.49c0.42,2.79,2.758,4.926,5.582,4.926
								c3.121,0,5.652-2.603,5.658-5.814C105.694,218.353,103.396,220.194,100.674,220.194z"/>
							<path fill="#A66443" d="M100.717,219.2c-1.887,0-3.517-1.123-4.298-2.755c0.333,2.203,2.177,3.891,4.409,3.891
								c2.467,0,4.465-2.056,4.467-4.593C104.684,217.748,102.866,219.2,100.717,219.2z"/>
							<path fill="#FFFFFF" d="M103.306,214.729c-0.052,0.002-0.102,0.006-0.152,0.01c-0.045,0.002-0.076,0.021-0.119,0.029
								c-0.048-0.27-0.148-0.537-0.361-0.788c-0.03-0.039-0.062-0.078-0.096-0.117c-0.938-1.128-2.77-0.175-2.77,1.146
								c0,1.062,1.179,1.864,2.129,1.562c0.167,0.453,0.57,0.821,1.217,0.866c0.051,0.005,0.101,0.007,0.152,0.011
								C105.058,217.566,105.058,214.607,103.306,214.729z"/>
							<path fill="#FFFFFF" d="M159.447,208.822c-0.498-0.262-0.831-0.232-1.348-0.05c-0.835,0.301-0.835,1.396,0,1.695
								c0.517,0.186,0.85,0.214,1.348-0.049C160.048,210.102,160.048,209.141,159.447,208.822z"/>
							<path fill="#FFFFFF" d="M162.256,208.254c-0.284-0.08-0.565-0.185-0.851-0.259c-0.839-0.219-1.629,0.718-1.146,1.491
								c0.429,0.689,1.245,0.842,1.996,0.638C163.192,209.873,163.171,208.518,162.256,208.254z"/>
							<path fill="#5C4743" d="M106.979,133.426c0,0,1.133-5.981,5.011-6.952c3.878-0.97,4.85-6.142,5.981-7.597
								c1.131-1.455,8.244-8.084,14.226-6.952c0,0-2.101-1.615-4.687-0.97c0,0,4.523,0.486,7.921-0.322
								c3.396-0.809,3.878-2.749,4.526-5.175c0,0,0.486,1.779,0.16,2.911c0,0,3.881-3.395,4.527-5.498
								c0.648-2.101,6.307-7.11,11.156-5.495c0,0-4.689-0.323-6.307,2.101c0,0,6.629-2.907,10.67,0.162c0,0-1.777-0.162-2.588-0.162
								c0,0,6.629,0,9.539,1.94c0,0-1.615-2.424-5.656-3.396c0,0,5.818,2.264,7.756,2.912c1.941,0.646,6.63,0.969,6.63-3.719
								c0,0,0.323,1.938-2.589,2.262c0,0,2.912-1.455,1.78-5.01c0,0,4.85,0.969,4.85,5.335c0,0-0.483-3.881-2.585-5.498
								c0,0,5.011,2.266,5.334,6.144c0,0,5.658,0.646,8.244,2.749c0,0-4.041,0.483-4.85,4.041c0,0,2.749-3.88,9.053-3.558
								c0,0-2.91,0.646-3.232,1.455c0,0,6.143,0.485,7.758,5.335c0,0-0.484-4.041-1.615-4.85c0,0,5.658,2.103,7.273,7.275
								c0,0-1.293-0.485-2.586-0.485c0,0,5.817,1.455,7.112,3.718c1.293,2.264,2.588,4.041,5.174,4.041s6.789,2.749,7.437,4.204
								c0,0-1.939-1.293-3.396-1.617c0,0,1.615,1.617,3.882,3.718c2.26,2.103,5.012,1.294,6.301,2.911
								c1.295,1.617,1.942,5.333,1.942,5.333s-1.133-2.909-2.266-3.878c0,0,1.295,3.232,1.456,5.495c0,0,6.468,1.778,6.306-2.424
								c0,0,0,2.747-1.617,3.718c0,0,3.72-2.263,3.07-6.952c0,0,0.485,3.718,0.647,4.689c0,0,5.496,0.646,5.174-2.104
								c-0.325-2.747-3.071-5.819-5.981-5.819c0,0,9.858-1.777,12.933,4.526c0,0,3.881-0.809,5.981,0.97c0,0-1.455,0.647-1.94,0.809
								c0,0,4.043,0,5.336,2.909c0,0-2.265,3.395-0.97,6.467c0,0-0.323-1.615,0.646-3.072c0,0-0.812,4.527,2.1,6.953
								c2.91,2.424,3.72,5.012,3.72,6.627c0,0-0.324-2.749-0.81-4.203c-0.483-1.455-0.324-0.807-0.324-0.807
								s4.689,3.718,4.527,8.082c-0.16,4.363,3.717,7.112,3.717,7.112s-1.291-2.101-1.453-4.041c0,0,0.81,1.94,4.041,4.364
								c3.234,2.426,5.66,6.95,5.66,9.214c0,0,0.644-2.424-0.162-4.041c0,0,4.525,9.053,1.453,13.419
								c-3.069,4.364-3.231,7.273-2.746,8.242c0,0,0.322-1.615,1.293-3.393c0,0-1.778,4.688-0.323,7.113
								c1.455,2.424,1.455,7.112,1.293,8.891c0,0-0.164-2.749-1.939-4.689c0,0,1.775,5.012-0.809,8.73
								c-2.588,3.718-0.648,6.467,0,7.112c0.646,0.648,1.455,7.922-0.322,10.185c-1.779,2.264,1.455,5.819,1.615,8.245
								c0,0,4.608-1.615,5.092-3.798c0.486-2.184,1.213-3.799,0.162-9.619l0.645,1.292c0,0,1.699-1.372,1.215-4.041
								c-0.486-2.667-1.293-2.587,0.162-6.708c0,0-0.641,1.42-0.256,3.064c0.027,0.108,0.059,0.22,0.094,0.329
								c0.564,1.779,1.777-3.879,3.234-5.899c1.455-2.021,3.879-5.82,1.615-9.941c0,0-0.729,0.889-1.373,1.372
								c0,0,4.203-5.011,0.727-11.234c0,0,0.646,0.565,0.729,0.889c0,0,1.535-2.183,1.131-3.961
								c-0.403-1.777-1.213-3.312-0.647-6.224c0,0-0.239,1.457,0.324,2.586c0,0,0.565-2.263,0.647-3.638
								c0.08-1.372-0.485-3.473-2.104-4.524c-1.615-1.051-3.312-2.749-4.363-4.85c0,0,1.777,2.344,3.152,2.909
								c0,0,2.426-4.606,0.162-9.053c0,0,0.08,0.809-0.324,2.426c0,0,1.293-7.438-8.406-8.973c0,0,2.182-0.243,2.666,0
								c0,0-1.697-2.829-2.426-3.315c-0.727-0.483-2.746-2.343-2.988-5.252c0,0,0.484,1.454,1.051,2.021
								c0,0,2.828-4.931,1.049-8.407c0,0-0.481,1.374-1.049,2.021c0,0,2.666-4.122-0.646-7.677c-3.313-3.558-4.931-5.255-5.254-6.71
								c0,0,0.969,1.535,2.101,2.264c0,0,0.809-3.801-1.535-6.144c0,0,0,0.889-0.08,1.617c0,0,0.646-5.658-8.084-6.307l1.457-0.321
								c0,0-3.154-3.88-7.924-4.77c0,0,0.647,1.292,0.809,2.021c0,0-2.826-6.304-11.234-6.224c0,0,2.182-0.323,2.424-0.243
								s-3.475-3.638-3.959-4.526c0,0,0,1.294,0.324,2.021c0,0-1.133-0.565-1.213-3.07c-0.082-2.506-1.859-4.688-8.488-3.962
								c0,0,1.617-0.564,1.859-0.483c0,0-1.131-3.072-5.252-3.961c0,0,0.322,1.615,0.322,2.424c0,0,0.16-3.799-4.283-5.656
								c0,0-2.023,0.16-2.912,0.646c0,0,1.697-1.214,1.939-1.132c0,0-2.043-0.79-2.586-0.971c-0.24-0.08-2.265,0.971-2.668,1.457
								l1.213-1.78c0,0-0.998-3.099-6.17-2.775c0,0,0.971,1.294,0.971,2.586c0,0-1.402-3.662-3.986-4.094
								c-2.59-0.433-2.912,0.971-2.912,0.971s-2.91-0.864-3.449-0.432c0,0,0.217,1.185,0.217,2.156c0,0-1.295-4.097-7.112-4.526
								c0,0,0.432,1.398,0.432,2.047c0,0.323-3.125-4.42-6.143-4.097c-3.019,0.325-4.959,2.909-9.162,3.664
								c0,0,2.588-1.508,3.232-2.153c0,0-2.584-0.109-4.095-1.079c-1.509-0.969-4.956-1.075-7.974,0.756
								c0,0,0.107,0.969,0.324,1.617c0.106,0.323-0.865-2.803-6.145-2.912c0,0,0.432,1.079,0.539,2.048c0,0-0.861-3.017-3.773-3.881
								c0,0,0.327,0.758,0.541,1.188c0,0-1.939-2.37-4.526-1.725c-2.587,0.646-2.802,2.048-2.802,2.048s1.724,1.078,2.263,2.37
								c0,0-2.156-1.938-3.989-1.725c0,0-2.803-0.43-3.017,4.42l-0.431-2.805c0,0-3.988-1.399-6.036,0.541
								c-2.046,1.94-3.985,2.695-6.358,2.91c0,0,2.048-0.756,2.91-2.048c0,0-2.695-2.803-6.574-0.862
								c-3.881,1.94-4.85,3.126-4.85,3.126s2.264,0.862,2.693,1.401c0,0-8.404-3.99-11.637,0.43c0,0-1.078,2.909-1.834,3.881
								c0,0,0.862-2.803,0.323-3.988c0,0-2.693,0.756-3.339,3.019l1.617,0.537c0,0-5.282-1.186-8.087,0.757
								c-2.8,1.938-2.045,4.632-3.231,10.022c-1.186,5.387-1.725,6.681-1.725,6.681s0.971-4.311,0.432-6.144
								c0,0-4.42,1.078-4.42,3.45c0,2.371,0.002,4.634-0.106,5.28l-1.185-2.587c0,0-1.404,2.693-1.941,5.819
								c-0.541,3.125-2.263,4.312-2.586,4.528c-0.325,0.214-2.481,3.34-2.372,3.985c0,0,1.078-2.478,2.802-3.017
								c0,0-2.047,3.017-0.969,3.771c1.076,0.756,2.373,4.204,0.539,6.143c0,0,2.154-0.97,1.184-4.955c0,0,1.619,1.615,1.402,3.446
								C105.956,132.779,106.979,133.426,106.979,133.426z"/>
							<path fill="#5C4743" d="M241.857,149.053c0,0,4.201,0.216,5.172,3.664c0,0-1.51-2.695-6.575-2.156
								c0,0,2.586-0.646,3.125-0.322C243.579,150.238,243.473,149.701,241.857,149.053z"/>
							<path fill="#5C4743" d="M245.195,154.98c0,0,4.638,2.264,4.744,6.357C249.939,161.338,249.294,157.244,245.195,154.98z"/>
							<path fill="#5C4743" d="M251.771,160.479c0,0,2.479,0.106,3.125,2.586C254.896,163.064,252.954,161.231,251.771,160.479z"/>
							<path fill="#5C4743" d="M256.298,163.602c0,0,3.019,0.648,3.771,3.558C260.068,167.159,261.146,163.925,256.298,163.602z"/>
							<path fill="#5C4743" d="M251.122,146.25c0,0,3.668,1.401,4.099,4.634C255.221,150.884,256.081,147.006,251.122,146.25z"/>
							<path fill="#5C4743" d="M257.698,148.729c0,0,2.481,3.665,3.881,3.987C261.579,152.717,259.208,154.012,257.698,148.729z"/>
							<path fill="#5C4743" d="M264.489,159.291c0,0,1.938,0.971,2.368,2.479c0.433,1.508,0,0.43,0,0.43
								S264.704,160.477,264.489,159.291z"/>
							<path fill="#5C4743" d="M267.938,168.99c0,0,2.479-0.107,3.125,2.156C271.062,171.146,271.708,168.451,267.938,168.99z"/>
							<path fill="#5C4743" d="M272.464,166.081c0,0,3.771,0.647,4.851,2.802C277.312,168.883,277.204,165.435,272.464,166.081z"/>
							<path fill="#5C4743" d="M273.325,172.979c0,0,1.727,0.537,2.153,2.262C275.479,175.241,276.559,172.979,273.325,172.979z"/>
							<path fill="#5C4743" d="M241.964,139.407c0,0,3.72,1.777,4.205,4.041C246.169,143.448,244.548,140.539,241.964,139.407z"/>
							<path fill="#5C4743" d="M250.854,152.018c0,0,3.072,2.101,3.56,4.041c0,0-0.164-3.718-3.231-5.498
								c0,0,0.887,0.972,1.129,1.78L250.854,152.018z"/>
							<path fill="#5C4743" d="M257.564,157.676c0,0,3.068,1.212,3.879,2.907c0,0-1.454-1.292-3.233-1.695
								c0,0,2.508,1.374,2.83,2.989c0,0,2.101,1.212,2.586,2.669c0,0-0.972-1.699-4.931-2.829l1.615,0.16
								c0,0,0.486-1.857-5.496-3.232c0,0,2.506-0.082,2.666,0.161L257.564,157.676z"/>
							<path fill="#5C4743" d="M118.294,128.576c0,0,0.486-2.586,2.104-2.264c1.617,0.323,3.718,1.778,3.393,3.881
								C123.79,130.193,121.854,125.019,118.294,128.576z"/>
							<path fill="#5C4743" d="M125.247,122.325c0,0,0.646-5.173,4.094-4.526C129.341,117.799,125.032,115.858,125.247,122.325z"/>
							<path fill="#5C4743" d="M130.745,124.697c0,0,1.939-1.941,3.878-0.757C134.623,123.94,133.547,123.727,130.745,124.697z"/>
							<path fill="#5C4743" d="M136.779,117.369c0,0,3.45,1.4,4.958-2.912C141.737,114.457,141.413,116.507,136.779,117.369z"/>
							<path fill="#5C4743" d="M142.707,122.433c0,0,3.126-2.37,4.956-1.292C147.663,121.141,144.54,118.445,142.707,122.433z"/>
							<path fill="#5C4743" d="M144.485,109.661c0,0,2.908-4.041,6.467-2.747C150.952,106.914,147.878,107.237,144.485,109.661z"/>
							<path fill="#5C4743" d="M155.315,108.531c0,0,5.658-1.133,7.92,1.615C163.235,110.146,161.134,108.369,155.315,108.531z"/>
							<path fill="#5C4743" d="M157.739,116.128c0,0,3.721,2.587,6.467,1.294C164.206,117.422,163.235,120.654,157.739,116.128z"/>
							<path fill="#5C4743" d="M145.939,116.128c0,0,0.485-2.749,4.202-2.101C150.142,114.027,146.909,114.351,145.939,116.128z"/>
							<path fill="#5C4743" d="M143.837,136.335c0,0,4.363-0.16,5.82-4.041C149.657,132.294,146.425,135.526,143.837,136.335z"/>
						</g>
					</g>
					<g>
						<path fill="#FFFFFF" d="M200.002,524.574c-15.623,0-28.334-12.711-28.334-28.334c0-15.622,12.711-28.332,28.334-28.332
							c15.621,0,28.33,12.71,28.33,28.332C228.332,511.863,215.623,524.574,200.002,524.574z"/>
						<path fill="#D3B76E" d="M200.002,469.908c14.541,0,26.33,11.789,26.33,26.332c0,14.545-11.789,26.334-26.33,26.334
							c-14.545,0-26.334-11.789-26.334-26.334C173.668,481.697,185.457,469.908,200.002,469.908 M200.002,465.908
							c-16.727,0-30.334,13.606-30.334,30.332c0,16.727,13.607,30.334,30.334,30.334c16.725,0,30.33-13.607,30.33-30.334
							C230.332,479.516,216.727,465.908,200.002,465.908L200.002,465.908z"/>
					</g>
					<g>
						<g>
							<path fill="#F2F2F2" d="M177.334,490.631c3.098-12.521,15.758-20.154,28.275-17.055
								c12.521,3.096,20.154,15.756,17.057,28.274s-15.756,20.154-28.275,17.058C181.872,515.811,174.234,503.15,177.334,490.631"/>
							<path fill="#E9262B" d="M204.326,473.297c-2.818-0.535-5.627-0.533-8.316-0.065v18.655h-18.949
								c-0.537,2.818-0.541,5.627-0.076,8.316h19.025v19.045c2.824,0.492,5.633,0.451,8.316-0.057v-18.988h18.686
								c0.488-2.824,0.443-5.633-0.066-8.316h-18.618L204.326,473.297L204.326,473.297z"/>
						</g>
					</g>
				</g>
			</g>
			<g>
				<g>
					<rect fill="#FFFFFF" width="400" height="560"/>
					<g>
						<polygon fill="#E9262B" points="399.992,243.094 399.992,42.939 0.008,333.826 0.008,560 						"/>
					</g>
					<g>
						<rect x="55.404" y="31.168" fill="#D3B76E" width="289.192" height="48.5"/>
						<polygon fill="#D3B76E" points="68.398,72.855 29.744,72.855 38.111,55.418 29.744,37.979 81.064,37.979 81.064,50.012 
							55.404,50.012 						"/>
						<polygon fill="#D3B76E" points="331.602,72.855 370.256,72.855 361.889,55.418 370.256,37.979 318.936,37.979 318.936,50.012 
							344.596,50.012 						"/>
						<g>
							<g>
								<path fill="#A08F53" d="M120.077,46.634c5.423,0,9.815,3.877,9.815,9.572c0,5.667-4.365,9.409-9.762,9.409h-8.242v-18.98
									L120.077,46.634L120.077,46.634z M120.131,62.09c3.146,0,5.857-2.196,5.857-5.884s-2.712-6.047-5.911-6.047h-4.42V62.09
									H120.131z"/>
								<path fill="#A08F53" d="M151.968,62.09v3.525h-13.584v-18.98h13.422v3.525h-9.653v4.04h7.619v3.308h-7.619v4.583
									L151.968,62.09L151.968,62.09z"/>
								<path fill="#A08F53" d="M174.64,62.09v3.525h-13.15v-18.98h3.769V62.09H174.64z"/>
								<path fill="#A08F53" d="M196.442,62.09v3.525h-13.584v-18.98h13.422v3.525h-9.653v4.04h7.619v3.308h-7.619v4.583
									L196.442,62.09L196.442,62.09z"/>
								<path fill="#A08F53" d="M229.771,61.981h-8.215l-1.41,3.633h-4.066l7.809-18.98h3.553l7.81,18.98h-4.067L229.771,61.981z
									 M228.471,58.646l-1.869-4.799c-0.408-1.057-0.896-2.63-0.922-2.63h-0.027c-0.027,0-0.517,1.573-0.922,2.63l-1.871,4.799
									H228.471z"/>
								<path fill="#A08F53" d="M255.779,62.09v3.525h-13.15v-18.98h3.77V62.09H255.779z"/>
								<path fill="#A08F53" d="M277.148,62.09v3.525h-13.149v-18.98h3.769V62.09H277.148z"/>
								<path fill="#A08F53" d="M285.368,65.615v-18.98h3.769v18.98H285.368z"/>
							</g>
							<g>
								<g>
									<path fill="#FFFFFF" d="M119.052,46.124c5.423-0.029,9.837,3.825,9.867,9.519c0.03,5.667-4.315,9.432-9.712,9.461
										l-8.242,0.044l-0.102-18.98L119.052,46.124z M119.188,61.579c3.146-0.017,5.846-2.228,5.826-5.915
										c-0.02-3.688-2.744-6.032-5.943-6.015l-4.42,0.023l0.063,11.931L119.188,61.579z"/>
									<path fill="#FFFFFF" d="M151.025,61.409l0.019,3.525l-13.584,0.072l-0.102-18.98l13.422-0.071l0.02,3.525l-9.653,0.051
										l0.021,4.04l7.619-0.041l0.018,3.308l-7.619,0.041l0.024,4.583L151.025,61.409z"/>
									<path fill="#FFFFFF" d="M173.697,61.288l0.019,3.525l-13.15,0.07l-0.102-18.98l3.769-0.021l0.083,15.456L173.697,61.288z"
										/>
									<path fill="#FFFFFF" d="M195.499,61.171l0.019,3.525l-13.584,0.073l-0.102-18.98l13.422-0.072l0.02,3.525l-9.653,0.052
										l0.021,4.04l7.619-0.041l0.018,3.308l-7.619,0.041l0.024,4.583L195.499,61.171z"/>
									<path fill="#FFFFFF" d="M228.828,60.885l-8.217,0.044l-1.391,3.641l-4.066,0.022l7.707-19.022l3.553-0.019l7.911,18.939
										l-4.067,0.022L228.828,60.885z M227.509,57.557l-1.896-4.789c-0.413-1.055-0.91-2.625-0.938-2.625h-0.027
										c-0.026,0-0.506,1.576-0.906,2.635l-1.846,4.81L227.509,57.557z"/>
									<path fill="#FFFFFF" d="M254.836,60.855l0.02,3.524l-13.15,0.07l-0.102-18.98l3.769-0.02l0.083,15.456L254.836,60.855z"/>
									<path fill="#FFFFFF" d="M276.206,60.741l0.019,3.525l-13.149,0.07l-0.103-18.98l3.77-0.021l0.083,15.456L276.206,60.741z"
										/>
									<path fill="#FFFFFF" d="M284.441,64.222l-0.102-18.98l3.77-0.02l0.102,18.98L284.441,64.222z"/>
								</g>
							</g>
						</g>
						<rect x="49.207" y="37.979" fill="#A08F53" width="6.197" height="34.877"/>
						<rect x="344.596" y="37.979" fill="#A08F53" width="6.197" height="34.877"/>
					</g>
					<g>
						<polygon fill="#0A57A3" points="39.5,423.526 39.5,141.178 360.5,141.178 360.5,423.526 200,495.674 						"/>
						<g>
							<path fill="#010101" d="M356,145.678v274.938L200,490.74L44,420.615V145.678H356 M365,136.678h-9H44h-9v9v274.938v5.821
								l5.311,2.388l156,70.125l3.689,1.658l3.689-1.658l156-70.125l5.311-2.388v-5.821V145.678V136.678L365,136.678z"/>
						</g>
					</g>
					<g>
						<path fill="#D3B76E" d="M365,136.678v9v274.938v5.801L200,500.24L35,426.404v-5.789V145.678v-9h9h312H365 M372,129.678h-7h-9
							H44h-9h-7v7v9v274.938v5.789v4.536l4.141,1.854l165,73.836L200,507.91l2.857-1.279l165-73.824l4.143-1.853v-4.537v-5.801
							V145.678v-9V129.678L372,129.678z"/>
					</g>
					<g>
						<g>
							<defs>
								<polygon id="SVGID_9_" points="356,420.615 200,490.74 44,420.615 44,145.678 356,145.678 								"/>
							</defs>
							<clipPath id="SVGID_10_">
								<use xlink:href="#SVGID_9_"  overflow="visible"/>
							</clipPath>
							<path clip-path="url(#SVGID_10_)" fill="#194378" d="M425.146,417.889c-13.775-10-24.791-18.067-25.621-18.897
								c-2.314-2.314-5.209-4.629-6.943-5.209c-1.736-0.578-10.703-6.363-13.598-8.388c-2.894-2.026-21.408-13.6-58.728-24.303
								c0,0-5.745-8.262-14.135-10.285c0,0,0.34-0.258,0.01,0.5c-0.088-0.086-0.147-0.146-0.187-0.184
								c0.158-4.797-0.938-21.197-2.372-27.641c-1.298-5.841-1.505-31.015-1.535-38.869c4.44-2.908,9.435-7.314,12.435-13.59
								c0,0,3.276-6.896,4.34-19.742l3.762-2.051c0,0,0.963-1.156,2.988-3.184c2.022-2.023,1.352-4.049,1.254-5.494
								c-0.099-1.447,0.481-3.088,0.481-3.088c1.832-1.832,1.252-4.049,1.156-4.436c-0.097-0.385-0.097-2.506,3.183-7.135
								c3.278-4.629,1.157-10.512,1.157-10.512c1.543-3.279,0.097-7.041,0.097-7.041c0.674-0.963,1.543-2.988,1.254-4.434
								c-0.289-1.447,0.192-3.859,0.192-3.859c0.963-4.049-0.869-5.592-1.832-6.557c-0.965-0.965-0.771-1.639-0.098-5.014
								c0.676-3.375-1.929-5.787-1.929-5.787c-0.385-3.953-4.146-4.533-4.146-4.533c-0.192-2.121-3.088-3.375-3.664-4.146
								c-0.578-0.771-0.192-2.701,0.481-5.498c0.675-2.795-0.577-4.725-0.577-4.725c0.385-3.182-2.703-6.365-2.703-6.365
								s-1.156-0.965-1.156-3.277c0-2.314-1.541-4.34-1.541-4.34c-1.256-4.438-5.11-4.629-5.399-4.725
								c-0.289-0.098-1.642-0.098-3.279-1.93c-1.641-1.832-5.109-2.797-5.109-2.797c-0.965-2.121-4.533-2.797-6.27-3.375
								c-1.737-0.578-3.568-3.953-3.568-3.953c-0.578-4.148-3.182-4.436-4.436-4.533c-1.254-0.096-2.025-0.385-2.025-0.385
								c-1.158-2.895-5.98-4.051-5.98-4.051c-0.674-1.736-3.471-2.893-3.471-2.893c-0.676-1.736-3.664-1.447-3.664-1.447
								c-2.604-4.145-6.75-2.797-6.75-2.797c-2.604-2.988-4.82-0.77-4.82-0.77c-1.157-0.289-3.278,0.096-3.278,0.096
								c-1.735-2.699-4.822-2.219-5.688-2.219c-0.867,0-1.158-0.289-3.474-1.928c-2.313-1.641-5.594,0.191-7.039,0.965
								c-1.446,0.771-3.086-0.098-3.086-0.098c-2.797-2.508-6.461-0.578-7.33-0.096c-0.866,0.48-1.639-0.289-1.639-0.289
								c-2.025-1.254-4.146-0.869-4.146-0.869c-0.773-1.35-2.894-1.254-2.894-1.254c-3.763-2.312-6.365,1.641-6.365,1.641
								c-2.412-0.482-4.049,2.025-4.049,2.025c-2.121-1.447-4.244-0.867-5.884,0.191c-1.641,1.061-3.856,0.482-3.856,0.482
								c-3.762-1.734-7.521,0.676-8.68,1.93c-1.156,1.254-2.893,0.385-2.893,0.385c-3.762-1.445-6.172,1.543-6.172,1.543
								c-3.953-1.254-2.895,4.051-6.461,3.086c-0.119-0.031-0.236-0.059-0.352-0.084c-3.393-0.715-5.922,1.73-6.107,4.713
								c-0.193,3.086-1.158,5.016-1.158,5.016c-4.629,0.096-4.436,5.785-4.436,5.785c-2.895,0.676-2.895,4.34-2.895,5.207
								c0,0.869-0.289,3.279-2.41,4.051s-2.988,6.654-2.988,6.654c1.639-0.387,3.471,0.674,3.471,0.674
								c-3.471-0.674-5.498,3.086-5.498,3.086c-2.748,1.012-2.459,4.629-2.459,4.629c-3.037,3.037-0.723,7.955-0.289,8.68
								c0.434,0.723,0,7.232-0.869,8.244c-0.867,1.012-2.457,3.473-2.168,5.062c0.289,1.592-1.156,2.748-1.156,2.748
								c-3.473,3.328-3.184,7.377-2.605,10.416c0.578,3.037-0.434,5.352-0.434,5.352c-1.471,4.291,0.895,5.771,1.654,6.125
								c-0.34,2.328-0.447,3.711-0.447,3.711c-8.293,9.354-6.582,15.889-3.568,25.266c1.736,5.4-1.643,15.621-1.643,15.621
								c-3.951,14.562-2.893,26.037,1.352,33.365c4.244,7.33,13.887,38.573,13.887,38.573c3.086,18.707,16.199,16.974,16.199,16.974
								c2.605,1.059,7.924,1.979,13.201,2.688c1.689,3.451,5.566,12.176,8.85,27.107c-0.678,0.504-4.012,3.129-6.428,7.617
								c0,0-21.988,9.645-41.658,15.045c-19.672,5.399-38.959,10.026-42.43,15.043c0,0-20.059,10.801-20.83,14.657
								c-0.051,0.255-0.168,0.604-0.336,1.037c-0.787,1.148-1.404,2.345-1.785,3.59c-0.148,0.49-0.318,1.054-0.494,1.646
								C78.125,440.334,69.525,461.9,70.58,491.91c-0.016,2.467,0.102,4.729,0.4,6.695c0,0,35.486,39.149,58.246,43.778
								c13.635,2.773,169.025,41.582,267.117,18.515c65.607-15.429,88.019-93.605,90.261-98.939
								C486.604,461.959,453.27,437.873,425.146,417.889z M208.555,445.975c0.051,0.179,0.104,0.347,0.158,0.509
								c-0.445-0.269-0.877-0.554-1.291-0.859C207.775,445.734,208.152,445.85,208.555,445.975z M204.537,446.436
								c0,0,0.809,0.832,2.547,1.906c-1.543-0.438-2.908-0.91-3.99-1.426c0,0-3.279-17.311-4.297-31.652
								C199.807,424.969,201.557,436.92,204.537,446.436z M251.158,440.947c-5.023,4.27-10.432,8.151-16.244,11.467
								c0,0-0.607-0.043-1.654-0.129C235.883,451.127,242.5,447.842,251.158,440.947z"/>
						</g>
					</g>
					<g>
						<g id="Layer_1_copy">
							<defs>
								<polygon id="SVGID_11_" points="356,420.65 200,490.768 44,420.65 44,72.381 356,72.381 356,334.107 								"/>
							</defs>
							<clipPath id="SVGID_12_">
								<use xlink:href="#SVGID_11_"  overflow="visible"/>
							</clipPath>
							<g clip-path="url(#SVGID_12_)">
								<path fill="#FFFFFF" d="M465.052,472.8c0,0-100.229-72.423-110.571-78.242c-10.349-5.817-32.98-18.105-34.92-18.105
									c-1.94,0-40.861-14.558-44.097-16.495c-3.231-1.94-12.377-11.092-12.377-11.092s-26.017,80.031-82.92,112.47
									c0,0-20.113-0.688-29.167-5c0,0-9.048-33.324-7.756-48.842c1.294-15.521-0.214-24.787-0.214-25.65
									c0-0.862-3.232-9.271-3.232-9.271s-3.449,7.332-4.742,8.84c-1.295,1.508-5.176,2.154-5.176,2.154
									s-77.31,24.765-82.053,27.78c-4.742,3.017-29.812,11.231-33.693,23.949c-3.881,12.718-16.598,58.629-13.58,78.462
									c0,0,39.661,43.753,65.097,48.927c15.237,3.099,188.899,46.472,298.529,20.692
									C437.503,566.131,462.546,478.76,465.052,472.8z"/>
								<path fill="#B0B8BC" d="M245.415,420.207c0,0-46.686,49.801-65.526,57.336c-17.244,6.896-28.021-0.433-28.021-0.433
									s-7.759-6.468-12.069-34.058c0,0,4.311,34.489,12.069,39.231c12.01,7.337,27.159,0.86,31.47-1.726
									C187.649,477.975,222.564,457.712,245.415,420.207z"/>
								<path fill="#B0B8BC" d="M30.3,455.127c0.303,3.031-9.055-21.124-7.331-24.574c1.729-3.446,4.314-7.327,4.314-7.327
									S29.87,450.816,30.3,455.127z"/>
								<path fill="#B0B8BC" d="M54.873,419.777c0,0,0.86-6.465,14.226-7.761c13.363-1.291,28.02-3.88,28.02-3.88
									s-21.982,6.038-28.881,8.192C61.337,418.484,54.873,419.777,54.873,419.777z"/>
								<path fill="#B0B8BC" d="M282.057,391.756c0,0,6.896-11.64,9.053-13.797c2.154-2.153,6.897-2.153,6.897-2.153
									s-3.021,8.192-5.604,10.346C289.814,388.307,282.057,391.756,282.057,391.756z"/>
								<path fill="#B0B8BC" d="M322.148,402.533c0,0,1.722,0.86,10.345,14.654c8.62,13.797,18.969,28.022,18.969,28.022
									s-24.142-23.709-25.437-29.746C324.734,409.432,322.148,402.533,322.148,402.533z"/>
								<path fill="#B0B8BC" d="M33.748,520.652c0,0,4.309-58.626,24.14-68.113c19.832-9.485,63.802-23.277,68.975-26.728
									c5.172-3.448,10.348-12.932,10.348-12.932s2.586,12.068-11.208,17.241c-13.796,5.173-60.352,19.833-68.976,27.592
									C48.403,465.473,37.196,489.613,33.748,520.652z"/>
								<path fill="#B0B8BC" d="M252.741,399.946c0,0,19.827,26.728,46.559,37.935c26.728,11.21,80.179,44.836,105.185,89.67
									c0,0-51.729-64.664-93.979-78.46C268.259,435.295,252.741,399.946,252.741,399.946z"/>
								<path fill="#E9262B" d="M277.118,361.115c0,0-12.774,28.543-21.993,37.76c0,0,19.357-17.744,26.997-35.917L277.118,361.115z
									"/>
								<path fill="#E9262B" d="M133.847,381.92c0,0,4.479,21.07,5.268,23.439c0,0-7.11-13.168-8.428-20.806L133.847,381.92z"/>
								<path fill="#F8B199" d="M258.452,347.138l-2.263-73.069c0,0,19.828-3.448,21.769-42.245c0,0-0.646-15.736-14.226-27.376
									c-13.58-11.639-26.293-55.396-40.305-65.956c-14.012-10.561-79.32-21.555-90.746-16.812
									c-11.426,4.742-29.746,9.699-35.78,31.47c-6.034,21.769-8.405,26.079-8.621,37.719l-0.862,2.802
									c0,0-9.487,7.76-5.604,21.555c3.878,13.796,2.37,16.167,1.078,19.831c-1.294,3.664-6.465,26.512-1.727,35.78
									c4.743,9.268,8.409,19.614,9.056,20.907c0.646,1.294,6.465,19.83,7.973,25.437c1.51,5.604,4.094,11.854,6.467,14.654
									c2.373,2.803,2.373,4.096,6.898,4.742c4.527,0.647,10.56,1.295,11.208,1.508c0.646,0.217,8.839,0.648,8.839,0.648
									s5.387,11.424,7.758,21.555c2.369,10.129,5.174,26.728,5.174,26.728s-1.833,13.472-1.186,19.614
									c0.646,6.144,5.174,42.355,6.465,46.881c0,0,23.279,7.761,31.363,7.113c0,0,50.436-19.077,79.211-101.199L258.452,347.138z"
									/>
								<path fill="#FFFFFF" d="M146.964,215.817c0,0,3.232-10.294,6.682-11.37c3.449-1.078,14.98-1.185,20.801,5.55l-0.646,1.617
									C173.8,211.614,159.735,219.05,146.964,215.817z"/>
								<path fill="#FFFFFF" d="M90.114,220.561c0,0,0.16-7.543,3.932-8.946c3.773-1.401,12.719-1.671,15.145-0.214
									c2.424,1.454,4.902,4.147,5.228,5.495c0.321,1.348-0.271,2.856-0.271,2.856S103.854,223.793,90.114,220.561z"/>
								<path fill="#B2806E" d="M100.351,247.234c0,0,2.909,2.586,5.173,2.749c0,0,1.94,3.232,3.071,4.687
									c0,0-1.777-4.366-1.615-4.85c0,0,7.76,0.97,12.609-3.071c4.849-4.041,19.884-1.617,21.662,9.699
									c0,0,0.647,2.343-1.535,3.557c-2.184,1.212-9.539,2.829-19.238-1.294c0,0-4.77-0.646-6.305-0.08
									C114.173,258.631,102.614,256.287,100.351,247.234z"/>
								<path fill="#B2806E" d="M100.431,248.526c0,0-1.857,0.889-2.018,2.021c-0.163,1.132,1.371,8.407,6.947,9.619
									c0,0,2.832,0,3.801-1.697c0.971-1.698,0.405-2.102,0.405-2.102S101.886,253.135,100.431,248.526z"/>
								<path fill="#B2806E" d="M113.501,265.231c0,0-2.803,9.915-3.234,10.346c-0.434,0.432,1.078,2.586,1.724,2.695
									c0.646,0.106,3.987-0.648,4.204-1.401c0.215-0.755,1.508-8.191,1.508-8.191s-1.725,7.329-2.154,7.868v-3.019
									c0,0-1.94,0.755-2.373,0.862c-0.43,0.109-1.078-0.862-1.078-0.862L113.501,265.231z"/>
								<path fill="#B2806E" d="M102.291,290.881c0,0-1.292-10.885,3.56-10.669c4.848,0.217,7.004,1.726,7.975,1.401
									c0.969-0.323,4.201-1.724,6.143-1.724c1.939,0,10.561,3.339,15.627,6.787l-0.754,0.864c0,0-10.672-2.694-15.951-0.323
									c0,0-3.881,0.646-6.574-0.107C112.315,287.109,105.632,284.739,102.291,290.881z"/>
								<path fill="#B2806E" d="M105.767,290.072c0,0-1.133,2.263-0.97,3.154c0,0,14.224,4.525,23.925-3.479
									C128.722,289.749,114.901,294.922,105.767,290.072z"/>
								<path fill="#B2806E" d="M82.03,213.285c0,0,2.373-6.358,5.712-7.652c0,0-1.511,1.294-1.724,1.94
									c0,0,4.74-3.448,11.207-0.862c0,0-11.744,1.076-11.099,13.903l3.017,1.831l0.539,4.958c0,0,9.158-1.4,10.887-2.586
									c0,0-5.736,2.92-6.36,3.125c-0.323,0.107,10.238-3.341,10.238-3.341s-9.809,5.818-13.903,6.357
									c0,0,13.366-2.047,20.586-8.621l-1.833,0.755l1.833-2.263c0,0-16.488,1.185-20.047,0.214c0,0-0.861-1.509-0.646-2.37
									c0.216-0.862,2.263-6.251,2.802-6.684c0.537-0.43,7.652-2.37,11.641-1.615c3.984,0.756,6.467,1.938,6.895,2.479
									c0.432,0.539,2.934,2.533,2.695,4.688c-0.243,2.156-1.615,2.749-1.615,2.749s2.047-0.972,2.262-1.295
									c0.217-0.322,0.863-1.722,0.863-1.722s-0.107-3.664-1.294-5.175c0,0,0.702-2.103,0.323-3.934c0,0,0.162,1.563-0.484,2.965
									c0,0,0.916-2.264-0.971-5.336c0,0,0.015,0.869,0.107,1.239c0.053,0.216-1.887-6.95-5.442-9.753c0,0,0.811,1.132,1.241,2.586
									c0,0-0.865-1.617-3.502-2.695c0,0,1.291,0.809,1.615,1.511c0,0-2.209-1.833-4.578-2.479c0,0,1.668,0.916,2.045,1.455
									c0,0-11.264-6.251-19.722-0.646C85.318,197.012,79.121,205.31,82.03,213.285z"/>
								<g>
									<path fill="#B2806E" d="M127.508,207.683c0.003-0.017,0.003-0.044,0.005-0.058
										C127.513,207.625,127.511,207.647,127.508,207.683z"/>
									<path fill="#B2806E" d="M169.522,189.835c-9.785-4.576-18.525-2.355-18.525-2.355c1.833,0.01,3.66,1.097,3.66,1.097
										c-5.385-1.105-11.106,0.915-11.106,0.915c2.052-0.528,4.528-0.086,4.528-0.086c-8.837-0.366-12.913,6.779-12.913,6.779
										c-0.21-1.08-0.091-3.181-0.091-3.181c-0.977,1.396-0.993,4.846-0.993,4.846c-0.214-0.271-1.872-3.188-1.872-3.188
										c-0.113,0.914,0.252,3.395,0.252,3.395c-0.802-0.975-1.6-3.402-1.6-3.402c-0.072,3.771,1.106,4.909,1.106,4.909
										c-2.197-1.79-2.298-3.622-2.298-3.622c-0.085,6.251,2.539,9.442,2.539,9.442c-1.287-1.298-2.25-2.759-2.25-2.759
										c-1.012,8.562,0.75,12.129,0.75,12.129c-3.268-3.749-3.229-6.647-3.202-7.071c-0.136,1.251,0.813,7.252,3.513,9.66
										c2.734,2.438,4.814,6.812,4.814,6.812c-1.924-3.243-5.957-5.204-5.957-5.204c5.801,3.909,7.066,9.896,7.066,9.896
										s1.467-2.74,1.809-6.296c0.342-3.556,5.543-9.348,5.543-9.348c-0.49,0.968-2.311,9.689-2.146,9.043
										c0.283-1.108,1.963-4.355,2.448-4.514c0.483-0.161,4.368-1.111,4.368-1.111s-1.294,0.317-1.773-0.494
										c-0.481-0.811,3.597-8.226,6.035-11.285c2.441-3.06,8.736-1.251,14.549,0.72c5.809,1.968,6.275,5.364,6.275,5.364
										c-3.578,4.511-22.014,5.872-22.014,5.872l-4.368,0.786l3.169,2.011l-3.66-0.774c12.252,6.852,20.665,5.062,20.665,5.062
										c-11.744-0.273-15.39-3.74-15.39-3.74c5.261,3.476,14.645,2.013,17.881,1.489c3.234-0.521,8.011-7.396,8.011-7.396
										c3.339,0.662,15.177,4.279,15.177,4.279C195.231,199.771,179.309,194.411,169.522,189.835z M172.042,203.859
										c-6.988-3.699-17.669-1.599-17.669-1.599c10.491-7.708,17.891,0.091,17.891,0.091c-4.823-2.774-8.667-2.266-8.667-2.266
										C169.698,200.882,172.042,203.859,172.042,203.859z M156.267,219.527c-3.15-0.257-3.387-1.43-3.387-1.43
										c0.121,0.039,7.676,0.199,11.85-1.762C164.729,216.336,159.419,219.787,156.267,219.527z"/>
								</g>
								<path fill="#B2806E" d="M103.908,320.949c0,0,16.921-22.094,44.294-4.633c0,0-14.657-12.289-27.805-9.916
									C120.397,306.4,111.347,307.263,103.908,320.949z"/>
								<path fill="#B2806E" d="M133.545,292.82c0,0-17.351,6.357-27.267,3.664c-0.091,0.141,0,0,0,0l-2.37-1.614
									c0,0,4.85,3.987,6.144,4.526c0,0,2.045,3.556,2.91,3.985c0.859,0.433,9.053-0.647,12.393-3.772L133.545,292.82z"/>
								<path fill="#B2806E" d="M135.269,242.383c0,0-6.304,0-10.668-2.424c0,0,6.625-2.264,7.597-2.101
									C133.169,238.019,133.814,241.413,135.269,242.383z"/>
								<path fill="#B2806E" d="M105.523,332.698c0,0,6.469-4.313,9.917-4.098c0,0,4.527,2.156,5.171,1.078
									c0.647-1.078,12.501-8.621,18.106-8.404c5.604,0.214,29.1,3.665,45.912-10.133c0,0,17.244-25.003,3.018-46.989
									l-15.088-5.603c0,0,31.468,0.862,38.367-13.582c0,0,8.082-17.781-8.623-42.029c0,0-9.483-16.814-43.539-21.125
									c0,0,18.104-0.859,30.605,6.037c0,0-5.602-7.761-13.794-9.485c0,0-8.188-49.574,27.589-49.574
									c35.781,0,42.678,28.452,43.539,41.384c0.865,12.934,12.504,26.729,12.504,26.729s9.484,18.751,6.682,19.936
									c-2.803,1.188-18.752,6.36-17.459,11.103c1.293,4.741-0.432,11.64-0.432,11.64s-13.793,9.483-10.346,15.95
									c3.447,6.467,5.174,11.207,1.293,16.38c-3.881,5.175-5.002,9.296-4.571,10.588c0.435,1.294,6.298,29.073-24.312,39.854
									c-30.607,10.776-38.798,12.068-38.798,12.068s-33.624,0.431-39.659,3.449c-6.037,3.016-12.504,0-12.504,0
									S112.206,340.025,105.523,332.698"/>
								<path fill="#B2806E" d="M153.376,277.303c0,0,7.434,7.437,5.334,13.255c-2.102,5.817-4.525,8.243-4.525,8.243
									S158.548,292.498,153.376,277.303z"/>
								<path fill="#B2806E" d="M113.284,140.861c0,0-17.137,16.814-19.4,44.618c0,0,7.275,0,11.965,0.323
									c0,0-12.611,1.617-18.43,8.729c-5.82,7.113,0,0,0,0s1.938-20.692,4.527-28.774c2.586-8.082,13.254-26.512,16.166-27.159
									C111.021,137.952,113.284,140.861,113.284,140.861"/>
								<path fill="#B2806E" d="M80.09,267.817c-0.28,0.076,6.899,16.597,8.407,18.969c1.508,2.37,6.251,11.854,9.268,29.312
									c3.02,17.459,9.701,18.97,9.701,18.97l1.292-2.804c-10.343-6.467-8.621-23.062-8.837-26.295
									c-0.217-3.233-4.959-13.887-9.699-27.159c-3.773-10.563,1.398-19.615,1.398-19.615S86.288,266.147,80.09,267.817z"/>
								<path fill="#B2806E" d="M114.901,203.908c0,0,4.527,6.79,2.262,10.994c-2.262,4.203-6.195,14.495-6.249,15.733
									c-0.056,1.241,0,0,0,0s-10.563,9.809-10.483,17.891c0.082,8.084,0,0,0,0l2.184,0.485c0,0,1.617-8.407,6.629-13.579
									c0,0,0.809,1.939,1.615,3.231c0,0,0.325-8.891,5.01-16.326C120.558,214.902,120.235,210.375,114.901,203.908z"/>
								<path fill="#B2806E" d="M254.896,229.288c0,0,10.508-10.183,16.004-8.082c5.498,2.101,8.893,23.763-0.969,36.051
									c0,0,6.141-16.652-5.496-29.261C264.436,227.996,259.583,226.542,254.896,229.288z"/>
								<path fill="#B2806E" d="M243.042,258.551c0,0-1.24-3.234,3.771-5.66c5.011-2.424,5.334-3.556,5.174-5.656
									c-0.163-2.103-2.426-8.245,0.484-9.216c2.91-0.969,10.75,2.426,13.82,11.64c0,0,5.57,12.999-11.639,8.082
									c-0.566-0.161-1.047-0.591-1.047-0.591S248.484,264.532,243.042,258.551"/>
								<path fill="#B2806E" d="M269.525,257.982c0,0-3.879,3.801-8.164,4.689c-4.282,0.889-5.819,3.152-3.717,4.526
									C259.747,268.573,269.122,262.106,269.525,257.982z"/>
								<path fill="#B2806E" d="M152.515,341.104c0,0,26.941-5.815,39.443-9.268c12.5-3.451,39.875-30.607,39.875-30.607
									s1.938-25.436,0,0c-1.94,25.434-39.66,104.109-39.66,104.109l19.185-73.934l-57.12,49.792l14.229-22.633l-29.316-12.505
									L152.515,341.104z"/>
								<path fill="#B2806E" d="M194.112,427.536c0,0-9.807,31.793-13.254,34.38c-3.451,2.586-5.658,0.162-5.658,0.162
									s-13.689-0.969-17.138-2.264c-3.446-1.295-5.768-5.119-5.335-31.416c0,0,3.989,21.825,6.146,25.271
									c0,0,14.763,3.771,17.779,2.911L194.112,427.536z"/>
								<path fill="#B2806E" d="M134.623,337.871c0.862,1.291,15.088,21.984,14.226,100.441c0,0,0.862,14.657,3.879,18.971
									c3.018,4.311,0,0,0,0l-3.879-7.653c0,0-6.25-22.847-5.818-42.677c0.43-19.831,1.076-15.628,1.076-15.628l-2.586-17.674
									c0,0-0.431-21.123-9.914-35.78H134.623z"/>
								<path fill="#B2806E" d="M231.616,281.182c0,0,6.145,10.993,20.047,7.762c0,0-3.788,0.183-6.038-1.442
									c0,0,6.361-0.175,7.654-0.823c0,0,0.324,49.146-5.819,78.891l7.113-34.594v44.292c0,0,6.145-11.312,6.788-20.044
									c0.646-8.729-0.321-31.359-1.293-38.476c-0.971-7.113-1.293-15.195-1.293-15.195l-2.264-20.368l-0.322-7.114
									c0,0-12.619,9.51-18.439,5.307c-5.82-4.202-5.484-8.539-5.484-8.539L231.616,281.182z"/>
								<path fill="#010101" d="M106.602,143.448c0,0-17.245,23.28-17.245,48.282c0,0,1.512-1.076,3.235-1.293
									c0,0-11.856,7.76-10.777,19.615c1.078,11.855,6.034,10.562,1.508,28.451c-4.526,17.891-3.446,27.806,0.862,36.211
									c4.311,8.407,14.226,36.426,15.088,42.68c0.861,6.25,6.467,18.32,10.561,17.242c4.098-1.078,10.994-3.449,14.658-1.291
									c0,0,2.947-2.973,6.035-4.096c7.113-2.587,28.884-3.021,42.248-2.156c13.363,0.861,46.984-2.153,59.059-25.864
									c0,0,4.311-8.625,2.803-16.6c0,0,6.25,23.925-22.203,39.877L160.92,373.22l16.166-20.262l-5.389,3.018
									c0,0-25.863-8.839-30.606-10.778c0,0,4.954-1.506,6.032-2.154c0,0-23.925-1.939-30.821-4.74c0,0-14.655,1.937-18.106-18.969
									c0,0-10.775-34.92-15.518-43.109c-4.745-8.19-5.928-21.016-1.511-37.288c0,0,3.776-11.426,1.835-17.461
									c-3.367-10.479-5.281-17.783,3.988-28.235C86.989,193.24,89.356,162.633,106.602,143.448z"/>
								<path fill="#010101" d="M115.655,255.64c0,0,0.213-2.048,1.291-2.264c1.078-0.214,4.529-1.186,6.576-2.693
									c2.047-1.511,7.436-1.94,8.838,3.017c0,0-0.539-1.831-2.156-2.264c0,0,2.695,3.667,1.508,4.743
									c-1.186,1.078-5.173,2.693-8.082-3.34c0,0-3.556,1.292-5.496,1.076C118.134,253.915,116.73,253.592,115.655,255.64z"/>
								<path fill="#010101" d="M99.462,250.629c0,0,1.375-0.565,2.344,0.403c0.971,0.97,6.307,5.335,7.438,5.738l-2.022-0.403
									c0,0-1.938,0.566-2.667,0.484c-0.727-0.081-3.071-0.97-3.152-5.253C101.401,251.599,101.646,250.629,99.462,250.629z"/>
								<path fill="#010101" d="M138.503,244.969c0,0,6.508,6.959,2.587,12.718c-3.448,5.065-11.479,3.611-12.341,3.396
									c0,0,9.213,5.011,13.417-3.396C142.166,257.687,145.294,251.436,138.503,244.969z"/>
								<path fill="#010101" d="M100.188,244.485c0,0-3.637,3.232-2.262,8.002s5.173,8.649,7.516,8.164
									c2.344-0.485,3.639-1.052,3.639-1.052s-1.697,1.778-3.721,1.698c-2.018-0.081-5.576-2.021-7.919-8.568
									C97.441,252.729,95.581,247.718,100.188,244.485z"/>
								<path fill="#010101" d="M147.45,290.021c-3.234-1.188-13.58-4.744-16.814-6.576c-3.232-1.831-10.481-5.98-16.14-2.424
									c0,0-4.121-0.592-6.491-1.024c-2.373-0.432-7.868,0-6.251,10.237c0,0-0.755,1.187-1.185,1.295c0,0-1.404-1.402-1.404-1.939
									c0-0.322-0.213,3.881,2.048,6.357c0,0-0.644-1.725-0.106-2.909c0,0,1.293-0.755,2.156-0.539c0,0,1.781-5.362,5.549-4.957
									c3.259,0.351,5.685,3.177,11.8,0.431c2.685-1.205,13.366,0,16.384,1.186c3.017,1.188,5.066,1.725,5.066,1.725l-7.115,1.403
									c0,0,10.456-0.972,11.639-0.972c1.188,0,1.188,0.216,0.648,1.293C147.233,292.605,150.683,291.204,147.45,290.021z
									 M118.134,286.626c-2.588,0.922-5.441-0.219-6.195-0.433c-0.755-0.215-6.846-1.563-9.215,2.855c0,0-1.617-9.16,4.311-8.299
									c4.664,0.68,6.359,1.348,7.436,1.238c0,0,6.413-5.334,19.938,4.688C134.407,286.677,125.247,284.091,118.134,286.626z"/>
								<path fill="#010101" d="M103.153,293.79c0,0,1.543,4.132,13.256,2.694c11.426-1.4,16.381-3.447,16.381-3.447
									s-8.082,3.878-16.381,4.201C108.823,297.535,105.202,297.993,103.153,293.79z"/>
								<path fill="#010101" d="M106.171,318.686c0,0,14.227-14.871,38.153-4.739C144.324,313.945,121.526,299.934,106.171,318.686z
									"/>
								<path fill="#010101" d="M82.407,201.08c0,0,3.881-5.336,7.678-5.416c0,0-2.424,0.243-4.203,2.669
									c0,0,3.638-3.315,8.811-2.346c0,0-2.666-0.403-4.281,0.729c0,0,4.363-1.212,9.456,0.889c0,0-1.617-0.97-3.558-1.374
									c0,0,3.879,0.162,7.84,3.475c0,0-0.564-0.969-0.97-1.372c0,0,3.071,2.504,4.606,5.656c0,0-0.727-2.909-1.372-3.638
									c0,0,2.344,2.748,2.829,4.446c0,0-1.051-3.718-2.829-5.578c0,0,3.152,2.911,4.524,6.709c0,0-0.563-3.798-2.666-6.467
									c0,0,1.697,1.618,2.586,4.446c0,0-0.322-2.989-1.049-4.203c0,0,1.939,2.184,2.1,8.244c0,0-0.16-2.181-0.809-3.232
									c0,0,0.406,1.778,0.244,3.072c0,0-0.727-2.264-2.021-4.041c0,0,0.566,1.938,0.323,3.396c0,0-0.485-1.86-1.294-2.749
									c0,0,0.275,1.792,0.405,2.181c0.08,0.243-0.405-1.535-3.154-3.232c0,0,1.456,1.294,2.183,3.072c0,0-1.777-2.021-8.082-2.749
									c0,0,3.639,0.565,5.738,2.183c0,0-2.828-1.212-4.525-1.374c0,0,2.1,0.971,2.426,1.454c0,0-1.86-1.049-4.204-1.454
									c0,0,1.778,1.294,2.103,1.617c0.241,0.24-4.689-1.94-8.649-1.052c0,0,3.476-0.969,4.606-0.726
									c1.132,0.242,0.323,0.16,0.323,0.16s-4.93-1.294-8.728,0.405c0,0,1.857-1.294,2.424-1.375c0,0-3.312,0.484-6.062,3.396
									c0,0,0.809-1.94,1.133-2.103c0,0-2.83,2.346-3.396,4.203l0.565-1.857c0,0-2.266,3.393-2.103,4.524
									C81.519,212.799,80.79,203.828,82.407,201.08z"/>
								<path fill="#010101" d="M187.108,204.018c0,0-9.27-10.238-16.705-12.824c0,0,5.498,2.586,8.623,6.142
									c0,0-6.574-6.36-17.244-8.515c0,0,3.449,1.186,4.095,1.834c0,0-4.097-1.509-10.022-3.019c0,0,5.387,2.586,7.111,3.558
									c1.729,0.969,2.374,1.615,2.374,1.615s-9.593-2.048-15.09-3.449c0,0,2.265,0.646,2.589,0.97c0,0-4.206-0.646-7.762,0.325
									c0,0,3.918-0.056,4.42,0.32c0.43,0.325-6.037-0.214-9.485,1.078c0,0,3.448-0.43,4.419-0.106c0,0-5.495,0.755-7.867,4.634
									c0,0,0.755-1.832,1.078-2.262c0,0-2.156,2.154-2.479,5.71c0,0-0.862-3.879-0.539-4.524c0,0-0.753,4.203,0.647,7.004
									c0,0-2.265-4.85-2.371-5.389c0,0,0.861,4.203,1.185,4.958c0,0-2.8-5.065-2.909-5.604c0,0,1.883,5.318,2.156,6.144
									c0.109,0.323-3.019-3.987-3.019-3.987s0.862,5.063,4.311,7.65c0,0-2.442-3.531-2.587-4.095
									c-0.106-0.431,2.803,3.019,2.803,3.019l-1.078-2.264l1.725,1.94l-0.862-2.156l1.617,1.94c0,0-0.755-3.234-0.216-5.282
									c0,0-0.215,2.909,0.971,3.987c0,0,4.634,0.756,8.621-1.724c0,0-2.803,0.323-4.526,0.646c0,0,7.976-2.154,9.915-4.633
									c0,0-1.4,0.539-2.911,0.432c0,0,8.517-2.803,9.81-3.881c0,0-2.802,2.479-3.557,2.803c0,0,4.635-2.586,5.818-3.232
									l-0.859,1.615c0,0,4.859-1.104,10.02,1.51c0,0-4.094-2.372-4.955-2.695c0,0,6.303,1.334,11.639,5.389
									c0,0-4.204-4.337-8.947-5.818c0,0,7.545,2.262,13.152,7.866c0,0-5.716-5.712-8.516-6.897c0,0,6.68,2.803,10.99,7.221
									l-2.047-2.801C180.642,199.168,184.415,200.893,187.108,204.018z"/>
								<path fill="#010101" d="M116.301,206.711c0,0,2.479,5.496,0.862,8.191c-1.615,2.695-5.816,11.423-6.249,15.733
									c-0.433,4.31-0.433,4.311-0.433,4.311s2.156-12.608,7.221-18.966C117.702,215.98,119.749,212.962,116.301,206.711z"/>
								<path fill="#010101" d="M100.353,221.369c0,0-5.092,0.403-9.376-1.134c0,0,0.078-5.496,3.474-7.437
									c0,0,0.646-0.726,6.709-1.212c6.062-0.485,11.477,1.052,13.014,5.578c0,0,0.566,3.396-4.121,3.638
									c0,0,4.364-0.325,4.77-0.809c1.045-1.257,0.483-3.96-2.186-6.467c0,0,1.943,0.97,2.587,1.697c0,0-2.989-4.769-11.558-5.82
									c-8.569-1.05-15.277,1.697-15.68,10.59c0,0,0.726-5.497,3.961-7.518c0,0-3.315,5.497-2.184,9.699
									c0,0,0.242,0.162,0.485-0.646C90.248,221.529,94.289,222.581,100.353,221.369z"/>
								<path fill="#010101" d="M91.972,217.921"/>
								<path fill="#010101" d="M158.873,215.912c0,0-7.195,1.333-10.995-0.471c0,0,3.018-8.191,7.867-9.916
									c4.85-1.724,13.471,0.323,17.781,4.311c0,0-1.398,3.019-3.984,3.665c0,0,4.094-0.433,6.467-2.909
									c0,0-0.326-0.539-0.972-1.509c0,0,2.021,0.645,4.741,2.585c0,0-9.591-9.914-21.23-9.052c0,0-7.759,0.214-12.395,6.788
									c0,0,2.158-2.478,4.636-2.909c0,0-4.634,7.112-4.85,11.103C145.939,217.598,154.454,218.499,158.873,215.912z"/>
								<path fill="#010101" d="M252.632,222.984c0,0,5.604-7.327,13.259-6.145c5.471,0.848,12.771,3.234,10.021,26.352
									c0,0-1.779,22.47-17.136,28.776c0,0-10.237,6.195-21.338,7.113c0,0-2.748-2.264-3.231-4.366c0,0,0.16,5.497,1.938,7.761
									s3.719,4.851,8.244,5.174c0,0-2.908,0-6.627-4.526c0,0,6.684,7.545,10.67-3.342c0,0,17.139-5.496,24.25-20.367
									c0,0,4.202-8.838,5.063-25.22c0,0,0.433-15.413-9.377-17.89C268.368,216.304,258.993,213.068,252.632,222.984z"/>
								<path fill="#010101" d="M257.27,227.62c0.905-0.78,9.629-8.521,14.334-5.498c0,0,9.594,13.363,0.754,29.313
									c0,0,3.231-17.888-8.515-26.079C263.843,225.356,260.501,225.68,257.27,227.62z"/>
								<path fill="#010101" d="M264.489,245.51c0.188,0.284-6.41-9.631-10.482-8.623c-3.477,0.862-3.42,4.311-2.987,6.144
									c0.43,1.832,0.401,6.062-2.48,8.082c-3.082,2.163-8.191,5.013-6.17,8.568c1.564,2.757,7.572,2.534,11.238-2.531
									c0,0-7.117,6.491-10.564,1.401c0,0-0.754-3.314,4.527-5.604c4.971-2.156,7.115-4.204,5.066-9.377
									c0,0-2.105-5.389,1.612-5.711C257.257,237.597,263.223,243.597,264.489,245.51z"/>
								<path fill="#010101" d="M130.097,339.381c0.324,0.969,16.166,27.48,16.812,89.881c0,0,3.557-57.228-12.611-89.881H130.097
									L130.097,339.381z"/>
								<path fill="#010101" d="M87.742,189.197c0,0-4.041-1.292-2.101-6.95c0,0,1.129-2.587,0.482-5.981
									c-0.646-3.395-0.969-7.922,2.912-11.64c0,0,1.615-1.294,1.292-3.071c-0.323-1.778,1.455-4.527,2.424-5.658
									c0.972-1.132,1.457-8.405,0.972-9.214c-0.486-0.809-3.072-6.307,0.322-9.699c0,0-0.322-4.043,2.747-5.175
									c0,0,2.266-4.201,6.146-3.448c0,0-2.047-1.186-3.88-0.753c0,0,0.969-6.574,3.341-7.438c2.371-0.862,2.693-3.556,2.693-4.526
									c0-0.969,0-5.063,3.236-5.818c0,0-0.217-6.36,4.955-6.467c0,0,1.08-2.157,1.295-5.605c0.207-3.333,3.034-6.065,6.826-5.268
									c0.13,0.029,0.262,0.061,0.393,0.095c3.986,1.079,2.803-4.85,7.221-3.448c0,0,2.695-3.341,6.898-1.724
									c0,0,1.94,0.971,3.232-0.433c1.295-1.398,5.496-4.095,9.701-2.156c0,0,2.478,0.648,4.309-0.537
									c1.834-1.185,4.205-1.831,6.576-0.216c0,0,1.829-2.8,4.524-2.261c0,0,2.909-4.42,7.114-1.834c0,0,2.369-0.108,3.23,1.401
									c0,0,2.373-0.432,4.639,0.969c0,0,0.859,0.862,1.828,0.323c0.972-0.539,5.068-2.693,8.193,0.109
									c0,0,1.832,0.971,3.449,0.106c1.615-0.861,5.279-2.909,7.865-1.075c2.586,1.831,2.912,2.154,3.881,2.154
									s4.42-0.54,6.357,2.477c0,0,2.373-0.43,3.666-0.106c0,0,2.479-2.478,5.389,0.861c0,0,4.635-1.508,7.543,3.126
									c0,0,3.34-0.323,4.096,1.617c0,0,3.125,1.292,3.879,3.232c0,0,5.391,1.294,6.682,4.526c0,0,0.865,0.323,2.267,0.433
									c1.397,0.106,4.312,0.43,4.957,5.065c0,0,2.049,3.771,3.985,4.417c1.941,0.646,5.929,1.401,7.007,3.771
									c0,0,3.879,1.08,5.711,3.128c1.832,2.047,3.344,2.047,3.666,2.154c0.321,0.108,4.633,0.323,6.034,5.279
									c0,0,1.722,2.264,1.722,4.852c0,2.587,1.295,3.663,1.295,3.663s3.451,3.557,3.021,7.114c0,0,1.399,2.154,0.646,5.28
									c-0.754,3.125-1.185,5.281-0.541,6.144c0.646,0.862,3.881,2.263,4.099,4.634c0,0,4.203,0.647,4.633,5.065
									c0,0,2.912,2.693,2.156,6.467c-0.754,3.771-0.97,4.526,0.106,5.603c1.078,1.078,3.125,2.803,2.047,7.329
									c0,0-0.539,2.695-0.213,4.312c0.321,1.615-0.647,3.878-1.404,4.956c0,0,1.617,4.202-0.106,7.868
									c0,0,2.373,6.574-1.291,11.747c-3.664,5.172-3.664,7.545-3.559,7.975c0.106,0.433,0.756,2.911-1.291,4.959
									c0,0-0.648,1.831-0.539,3.448c0.108,1.615,0.86,3.878-1.402,6.142c-2.266,2.264-3.34,3.558-3.34,3.558l-4.744,2.586
									c0,0,2.695-16.057-8.188-20.692c0,0-6.145-1.078-8.62,0.539c-2.482,1.617-11.425-5.065-11.855-9.053
									c-0.434-3.988-2.264-7.437-2.91-7.976c0,0,1.725,1.94,1.398,5.603c0,0,0.217-4.309-3.125-7.326
									c-3.34-3.019-4.851-6.897-4.851-6.897s0.972,3.771,1.94,5.065c0,0-4.098-5.497-4.526-7.438c0,0,0.858,4.742,1.291,5.389
									c0,0-2.905-4.095-5.062-7.327c-2.154-3.234-4.959-4.852-4.959-4.852s2.371,2.05,3.233,4.097c0,0-2.694-2.479-4.957-4.526
									c-2.266-2.048-3.125-7.329-3.018-8.73c0,0-0.861,4.526,1.399,7.868c0,0-4.85-5.714-1.832-13.687c0,0-0.43,3.556,0,4.85
									c0,0,0.539-9.915,7.006-12.718c0,0,0.431-2.909-1.834-4.201c-2.262-1.295-8.514-5.605-5.711-13.257
									c0,0-10.992,0.753-14.117-2.909c-3.125-3.667-5.713-4.959-7.761-4.529c-2.047,0.433-5.926,0.972-9.051-1.185
									c0,0-7.869,3.017-14.443,0c0,0-1.834-1.186-4.85-0.216c-3.017,0.971-7.006,0.646-8.729-0.107c0,0-6.035,3.342-11.532,1.617
									c0,0-2.048,1.508-4.311,2.264c-2.263,0.753-10.779,4.311-15.194,0.969c0,0-6.145,0-8.299,1.294
									c-2.156,1.292-7.328,3.665-11.639,0.107c0,0,1.4,1.724,3.555,2.263c0,0-4.203,0.539-6.898,0.862
									c-2.691,0.323-6.357,7.222-7.004,8.298c-0.646,1.078-11.533,20.802-12.179,30.715L87.742,189.197z"/>
								<path fill="#010101" d="M108.595,256.771c0.404,0.317-8.728-4.201-8.728-9.213c0-5.013,6.734-14.282,11.047-16.922
									l0.27,1.078c0,0-8.569,5.496-10.185,16.004C100.999,247.718,99.382,249.497,108.595,256.771z"/>
								<path fill="#010101" d="M117.972,232.2c0,0,7.922-8.245,7.598-12.448c-0.322-4.204-0.646-10.669-0.646-10.669
									s2.747,9.052,1.452,13.093C125.087,226.219,117.972,232.2,117.972,232.2z"/>
								<path fill="#010101" d="M268.152,259.52c0.345-0.378-8.084,9.699-10.022,6.952
									C256.189,263.724,263.141,265.016,268.152,259.52z"/>
								<path fill="#010101" d="M259.641,363.736c0,0,2.586-28.449-2.158-53.023l-2.586,18.537c0,0,1.727-37.075,0.865-53.025
									l3.016-4.257c0,0,0,38.312,1.725,46.072c1.725,7.759,3.016,28.452,2.586,31.902
									C262.654,353.391,259.641,363.736,259.641,363.736z"/>
								<path fill="#010101" d="M262.874,347.885c0,0-7.549,19.623-7.979,20.917c-0.43,1.292-21.016,56.255-74.686,90.527
									c0,0-20.367,2.587-29.098-6.467c0,0-9.59-31.36-5.279-56.364l-4.743-25.003c0,0-4.312,3.017-7.329,8.621
									c0,0-24.573,10.776-46.558,16.812c-21.987,6.035-43.54,11.205-47.421,16.812c0,0-22.416,12.071-23.278,16.383
									c-0.862,4.311-18.106,32.33-16.382,76.729c0,0,6.037-56.471,18.536-74.145c0,0,4.312,17.244,4.312,15.949
									c0-1.293-3.878-17.244-2.587-19.83c1.293-2.586,17.675-12.069,20.693-12.932c3.016-0.864-2.926,4.824,0.09,3.103
									c3.018-1.725,8.963-8.274,8.963-8.274s26.726-8.192,37.506-10.776c10.777-2.589,45.693-15.091,45.693-15.091
									s4.742,18.537,5.604,19.831c0,0-3.448-18.535-3.017-19.831c0.428-1.292,3.449-6.465,3.449-6.465s1.291,20.259,2.586,22.414
									c0,0,1.078,32.98,7.865,54.644c0,0,8.73,9.051,30.717,7.112c0,0,44.186-16.061,77.381-90.206c0,0,5.064-16.49,6.68-16.49
									c1.617,0,9.053,6.791,9.053,6.791s-1.074,6.25-6.25,17.89c0,0,6.467-7.545,10.777-17.89c0,0,51.084,16.812,62.078,25.865
									c10.994,9.053,20.109,16.454,21.338,15.843c1.941-0.971,7.545,3.341,7.545,3.341s69.406,49.576,92.037,62.615
									c0,0-90.854-65.312-93.439-67.896c-2.584-2.585-5.817-5.172-7.76-5.819c-1.938-0.646-11.959-7.111-15.193-9.375
									c-3.231-2.264-23.928-15.196-65.635-27.159C279.146,360.071,272.247,350.146,262.874,347.885z"/>
								<g>
									<g>
										<defs>
											<path id="SVGID_13_" d="M146.964,215.817c0,0,3.232-10.294,6.682-11.37c3.449-1.078,14.98-1.185,20.801,5.55
												l-0.646,1.617C173.8,211.614,159.735,219.05,146.964,215.817z"/>
										</defs>
										<clipPath id="SVGID_14_">
											<use xlink:href="#SVGID_13_"  overflow="visible"/>
										</clipPath>
										<circle clip-path="url(#SVGID_14_)" fill="#010101" cx="158.765" cy="210.267" r="6.493"/>
									</g>
									<g>
										<g>
											<defs>
												<path id="SVGID_15_" d="M90.114,220.561c0,0,0.16-7.543,3.932-8.946c3.773-1.401,12.719-1.671,15.145-0.214
													c2.424,1.454,4.902,4.147,5.228,5.495c0.321,1.348-0.271,2.856-0.271,2.856S103.854,223.793,90.114,220.561z"/>
											</defs>
											<clipPath id="SVGID_16_">
												<use xlink:href="#SVGID_15_"  overflow="visible"/>
											</clipPath>
											<path clip-path="url(#SVGID_16_)" fill="#010101" d="M107.437,215.98c0,3.495-2.835,6.331-6.333,6.331
												c-3.493,0-6.329-2.836-6.329-6.331c0-3.496,2.836-6.331,6.329-6.331C104.602,209.649,107.437,212.484,107.437,215.98z"/>
										</g>
										<path fill="#A66443" d="M158.44,214.48c-2.391,0-4.449-1.422-5.443-3.487c0.42,2.787,2.755,4.926,5.582,4.926
											c3.123,0,5.652-2.604,5.656-5.815C163.462,212.641,161.159,214.48,158.44,214.48z"/>
										<path fill="#A66443" d="M158.481,213.488c-1.887,0-3.514-1.123-4.297-2.755c0.33,2.204,2.178,3.891,4.408,3.891
											c2.467,0,4.465-2.056,4.467-4.592C162.449,212.036,160.632,213.488,158.481,213.488z"/>
										<path fill="#A66443" d="M100.674,220.194c-2.388,0-4.45-1.424-5.442-3.49c0.42,2.79,2.758,4.926,5.582,4.926
											c3.121,0,5.652-2.603,5.658-5.814C105.694,218.353,103.396,220.194,100.674,220.194z"/>
										<path fill="#A66443" d="M100.717,219.2c-1.887,0-3.517-1.123-4.298-2.755c0.333,2.203,2.177,3.891,4.409,3.891
											c2.467,0,4.465-2.056,4.467-4.593C104.684,217.748,102.866,219.2,100.717,219.2z"/>
										<path fill="#FFFFFF" d="M103.306,214.729c-0.052,0.002-0.102,0.006-0.152,0.01c-0.045,0.002-0.076,0.021-0.119,0.029
											c-0.048-0.27-0.148-0.537-0.361-0.788c-0.03-0.039-0.062-0.078-0.096-0.117c-0.938-1.128-2.77-0.175-2.77,1.146
											c0,1.062,1.179,1.864,2.129,1.562c0.167,0.453,0.57,0.821,1.217,0.866c0.051,0.005,0.101,0.007,0.152,0.011
											C105.058,217.566,105.058,214.607,103.306,214.729z"/>
										<path fill="#FFFFFF" d="M159.447,208.822c-0.498-0.262-0.831-0.232-1.348-0.05c-0.835,0.301-0.835,1.396,0,1.695
											c0.517,0.186,0.85,0.214,1.348-0.049C160.048,210.102,160.048,209.141,159.447,208.822z"/>
										<path fill="#FFFFFF" d="M162.256,208.254c-0.284-0.08-0.565-0.185-0.851-0.259c-0.839-0.219-1.629,0.718-1.146,1.491
											c0.429,0.689,1.245,0.842,1.996,0.638C163.192,209.873,163.171,208.518,162.256,208.254z"/>
										<path fill="#5C4743" d="M106.979,133.426c0,0,1.133-5.981,5.011-6.952c3.878-0.97,4.85-6.142,5.981-7.597
											c1.131-1.455,8.244-8.084,14.226-6.952c0,0-2.101-1.615-4.687-0.97c0,0,4.523,0.486,7.921-0.322
											c3.396-0.809,3.878-2.749,4.526-5.175c0,0,0.486,1.779,0.16,2.911c0,0,3.881-3.395,4.527-5.498
											c0.648-2.101,6.307-7.11,11.156-5.495c0,0-4.689-0.323-6.307,2.101c0,0,6.629-2.907,10.67,0.162
											c0,0-1.777-0.162-2.588-0.162c0,0,6.629,0,9.539,1.94c0,0-1.615-2.424-5.656-3.396c0,0,5.818,2.264,7.756,2.912
											c1.941,0.646,6.63,0.969,6.63-3.719c0,0,0.323,1.938-2.589,2.262c0,0,2.912-1.455,1.78-5.01c0,0,4.85,0.969,4.85,5.335
											c0,0-0.483-3.881-2.585-5.498c0,0,5.011,2.266,5.334,6.144c0,0,5.658,0.646,8.244,2.749c0,0-4.041,0.483-4.85,4.041
											c0,0,2.749-3.88,9.053-3.558c0,0-2.91,0.646-3.232,1.455c0,0,6.143,0.485,7.758,5.335c0,0-0.484-4.041-1.615-4.85
											c0,0,5.658,2.103,7.273,7.275c0,0-1.293-0.485-2.586-0.485c0,0,5.817,1.455,7.112,3.718
											c1.293,2.264,2.588,4.041,5.174,4.041s6.789,2.749,7.437,4.204c0,0-1.939-1.293-3.396-1.617c0,0,1.615,1.617,3.882,3.718
											c2.26,2.103,5.012,1.294,6.301,2.911c1.295,1.617,1.942,5.333,1.942,5.333s-1.133-2.909-2.266-3.878
											c0,0,1.295,3.232,1.456,5.495c0,0,6.468,1.778,6.306-2.424c0,0,0,2.747-1.617,3.718c0,0,3.72-2.263,3.07-6.952
											c0,0,0.485,3.718,0.647,4.689c0,0,5.496,0.646,5.174-2.104c-0.325-2.747-3.071-5.819-5.981-5.819
											c0,0,9.858-1.777,12.933,4.526c0,0,3.881-0.809,5.981,0.97c0,0-1.455,0.647-1.94,0.809c0,0,4.043,0,5.336,2.909
											c0,0-2.265,3.395-0.97,6.467c0,0-0.323-1.615,0.646-3.072c0,0-0.812,4.527,2.1,6.953c2.91,2.424,3.72,5.012,3.72,6.627
											c0,0-0.324-2.749-0.81-4.203c-0.483-1.455-0.324-0.807-0.324-0.807s4.689,3.718,4.527,8.082
											c-0.16,4.363,3.717,7.112,3.717,7.112s-1.291-2.101-1.453-4.041c0,0,0.81,1.94,4.041,4.364
											c3.234,2.426,5.66,6.95,5.66,9.214c0,0,0.644-2.424-0.162-4.041c0,0,4.525,9.053,1.453,13.419
											c-3.069,4.364-3.231,7.273-2.746,8.242c0,0,0.322-1.615,1.293-3.393c0,0-1.778,4.688-0.323,7.113
											c1.455,2.424,1.455,7.112,1.293,8.891c0,0-0.164-2.749-1.939-4.689c0,0,1.775,5.012-0.809,8.73
											c-2.588,3.718-0.648,6.467,0,7.112c0.646,0.648,1.455,7.922-0.322,10.185c-1.779,2.264,1.455,5.819,1.615,8.245
											c0,0,4.608-1.615,5.092-3.798c0.486-2.184,1.213-3.799,0.162-9.619l0.645,1.292c0,0,1.699-1.372,1.215-4.041
											c-0.486-2.667-1.293-2.587,0.162-6.708c0,0-0.641,1.42-0.256,3.064c0.027,0.108,0.059,0.22,0.094,0.329
											c0.564,1.779,1.777-3.879,3.234-5.899c1.455-2.021,3.879-5.82,1.615-9.941c0,0-0.729,0.889-1.373,1.372
											c0,0,4.203-5.011,0.727-11.234c0,0,0.646,0.565,0.729,0.889c0,0,1.535-2.183,1.131-3.961
											c-0.403-1.777-1.213-3.312-0.647-6.224c0,0-0.239,1.457,0.324,2.586c0,0,0.565-2.263,0.647-3.638
											c0.08-1.372-0.485-3.473-2.104-4.524c-1.615-1.051-3.312-2.749-4.363-4.85c0,0,1.777,2.344,3.152,2.909
											c0,0,2.426-4.606,0.162-9.053c0,0,0.08,0.809-0.324,2.426c0,0,1.293-7.438-8.406-8.973c0,0,2.182-0.243,2.666,0
											c0,0-1.697-2.829-2.426-3.315c-0.727-0.483-2.746-2.343-2.988-5.252c0,0,0.484,1.454,1.051,2.021
											c0,0,2.828-4.931,1.049-8.407c0,0-0.481,1.374-1.049,2.021c0,0,2.666-4.122-0.646-7.677
											c-3.313-3.558-4.931-5.255-5.254-6.71c0,0,0.969,1.535,2.101,2.264c0,0,0.809-3.801-1.535-6.144c0,0,0,0.889-0.08,1.617
											c0,0,0.646-5.658-8.084-6.307l1.457-0.321c0,0-3.154-3.88-7.924-4.77c0,0,0.647,1.292,0.809,2.021
											c0,0-2.826-6.304-11.234-6.224c0,0,2.182-0.323,2.424-0.243s-3.475-3.638-3.959-4.526c0,0,0,1.294,0.324,2.021
											c0,0-1.133-0.565-1.213-3.07c-0.082-2.506-1.859-4.688-8.488-3.962c0,0,1.617-0.564,1.859-0.483
											c0,0-1.131-3.072-5.252-3.961c0,0,0.322,1.615,0.322,2.424c0,0,0.16-3.799-4.283-5.656c0,0-2.023,0.16-2.912,0.646
											c0,0,1.697-1.214,1.939-1.132c0,0-2.043-0.79-2.586-0.971c-0.24-0.08-2.265,0.971-2.668,1.457l1.213-1.78
											c0,0-0.998-3.099-6.17-2.775c0,0,0.971,1.294,0.971,2.586c0,0-1.402-3.662-3.986-4.094
											c-2.59-0.433-2.912,0.971-2.912,0.971s-2.91-0.864-3.449-0.432c0,0,0.217,1.185,0.217,2.156c0,0-1.295-4.097-7.112-4.526
											c0,0,0.432,1.398,0.432,2.047c0,0.323-3.125-4.42-6.143-4.097c-3.019,0.325-4.959,2.909-9.162,3.664
											c0,0,2.588-1.508,3.232-2.153c0,0-2.584-0.109-4.095-1.079c-1.509-0.969-4.956-1.075-7.974,0.756
											c0,0,0.107,0.969,0.324,1.617c0.106,0.323-0.865-2.803-6.145-2.912c0,0,0.432,1.079,0.539,2.048
											c0,0-0.861-3.017-3.773-3.881c0,0,0.327,0.758,0.541,1.188c0,0-1.939-2.37-4.526-1.725
											c-2.587,0.646-2.802,2.048-2.802,2.048s1.724,1.078,2.263,2.37c0,0-2.156-1.938-3.989-1.725c0,0-2.803-0.43-3.017,4.42
											l-0.431-2.805c0,0-3.988-1.399-6.036,0.541c-2.046,1.94-3.985,2.695-6.358,2.91c0,0,2.048-0.756,2.91-2.048
											c0,0-2.695-2.803-6.574-0.862c-3.881,1.94-4.85,3.126-4.85,3.126s2.264,0.862,2.693,1.401c0,0-8.404-3.99-11.637,0.43
											c0,0-1.078,2.909-1.834,3.881c0,0,0.862-2.803,0.323-3.988c0,0-2.693,0.756-3.339,3.019l1.617,0.537
											c0,0-5.282-1.186-8.087,0.757c-2.8,1.938-2.045,4.632-3.231,10.022c-1.186,5.387-1.725,6.681-1.725,6.681
											s0.971-4.311,0.432-6.144c0,0-4.42,1.078-4.42,3.45c0,2.371,0.002,4.634-0.106,5.28l-1.185-2.587
											c0,0-1.404,2.693-1.941,5.819c-0.541,3.125-2.263,4.312-2.586,4.528c-0.325,0.214-2.481,3.34-2.372,3.985
											c0,0,1.078-2.478,2.802-3.017c0,0-2.047,3.017-0.969,3.771c1.076,0.756,2.373,4.204,0.539,6.143
											c0,0,2.154-0.97,1.184-4.955c0,0,1.619,1.615,1.402,3.446C105.956,132.779,106.979,133.426,106.979,133.426z"/>
										<path fill="#5C4743" d="M241.857,149.053c0,0,4.201,0.216,5.172,3.664c0,0-1.51-2.695-6.575-2.156
											c0,0,2.586-0.646,3.125-0.322C243.579,150.238,243.473,149.701,241.857,149.053z"/>
										<path fill="#5C4743" d="M245.195,154.98c0,0,4.638,2.264,4.744,6.357C249.939,161.338,249.294,157.244,245.195,154.98z"/>
										<path fill="#5C4743" d="M251.771,160.479c0,0,2.479,0.106,3.125,2.586C254.896,163.064,252.954,161.231,251.771,160.479z"
											/>
										<path fill="#5C4743" d="M256.298,163.602c0,0,3.019,0.648,3.771,3.558C260.068,167.159,261.146,163.925,256.298,163.602z"
											/>
										<path fill="#5C4743" d="M251.122,146.25c0,0,3.668,1.401,4.099,4.634C255.221,150.884,256.081,147.006,251.122,146.25z"/>
										<path fill="#5C4743" d="M257.698,148.729c0,0,2.481,3.665,3.881,3.987C261.579,152.717,259.208,154.012,257.698,148.729z"
											/>
										<path fill="#5C4743" d="M264.489,159.291c0,0,1.938,0.971,2.368,2.479c0.433,1.508,0,0.43,0,0.43
											S264.704,160.477,264.489,159.291z"/>
										<path fill="#5C4743" d="M267.938,168.99c0,0,2.479-0.107,3.125,2.156C271.062,171.146,271.708,168.451,267.938,168.99z"/>
										<path fill="#5C4743" d="M272.464,166.081c0,0,3.771,0.647,4.851,2.802C277.312,168.883,277.204,165.435,272.464,166.081z"
											/>
										<path fill="#5C4743" d="M273.325,172.979c0,0,1.727,0.537,2.153,2.262C275.479,175.241,276.559,172.979,273.325,172.979z"
											/>
										<path fill="#5C4743" d="M241.964,139.407c0,0,3.72,1.777,4.205,4.041C246.169,143.448,244.548,140.539,241.964,139.407z"
											/>
										<path fill="#5C4743" d="M250.854,152.018c0,0,3.072,2.101,3.56,4.041c0,0-0.164-3.718-3.231-5.498
											c0,0,0.887,0.972,1.129,1.78L250.854,152.018z"/>
										<path fill="#5C4743" d="M257.564,157.676c0,0,3.068,1.212,3.879,2.907c0,0-1.454-1.292-3.233-1.695
											c0,0,2.508,1.374,2.83,2.989c0,0,2.101,1.212,2.586,2.669c0,0-0.972-1.699-4.931-2.829l1.615,0.16
											c0,0,0.486-1.857-5.496-3.232c0,0,2.506-0.082,2.666,0.161L257.564,157.676z"/>
										<path fill="#5C4743" d="M118.294,128.576c0,0,0.486-2.586,2.104-2.264c1.617,0.323,3.718,1.778,3.393,3.881
											C123.79,130.193,121.854,125.019,118.294,128.576z"/>
										<path fill="#5C4743" d="M125.247,122.325c0,0,0.646-5.173,4.094-4.526C129.341,117.799,125.032,115.858,125.247,122.325z"
											/>
										<path fill="#5C4743" d="M130.745,124.697c0,0,1.939-1.941,3.878-0.757C134.623,123.94,133.547,123.727,130.745,124.697z"
											/>
										<path fill="#5C4743" d="M136.779,117.369c0,0,3.45,1.4,4.958-2.912C141.737,114.457,141.413,116.507,136.779,117.369z"/>
										<path fill="#5C4743" d="M142.707,122.433c0,0,3.126-2.37,4.956-1.292C147.663,121.141,144.54,118.445,142.707,122.433z"/>
										<path fill="#5C4743" d="M144.485,109.661c0,0,2.908-4.041,6.467-2.747C150.952,106.914,147.878,107.237,144.485,109.661z"
											/>
										<path fill="#5C4743" d="M155.315,108.531c0,0,5.658-1.133,7.92,1.615C163.235,110.146,161.134,108.369,155.315,108.531z"
											/>
										<path fill="#5C4743" d="M157.739,116.128c0,0,3.721,2.587,6.467,1.294C164.206,117.422,163.235,120.654,157.739,116.128z"
											/>
										<path fill="#5C4743" d="M145.939,116.128c0,0,0.485-2.749,4.202-2.101C150.142,114.027,146.909,114.351,145.939,116.128z"
											/>
										<path fill="#5C4743" d="M143.837,136.335c0,0,4.363-0.16,5.82-4.041C149.657,132.294,146.425,135.526,143.837,136.335z"/>
									</g>
								</g>
							</g>
						</g>
					</g>
				</g>
			</g>
		</g>
	</g>
</g>
<g>
	<g>
		<path fill="#FFFFFF" d="M200.002,524.574c-15.623,0-28.334-12.711-28.334-28.334c0-15.622,12.711-28.332,28.334-28.332
			c15.621,0,28.33,12.71,28.33,28.332C228.332,511.863,215.623,524.574,200.002,524.574z"/>
		<path fill="#D3B76E" d="M200.002,469.908c14.541,0,26.33,11.789,26.33,26.332c0,14.545-11.789,26.334-26.33,26.334
			c-14.545,0-26.334-11.789-26.334-26.334C173.668,481.697,185.457,469.908,200.002,469.908 M200.002,465.908
			c-16.727,0-30.334,13.606-30.334,30.332c0,16.727,13.607,30.334,30.334,30.334c16.725,0,30.33-13.607,30.33-30.334
			C230.332,479.516,216.727,465.908,200.002,465.908L200.002,465.908z"/>
	</g>
	<g>
		<g>
			<path fill="#F2F2F2" d="M177.334,490.631c3.098-12.521,15.758-20.154,28.275-17.055c12.521,3.096,20.154,15.756,17.057,28.274
				s-15.756,20.154-28.275,17.058C181.872,515.811,174.234,503.15,177.334,490.631"/>
			<path fill="#E9262B" d="M204.326,473.297c-2.818-0.535-5.627-0.533-8.316-0.065v18.655h-18.949
				c-0.537,2.818-0.541,5.627-0.076,8.316h19.025v19.045c2.824,0.492,5.633,0.451,8.316-0.057v-18.988h18.686
				c0.488-2.824,0.443-5.633-0.066-8.316h-18.618L204.326,473.297L204.326,473.297z"/>
		</g>
	</g>
</g>
</svg>
