<?xml version="1.0" encoding="utf-8"?>
<!-- Generator: Adobe Illustrator 16.0.0, SVG Export Plug-In . SVG Version: 6.00 Build 0)  -->
<!DOCTYPE svg PUBLIC "-//W3C//DTD SVG 1.1//EN" "http://www.w3.org/Graphics/SVG/1.1/DTD/svg11.dtd" [
	<!ENTITY ns_flows "http://ns.adobe.com/Flows/1.0/">
	<!ENTITY ns_extend "http://ns.adobe.com/Extensibility/1.0/">
	<!ENTITY ns_ai "http://ns.adobe.com/AdobeIllustrator/10.0/">
	<!ENTITY ns_graphs "http://ns.adobe.com/Graphs/1.0/">
]>
<svg version="1.1" id="Layer_1" xmlns:x="&ns_extend;" xmlns:i="&ns_ai;" xmlns:graph="&ns_graphs;"
	 xmlns="http://www.w3.org/2000/svg" xmlns:xlink="http://www.w3.org/1999/xlink" xmlns:a="http://ns.adobe.com/AdobeSVGViewerExtensions/3.0/"
	 x="0px" y="0px" width="400px" height="560px" viewBox="0 0 400 560" enable-background="new 0 0 400 560" xml:space="preserve">
<g id="Layer_1_1_" display="none">
	<g display="inline">
		<rect x="0.115" fill="#B72025" width="400" height="560"/>
		<g>
			<polygon fill="#204074" points="400.107,243.092 400.107,42.939 0.123,333.826 0.123,560 			"/>
		</g>
		<g>
			<polygon fill="#FFFFFF" points="39.615,423.526 39.615,141.178 360.615,141.178 360.615,423.526 200.115,495.674 			"/>
			<g>
				<path fill="#010101" d="M356.115,145.678v274.938l-156,70.125l-156-70.125V145.678H356.115 M365.115,136.678h-9h-312h-9v9
					v274.938v5.821l5.311,2.388l156,70.125l3.689,1.658l3.689-1.658l156-70.125l5.311-2.388v-5.821V145.678V136.678L365.115,136.678
					z"/>
			</g>
		</g>
		<g>
			<path fill="#D3B66E" d="M365.115,136.678v9v274.938v5.801l-165,73.824l-165-73.834v-5.791V145.678v-9h9h312H365.115
				 M372.115,129.678h-7h-9h-312h-9h-7v7v9v274.938v5.791v4.535l4.141,1.854l165,73.834l2.859,1.279l2.859-1.279l165-73.824
				l4.141-1.852v-4.537v-5.801V145.678v-9V129.678L372.115,129.678z"/>
		</g>
		<g>
			<g>
				<defs>
					<polygon id="SVGID_1_" points="356.115,420.615 200.115,490.74 44.115,420.615 44.115,145.678 356.115,145.678 					"/>
				</defs>
				<clipPath id="SVGID_2_">
					<use xlink:href="#SVGID_1_"  overflow="visible"/>
				</clipPath>
				<g clip-path="url(#SVGID_2_)">
					<path fill="#0066AA" d="M81.652,492.156c0,0,16.112-15.111,21.021-16.875c0,0-12.75,6.131-13.554,6.332
						c-0.806,0.201,11.485-9.172,18.524-11.261c-7.054,1.816-10.625,2.859-16.877,5.953c0,0,8.76-6.438,10.001-6.354
						c-2.418,0.264-3.617,0.416-5.966,0.787c0,0,16.312-6.978,19.661-7.568c0,0-14.588,2.668-15.683,2.67
						c-0.955,0.002,9.143-4.276,9.143-4.276c-4.147,0.348-6.246,0.551-10.34,1.094c3.668-1.25,5.568-1.791,9.347-2.797
						c-2.531,0.055-3.804,0.096-6.336,0.2c0,0,18.439-5.247,22.126-6.411c-4.971,0.651-7.724,0.996-13.137,1.764
						c9.018-2.783,18.076-5.701,27.425-7.166c-8.6,0.178-13.205,1.135-23.881,2.912c5.379-1.438,8.035-2.287,12.823-3.43
						c-2.658-0.625-4.05-0.832-6.921-1.283c4.337-1.043,6.343-1.48,10.243-2.283c-2.884-0.422-4.367-0.578-7.51-0.664
						c0,0,15.02-3.094,17.189-2.85c-3.77-0.867-5.666-1.257-9.712-1.685c0,0,12.363-1.414,14.711-0.77
						c-4.173-1.482-6.227-2.22-10.594-3.287c0,0,11.315,0.108,14.297,0.785c-5.417-2.605-7.997-3.974-13.623-5.968
						c2.5,0.107,3.712,0.242,6.109,0.652c-1.91-1.619-2.864-2.445-4.81-4.078c0,0,9.129,3.195,10.497,3.521
						c-3.169-2.535-4.722-3.851-7.928-6.349c2.271,0.562,3.38,0.927,5.587,1.773c-1.913-2.498-2.859-3.805-4.771-6.447
						c0,0,8.011,4.775,10.26,6.338c-2.037-2.657-3.032-4.053-5.024-6.883c0,0,10.449,7.344,12.111,9.166
						c-3.194-3.906-4.695-6.004-7.693-10.19c0,0,9.27,9.381,10.428,10.866c-3.585-4.694-5.243-7.26-8.527-12.381
						c0,0,8.509,8.978,9.448,10.287c-5.052-7.354-7.293-11.395-11.874-18.965c3.787,5.012,5.648,7.75,9.618,13.367
						c-1.764-3.189-2.616-4.836-4.3-8.129c3.369,3.594,5.052,5.684,8.59,10.369c-2.476-4.345-3.656-6.535-5.974-10.812
						c3.687,3.604,5.52,5.9,9.43,11.055c-0.503-2.346-13.479-22.657-13.479-22.657s-7.115-0.152-7.795,1.157
						c-6.271,12.088-15.535,28.597-26.25,40.271c-10.148,11.055-16.771,11.938-16.771,11.938
						c-10.889,10.806-16.725,25.908-20.358,40.56"/>
				</g>
			</g>
			<g>
				<defs>
					<polygon id="SVGID_3_" points="356.115,420.615 200.115,490.74 44.115,420.615 44.115,145.678 356.115,145.678 					"/>
				</defs>
				<clipPath id="SVGID_4_">
					<use xlink:href="#SVGID_3_"  overflow="visible"/>
				</clipPath>
				<path clip-path="url(#SVGID_4_)" fill="#E0DED6" d="M367.896,448.029c0.35,0.512,0.561,0.819,0.561,0.819
					s1.02-9.352-11.141-18.725c-6.951-6.678-17.039-11.387-26.648-14.602c-12.422-4.154-26.807-12.187-35.725-18.648
					c-8.916-6.465-19.617-12.492-24.383-14.449c-4.765-1.959-11.166-8.528-15.289-12.313c-3.765-3.459-13.926-2.142-15.664-1.886
					c0.016-0.334,0.031-0.668,0.049-1.002c1.422-14.243,3.143-28.916,3.949-35.639c6.869-7.172,14.211-16.199,19.647-25.974
					c4.449-7.991,6.205-16.325,7.144-24.942c5.623,0.166,7.754-7.781,10.172-14.473c2.529-6.996,2.178-17.314,2.178-17.314
					s-1.365-3.031,2.713-10.977c4.078-7.946-0.826-23.088-4.881-23.461c-2.863-0.264-5.012,5.152-5.514,6.541
					c0.106-8.541,1.018-21.727,2.555-36.234c1.893-17.832-2.154-34.469-9.125-42.65c-6.971-8.184-16.912-23.922-21.082-28.514
					c-4.168-4.592-8.822-8.104-14.268-11.58c-5.447-3.479-10.15-1.953-17.726-5.605c-7.575-3.652-24.408-13.27-27.56-12.607
					c-3.151,0.666-9.178,2.246-13.443,1.633c-4.265-0.613-9.132,3.303-16.769,4.422c-7.634,1.119-13.898,9.598-13.898,9.598
					s-10.186,9.707-19.491,15.135c-9.308,5.43-9.128,9.66-9.128,9.66c-21.196,27.701-18.041,80.824-17.477,88.33
					c-2.925-3.254-5.945-4.266-10.675-2.619c-6.056,2.111-8.28,17.133-6.584,23.771c1.153,4.516,1.44,8.947,1.459,13.539
					c0.018,4.592,0.618,10.395,4.08,12.896c3.462,2.504,7.637,6.814,9.808,10.535c1.924,3.293,5.419,2.66,7.799,1.598
					c1.241,7.277,8.38,50.889,2.979,60.824c-5.897,10.846-10.409,16.867-10.409,16.867c-2.417-4.754-15.622,8.825-15.622,8.825
					s-13.234,6.009-20.249,9.384c-6.457,3.106-17.941,8.952-27.602,13.911c-11.249,4.82-26.534,14.438-26.534,14.438L0,405.443
					c0,0,6.36-3.804,11.762-6.925l-0.736,79.925l174.312,57.09l183.363-80.933C368.701,454.602,368.803,451.918,367.896,448.029z
					 M241.035,386.49c0.119-3.031,0.113-6.254,0.031-9.086C241.311,380.088,241.379,383.193,241.035,386.49z"/>
			</g>
		</g>
		<g>
			<g>
				<defs>
					<polygon id="SVGID_5_" points="356.115,420.613 200.115,490.73 44.115,420.613 44.115,72.34 356.115,72.34 356.115,334.07 
											"/>
				</defs>
				<clipPath id="SVGID_6_">
					<use xlink:href="#SVGID_5_"  overflow="visible"/>
				</clipPath>
				<g clip-path="url(#SVGID_6_)">
					<path fill="#4FB060" d="M262.354,371.303c0,0,10.838,43.236-32.987,51.461c-43.826,8.224,0,0,0,0s-47.375,3.812-80.736-29.821
						c0,0-31.188-39.011-32.145-38.97c-0.96,0.041-10.53,6.449-11.238,6.722c-0.71,0.27-11.561,4.812-11.561,4.812
						s-22.967,13.219-27.48,14.371c-4.512,1.152-32.41,16.982-32.41,16.982l-0.77,83.584l174.312,57.09l183.363-80.932
						c0,0,0.779-19.839-20.178-29.933c0,0-28.81-12.643-34.676-15.094c-5.863-2.451-24.015-14.285-24.015-14.285l-20.156-12.469
						c0,0-11.196-9.248-14.682-10.719C273.514,372.631,262.354,371.303,262.354,371.303"/>
					<path fill="#2C814E" d="M280.156,380.631c-0.533-0.682,15.363,31.037-15.188,49.443c0,0-38.588,24.147-83.381,3.963
						c0,0-40.767-15.795-63.188-46.293c0,0-8.072-14.783-8.098-21.025c0,0,3.962-2.809,5.89-2.647c0,0,9.331,16.168,30.812,30.141
						c0,0-21.847-22.6-30.009-39.541c0,0-13.32,2.969-13.733,10.189c0,0,7.142,38.108,83.304,73.287c0,0,28.324,13.981,64.783,1.868
						c0,0,32.836-6.977,35.808-35.914C287.154,404.102,287.771,390.391,280.156,380.631z"/>
					<path fill="#2C814E" d="M264.992,374.072c0,0,12.398,9.315,9.562,21.682c0,0,3.321-6.625,1.698-10.877
						C274.633,380.625,269.916,376.984,264.992,374.072z"/>
					<path fill="#2C814E" d="M265.344,376.699c0,0,12.465,5.229,13.887,10.453c1.424,5.221-5.032,22.78-5.032,22.78
						s11.584-15.557,9.131-22.416c-2.451-6.856-5.681-10.801-6.42-11.25C276.17,375.818,265.617,371.885,265.344,376.699"/>
					<path fill="#2C814E" d="M267.543,371.984c0,0,12.998,30.418-17.684,45.766c0,0-0.996-2.299-0.457-2.322
						c0.539-0.021,20.07-9.375,15.59-41.354C264.992,374.072,265.334,370.816,267.543,371.984z"/>
					<path fill="#2C814E" d="M115.451,363.621c0,0,24.518,51.535,80.266,58.291c55.748,6.754,0,0,0,0s-44.952-18.256-62.078-42.74
						c-17.125-24.479-18.615-25.617-18.615-25.617L115.451,363.621z"/>
					<path fill="#2C814E" d="M291.688,392.145c0,0,4.105,0.548,7.793,2.552c0,0,5.373,13.455,1.369,26.59
						C300.85,421.285,303.977,410.109,291.688,392.145z"/>
					<path fill="#2C814E" d="M51.584,436.92c-0.271-0.709-4.115-0.787,2.692-15.721c6.809-14.937,12.871-24.795,12.871-24.795
						s-4.168,20.584-9.312,29.444C52.689,434.713,51.584,436.92,51.584,436.92z"/>
					<path fill="#2C814E" d="M273.189,374.924c0,0,6.641,9.322,10.076,11.096c3.436,1.777,6.545,7.166,10.93,8.66
						c4.387,1.494,19.662,10.688,22.131,12.265s18.33,7.625,21.139,11.586c2.811,3.963,7.316,8.334,7.316,8.334l-0.734-5.974
						c0,0,8.082,3.738,14.176,5.879c6.094,2.144,23.047,11.269,24.057,12.427c1.011,1.155,8.179,11.653,8.179,11.653
						s1.474-13.387-19.935-24.18c-21.405-10.797-19.065-6.574-37.758-17.063c-18.692-10.49-31.002-17.648-32.979-19.007
						c-1.979-1.354-14.867-10.891-19.563-14.053C275.527,373.385,273.189,374.924,273.189,374.924z"/>
					<path fill="#2C814E" d="M28.104,398.543c0,0,17.188-10.814,28.523-15.256c11.334-4.443,27.205-12.32,28.271-12.728
						c1.062-0.403,16.588-7.905,16.588-7.905l2.944,9.957c0,0-5.66,2.401-20.17,8.42c-14.508,6.02-24.062,10.026-25.14,10.071
						c-1.079,0.048-16.011,4.642-18.135,5.453C38.857,397.365,22,407.443,22,407.443L28.104,398.543z"/>
					<path fill="#2C814E" d="M161.36,458.064c0,0,22.06-6.341,46.267-4.486c24.209,1.852,72.355-9.197,72.355-9.197
						s-25.914,17.308-50.48,15.469C204.934,458.014,173.867,455.732,161.36,458.064z"/>
					<path fill="#C9927E" d="M255.912,409.031c-30.41,32.981-92.363-4-92.363-4c-34.676-19.414-45.054-51.744-45.054-51.744
						s8.493-12.004,11.583-18.379c3.092-6.373,0.49-27.99-0.01-31.33c-0.503-3.34-3.566-30.219-3.566-30.219
						s-1.307,0.295-5.152,0.219c-3.844-0.078-3.291-1.182-4.716-3.641c-1.424-2.461-4.544-5.209-9.129-8.617
						c-4.587-3.406-3.301-12.703-2.953-15.84c0.346-3.137-1.613-9.656-1.613-9.656c-2.896-14.521,4.348-22.031,4.348-22.031
						c5.037-5.736,12.44,1.678,12.44,1.678s0.766-1.639,0.824-3.082c0.058-1.443,6.009-28.105,5.224-40.916
						c-0.784-12.812,21.438-37.885,26.897-47.84c5.459-9.955,52.244-10.742,72.088-12.668c19.848-1.922,40.504,12.445,51.166,20.395
						c10.66,7.951,18.703,30.537,20.176,36.957c1.476,6.42,0.541,30.379,0.226,31.381c-0.318,1.006-0.103,16.662-0.218,18.197
						c-0.114,1.535,1.074,6.256,1.074,6.256c1.299-5.457,5.193-7.062,5.193-7.062c6.398,2.248,6.582,17.186,6.111,18.826
						s-4.519,12.348-4.519,12.348c1.412,3.541-0.104,12.398-0.104,12.398c-3.882,21.651-12.257,21.957-12.257,21.957l-2.95,10.021
						c-2.179,22.181-25.109,41.882-25.318,42.609c-0.211,0.729-3.979,67.393-3.979,67.393S257.076,407.768,255.912,409.031z"/>
					<path fill="#FFFFFF" d="M172.336,216.311c0,0,6.933-8.486,12.52-8.365c5.588,0.123,15.902,1.307,20.449,8.766l0.471,1.18
						C205.775,217.891,180.108,223.363,172.336,216.311z"/>
					<path fill="#FFFFFF" d="M244.686,217.559c0,0,6.705-7.488,13.652-7.152c6.945,0.334,11.516,1.941,15.854,8.689
						c0,0-15.633,7.146-29.356-0.193C244.834,218.902,244.52,217.926,244.686,217.559z"/>
					<path fill="#9A6A61" d="M216.211,203.523c0,0-1.592-3.535-2.373-4.941c-0.779-1.408-6.307-7.176-11.441-9.357
						c-5.132-2.184-26.132,0.871-26.132,0.871l2.515-2.988c-10.464,2.365-28.331,11.287-28.331,11.287l6.409-1.713l-9.591,5.93
						l9.702-3.295l-3.951,3.051c8.296-2.514,20.621-0.637,20.621-0.637c-15.227,3.287-18.139,19.498-18.139,19.498
						c4.156,1.744,11.273-0.238,11.273-0.238s4.371-3.139,5.563-4.68c4.323-5.586,12.829-8.828,12.829-8.828s3.856,0.316,9.448,2
						c5.594,1.682,11.162,8.408,11.162,8.408c-7.587,2.242-28.237,2.16-28.237,2.16s1.881,4.723,3.161,6.588
						c1.278,1.867,9.876,0.781,9.876,0.781c-3.523,1.83-12.88,1.988-12.88,1.988c13.188,1.484,18.694-1.182,20.782-2.852
						c-4.854,4.609-17.051,11.576-17.051,11.576c22.504-7.199,32.35-18.422,33.016-19.65c0.67-1.229,0.318-3.854-0.721-5.73
						C212.68,210.875,216.211,203.523,216.211,203.523z M169.893,213.895c12.38-13.762,25.332-5.578,25.332-5.578
						C183.371,202.697,169.893,213.895,169.893,213.895z"/>
					<g>
						<path fill="#9A6A61" d="M269.537,192.854c0,0-24.812,3.695-33.988-3.117c0,0-1.605,13.033,1.123,15.076l-2.172,5.377
							c0,0-1.639,19.949,27.904,27.555c-2.824-0.908-7.238-2.99-10.732-7.639c0,0,13.576,8.787,24.852-2.736
							c0,0-4.481,1.871-7.096,2.463l3.691-3.518l-3.061-4.193l4.307-1.594c-0.023-0.045-0.051-0.092-0.078-0.143
							c-0.027-0.053-0.057-0.109-0.092-0.17c-0.285-0.525-0.631-1.164-0.752-1.387c-0.006-0.012-0.012-0.023-0.021-0.037
							c-0.016-0.027-0.024-0.045-0.024-0.045l0.164,1.066c0,0-21.597,5.959-29.371-1.873c0,0,8.051-8.266,12.875-7.75
							s13.6,3.516,16.332,8.557c0.01,0.016,0.018,0.029,0.024,0.045c0.007,0.012,0.015,0.023,0.021,0.037
							c0.326,0.602,0.572,1.057,0.752,1.387c0.033,0.059,0.062,0.115,0.092,0.17c0.029,0.053,0.055,0.098,0.078,0.143l3.021-1.117
							c0,0-4.375-6.928-12.649-9.547c0,0,10.051,1.373,16.379,9.027c0,0,7.291-5.711,7.057-11.223
							C287.938,202.154,281.729,191.615,269.537,192.854z"/>
					</g>
					<path fill="#9A6A61" d="M204.348,266.209c-0.016-0.359-0.5-6.102,2.101-7.053c2.602-0.949,7.061-0.539,9.409,1.041
						c2.349,1.582,3.521,3.812,7.029,4.385c0,0,2.299-2.379,8.037-0.104c2.057,0.818,3.205-0.855,3.205-0.855
						s4.592-7.758,9.277-4.836c2.967,1.85,2.596,4.572,2.596,4.572s-1.094,2.508-2.867,3.182c-1.771,0.678-7.125,1.805-9.027,2.246
						c-1.899,0.439-5.553-0.725-5.553-0.725s1.752,10.129,2.021,10.838s-2.707-7.207-2.707-7.207l1.256,9.79l-1.967,1.764
						l-2.73-2.164l-0.465-10.904l-1.254,10.016l-0.098-13.559C222.611,266.635,205.604,270.357,204.348,266.209"/>
					<path fill="#9A6A61" d="M187.605,301.613c-0.488-0.143,1.766-6.438,8.013-6.344c6.247,0.096,6.706-0.404,6.706-0.404
						l16.287-6.572c0,0,6.643,3.799,7.815,3.148c1.175-0.652,6.238-2.908,6.238-2.908s15.674,7.258,16.271,7.113
						c0.592-0.146,4.312-0.185,5.317,0.854c1.004,1.037,3.062,4.312,3.062,4.312s-4.467-3.412-7.487-3.883
						c-3.021-0.474-6.976-0.304-6.976-0.304s-10.026-1.496-11.569-1.071c-1.544,0.428-3.853,2.563-6.646,1.846
						c-2.791-0.723-8.041-2.781-8.041-2.781s-15.666,1.385-17.182,2.41C197.898,298.055,194.411,303.605,187.605,301.613z"/>
					<path fill="#9A6A61" d="M197.004,322.223c0,0,19.607-17.399,52.643-2.776c0,0-13.106-7.547-14.948-8.55
						c0,0,1.629-4.03-0.703-8.074c0,0,6.521-3.338,7.748-4.108c0,0-7.277,2.47-11.068,2.271c-3.789-0.2-9.377-0.321-9.909-0.121
						c-0.529,0.203-3.505-0.569-3.9-0.014c-0.396,0.56-7.311-1.129-10.256-2.625l8.492,4.861c0,0-1.677,2.953,0.289,6.83
						C215.389,309.916,208.5,312.125,197.004,322.223z"/>
					<path fill="#9A6A61" d="M208.764,251.496c0,0-9.91,6.902-18.121,22.738c0,0,10.796-12.885,11.994-14.375
						c0,0-0.104-2.516,0.424-2.719c0.533-0.203,2.767-1.318,2.767-1.318L208.764,251.496"/>
					<path fill="#9A6A61" d="M245.293,255.166c0,0,10.447,17.023,11.789,18.945c1.342,1.926-10.141-12.652-10.588-13.295
						C246.047,260.176,246.262,256.746,245.293,255.166"/>
					<path fill="#9A6A61" d="M289.844,213.873c0,0,11.344,25.445,1.742,40.979c-9.604,15.533-16.283,36.341-16.283,36.341
						l6.012-11.059c0,0,7.47,10.486,0.402,22.131c-7.068,11.646-15.777,22.816-15.777,22.816s-0.676-3.211-1.42-8.041
						c0,0-2.524,16.854-12.748,17.826c-10.223,0.975-30.836-13.814-47.586-1.219c0,0-18.711,4.575-29.688-12.242l2.992,6.895
						c0,0-14.66-14.502-14.82-18.274c-0.16-3.775,0.083-36.195-0.73-42.644l14.178,3.18c0,0-32.43-13.209-34.872-32.551
						c-2.443-19.342,3.157-40.107,6.815-42.963c0,0-13.2-43.732,13.921-66.49c0,0-36.161,13.42-35.133,63.07
						c1.031,49.652,7.489,61.801,7.065,64.52c-0.426,2.721,2.612,32.335,3.874,36.604c1.261,4.269,26.233,49.084,56.703,54.273
						c30.472,5.188,41.07,0.414,43.742-0.238c2.675-0.654,17.541-6.688,17.541-6.688s14.193-9.246,22.293-22.014
						c8.101-12.768,12.158-24.312,13.554-32.834c1.5-9.166-0.093-19.055-0.093-19.055s7.025-14.189,7.087-18.32
						C298.675,243.746,299.766,231.277,289.844,213.873z"/>
					<path fill="#9A6A61" d="M255.773,340.1c0,0-38.914,50.271-46.281,54.904c-7.365,4.633-17.023-19.264-17.023-19.264
						l14.615,13.422l-8.168-14.236l-4.427-27.899c0,0,31.274-1.328,40.419-2.259C244.051,343.838,255.773,340.1,255.773,340.1z"/>
					<path fill="#9A6A61" d="M139.449,297.506c0,0,24.742,35.683,26.005,39.949c1.262,4.268,22.929,69.248,22.929,69.248
						l-15.576-61.459c0,0,22.689,12.748,27.086,14.514c4.396,1.769,7.273-6.789,7.273-6.789s-37.02-19.494-44.351-26.746
						C155.485,318.973,139.449,297.506,139.449,297.506"/>
					<polygon fill="#9A6A61" points="259.951,336.682 243.691,398.951 249.064,347.406 					"/>
					<path fill="#9A6A61" d="M263.52,332.293c0,0-3.326,64.492-3.211,67.188c0.113,2.694-4.883,8.694-4.883,8.694l4.078-69.313
						l4.691-3.982"/>
					<path fill="#9A6A61" d="M245.889,120.131c0,0,44.016,31.619,41.021,50.111c-2.996,18.494,6.57,40.234,8.6,49.871
						c2.031,9.637,1.49,4.22,1.49,4.22s-0.707-22.8,1.938-37.406c2.646-14.607-19.799-59.709-31.461-67.174
						C255.818,112.287,245.889,120.131,245.889,120.131z"/>
					<path fill="#9A6A61" d="M130.212,266.867c0,0,2.66,29.27,3.486,31.754c0.825,2.486,3.557,7.414,3.557,7.414l-2.969,72.217
						c0,0-15.292-16.967-15.49-22.588c-0.199-5.623,9.859-14.693,11.351-21.959c1.493-7.266,1.615-21.316,1.569-22.396
						c-0.046-1.078-5.214-37.951-5.214-37.951L130.212,266.867"/>
					<path fill="#9A6A61" d="M118.935,225.182c0,0-0.045-0.061-0.13-0.172c-0.82-1.078-5.375-6.842-9.304-7.109
						c0,0-10.801,28.309,3.021,42.848c0,0-10.079-16.859,1.588-36.082L118.935,225.182z"/>
					<path fill="#9A6A61" d="M112.882,240.984c0,0,0.761-6.555,6.825-8.873c0.179-0.068,0,0,0,0s6.055,1.184,3.712,8.246
						c0,0-4.13,4.496-1.601,7.51c2.529,3.016,5.139,7.945,4.69,8.686c-0.448,0.738-3.838,2.922-9.192-4.285c-0.076-0.102,0,0,0,0
						S108.166,252.889,112.882,240.984z"/>
					<path fill="#9A6A61" d="M298.167,231.917c0,0,3.259-8.968,5.493-10.022c0,0,4.33,5.818-0.561,20.672
						C303.1,242.566,302.6,234.489,298.167,231.917z"/>
					<path fill="#9A6A61" d="M297.314,256.137c0,0-2.562,13.193,1.643,13.256c4.203,0.061,2.627-5.994,1.098-8.09
						C298.525,259.207,296.77,257.48,297.314,256.137z"/>
					<path fill="#9A6A61" d="M259.32,370.592c0,0,2.262-0.457,3.033,0.711c0.77,1.168,1.549,22.383-0.765,27.281
						c-2.312,4.9-4.496,7.154-4.496,7.154L259.32,370.592z"/>
					<path fill="#9A6A61" d="M236.363,217.312c0,0-2.621,0.471-2.586,1.309c0.037,0.84-2.176,19.42-2.176,19.42
						s-1.388-15.666,0.235-19.816c1.625-4.15,3.617-5.316,3.617-5.316L236.363,217.312z"/>
					<path fill="#9A6A61" d="M217.836,238.986c0,0,4.102-16.5,3.24-19.826c-0.861-3.322-2.789-9.123-2.789-9.123
						s0.43,7.305,0.172,9.715C218.201,222.164,217.836,238.986,217.836,238.986z"/>
					<path fill="#9A6A61" d="M220.389,247.492c0,0-2.358,8.023-1.371,10.141c0.938,2.004,4.181,5.275,6.156,6.244
						c0.113,0.055,0.223,0.104,0.328,0.143c1.922,0.73-2.99,1.658-2.99,1.658s-3.201,0.945-5.844-6.145
						C216.668,259.533,215.963,253.531,220.389,247.492z"/>
					<path fill="#9A6A61" d="M232.023,239.523c0,0,5.203,14.365,4.785,17.264c-0.416,2.898-4.382,9.188-5.345,9.861
						c0,0,3.289-5.273,2.729-9.93C233.639,252.061,232.023,239.523,232.023,239.523z"/>
					<path fill="#9A6A61" d="M237.865,255.543c0,0,3.662-1.416,5.107-1.299c1.446,0.119,3.272,2.141,3.213,3.586
						c-0.058,1.441-0.535,4.344-0.535,4.344l-0.844-0.084c0,0-0.386-0.584-0.394-0.764c-0.006-0.182,1.192-2.992-1.613-5.514
						C242.801,255.812,240.889,254.572,237.865,255.543z"/>
					<path fill="#9A6A61" d="M207.125,255.287c0,0,5.387-0.348,6.377,0.328c0,0-0.273-3.588-1.043-4.756
						C212.459,250.859,209.514,252.184,207.125,255.287z"/>
					<path fill="#010101" d="M296.088,232.088c0,0,2.92,12.592-0.191,20.408c-3.112,7.816-9.235,25.826-9.235,25.826
						s3.854-9.082,4.864-10.186c0,0,0.244,18.185-3.284,28.666c-3.529,10.48-14.677,28.705-24.722,35.49c0,0-0.631-2.357-1.008-4.99
						c0,0-1.574,12.783-17.729,12.939c-9.587,0.094-18.63-8.215-40.912,3.594c0,0-13.478,0.838-19.435-8.445
						c0,0,0.433,3.955,1.534,4.97c0,0-36.592-23.42-44.938-41.277c-4.371-9.354-6.385-31.787-6.385-31.787
						s-0.266,24.916,6.013,35.514c7.905,13.343,35.294,38.771,49.097,45.603c0,0,17.982,9.303,28.461,8.856
						c11.9-0.506,25.348-6.237,28.809-7.848c5.023-2.334,26.252-20.279,38.229-41.807c7.625-13.697,7.361-28.396,8.562-43.812
						c0,0,4.472-11.469,4.798-15.924C299.174,240.258,296.088,232.088,296.088,232.088z"/>
					<path fill="#010101" d="M203.836,318.139c0,0,19.279-7.707,38.348-1.629C242.184,316.51,226.615,305.514,203.836,318.139z"/>
					<path fill="#010101" d="M179.77,219.367c0,0-4.445-0.693-6.565-2.811c0,0,6.073-6.965,12.26-7.016
						c7.768-0.066,15.169,2.051,18.952,7.896c0,0-2.676,1.438-8.315,1.766c0,0,6.304,0.793,12.409-0.969c0,0-2.575-4.57-8.438-7.412
						c0,0,4.045,1.682,6.225,3.092c0,0-7.285-6.047-20.022-6.479c0,0-6.822-1.744-18.313,12.521c0,0,3.695-2.365,4.486-2.486
						C172.447,217.471,174.465,219.24,179.77,219.367z"/>
					<path fill="#010101" d="M167.297,212.656c0,0,10.755-8.76,19.049-8.936c8.295-0.174,15.759,0.922,22.009,6.66
						c0,0-8.733-5.986-17.718-5.428C181.652,205.51,177.122,206.939,167.297,212.656z"/>
					<path fill="#010101" d="M266.096,221.439c0,0,4.754-0.334,7.303-2.693c0,0-5.584-7.752-14.762-7.586
						c-6.881,0.123-12.475,5.695-12.965,6.643l0.195,1.449c0,0,2.998,1.992,6.057,2.26c0,0-4.07,0.836-9.42-3.441
						c0,0,7.037-9.041,16.469-8.383c9.435,0.658,13.625,5.779,16.312,9.771C275.285,219.459,273.125,221.67,266.096,221.439z"/>
					<path fill="#010101" d="M278.084,213.645c0.363,0.309-10.92-7.617-17.377-6.812c-6.459,0.805-16.252,4.135-19.941,7.736
						c0,0,7.047-8.777,20.287-8.943C261.053,205.625,267.363,204.562,278.084,213.645z"/>
					<path fill="#010101" d="M242.699,194.615"/>
					<path fill="#010101" d="M130.212,266.867c0.227-0.67-0.579,4.637-2.562,6.201c-1.538,1.215-7.239,4.193-9.908-0.373
						c-2.171-3.721-6.346-8.031-9.808-10.535c-3.462-2.502-4.062-8.305-4.08-12.896c-0.019-4.592-0.306-9.023-1.459-13.539
						c-1.696-6.639,0.528-21.66,6.584-23.771c5.483-1.91,8.669-0.252,12.072,4.338c0.106,0.141,3.189,3.863,3.212,4.402
						c0,0-4.758-5.396-6.205-6.219c-1.448-0.82-4.831-2.348-8.846-1.205c0,0-7.814,3.158-5.987,21.184c0,0,1.99,5.303,1.588,14.506
						c0,0-0.938,9.135,3.612,12.297c4.551,3.164,8.086,7.43,9.801,10.357C118.227,271.613,126.761,277.08,130.212,266.867z"/>
					<path fill="#010101" d="M117.799,224.121c0,0-5.112-8.086-8.785-7.223c-3.672,0.863-5.895,15.086-3.205,24.334
						c0,0,1.98,5.037,1.609,8.762c0,0,1.883-5.555,0.661-9.389c-1.224-3.832,0.36-16.441,6.624-18.65
						C114.703,221.955,116.299,222.064,117.799,224.121z"/>
					<path fill="#010101" d="M113.657,237.852c0,0,4.841-7.623,7.021-6.258c2.177,1.363,5.072,4.023,3.654,8.057
						c-1.42,4.035-3.544,7.039-1.035,9.979c2.51,2.941,4.812,7.215,3.38,7.805c-1.433,0.592-4.974,1.404-9.36-5.166
						c0,0,5.025,6.014,8.005,4.43c0,0,2.185-1.551-1.521-4.572c-3.704-3.021-6.089-3.053-1.551-11.592c0,0,3.93-4.141-1.269-8.027
						C120.981,232.506,118.435,231.82,113.657,237.852z"/>
					<path fill="#010101" d="M296.951,223.309c0,0,2.346-7.164,5.627-6.863c4.055,0.373,8.959,15.516,4.881,23.461
						c-4.078,7.945-2.713,10.977-2.713,10.977s0.352,10.318-2.178,17.314c-2.527,6.996-4.732,15.391-10.957,14.42L292.25,281
						c0,0,2.076,0.359,4.316-2.303c1.85-2.199,9.776-13.133,6.07-33.818l0.969,1.99c0,0,3.055-7.105,4.233-10.512
						c1.353-3.906-0.573-17.639-5.032-18.686c0,0-3.043-0.93-5.754,8.016L296.951,223.309z"/>
					<path fill="#010101" d="M298.418,230.797c0,0,3.941-10.104,5.699-9.25c1.76,0.852,4.162,7.506-0.045,17.619
						c0,0,1.021-4.016-4.123-9.76L298.418,230.797z"/>
					<path fill="#010101" d="M296.918,257.885c-0.031-0.418-0.824,8.645,0.268,9.395c1.092,0.748,3.664-1.086,2.779-3.166
						C299.082,262.031,297.215,261.713,296.918,257.885z"/>
					<path fill="#010101" d="M266.064,329.801c0,0-6.308,51.135-6.623,68.635c0,0,0.725-57.784,2.176-61.026
						S266.064,329.801,266.064,329.801z"/>
					<path fill="#010101" d="M125.361,273.254c0,0,9.057,51.014,3.158,61.863c-5.897,10.846-10.409,16.867-10.409,16.867l0.686,3.68
						c0,0,8.97-13.363,10.928-17.154c0,0,0.229,14.076,0.225,17.74c-0.002,1.674,2.814-21.049,2.883-31.914
						c0.073-11.658-5.181-51.268-5.181-51.268L125.361,273.254z"/>
					<path fill="#010101" d="M119.727,215.471c0,0-5.437-59.379,17.404-89.229c0,0-0.18-4.23,9.128-9.66
						c9.306-5.428,19.491-15.135,19.491-15.135s6.265-8.479,13.898-9.598c7.637-1.119,12.504-5.035,16.77-4.422
						c4.266,0.613,10.291-0.967,13.443-1.633c3.149-0.662,19.983,8.955,27.559,12.607c7.575,3.652,12.277,2.127,17.725,5.605
						c5.445,3.477,10.101,6.988,14.269,11.58c4.17,4.592,14.11,20.33,21.082,28.514c6.971,8.182,11.019,24.818,9.125,42.65
						c-1.892,17.832-1.994,34.311-2.869,41.373c0,0-2.364-17.426-1.562-29.646c0.808-12.221,2.068-32.41-7.133-43.146
						c-9.197-10.736-18.029-31.557-36.379-33.162c-18.35-1.604-29.699,11.859-67.417,3.395c0,0-59.937-1.426-48.338,71.998
						c0,0-9.122,16.02-2.816,45.953l-2.46-1.748C130.646,241.768,132.348,219.439,119.727,215.471z"/>
					<path fill="#010101" d="M153.385,199.711c0,0,11.579-4.334,14.715-3.988c0,0-7.775,3.451-8.975,3.504l11.254-0.719
						l-2.229-1.586c0,0,5.895,3.111,12.626,3.305c6.729,0.193,17.663-2.432,17.663-2.432l-4.722,1.881
						c0,0,15.317-1.131,17.753-0.273c2.439,0.857-5.356-7.455-5.356-7.455l2.832,4.441c0,0-4.279-4.619-7.195-5.455
						c-2.918-0.838-25.404,1.078-25.404,1.078l6.18-1.463l-16.194,3.088l8.235-3.949l-18.7,6.314l6.191-1.223L153.385,199.711z"/>
					<path fill="#010101" d="M286.867,208.023c0,0-6.355-7.564-17.275-8.209c0,0,4.982,0.719,7.293,2.15
						c0,0-4.016-1.99-20.695-1.822l7.072,1.141c0,0-10.885,0.223-14.75-0.334c-3.865-0.555-9.211-2.008-11.719-4.543
						c0,0,5.416,3.131,9.271,3.447c0,0-4.646-1.119-5.885-2.871c-1.5-2.127-1.382-4.264-1.382-4.264s0.728,4.381,3.8,4.641
						c0,0-3.14-1.846-2.912-4.258c6.535,1.943,9.082,2.555,17.028,3.178c0,0-8.598-1.795-10.057-2.213
						c-0.729-0.209,12.893,1.133,18.875,0.639c5.979-0.496,8.952-0.471,12.312,0.197c-2.287-0.143-3.033-0.053-3.895,0.166
						c0,0,6.801,0.43,11.848,9.037c0,0-2.957-3.924-8.738-6.469C277.061,197.637,283.654,200.236,286.867,208.023z"/>
					<path fill="#010101" d="M231.062,225.34c0,0,0.396-7.58,0.555-8.127c0.154-0.547,3.395-4.826,3.92-5.209
						c0.523-0.381,1.482,1.018,1.482,1.018s4.295-3.84,5.381-4.73c0.697-0.568-4.101,5.217-3.646,7.359
						c0.449,2.141,1.207,3.01,1.207,3.01s4.371,5.395,9.414,9.682c0,0-8.527-5.76-10.26-8.387c-1.733-2.627-1.764-3.346-1.764-3.346
						l-1.724-2.447l-3.256,3.92L231.062,225.34z"/>
					<path fill="#010101" d="M200.543,227.537c0,0,9.426-7.062,9.707-8.875c0.283-1.812-0.256-1.791-0.287-2.51
						c-0.029-0.719-1.832-4.963-1.832-4.963s4.977,2.668,4.887,4.834C212.93,218.188,210.199,221.725,200.543,227.537z"/>
					<path fill="#010101" d="M190.754,225.973c0,0,8.723-2.352,10.264-4.219l-9.945-1.018c0,0,11.9,0.395,12.955-0.189
						C204.027,220.547,202.008,223.873,190.754,225.973z"/>
					<path fill="#010101" d="M252.619,228.385c-0.568-0.312,6.404,2.43,8.201,2.354C260.82,230.738,257.967,231.34,252.619,228.385z
						"/>
					<path fill="#010101" d="M219.979,263.984c0,0-3.807-2-6.883-3.789c-3.078-1.789-6.736-0.312-6.736-0.312
						s1.554-0.188,2.166,0.146c0,0-1.639,3.791,0.902,4.283c2.543,0.492,7.15-1.264,7.15-1.264L219.979,263.984z"/>
					<path fill="#010101" d="M234.15,264.104c0,0,4.896-6.211,9.406-4.602c0,0-1.675,0.189-1.896,0.561c0,0,0.393,3.586-5.51,3.115
						L234.15,264.104z"/>
					<path fill="#010101" d="M239.333,267.5c0,0,4.069-0.309,4.948-2.268c0.877-1.959,2.461-7.066,0.686-9.273
						c-1.775-2.205-5.084-0.982-5.918-0.828c0,0,2.717-1.076,3.924-0.887c0,0-0.916-1.762-2.174-3.148c0,0,2.619,2.289,3.383,3.338
						c0,0,3.322,1.898,2.312,6.383C245.484,265.303,245.475,267.959,239.333,267.5z"/>
					<path fill="#010101" d="M208.764,251.496c0,0-2.473,3.947-2.938,4.326l1.559-0.066c0,0-3.93,0.768-4.238,1.98
						c-0.309,1.215-0.364,8.299,1.718,9.293c2.081,0.99,4.387,1.304,6.72,0.888c0,0-5.55,1.222-7.402-0.021
						c-1.904-1.273-2.175-8.789-1.752-10.129c0,0,0.639-1.947,2.2-1.895L208.764,251.496z"/>
					<path fill="#010101" d="M232.688,240.996c0,0,4.297,16.383,3.41,18.102c-0.889,1.721-4.029,6.893-4.029,6.893
						s5.539-5.275,5.688-7.441C237.902,256.379,233.717,242.633,232.688,240.996z"/>
					<path fill="#010101" d="M200.598,296.619c-0.358,0.123-3.582,3.273-5.036,2.975c-3.988-0.818-0.188-4.434,3.667-4.115
						c2.419,0.197,17.246-6.614,19.382-7.186c2.136-0.572,6.857,3.189,8.275,2.648s5.779-2.408,5.779-2.408
						s15.404,6.549,17.955,7.281c2.553,0.731,5.609,2.043,4.322,2.817c-1.289,0.773-3.615-0.327-5.209-1.1
						c-1.594-0.773-14.418-7.371-17.205-7.974c0,0-4.922,2.82-5.957,2.476c-1.629-0.545-7.701-3.272-8.055-3.142
						C218.162,289.031,203.438,295.66,200.598,296.619z"/>
					<path fill="#010101" d="M208.629,299.16c-0.543-0.283,5.566,2.391,8.234,1.689c2.731-0.718,10.504-1.406,14.025-0.478
						c3.52,0.933,8.471-1.199,8.471-1.199s-5.627,3.119-8.041,2.863c-2.41-0.261-3.988-0.672-14.154,0.239
						C217.164,302.277,213.539,301.711,208.629,299.16z"/>
					<path fill="#010101" d="M198.238,297.561c0,0,16.928-2.762,18.76-1.998c1.834,0.763,5.535,2.437,8.68,2.213
						c2.117-0.151,5.986-1.756,5.986-1.756s6.275,0.814,8.453,1.201c2.178,0.389,10.814,0.262,10.814,0.262l-3.525-1.051
						c0,0-12.996-0.77-15.311-1.512l0.653-1.586c0,0-1.795,2.955-7.416,3.434c0,0-5.928-0.346-9.629-3.432l0.289,1.188
						C215.994,294.523,205.678,294.723,198.238,297.561z"/>
					<path fill="#010101" d="M218.986,250.521c0,0-1.357,6.18-0.562,7.947c0.795,1.767,2.834,3.121,4.686,4.303
						c0,0-5.11-1.584-5.936-4.07C216.348,256.215,218.986,250.521,218.986,250.521z"/>
					<path fill="#010101" d="M265.719,375.664c14.391,2.508,18.742,13.066,18.742,13.066c-2.195-9.271-6.961-11.229-6.961-11.229
						c7.986,1.461,14.824,9.814,14.777,8.734c0,0,34.906,24.807,60.123,33.461c25.217,8.649,32.129,18.801,32.129,18.801
						c-6.193-10.182-19.441-16.82-31.861-20.975c-12.422-4.154-26.807-12.187-35.725-18.648
						c-8.916-6.465-19.617-12.492-24.383-14.449c-4.765-1.959-11.166-8.528-15.289-12.313c-4.123-3.787-15.924-1.847-15.924-1.847
						s14.461,43.683-35.861,51.582c0,0-69.159,5.34-107.376-69.862c-2.417-4.754-15.622,8.825-15.622,8.825
						s-13.234,6.009-20.249,9.384c-12.587,6.057-44.298,22.528-44.298,22.528c6.035-2.057,44.909-19.123,51.253-22.705
						c5.979-3.375,11.441-4.807,11.441-4.807c2.637,14.053,19.389,26.906,19.389,26.906c-15.782-18.297-14.806-26.383-14.806-26.383
						c-0.168-3.953,11.872-8.787,11.872-8.787s33.066,71.942,109.905,66.518C226.996,423.465,273.744,420.457,265.719,375.664z"/>
					<path fill="#010101" d="M191.044,212.365c0.149,3.523-2.585,6.502-6.108,6.65c-3.523,0.15-6.502-2.584-6.651-6.109
						c-0.15-3.523,2.877-3.873,6.401-4.023C188.208,208.734,190.895,208.842,191.044,212.365z"/>
					<path fill="#010101" d="M263.254,214.471c0.156,3.65-2.676,6.734-6.326,6.889c-3.647,0.156-6.732-2.678-6.889-6.326
						c-0.154-3.65,2.98-4.012,6.629-4.166C260.318,210.711,263.1,210.822,263.254,214.471z"/>
					<path fill="#010101" d="M252.479,217.443c-0.102-2.365,1.732-4.363,4.099-4.463c2.362-0.1,4.36,1.734,4.461,4.098
						c0.008,0.176,0.002,0.35-0.013,0.52c0.254-0.613,0.386-1.289,0.355-1.996c-0.111-2.615-2.322-4.643-4.938-4.531
						c-2.613,0.109-4.644,2.318-4.531,4.934c0.035,0.824,0.281,1.592,0.682,2.252C252.529,217.992,252.49,217.721,252.479,217.443z"
						/>
					<path fill="#010101" d="M255.078,434.635l-3.73-20.008c0,0-21.002,14.217-57.8,4.256l12.106,22.162
						C205.654,441.045,237.908,445.809,255.078,434.635z"/>
					<path fill="#FFFFFF" d="M183.655,210.823c-0.304,0.015-0.505,0.189-0.598,0.422c-0.171-0.606-0.745-1.052-1.396-1.025
						c-0.759,0.032-1.365,0.693-1.333,1.451c0.032,0.758,0.691,1.366,1.451,1.331c0.636-0.026,1.162-0.498,1.295-1.101
						c0.043,0.099,0.104,0.192,0.182,0.283c0.219,0.245,0.715,0.222,0.913-0.041c0.108-0.143,0.184-0.273,0.202-0.457
						C184.418,211.24,184.154,210.803,183.655,210.823z"/>
					<path fill="#FFFFFF" d="M255.854,213.706c-0.071-0.789-0.763-1.412-1.562-1.377c-0.82,0.035-1.479,0.749-1.443,1.57
						c0.034,0.824,0.752,1.481,1.573,1.443c0.185-0.006,0.358-0.055,0.521-0.121c0.344,0.225,0.834,0.228,1.158-0.127
						C256.516,214.642,256.327,213.971,255.854,213.706z"/>
					<path fill="#613A20" d="M261.762,213.951c-0.029,2.816-2.252,5.148-5.098,5.268c-2.588,0.111-4.822-1.643-5.408-4.068
						c0,0.096-0.008,0.188-0.004,0.285c0.125,2.943,2.615,5.227,5.557,5.102c2.942-0.125,5.226-2.611,5.101-5.553
						C261.895,214.629,261.842,214.283,261.762,213.951z"/>
					<path fill="#613A20" d="M260.268,214.758c-0.021,1.998-1.6,3.652-3.617,3.738c-1.838,0.078-3.424-1.166-3.838-2.887
						c-0.002,0.066-0.006,0.133-0.004,0.201c0.09,2.088,1.854,3.709,3.943,3.621c2.088-0.09,3.709-1.855,3.619-3.941
						C260.361,215.238,260.324,214.992,260.268,214.758z"/>
					<path fill="#613A20" d="M189.812,211.721c-0.031,2.816-2.254,5.146-5.099,5.268c-2.587,0.111-4.822-1.646-5.407-4.068
						c-0.002,0.096-0.009,0.188-0.004,0.285c0.125,2.941,2.613,5.227,5.555,5.102c2.943-0.125,5.226-2.613,5.101-5.555
						C189.942,212.398,189.892,212.053,189.812,211.721z"/>
					<path fill="#613A20" d="M188.316,212.527c-0.021,1.998-1.598,3.652-3.617,3.738c-1.838,0.078-3.423-1.166-3.838-2.889
						c0,0.068-0.007,0.135-0.004,0.203c0.089,2.088,1.854,3.709,3.944,3.619c2.089-0.088,3.708-1.854,3.619-3.939
						C188.41,213.008,188.374,212.762,188.316,212.527z"/>
					<path fill="#554B4B" d="M120.724,213.643c0,0-0.416-9.215-0.173-12.537c0.381-5.18,4.148-9.781,4.148-9.781l-3.768,4.602
						c0,0,5.326-13.07,5.955-15.258l-4.96,10.414c0,0,7.397-20.84,8.784-22.1l3.922-3.768c0,0-3.311,18.146,0.354,30.955
						c0,0-6.516,13.361-4.771,28.953C130.216,225.123,129.393,218.496,120.724,213.643z"/>
					<path fill="#554B4B" d="M177.996,103.709c0,0-5.098-5.545-3.684-6.145C175.728,96.963,175.885,100.648,177.996,103.709z"/>
					<path fill="#554B4B" d="M182.826,102.965c0,0-6.574-6.383-5.369-7.695c1.361-1.48,1.954-0.623,2.592,1.689
						C180.688,99.273,181.385,100.865,182.826,102.965z"/>
					<path fill="#554B4B" d="M190.358,103.664c0,0-9.176-9.693-7.304-10.854c1.871-1.16,2.751-0.236,3.587,2.488
						C187.478,98.025,188.61,101.367,190.358,103.664z"/>
					<path fill="#554B4B" d="M200.188,106.129c0,0-9.902-7.023-11.991-13.777c0,0,3.184,4.307,6.542,7.045
						c0,0-6.307-7.174-5.289-8.658c1.018-1.482,3.262-2.299,4.418-0.547c1.155,1.752,4.629,7.246,4.9,7.953
						c0,0-3.58-5.129-5.673-6.359c0,0,2.087,6.752,6.073,10.186c0,0-2.926-1.076-3.3-1.422
						C195.868,100.549,198.949,105.221,200.188,106.129z"/>
					<path fill="#554B4B" d="M201.066,90.125c0,0,2.094,6.873,5.426,9.014C206.492,99.139,203.182,91.836,201.066,90.125z"/>
					<path fill="#554B4B" d="M207.355,91.178c0,0,1.653,5.092,3.258,6.105C210.613,97.283,208.857,92.676,207.355,91.178z"/>
					<path fill="#554B4B" d="M219.504,105.908c0,0,7.268,10.016,15.631,14.701c0,0-5.654-3.121-8.363-4.686
						c0,0,3.174,4.064,4.41,4.854C231.182,120.777,223.662,116.174,219.504,105.908z"/>
					<path fill="#554B4B" d="M227.123,107.264c0,0,5.424,6.133,9.949,8.102C237.072,115.365,229.633,109.799,227.123,107.264z"/>
					<path fill="#554B4B" d="M230.01,104.5c0,0,2.555,6.494,8.045,8.543C238.055,113.043,232.723,109.066,230.01,104.5z"/>
					<path fill="#554B4B" d="M214.848,89.539c0,0,2.229,7.229,8.881,11.268c0,0-2.883-2.879-3.809-4.881
						c0,0,3.389,3.457,8.908,6.225c0,0-4.562-2.809-7.779-7.953c0,0,4.881,4.715,10.369,6.762c0,0-1.602-1.012-2.229-1.586
						c0,0,5.5,2.287,9.979,3.178c0,0-6.647-6.68-12.846-8.457c-6.198-1.777-7.416-2.207-7.416-2.207s3.86,0.438,4.704,0.521
						C223.613,92.408,217.02,89.807,214.848,89.539z"/>
					<path fill="#554B4B" d="M209.545,89.045c0,0,3.256,8.865,9.412,12.443C218.957,101.488,212.639,94.074,209.545,89.045z"/>
					<path fill="#554B4B" d="M203.736,111.979c0,0,2.168,4.41,5.668,6.242C209.404,118.221,205.816,118.553,203.736,111.979z"/>
					<path fill="#554B4B" d="M274.139,131.676c0,0-3.932-7.756-12.213-10.525c-8.279-2.768-13.797-8.295-15.377-11.59
						c0,0,4.906,6.693,11.102,8.41c0,0-8.168-5.773-9.377-8.783c0,0,0.082-2.346,1.861-2.781c0,0,4.773,2.139,6.273,3.516
						c0,0-2.639-2.77-5.576-4.086c0,0,9.244,1.408,15.668,8.518c0,0-5.521-2.824-8.264-3.789c0,0,8.121,4.695,12.883,10.797
						c0,0-4.826-3.396-7.754-4.533C263.365,116.828,271.535,124.043,274.139,131.676z"/>
					<path fill="#554B4B" d="M146.861,121.059c0,0,4.214-2.52,7.427-3.197c3.212-0.676,3.863-2.324,3.863-2.324
						s-1.856,2.959-4.364,3.246C151.278,119.07,149.957,119.756,146.861,121.059z"/>
					<path fill="#554B4B" d="M155.511,121.23c0,0,8.979-0.561,9.649-5.992C165.16,115.238,162.287,119.682,155.511,121.23z"/>
					<path fill="#554B4B" d="M173.024,105.361c0.022,0.539-0.505,5.064,3.885,6.678c4.39,1.615,7.958,5.062,9.712,8.23
						c0,0-4.47-4.559-9.104-6.637C170.908,110.674,173.024,105.361,173.024,105.361z"/>
				</g>
			</g>
		</g>
		<g>
			<path fill="#FFFFFF" d="M200.117,524.574c-15.624,0-28.335-12.711-28.335-28.334s12.711-28.332,28.335-28.332
				c15.621,0,28.332,12.709,28.332,28.332S215.738,524.574,200.117,524.574z"/>
			<path fill="#D3B66E" d="M200.117,469.908c14.543,0,26.332,11.789,26.332,26.332c0,14.545-11.789,26.334-26.332,26.334
				c-14.546,0-26.335-11.789-26.335-26.334C173.782,481.697,185.571,469.908,200.117,469.908 M200.117,465.908
				c-16.728,0-30.335,13.606-30.335,30.332c0,16.727,13.607,30.334,30.335,30.334c16.725,0,30.332-13.607,30.332-30.334
				C230.449,479.516,216.842,465.908,200.117,465.908L200.117,465.908z"/>
		</g>
		<g>
			<rect x="55.52" y="31.158" fill="#D3B66E" width="289.191" height="48.5"/>
			<polygon fill="#D3B66E" points="68.514,72.848 29.859,72.848 38.227,55.408 29.859,37.971 81.18,37.971 81.18,50.004 
				55.52,50.004 			"/>
			<polygon fill="#D3B66E" points="331.717,72.848 370.371,72.848 362.004,55.408 370.371,37.971 319.051,37.971 319.051,50.004 
				344.711,50.004 			"/>
			
				<text transform="matrix(1 0 0 1 79.9189 65.5107)" fill="#9F8E53" font-family="'Novecentowide-DemiBold'" font-size="27.1191" letter-spacing="1">Keylor Navas</text>
			<g>
				
					<text transform="matrix(1 0 0 1 78.9189 64.5107)" fill="#FFFFFF" font-family="'Novecentowide-DemiBold'" font-size="27.1191" letter-spacing="1">Keylor Navas</text>
			</g>
			<rect x="49.322" y="37.971" fill="#9F8E53" width="6.197" height="34.877"/>
			<rect x="344.711" y="37.971" fill="#9F8E53" width="6.197" height="34.877"/>
		</g>
		<g>
			<g>
				<defs>
					<circle id="SVGID_7_" cx="200.115" cy="496.24" r="23.355"/>
				</defs>
				<clipPath id="SVGID_8_">
					<use xlink:href="#SVGID_7_"  overflow="visible"/>
				</clipPath>
				<g clip-path="url(#SVGID_8_)">
					<rect x="163.473" y="472.271" fill="#204074" width="76.738" height="8.067"/>
					<rect x="163.473" y="480.34" fill="#FFFFFF" width="76.738" height="8.068"/>
					<rect x="163.473" y="488.408" fill="#CD2028" width="76.738" height="8.067"/>
					<rect x="163.473" y="495.932" fill="#CD2028" width="76.738" height="8.613"/>
					<rect x="163.473" y="504.545" fill="#FFFFFF" width="76.738" height="8.068"/>
					<rect x="163.473" y="512.613" fill="#204074" width="76.738" height="8.067"/>
				</g>
			</g>
		</g>
	</g>
	<g display="inline">
		<g>
			<g>
				<g>
					<defs>
						<polygon id="SVGID_9_" points="-63.838,420.615 -219.837,490.74 -375.837,420.615 -375.837,145.678 -63.838,145.678 						"/>
					</defs>
					<clipPath id="SVGID_10_">
						<use xlink:href="#SVGID_9_"  overflow="visible"/>
					</clipPath>
					<g clip-path="url(#SVGID_10_)">
						<path fill="#194378" d="M41.359,485.641c-1.395-3.605-2.943-7.534-4.627-11.683c-7.625-18.799-104.283-82.801-116.369-90.409
							c-11.535-7.264-40.18-19.818-43.928-21.725c-3.59-30.812,0.414-57.491,1.09-61.633c3.262-1.438,9.016-5.055,16.879-14.158
							c0,0,10.238-8.728,14.1-26.854c0,0,4.166-23.253-8.564-30.002c-0.486-4.345,1.18-26.224,1.18-26.224
							c4.922-28.422-11.08-57.233-11.08-57.233c-6.377-24.001-21.482-39.778-21.482-39.778s0,0,0.168,1.175
							c0.156,1.097,0.168,3.947,0.168,4.321c-0.107-0.172-0.266-0.424-0.504-0.797c-1.174-1.847-2.014-7.385-2.014-7.385
							c0,1.007,0.672,6.042,0.672,6.042c-6.043-13.259-15.441-19.805-15.441-19.805s2.182,6.378,1.846,5.875
							c-0.416-0.625-3.525-6.043-3.525-6.043l0.672,5.707l-2.014-3.356l2.014,6.042c-1.006-1.846-6.713-8.057-6.713-8.057
							l0.504,3.86l-1.848-2.35c0.504,0.503,1.008,4.532,1.008,4.532l-2.014-2.686l0.672,4.028
							c-1.344-2.349-9.568-11.245-9.568-11.245c2.182,2.517,6.547,11.245,6.211,10.741c-0.418-0.625-4.699-5.707-4.699-5.707
							l2.35,7.721c-0.852-1.276-5.162-6.251-6.484-7.769c1.789,2.386,3.967,9.783,3.967,9.783l-8.729-5.371l6.715,6.713
							c0,0-6.379-2.853-10.406-5.371c-4.029-2.518-9.568-4.867-9.568-4.867l4.029,4.196c-0.504-0.336-6.881-2.182-6.881-2.182
							l5.033,3.356c-1.539-0.729-5.762-1.476-7.217-2.349c-1.678-1.007-7.887-8.56-7.887-8.56s0.334,3.86,0,3.356
							c-0.75-1.125-3.525-3.86-3.525-3.86l2.182,4.867c-1.008-2.686-7.385-9.567-7.385-9.567l1.342,3.189
							c-0.67-1.007-3.355-4.532-3.355-4.532c-1.512,0.336-5.203,4.699-5.203,4.699c0.336-0.839,1.678-2.853,1.678-2.853
							c-5.371,3.524-9.399,11.749-9.399,11.749c-0.839-1.007-3.189-5.707-3.189-5.707c-0.671,0.503-1.007,3.357-1.007,3.357
							c-0.168-0.503-0.168-2.854-0.168-2.854c-4.027,3.189-4.867,7.889-4.867,7.889c-2.015-3.021-2.35-7.217-2.35-7.217
							c-0.504,0.67-2.518,4.699-2.518,4.699c-0.671-1.174-0.504-4.699-0.504-4.699c-2.685,1.678-4.867,6.377-4.867,6.377
							c-1.175,0.168-3.021,1.847-3.021,1.847c-0.335-1.175,1.343-5.539,1.343-5.539c-4.028,3.021-6.713,8.057-6.546,7.553
							c0.271-0.812,0.504-2.686,0.504-2.686c-15.441,16.281-14.77,33.568-14.77,33.568c-3.86,4.699-7.385,18.797-7.385,18.797
							c-1.007-2.182-0.338-7.552-0.338-7.552c-5.705,6.042-6.208,14.602-6.208,14.602c-0.168-1.343-0.168-4.196-0.168-4.196
							c-5.974,13.72-0.46,35.348-0.029,36.984c-3.09,9.125-2.416,16.412-1.481,21.593c1.231,6.826,1.489,13.15,1.455,14.21
							c-0.057,1.735-2.606,9.345-0.616,14.155c4.028,9.734,2.854,26.519,2.519,29.54c0,0-0.84,5.482,1.846,13.092
							c2.684,7.608,7.217,33.063,7.217,33.063c0,2.016,1.679,8.057,4.363,18.127c1.56,5.849,5.1,13.271,9.108,19.789
							c0.399,5.029,1.505,18.776,2.719,32.216c-1.222,0.921-6.694,4.884-11.827,6.067c-0.522,0.121-1.469,0.563-2.763,1.271
							c-13.099,7.162-61.802,41.451-67.507,43.486c-6.266,2.238-25.957,11.189-47.441,26.406
							c-16.464,11.662-16.894,39.094-16.196,51.277c0.055,2.998,0.284,6.054,0.754,9.145c0,0,113.907,55.052,146.582,58.186
							c32.674,3.134,237.663-3.58,256.012-17.007C22.415,549.595,53.3,513.34,53.3,513.34
							C52.738,512.512,47.865,498.562,41.359,485.641z"/>
					</g>
				</g>
			</g>
			<g>
				<g>
					<defs>
						<polygon id="SVGID_11_" points="-63.838,420.615 -219.837,490.732 -375.837,420.615 -375.837,72.342 -63.838,72.342 
							-45.926,217.406 -63.838,334.072 						"/>
					</defs>
					<clipPath id="SVGID_12_">
						<use xlink:href="#SVGID_11_"  overflow="visible"/>
					</clipPath>
					<g clip-path="url(#SVGID_12_)">
						<path fill="#AC1F24" d="M12.824,515.157c-0.889-1.334-12.9-36.478-24.912-46.708c-12.01-10.232-48.043-44.931-72.064-55.162
							c0,0-43.594-30.249-53.826-34.698s-25.357-14.233-25.357-14.233s3.559,18.903,3.336,20.905c0,0-29.139,41.596-70.954,75.849
							l-24.911-0.667c0,0-19.352-13.791-32.252-41.15c0,0-2.003-10.899-2.003-14.234c0-3.336-0.89-16.46-0.89-16.46
							s-15.791,6.451-19.129,9.12c-3.336,2.669-36.477,26.247-44.04,31.141c-7.562,4.893-26.245,12.677-32.028,15.567
							c-5.783,2.894-38.479,21.354-39.146,23.801c-0.667,2.447-15.126,27.581-10.9,55.385c0,0,113.215,54.715,145.689,57.831
							c32.476,3.113,236.218-3.561,254.455-16.904C-17.871,551.19,12.824,515.157,12.824,515.157z"/>
						<path fill="#86191B" d="M7.93,519.161c0,0-5.336-28.914-24.465-44.039c-19.129-15.126-44.041-38.703-47.154-40.037
							c-3.113-1.335-12.9-7.562-20.463-8.896c-7.562-1.335-26.691-12.456-26.691-12.456s16.904,6.229,20.018,6.674
							c0,0-7.562-10.23-9.34-10.677c-1.779-0.445-37.812-20.021-41.373-21.8c-3.559-1.778-13.346-6.672-14.234-4.893
							s-15.57,16.016-15.57,16.016s11.564-13.792,10.676-17.35c-0.889-3.56-4.447-18.572-4.447-18.572l6.672,6.116
							c0,0,21.354,10.229,24.021,11.565c2.67,1.335,53.383,33.364,54.717,35.588s21.354,14.681,21.354,14.681
							s17.35,14.68,19.574,16.016c2.225,1.334,18.684,15.123,18.684,15.123l16.459,13.791
							C-3.635,476.011,6.152,502.258,7.93,519.161z"/>
						<path fill="#010101" d="M-165.115,363.131l1.779,4.78c16.016,6.672,70.285,40.927,70.285,40.927s9.342,10.231,14.68,13.346
							c5.338,3.115,22.689,9.343,39.594,24.913c15.096,13.905,30.25,27.136,30.25,27.136c9.787,8.451,17.35,34.697,17.35,34.697
							s-4.877-14.235-12.457-32.919c-7.58-18.684-103.65-82.297-115.66-89.859c-12.012-7.562-42.705-20.908-44.041-21.796
							L-165.115,363.131z"/>
					</g>
				</g>
			</g>
		</g>
	</g>
</g>
<g id="Layer_1_copy">
	<g>
		<rect x="0.115" fill="#B72025" width="400" height="560"/>
		<g>
			<polygon fill="#204074" points="400.107,243.092 400.107,42.939 0.123,333.826 0.123,560 			"/>
		</g>
		<g>
			<polygon fill="#FFFFFF" points="39.615,423.526 39.615,141.178 360.615,141.178 360.615,423.526 200.115,495.674 			"/>
			<g>
				<path fill="#010101" d="M356.115,145.678v274.938l-156,70.125l-156-70.125V145.678H356.115 M365.115,136.678h-9h-312h-9v9
					v274.938v5.821l5.311,2.388l156,70.125l3.689,1.658l3.689-1.658l156-70.125l5.311-2.388v-5.821V145.678V136.678L365.115,136.678
					z"/>
			</g>
		</g>
		<g>
			<path fill="#D3B66E" d="M365.115,136.678v9v274.938v5.801l-165,73.824l-165-73.834v-5.791V145.678v-9h9h312H365.115
				 M372.115,129.678h-7h-9h-312h-9h-7v7v9v274.938v5.791v4.535l4.141,1.854l165,73.834l2.859,1.279l2.859-1.279l165-73.824
				l4.141-1.852v-4.537v-5.801V145.678v-9V129.678L372.115,129.678z"/>
		</g>
		<g>
			<g>
				<defs>
					<polygon id="SVGID_13_" points="356.115,420.615 200.115,490.74 44.115,420.615 44.115,145.678 356.115,145.678 					"/>
				</defs>
				<clipPath id="SVGID_14_">
					<use xlink:href="#SVGID_13_"  overflow="visible"/>
				</clipPath>
				<g clip-path="url(#SVGID_14_)">
					<path fill="#0066AA" d="M81.652,492.156c0,0,16.112-15.111,21.021-16.875c0,0-12.75,6.131-13.554,6.332
						c-0.806,0.201,11.485-9.172,18.524-11.261c-7.054,1.816-10.625,2.859-16.877,5.953c0,0,8.76-6.438,10.001-6.354
						c-2.418,0.264-3.617,0.416-5.966,0.787c0,0,16.312-6.978,19.661-7.568c0,0-14.588,2.668-15.683,2.67
						c-0.955,0.002,9.143-4.276,9.143-4.276c-4.147,0.348-6.246,0.551-10.34,1.094c3.668-1.25,5.568-1.791,9.347-2.797
						c-2.531,0.055-3.804,0.096-6.336,0.2c0,0,18.439-5.247,22.126-6.411c-4.971,0.651-7.724,0.996-13.137,1.764
						c9.018-2.783,18.076-5.701,27.425-7.166c-8.6,0.178-13.205,1.135-23.881,2.912c5.379-1.438,8.035-2.287,12.823-3.43
						c-2.658-0.625-4.05-0.832-6.921-1.283c4.337-1.043,6.343-1.48,10.243-2.283c-2.884-0.422-4.367-0.578-7.51-0.664
						c0,0,15.02-3.094,17.189-2.85c-3.77-0.867-5.666-1.257-9.712-1.685c0,0,12.363-1.414,14.711-0.77
						c-4.173-1.482-6.227-2.22-10.594-3.287c0,0,11.315,0.108,14.297,0.785c-5.417-2.605-7.997-3.974-13.623-5.968
						c2.5,0.107,3.712,0.242,6.109,0.652c-1.91-1.619-2.864-2.445-4.81-4.078c0,0,9.129,3.195,10.497,3.521
						c-3.169-2.535-4.722-3.851-7.928-6.349c2.271,0.562,3.38,0.927,5.587,1.773c-1.913-2.498-2.859-3.805-4.771-6.447
						c0,0,8.011,4.775,10.26,6.338c-2.037-2.657-3.032-4.053-5.024-6.883c0,0,10.449,7.344,12.111,9.166
						c-3.194-3.906-4.695-6.004-7.693-10.19c0,0,9.27,9.381,10.428,10.866c-3.585-4.694-5.243-7.26-8.527-12.381
						c0,0,8.509,8.978,9.448,10.287c-5.052-7.354-7.293-11.395-11.874-18.965c3.787,5.012,5.648,7.75,9.618,13.367
						c-1.764-3.189-2.616-4.836-4.3-8.129c3.369,3.594,5.052,5.684,8.59,10.369c-2.476-4.345-3.656-6.535-5.974-10.812
						c3.687,3.604,5.52,5.9,9.43,11.055c-0.503-2.346-13.479-22.657-13.479-22.657s-7.115-0.152-7.795,1.157
						c-6.271,12.088-15.535,28.597-26.25,40.271c-10.148,11.055-16.771,11.938-16.771,11.938
						c-10.889,10.806-16.725,25.908-20.358,40.56"/>
				</g>
			</g>
			<g>
				<defs>
					<polygon id="SVGID_15_" points="356.115,420.615 200.115,490.74 44.115,420.615 44.115,145.678 356.115,145.678 					"/>
				</defs>
				<clipPath id="SVGID_16_">
					<use xlink:href="#SVGID_15_"  overflow="visible"/>
				</clipPath>
				<path clip-path="url(#SVGID_16_)" fill="#E0DED6" d="M367.896,448.029c0.35,0.512,0.561,0.819,0.561,0.819
					s1.02-9.352-11.141-18.725c-6.951-6.678-17.039-11.387-26.648-14.602c-12.422-4.154-26.807-12.187-35.725-18.648
					c-8.916-6.465-19.617-12.492-24.383-14.449c-4.765-1.959-11.166-8.528-15.289-12.313c-3.765-3.459-13.926-2.142-15.664-1.886
					c0.016-0.334,0.031-0.668,0.049-1.002c1.422-14.243,3.143-28.916,3.949-35.639c6.869-7.172,14.211-16.199,19.647-25.974
					c4.449-7.991,6.205-16.325,7.144-24.942c5.623,0.166,7.754-7.781,10.172-14.473c2.529-6.996,2.178-17.314,2.178-17.314
					s-1.365-3.031,2.713-10.977c4.078-7.946-0.826-23.088-4.881-23.461c-2.863-0.264-5.012,5.152-5.514,6.541
					c0.106-8.541,1.018-21.727,2.555-36.234c1.893-17.832-2.154-34.469-9.125-42.65c-6.971-8.184-16.912-23.922-21.082-28.514
					c-4.168-4.592-8.822-8.104-14.268-11.58c-5.447-3.479-10.15-1.953-17.726-5.605c-7.575-3.652-24.408-13.27-27.56-12.607
					c-3.151,0.666-9.178,2.246-13.443,1.633c-4.265-0.613-9.132,3.303-16.769,4.422c-7.634,1.119-13.898,9.598-13.898,9.598
					s-10.186,9.707-19.491,15.135c-9.308,5.43-9.128,9.66-9.128,9.66c-21.196,27.701-18.041,80.824-17.477,88.33
					c-2.925-3.254-5.945-4.266-10.675-2.619c-6.056,2.111-8.28,17.133-6.584,23.771c1.153,4.516,1.44,8.947,1.459,13.539
					c0.018,4.592,0.618,10.395,4.08,12.896c3.462,2.504,7.637,6.814,9.808,10.535c1.924,3.293,5.419,2.66,7.799,1.598
					c1.241,7.277,8.38,50.889,2.979,60.824c-5.897,10.846-10.409,16.867-10.409,16.867c-2.417-4.754-15.622,8.825-15.622,8.825
					s-13.234,6.009-20.249,9.384c-6.457,3.106-17.941,8.952-27.602,13.911c-11.249,4.82-26.534,14.438-26.534,14.438L0,405.443
					c0,0,6.36-3.804,11.762-6.925l-0.736,79.925l174.312,57.09l183.363-80.933C368.701,454.602,368.803,451.918,367.896,448.029z
					 M241.035,386.49c0.119-3.031,0.113-6.254,0.031-9.086C241.311,380.088,241.379,383.193,241.035,386.49z"/>
			</g>
		</g>
		<g>
			<g>
				<defs>
					<polygon id="SVGID_17_" points="356.115,420.613 200.115,490.73 44.115,420.613 44.115,72.34 356.115,72.34 356.115,334.07 
											"/>
				</defs>
				<clipPath id="SVGID_18_">
					<use xlink:href="#SVGID_17_"  overflow="visible"/>
				</clipPath>
				<g clip-path="url(#SVGID_18_)">
					<path fill="#4FB060" d="M262.354,371.303c0,0,10.838,43.236-32.987,51.461c-43.826,8.224,0,0,0,0s-47.375,3.812-80.736-29.821
						c0,0-31.188-39.011-32.145-38.97c-0.96,0.041-10.53,6.449-11.238,6.722c-0.71,0.27-11.561,4.812-11.561,4.812
						s-22.967,13.219-27.48,14.371c-4.512,1.152-32.41,16.982-32.41,16.982l-0.77,83.584l174.312,57.09l183.363-80.932
						c0,0,0.779-19.839-20.178-29.933c0,0-28.81-12.643-34.676-15.094c-5.863-2.451-24.015-14.285-24.015-14.285l-20.156-12.469
						c0,0-11.196-9.248-14.682-10.719C273.514,372.631,262.354,371.303,262.354,371.303"/>
					<path fill="#2C814E" d="M280.156,380.631c-0.533-0.682,15.363,31.037-15.188,49.443c0,0-38.588,24.147-83.381,3.963
						c0,0-40.767-15.795-63.188-46.293c0,0-8.072-14.783-8.098-21.025c0,0,3.962-2.809,5.89-2.647c0,0,9.331,16.168,30.812,30.141
						c0,0-21.847-22.6-30.009-39.541c0,0-13.32,2.969-13.733,10.189c0,0,7.142,38.108,83.304,73.287c0,0,28.324,13.981,64.783,1.868
						c0,0,32.836-6.977,35.808-35.914C287.154,404.102,287.771,390.391,280.156,380.631z"/>
					<path fill="#2C814E" d="M264.992,374.072c0,0,12.398,9.315,9.562,21.682c0,0,3.321-6.625,1.698-10.877
						C274.633,380.625,269.916,376.984,264.992,374.072z"/>
					<path fill="#2C814E" d="M265.344,376.699c0,0,12.465,5.229,13.887,10.453c1.424,5.221-5.032,22.78-5.032,22.78
						s11.584-15.557,9.131-22.416c-2.451-6.856-5.681-10.801-6.42-11.25C276.17,375.818,265.617,371.885,265.344,376.699"/>
					<path fill="#2C814E" d="M267.543,371.984c0,0,12.998,30.418-17.684,45.766c0,0-0.996-2.299-0.457-2.322
						c0.539-0.021,20.07-9.375,15.59-41.354C264.992,374.072,265.334,370.816,267.543,371.984z"/>
					<path fill="#2C814E" d="M115.451,363.621c0,0,24.518,51.535,80.266,58.291c55.748,6.754,0,0,0,0s-44.952-18.256-62.078-42.74
						c-17.125-24.479-18.615-25.617-18.615-25.617L115.451,363.621z"/>
					<path fill="#2C814E" d="M291.688,392.145c0,0,4.105,0.548,7.793,2.552c0,0,5.373,13.455,1.369,26.59
						C300.85,421.285,303.977,410.109,291.688,392.145z"/>
					<path fill="#2C814E" d="M51.584,436.92c-0.271-0.709-4.115-0.787,2.692-15.721c6.809-14.937,12.871-24.795,12.871-24.795
						s-4.168,20.584-9.312,29.444C52.689,434.713,51.584,436.92,51.584,436.92z"/>
					<path fill="#2C814E" d="M273.189,374.924c0,0,6.641,9.322,10.076,11.096c3.436,1.777,6.545,7.166,10.93,8.66
						c4.387,1.494,19.662,10.688,22.131,12.265s18.33,7.625,21.139,11.586c2.811,3.963,7.316,8.334,7.316,8.334l-0.734-5.974
						c0,0,8.082,3.738,14.176,5.879c6.094,2.144,23.047,11.269,24.057,12.427c1.011,1.155,8.179,11.653,8.179,11.653
						s1.474-13.387-19.935-24.18c-21.405-10.797-19.065-6.574-37.758-17.063c-18.692-10.49-31.002-17.648-32.979-19.007
						c-1.979-1.354-14.867-10.891-19.563-14.053C275.527,373.385,273.189,374.924,273.189,374.924z"/>
					<path fill="#2C814E" d="M28.104,398.543c0,0,17.188-10.814,28.523-15.256c11.334-4.443,27.205-12.32,28.271-12.728
						c1.062-0.403,16.588-7.905,16.588-7.905l2.944,9.957c0,0-5.66,2.401-20.17,8.42c-14.508,6.02-24.062,10.026-25.14,10.071
						c-1.079,0.048-16.011,4.642-18.135,5.453C38.857,397.365,22,407.443,22,407.443L28.104,398.543z"/>
					<path fill="#2C814E" d="M161.36,458.064c0,0,22.06-6.341,46.267-4.486c24.209,1.852,72.355-9.197,72.355-9.197
						s-25.914,17.308-50.48,15.469C204.934,458.014,173.867,455.732,161.36,458.064z"/>
					<path fill="#C9927E" d="M255.912,409.031c-30.41,32.981-92.363-4-92.363-4c-34.676-19.414-45.054-51.744-45.054-51.744
						s8.493-12.004,11.583-18.379c3.092-6.373,0.49-27.99-0.01-31.33c-0.503-3.34-3.566-30.219-3.566-30.219
						s-1.307,0.295-5.152,0.219c-3.844-0.078-3.291-1.182-4.716-3.641c-1.424-2.461-4.544-5.209-9.129-8.617
						c-4.587-3.406-3.301-12.703-2.953-15.84c0.346-3.137-1.613-9.656-1.613-9.656c-2.896-14.521,4.348-22.031,4.348-22.031
						c5.037-5.736,12.44,1.678,12.44,1.678s0.766-1.639,0.824-3.082c0.058-1.443,6.009-28.105,5.224-40.916
						c-0.784-12.812,21.438-37.885,26.897-47.84c5.459-9.955,52.244-10.742,72.088-12.668c19.848-1.922,40.504,12.445,51.166,20.395
						c10.66,7.951,18.703,30.537,20.176,36.957c1.476,6.42,0.541,30.379,0.226,31.381c-0.318,1.006-0.103,16.662-0.218,18.197
						c-0.114,1.535,1.074,6.256,1.074,6.256c1.299-5.457,5.193-7.062,5.193-7.062c6.398,2.248,6.582,17.186,6.111,18.826
						s-4.519,12.348-4.519,12.348c1.412,3.541-0.104,12.398-0.104,12.398c-3.882,21.651-12.257,21.957-12.257,21.957l-2.95,10.021
						c-2.179,22.181-25.109,41.882-25.318,42.609c-0.211,0.729-3.979,67.393-3.979,67.393S257.076,407.768,255.912,409.031z"/>
					<path fill="#FFFFFF" d="M172.336,216.311c0,0,6.933-8.486,12.52-8.365c5.588,0.123,15.902,1.307,20.449,8.766l0.471,1.18
						C205.775,217.891,180.108,223.363,172.336,216.311z"/>
					<path fill="#FFFFFF" d="M244.686,217.559c0,0,6.705-7.488,13.652-7.152c6.945,0.334,11.516,1.941,15.854,8.689
						c0,0-15.633,7.146-29.356-0.193C244.834,218.902,244.52,217.926,244.686,217.559z"/>
					<path fill="#9A6A61" d="M216.211,203.523c0,0-1.592-3.535-2.373-4.941c-0.779-1.408-6.307-7.176-11.441-9.357
						c-5.132-2.184-26.132,0.871-26.132,0.871l2.515-2.988c-10.464,2.365-28.331,11.287-28.331,11.287l6.409-1.713l-9.591,5.93
						l9.702-3.295l-3.951,3.051c8.296-2.514,20.621-0.637,20.621-0.637c-15.227,3.287-18.139,19.498-18.139,19.498
						c4.156,1.744,11.273-0.238,11.273-0.238s4.371-3.139,5.563-4.68c4.323-5.586,12.829-8.828,12.829-8.828s3.856,0.316,9.448,2
						c5.594,1.682,11.162,8.408,11.162,8.408c-7.587,2.242-28.237,2.16-28.237,2.16s1.881,4.723,3.161,6.588
						c1.278,1.867,9.876,0.781,9.876,0.781c-3.523,1.83-12.88,1.988-12.88,1.988c13.188,1.484,18.694-1.182,20.782-2.852
						c-4.854,4.609-17.051,11.576-17.051,11.576c22.504-7.199,32.35-18.422,33.016-19.65c0.67-1.229,0.318-3.854-0.721-5.73
						C212.68,210.875,216.211,203.523,216.211,203.523z M169.893,213.895c12.38-13.762,25.332-5.578,25.332-5.578
						C183.371,202.697,169.893,213.895,169.893,213.895z"/>
					<g>
						<path fill="#9A6A61" d="M269.537,192.854c0,0-24.812,3.695-33.988-3.117c0,0-1.605,13.033,1.123,15.076l-2.172,5.377
							c0,0-1.639,19.949,27.904,27.555c-2.824-0.908-7.238-2.99-10.732-7.639c0,0,13.576,8.787,24.852-2.736
							c0,0-4.481,1.871-7.096,2.463l3.691-3.518l-3.061-4.193l4.307-1.594c-0.023-0.045-0.051-0.092-0.078-0.143
							c-0.027-0.053-0.057-0.109-0.092-0.17c-0.285-0.525-0.631-1.164-0.752-1.387c-0.006-0.012-0.012-0.023-0.021-0.037
							c-0.016-0.027-0.024-0.045-0.024-0.045l0.164,1.066c0,0-21.597,5.959-29.371-1.873c0,0,8.051-8.266,12.875-7.75
							s13.6,3.516,16.332,8.557c0.01,0.016,0.018,0.029,0.024,0.045c0.007,0.012,0.015,0.023,0.021,0.037
							c0.326,0.602,0.572,1.057,0.752,1.387c0.033,0.059,0.062,0.115,0.092,0.17c0.029,0.053,0.055,0.098,0.078,0.143l3.021-1.117
							c0,0-4.375-6.928-12.649-9.547c0,0,10.051,1.373,16.379,9.027c0,0,7.291-5.711,7.057-11.223
							C287.938,202.154,281.729,191.615,269.537,192.854z"/>
					</g>
					<path fill="#9A6A61" d="M204.348,266.209c-0.016-0.359-0.5-6.102,2.101-7.053c2.602-0.949,7.061-0.539,9.409,1.041
						c2.349,1.582,3.521,3.812,7.029,4.385c0,0,2.299-2.379,8.037-0.104c2.057,0.818,3.205-0.855,3.205-0.855
						s4.592-7.758,9.277-4.836c2.967,1.85,2.596,4.572,2.596,4.572s-1.094,2.508-2.867,3.182c-1.771,0.678-7.125,1.805-9.027,2.246
						c-1.899,0.439-5.553-0.725-5.553-0.725s1.752,10.129,2.021,10.838s-2.707-7.207-2.707-7.207l1.256,9.79l-1.967,1.764
						l-2.73-2.164l-0.465-10.904l-1.254,10.016l-0.098-13.559C222.611,266.635,205.604,270.357,204.348,266.209"/>
					<path fill="#9A6A61" d="M187.605,301.613c-0.488-0.143,1.766-6.438,8.013-6.344c6.247,0.096,6.706-0.404,6.706-0.404
						l16.287-6.572c0,0,6.643,3.799,7.815,3.148c1.175-0.652,6.238-2.908,6.238-2.908s15.674,7.258,16.271,7.113
						c0.592-0.146,4.312-0.185,5.317,0.854c1.004,1.037,3.062,4.312,3.062,4.312s-4.467-3.412-7.487-3.883
						c-3.021-0.474-6.976-0.304-6.976-0.304s-10.026-1.496-11.569-1.071c-1.544,0.428-3.853,2.563-6.646,1.846
						c-2.791-0.723-8.041-2.781-8.041-2.781s-15.666,1.385-17.182,2.41C197.898,298.055,194.411,303.605,187.605,301.613z"/>
					<path fill="#9A6A61" d="M197.004,322.223c0,0,19.607-17.399,52.643-2.776c0,0-13.106-7.547-14.948-8.55
						c0,0,1.629-4.03-0.703-8.074c0,0,6.521-3.338,7.748-4.108c0,0-7.277,2.47-11.068,2.271c-3.789-0.2-9.377-0.321-9.909-0.121
						c-0.529,0.203-3.505-0.569-3.9-0.014c-0.396,0.56-7.311-1.129-10.256-2.625l8.492,4.861c0,0-1.677,2.953,0.289,6.83
						C215.389,309.916,208.5,312.125,197.004,322.223z"/>
					<path fill="#9A6A61" d="M208.764,251.496c0,0-9.91,6.902-18.121,22.738c0,0,10.796-12.885,11.994-14.375
						c0,0-0.104-2.516,0.424-2.719c0.533-0.203,2.767-1.318,2.767-1.318L208.764,251.496"/>
					<path fill="#9A6A61" d="M245.293,255.166c0,0,10.447,17.023,11.789,18.945c1.342,1.926-10.141-12.652-10.588-13.295
						C246.047,260.176,246.262,256.746,245.293,255.166"/>
					<path fill="#9A6A61" d="M289.844,213.873c0,0,11.344,25.445,1.742,40.979c-9.604,15.533-16.283,36.341-16.283,36.341
						l6.012-11.059c0,0,7.47,10.486,0.402,22.131c-7.068,11.646-15.777,22.816-15.777,22.816s-0.676-3.211-1.42-8.041
						c0,0-2.524,16.854-12.748,17.826c-10.223,0.975-30.836-13.814-47.586-1.219c0,0-18.711,4.575-29.688-12.242l2.992,6.895
						c0,0-14.66-14.502-14.82-18.274c-0.16-3.775,0.083-36.195-0.73-42.644l14.178,3.18c0,0-32.43-13.209-34.872-32.551
						c-2.443-19.342,3.157-40.107,6.815-42.963c0,0-13.2-43.732,13.921-66.49c0,0-36.161,13.42-35.133,63.07
						c1.031,49.652,7.489,61.801,7.065,64.52c-0.426,2.721,2.612,32.335,3.874,36.604c1.261,4.269,26.233,49.084,56.703,54.273
						c30.472,5.188,41.07,0.414,43.742-0.238c2.675-0.654,17.541-6.688,17.541-6.688s14.193-9.246,22.293-22.014
						c8.101-12.768,12.158-24.312,13.554-32.834c1.5-9.166-0.093-19.055-0.093-19.055s7.025-14.189,7.087-18.32
						C298.675,243.746,299.766,231.277,289.844,213.873z"/>
					<path fill="#9A6A61" d="M255.773,340.1c0,0-38.914,50.271-46.281,54.904c-7.365,4.633-17.023-19.264-17.023-19.264
						l14.615,13.422l-8.168-14.236l-4.427-27.899c0,0,31.274-1.328,40.419-2.259C244.051,343.838,255.773,340.1,255.773,340.1z"/>
					<path fill="#9A6A61" d="M139.449,297.506c0,0,24.742,35.683,26.005,39.949c1.262,4.268,22.929,69.248,22.929,69.248
						l-15.576-61.459c0,0,22.689,12.748,27.086,14.514c4.396,1.769,7.273-6.789,7.273-6.789s-37.02-19.494-44.351-26.746
						C155.485,318.973,139.449,297.506,139.449,297.506"/>
					<polygon fill="#9A6A61" points="259.951,336.682 243.691,398.951 249.064,347.406 					"/>
					<path fill="#9A6A61" d="M263.52,332.293c0,0-3.326,64.492-3.211,67.188c0.113,2.694-4.883,8.694-4.883,8.694l4.078-69.313
						l4.691-3.982"/>
					<path fill="#9A6A61" d="M245.889,120.131c0,0,44.016,31.619,41.021,50.111c-2.996,18.494,6.57,40.234,8.6,49.871
						c2.031,9.637,1.49,4.22,1.49,4.22s-0.707-22.8,1.938-37.406c2.646-14.607-19.799-59.709-31.461-67.174
						C255.818,112.287,245.889,120.131,245.889,120.131z"/>
					<path fill="#9A6A61" d="M130.212,266.867c0,0,2.66,29.27,3.486,31.754c0.825,2.486,3.557,7.414,3.557,7.414l-2.969,72.217
						c0,0-15.292-16.967-15.49-22.588c-0.199-5.623,9.859-14.693,11.351-21.959c1.493-7.266,1.615-21.316,1.569-22.396
						c-0.046-1.078-5.214-37.951-5.214-37.951L130.212,266.867"/>
					<path fill="#9A6A61" d="M118.935,225.182c0,0-0.045-0.061-0.13-0.172c-0.82-1.078-5.375-6.842-9.304-7.109
						c0,0-10.801,28.309,3.021,42.848c0,0-10.079-16.859,1.588-36.082L118.935,225.182z"/>
					<path fill="#9A6A61" d="M112.882,240.984c0,0,0.761-6.555,6.825-8.873c0.179-0.068,0,0,0,0s6.055,1.184,3.712,8.246
						c0,0-4.13,4.496-1.601,7.51c2.529,3.016,5.139,7.945,4.69,8.686c-0.448,0.738-3.838,2.922-9.192-4.285c-0.076-0.102,0,0,0,0
						S108.166,252.889,112.882,240.984z"/>
					<path fill="#9A6A61" d="M298.167,231.917c0,0,3.259-8.968,5.493-10.022c0,0,4.33,5.818-0.561,20.672
						C303.1,242.566,302.6,234.489,298.167,231.917z"/>
					<path fill="#9A6A61" d="M297.314,256.137c0,0-2.562,13.193,1.643,13.256c4.203,0.061,2.627-5.994,1.098-8.09
						C298.525,259.207,296.77,257.48,297.314,256.137z"/>
					<path fill="#9A6A61" d="M259.32,370.592c0,0,2.262-0.457,3.033,0.711c0.77,1.168,1.549,22.383-0.765,27.281
						c-2.312,4.9-4.496,7.154-4.496,7.154L259.32,370.592z"/>
					<path fill="#9A6A61" d="M236.363,217.312c0,0-2.621,0.471-2.586,1.309c0.037,0.84-2.176,19.42-2.176,19.42
						s-1.388-15.666,0.235-19.816c1.625-4.15,3.617-5.316,3.617-5.316L236.363,217.312z"/>
					<path fill="#9A6A61" d="M217.836,238.986c0,0,4.102-16.5,3.24-19.826c-0.861-3.322-2.789-9.123-2.789-9.123
						s0.43,7.305,0.172,9.715C218.201,222.164,217.836,238.986,217.836,238.986z"/>
					<path fill="#9A6A61" d="M220.389,247.492c0,0-2.358,8.023-1.371,10.141c0.938,2.004,4.181,5.275,6.156,6.244
						c0.113,0.055,0.223,0.104,0.328,0.143c1.922,0.73-2.99,1.658-2.99,1.658s-3.201,0.945-5.844-6.145
						C216.668,259.533,215.963,253.531,220.389,247.492z"/>
					<path fill="#9A6A61" d="M232.023,239.523c0,0,5.203,14.365,4.785,17.264c-0.416,2.898-4.382,9.188-5.345,9.861
						c0,0,3.289-5.273,2.729-9.93C233.639,252.061,232.023,239.523,232.023,239.523z"/>
					<path fill="#9A6A61" d="M237.865,255.543c0,0,3.662-1.416,5.107-1.299c1.446,0.119,3.272,2.141,3.213,3.586
						c-0.058,1.441-0.535,4.344-0.535,4.344l-0.844-0.084c0,0-0.386-0.584-0.394-0.764c-0.006-0.182,1.192-2.992-1.613-5.514
						C242.801,255.812,240.889,254.572,237.865,255.543z"/>
					<path fill="#9A6A61" d="M207.125,255.287c0,0,5.387-0.348,6.377,0.328c0,0-0.273-3.588-1.043-4.756
						C212.459,250.859,209.514,252.184,207.125,255.287z"/>
					<path fill="#010101" d="M296.088,232.088c0,0,2.92,12.592-0.191,20.408c-3.112,7.816-9.235,25.826-9.235,25.826
						s3.854-9.082,4.864-10.186c0,0,0.244,18.185-3.284,28.666c-3.529,10.48-14.677,28.705-24.722,35.49c0,0-0.631-2.357-1.008-4.99
						c0,0-1.574,12.783-17.729,12.939c-9.587,0.094-18.63-8.215-40.912,3.594c0,0-13.478,0.838-19.435-8.445
						c0,0,0.433,3.955,1.534,4.97c0,0-36.592-23.42-44.938-41.277c-4.371-9.354-6.385-31.787-6.385-31.787
						s-0.266,24.916,6.013,35.514c7.905,13.343,35.294,38.771,49.097,45.603c0,0,17.982,9.303,28.461,8.856
						c11.9-0.506,25.348-6.237,28.809-7.848c5.023-2.334,26.252-20.279,38.229-41.807c7.625-13.697,7.361-28.396,8.562-43.812
						c0,0,4.472-11.469,4.798-15.924C299.174,240.258,296.088,232.088,296.088,232.088z"/>
					<path fill="#010101" d="M203.836,318.139c0,0,19.279-7.707,38.348-1.629C242.184,316.51,226.615,305.514,203.836,318.139z"/>
					<path fill="#010101" d="M179.77,219.367c0,0-4.445-0.693-6.565-2.811c0,0,6.073-6.965,12.26-7.016
						c7.768-0.066,15.169,2.051,18.952,7.896c0,0-2.676,1.438-8.315,1.766c0,0,6.304,0.793,12.409-0.969c0,0-2.575-4.57-8.438-7.412
						c0,0,4.045,1.682,6.225,3.092c0,0-7.285-6.047-20.022-6.479c0,0-6.822-1.744-18.313,12.521c0,0,3.695-2.365,4.486-2.486
						C172.447,217.471,174.465,219.24,179.77,219.367z"/>
					<path fill="#010101" d="M167.297,212.656c0,0,10.755-8.76,19.049-8.936c8.295-0.174,15.759,0.922,22.009,6.66
						c0,0-8.733-5.986-17.718-5.428C181.652,205.51,177.122,206.939,167.297,212.656z"/>
					<path fill="#010101" d="M266.096,221.439c0,0,4.754-0.334,7.303-2.693c0,0-5.584-7.752-14.762-7.586
						c-6.881,0.123-12.475,5.695-12.965,6.643l0.195,1.449c0,0,2.998,1.992,6.057,2.26c0,0-4.07,0.836-9.42-3.441
						c0,0,7.037-9.041,16.469-8.383c9.435,0.658,13.625,5.779,16.312,9.771C275.285,219.459,273.125,221.67,266.096,221.439z"/>
					<path fill="#010101" d="M278.084,213.645c0.363,0.309-10.92-7.617-17.377-6.812c-6.459,0.805-16.252,4.135-19.941,7.736
						c0,0,7.047-8.777,20.287-8.943C261.053,205.625,267.363,204.562,278.084,213.645z"/>
					<path fill="#010101" d="M242.699,194.615"/>
					<path fill="#010101" d="M130.212,266.867c0.227-0.67-0.579,4.637-2.562,6.201c-1.538,1.215-7.239,4.193-9.908-0.373
						c-2.171-3.721-6.346-8.031-9.808-10.535c-3.462-2.502-4.062-8.305-4.08-12.896c-0.019-4.592-0.306-9.023-1.459-13.539
						c-1.696-6.639,0.528-21.66,6.584-23.771c5.483-1.91,8.669-0.252,12.072,4.338c0.106,0.141,3.189,3.863,3.212,4.402
						c0,0-4.758-5.396-6.205-6.219c-1.448-0.82-4.831-2.348-8.846-1.205c0,0-7.814,3.158-5.987,21.184c0,0,1.99,5.303,1.588,14.506
						c0,0-0.938,9.135,3.612,12.297c4.551,3.164,8.086,7.43,9.801,10.357C118.227,271.613,126.761,277.08,130.212,266.867z"/>
					<path fill="#010101" d="M117.799,224.121c0,0-5.112-8.086-8.785-7.223c-3.672,0.863-5.895,15.086-3.205,24.334
						c0,0,1.98,5.037,1.609,8.762c0,0,1.883-5.555,0.661-9.389c-1.224-3.832,0.36-16.441,6.624-18.65
						C114.703,221.955,116.299,222.064,117.799,224.121z"/>
					<path fill="#010101" d="M113.657,237.852c0,0,4.841-7.623,7.021-6.258c2.177,1.363,5.072,4.023,3.654,8.057
						c-1.42,4.035-3.544,7.039-1.035,9.979c2.51,2.941,4.812,7.215,3.38,7.805c-1.433,0.592-4.974,1.404-9.36-5.166
						c0,0,5.025,6.014,8.005,4.43c0,0,2.185-1.551-1.521-4.572c-3.704-3.021-6.089-3.053-1.551-11.592c0,0,3.93-4.141-1.269-8.027
						C120.981,232.506,118.435,231.82,113.657,237.852z"/>
					<path fill="#010101" d="M296.951,223.309c0,0,2.346-7.164,5.627-6.863c4.055,0.373,8.959,15.516,4.881,23.461
						c-4.078,7.945-2.713,10.977-2.713,10.977s0.352,10.318-2.178,17.314c-2.527,6.996-4.732,15.391-10.957,14.42L292.25,281
						c0,0,2.076,0.359,4.316-2.303c1.85-2.199,9.776-13.133,6.07-33.818l0.969,1.99c0,0,3.055-7.105,4.233-10.512
						c1.353-3.906-0.573-17.639-5.032-18.686c0,0-3.043-0.93-5.754,8.016L296.951,223.309z"/>
					<path fill="#010101" d="M298.418,230.797c0,0,3.941-10.104,5.699-9.25c1.76,0.852,4.162,7.506-0.045,17.619
						c0,0,1.021-4.016-4.123-9.76L298.418,230.797z"/>
					<path fill="#010101" d="M296.918,257.885c-0.031-0.418-0.824,8.645,0.268,9.395c1.092,0.748,3.664-1.086,2.779-3.166
						C299.082,262.031,297.215,261.713,296.918,257.885z"/>
					<path fill="#010101" d="M266.064,329.801c0,0-6.308,51.135-6.623,68.635c0,0,0.725-57.784,2.176-61.026
						S266.064,329.801,266.064,329.801z"/>
					<path fill="#010101" d="M125.361,273.254c0,0,9.057,51.014,3.158,61.863c-5.897,10.846-10.409,16.867-10.409,16.867l0.686,3.68
						c0,0,8.97-13.363,10.928-17.154c0,0,0.229,14.076,0.225,17.74c-0.002,1.674,2.814-21.049,2.883-31.914
						c0.073-11.658-5.181-51.268-5.181-51.268L125.361,273.254z"/>
					<path fill="#010101" d="M119.727,215.471c0,0-5.437-59.379,17.404-89.229c0,0-0.18-4.23,9.128-9.66
						c9.306-5.428,19.491-15.135,19.491-15.135s6.265-8.479,13.898-9.598c7.637-1.119,12.504-5.035,16.77-4.422
						c4.266,0.613,10.291-0.967,13.443-1.633c3.149-0.662,19.983,8.955,27.559,12.607c7.575,3.652,12.277,2.127,17.725,5.605
						c5.445,3.477,10.101,6.988,14.269,11.58c4.17,4.592,14.11,20.33,21.082,28.514c6.971,8.182,11.019,24.818,9.125,42.65
						c-1.892,17.832-1.994,34.311-2.869,41.373c0,0-2.364-17.426-1.562-29.646c0.808-12.221,2.068-32.41-7.133-43.146
						c-9.197-10.736-18.029-31.557-36.379-33.162c-18.35-1.604-29.699,11.859-67.417,3.395c0,0-59.937-1.426-48.338,71.998
						c0,0-9.122,16.02-2.816,45.953l-2.46-1.748C130.646,241.768,132.348,219.439,119.727,215.471z"/>
					<path fill="#010101" d="M153.385,199.711c0,0,11.579-4.334,14.715-3.988c0,0-7.775,3.451-8.975,3.504l11.254-0.719
						l-2.229-1.586c0,0,5.895,3.111,12.626,3.305c6.729,0.193,17.663-2.432,17.663-2.432l-4.722,1.881
						c0,0,15.317-1.131,17.753-0.273c2.439,0.857-5.356-7.455-5.356-7.455l2.832,4.441c0,0-4.279-4.619-7.195-5.455
						c-2.918-0.838-25.404,1.078-25.404,1.078l6.18-1.463l-16.194,3.088l8.235-3.949l-18.7,6.314l6.191-1.223L153.385,199.711z"/>
					<path fill="#010101" d="M286.867,208.023c0,0-6.355-7.564-17.275-8.209c0,0,4.982,0.719,7.293,2.15
						c0,0-4.016-1.99-20.695-1.822l7.072,1.141c0,0-10.885,0.223-14.75-0.334c-3.865-0.555-9.211-2.008-11.719-4.543
						c0,0,5.416,3.131,9.271,3.447c0,0-4.646-1.119-5.885-2.871c-1.5-2.127-1.382-4.264-1.382-4.264s0.728,4.381,3.8,4.641
						c0,0-3.14-1.846-2.912-4.258c6.535,1.943,9.082,2.555,17.028,3.178c0,0-8.598-1.795-10.057-2.213
						c-0.729-0.209,12.893,1.133,18.875,0.639c5.979-0.496,8.952-0.471,12.312,0.197c-2.287-0.143-3.033-0.053-3.895,0.166
						c0,0,6.801,0.43,11.848,9.037c0,0-2.957-3.924-8.738-6.469C277.061,197.637,283.654,200.236,286.867,208.023z"/>
					<path fill="#010101" d="M231.062,225.34c0,0,0.396-7.58,0.555-8.127c0.154-0.547,3.395-4.826,3.92-5.209
						c0.523-0.381,1.482,1.018,1.482,1.018s4.295-3.84,5.381-4.73c0.697-0.568-4.101,5.217-3.646,7.359
						c0.449,2.141,1.207,3.01,1.207,3.01s4.371,5.395,9.414,9.682c0,0-8.527-5.76-10.26-8.387c-1.733-2.627-1.764-3.346-1.764-3.346
						l-1.724-2.447l-3.256,3.92L231.062,225.34z"/>
					<path fill="#010101" d="M200.543,227.537c0,0,9.426-7.062,9.707-8.875c0.283-1.812-0.256-1.791-0.287-2.51
						c-0.029-0.719-1.832-4.963-1.832-4.963s4.977,2.668,4.887,4.834C212.93,218.188,210.199,221.725,200.543,227.537z"/>
					<path fill="#010101" d="M190.754,225.973c0,0,8.723-2.352,10.264-4.219l-9.945-1.018c0,0,11.9,0.395,12.955-0.189
						C204.027,220.547,202.008,223.873,190.754,225.973z"/>
					<path fill="#010101" d="M252.619,228.385c-0.568-0.312,6.404,2.43,8.201,2.354C260.82,230.738,257.967,231.34,252.619,228.385z
						"/>
					<path fill="#010101" d="M219.979,263.984c0,0-3.807-2-6.883-3.789c-3.078-1.789-6.736-0.312-6.736-0.312
						s1.554-0.188,2.166,0.146c0,0-1.639,3.791,0.902,4.283c2.543,0.492,7.15-1.264,7.15-1.264L219.979,263.984z"/>
					<path fill="#010101" d="M234.15,264.104c0,0,4.896-6.211,9.406-4.602c0,0-1.675,0.189-1.896,0.561c0,0,0.393,3.586-5.51,3.115
						L234.15,264.104z"/>
					<path fill="#010101" d="M239.333,267.5c0,0,4.069-0.309,4.948-2.268c0.877-1.959,2.461-7.066,0.686-9.273
						c-1.775-2.205-5.084-0.982-5.918-0.828c0,0,2.717-1.076,3.924-0.887c0,0-0.916-1.762-2.174-3.148c0,0,2.619,2.289,3.383,3.338
						c0,0,3.322,1.898,2.312,6.383C245.484,265.303,245.475,267.959,239.333,267.5z"/>
					<path fill="#010101" d="M208.764,251.496c0,0-2.473,3.947-2.938,4.326l1.559-0.066c0,0-3.93,0.768-4.238,1.98
						c-0.309,1.215-0.364,8.299,1.718,9.293c2.081,0.99,4.387,1.304,6.72,0.888c0,0-5.55,1.222-7.402-0.021
						c-1.904-1.273-2.175-8.789-1.752-10.129c0,0,0.639-1.947,2.2-1.895L208.764,251.496z"/>
					<path fill="#010101" d="M232.688,240.996c0,0,4.297,16.383,3.41,18.102c-0.889,1.721-4.029,6.893-4.029,6.893
						s5.539-5.275,5.688-7.441C237.902,256.379,233.717,242.633,232.688,240.996z"/>
					<path fill="#010101" d="M200.598,296.619c-0.358,0.123-3.582,3.273-5.036,2.975c-3.988-0.818-0.188-4.434,3.667-4.115
						c2.419,0.197,17.246-6.614,19.382-7.186c2.136-0.572,6.857,3.189,8.275,2.648s5.779-2.408,5.779-2.408
						s15.404,6.549,17.955,7.281c2.553,0.731,5.609,2.043,4.322,2.817c-1.289,0.773-3.615-0.327-5.209-1.1
						c-1.594-0.773-14.418-7.371-17.205-7.974c0,0-4.922,2.82-5.957,2.476c-1.629-0.545-7.701-3.272-8.055-3.142
						C218.162,289.031,203.438,295.66,200.598,296.619z"/>
					<path fill="#010101" d="M208.629,299.16c-0.543-0.283,5.566,2.391,8.234,1.689c2.731-0.718,10.504-1.406,14.025-0.478
						c3.52,0.933,8.471-1.199,8.471-1.199s-5.627,3.119-8.041,2.863c-2.41-0.261-3.988-0.672-14.154,0.239
						C217.164,302.277,213.539,301.711,208.629,299.16z"/>
					<path fill="#010101" d="M198.238,297.561c0,0,16.928-2.762,18.76-1.998c1.834,0.763,5.535,2.437,8.68,2.213
						c2.117-0.151,5.986-1.756,5.986-1.756s6.275,0.814,8.453,1.201c2.178,0.389,10.814,0.262,10.814,0.262l-3.525-1.051
						c0,0-12.996-0.77-15.311-1.512l0.653-1.586c0,0-1.795,2.955-7.416,3.434c0,0-5.928-0.346-9.629-3.432l0.289,1.188
						C215.994,294.523,205.678,294.723,198.238,297.561z"/>
					<path fill="#010101" d="M218.986,250.521c0,0-1.357,6.18-0.562,7.947c0.795,1.767,2.834,3.121,4.686,4.303
						c0,0-5.11-1.584-5.936-4.07C216.348,256.215,218.986,250.521,218.986,250.521z"/>
					<path fill="#010101" d="M265.719,375.664c14.391,2.508,18.742,13.066,18.742,13.066c-2.195-9.271-6.961-11.229-6.961-11.229
						c7.986,1.461,14.824,9.814,14.777,8.734c0,0,34.906,24.807,60.123,33.461c25.217,8.649,32.129,18.801,32.129,18.801
						c-6.193-10.182-19.441-16.82-31.861-20.975c-12.422-4.154-26.807-12.187-35.725-18.648
						c-8.916-6.465-19.617-12.492-24.383-14.449c-4.765-1.959-11.166-8.528-15.289-12.313c-4.123-3.787-15.924-1.847-15.924-1.847
						s14.461,43.683-35.861,51.582c0,0-69.159,5.34-107.376-69.862c-2.417-4.754-15.622,8.825-15.622,8.825
						s-13.234,6.009-20.249,9.384c-12.587,6.057-44.298,22.528-44.298,22.528c6.035-2.057,44.909-19.123,51.253-22.705
						c5.979-3.375,11.441-4.807,11.441-4.807c2.637,14.053,19.389,26.906,19.389,26.906c-15.782-18.297-14.806-26.383-14.806-26.383
						c-0.168-3.953,11.872-8.787,11.872-8.787s33.066,71.942,109.905,66.518C226.996,423.465,273.744,420.457,265.719,375.664z"/>
					<path fill="#010101" d="M191.044,212.365c0.149,3.523-2.585,6.502-6.108,6.65c-3.523,0.15-6.502-2.584-6.651-6.109
						c-0.15-3.523,2.877-3.873,6.401-4.023C188.208,208.734,190.895,208.842,191.044,212.365z"/>
					<path fill="#010101" d="M263.254,214.471c0.156,3.65-2.676,6.734-6.326,6.889c-3.647,0.156-6.732-2.678-6.889-6.326
						c-0.154-3.65,2.98-4.012,6.629-4.166C260.318,210.711,263.1,210.822,263.254,214.471z"/>
					<path fill="#010101" d="M252.479,217.443c-0.102-2.365,1.732-4.363,4.099-4.463c2.362-0.1,4.36,1.734,4.461,4.098
						c0.008,0.176,0.002,0.35-0.013,0.52c0.254-0.613,0.386-1.289,0.355-1.996c-0.111-2.615-2.322-4.643-4.938-4.531
						c-2.613,0.109-4.644,2.318-4.531,4.934c0.035,0.824,0.281,1.592,0.682,2.252C252.529,217.992,252.49,217.721,252.479,217.443z"
						/>
					<path fill="#010101" d="M255.078,434.635l-3.73-20.008c0,0-21.002,14.217-57.8,4.256l12.106,22.162
						C205.654,441.045,237.908,445.809,255.078,434.635z"/>
					<path fill="#FFFFFF" d="M183.655,210.823c-0.304,0.015-0.505,0.189-0.598,0.422c-0.171-0.606-0.745-1.052-1.396-1.025
						c-0.759,0.032-1.365,0.693-1.333,1.451c0.032,0.758,0.691,1.366,1.451,1.331c0.636-0.026,1.162-0.498,1.295-1.101
						c0.043,0.099,0.104,0.192,0.182,0.283c0.219,0.245,0.715,0.222,0.913-0.041c0.108-0.143,0.184-0.273,0.202-0.457
						C184.418,211.24,184.154,210.803,183.655,210.823z"/>
					<path fill="#FFFFFF" d="M255.854,213.706c-0.071-0.789-0.763-1.412-1.562-1.377c-0.82,0.035-1.479,0.749-1.443,1.57
						c0.034,0.824,0.752,1.481,1.573,1.443c0.185-0.006,0.358-0.055,0.521-0.121c0.344,0.225,0.834,0.228,1.158-0.127
						C256.516,214.642,256.327,213.971,255.854,213.706z"/>
					<path fill="#613A20" d="M261.762,213.951c-0.029,2.816-2.252,5.148-5.098,5.268c-2.588,0.111-4.822-1.643-5.408-4.068
						c0,0.096-0.008,0.188-0.004,0.285c0.125,2.943,2.615,5.227,5.557,5.102c2.942-0.125,5.226-2.611,5.101-5.553
						C261.895,214.629,261.842,214.283,261.762,213.951z"/>
					<path fill="#613A20" d="M260.268,214.758c-0.021,1.998-1.6,3.652-3.617,3.738c-1.838,0.078-3.424-1.166-3.838-2.887
						c-0.002,0.066-0.006,0.133-0.004,0.201c0.09,2.088,1.854,3.709,3.943,3.621c2.088-0.09,3.709-1.855,3.619-3.941
						C260.361,215.238,260.324,214.992,260.268,214.758z"/>
					<path fill="#613A20" d="M189.812,211.721c-0.031,2.816-2.254,5.146-5.099,5.268c-2.587,0.111-4.822-1.646-5.407-4.068
						c-0.002,0.096-0.009,0.188-0.004,0.285c0.125,2.941,2.613,5.227,5.555,5.102c2.943-0.125,5.226-2.613,5.101-5.555
						C189.942,212.398,189.892,212.053,189.812,211.721z"/>
					<path fill="#613A20" d="M188.316,212.527c-0.021,1.998-1.598,3.652-3.617,3.738c-1.838,0.078-3.423-1.166-3.838-2.889
						c0,0.068-0.007,0.135-0.004,0.203c0.089,2.088,1.854,3.709,3.944,3.619c2.089-0.088,3.708-1.854,3.619-3.939
						C188.41,213.008,188.374,212.762,188.316,212.527z"/>
					<path fill="#554B4B" d="M120.724,213.643c0,0-0.416-9.215-0.173-12.537c0.381-5.18,4.148-9.781,4.148-9.781l-3.768,4.602
						c0,0,5.326-13.07,5.955-15.258l-4.96,10.414c0,0,7.397-20.84,8.784-22.1l3.922-3.768c0,0-3.311,18.146,0.354,30.955
						c0,0-6.516,13.361-4.771,28.953C130.216,225.123,129.393,218.496,120.724,213.643z"/>
					<path fill="#554B4B" d="M177.996,103.709c0,0-5.098-5.545-3.684-6.145C175.728,96.963,175.885,100.648,177.996,103.709z"/>
					<path fill="#554B4B" d="M182.826,102.965c0,0-6.574-6.383-5.369-7.695c1.361-1.48,1.954-0.623,2.592,1.689
						C180.688,99.273,181.385,100.865,182.826,102.965z"/>
					<path fill="#554B4B" d="M190.358,103.664c0,0-9.176-9.693-7.304-10.854c1.871-1.16,2.751-0.236,3.587,2.488
						C187.478,98.025,188.61,101.367,190.358,103.664z"/>
					<path fill="#554B4B" d="M200.188,106.129c0,0-9.902-7.023-11.991-13.777c0,0,3.184,4.307,6.542,7.045
						c0,0-6.307-7.174-5.289-8.658c1.018-1.482,3.262-2.299,4.418-0.547c1.155,1.752,4.629,7.246,4.9,7.953
						c0,0-3.58-5.129-5.673-6.359c0,0,2.087,6.752,6.073,10.186c0,0-2.926-1.076-3.3-1.422
						C195.868,100.549,198.949,105.221,200.188,106.129z"/>
					<path fill="#554B4B" d="M201.066,90.125c0,0,2.094,6.873,5.426,9.014C206.492,99.139,203.182,91.836,201.066,90.125z"/>
					<path fill="#554B4B" d="M207.355,91.178c0,0,1.653,5.092,3.258,6.105C210.613,97.283,208.857,92.676,207.355,91.178z"/>
					<path fill="#554B4B" d="M219.504,105.908c0,0,7.268,10.016,15.631,14.701c0,0-5.654-3.121-8.363-4.686
						c0,0,3.174,4.064,4.41,4.854C231.182,120.777,223.662,116.174,219.504,105.908z"/>
					<path fill="#554B4B" d="M227.123,107.264c0,0,5.424,6.133,9.949,8.102C237.072,115.365,229.633,109.799,227.123,107.264z"/>
					<path fill="#554B4B" d="M230.01,104.5c0,0,2.555,6.494,8.045,8.543C238.055,113.043,232.723,109.066,230.01,104.5z"/>
					<path fill="#554B4B" d="M214.848,89.539c0,0,2.229,7.229,8.881,11.268c0,0-2.883-2.879-3.809-4.881
						c0,0,3.389,3.457,8.908,6.225c0,0-4.562-2.809-7.779-7.953c0,0,4.881,4.715,10.369,6.762c0,0-1.602-1.012-2.229-1.586
						c0,0,5.5,2.287,9.979,3.178c0,0-6.647-6.68-12.846-8.457c-6.198-1.777-7.416-2.207-7.416-2.207s3.86,0.438,4.704,0.521
						C223.613,92.408,217.02,89.807,214.848,89.539z"/>
					<path fill="#554B4B" d="M209.545,89.045c0,0,3.256,8.865,9.412,12.443C218.957,101.488,212.639,94.074,209.545,89.045z"/>
					<path fill="#554B4B" d="M203.736,111.979c0,0,2.168,4.41,5.668,6.242C209.404,118.221,205.816,118.553,203.736,111.979z"/>
					<path fill="#554B4B" d="M274.139,131.676c0,0-3.932-7.756-12.213-10.525c-8.279-2.768-13.797-8.295-15.377-11.59
						c0,0,4.906,6.693,11.102,8.41c0,0-8.168-5.773-9.377-8.783c0,0,0.082-2.346,1.861-2.781c0,0,4.773,2.139,6.273,3.516
						c0,0-2.639-2.77-5.576-4.086c0,0,9.244,1.408,15.668,8.518c0,0-5.521-2.824-8.264-3.789c0,0,8.121,4.695,12.883,10.797
						c0,0-4.826-3.396-7.754-4.533C263.365,116.828,271.535,124.043,274.139,131.676z"/>
					<path fill="#554B4B" d="M146.861,121.059c0,0,4.214-2.52,7.427-3.197c3.212-0.676,3.863-2.324,3.863-2.324
						s-1.856,2.959-4.364,3.246C151.278,119.07,149.957,119.756,146.861,121.059z"/>
					<path fill="#554B4B" d="M155.511,121.23c0,0,8.979-0.561,9.649-5.992C165.16,115.238,162.287,119.682,155.511,121.23z"/>
					<path fill="#554B4B" d="M173.024,105.361c0.022,0.539-0.505,5.064,3.885,6.678c4.39,1.615,7.958,5.062,9.712,8.23
						c0,0-4.47-4.559-9.104-6.637C170.908,110.674,173.024,105.361,173.024,105.361z"/>
				</g>
			</g>
		</g>
		<g>
			<path fill="#FFFFFF" d="M200.117,524.574c-15.624,0-28.335-12.711-28.335-28.334s12.711-28.332,28.335-28.332
				c15.621,0,28.332,12.709,28.332,28.332S215.738,524.574,200.117,524.574z"/>
			<path fill="#D3B66E" d="M200.117,469.908c14.543,0,26.332,11.789,26.332,26.332c0,14.545-11.789,26.334-26.332,26.334
				c-14.546,0-26.335-11.789-26.335-26.334C173.782,481.697,185.571,469.908,200.117,469.908 M200.117,465.908
				c-16.728,0-30.335,13.606-30.335,30.332c0,16.727,13.607,30.334,30.335,30.334c16.725,0,30.332-13.607,30.332-30.334
				C230.449,479.516,216.842,465.908,200.117,465.908L200.117,465.908z"/>
		</g>
		<g>
			<rect x="55.52" y="31.158" fill="#D3B66E" width="289.191" height="48.5"/>
			<polygon fill="#D3B66E" points="68.514,72.848 29.859,72.848 38.227,55.408 29.859,37.971 81.18,37.971 81.18,50.004 
				55.52,50.004 			"/>
			<polygon fill="#D3B66E" points="331.717,72.848 370.371,72.848 362.004,55.408 370.371,37.971 319.051,37.971 319.051,50.004 
				344.711,50.004 			"/>
			<g>
				<g>
					<path fill="#9F8E53" d="M95.759,65.398l-6.209-8.514L87.435,59v6.399h-3.769v-18.98h3.769v3.742
						c0,3.119-0.055,4.257-0.027,4.257h0.027c0.027,0,0.949-1.03,2.712-2.793l5.206-5.206h4.636l-7.944,7.972l8.188,11.009h-4.474
						V65.398z"/>
					<path fill="#9F8E53" d="M119.433,61.874v3.525h-13.584v-18.98h13.422v3.525h-9.653v4.04h7.619v3.308h-7.619v4.583
						L119.433,61.874L119.433,61.874z"/>
					<path fill="#9F8E53" d="M142.674,46.418l-7.321,10.276v8.704h-3.742v-8.704l-7.294-10.276h4.23l3.904,5.45
						c0.515,0.759,1.003,1.41,1.03,1.41h0.027c0.027,0,0.515-0.651,1.03-1.41l3.877-5.45H142.674z"/>
					<path fill="#9F8E53" d="M160.844,61.874v3.525h-13.15v-18.98h3.769v15.456L160.844,61.874L160.844,61.874z"/>
					<path fill="#9F8E53" d="M174.323,46.039c5.45,0,9.87,4.148,9.87,9.87c0,5.722-4.42,9.87-9.87,9.87
						c-5.45,0-9.843-4.148-9.843-9.87C164.48,50.187,168.873,46.039,174.323,46.039z M174.323,62.063
						c3.498,0,5.938-2.522,5.938-6.155c0-3.661-2.44-6.155-5.938-6.155c-3.471,0-5.911,2.495-5.911,6.155
						C168.412,59.542,170.853,62.063,174.323,62.063z"/>
					<path fill="#9F8E53" d="M200.602,65.398l-3.77-6.48c-0.081,0-0.136,0-0.217,0h-2.874v6.48h-3.769v-18.98h6.643
						c4.664,0,7.457,2.522,7.457,6.345c0,2.603-1.274,4.501-3.579,5.45l4.338,7.186L200.602,65.398L200.602,65.398z M193.741,55.556
						h3.362c2.088,0,3.063-1.355,3.063-2.793c0-1.491-1.003-2.82-3.063-2.82h-3.362V55.556z"/>
					<path fill="#9F8E53" d="M236.777,46.418v18.98h-3.553l-5.396-7.321c-1.708-2.332-3.796-5.315-3.823-5.315h-0.026
						c-0.027,0,0.026,2.739,0.026,6.508v6.128h-3.769v-18.98h3.552l5.504,7.402c1.302,1.708,3.688,5.098,3.715,5.098h0.027
						c0.026,0-0.027-3.091-0.027-6.291v-6.209H236.777z"/>
					<path fill="#9F8E53" d="M255.137,61.765h-8.216l-1.41,3.633h-4.065l7.809-18.98h3.553l7.81,18.98h-4.067L255.137,61.765z
						 M253.835,58.43l-1.87-4.799c-0.406-1.057-0.896-2.63-0.922-2.63h-0.027c-0.026,0-0.516,1.573-0.922,2.63l-1.871,4.799H253.835
						z"/>
					<path fill="#9F8E53" d="M280.031,46.418l-7.564,18.98h-4.014l-7.564-18.98h4.121l4.365,11.497
						c0.65,1.871,1.059,3.281,1.085,3.281h0.026c0.027,0,0.406-1.41,1.084-3.281l4.34-11.497H280.031z"/>
					<path fill="#9F8E53" d="M294.025,61.765h-8.217l-1.41,3.633h-4.065l7.81-18.98h3.551l7.811,18.98h-4.066L294.025,61.765z
						 M292.725,58.43l-1.871-4.799c-0.406-1.057-0.896-2.63-0.922-2.63h-0.027c-0.026,0-0.516,1.573-0.922,2.63l-1.871,4.799
						H292.725z"/>
					<path fill="#9F8E53" d="M313.715,52.193c-0.436-1.898-2.088-2.874-3.77-2.874c-1.735,0-2.848,0.84-2.848,1.979
						c0,1.519,2.143,2.061,4.528,2.874c2.767,0.949,5.938,2.413,5.938,5.803c0,3.389-2.928,5.802-7.268,5.802
						c-3.984,0-6.725-2.25-7.755-5.694l3.634-0.976c0.406,1.708,1.926,3.308,4.284,3.308c2.033,0,3.091-1.003,3.091-2.278
						c0-1.925-2.576-2.386-5.261-3.335c-2.25-0.812-5.069-1.979-5.069-5.288c0-2.956,2.928-5.477,6.94-5.477
						c3.553,0,6.372,2.169,7.187,5.152L313.715,52.193z"/>
				</g>
				<g>
					<g>
						<path fill="#FFFFFF" d="M94.759,64.398l-6.209-8.514L86.435,58v6.399h-3.769v-18.98h3.769v3.742
							c0,3.119-0.055,4.257-0.027,4.257h0.027c0.027,0,0.949-1.03,2.712-2.793l5.206-5.206h4.636l-7.944,7.972L99.233,64.4h-4.474
							V64.398z"/>
						<path fill="#FFFFFF" d="M118.433,60.874v3.525h-13.584v-18.98h13.422v3.525h-9.653v4.04h7.619v3.308h-7.619v4.583
							L118.433,60.874L118.433,60.874z"/>
						<path fill="#FFFFFF" d="M141.674,45.418l-7.321,10.276v8.704h-3.742v-8.704l-7.294-10.276h4.23l3.904,5.45
							c0.515,0.759,1.003,1.41,1.03,1.41h0.027c0.027,0,0.515-0.651,1.03-1.41l3.877-5.45H141.674z"/>
						<path fill="#FFFFFF" d="M159.844,60.874v3.525h-13.15v-18.98h3.769v15.456L159.844,60.874L159.844,60.874z"/>
						<path fill="#FFFFFF" d="M173.323,45.039c5.45,0,9.87,4.148,9.87,9.87c0,5.722-4.42,9.87-9.87,9.87
							c-5.45,0-9.843-4.148-9.843-9.87C163.48,49.187,167.873,45.039,173.323,45.039z M173.323,61.063
							c3.498,0,5.938-2.522,5.938-6.155c0-3.661-2.44-6.155-5.938-6.155c-3.471,0-5.911,2.495-5.911,6.155
							C167.412,58.542,169.853,61.063,173.323,61.063z"/>
						<path fill="#FFFFFF" d="M199.602,64.398l-3.77-6.48c-0.081,0-0.136,0-0.217,0h-2.874v6.48h-3.769v-18.98h6.643
							c4.664,0,7.457,2.522,7.457,6.345c0,2.603-1.274,4.501-3.579,5.45l4.338,7.186L199.602,64.398L199.602,64.398z
							 M192.741,54.556h3.362c2.088,0,3.063-1.355,3.063-2.793c0-1.491-1.003-2.82-3.063-2.82h-3.362V54.556z"/>
						<path fill="#FFFFFF" d="M235.777,45.418v18.98h-3.553l-5.396-7.321c-1.708-2.332-3.796-5.315-3.823-5.315h-0.026
							c-0.027,0,0.026,2.739,0.026,6.508v6.128h-3.769v-18.98h3.552l5.504,7.402c1.302,1.708,3.688,5.098,3.715,5.098h0.027
							c0.026,0-0.027-3.091-0.027-6.291v-6.209H235.777z"/>
						<path fill="#FFFFFF" d="M254.137,60.765h-8.216l-1.41,3.633h-4.065l7.809-18.98h3.553l7.81,18.98h-4.067L254.137,60.765z
							 M252.835,57.43l-1.87-4.799c-0.406-1.057-0.896-2.63-0.922-2.63h-0.027c-0.026,0-0.516,1.573-0.922,2.63l-1.871,4.799
							H252.835z"/>
						<path fill="#FFFFFF" d="M279.031,45.418l-7.564,18.98h-4.014l-7.564-18.98h4.121l4.365,11.497
							c0.65,1.871,1.059,3.281,1.085,3.281h0.026c0.027,0,0.406-1.41,1.084-3.281l4.34-11.497H279.031z"/>
						<path fill="#FFFFFF" d="M293.025,60.765h-8.217l-1.41,3.633h-4.065l7.81-18.98h3.551l7.811,18.98h-4.066L293.025,60.765z
							 M291.725,57.43l-1.871-4.799c-0.406-1.057-0.896-2.63-0.922-2.63h-0.027c-0.026,0-0.516,1.573-0.922,2.63l-1.871,4.799
							H291.725z"/>
						<path fill="#FFFFFF" d="M312.715,51.193c-0.436-1.898-2.088-2.874-3.77-2.874c-1.735,0-2.848,0.84-2.848,1.979
							c0,1.519,2.143,2.061,4.528,2.874c2.767,0.949,5.938,2.413,5.938,5.803c0,3.389-2.928,5.802-7.268,5.802
							c-3.984,0-6.725-2.25-7.755-5.694l3.634-0.976c0.406,1.708,1.926,3.308,4.284,3.308c2.033,0,3.091-1.003,3.091-2.278
							c0-1.925-2.576-2.386-5.261-3.335c-2.25-0.812-5.069-1.979-5.069-5.288c0-2.956,2.928-5.477,6.94-5.477
							c3.553,0,6.372,2.169,7.187,5.152L312.715,51.193z"/>
					</g>
				</g>
			</g>
			<rect x="49.322" y="37.971" fill="#9F8E53" width="6.197" height="34.877"/>
			<rect x="344.711" y="37.971" fill="#9F8E53" width="6.197" height="34.877"/>
		</g>
		<g>
			<g>
				<defs>
					<circle id="SVGID_19_" cx="200.115" cy="496.24" r="23.355"/>
				</defs>
				<clipPath id="SVGID_20_">
					<use xlink:href="#SVGID_19_"  overflow="visible"/>
				</clipPath>
				<g clip-path="url(#SVGID_20_)">
					<rect x="163.473" y="472.271" fill="#204074" width="76.738" height="8.067"/>
					<rect x="163.473" y="480.34" fill="#FFFFFF" width="76.738" height="8.068"/>
					<rect x="163.473" y="488.408" fill="#CD2028" width="76.738" height="8.067"/>
					<rect x="163.473" y="495.932" fill="#CD2028" width="76.738" height="8.613"/>
					<rect x="163.473" y="504.545" fill="#FFFFFF" width="76.738" height="8.068"/>
					<rect x="163.473" y="512.613" fill="#204074" width="76.738" height="8.067"/>
				</g>
			</g>
		</g>
	</g>
</g>
</svg>
