<?xml version="1.0" encoding="utf-8"?>
<!-- Generator: Adobe Illustrator 16.0.0, SVG Export Plug-In . SVG Version: 6.00 Build 0)  -->
<!DOCTYPE svg PUBLIC "-//W3C//DTD SVG 1.1//EN" "http://www.w3.org/Graphics/SVG/1.1/DTD/svg11.dtd">
<svg version="1.1" xmlns="http://www.w3.org/2000/svg" xmlns:xlink="http://www.w3.org/1999/xlink" x="0px" y="0px" width="400px"
	 height="560px" viewBox="0 0 400 560" enable-background="new 0 0 400 560" xml:space="preserve">
<g id="Layer_1" display="none">
	<g display="inline">
		<g>
			<g>
				<defs>
					<polygon id="SVGID_83_" points="-63.656,-159.586 -219.566,-89.26 -375.656,-159.184 -376.012,-434.121 -64.012,-434.523 					
						"/>
				</defs>
				<clipPath id="SVGID_2_">
					<use xlink:href="#SVGID_83_"  overflow="visible"/>
				</clipPath>
				<path clip-path="url(#SVGID_2_)" fill="#DDDCD4" d="M44.982-80.874c0.013,0.047,0.006,0.015-0.018-0.076
					c-0.195-0.858-2.277-9.742-6.888-20.938c-6.005-15.528-15.761-35.231-28.624-42.854c-22.841-13.535-27.914-16.495-31.723-20.302
					c-3.807-3.807-63.868-23.264-72.749-27.07c-8.883-3.807-27.493-14.381-30.455-15.65c-2.961-1.269-8.034-1.691-8.034-1.691
					s-5.686-3.651-9.098-5.391c-3.835-41.904,5.217-76.556,7.279-83.747c14.424,2.287,22.541-14.205,22.541-14.205
					c11.702-20.867-0.702-40.184-0.702-40.184s-0.738-0.387-1.846-0.791c-0.067-0.651-0.187-5.497,7.201-25.715
					c8.036-21.995-5.499-59.638-5.499-59.638c-24.532-67.252-115.047-57.102-115.047-57.102
					c-58.792,18.611-63.444,58.792-63.444,58.792s-6.345,13.958-10.151,28.762s5.922,33.837,5.922,33.837
					c-0.549-3.571-0.741-9.279-0.809-12.845c0.796,7.714,5.744,20.035,5.744,20.035c0.055,4.649-0.779,14.098-2.822,24.743
					c-1.651,8.598-1.268,18.188,1.481,28.339c0.448,1.656,15.438,47.795,24.531,59.216c0.45,0.564,0.921,1.102,1.405,1.616
					l-1.604,47.643c-4.033,1.354-16.773,6.059-22.43,13.129c0,0-11.42,6.768-27.069,14.805
					c-15.651,8.036-79.518,27.492-94.744,49.486c-10.697,15.452-19.718,35.064-24.142,45.374
					c-6.971,12.356-12.823,23.463-13.504,27.377c-1.69,9.727-4.653,41.873,26.647,57.946
					c31.301,16.072,480.491-5.076,479.645-26.224C55.135-45.345,44.982-80.874,44.982-80.874z M-109.81-342.304
					c0.643,2.433,0.956,4.848,1.022,7.184C-109.014-337.596-109.35-340.042-109.81-342.304z M-429.703-95.699
					c4.173-7.752,9.115-16.494,13.752-23.593C-419.448-113.219-424.52-104.64-429.703-95.699z M-30.019-164.932
					c3.181,1.386,5.479,2.52,6.481,3.271c6.766,5.075,30.875,16.918,33.413,19.456c0.277,0.277,0.794,0.759,1.486,1.427
					c-2.701-2.156-5.589-4.071-8.677-5.657C-14.934-155.481-24.777-161.445-30.019-164.932z"/>
			</g>
			<g>
				<defs>
					<polygon id="SVGID_85_" points="-63.656,-159.586 -219.566,-89.268 -375.656,-159.184 -376.105,-507.457 -64.106,-507.859 
						-46.007,-362.818 -63.769,-246.129 					"/>
				</defs>
				<clipPath id="SVGID_4_">
					<use xlink:href="#SVGID_85_"  overflow="visible"/>
				</clipPath>
				<g clip-path="url(#SVGID_4_)">
					<path fill="#E02B3A" d="M22.982-79.874c0,0-10.998-49.487-42.297-65.561c-31.3-16.071-38.066-22.416-38.066-22.416
						s-62.177-22.84-71.06-26.224c-8.881-3.385-19.878-9.729-19.878-9.729s-16.919,54.562-83.748,74.864
						c0,0-69.79-17.764-69.367-62.176l1.058-6.767c0,0-7.19,4.018-11.42,7.4c-4.229,3.384-29.607,14.594-31.724,16.073
						c-2.113,1.48-66.192,30.031-73.172,34.26c-6.979,4.231-13.536,6.557-16.92,13.958c-3.382,7.401-37.009,61.543-38.701,71.271
						c-1.69,9.727-4.653,41.873,26.647,57.946c31.301,16.072,480.491-5.076,479.645-26.224
						C33.135-44.345,22.982-79.874,22.982-79.874z"/>
				</g>
			</g>
		</g>
	</g>
	<g display="inline">
		<rect fill="#036A49" width="400" height="560"/>
		<g>
			<polygon fill="#BE2032" points="399.992,243.093 399.992,42.939 0.008,333.826 0.008,560 			"/>
		</g>
		<g>
			<rect x="55.404" y="31.166" fill="#D3B76E" width="289.191" height="48.5"/>
			<polygon fill="#D3B76E" points="68.398,72.854 29.744,72.854 38.111,55.416 29.744,37.979 81.064,37.979 81.064,50.011 
				55.404,50.011 			"/>
			<polygon fill="#D3B76E" points="331.602,72.854 370.256,72.854 361.889,55.416 370.256,37.979 318.936,37.979 318.936,50.011 
				344.596,50.011 			"/>
			
				<text transform="matrix(1 0 0 1 82.25 65.5186)" fill="#9F8E53" font-family="'Novecentowide-DemiBold'" font-size="26" letter-spacing="2">Medhi Benatia</text>
			<g>
				
					<text transform="matrix(1 0 0 1 81.25 64.5186)" fill="#FFFFFF" font-family="'Novecentowide-DemiBold'" font-size="26" letter-spacing="2">Medhi Benatia</text>
			</g>
			<rect x="49.207" y="37.979" fill="#9F8E53" width="6.197" height="34.876"/>
			<rect x="344.596" y="37.979" fill="#9F8E53" width="6.197" height="34.876"/>
		</g>
		<g>
			<polygon fill="#BE2032" points="39.5,423.526 39.5,141.178 360.5,141.178 360.5,423.526 200,495.674 			"/>
			<g>
				<path fill="#231F20" d="M356,145.678v274.938L200,490.74L44,420.615V145.678H356 M365,136.678h-9H44h-9v9v274.938v5.822
					l5.311,2.387l156,70.125l3.689,1.658l3.689-1.658l156-70.125l5.311-2.387v-5.822V145.678V136.678L365,136.678z"/>
			</g>
		</g>
		<g>
			<path fill="#D3B76E" d="M365,136.678v9v274.938v5.801L200,500.24L35,426.406v-5.791V145.678v-9h9h312H365 M372,129.678h-7h-9H44
				h-9h-7v7v9v274.938v5.791v4.536l4.141,1.854l165,73.834l2.859,1.279l2.858-1.279l165-73.824l4.142-1.853v-4.537v-5.801V145.678
				v-9V129.678L372,129.678z"/>
		</g>
		<g>
			<defs>
				<polygon id="SVGID_163_" points="356,420.615 200,490.74 44,420.615 44,145.678 356,145.678 				"/>
			</defs>
			<clipPath id="SVGID_6_">
				<use xlink:href="#SVGID_163_"  overflow="visible"/>
			</clipPath>
			<g clip-path="url(#SVGID_6_)">
				<path fill="#981B25" d="M413.317,449.852c0,0-3.93-6.112-10.076-14.017c-12.313-20.571-33.085-34.347-37.442-35.592
					c-4.874-1.393-24.021-5.222-32.725-7.311c-8.704-2.089-38.992-8.356-51.871-11.837c-7.229-1.954-13.58-4.895-17.763-7.099
					l-1.155-0.866c-6.291-8.787-15.188-15.949-19.68-19.271c-0.364-7.287-0.682-13.53-0.878-17.383
					c5.978-12.301,14.89-34.493,17.928-52c2.34-8.795,4.646-20.844,6.144-24.964c1.84-5.06,1.447-19.731,0.26-28.068
					c0.593-1.631,1.894-4.884,3.482-6.831c2.697-3.309,3.307-5.483,0.87-7.746c-1.716-1.594-3.817-1.926-5.246-0.044
					c0.062-0.856,0.138-1.698,0.219-2.511c0.016,0.111,0.028,0.199,0.036,0.257c-0.008-0.056-0.02-0.143-0.036-0.257
					c0.479-4.787,1.198-8.586,1.198-8.586c2.35-48.824-15.145-64.49-15.145-64.49c-0.434-0.434-1.549-1.309-2.933-2.345
					c-0.16-0.249-0.318-0.499-0.481-0.745c-2.906-39.127-68.498-41.586-72.564-42.341c-8.44-1.567-20.456,1.231-33.507,5.396
					c-16.362,5.223-27.59,24.369-28.373,25.414s-3.133,6.005-3.133,6.005c-2.096,2.323-3.915,4.931-5.497,7.742
					c-6.127,7.187-8.535,20.539-9.253,33.69c-0.079,1.033-0.146,2.064-0.205,3.092c-1.165,16.064,0.403,30.107,0.778,33.119
					c-1.129-0.228-2.318-0.385-3.578-0.446c-7.475-0.364-18.973,10.618-11.488,29.243c5.483,13.645,12.186,22.976,17.232,26.805
					c4.26,3.232,7.662,5.39,10.835,6.604c0.434,3.426,4.051,32.966,4.399,66.678c0.016,1.498,0.021,3.007,0.023,4.52
					c-8.944,4.065-29.54,35.404-34.578,41.955c-5.223,6.789-53.264,31.854-69.451,41.775c-16.188,9.922-36.555,34.986-36.555,34.986
					c1.536-1.194,2.977-2.389,4.361-3.578c-3.719,4.459-6.709,8.439-8.016,10.889c-0.32,0.601-0.649,1.551-0.985,2.788
					c-1.37,1.218-2.148,1.913-2.148,1.913l0.453,6.337c-3.596,21.212-7.241,63.636-7.241,63.636s87.729,16.189,92.429,18.278
					c4.698,2.089,358.222-6.267,363.966-18.8C421.673,531.312,413.317,449.852,413.317,449.852z M83.585,387.728
					c-0.006,0.021-0.011,0.039-0.017,0.06C83.574,387.768,83.58,387.747,83.585,387.728L83.585,387.728z M82.529,391.423
					C82.463,391.658,82.47,391.631,82.529,391.423L82.529,391.423z M83.414,388.326c-0.318,1.116-0.541,1.896-0.69,2.416
					C82.903,390.114,83.158,389.223,83.414,388.326z M82.621,391.104c-0.01,0.033-0.02,0.068-0.028,0.098
					C82.602,391.171,82.611,391.137,82.621,391.104z"/>
				<path fill="#7B2425" d="M231.428,228.624C231.433,228.661,231.432,228.658,231.428,228.624L231.428,228.624z"/>
				<path fill="#7B2425" d="M231.42,228.569c0,0.003,0,0.005,0.001,0.007C231.42,228.574,231.42,228.572,231.42,228.569z"/>
				<path fill="#7B2425" d="M231.421,228.576c0.003,0.02,0.005,0.036,0.007,0.048C231.426,228.612,231.424,228.596,231.421,228.576z
					"/>
			</g>
		</g>
		<g>
			<defs>
				<polygon id="SVGID_165_" points="356,420.652 200,490.77 44,420.652 44,72.379 356,72.379 356,334.109 				"/>
			</defs>
			<clipPath id="SVGID_8_">
				<use xlink:href="#SVGID_165_"  overflow="visible"/>
			</clipPath>
			<g clip-path="url(#SVGID_8_)">
				<path fill="#057550" d="M442.317,440.852c0,0-28.198-43.864-51.696-48.564c-23.499-4.699-52.742-9.921-59.53-11.488
					c-6.788-1.566-20.365-5.744-25.065-8.354c-4.7-2.611-13.577-5.745-18.799-10.444c-5.223-4.699-13.055-14.621-13.055-14.621
					s15.144,34.465-5.744,52.742c-22.321,19.53-39.687,26.283-41.775,25.935c-2.089-0.348-21.41-9.226-22.977-10.27
					c-1.567-1.045-55.352-24.543-62.141-35.509c-6.788-10.967-12.01-26.284-12.01-26.284s-12.012,7.485-16.189,22.106
					c-4.177,14.621,0,0,0,0s-74.672,43.863-81.984,48.563c-7.31,4.7-28.72,28.198-32.896,36.03
					c-4.178,7.834-9.922,74.674-9.922,74.674s87.729,16.189,92.429,18.278c4.698,2.089,358.222-6.267,363.966-18.8
					C450.673,522.312,442.317,440.852,442.317,440.852z"/>
				<path fill="#035235" d="M116.47,380.277c0,0,43.172,48.041,107.397,59.008c0,0,38.643-8.007,65.492-42.516
					c0,0-16.931,33.465-65.492,45.996C223.867,442.766,154.938,431.278,116.47,380.277"/>
				<path fill="#035235" d="M316.121,405.517c0,0,16.363-3.481,26.109,0c9.748,3.481,23.324,4.525,23.324,4.525
					s-6.962-1.045-17.754,4.526c-10.792,5.57-32.375,13.576-32.375,13.576s21.583-13.925,24.369-15.318
					C339.795,412.826,324.824,405.517,316.121,405.517z"/>
				<path fill="#035235" d="M68.951,443.811c0,0-2.438-7.311,12.184-10.791c14.621-3.481,40.035-18.451,40.035-18.451
					s-2.785,9.051-18.103,14.621C87.749,434.76,78.351,432.323,68.951,443.811z"/>
				<path fill="#035235" d="M127.436,392.637c0,0-12.533-10.098-14.1-16.537c-1.565-6.439,10.967-19.668,10.967-19.668
					S118.037,378.363,127.436,392.637z"/>
				<path fill="#035235" d="M281.657,364.09c0,0,6.614,6.268,8.354,12.881c1.74,6.614,1.389,17.388-3.137,23.654
					c0,0,6.357-5.727,7.314-16.691c1.394-15.953-5.919-22.629-6.963-23.673c-1.045-1.044-9.051-8.703-9.051-8.703L281.657,364.09z"
					/>
				<path fill="#BE2032" d="M114.334,381.001l7.357,9.198c0,0-45.952,19.32-58.485,29.764
					c-12.531,10.445-45.952,36.031-54.308,43.343c-8.354,7.311-12.532,16.71-12.532,16.71l-1.045-14.621
					c0,0,53.787-48.043,60.575-50.653S114.334,381.001,114.334,381.001z"/>
				<path fill="#BE2032" d="M125.869,395.943c0,0-29.765,11.487-36.031,15.665s-21.932,10.966-31.331,19.843
					c-9.398,8.879-60.052,49.608-61.096,52.22c-1.045,2.61,3.655,10.444,3.655,10.444s69.451-61.619,72.062-62.141
					c2.611-0.523,54.831-30.81,60.053-30.288L125.869,395.943z"/>
				<path fill="#BE2032" d="M292.448,370.008c0,0,4.7,9.225,21.41,12.881c16.71,3.654,45.952,5.743,63.185,10.965
					c17.232,5.223,31.854,11.488,33.421,13.055c1.566,1.567,21.41,20.366,21.41,20.366s-19.844-28.198-36.031-32.898
					c-16.189-4.699-37.599-9.921-41.776-9.921c-4.177,0-32.139-5.066-36.316-7.33c-4.178-2.262-16-6.375-16-6.375l-11.913-7.705
					L292.448,370.008"/>
				<path fill="#BE2032" d="M295.06,378.188l-0.522,8.879c0,0,5.223,6.266,21.933,8.354c16.709,2.09,53.785,6.267,58.485,8.355
					c4.698,2.089,39.687,13.055,56.396,35.51c0,0-21.316-30.491-36.553-36.032c-22.978-8.354-51.697-12.532-60.575-13.054
					C316.739,389.17,300.803,383.933,295.06,378.188"/>
				<path fill="#BE2032" d="M277.131,351.557c0,0,34.117,32.027-44.474,76.762l-12.011,10.705l-7.31-1.044
					c0,0,13.663-15.231,15.752-14.883s21.933-16.535,23.325-16.884c1.392-0.349,23.498-8.182,25.152-24.107
					c1.653-15.928-0.784-25.326-6.354-32.986c-5.57-7.658,0-2.437,0-2.437L277.131,351.557z"/>
				<path fill="#BE2032" d="M222.475,429.015c0,0-83.897-22.454-96.779-74.325l4.178-4.525c0,0,2.785,51.696,96.257,72.933
					L222.475,429.015z"/>
				<path fill="#B07F65" d="M277.566,382.105c0-0.784,2.088-12.272-2.09-23.76c-4.177-11.488-5.742-15.145-5.742-16.188
					s-1.045-17.493-1.045-17.493s12.792-26.633,14.621-31.854c1.827-5.223,3.655-13.838,3.655-13.838s7.049-26.893,7.571-30.811
					c0.522-3.916,0.175-24.717,0.175-24.717s0.609-3.133,1.044-3.655c0.436-0.522,2.176-3.829,2.176-3.829s2.176-2.523,2.438-3.829
					c0.26-1.306-0.609-3.047-1.219-3.569c-0.609-0.521-1.915-2.001-2.872-1.652c-0.957,0.348-2.96,1.652-2.96,1.652
					s1.306-14.186,1.394-14.708s0.87-21.409-2.654-30.548c-3.525-9.139-12.316-41.514-31.289-48.65s-94.168-6.441-99.39-2.09
					s-29.94,30.287-31.332,40.035c-1.393,9.748-4.699,41.775-4.352,45.604c0.349,3.829-0.521,3.655-0.521,3.655
					s-11.489-3.133-16.015,11.662c0,0-5.047,22.803,22.455,45.257c0,0,7.31,3.134,7.832,4.526
					c0.522,1.392,1.219,10.965,1.219,10.965l3.134,62.314l-2.438,37.251c0,0,25.762,34.29,78.678,49.26c0,0,7.658,1.044,13.576-1.74
					c5.919-2.786,37.947-26.98,37.947-26.98L277.566,382.105z"/>
				<path fill="#FFFFFF" d="M199.15,210.13c0,0,8.703-7.137,14.272-6.527c5.57,0.608,11.401,5.483,11.401,5.483l-1.131,2.785
					c0,0-13.489,5.221-24.587-1.176L199.15,210.13z"/>
				<path fill="#FFFFFF" d="M261.9,211.609c0,0,3.046-5.483,8.181-5.483s10.791,1.653,13.229,6.179c0,0-0.784,1.916-1.045,2.09
					C282.004,214.568,266.252,217.44,261.9,211.609z"/>
				<path fill="#83614D" d="M152.85,259.65c0,0,10.096,54.309,34.116,79.722c15.572,16.474,34.812,23.325,38.99,24.717
					c0,0-18.45-3.133-40.382-15.665c0,0,36.579,22.686,45.256,21.932c8.007-0.696,18.451-9.051,25.414-22.629
					c0,0-6.267,11.836-17.756,14.621c0,0,5.223-3.829,10.096-9.051c3.756-4.023,7.312-13.229,7.312-13.229
					s-45.257-1.045-55.354-10.096C190.446,320.921,152.85,259.65,152.85,259.65"/>
				<path fill="#83614D" d="M225.086,317.092c0,0,20.889-7.137,41.079-1.219c0,0-8.53-3.307-9.748-3.655
					c0,0,4.352-4.351,4.178-8.702c0,0,3.482-6.268,4.178-9.922c0,0-2.96,9.573-14.1,9.398c-11.14-0.174-20.888-6.266-23.848-10.443
					c0,0,4.179,8.008,10.619,10.443c0,0-4.873-1.74-6.44-2.436c-1.566-0.697-0.522,0-0.522,0s5.571,4.351,3.481,10.966
					C233.963,311.522,229.264,314.133,225.086,317.092z"/>
				<path fill="#83614D" d="M225.956,289.764c0,0,12.968-7.746,16.362-7.049c3.394,0.695,6.875,2.959,8.182,3.045
					c1.305,0.087,1.914-0.348,2.35-0.521c0.435-0.174,4.177-2.002,5.656-2.176c1.48-0.174,6.528,0.957,9.27,5.961
					c0,0-3.698-0.304-6.223,0.566s-11.488,3.394-15.754,2.262C241.535,290.721,231.353,288.197,225.956,289.764z"/>
				<path fill="#83614D" d="M231.091,257.692c0,0,7.856-10.597,15.404-7.311c2.698,1.175,4.308,4.309,7.703,5.091
					c3.394,0.783,7.833-1.566,8.355-2.871c0.521-1.306,1.958-5.483,0-12.794c0,0,6.396,14.099-6.006,21.019
					c0,0-1.567,1.827-2.611,2.741c-1.044,0.913-3.916,4.765-4.309,4.112c-0.392-0.653-4.698-6.332-5.091-6.332
					C244.146,261.348,233.05,262.914,231.091,257.692z"/>
				<path fill="#B07F65" d="M235.726,258.998c0,0,3.134-3.002,5.418-3.133s7.637,0.914,9.269,3.524c0,0-2.351-2.089-4.569-1.175
					S238.01,261.086,235.726,258.998z"/>
				<path fill="#83614D" d="M244.667,178.45c0.013-0.413,4.7,12.663-3.263,20.888c0,0-7.441,4.308-7.963,5.352
					c0,0-0.914,5.354-1.045,5.875c0,0-5.092-7.311-11.228-7.833c0,0,6.267,5.092,7.964,9.14c0,0-7.572,14.882-12.533,15.796
					c-4.96,0.913-13.055-3.655-13.055-3.655s8.878,3.655,12.011,2.741c3.134-0.914,7.05-6.658,7.05-6.658s-5.353,4.438-9.008,3.265
					c-3.656-1.176-12.142-6.659-12.142-6.659s9.14,0.653,15.797-1.566c0,0-7.922-0.913-8.746-0.913
					c-0.393,0,11.096-0.262,15.665-2.48c0,0,0.914-2.09-0.522-3.395c-1.437-1.306-5.482-4.178-5.874-4.178
					c-0.393,0-10.836-0.652-18.277,5.482l-0.392,1.045c0,0,4.978,2.889,8.878,2.871c0.755-0.003,0,0,0,0s-5.222,0.393-10.184-1.174
					c0,0-6.266,2.219-6.658,2.35c-0.391,0.131,3.655-6.266,18.277-11.749c0,0-4.309-0.262-18.668,8.747l-4.309-1.045
					c0,0,9.791-11.227,20.235-12.532c0,0-5.875-2.481-25.065,7.571c0,0,12.012-14.582,22.193-17.624
					c10.053-3.002,23.106-0.651,28.98,0.392c5.876,1.045,9.531,2.35,9.531,2.35l0.522,1.307
					C242.841,192.158,244.407,188.11,244.667,178.45z"/>
				<path fill="#83614D" d="M283.963,217.744c0.509-0.176-5.353,5.745-6.919,5.354c-6.288-1.572-11.487-4.961-11.487-4.961
					s9.268,5.875,10.442,6.266c0,0-13.968-6.005-15.665-8.094c0,0-0.522,0-1.176,1.436l-1.044,1.307c0,0-3.003-6.789-3.134-10.836
					c0,0,3.46,7.213,3.787,7.572c0,0,0-4.178,1.305-5.875c0,0-2.219,3.395-2.35,4.961c0,0,0-6.006,0.783-7.311
					c0,0-3.395-1.566-3.785-3.264c-0.393-1.697-0.131-2.48-0.131-2.48s-4.178-11.488,1.175-21.933c0,0-0.653,9.139,0.783,13.577
					c0,0,5.222-3.525,9.922-3.264c4.699,0.262,13.577-2.48,15.665-2.219c2.09,0.261,7.05,2.088,8.747,4.568
					c1.698,2.48,2.48,5.483,2.48,6.006c0,0.521-0.261,8.225-0.392,8.877s-0.175,4.004-0.175,4.004s-2.175-5.701-7.527-8.965
					c-5.354-3.264-0.522-0.261-0.522-0.261s4.961,6.005,4.047,13.185c0,0-1.827-8.094-9.139-10.705c0,0,7.05,6.528,7.964,11.881
					c0,0-1.697-1.306-4.569-0.914s-5.353,0.652-8.355-0.392c0,0,5.354,0.783,8.486-2.48c0,0-1.566-5.874-7.834-6.396
					c-6.266-0.522-11.748,0.652-13.837,5.222l0.914,1.175c0,0,3.264,2.48,8.877,2.089l-4.568,1.175
					C266.731,216.048,277.174,220.095,283.963,217.744z"/>
				<path fill="#83614D" d="M188.707,115.526c0,0-15.318,41.079,5.917,58.833c0,0-29.242,3.83-28.198,45.953
					c0,0,5.919,33.768,40.383,38.294c0,0-13.924-0.349-19.146-2.089c0,0-4.178,19.844,5.223,31.332c0,0-30.983-13.925-38.99-37.947
					c-8.007-24.02-10.793-42.123-10.445-43.167c0.35-1.044,2.089-75.196,13.229-77.632
					C167.819,126.666,188.707,115.526,188.707,115.526z"/>
				<path fill="#83614D" d="M259.377,122.141c0,0,28.893,8.703,28.546,55.004c0,0-6.614-5.57-10.792-7.311
					c0,0,13.402,7.658,16.102,27.154c2.697,19.495,0,0,0,0l0,0c0,0-1.132,11.488-1.132,15.666s0.695,8.703,0.695,8.703
					s-0.349,16.71-4.873,22.627c-4.525,5.918-16.014,15.318-16.014,15.318l8.355-4.525c0,0,3.132,14.621-0.001,24.369
					c0,0-5.918-8.008-9.399-10.792c0,0,3.828,4.177,4.178,16.362c0.349,12.184,0.695,16.361,0.695,16.361l8.53-12.359
					c0,0,5.744-23.846,8.528-37.074c2.786-13.229,2.786-15.666,2.786-16.71c0-1.045-0.87-11.489-0.87-11.489
					s-1.917-26.109-0.175-33.42C296.278,182.715,292.797,125.273,259.377,122.141z"/>
				<path fill="#83614D" d="M246.495,247.51c0,0,1.827,4.309,4.178,6.136C250.673,253.646,246.888,254.298,246.495,247.51z"/>
				<path fill="#83614D" d="M257.026,261.217c0,0,6.44-3.916,7.485-8.964c0,0,2.523,0.522,2.436,2.089
					C266.861,255.908,263.38,261.74,257.026,261.217"/>
				<path fill="#83614D" d="M205.417,178.189c0,0,22.628-5.919,30.983-2.09C236.4,176.1,227.001,167.049,205.417,178.189z"/>
				<path fill="#83614D" d="M139.902,232.236c-0.195-0.653-2.458-6.658-4.895-7.181s-13.447,5.091-12.271,14.1
					c0,0,0.521-4.178,3.395-7.572c0,0-3.786,6.397-1.959,10.183c1.149,2.381,2.742,4.309,10.314,5.875c0.127,0.026-0.131,0-0.131,0
					s-6.789-4.309-6.006-10.184c0.908-6.807,10.313-6.918,10.313-6.918L139.902,232.236z"/>
				<path fill="#83614D" d="M136.183,227.928c-0.471,0,0.783,4.568-0.652,6.267c-1.437,1.696-4.569,9.007-0.261,11.227
					c4.307,2.22,7.57,2.22,7.57,2.22s-4.829-3.003-4.177-7.18c0.652-4.178,1.306-7.311,1.306-7.311S138.793,227.928,136.183,227.928
					z"/>
				<path fill="#83614D" d="M146.757,245.812c0,0,0,3.786,1.827,6.789c1.828,3.002,2.481,7.18,2.481,7.18l-2.872-3.916
					c0,0-3.003,3.785-10.705,0.131c0,0,5.352,2.479,9.399-1.959C146.888,254.037,146.235,250.643,146.757,245.812z"/>
				<path fill="#83614D" d="M136.053,223.098c0,0-7.05-15.274-14.1-16.188c-7.051-0.914-10.444,6.656-9.139,14.099
					c1.306,7.44,5.091,18.407,5.091,18.016s0.262-16.188,11.751-22.585C129.656,216.439,132.137,217.092,136.053,223.098z"/>
				<path fill="#83614D" d="M118.428,227.797c0,0,0,16.971,9.139,21.279s7.441,6.658,6.267,6.658s-15.013-5.744-16.58-19.713
					C115.687,222.053,118.428,227.797,118.428,227.797z"/>
				<path fill="#83614D" d="M234.137,243.463c0,0-4.004,7.311,0,10.27c0,0-0.695,4.525-1.74,4.874
					c-1.044,0.349-2.438-1.566-2.438-1.566S229.263,247.988,234.137,243.463z"/>
				<path fill="#83614D" d="M269.994,349.468c0,0,3.916-0.783,5.482,8.878c1.567,9.66,3.134,23.498,1.567,26.631
					c-1.567,3.134-3.225,6.404-3.225,6.404L269.994,349.468"/>
				<path fill="#83614D" d="M151.457,262.262c0,0-1.566,6.789-6.006,8.616c0,0,2.351,91.384,2.873,97.649
					c0.521,6.267,10.704,21.932,10.704,21.932s-16.71-10.443-17.232-15.926c-0.522-5.483,1.828-27.676,1.828-27.676
					s0.169-70.515-4.178-83.551c-0.261-0.783,0,0,0,0L151.457,262.262"/>
				<path fill="#83614D" d="M262.857,336.586c0,0,4.873,32.726,4.526,38.295c-0.349,5.57-3.134,24.717-3.134,24.717l8.703-9.748
					c0,0-2.959-45.256-3.219-47.692c-0.262-2.438-1.654-12.532-1.654-12.532L262.857,336.586z"/>
				<path fill="#83614D" d="M161.379,293.071c0,0,14.621,63.707,16.709,73.106c2.09,9.398-6.266-51.697-7.311-56.396
					C169.733,305.082,161.379,293.071,161.379,293.071"/>
				<path fill="#83614D" d="M127.436,202.036c0.697,0.695,18.452,19.669,17.232,26.806c-1.219,7.137,0.348,10.792,2.089,13.055
					c1.74,2.263,6.267,9.226,6.267,9.226s-5.396-17.406-5.396-27.851C147.627,212.828,127.436,202.036,127.436,202.036"/>
				<path fill="#83614D" d="M294.603,217.614c0,0,3.067-5.939,4.765-6.136l0.456,0.131c0,0-0.374,1.745-2.349,3.721
					c-1.893,1.893-2.546,3.654-2.546,3.654L294.603,217.614z"/>
				<path fill="#5B493D" d="M134.398,130.844c-15.317,16.71-8.398,70.713-8.398,70.713c20.757,7.05,21.889,27.023,21.889,27.023
					s0.783-40.295,19.233-56.657c0,0-8.007-27.851,8.704-48.737C175.826,123.186,138.391,126.488,134.398,130.844z"/>
				<path fill="#010101" d="M184.616,203.254c0,0,16.971-8.355,19.06-7.572c2.089,0.784,13.577,1.045,21.933,0.523
					c0,0,6.788-0.523,10.966,0.783c4.178,1.305,9.921,0.783,8.355-14.361c0,0,0.26,8.878-3.134,11.75c0,0,0.783-1.566-0.261-2.089
					c-1.045-0.522-22.429-3.642-28.721-4.178C200.542,187.066,191.491,197.858,184.616,203.254z"/>
				<path fill="#010101" d="M255.373,182.627c0,0-4.7,18.277,1.305,19.844c6.006,1.566,23.76-5.222,30.288-3.133
					c6.526,2.089,6.788,4.438,6.788,4.438s0.261-6.005-0.521-6.788c-0.784-0.783-5.223-6.006-8.617-6.527
					c-3.394-0.523-9.922,1.305-16.971,2.088c-7.05,0.783-10.967,2.089-10.705,5.744C256.939,198.293,254.328,199.86,255.373,182.627
					z"/>
				<path fill="#010101" d="M207.917,213.667c0,0-4.11-0.101-7.896-2.841c0,0,9.399-6.92,14.491-6.267
					c5.091,0.653,8.876,4.7,8.876,4.7s-0.391,1.958-0.782,2.35c0,0-2.232,1.333-5.104,1.725c0,0,6.409,0.364,8.629-2.508
					l1.697,0.783c0,0-4.308-7.441-10.183-8.616c-5.874-1.175-18.146,3.655-24.281,10.052c0,0,3.655-1.827,4.568-1.957
					C197.932,211.088,201.52,213.799,207.917,213.667z"/>
				<path fill="#010101" d="M277.566,215.265c0,0,3.133-0.261,4.83-2.22c0,0-3.134-6.135-9.792-6.266
					c-6.657-0.131-10.312,5.222-10.312,5.222s3.133,2.61,7.05,3.003c0,0-6.006-0.393-9.399-2.872l-0.653,1.696
					c0,0,0.914-5.744,6.92-7.702c6.005-1.958,15.404-0.392,19.712,7.05c0,0-1.696,0.652-2.22,0.914
					C283.18,214.351,282.135,215.917,277.566,215.265z"/>
				<path fill="#010101" d="M287.357,213.176c0,0-0.914-8.486-8.225-9.922s-17.754,1.176-21.149,8.617
					c0,0,3.784-10.325,16.449-10.444C288.271,201.296,287.357,213.176,287.357,213.176z"/>
				<path fill="#010101" d="M249.716,258.52c0.241,0.133-4.179-3.221-6.962-3.221c-2.786,0-5.744,1.741-6.614,3.395
					c0,0,1.13-0.957,1.652-0.783s3.308,1.828,6.267-0.957C244.059,256.953,246.061,256.518,249.716,258.52z"/>
				<path fill="#010101" d="M257.026,261.217c0,0,5.57-4.525,7.051-7.658c0,0-0.959,2.438-0.959,2.697c0,0,1.045,0.349,1.045,0.784
					c0,0.435,0.349,2.35-5.396,3.394L257.026,261.217z"/>
				<path fill="#010101" d="M232.266,245.29c0,0-3.394,9.53-1.175,12.272c2.22,2.74,4.831,3.916,7.572,3.916
					c0,0-4.7,1.175-8.747-3.786C229.916,257.692,227.827,254.43,232.266,245.29z"/>
				<path fill="#010101" d="M260.334,260.957c0,0,11.88-5.615,3.916-15.014c0,0,0.196,1.958-0.392,5.353
					c0,0,1.176-6.136-3.916-18.669c-2.046-5.034-2.741-6.657-2.741-6.657l1.957,3.655c0,0-0.13-4.438-0.26-4.961
					c-0.131-0.521-1.959-8.225-3.003-10.705c-1.045-2.48-1.567-7.702-1.175-9.66c0,0-0.131,5.744,1.696,9.268
					c1.827,3.525,3.786,10.053,3.786,11.489s0.262,7.311,0.262,7.311s3.524,9.53,3.655,12.401
					C264.12,244.768,275.085,254.82,260.334,260.957z"/>
				<path fill="#010101" d="M225.347,289.023c-0.524,0.124-2.211,0.161-3.395-0.391c-1.957-0.914-4.308-1.437-4.569,0.652
					c-0.261,2.089,4.178,2.35,5.744,1.697c1.567-0.652,10.96-1.161,13.97,0c7.44,2.872,13.315,2.872,19.06,0.652
					c5.744-2.219,6.527-1.827,7.702-1.566c1.176,0.262,5.092,0,6.528-1.175c1.436-1.175,2.218-3.524,1.695-3.655
					c-0.521-0.131-2.479,3.395-5.873,3.395c-3.396,0-6.006,0.131-9.14,1.305c-3.133,1.176-13.576,0.783-18.798-0.261
					S227.566,288.502,225.347,289.023z"/>
				<path fill="#010101" d="M224.824,289.808c0,0,15.405-9.269,19.843-7.312c4.439,1.959,5.223,3.395,8.747,1.828
					c3.525-1.566,7.441-3.916,14.753,4.178l-0.392,0.521c0,0-5.222-6.658-9.531-5.482c-4.308,1.175-4.83,4.047-8.877,2.089
					s-5.612-2.481-6.788-2.481c-1.175,0-11.097,3.525-15.404,6.659H224.824z"/>
				<path fill="#010101" d="M229.133,295.029c0,0,7.05,6.919,19.06,7.703c12.011,0.783,16.058-8.095,16.058-8.095
					s-2.48,7.571-9.66,8.616C247.409,304.299,239.576,305.082,229.133,295.029z"/>
				<path fill="#010101" d="M228.219,316.047c0,0,19.757-4.178,34.291-1.044C262.51,315.003,248.41,309.434,228.219,316.047z"/>
				<path fill="#010101" d="M245.887,304.211c0.606,0.052,11.662,0,12.969,0.262c1.305,0.261-2.873,8.268-8.705,8.877
					c-5.83,0.609-12.706-2.088-13.576-3.916C235.703,307.605,237.619,303.516,245.887,304.211z"/>
				<path fill="#010101" d="M147.279,226.927c0,0,8.355,57.093,14.97,69.277s17.873,27.376,21.584,30.983
					c12.531,12.185,33.769,20.888,44.56,21.932c10.793,1.045,33.42-6.963,37.946-13.576c4.526-6.615,19.148-38.99,22.629-61.968
					c0,0-5.223,14.274-12.532,18.8c0,0-8.355,21.584-16.014,29.242c0,0-13.841,8.707-31.333,1.74
					c-19.669-7.832-18.103-33.941-18.103-33.941s-29.33-4.439-53.002-31.593c0,0-5.563-15.988-9.66-28.851
					C147.853,227.494,147.71,228.361,147.279,226.927z"/>
				<path fill="#010101" d="M207.07,301.165c0,0,5.744-24.543,9.139-25.326c3.394-0.783,13.315-4.7,18.799-9.399
					c5.482-4.699,9.922-4.961,9.922-4.961l5.743,4.961l4.96-4.699c0,0,5.223,6.787,9.14,8.354c3.917,1.567,9.399,4.962,10.183,7.572
					c0.783,2.611,3.655,10.705,1.305,15.928c-2.35,5.222-7.658,16.885-7.658,16.885s3.48-13.491,2.176-24.196
					c0,0-7.571-6.788-16.449-8.354l-3.916,1.828l-4.439-2.09c0,0-13.054,1.307-20.887,6.789c0,0-5.744,2.35-6.006,4.699
					c-0.26,2.351-7.31,7.05-2.61,24.805C216.47,313.959,208.375,305.343,207.07,301.165z"/>
				<path fill="#010101" d="M283.571,288.894c0,0,8.146-33.407,9.921-40.731c2.09-8.615,0-24.194-1.044-28.721
					c-1.044-4.524,0.262-20.104,0.784-22.453c0,0-4.178-10.967-3.655-16.188c0,0,1.305,6.005,3.394,9.399
					c0,0,3.917-45.17-24.543-66.84c0,0,10.443,7.311,12.01,8.877c0,0,17.494,15.666,15.145,64.49c0,0-2.786,14.709-1.045,22.715
					c1.562,7.186,2.351,25.326,0.262,31.071c-2.089,5.743-5.744,26.893-8.878,33.159
					C282.788,289.938,283.571,288.894,283.571,288.894z"/>
				<path fill="#010101" d="M292.796,211.436c0,0,1.044-4.178,3.308-3.83c2.264,0.349,4.353,2.438,3.83,4.526
					c-0.521,2.089-4.266,4.873-5.657,10.879l0.436,0.435c0,0,1.646-5.156,3.829-7.832c2.697-3.309,3.307-5.483,0.87-7.746
					C296.974,205.604,293.754,205.865,292.796,211.436z"/>
				<path fill="#010101" d="M295.06,217.527c0,0,2.697-5.223,4.265-5.396C299.324,212.132,298.715,213.872,295.06,217.527z"/>
				<path fill="#010101" d="M141.013,213.176c0.749,0.824-5.047-11.662-19.321-12.358c-7.475-0.364-18.973,10.618-11.488,29.243
					c5.483,13.645,12.186,22.976,17.232,26.805c8.924,6.77,14.1,8.877,21.236,7.311c0,0-2.786,2.611-5.745,2.611
					c0,0,8.878,0.696,9.399-4.699c-0.869-0.871-2.088-1.566-2.784-1.393c0,0-8.007,5.048-22.454-6.092
					c0,0-10.271-8.529-16.536-27.851c0,0-4.178-13.577,5.049-21.933C123.084,198.043,134.05,205.518,141.013,213.176z"/>
				<path fill="#010101" d="M118.385,239.634c0,0-14.512-24.704-2.262-33.421c9.05-6.439,18.103,13.229,18.103,13.229
					s-4.875-7.832-12.186-10.617C122.04,208.824,108.289,210.391,118.385,239.634z"/>
				<path fill="#010101" d="M139.621,226.753c-0.468-0.42,3.307,2.263,2.089,4.525c-1.219,2.263-2.814,7.937-2.264,9.443
					c0.413,1.131,6.092,8.833,5.744,9.355s-4.874,1.22-11.313-2.784c0,0,7.157,3.045,9.943,1.653c0,0-5.889-6.086-6.115-8.442
					c-0.217-2.264,1.566-7.832,1.566-7.832s-0.695-4.004-4.178-8.008c0,0,2.917,2.219,4.809,7.572
					C139.902,232.236,143.036,229.82,139.621,226.753z"/>
				<path fill="none" stroke="#231F20" stroke-width="1.0444" stroke-miterlimit="10" d="M175.826,123.186
					c-16.711,20.887-8.704,48.737-8.704,48.737c-18.45,16.362-19.233,57.18-19.233,57.18s-0.958-21.932-22.541-27.241
					c0,0-5.919-51.174,9.051-71.018"/>
				<path fill="#010101" d="M277.131,131.54c0,0-10.096-10.096-15.318-6.614c-5.222,3.48-18.102,4.178-21.583,1.045
					c-3.481-3.134-21.585-10.096-29.939-9.748c0,0,10.444,1.74,16.711,5.918c0,0-31.681-12.359-58.262,6.146
					c-0.943,0.656-1.611,1.638-2.313,2.557c0,0,1.219-2.438,2.263-3.133c0,0-5.917,2.088-10.617,9.225c0,0,1.219-3.48,1.915-3.829
					c0,0-7.834,5.919-9.052,9.399c0,0,4.003-6.963,4.526-7.137c0,0-6.615,4.352-8.008,7.484l1.915-4.177
					c0,0-4.353,3.481-5.222,5.569l1.914-4.873c0,0-4.873,6.788-5.223,8.529l1.567-5.57c0,0-3.307,4.874-3.828,5.57
					c-0.522,0.695-5.919,9.225-7.485,10.792c-1.566,1.566-7.137,27.851-2.438,43.864l-3.307-0.697c0,0-7.572-54.221,14.099-78.241
					c0,0,2.35-4.96,3.133-6.005s12.011-20.191,28.373-25.414c13.051-4.164,25.066-6.963,33.507-5.396
					C208.607,87.575,276.782,90.113,277.131,131.54z"/>
				<path fill="#010101" d="M138.228,263.132c0,0,4.071,31.15,4.442,67.015c0.146,14.02-0.273,28.759-1.723,42.641
					c-0.529,5.074,0.413,5.574,1.458,2.85c2.943-15.312,5.731-47.965-0.87-112.33L138.228,263.132z"/>
				<path fill="#010101" d="M270.517,323.357c0,0,2.386,46.362,3.303,68.023c0.222,1.689-0.952,2.081-0.75,1.158
					c-2.118-17.819-6.483-55.801-5.686-59.781C268.428,327.535,270.517,323.357,270.517,323.357z"/>
				<path fill="#010101" d="M122.04,223.445c0,0-4.699,11.488-2.262,17.406c2.437,5.919,6.439,9.4,11.836,11.488
					c0,0-8.356-2.088-12.186-10.443C115.601,233.541,122.04,223.445,122.04,223.445z"/>
				<path fill="#010101" d="M2.109,453.383c0,0,20.366-25.064,36.555-34.986c16.188-9.921,64.229-34.986,69.451-41.775
					c5.221-6.788,27.154-40.208,35.509-42.297c0,0-34.726,53.002,83.028,87.729l-0.522,1.044l-2.61,2.611
					c0,0-87.989-25.587-93.994-71.715c0,0-11.488,8.703-15.667,24.021c0,0-67.536,37.771-79.024,45.604
					C23.345,431.451,16.209,442.418,2.109,453.383z"/>
				<path fill="#010101" d="M268.775,345.639c0,0,16.537,32.723,1.219,46.648c-15.317,13.926-41.602,26.631-45.778,31.854
					c-4.178,5.223-10.097,13.578-10.097,13.578l0,0l12.533-11.663c0,0,8.703-3.917,17.755-10.53
					c9.937-7.262,32.028-20.801,35.161-32.114c4.394-15.868-6.268-33.595-6.268-33.595s17.059,13.924,19.147,20.191
					c2.089,6.266,1.488,12.635-0.948,24.992c0,0,8.955-17.682,0.252-30.215c-8.703-12.532-22.977-21.932-22.977-21.932V345.639z"/>
				<path fill="#010101" d="M436.225,434.411c0.516,1.144-24.718-35.858-42.123-39.687c-17.406-3.83-65.797-13.578-76.588-16.363
					c-10.792-2.785-25.762-13.576-25.762-13.576L287.227,362c0,0,10.097,6.614,22.977,10.096
					c12.879,3.48,43.167,9.748,51.871,11.837c8.703,2.089,27.851,5.918,32.725,7.311
					C399.672,392.635,425.085,409.693,436.225,434.411z"/>
				<path fill="#010101" d="M191.013,209.912c0,0,2.603-0.152,3.524-0.521c0.653-0.262,16.449-13.578,30.81-7.051
					C225.347,202.34,215.295,191.244,191.013,209.912z"/>
				<path fill="#010101" d="M258.768,202.34c0,0,5.744,1.306,9.399,0.783c3.655-0.521,12.01-0.261,12.01-0.261
					s-4.831-3.264-8.747-3.264S258.768,202.34,258.768,202.34z"/>
				<path fill="#83614D" d="M243.624,196.727c-0.262,0.783-3.916,17.232-2.872,20.627c1.717,5.58,5.221,16.71,5.221,18.016
					c0,1.305,0.784,4.438,0.784,4.438s-2.872-3.134-5.744-3.917s-8.355,6.267-8.355,6.267s4.439-11.488,5.483-12.794
					c0,0-1.306-11.488-1.044-13.838C237.357,213.176,243.624,196.727,243.624,196.727z"/>
				<path fill="#010101" d="M141.36,373.837c0,0-10.269-12.62-6.874-25.152c1.708-6.306,9.138-15.666,9.138-14.36
					s-1.828,40.209-1.828,40.209L141.36,373.837z"/>
				<g>
					<defs>
						<path id="SVGID_167_" d="M199.15,210.13c0,0,8.703-7.137,14.272-6.527c5.57,0.608,11.401,5.483,11.401,5.483l-1.131,2.785
							c0,0-13.489,5.221-24.587-1.176L199.15,210.13z"/>
					</defs>
					<clipPath id="SVGID_10_">
						<use xlink:href="#SVGID_167_"  overflow="visible"/>
					</clipPath>
					<g clip-path="url(#SVGID_10_)">
						<path fill="#010101" d="M218.744,208.642c-0.025,3.063-2.717,5.53-6.013,5.512c-3.298-0.021-5.948-2.52-5.923-5.583
							c0.026-3.064,2.717-5.531,6.013-5.512C216.118,203.078,218.769,205.577,218.744,208.642z"/>
						<g>
							<path fill="#734131" d="M212.14,212.438c-2.079-0.166-3.744-1.482-4.424-3.254c0.113,2.33,1.955,4.254,4.416,4.449
								c2.718,0.218,5.155-1.753,5.449-4.401C216.678,211.27,214.509,212.627,212.14,212.438z"/>
							<path fill="#734131" d="M212.267,211.624c-1.642-0.132-2.958-1.172-3.494-2.572c0.092,1.84,1.546,3.36,3.488,3.515
								c2.147,0.172,4.071-1.385,4.303-3.477C215.852,210.701,214.137,211.772,212.267,211.624z"/>
						</g>
					</g>
				</g>
				<g>
					<defs>
						<path id="SVGID_169_" d="M261.9,211.609c0,0,3.046-5.483,8.181-5.483s10.791,1.653,13.229,6.179c0,0-0.784,1.916-1.045,2.09
							C282.004,214.568,266.252,217.44,261.9,211.609z"/>
					</defs>
					<clipPath id="SVGID_12_">
						<use xlink:href="#SVGID_169_"  overflow="visible"/>
					</clipPath>
					<g clip-path="url(#SVGID_12_)">
						<path fill="#010101" d="M278.535,210.078c-0.025,3.062-2.719,5.53-6.013,5.512c-3.297-0.021-5.948-2.52-5.922-5.584
							c0.024-3.063,2.716-5.531,6.012-5.512C275.909,204.515,278.559,207.014,278.535,210.078z"/>
						<g>
							<path fill="#734131" d="M271.931,213.874c-2.079-0.166-3.746-1.481-4.424-3.255c0.114,2.329,1.955,4.254,4.415,4.45
								c2.719,0.218,5.156-1.754,5.449-4.401C276.469,212.705,274.301,214.063,271.931,213.874z"/>
							<path fill="#734131" d="M272.058,213.06c-1.642-0.131-2.96-1.172-3.494-2.572c0.092,1.841,1.546,3.36,3.488,3.517
								c2.147,0.171,4.071-1.386,4.303-3.479C275.643,212.137,273.928,213.209,272.058,213.06z"/>
						</g>
					</g>
				</g>
				<path fill="#FFFFFF" d="M275.999,209.627c-0.103,0-0.194,0.018-0.28,0.043c0-0.007,0.002-0.013,0.002-0.02
					c0-0.71-0.571-1.22-1.256-1.255c-0.287-0.015-0.565,0.048-0.803,0.216c-0.771,0.546-0.771,1.533,0,2.079
					c0.237,0.168,0.516,0.23,0.803,0.216c0.233-0.012,0.45-0.082,0.639-0.193c0.058,0.415,0.355,0.791,0.896,0.791
					C277.21,211.504,277.21,209.627,275.999,209.627z"/>
				<path fill="#FFFFFF" d="M216.452,206.331c-0.031-0.05-0.063-0.101-0.095-0.151c-0.304-0.48-0.959-0.604-1.396-0.236
					c0.001-0.027,0.012-0.051,0.012-0.078c0-0.983-1.235-1.503-1.931-0.801c-0.02,0.02-0.039,0.039-0.057,0.058
					c-0.405,0.408-0.405,1.078,0,1.485c0.018,0.02,0.037,0.039,0.057,0.058c0.47,0.476,1.18,0.384,1.596-0.024
					c0.003,0.314,0.159,0.627,0.449,0.809c0.049,0.033,0.101,0.064,0.15,0.096C215.986,208.018,216.926,207.08,216.452,206.331z"/>
				<path fill="#333333" d="M281.309,135.195c0,0,8.703,12.185,12.532,34.986C293.841,170.182,292.796,147.031,281.309,135.195z"/>
				<path fill="#35312F" d="M267.905,118.398c0.417,0.712-16.448-22.977-41.515-24.021c0,0,8.355,1.566,13.317,5.744
					c0,0-15.928-6.788-34.466-2.611c0,0,10.445-1.827,18.016,1.566c0,0-19.843-2.088-31.853,5.484c0,0,9.659-1.045,13.576,0
					c0,0-16.188,2.35-27.938,12.532c0,0,11.228-3.395,13.576-3.133c0,0-34.203,10.183-47.258,18.276c0,0,12.795-18.451,18.017-19.67
					c0,0-14.361,7.92-17.232,10.531c0,0,16.448-20.104,39.426-25.849c0,0-14.361,2.872-19.844,5.483
					c0,0,15.927-12.532,42.559-12.793c0,0-9.139,1.742-9.139,3.394c0,0.783,15.666-3.394,21.932-3.133
					C225.347,90.461,252.762,92.549,267.905,118.398z"/>
			</g>
		</g>
		<g>
			<path fill="#FFFFFF" d="M200.001,524.574c-15.623,0-28.334-12.711-28.334-28.334c0-15.622,12.711-28.332,28.334-28.332
				c15.622,0,28.332,12.71,28.332,28.332C228.333,511.863,215.623,524.574,200.001,524.574z"/>
			<path fill="#D3B76E" d="M200.001,469.908c14.543,0,26.332,11.789,26.332,26.332c0,14.545-11.789,26.334-26.332,26.334
				c-14.545,0-26.334-11.789-26.334-26.334C173.667,481.697,185.456,469.908,200.001,469.908 M200.001,465.908
				c-16.727,0-30.334,13.607-30.334,30.332c0,16.727,13.607,30.334,30.334,30.334c16.726,0,30.332-13.607,30.332-30.334
				C230.333,479.516,216.727,465.908,200.001,465.908L200.001,465.908z"/>
		</g>
		<g>
			<g>
				<path fill="#BE2032" d="M177.334,490.632c3.097-12.521,15.758-20.155,28.276-17.058c12.521,3.099,20.153,15.757,17.057,28.276
					c-3.099,12.52-15.757,20.156-28.277,17.058C181.871,515.811,174.233,503.151,177.334,490.632"/>
			</g>
			<path fill="#036A49" d="M205.076,494.013h4.268l-3.448,2.639L205.076,494.013z M217.731,491.158l-19.057,0.005l1.32-4.258
				l1.326,4.253h2.875l-4.201-13.49l-5.881,18.988l2.312,1.759l1.365-4.402h4.415l1.369,4.405l-3.577,2.721l-9.343-7.116l4.267-0.01
				l0.891-2.854h-13.546l15.423,11.738l-3.455,2.631l1.307-4.257l-2.322-1.77l-4.172,13.5l15.41-11.741l1.327,4.263l-3.469-2.624
				l-2.321,1.764l10.967,8.329l-4.182-13.481L217.731,491.158z"/>
		</g>
	</g>
</g>
<g id="Layer_1_copy">
	<g>
		<g>
			<g>
				<defs>
					<polygon id="SVGID_337_" points="-63.656,-159.586 -219.566,-89.26 -375.656,-159.184 -376.012,-434.121 -64.012,-434.523 
											"/>
				</defs>
				<clipPath id="SVGID_14_">
					<use xlink:href="#SVGID_337_"  overflow="visible"/>
				</clipPath>
				<path clip-path="url(#SVGID_14_)" fill="#DDDCD4" d="M44.982-80.874c0.013,0.047,0.006,0.015-0.018-0.076
					c-0.195-0.858-2.277-9.742-6.888-20.938c-6.005-15.528-15.761-35.231-28.624-42.854c-22.841-13.535-27.914-16.495-31.723-20.302
					c-3.807-3.807-63.868-23.264-72.749-27.07c-8.883-3.807-27.493-14.381-30.455-15.65c-2.961-1.269-8.034-1.691-8.034-1.691
					s-5.686-3.651-9.098-5.391c-3.835-41.904,5.217-76.556,7.279-83.747c14.424,2.287,22.541-14.205,22.541-14.205
					c11.702-20.867-0.702-40.184-0.702-40.184s-0.738-0.387-1.846-0.791c-0.067-0.651-0.187-5.497,7.201-25.715
					c8.036-21.995-5.499-59.638-5.499-59.638c-24.532-67.252-115.047-57.102-115.047-57.102
					c-58.792,18.611-63.444,58.792-63.444,58.792s-6.345,13.958-10.151,28.762s5.922,33.837,5.922,33.837
					c-0.549-3.571-0.741-9.279-0.809-12.845c0.796,7.714,5.744,20.035,5.744,20.035c0.055,4.649-0.779,14.098-2.822,24.743
					c-1.651,8.598-1.268,18.188,1.481,28.339c0.448,1.656,15.438,47.795,24.531,59.216c0.45,0.564,0.921,1.102,1.405,1.616
					l-1.604,47.643c-4.033,1.354-16.773,6.059-22.43,13.129c0,0-11.42,6.768-27.069,14.805
					c-15.651,8.036-79.518,27.492-94.744,49.486c-10.697,15.452-19.718,35.064-24.142,45.374
					c-6.971,12.356-12.823,23.463-13.504,27.377c-1.69,9.727-4.653,41.873,26.647,57.946
					c31.301,16.072,480.491-5.076,479.645-26.224C55.135-45.345,44.982-80.874,44.982-80.874z M-109.81-342.304
					c0.643,2.433,0.956,4.848,1.022,7.184C-109.014-337.596-109.35-340.042-109.81-342.304z M-429.703-95.699
					c4.173-7.752,9.115-16.494,13.752-23.593C-419.448-113.219-424.52-104.64-429.703-95.699z M-30.019-164.932
					c3.181,1.386,5.479,2.52,6.481,3.271c6.766,5.075,30.875,16.918,33.413,19.456c0.277,0.277,0.794,0.759,1.486,1.427
					c-2.701-2.156-5.589-4.071-8.677-5.657C-14.934-155.481-24.777-161.445-30.019-164.932z"/>
			</g>
			<g>
				<defs>
					<polygon id="SVGID_339_" points="-63.656,-159.586 -219.566,-89.268 -375.656,-159.184 -376.105,-507.457 -64.106,-507.859 
						-46.007,-362.818 -63.769,-246.129 					"/>
				</defs>
				<clipPath id="SVGID_16_">
					<use xlink:href="#SVGID_339_"  overflow="visible"/>
				</clipPath>
				<g clip-path="url(#SVGID_16_)">
					<path fill="#E02B3A" d="M22.982-79.874c0,0-10.998-49.487-42.297-65.561c-31.3-16.071-38.066-22.416-38.066-22.416
						s-62.177-22.84-71.06-26.224c-8.881-3.385-19.878-9.729-19.878-9.729s-16.919,54.562-83.748,74.864
						c0,0-69.79-17.764-69.367-62.176l1.058-6.767c0,0-7.19,4.018-11.42,7.4c-4.229,3.384-29.607,14.594-31.724,16.073
						c-2.113,1.48-66.192,30.031-73.172,34.26c-6.979,4.231-13.536,6.557-16.92,13.958c-3.382,7.401-37.009,61.543-38.701,71.271
						c-1.69,9.727-4.653,41.873,26.647,57.946c31.301,16.072,480.491-5.076,479.645-26.224
						C33.135-44.345,22.982-79.874,22.982-79.874z"/>
				</g>
			</g>
		</g>
	</g>
	<g>
		<rect fill="#036A49" width="400" height="560"/>
		<g>
			<polygon fill="#BE2032" points="399.992,243.093 399.992,42.939 0.008,333.826 0.008,560 			"/>
		</g>
		<g>
			<rect x="55.404" y="31.166" fill="#D3B76E" width="289.191" height="48.5"/>
			<polygon fill="#D3B76E" points="68.398,72.854 29.744,72.854 38.111,55.416 29.744,37.979 81.064,37.979 81.064,50.011 
				55.404,50.011 			"/>
			<polygon fill="#D3B76E" points="331.602,72.854 370.256,72.854 361.889,55.416 370.256,37.979 318.936,37.979 318.936,50.011 
				344.596,50.011 			"/>
			<g>
				<g>
					<path fill="#9F8E53" d="M101.076,46.816v18.199h-3.562v-5.693c0-3.822,0.131-6.449,0.105-6.449h-0.027
						c-0.025,0-1.299,2.236-1.611,2.758l-2.834,4.887h-1.873l-2.834-4.887c-0.338-0.521-1.611-2.758-1.637-2.758h-0.027
						c-0.025,0,0.131,2.627,0.131,6.449v5.693h-3.562V46.816h3.406l3.77,6.24c1.404,2.312,1.639,2.885,1.664,2.885h0.027
						c0.025,0,0.26-0.572,1.664-2.885l3.795-6.24H101.076z"/>
					<path fill="#9F8E53" d="M121.018,61.637v3.379h-13.025V46.816h12.869v3.379h-9.256v3.875h7.307v3.172h-7.307v4.395H121.018z"/>
					<path fill="#9F8E53" d="M135.396,46.816c5.199,0,9.412,3.717,9.412,9.178c0,5.434-4.188,9.021-9.361,9.021h-7.904V46.816
						H135.396z M135.447,61.637c3.016,0,5.617-2.107,5.617-5.643c0-3.537-2.602-5.799-5.668-5.799h-4.238v11.441H135.447z"/>
					<path fill="#9F8E53" d="M165.451,46.816v18.199h-3.613v-7.514h-7.879v7.514h-3.613V46.816h3.613v7.279h7.879v-7.279H165.451z"
						/>
					<path fill="#9F8E53" d="M172.367,65.016V46.816h3.615v18.199H172.367z"/>
					<path fill="#9F8E53" d="M199.537,46.816c3.225,0,5.436,2.053,5.436,4.705c0,1.742-1.301,3.25-2.523,3.615v0.025
						c1.742,0.391,3.537,2.287,3.537,4.395c0,3.068-2.055,5.459-6.344,5.459h-7.645V46.816H199.537z M198.811,54.07
						c1.48,0,2.521-0.936,2.521-2.107c0-1.221-1.041-2.08-2.521-2.08h-3.199v4.188H198.811z M199.303,61.947
						c1.717,0,2.887-1.014,2.887-2.547c0-1.535-1.273-2.549-2.912-2.549h-3.666v5.096H199.303z"/>
					<path fill="#9F8E53" d="M224.68,61.637v3.379h-13.027V46.816h12.871v3.379h-9.256v3.875h7.305v3.172h-7.305v4.395H224.68z"/>
					<path fill="#9F8E53" d="M247.064,46.816v18.199h-3.406l-5.174-7.02c-1.639-2.236-3.641-5.096-3.666-5.096h-0.025
						c-0.027,0,0.025,2.625,0.025,6.24v5.875h-3.613V46.816h3.406l5.277,7.098c1.248,1.639,3.537,4.889,3.562,4.889h0.025
						c0.025,0-0.025-2.965-0.025-6.033v-5.953H247.064z"/>
					<path fill="#9F8E53" d="M264.666,61.531h-7.877l-1.354,3.484h-3.898l7.488-18.199h3.406l7.488,18.199h-3.9L264.666,61.531z
						 M263.418,58.334l-1.793-4.602c-0.391-1.014-0.857-2.523-0.885-2.523h-0.025c-0.025,0-0.494,1.51-0.885,2.523l-1.793,4.602
						H263.418z"/>
					<path fill="#9F8E53" d="M286.064,46.816v3.379h-5.719v14.82h-3.615v-14.82h-5.668v-3.379H286.064z"/>
					<path fill="#9F8E53" d="M291.188,65.016V46.816h3.613v18.199H291.188z"/>
					<path fill="#9F8E53" d="M312.402,61.531h-7.877l-1.354,3.484h-3.898l7.488-18.199h3.406l7.488,18.199h-3.9L312.402,61.531z
						 M311.154,58.334l-1.793-4.602c-0.391-1.014-0.857-2.523-0.885-2.523h-0.025c-0.025,0-0.494,1.51-0.885,2.523l-1.793,4.602
						H311.154z"/>
				</g>
				<g>
					<g>
						<path fill="#FFFFFF" d="M100.076,45.816v18.199h-3.562v-5.693c0-3.822,0.131-6.449,0.105-6.449h-0.027
							c-0.025,0-1.299,2.236-1.611,2.758l-2.834,4.887h-1.873l-2.834-4.887c-0.338-0.521-1.611-2.758-1.637-2.758h-0.027
							c-0.025,0,0.131,2.627,0.131,6.449v5.693h-3.562V45.816h3.406l3.77,6.24c1.404,2.312,1.639,2.885,1.664,2.885h0.027
							c0.025,0,0.26-0.572,1.664-2.885l3.795-6.24H100.076z"/>
						<path fill="#FFFFFF" d="M120.018,60.637v3.379h-13.025V45.816h12.869v3.379h-9.256v3.875h7.307v3.172h-7.307v4.395H120.018z"
							/>
						<path fill="#FFFFFF" d="M134.396,45.816c5.199,0,9.412,3.717,9.412,9.178c0,5.434-4.188,9.021-9.361,9.021h-7.904V45.816
							H134.396z M134.447,60.637c3.016,0,5.617-2.107,5.617-5.643c0-3.537-2.602-5.799-5.668-5.799h-4.238v11.441H134.447z"/>
						<path fill="#FFFFFF" d="M164.451,45.816v18.199h-3.613v-7.514h-7.879v7.514h-3.613V45.816h3.613v7.279h7.879v-7.279H164.451z"
							/>
						<path fill="#FFFFFF" d="M171.367,64.016V45.816h3.615v18.199H171.367z"/>
						<path fill="#FFFFFF" d="M198.537,45.816c3.225,0,5.436,2.053,5.436,4.705c0,1.742-1.301,3.25-2.523,3.615v0.025
							c1.742,0.391,3.537,2.287,3.537,4.395c0,3.068-2.055,5.459-6.344,5.459h-7.645V45.816H198.537z M197.811,53.07
							c1.48,0,2.521-0.936,2.521-2.107c0-1.221-1.041-2.08-2.521-2.08h-3.199v4.188H197.811z M198.303,60.947
							c1.717,0,2.887-1.014,2.887-2.547c0-1.535-1.273-2.549-2.912-2.549h-3.666v5.096H198.303z"/>
						<path fill="#FFFFFF" d="M223.68,60.637v3.379h-13.027V45.816h12.871v3.379h-9.256v3.875h7.305v3.172h-7.305v4.395H223.68z"/>
						<path fill="#FFFFFF" d="M246.064,45.816v18.199h-3.406l-5.174-7.02c-1.639-2.236-3.641-5.096-3.666-5.096h-0.025
							c-0.027,0,0.025,2.625,0.025,6.24v5.875h-3.613V45.816h3.406l5.277,7.098c1.248,1.639,3.537,4.889,3.562,4.889h0.025
							c0.025,0-0.025-2.965-0.025-6.033v-5.953H246.064z"/>
						<path fill="#FFFFFF" d="M263.666,60.531h-7.877l-1.354,3.484h-3.898l7.488-18.199h3.406l7.488,18.199h-3.9L263.666,60.531z
							 M262.418,57.334l-1.793-4.602c-0.391-1.014-0.857-2.523-0.885-2.523h-0.025c-0.025,0-0.494,1.51-0.885,2.523l-1.793,4.602
							H262.418z"/>
						<path fill="#FFFFFF" d="M285.064,45.816v3.379h-5.719v14.82h-3.615v-14.82h-5.668v-3.379H285.064z"/>
						<path fill="#FFFFFF" d="M290.188,64.016V45.816h3.613v18.199H290.188z"/>
						<path fill="#FFFFFF" d="M311.402,60.531h-7.877l-1.354,3.484h-3.898l7.488-18.199h3.406l7.488,18.199h-3.9L311.402,60.531z
							 M310.154,57.334l-1.793-4.602c-0.391-1.014-0.857-2.523-0.885-2.523h-0.025c-0.025,0-0.494,1.51-0.885,2.523l-1.793,4.602
							H310.154z"/>
					</g>
				</g>
			</g>
			<rect x="49.207" y="37.979" fill="#9F8E53" width="6.197" height="34.876"/>
			<rect x="344.596" y="37.979" fill="#9F8E53" width="6.197" height="34.876"/>
		</g>
		<g>
			<polygon fill="#BE2032" points="39.5,423.526 39.5,141.178 360.5,141.178 360.5,423.526 200,495.674 			"/>
			<g>
				<path fill="#010101" d="M356,145.678v274.938L200,490.74L44,420.615V145.678H356 M365,136.678h-9H44h-9v9v274.938v5.822
					l5.311,2.387l156,70.125l3.689,1.658l3.689-1.658l156-70.125l5.311-2.387v-5.822V145.678V136.678L365,136.678z"/>
			</g>
		</g>
		<g>
			<path fill="#D3B76E" d="M365,136.678v9v274.938v5.801L200,500.24L35,426.406v-5.791V145.678v-9h9h312H365 M372,129.678h-7h-9H44
				h-9h-7v7v9v274.938v5.791v4.536l4.141,1.854l165,73.834l2.859,1.279l2.858-1.279l165-73.824l4.142-1.853v-4.537v-5.801V145.678
				v-9V129.678L372,129.678z"/>
		</g>
		<g>
			<defs>
				<polygon id="SVGID_405_" points="356,420.615 200,490.74 44,420.615 44,145.678 356,145.678 				"/>
			</defs>
			<clipPath id="SVGID_18_">
				<use xlink:href="#SVGID_405_"  overflow="visible"/>
			</clipPath>
			<g clip-path="url(#SVGID_18_)">
				<path fill="#981B25" d="M413.317,449.852c0,0-3.93-6.112-10.076-14.017c-12.313-20.571-33.085-34.347-37.442-35.592
					c-4.874-1.393-24.021-5.222-32.725-7.311c-8.704-2.089-38.992-8.356-51.871-11.837c-7.229-1.954-13.58-4.895-17.763-7.099
					l-1.155-0.866c-6.291-8.787-15.188-15.949-19.68-19.271c-0.364-7.287-0.682-13.53-0.878-17.383
					c5.978-12.301,14.89-34.493,17.928-52c2.34-8.795,4.646-20.844,6.144-24.964c1.84-5.06,1.447-19.731,0.26-28.068
					c0.593-1.631,1.894-4.884,3.482-6.831c2.697-3.309,3.307-5.483,0.87-7.746c-1.716-1.594-3.817-1.926-5.246-0.044
					c0.062-0.856,0.138-1.698,0.219-2.511c0.016,0.111,0.028,0.199,0.036,0.257c-0.008-0.056-0.02-0.143-0.036-0.257
					c0.479-4.787,1.198-8.586,1.198-8.586c2.35-48.824-15.145-64.49-15.145-64.49c-0.434-0.434-1.549-1.309-2.933-2.345
					c-0.16-0.249-0.318-0.499-0.481-0.745c-2.906-39.127-68.498-41.586-72.564-42.341c-8.44-1.567-20.456,1.231-33.507,5.396
					c-16.362,5.223-27.59,24.369-28.373,25.414s-3.133,6.005-3.133,6.005c-2.096,2.323-3.915,4.931-5.497,7.742
					c-6.127,7.187-8.535,20.539-9.253,33.69c-0.079,1.033-0.146,2.064-0.205,3.092c-1.165,16.064,0.403,30.107,0.778,33.119
					c-1.129-0.228-2.318-0.385-3.578-0.446c-7.475-0.364-18.973,10.618-11.488,29.243c5.483,13.645,12.186,22.976,17.232,26.805
					c4.26,3.232,7.662,5.39,10.835,6.604c0.434,3.426,4.051,32.966,4.399,66.678c0.016,1.498,0.021,3.007,0.023,4.52
					c-8.944,4.065-29.54,35.404-34.578,41.955c-5.223,6.789-53.264,31.854-69.451,41.775c-16.188,9.922-36.555,34.986-36.555,34.986
					c1.536-1.194,2.977-2.389,4.361-3.578c-3.719,4.459-6.709,8.439-8.016,10.889c-0.32,0.601-0.649,1.551-0.985,2.788
					c-1.37,1.218-2.148,1.913-2.148,1.913l0.453,6.337c-3.596,21.212-7.241,63.636-7.241,63.636s87.729,16.189,92.429,18.278
					c4.698,2.089,358.222-6.267,363.966-18.8C421.673,531.312,413.317,449.852,413.317,449.852z M83.585,387.728
					c-0.006,0.021-0.011,0.039-0.017,0.06C83.574,387.768,83.58,387.747,83.585,387.728L83.585,387.728z M82.529,391.423
					C82.463,391.658,82.47,391.631,82.529,391.423L82.529,391.423z M83.414,388.326c-0.318,1.116-0.541,1.896-0.69,2.416
					C82.903,390.114,83.158,389.223,83.414,388.326z M82.621,391.104c-0.01,0.033-0.02,0.068-0.028,0.098
					C82.602,391.171,82.611,391.137,82.621,391.104z"/>
				<path fill="#7B2425" d="M231.428,228.624C231.433,228.661,231.432,228.658,231.428,228.624L231.428,228.624z"/>
				<path fill="#7B2425" d="M231.42,228.569c0,0.003,0,0.005,0.001,0.007C231.42,228.574,231.42,228.572,231.42,228.569z"/>
				<path fill="#7B2425" d="M231.421,228.576c0.003,0.02,0.005,0.036,0.007,0.048C231.426,228.612,231.424,228.596,231.421,228.576z
					"/>
			</g>
		</g>
		<g>
			<defs>
				<polygon id="SVGID_407_" points="356,420.652 200,490.77 44,420.652 44,72.379 356,72.379 356,334.109 				"/>
			</defs>
			<clipPath id="SVGID_20_">
				<use xlink:href="#SVGID_407_"  overflow="visible"/>
			</clipPath>
			<g clip-path="url(#SVGID_20_)">
				<path fill="#057550" d="M442.317,440.852c0,0-28.198-43.864-51.696-48.564c-23.499-4.699-52.742-9.921-59.53-11.488
					c-6.788-1.566-20.365-5.744-25.065-8.354c-4.7-2.611-13.577-5.745-18.799-10.444c-5.223-4.699-13.055-14.621-13.055-14.621
					s15.144,34.465-5.744,52.742c-22.321,19.53-39.687,26.283-41.775,25.935c-2.089-0.348-21.41-9.226-22.977-10.27
					c-1.567-1.045-55.352-24.543-62.141-35.509c-6.788-10.967-12.01-26.284-12.01-26.284s-12.012,7.485-16.189,22.106
					c-4.177,14.621,0,0,0,0s-74.672,43.863-81.984,48.563c-7.31,4.7-28.72,28.198-32.896,36.03
					c-4.178,7.834-9.922,74.674-9.922,74.674s87.729,16.189,92.429,18.278c4.698,2.089,358.222-6.267,363.966-18.8
					C450.673,522.312,442.317,440.852,442.317,440.852z"/>
				<path fill="#035235" d="M116.47,380.277c0,0,43.172,48.041,107.397,59.008c0,0,38.643-8.007,65.492-42.516
					c0,0-16.931,33.465-65.492,45.996C223.867,442.766,154.938,431.278,116.47,380.277"/>
				<path fill="#035235" d="M316.121,405.517c0,0,16.363-3.481,26.109,0c9.748,3.481,23.324,4.525,23.324,4.525
					s-6.962-1.045-17.754,4.526c-10.792,5.57-32.375,13.576-32.375,13.576s21.583-13.925,24.369-15.318
					C339.795,412.826,324.824,405.517,316.121,405.517z"/>
				<path fill="#035235" d="M68.951,443.811c0,0-2.438-7.311,12.184-10.791c14.621-3.481,40.035-18.451,40.035-18.451
					s-2.785,9.051-18.103,14.621C87.749,434.76,78.351,432.323,68.951,443.811z"/>
				<path fill="#035235" d="M127.436,392.637c0,0-12.533-10.098-14.1-16.537c-1.565-6.439,10.967-19.668,10.967-19.668
					S118.037,378.363,127.436,392.637z"/>
				<path fill="#035235" d="M281.657,364.09c0,0,6.614,6.268,8.354,12.881c1.74,6.614,1.389,17.388-3.137,23.654
					c0,0,6.357-5.727,7.314-16.691c1.394-15.953-5.919-22.629-6.963-23.673c-1.045-1.044-9.051-8.703-9.051-8.703L281.657,364.09z"
					/>
				<path fill="#BE2032" d="M114.334,381.001l7.357,9.198c0,0-45.952,19.32-58.485,29.764
					c-12.531,10.445-45.952,36.031-54.308,43.343c-8.354,7.311-12.532,16.71-12.532,16.71l-1.045-14.621
					c0,0,53.787-48.043,60.575-50.653S114.334,381.001,114.334,381.001z"/>
				<path fill="#BE2032" d="M125.869,395.943c0,0-29.765,11.487-36.031,15.665s-21.932,10.966-31.331,19.843
					c-9.398,8.879-60.052,49.608-61.096,52.22c-1.045,2.61,3.655,10.444,3.655,10.444s69.451-61.619,72.062-62.141
					c2.611-0.523,54.831-30.81,60.053-30.288L125.869,395.943z"/>
				<path fill="#BE2032" d="M292.448,370.008c0,0,4.7,9.225,21.41,12.881c16.71,3.654,45.952,5.743,63.185,10.965
					c17.232,5.223,31.854,11.488,33.421,13.055c1.566,1.567,21.41,20.366,21.41,20.366s-19.844-28.198-36.031-32.898
					c-16.189-4.699-37.599-9.921-41.776-9.921c-4.177,0-32.139-5.066-36.316-7.33c-4.178-2.262-16-6.375-16-6.375l-11.913-7.705
					L292.448,370.008"/>
				<path fill="#BE2032" d="M295.06,378.188l-0.522,8.879c0,0,5.223,6.266,21.933,8.354c16.709,2.09,53.785,6.267,58.485,8.355
					c4.698,2.089,39.687,13.055,56.396,35.51c0,0-21.316-30.491-36.553-36.032c-22.978-8.354-51.697-12.532-60.575-13.054
					C316.739,389.17,300.803,383.933,295.06,378.188"/>
				<path fill="#BE2032" d="M277.131,351.557c0,0,34.117,32.027-44.474,76.762l-12.011,10.705l-7.31-1.044
					c0,0,13.663-15.231,15.752-14.883s21.933-16.535,23.325-16.884c1.392-0.349,23.498-8.182,25.152-24.107
					c1.653-15.928-0.784-25.326-6.354-32.986c-5.57-7.658,0-2.437,0-2.437L277.131,351.557z"/>
				<path fill="#BE2032" d="M222.475,429.015c0,0-83.897-22.454-96.779-74.325l4.178-4.525c0,0,2.785,51.696,96.257,72.933
					L222.475,429.015z"/>
				<path fill="#B07F65" d="M277.566,382.105c0-0.784,2.088-12.272-2.09-23.76c-4.177-11.488-5.742-15.145-5.742-16.188
					s-1.045-17.493-1.045-17.493s12.792-26.633,14.621-31.854c1.827-5.223,3.655-13.838,3.655-13.838s7.049-26.893,7.571-30.811
					c0.522-3.916,0.175-24.717,0.175-24.717s0.609-3.133,1.044-3.655c0.436-0.522,2.176-3.829,2.176-3.829s2.176-2.523,2.438-3.829
					c0.26-1.306-0.609-3.047-1.219-3.569c-0.609-0.521-1.915-2.001-2.872-1.652c-0.957,0.348-2.96,1.652-2.96,1.652
					s1.306-14.186,1.394-14.708s0.87-21.409-2.654-30.548c-3.525-9.139-12.316-41.514-31.289-48.65s-94.168-6.441-99.39-2.09
					s-29.94,30.287-31.332,40.035c-1.393,9.748-4.699,41.775-4.352,45.604c0.349,3.829-0.521,3.655-0.521,3.655
					s-11.489-3.133-16.015,11.662c0,0-5.047,22.803,22.455,45.257c0,0,7.31,3.134,7.832,4.526
					c0.522,1.392,1.219,10.965,1.219,10.965l3.134,62.314l-2.438,37.251c0,0,25.762,34.29,78.678,49.26c0,0,7.658,1.044,13.576-1.74
					c5.919-2.786,37.947-26.98,37.947-26.98L277.566,382.105z"/>
				<path fill="#FFFFFF" d="M199.15,210.13c0,0,8.703-7.137,14.272-6.527c5.57,0.608,11.401,5.483,11.401,5.483l-1.131,2.785
					c0,0-13.489,5.221-24.587-1.176L199.15,210.13z"/>
				<path fill="#FFFFFF" d="M261.9,211.609c0,0,3.046-5.483,8.181-5.483s10.791,1.653,13.229,6.179c0,0-0.784,1.916-1.045,2.09
					C282.004,214.568,266.252,217.44,261.9,211.609z"/>
				<path fill="#83614D" d="M152.85,259.65c0,0,10.096,54.309,34.116,79.722c15.572,16.474,34.812,23.325,38.99,24.717
					c0,0-18.45-3.133-40.382-15.665c0,0,36.579,22.686,45.256,21.932c8.007-0.696,18.451-9.051,25.414-22.629
					c0,0-6.267,11.836-17.756,14.621c0,0,5.223-3.829,10.096-9.051c3.756-4.023,7.312-13.229,7.312-13.229
					s-45.257-1.045-55.354-10.096C190.446,320.921,152.85,259.65,152.85,259.65"/>
				<path fill="#83614D" d="M225.086,317.092c0,0,20.889-7.137,41.079-1.219c0,0-8.53-3.307-9.748-3.655
					c0,0,4.352-4.351,4.178-8.702c0,0,3.482-6.268,4.178-9.922c0,0-2.96,9.573-14.1,9.398c-11.14-0.174-20.888-6.266-23.848-10.443
					c0,0,4.179,8.008,10.619,10.443c0,0-4.873-1.74-6.44-2.436c-1.566-0.697-0.522,0-0.522,0s5.571,4.351,3.481,10.966
					C233.963,311.522,229.264,314.133,225.086,317.092z"/>
				<path fill="#83614D" d="M225.956,289.764c0,0,12.968-7.746,16.362-7.049c3.394,0.695,6.875,2.959,8.182,3.045
					c1.305,0.087,1.914-0.348,2.35-0.521c0.435-0.174,4.177-2.002,5.656-2.176c1.48-0.174,6.528,0.957,9.27,5.961
					c0,0-3.698-0.304-6.223,0.566s-11.488,3.394-15.754,2.262C241.535,290.721,231.353,288.197,225.956,289.764z"/>
				<path fill="#83614D" d="M231.091,257.692c0,0,7.856-10.597,15.404-7.311c2.698,1.175,4.308,4.309,7.703,5.091
					c3.394,0.783,7.833-1.566,8.355-2.871c0.521-1.306,1.958-5.483,0-12.794c0,0,6.396,14.099-6.006,21.019
					c0,0-1.567,1.827-2.611,2.741c-1.044,0.913-3.916,4.765-4.309,4.112c-0.392-0.653-4.698-6.332-5.091-6.332
					C244.146,261.348,233.05,262.914,231.091,257.692z"/>
				<path fill="#B07F65" d="M235.726,258.998c0,0,3.134-3.002,5.418-3.133s7.637,0.914,9.269,3.524c0,0-2.351-2.089-4.569-1.175
					S238.01,261.086,235.726,258.998z"/>
				<path fill="#83614D" d="M244.667,178.45c0.013-0.413,4.7,12.663-3.263,20.888c0,0-7.441,4.308-7.963,5.352
					c0,0-0.914,5.354-1.045,5.875c0,0-5.092-7.311-11.228-7.833c0,0,6.267,5.092,7.964,9.14c0,0-7.572,14.882-12.533,15.796
					c-4.96,0.913-13.055-3.655-13.055-3.655s8.878,3.655,12.011,2.741c3.134-0.914,7.05-6.658,7.05-6.658s-5.353,4.438-9.008,3.265
					c-3.656-1.176-12.142-6.659-12.142-6.659s9.14,0.653,15.797-1.566c0,0-7.922-0.913-8.746-0.913
					c-0.393,0,11.096-0.262,15.665-2.48c0,0,0.914-2.09-0.522-3.395c-1.437-1.306-5.482-4.178-5.874-4.178
					c-0.393,0-10.836-0.652-18.277,5.482l-0.392,1.045c0,0,4.978,2.889,8.878,2.871c0.755-0.003,0,0,0,0s-5.222,0.393-10.184-1.174
					c0,0-6.266,2.219-6.658,2.35c-0.391,0.131,3.655-6.266,18.277-11.749c0,0-4.309-0.262-18.668,8.747l-4.309-1.045
					c0,0,9.791-11.227,20.235-12.532c0,0-5.875-2.481-25.065,7.571c0,0,12.012-14.582,22.193-17.624
					c10.053-3.002,23.106-0.651,28.98,0.392c5.876,1.045,9.531,2.35,9.531,2.35l0.522,1.307
					C242.841,192.158,244.407,188.11,244.667,178.45z"/>
				<path fill="#83614D" d="M283.963,217.744c0.509-0.176-5.353,5.745-6.919,5.354c-6.288-1.572-11.487-4.961-11.487-4.961
					s9.268,5.875,10.442,6.266c0,0-13.968-6.005-15.665-8.094c0,0-0.522,0-1.176,1.436l-1.044,1.307c0,0-3.003-6.789-3.134-10.836
					c0,0,3.46,7.213,3.787,7.572c0,0,0-4.178,1.305-5.875c0,0-2.219,3.395-2.35,4.961c0,0,0-6.006,0.783-7.311
					c0,0-3.395-1.566-3.785-3.264c-0.393-1.697-0.131-2.48-0.131-2.48s-4.178-11.488,1.175-21.933c0,0-0.653,9.139,0.783,13.577
					c0,0,5.222-3.525,9.922-3.264c4.699,0.262,13.577-2.48,15.665-2.219c2.09,0.261,7.05,2.088,8.747,4.568
					c1.698,2.48,2.48,5.483,2.48,6.006c0,0.521-0.261,8.225-0.392,8.877s-0.175,4.004-0.175,4.004s-2.175-5.701-7.527-8.965
					c-5.354-3.264-0.522-0.261-0.522-0.261s4.961,6.005,4.047,13.185c0,0-1.827-8.094-9.139-10.705c0,0,7.05,6.528,7.964,11.881
					c0,0-1.697-1.306-4.569-0.914s-5.353,0.652-8.355-0.392c0,0,5.354,0.783,8.486-2.48c0,0-1.566-5.874-7.834-6.396
					c-6.266-0.522-11.748,0.652-13.837,5.222l0.914,1.175c0,0,3.264,2.48,8.877,2.089l-4.568,1.175
					C266.731,216.048,277.174,220.095,283.963,217.744z"/>
				<path fill="#83614D" d="M188.707,115.526c0,0-15.318,41.079,5.917,58.833c0,0-29.242,3.83-28.198,45.953
					c0,0,5.919,33.768,40.383,38.294c0,0-13.924-0.349-19.146-2.089c0,0-4.178,19.844,5.223,31.332c0,0-30.983-13.925-38.99-37.947
					c-8.007-24.02-10.793-42.123-10.445-43.167c0.35-1.044,2.089-75.196,13.229-77.632
					C167.819,126.666,188.707,115.526,188.707,115.526z"/>
				<path fill="#83614D" d="M259.377,122.141c0,0,28.893,8.703,28.546,55.004c0,0-6.614-5.57-10.792-7.311
					c0,0,13.402,7.658,16.102,27.154c2.697,19.495,0,0,0,0l0,0c0,0-1.132,11.488-1.132,15.666s0.695,8.703,0.695,8.703
					s-0.349,16.71-4.873,22.627c-4.525,5.918-16.014,15.318-16.014,15.318l8.355-4.525c0,0,3.132,14.621-0.001,24.369
					c0,0-5.918-8.008-9.399-10.792c0,0,3.828,4.177,4.178,16.362c0.349,12.184,0.695,16.361,0.695,16.361l8.53-12.359
					c0,0,5.744-23.846,8.528-37.074c2.786-13.229,2.786-15.666,2.786-16.71c0-1.045-0.87-11.489-0.87-11.489
					s-1.917-26.109-0.175-33.42C296.278,182.715,292.797,125.273,259.377,122.141z"/>
				<path fill="#83614D" d="M246.495,247.51c0,0,1.827,4.309,4.178,6.136C250.673,253.646,246.888,254.298,246.495,247.51z"/>
				<path fill="#83614D" d="M257.026,261.217c0,0,6.44-3.916,7.485-8.964c0,0,2.523,0.522,2.436,2.089
					C266.861,255.908,263.38,261.74,257.026,261.217"/>
				<path fill="#83614D" d="M205.417,178.189c0,0,22.628-5.919,30.983-2.09C236.4,176.1,227.001,167.049,205.417,178.189z"/>
				<path fill="#83614D" d="M139.902,232.236c-0.195-0.653-2.458-6.658-4.895-7.181s-13.447,5.091-12.271,14.1
					c0,0-0.361-4.155,3.395-7.572c0,0-3.786,6.397-1.959,10.183c1.149,2.381,2.742,4.309,10.314,5.875c0.127,0.026-0.131,0-0.131,0
					s-6.789-4.309-6.006-10.184c0.908-6.807,10.313-6.918,10.313-6.918L139.902,232.236z"/>
				<path fill="#83614D" d="M136.183,227.928c-0.471,0,0.783,4.568-0.652,6.267c-1.437,1.696-4.569,9.007-0.261,11.227
					c4.307,2.22,7.57,2.22,7.57,2.22s-4.829-3.003-4.177-7.18c0.652-4.178,1.306-7.311,1.306-7.311S138.793,227.928,136.183,227.928
					z"/>
				<path fill="#83614D" d="M146.757,245.812c0,0,0,3.786,1.827,6.789c1.828,3.002,2.481,7.18,2.481,7.18l-2.872-3.916
					c0,0-3.003,3.785-10.705,0.131c0,0,5.352,2.479,9.399-1.959C146.888,254.037,146.235,250.643,146.757,245.812z"/>
				<path fill="#83614D" d="M136.062,222.938c0,0-7.06-15.114-14.109-16.027c-7.051-0.914-10.444,6.656-9.139,14.099
					c1.306,7.44,5.091,18.407,5.091,18.016s0.262-16.188,11.751-22.585C129.656,216.439,132.146,216.932,136.062,222.938z"/>
				<path fill="#83614D" d="M118.428,227.797c0,0,0,16.971,9.139,21.279s7.441,6.658,6.267,6.658s-15.013-5.744-16.58-19.713
					C115.687,222.053,118.428,227.797,118.428,227.797z"/>
				<path fill="#83614D" d="M234.137,243.463c0,0-4.004,7.311,0,10.27c0,0-0.695,4.525-1.74,4.874
					c-1.044,0.349-2.438-1.566-2.438-1.566S229.263,247.988,234.137,243.463z"/>
				<path fill="#83614D" d="M269.994,349.468c0,0,3.916-0.783,5.482,8.878c1.567,9.66,3.134,23.498,1.567,26.631
					c-1.567,3.134-3.225,6.404-3.225,6.404L269.994,349.468"/>
				<path fill="#83614D" d="M151.457,262.262c0,0-1.566,6.789-6.006,8.616c0,0,2.351,91.384,2.873,97.649
					c0.521,6.267,10.704,21.932,10.704,21.932s-16.71-10.443-17.232-15.926c-0.522-5.483,1.828-27.676,1.828-27.676
					s0.169-70.515-4.178-83.551c-0.261-0.783,0,0,0,0L151.457,262.262"/>
				<path fill="#83614D" d="M262.857,336.586c0,0,4.873,32.726,4.526,38.295c-0.349,5.57-3.134,24.717-3.134,24.717l8.703-9.748
					c0,0-2.959-45.256-3.219-47.692c-0.262-2.438-1.654-12.532-1.654-12.532L262.857,336.586z"/>
				<path fill="#83614D" d="M161.379,293.071c0,0,14.621,63.707,16.709,73.106c2.09,9.398-6.266-51.697-7.311-56.396
					C169.733,305.082,161.379,293.071,161.379,293.071"/>
				<path fill="#83614D" d="M127.436,202.036c0.697,0.695,18.452,19.669,17.232,26.806c-1.219,7.137,0.348,10.792,2.089,13.055
					c1.74,2.263,6.267,9.226,6.267,9.226s-5.396-17.406-5.396-27.851C147.627,212.828,127.436,202.036,127.436,202.036"/>
				<path fill="#83614D" d="M294.603,217.614c0,0,3.067-5.939,4.765-6.136l0.456,0.131c0,0-0.374,1.745-2.349,3.721
					c-1.893,1.893-2.546,3.654-2.546,3.654L294.603,217.614z"/>
				<path fill="#5B493D" d="M135.333,131C120.016,147.71,126,201.557,126,201.557c20.757,7.05,21.889,27.023,21.889,27.023
					s0.783-40.295,19.233-56.657c0,0-8.007-27.851,8.704-48.737C175.826,123.186,139.325,126.645,135.333,131z"/>
				<path fill="#010101" d="M184.616,203.254c0,0,16.971-8.355,19.06-7.572c2.089,0.784,13.577,1.045,21.933,0.523
					c0,0,6.788-0.523,10.966,0.783c4.178,1.305,9.921,0.783,8.355-14.361c0,0,0.26,8.878-3.134,11.75c0,0,0.783-1.566-0.261-2.089
					c-1.045-0.522-22.429-3.642-28.721-4.178C200.542,187.066,191.491,197.858,184.616,203.254z"/>
				<path fill="#010101" d="M255.373,182.627c0,0-4.7,18.277,1.305,19.844c6.006,1.566,23.76-5.222,30.288-3.133
					c6.526,2.089,6.788,4.438,6.788,4.438s0.261-6.005-0.521-6.788c-0.784-0.783-5.223-6.006-8.617-6.527
					c-3.394-0.523-9.922,1.305-16.971,2.088c-7.05,0.783-10.967,2.089-10.705,5.744C256.939,198.293,254.328,199.86,255.373,182.627
					z"/>
				<path fill="#010101" d="M207.917,213.667c0,0-4.11-0.101-7.896-2.841c0,0,9.399-6.92,14.491-6.267
					c5.091,0.653,8.876,4.7,8.876,4.7s-0.391,1.958-0.782,2.35c0,0-2.232,1.333-5.104,1.725c0,0,6.409,0.364,8.629-2.508
					l1.697,0.783c0,0-4.308-7.441-10.183-8.616c-5.874-1.175-18.146,3.655-24.281,10.052c0,0,3.655-1.827,4.568-1.957
					C197.932,211.088,201.52,213.799,207.917,213.667z"/>
				<path fill="#010101" d="M277.566,215.265c0,0,3.133-0.261,4.83-2.22c0,0-3.134-6.135-9.792-6.266
					c-6.657-0.131-10.312,5.222-10.312,5.222s3.133,2.61,7.05,3.003c0,0-6.006-0.393-9.399-2.872l-0.653,1.696
					c0,0,0.914-5.744,6.92-7.702c6.005-1.958,15.404-0.392,19.712,7.05c0,0-1.696,0.652-2.22,0.914
					C283.18,214.351,282.135,215.917,277.566,215.265z"/>
				<path fill="#010101" d="M287.357,213.176c0,0-0.914-8.486-8.225-9.922s-17.754,1.176-21.149,8.617
					c0,0,3.784-10.325,16.449-10.444C288.271,201.296,287.357,213.176,287.357,213.176z"/>
				<path fill="#010101" d="M249.716,258.52c0.241,0.133-4.179-3.221-6.962-3.221c-2.786,0-5.744,1.741-6.614,3.395
					c0,0,1.13-0.957,1.652-0.783s3.308,1.828,6.267-0.957C244.059,256.953,246.061,256.518,249.716,258.52z"/>
				<path fill="#010101" d="M257.026,261.217c0,0,5.57-4.525,7.051-7.658c0,0-0.959,2.438-0.959,2.697c0,0,1.045,0.349,1.045,0.784
					c0,0.435,0.349,2.35-5.396,3.394L257.026,261.217z"/>
				<path fill="#010101" d="M232.266,245.29c0,0-3.394,9.53-1.175,12.272c2.22,2.74,4.831,3.916,7.572,3.916
					c0,0-4.7,1.175-8.747-3.786C229.916,257.692,227.827,254.43,232.266,245.29z"/>
				<path fill="#010101" d="M260.334,260.957c0,0,11.88-5.615,3.916-15.014c0,0,0.196,1.958-0.392,5.353
					c0,0,1.176-6.136-3.916-18.669c-2.046-5.034-2.741-6.657-2.741-6.657l1.957,3.655c0,0-0.13-4.438-0.26-4.961
					c-0.131-0.521-1.959-8.225-3.003-10.705c-1.045-2.48-1.567-7.702-1.175-9.66c0,0-0.131,5.744,1.696,9.268
					c1.827,3.525,3.786,10.053,3.786,11.489s0.262,7.311,0.262,7.311s3.524,9.53,3.655,12.401
					C264.12,244.768,275.085,254.82,260.334,260.957z"/>
				<path fill="#010101" d="M225.347,289.023c-0.524,0.124-2.211,0.161-3.395-0.391c-1.957-0.914-4.308-1.437-4.569,0.652
					c-0.261,2.089,4.178,2.35,5.744,1.697c1.567-0.652,10.96-1.161,13.97,0c7.44,2.872,13.315,2.872,19.06,0.652
					c5.744-2.219,6.527-1.827,7.702-1.566c1.176,0.262,5.092,0,6.528-1.175c1.436-1.175,2.218-3.524,1.695-3.655
					c-0.521-0.131-2.479,3.395-5.873,3.395c-3.396,0-6.006,0.131-9.14,1.305c-3.133,1.176-13.576,0.783-18.798-0.261
					S227.566,288.502,225.347,289.023z"/>
				<path fill="#010101" d="M224.824,289.808c0,0,15.405-9.269,19.843-7.312c4.439,1.959,5.223,3.395,8.747,1.828
					c3.525-1.566,7.441-3.916,14.753,4.178l-0.392,0.521c0,0-5.222-6.658-9.531-5.482c-4.308,1.175-4.83,4.047-8.877,2.089
					s-5.612-2.481-6.788-2.481c-1.175,0-11.097,3.525-15.404,6.659H224.824z"/>
				<path fill="#010101" d="M229.133,295.029c0,0,7.05,6.919,19.06,7.703c12.011,0.783,16.058-8.095,16.058-8.095
					s-2.48,7.571-9.66,8.616C247.409,304.299,239.576,305.082,229.133,295.029z"/>
				<path fill="#010101" d="M228.219,316.047c0,0,19.757-4.178,34.291-1.044C262.51,315.003,248.41,309.434,228.219,316.047z"/>
				<path fill="#010101" d="M245.887,304.211c0.606,0.052,11.662,0,12.969,0.262c1.305,0.261-2.873,8.268-8.705,8.877
					c-5.83,0.609-12.706-2.088-13.576-3.916C235.703,307.605,237.619,303.516,245.887,304.211z"/>
				<path fill="#010101" d="M147.279,226.927c0,0,8.355,57.093,14.97,69.277s17.873,27.376,21.584,30.983
					c12.531,12.185,33.769,20.888,44.56,21.932c10.793,1.045,33.42-6.963,37.946-13.576c4.526-6.615,19.148-38.99,22.629-61.968
					c0,0-5.223,14.274-12.532,18.8c0,0-8.355,21.584-16.014,29.242c0,0-13.841,8.707-31.333,1.74
					c-19.669-7.832-18.103-33.941-18.103-33.941s-29.33-4.439-53.002-31.593c0,0-5.563-15.988-9.66-28.851
					C147.853,227.494,147.71,228.361,147.279,226.927z"/>
				<path fill="#010101" d="M207.07,301.165c0,0,5.744-24.543,9.139-25.326c3.394-0.783,13.315-4.7,18.799-9.399
					c5.482-4.699,9.922-4.961,9.922-4.961l5.743,4.961l4.96-4.699c0,0,5.223,6.787,9.14,8.354c3.917,1.567,9.399,4.962,10.183,7.572
					c0.783,2.611,3.655,10.705,1.305,15.928c-2.35,5.222-7.658,16.885-7.658,16.885s3.48-13.491,2.176-24.196
					c0,0-7.571-6.788-16.449-8.354l-3.916,1.828l-4.439-2.09c0,0-13.054,1.307-20.887,6.789c0,0-5.744,2.35-6.006,4.699
					c-0.26,2.351-7.31,7.05-2.61,24.805C216.47,313.959,208.375,305.343,207.07,301.165z"/>
				<path fill="#010101" d="M283.571,288.894c0,0,8.146-33.407,9.921-40.731c2.09-8.615,0-24.194-1.044-28.721
					c-1.044-4.524,0.262-20.104,0.784-22.453c0,0-4.178-10.967-3.655-16.188c0,0,1.305,6.005,3.394,9.399
					c0,0,3.917-45.17-24.543-66.84c0,0,10.443,7.311,12.01,8.877c0,0,17.494,15.666,15.145,64.49c0,0-2.786,14.709-1.045,22.715
					c1.562,7.186,2.351,25.326,0.262,31.071c-2.089,5.743-5.744,26.893-8.878,33.159
					C282.788,289.938,283.571,288.894,283.571,288.894z"/>
				<path fill="#010101" d="M292.796,211.436c0,0,1.044-4.178,3.308-3.83c2.264,0.349,4.353,2.438,3.83,4.526
					c-0.521,2.089-4.266,4.873-5.657,10.879l0.436,0.435c0,0,1.646-5.156,3.829-7.832c2.697-3.309,3.307-5.483,0.87-7.746
					C296.974,205.604,293.754,205.865,292.796,211.436z"/>
				<path fill="#010101" d="M295.06,217.527c0,0,2.697-5.223,4.265-5.396C299.324,212.132,298.715,213.872,295.06,217.527z"/>
				<path fill="#010101" d="M140.875,214.875c-0.938-2.625-4.909-13.361-19.184-14.058c-7.475-0.364-18.973,10.618-11.488,29.243
					c5.483,13.645,12.186,22.976,17.232,26.805c8.924,6.77,14.1,8.877,21.236,7.311c0,0-2.786,2.611-5.745,2.611
					c0,0,8.878,0.696,9.399-4.699c-0.869-0.871-2.088-1.566-2.784-1.393c0,0-8.007,5.048-22.454-6.092
					c0,0-10.271-8.529-16.536-27.851c0,0-4.178-13.577,5.049-21.933C123.084,198.043,134.562,205,140.875,214.875z"/>
				<path fill="#010101" d="M118.385,239.634c0,0-14.512-24.704-2.262-33.421c9.05-6.439,18.103,13.229,18.103,13.229
					s-4.875-7.832-12.186-10.617C122.04,208.824,108.289,210.391,118.385,239.634z"/>
				<path fill="#010101" d="M139.621,226.753c-0.468-0.42,3.307,2.263,2.089,4.525c-1.219,2.263-2.814,7.937-2.264,9.443
					c0.413,1.131,6.092,8.833,5.744,9.355s-4.874,1.22-11.313-2.784c0,0,7.157,3.045,9.943,1.653c0,0-5.889-6.086-6.115-8.442
					c-0.217-2.264,1.566-7.832,1.566-7.832s-0.646-4.859-4.271-7.734c0,0,2.875,1,4.902,7.299
					C139.902,232.236,143.036,229.82,139.621,226.753z"/>
				<g>
					<path fill="#010101" d="M147.688,229.875c-0.01-0.216-1.524-22.355-22.465-27.507l-0.352-0.087l-0.042-0.36
						c-0.015-0.128-1.479-13.005-1.092-28.141c0.522-20.381,4.487-34.629,10.763-42.947l0.315,0.325
						c-14.022,18.588-9.472,65.691-8.988,70.285c15.143,3.894,20.16,16.035,21.802,22.859c0.313-4.168,0.993-10.644,2.446-17.759
						c2.279-11.16,6.982-26.21,16.46-34.796c-0.815-3.177-6.841-29.235,8.883-48.889l0.816,0.652
						c-16.354,20.439-8.689,47.991-8.61,48.267l0.091,0.316l-0.246,0.219c-9.42,8.354-14.1,23.33-16.367,34.422
						c-2.617,12.804-2.703,23.036-2.69,22.377L147.688,229.875z"/>
				</g>
				<path fill="#010101" d="M277.131,131.54c0,0-10.096-10.096-15.318-6.614c-5.222,3.48-18.102,4.178-21.583,1.045
					c-3.481-3.134-21.585-10.096-29.939-9.748c0,0,10.444,1.74,16.711,5.918c0,0-31.681-12.359-58.262,6.146
					c-0.943,0.656-1.611,1.638-2.313,2.557c0,0,1.219-2.438,2.263-3.133c0,0-5.917,2.088-10.617,9.225c0,0,1.219-3.48,1.915-3.829
					c0,0-7.834,5.919-9.052,9.399c0,0,4.003-6.963,4.526-7.137c0,0-6.615,4.352-8.008,7.484l1.915-4.177
					c0,0-4.353,3.481-5.222,5.569l1.914-4.873c0,0-4.873,6.788-5.223,8.529l1.567-5.57c0,0-3.307,4.874-3.828,5.57
					c-0.522,0.695-5.919,9.225-7.485,10.792c-1.566,1.566-7.137,27.851-2.438,43.864l-3.307-0.697c0,0-7.572-54.221,14.099-78.241
					c0,0,2.35-4.96,3.133-6.005s12.011-20.191,28.373-25.414c13.051-4.164,25.066-6.963,33.507-5.396
					C208.607,87.575,276.782,90.113,277.131,131.54z"/>
				<path fill="#010101" d="M138.228,263.132c0,0,4.071,31.15,4.442,67.015c0.146,14.02-0.273,28.759-1.723,42.641
					c-0.529,5.074,0.413,5.574,1.458,2.85c2.943-15.312,5.731-47.965-0.87-112.33L138.228,263.132z"/>
				<path fill="#010101" d="M270.517,323.357c0,0,2.386,46.362,3.303,68.023c0.222,1.689-0.952,2.081-0.75,1.158
					c-2.118-17.819-6.483-55.801-5.686-59.781C268.428,327.535,270.517,323.357,270.517,323.357z"/>
				<path fill="#010101" d="M122.312,223.562c0,0-4.972,11.371-2.534,17.289c2.437,5.919,6.439,9.4,11.836,11.488
					c0,0-8.356-2.088-12.186-10.443C115.601,233.541,122.312,223.562,122.312,223.562z"/>
				<path fill="#010101" d="M2.109,453.383c0,0,20.366-25.064,36.555-34.986c16.188-9.921,64.229-34.986,69.451-41.775
					c5.221-6.788,27.154-40.208,35.509-42.297c0,0-34.726,53.002,83.028,87.729l-0.522,1.044l-2.61,2.611
					c0,0-87.989-25.587-93.994-71.715c0,0-11.488,8.703-15.667,24.021c0,0-67.536,37.771-79.024,45.604
					C23.345,431.451,16.209,442.418,2.109,453.383z"/>
				<path fill="#010101" d="M268.775,345.639c0,0,16.537,32.723,1.219,46.648c-15.317,13.926-41.602,26.631-45.778,31.854
					c-4.178,5.223-10.097,13.578-10.097,13.578l0,0l12.533-11.663c0,0,8.703-3.917,17.755-10.53
					c9.937-7.262,32.028-20.801,35.161-32.114c4.394-15.868-6.268-33.595-6.268-33.595s17.059,13.924,19.147,20.191
					c2.089,6.266,2.552,15.158-0.948,24.825c0,0,8.955-17.515,0.252-30.048c-8.703-12.532-22.977-21.932-22.977-21.932V345.639z"/>
				<path fill="#010101" d="M436.225,434.411c0.516,1.144-24.718-35.858-42.123-39.687c-17.406-3.83-65.797-13.578-76.588-16.363
					c-10.792-2.785-25.762-13.576-25.762-13.576L287.227,362c0,0,10.097,6.614,22.977,10.096
					c12.879,3.48,43.167,9.748,51.871,11.837c8.703,2.089,27.851,5.918,32.725,7.311
					C399.672,392.635,425.085,409.693,436.225,434.411z"/>
				<path fill="#010101" d="M191.013,209.912c0,0,2.603-0.152,3.524-0.521c0.653-0.262,16.449-13.578,30.81-7.051
					C225.347,202.34,215.295,191.244,191.013,209.912z"/>
				<path fill="#010101" d="M258.768,202.34c0,0,5.744,1.306,9.399,0.783c3.655-0.521,12.01-0.261,12.01-0.261
					s-4.831-3.264-8.747-3.264S258.768,202.34,258.768,202.34z"/>
				<path fill="#83614D" d="M243.624,196.727c-0.262,0.783-3.916,17.232-2.872,20.627c1.717,5.58,5.221,16.71,5.221,18.016
					c0,1.305,0.784,4.438,0.784,4.438s-2.872-3.134-5.744-3.917s-8.355,6.267-8.355,6.267s4.439-11.488,5.483-12.794
					c0,0-1.306-11.488-1.044-13.838C237.357,213.176,243.624,196.727,243.624,196.727z"/>
				<path fill="#010101" d="M141.36,373.837c0,0-10.269-12.62-6.874-25.152c1.708-6.306,9.138-15.666,9.138-14.36
					s-1.828,40.209-1.828,40.209L141.36,373.837z"/>
				<g>
					<defs>
						<path id="SVGID_409_" d="M199.15,210.13c0,0,8.703-7.137,14.272-6.527c5.57,0.608,11.401,5.483,11.401,5.483l-1.131,2.785
							c0,0-13.489,5.221-24.587-1.176L199.15,210.13z"/>
					</defs>
					<clipPath id="SVGID_22_">
						<use xlink:href="#SVGID_409_"  overflow="visible"/>
					</clipPath>
					<g clip-path="url(#SVGID_22_)">
						<path fill="#010101" d="M218.744,208.642c-0.025,3.063-2.717,5.53-6.013,5.512c-3.298-0.021-5.948-2.52-5.923-5.583
							c0.026-3.064,2.717-5.531,6.013-5.512C216.118,203.078,218.769,205.577,218.744,208.642z"/>
						<g>
							<path fill="#734131" d="M212.14,212.438c-2.079-0.166-3.744-1.482-4.424-3.254c0.113,2.33,1.955,4.254,4.416,4.449
								c2.718,0.218,5.155-1.753,5.449-4.401C216.678,211.27,214.509,212.627,212.14,212.438z"/>
							<path fill="#734131" d="M212.267,211.624c-1.642-0.132-2.958-1.172-3.494-2.572c0.092,1.84,1.546,3.36,3.488,3.515
								c2.147,0.172,4.071-1.385,4.303-3.477C215.852,210.701,214.137,211.772,212.267,211.624z"/>
						</g>
					</g>
				</g>
				<g>
					<defs>
						<path id="SVGID_411_" d="M261.9,211.609c0,0,3.046-5.483,8.181-5.483s10.791,1.653,13.229,6.179c0,0-0.784,1.916-1.045,2.09
							C282.004,214.568,266.252,217.44,261.9,211.609z"/>
					</defs>
					<clipPath id="SVGID_24_">
						<use xlink:href="#SVGID_411_"  overflow="visible"/>
					</clipPath>
					<g clip-path="url(#SVGID_24_)">
						<path fill="#010101" d="M278.535,210.078c-0.025,3.062-2.719,5.53-6.013,5.512c-3.297-0.021-5.948-2.52-5.922-5.584
							c0.024-3.063,2.716-5.531,6.012-5.512C275.909,204.515,278.559,207.014,278.535,210.078z"/>
						<g>
							<path fill="#734131" d="M271.931,213.874c-2.079-0.166-3.746-1.481-4.424-3.255c0.114,2.329,1.955,4.254,4.415,4.45
								c2.719,0.218,5.156-1.754,5.449-4.401C276.469,212.705,274.301,214.063,271.931,213.874z"/>
							<path fill="#734131" d="M272.058,213.06c-1.642-0.131-2.96-1.172-3.494-2.572c0.092,1.841,1.546,3.36,3.488,3.517
								c2.147,0.171,4.071-1.386,4.303-3.479C275.643,212.137,273.928,213.209,272.058,213.06z"/>
						</g>
					</g>
				</g>
				<path fill="#FFFFFF" d="M275.999,209.627c-0.103,0-0.194,0.018-0.28,0.043c0-0.007,0.002-0.013,0.002-0.02
					c0-0.71-0.571-1.22-1.256-1.255c-0.287-0.015-0.565,0.048-0.803,0.216c-0.771,0.546-0.771,1.533,0,2.079
					c0.237,0.168,0.516,0.23,0.803,0.216c0.233-0.012,0.45-0.082,0.639-0.193c0.058,0.415,0.355,0.791,0.896,0.791
					C277.21,211.504,277.21,209.627,275.999,209.627z"/>
				<path fill="#FFFFFF" d="M216.452,206.331c-0.031-0.05-0.063-0.101-0.095-0.151c-0.304-0.48-0.959-0.604-1.396-0.236
					c0.001-0.027,0.012-0.051,0.012-0.078c0-0.983-1.235-1.503-1.931-0.801c-0.02,0.02-0.039,0.039-0.057,0.058
					c-0.405,0.408-0.405,1.078,0,1.485c0.018,0.02,0.037,0.039,0.057,0.058c0.47,0.476,1.18,0.384,1.596-0.024
					c0.003,0.314,0.159,0.627,0.449,0.809c0.049,0.033,0.101,0.064,0.15,0.096C215.986,208.018,216.926,207.08,216.452,206.331z"/>
				<path fill="#333333" d="M281.309,135.195c0,0,8.703,12.185,12.532,34.986C293.841,170.182,292.796,147.031,281.309,135.195z"/>
				<path fill="#35312F" d="M267.905,118.398c0.417,0.712-16.448-22.977-41.515-24.021c0,0,8.355,1.566,13.317,5.744
					c0,0-15.928-6.788-34.466-2.611c0,0,10.445-1.827,18.016,1.566c0,0-19.843-2.088-31.853,5.484c0,0,9.659-1.045,13.576,0
					c0,0-16.188,2.35-27.938,12.532c0,0,11.228-3.395,13.576-3.133c0,0-34.203,10.183-47.258,18.276c0,0,12.795-18.451,18.017-19.67
					c0,0-14.361,7.92-17.232,10.531c0,0,16.448-20.104,39.426-25.849c0,0-14.361,2.872-19.844,5.483
					c0,0,15.927-12.532,42.559-12.793c0,0-9.139,1.742-9.139,3.394c0,0.783,15.666-3.394,21.932-3.133
					C225.347,90.461,252.762,92.549,267.905,118.398z"/>
			</g>
		</g>
		<g>
			<path fill="#FFFFFF" d="M200.001,524.574c-15.623,0-28.334-12.711-28.334-28.334c0-15.622,12.711-28.332,28.334-28.332
				c15.622,0,28.332,12.71,28.332,28.332C228.333,511.863,215.623,524.574,200.001,524.574z"/>
			<path fill="#D3B76E" d="M200.001,469.908c14.543,0,26.332,11.789,26.332,26.332c0,14.545-11.789,26.334-26.332,26.334
				c-14.545,0-26.334-11.789-26.334-26.334C173.667,481.697,185.456,469.908,200.001,469.908 M200.001,465.908
				c-16.727,0-30.334,13.607-30.334,30.332c0,16.727,13.607,30.334,30.334,30.334c16.726,0,30.332-13.607,30.332-30.334
				C230.333,479.516,216.727,465.908,200.001,465.908L200.001,465.908z"/>
		</g>
		<g>
			<g>
				<path fill="#BE2032" d="M177.334,490.632c3.097-12.521,15.758-20.155,28.276-17.058c12.521,3.099,20.153,15.757,17.057,28.276
					c-3.099,12.52-15.757,20.156-28.277,17.058C181.871,515.811,174.233,503.151,177.334,490.632"/>
			</g>
			<path fill="#036A49" d="M205.076,494.013h4.268l-3.448,2.639L205.076,494.013z M217.731,491.158l-19.057,0.005l1.32-4.258
				l1.326,4.253h2.875l-4.201-13.49l-5.881,18.988l2.312,1.759l1.365-4.402h4.415l1.369,4.405l-3.577,2.721l-9.343-7.116l4.267-0.01
				l0.891-2.854h-13.546l15.423,11.738l-3.455,2.631l1.307-4.257l-2.322-1.77l-4.172,13.5l15.41-11.741l1.327,4.263l-3.469-2.624
				l-2.321,1.764l10.967,8.329l-4.182-13.481L217.731,491.158z"/>
		</g>
	</g>
</g>
</svg>
