<?xml version="1.0" encoding="utf-8"?>
<!-- Generator: Adobe Illustrator 16.0.0, SVG Export Plug-In . SVG Version: 6.00 Build 0)  -->
<!DOCTYPE svg PUBLIC "-//W3C//DTD SVG 1.1//EN" "http://www.w3.org/Graphics/SVG/1.1/DTD/svg11.dtd">
<svg version="1.1" xmlns="http://www.w3.org/2000/svg" xmlns:xlink="http://www.w3.org/1999/xlink" x="0px" y="0px" width="400px"
	 height="560px" viewBox="0 0 400 560" enable-background="new 0 0 400 560" xml:space="preserve">
<g id="Layer_1" display="none">
	<g display="inline">
		<g>
			<defs>
				<polygon id="SVGID_129_" points="-64,-159.385 -220,-89.26 -376,-159.385 -376,-434.322 -64,-434.322 				"/>
			</defs>
			<clipPath id="SVGID_2_">
				<use xlink:href="#SVGID_129_"  overflow="visible"/>
			</clipPath>
			<g clip-path="url(#SVGID_2_)">
			</g>
		</g>
		<g>
			<defs>
				<polygon id="SVGID_131_" points="-64,-159.387 -220,-89.27 -376,-159.387 -376,-507.66 -64,-507.66 -64,-245.93 				"/>
			</defs>
			<clipPath id="SVGID_4_">
				<use xlink:href="#SVGID_131_"  overflow="visible"/>
			</clipPath>
			<g clip-path="url(#SVGID_4_)">
				<path fill="#FFFFFF" d="M3.917-92.525c0,0-10.826-18.273-17.267-23.096c-6.441-4.818-20.213-13.984-22.6-19.352
					c-2.389-5.368-9.343-12.886-12.095-14.629c-2.754-1.743-31.269-8.189-32.545-12.057c-1.276-3.869-5.983-11.892-12.361-14.002
					c-6.376-2.111-9.941-5.358-11.614-6.074c-1.674-0.713-10.443-2.014-10.901-2.304c-0.459-0.29-6.481-6.476-7.561-7.505
					c-1.079-1.031-3.71-4.132-3.71-4.132l-0.5-1.944c0,0-24.82,46.381-49.308,55.697c0,0-14.881-6.107-23.44-11.331
					c-8.562-5.222-44.864-35.87-47.977-40.017c-3.111-4.146-14.055-21.061-14.055-21.061l-2.466-2.354
					c0,0-13.721,18.703-24.527,20.465c-10.805,1.762-29.837,12.455-37.89,15.959c-8.054,3.504-22.408,8.061-22.408,8.061
					s-41.749,18.459-48.03,20.416c-6.282,1.955-33.632,17.666-39.212,23.824c-5.58,6.156-51.715,81.367-49.739,88.553
					c1.979,7.185,188.058,52.816,216.969,52.135c28.908-0.68,233.538-37.443,246.789-37.754
					c13.249-0.313,44.17-17.916,42.279-21.486C17.856-50.084,3.917-92.525,3.917-92.525z"/>
			</g>
		</g>
	</g>
	<g display="inline">
		<rect fill="#A0272A" width="400" height="560"/>
		<g>
			<polygon fill="#F4FBFE" points="399.992,243.094 399.992,42.939 0.008,333.826 0.008,560 			"/>
		</g>
		<g>
			<rect x="55.404" y="31.167" fill="#D3B76E" width="289.191" height="48.5"/>
			<polygon fill="#D3B76E" points="68.398,72.855 29.744,72.855 38.111,55.417 29.744,37.979 81.064,37.979 81.064,50.012 
				55.404,50.012 			"/>
			<polygon fill="#D3B76E" points="331.602,72.855 370.256,72.855 361.889,55.417 370.256,37.979 318.936,37.979 318.936,50.012 
				344.596,50.012 			"/>
			<text transform="matrix(1 0 0 1 62.9365 65.5195)" fill="#A29054" font-family="'Novecentowide-DemiBold'" font-size="23">Andreas Christensen </text>
			<g>
				<text transform="matrix(1 0 0 1 61.9365 64.5195)" fill="#FFFFFF" font-family="'Novecentowide-DemiBold'" font-size="23">Andreas Christensen </text>
			</g>
			<rect x="49.207" y="37.979" fill="#A29054" width="6.197" height="34.877"/>
			<rect x="344.596" y="37.979" fill="#A29054" width="6.197" height="34.877"/>
		</g>
		<g>
			<polygon fill="#E0B928" points="39.5,423.526 39.5,141.178 360.5,141.178 360.5,423.526 200,495.674 			"/>
			<g>
				<path fill="#020202" d="M356,145.678v274.938L200,490.74L44,420.615V145.678H356 M365,136.678h-9H44h-9v9v274.938v5.822
					l5.31,2.387l156,70.125l3.69,1.658l3.689-1.658l156-70.125l5.311-2.387v-5.822V145.678V136.678L365,136.678z"/>
			</g>
		</g>
		<g>
			<path fill="#D4B86E" d="M365,136.678v9v274.938v5.801L200,500.24L35,426.404v-5.789V145.678v-9h9h312H365 M372,129.678h-7h-9H44
				h-9h-7v7v9v274.938v5.789v4.537l4.141,1.853l165,73.836l2.859,1.279l2.858-1.279l165-73.824l4.142-1.853v-4.537v-5.801V145.678
				v-9V129.678L372,129.678z"/>
		</g>
		<g>
			<defs>
				<polygon id="SVGID_201_" points="356,420.615 200,490.74 44,420.615 44,145.678 356,145.678 				"/>
			</defs>
			<clipPath id="SVGID_6_">
				<use xlink:href="#SVGID_201_"  overflow="visible"/>
			</clipPath>
			<path clip-path="url(#SVGID_6_)" fill="#C79C2D" d="M388.479,408.699c-2.99-5.139-7.071-10.053-12.564-13.064
				c-15.872-8.705-119.813-47.617-119.813-47.617s-10.753-6.146-16.896-6.146c-2.723,0-4.738-0.1-6.143-0.211v-13.17
				c4.383-1.27,8.285-3.215,9.728-6.203c5.376-11.137,21.248-73.092,21.504-78.979c0.258-5.889-0.768-30.977-0.255-33.281
				c0,0,1.504-2.074,2.702-5.191c0.554-1.068,0.985-2.365,1.122-3.934c0.28-1.488,0.414-3.072,0.271-4.701
				c-0.976-11.111-7.168-15.104-7.168-15.104s1.314-8.196-1.83-18.639c-0.862-8.559-3.801-16.545-6.747-25.652
				c-4.224-13.057-37.25-38.018-41.474-38.785s-15.361-8.064-15.361-8.064c-31.104-16.513-73.73,11.137-73.73,11.137
				c-14.593,2.688-29.186,25.729-29.569,26.881c-0.384,1.152-0.769,1.92-6.528,6.145c-5.761,4.225-9.217,18.049-9.217,18.049
				c-18.433,46.85,15.361,102.916,17.664,105.221c1.555,1.555,6.95,10.092,10.299,15.488c6.23,26.303,5.622,49.334,3.384,65.965
				c-0.001,0.002-0.003,0.004-0.003,0.006c-1.812,1.832-4.991,4.32-9.07,4.561c0,0-14.978-4.225-21.12,3.457
				c-3.806,4.754-7.753,8.477-10.212,10.623c-1.546,0.938-3.074,1.816-4.535,2.623c-10.338,2.885-56.802,16.059-78.57,25.922
				c-24.576,11.137-48.002,14.594-54.915,44.932c0,0,0.544-1.307,1.812-3.473c-8.952,17.166-17.884,37.986-17.173,45.459
				c1.025,10.752,16.897,78.852,16.897,78.852l495.637-30.723C426.604,521.08,410.123,441.834,388.479,408.699z"/>
		</g>
		<g>
			<defs>
				<polygon id="SVGID_203_" points="356,420.65 200,490.768 44,420.65 44,72.38 356,72.38 356,334.107 				"/>
			</defs>
			<clipPath id="SVGID_8_">
				<use xlink:href="#SVGID_203_"  overflow="visible"/>
			</clipPath>
			<g clip-path="url(#SVGID_8_)">
				<path fill="#CF202A" d="M461.102,521.08c0,0-24.064-115.717-52.227-125.957c-28.16-10.24-56.321-21.506-66.562-24.578
					c-10.241-3.07-59.906-23.041-59.906-23.041s18.944,25.604-11.776,47.619c-30.722,22.018-39.426,35.33-39.426,35.33
					s-29.186,7.68-70.66-19.457c-41.475-27.139-47.105-41.986-47.105-41.986l0.513-19.969c0,0-2.562,2.561-10.753,7.68
					c-8.192,5.119-16.386,8.703-16.386,8.703s-99.844,27.65-110.085,43.014c-10.24,15.359-29.185,53.76-28.161,64.514
					c1.025,10.752,16.897,78.852,16.897,78.852L461.102,521.08z"/>
				<path fill="#901C1E" d="M293.031,398.322c0,0,8.449-6.527,9.216-15.744c0.769-9.217,1.152-23.424-6.528-29.186
					c0,0,6.528,23.426-8.064,38.018l0.385,4.225c0,0,4.992,8.064,14.208,9.6c9.217,1.537,36.866,0.385,58.755,29.57
					c0,0-12.288-27.65-54.146-31.873C306.855,402.932,299.942,405.234,293.031,398.322z"/>
				<path fill="#901C1E" d="M240.037,451.318c0,0,29.186-14.594,38.401-16.129c9.216-1.537,7.681-6.529,7.681-6.529
					s-24.194,4.992-34.946,10.752C240.42,445.174,240.037,451.318,240.037,451.318z"/>
				<path fill="#901C1E" d="M76.828,408.307c0,0,22.274-10.369,29.954-7.68c7.681,2.689,53.379,16.514,53.379,39.553
					c0,1.537-64.898-36.863-94.469-24.576c-29.567,12.289-49.922,50.691-49.922,50.691s14.208-56.451,97.157-75.652
					C112.928,390.643,89.886,399.092,76.828,408.307z"/>
				<path fill="#901C1E" d="M93.727,363.762c1.151,0,4.992-1.152,4.992-1.152s-3.456,13.824,0,21.889c0,0-9.217-19.969-7.681-20.354
					C92.574,363.762,93.727,363.762,93.727,363.762z"/>
				<path fill="#FFFFFF" d="M326.179,370.768l-22.638,5.066c0,0,20.357,6.369,22.729,6.895c2.372,0.523,22.757-3.92,22.757-3.92
					L326.179,370.768z"/>
				<path fill="#FFFFFF" d="M365.884,383.998l-19.753,4.422c0,0,17.763,5.557,19.831,6.016c2.069,0.459,19.859-3.42,19.859-3.42
					L365.884,383.998z"/>
				<path fill="#FFFFFF" d="M403.084,399.809l-16.151,3.613c0,0,14.524,4.545,16.216,4.92c1.691,0.373,16.236-2.799,16.236-2.799
					L403.084,399.809z"/>
				<path fill="#FFFFFF" d="M60.701,374.643l12.288,2.049c0,0-17.665,7.168-20.48,8.703s-19.2-0.766-19.2-0.766L60.701,374.643z"/>
				<path fill="#FFFFFF" d="M13.851,391.281L-9.19,403.316c0,0,13.313-2.307,15.873-1.793c2.561,0.512,23.554-8.959,23.554-8.959
					L13.851,391.281z"/>
				<path fill="#FFFFFF" d="M103.199,356.721c0,0-4.609,18.049,13.824,32.258c18.433,14.207,62.709,35.979,68.098,49.154
					c8.066,19.713,28.035,28.162,43.012,19.969c21.941-12.004,9.216-23.553,30.209-38.402c13.125-9.283,43.01-34.305,34.306-67.074
					c0,0-9.729-9.729-19.457-7.68c-9.729,2.047,0,0,0,0s6.656,10.24,4.607,18.432c-2.048,8.193-21.504,50.691-61.441,62.979
					c0,0-53.251-19.969-71.172-35.328c-17.921-15.361-27.65-38.402-28.161-40.451C116.512,348.529,103.199,356.721,103.199,356.721z
					"/>
				<path fill="#FCC9B0" d="M216.996,428.275c0,0,62.85-29.824,59.778-72.322c0,0-3.328-8.193-6.912-9.729
					c-3.585-1.537-3.585-3.072-3.585-3.072l-0.256-16.129c0,0,8.448,0,9.217-5.633c0.768-5.631,10.241-23.553,14.594-44.033
					c4.353-20.482,8.448-34.051,8.448-34.051s-1.023-22.785-0.769-23.553c0.256-0.768-0.769-9.727,0.512-11.008
					c1.28-1.279,6.913-5.377,3.072-15.104c-3.84-9.73-7.168-13.057-7.168-13.057s2.304-17.922-4.352-28.674
					c-6.658-10.754-11.778-19.97-11.778-19.97s-54.786-16.896-66.818-13.056s-89.347,37.633-92.163,50.689
					c-2.817,13.057-9.217,16.129-7.682,34.562c1.537,18.432,7.936,35.328,12.033,41.217c4.096,5.889,16.896,21.762,17.153,25.09
					c0.255,3.326,6.655,26.369,4.607,47.873c-2.049,21.506-0.512,17.154-1.536,19.459c-1.023,2.303-6.4,6.91-14.848,7.936
					c-8.449,1.023-9.218,9.984-8.449,10.752s4.865,25.857,33.026,42.498C153.122,398.963,205.092,426.611,216.996,428.275z"/>
				<path fill="#FFFFFF" d="M214.309,207.85c0,0,10.56-7.104,16.032-6.336c5.472,0.768,4.032,2.592,4.896,4.322
					c0.864,1.727,0.384,3.742,0.384,3.742S224.195,215.625,214.309,207.85z"/>
				<path fill="#FFFFFF" d="M271.91,210.059c0,0,10.08-5.568,14.594-3.264c4.511,2.303,4.224,4.607,4.224,4.607l-1.633,3.264
					c0,0-10.272,3.457-17.664-4.031C271.431,210.443,271.91,210.059,271.91,210.059z"/>
				<path fill="#CE917D" d="M193.571,206.123c0,0,20.353-7.682,28.607-7.873c0,0-15.936,9.023-16.703,9.984
					c0,0,9.023,4.801,20.544,3.84c0,0-9.023-1.346-9.984-2.881c-0.959-1.533-0.959-1.344-0.959-1.344s9.792-6.143,12.864-6.336
					c3.072-0.191,5.567,1.535,5.567,1.535l3.201,6.211c0,0-4.113,2.096-7.377,2.287c0,0,5.904,0.336,6.48,0.336
					c0,0,8.063-0.191,9.601-0.191c0,0-4.608-4.609-4.993-5.762c-0.191-0.574,6.337,0.961,7.104,0.961c0.77,0,8.45-3.457,8.641-4.033
					c0.192-0.576,0.552-15.508-11.52-17.473C228.133,182.697,203.172,192.105,193.571,206.123z"/>
				<path fill="#CE917D" d="M266.534,209.002c0,0,4.737-11.648,12.801-14.08c0,0,8.576-8.32,14.466-6.016
					c5.888,2.305,7.935,6.016,7.551,8.959s-2.048,9.217-2.048,9.217s-1.92-2.305-4.992-3.457c0,0,2.815,5.762,2.815,7.682
					c0,0-4.352,4.736-5.505,4.865c0,0-4.735,4.158-10.399,2.24c0,0,3.744,2.398,5.184,3.166c1.441,0.768,0.769,0.482,0.769,0.482
					s-8.353-2.4-14.209-7.201c0,0,4.705,1.92,10.849,1.344c0,0-3.313-0.797-3.553-1.152c-0.191-0.287,4.705,1.057,6.818,0.289
					c2.11-0.77,2.015-1.635,2.015-1.635l1.152-4.414c0,0-4.417-5.473-14.688-1.248l-4.128,2.592c0,0,3.456,3.457,5.664,3.648
					c0,0-5.761-0.768-8.16-3.457c0,0,5.76-6.432,17.088-5.76c0,0-12.576-2.785-18.528,6.049c0,0,0.096,5.088,0.959,7.199
					c0,0-4.031-4.896-2.591-13.92C265.862,204.395,265.959,208.17,266.534,209.002z"/>
				<path fill="#CE917D" d="M244.453,244.141c0,0-0.768,5.951,1.535,7.486c0,0,12.098-7.871,16.13-5.373
					c4.032,2.494,6.335,3.455,6.335,3.455s6.337-1.729,6.528-5.186c0.192-3.455-1.919-14.016-5.759-20.545
					c0,0,10.176,14.592,8.448,19.393c-1.729,4.801-1.921,5.568-1.921,5.568s1.152,2.305-0.191,4.225
					c-1.345,1.92-4.16,3.904-5.824,4.352c-1.665,0.449-4.161-0.127-4.161-0.127s-2.879-1.729-5.184-1.537
					c-2.304,0.193-6.337,3.648-12.673,1.344C241.381,254.893,242.149,250.859,244.453,244.141z"/>
				<path fill="#CE917D" d="M229.283,288.494c0,0-0.384-10.367,4.801-10.945c2.864-0.318,7.489,0.385,7.489,0.385
					s8.353-6.816,13.633-6.816c0,0,1.44,0.096,3.168,0.961c1.727,0.863,2.88,0.863,4.031,0.576c1.151-0.289,3.84-0.961,4.225-0.865
					c0.384,0.096,4.032,0.191,5.952,4.992l1.057,2.594c0,0,3.264,0.189,4.128,1.15s1.152,3.648,1.056,5.664
					c0,0-0.575,0.096-1.633-0.768c-1.055-0.863-2.399-5.088-5.472-5.857c-3.072-0.768-8.641-1.727-8.641-1.727
					s-13.535,0.576-14.976,0.768s-5.666,1.344-5.666,1.344l0.481,0.48C242.917,280.43,234.181,281.676,229.283,288.494z"/>
				<path fill="#CE917D" d="M246.086,284.654c0,0,6.143,4.031,10.271,4.703c4.129,0.674,13.44-0.576,15.553-3.936
					c0,0-3.265,4.32-3.841,4.705c0,0-0.671,3.648-1.632,5.951c0,0,3.554,1.344,5.856,2.881c0,0-15.842-4.994-38.977,0.768
					c0,0,13.631-4.705,17.088-4.512c0,0-3.744-2.785-6.24-6.529c0,0,2.688,1.248,6.145,0.096
					C250.31,288.781,247.621,286.67,246.086,284.654z"/>
				<path fill="#CE917D" d="M280.229,292.719c0,0,2.24-13.441,0.13-15.361c-1.916-1.74-6.913,1.922-7.297,1.664
					c-0.385-0.256-0.641,0.768-0.641,0.768S278.567,284.141,280.229,292.719z"/>
				<path fill="#CE917D" d="M261.414,231.531c0.511,1.023,3.073,8.705,1.536,9.217c-1.536,0.512-11.009,0.256-14.08,3.326
					c0,0,7.423-6.4,9.983-7.936S261.414,231.531,261.414,231.531z"/>
				<path fill="#CE917D" d="M255.27,200.043c0,0,3.839,9.984,5.12,15.617c1.28,5.631,2.049,8.703,2.049,8.703l-7.169-15.104
					c0,0-4.352,8.703-12.801,9.215c0,0,7.681-4.863,6.912-12.031L255.27,200.043z"/>
				<path fill="#CE917D" d="M270.631,136.039c0,0,17.409,11.266,17.666,37.891l-8.706-0.257c0,0,10.495,1.536,18.433,12.544
					c7.937,11.008-2.56-5.119-2.56-5.119s-3.842-40.193-20.482-48.643C258.342,124.006,270.631,136.039,270.631,136.039z"/>
				<path fill="#CE917D" d="M157.089,257.389c0,0,4.096,28.801,15.36,41.09c11.266,12.287,46.979,38.273,48.515,45.953
					c1.535,7.682-0.512,18.945-0.512,18.945s-9.654-8.74-10.368-9.217c4.225,6.145,9.216,26.498,9.216,26.498
					s16.13-12.287,39.042-51.074c0,0-24.578-1.537-49.667-12.289s-25.744-14.096-30.464-18.816
					C173.602,293.869,160.161,279.406,157.089,257.389z"/>
				<path fill="#CE917D" d="M164.001,285.037c0.774,1.148,18.268,22.764,59.011,29.441c0,0,35.658-3.574,45.314,0.258
					c7.14,2.832,12.801-9.346,12.801-9.346s-0.646,18.092-15.617,19.33c-14.969,1.236-23.05-0.258-24.59-1.018
					c-1.542-0.76-29.234,4.744-48.886-6.664C172.385,305.633,164.001,285.037,164.001,285.037z"/>
				<path fill="#CE917D" d="M256.294,187.242c-0.334-1.002,1.792,11.008-3.585,13.566l2.561,3.586
					C255.27,204.395,261.414,202.602,256.294,187.242z"/>
				<path fill="#CE917D" d="M135.456,209.26c0.193-0.576-6.017-7.746-12.544-5.248c-6.528,2.494-13.248,17.855,5.567,38.785
					c0,0-10.561-9.795-8.256-27.074c0,0,1.919-4.416,9.216-1.537c0.246,0.098,0,0,0,0s3.904-4.223,4.865-4.031
					C135.265,210.346,135.456,209.26,135.456,209.26z"/>
				<path fill="#CE917D" d="M126.111,230.508c0,0,7.81-13.697,10.881-12.674c3.072,1.025,3.969,7.936,3.841,10.625
					c-0.128,2.688,1.279,4.738,2.56,6.4c1.281,1.664,1.919,5.248,1.919,5.248s-4.479,6.146-11.774-0.639
					c0,0,5.758,4.094,7.807,0.512c0,0-8.832-5.633-4.607-14.211c0,0-9.601,4.225-4.096,12.801c0,0-4.994-3.455-2.049-10.752
					C130.592,227.818,127.393,227.949,126.111,230.508z"/>
				<path fill="#CE917D" d="M274.981,268.141c-0.374-0.729,7.318,8.641,6.527,11.137s-2.176,4.223-2.176,4.223
					S278.146,274.285,274.981,268.141z"/>
				<path fill="#CE917D" d="M198.562,189.418c0,0,11.905-11.904,28.802-12.289C227.364,177.129,208.162,170.984,198.562,189.418z"/>
				<path fill="#CE917D" d="M283.432,147.943c0,0-8.45-8.064-14.594-3.455c-6.144,4.607-21.121,12.672-38.402,6.912
					c0,0,16.513,0.383,16.13-7.297c-0.384-7.681-8.833-9.601-8.833-9.601s-25.729-0.768-23.809,6.528
					c1.92,7.297,3.457,9.6,3.457,9.6s-5.761-3.455-8.066-6.527c0,0-1.152,6.145-1.152,7.297c0,1.151-5.375-3.841-5.375-3.841
					s-2.305,9.601-11.904,12.288c0,0,4.251-9.6,1.535-9.6c-1.151,0-12.287,11.135-6.912,24.576c0,0-5.375-5.375-5.76-6.527
					c-0.383-1.152-6.529,7.296-3.072,9.984c3.457,2.688,2.689,3.84,1.537,4.992c-1.153,1.152-6.913,4.992-6.527,8.447
					c0.382,3.457,2.686,2.689,0,6.914c-2.689,4.223-7.938,13.951-6.019,22.4c1.921,8.447,30.339,17.023,27.649,34.305
					c-2.688,17.281-7.424,39.938,4.096,55.299c0,0-29.695-4.096-38.4-37.891c-5.856-22.732-5.378-28.801-6.529-31.105
					c-1.151-2.303,6.913-6.527,2.688-23.039c-4.224-16.514-5.761-20.738-4.609-26.883c1.153-6.145,8.45-27.648,10.369-30.721
					c1.921-3.071,14.594-20.353,16.513-20.353c1.922,0,16.897-23.425,31.105-23.425c14.209,0,38.019,3.455,41.858,5.76
					s13.056,6.145,14.592,8.832c1.537,2.688,3.841-7.68,8.449-3.84S283.432,147.943,283.432,147.943z"/>
				<path fill="#CE917D" d="M161.058,259.438c0.255,1.023,1.535,10.24-8.961,15.104c0,0,3.329-2.559,3.84-6.398
					c0,0-4.097,4.605-7.68,6.398c0,0,22.017,39.684-9.217,97.029c0,0,1.536,13.824,3.584,17.408
					c2.05,3.586-18.944-12.287-21.506-26.625c-2.558-14.336,0-16.385,0-16.385s20.483,2.305,24.324-13.568
					c0,0,2.814-54.531-9.218-73.73l-1.537-4.609c0,0,15.617,2.814,22.273-3.072C163.617,245.1,161.058,259.438,161.058,259.438z"/>
				<path fill="#CE917D" d="M258.854,326.129c0,0,8.832,46.85,6.527,52.609c-2.304,5.76-8.063,20.354-8.063,20.354
					s26.497-31.105,21.121-43.395s-8.063-11.904-8.063-11.904l-4.098-0.641l-0.256-16.129L258.854,326.129z"/>
				<path fill="#CE917D" d="M124.832,196.713c0,0,21.12,5.377,21.504,18.818c0.385,13.439,3.84,17.281,3.84,17.281
					s1.921,1.92,3.841,11.52c1.92,9.602,6.145-8.832,6.145-8.832s-4.607-19.969-9.602-28.803
					C145.568,197.865,130.592,195.562,124.832,196.713"/>
				<path fill="#010101" d="M199.16,201.814c0,0,11.602-2.812,13.781-3.393c0,0-6.728,1.256-8.009,1.377
					c0,0,10.766-2.498,12.687-2.359l-5.888-0.033c0,0,7.812-0.596,9.217-0.203l-3.453-0.531c0,0,6.018-0.223,9.347-0.33
					c3.33-0.109-1.532-0.65-1.532-0.65s6.66-0.191,7.17-0.215c7.427-0.34,8.329-1.486,12.552-1.334
					c4.12,0.146,7.14-2.514,4.504-3.943c-5.488-2.975-13.042-2.506-17.145-1.377c-0.523,0.143-6.25,1.754-6.25,1.754l6.771-3.16
					l-11.095,3.615l5.682-2.943l-18.315,7.383l4.228-0.615l-10.256,2.629l7.048-1.24l-8.332,2l6.918-0.982l-8.846,2.381l5.766-1.119
					l-6.156,2.143l3.587-0.494L199.16,201.814z"/>
				<path fill="#010101" d="M300.968,195.818c0,0-0.768-3.713-4.095-5.504c0,0,1.918,1.406,2.815,4.352c0,0-1.664-4.225-9.729-3.584
					c0,0,3.199-0.641,4.864-0.641c0,0-7.169-0.768-12.545,3.455c0,0,3.072-2.43,3.84-2.814c0,0-6.017,2.561-5.633,4.096
					s5.12,3.969,8.833,4.607c0,0-2.944-0.639-4.863-2.559c0,0,6.399,1.664,9.472,3.199c3.072,1.537,4.737,3.713,4.864,4.736
					c0,0-0.511-2.688-3.072-4.479c0,0,3.969,2.047,4.48,5.629C300.2,206.312,302.377,199.914,300.968,195.818z"/>
				<path fill="#010101" d="M237.093,210.922c-0.36,0.133-0.384-1.662-0.384-1.662c-2.561,2.303-5.6,1.951-5.6,1.951
					c3.198-0.768,4.063-2.721,4.063-2.721c-0.128-2.686-3.841-6.271-3.841-6.271c-6.271-1.281-16.256,5.631-16.256,5.631
					c2.112,3.168,9.072,3.842,9.072,3.842c-6.193,0.238-10.225-2.816-10.225-2.816c-0.384-0.129-3.072,0.254-3.072,0.254
					c8.064-7.807,20.097-8.32,20.097-8.32s4.865,3.33,7.297,7.682c0,0,2.816,1.535,3.072,2.176
					C241.317,210.666,239.909,209.898,237.093,210.922z"/>
				<path fill="#010101" d="M206.756,207.723l2.688,0.256c0,0,14.336-8.576,21.248-7.936c0,0,3.456-0.385,7.425,3.84
					c0,0-3.073-4.482-6.272-5.121C226.602,197.713,210.085,205.93,206.756,207.723z"/>
				<path fill="#010101" d="M283.432,215.402c0,0,2.686,0.256,4.479-0.896c0,0,1.536-1.471,1.728-4.543c0,0-3.601-3.34-8-2.881
					c-6.143,0.641-9.601,3.969-9.601,3.969s2.176,2.176,4.353,3.072c0,0-4.673-1.215-5.824-3.842c0,0,6.208-5.887,16.191-4.352
					c0,0,1.025-0.383,0.896-1.279c0,0-4.031-2.111-15.104,1.154c0,0,6.018-4.162,13.889-3.266c5.27,0.598,8.257,7.742,8.257,7.742
					s-1.536,2.561-3.84,3.33l-1.025,2.176c0,0-1.664,2.943-9.471,1.279c0,0,6.016,0.961,8.769-1.217l-0.577-0.318
					C288.551,215.531,285.927,216.172,283.432,215.402z"/>
				<path fill="#010101" d="M260.198,253.262c0,0-3.841,4.127-6.146,2.879c-2.303-1.248,0.385-4.129,1.922-4.703
					c1.534-0.578,7.774-0.865,9.792,2.014C265.767,253.451,263.173,252.109,260.198,253.262z"/>
				<path fill="#010101" d="M244.357,245.869c0,0-2.688,7.199,0.479,9.6s6.432,1.727,6.432,1.727s-2.688,1.25-6.336-0.287
					C240.144,254.893,244.357,245.869,244.357,245.869z"/>
				<path fill="#010101" d="M240.037,279.406c0,0,11.392-9.346,16-8.449s4.256,1.984,9.729,0.514c0,0,6.271-1.281,7.808,8.318
					l-0.512-0.127c0,0-1.632-8.832-7.104-7.441c-3.917,0.996-5.233,1.201-9.984-0.672c0,0-5.568-0.143-13.891,7.473L240.037,279.406
					z"/>
				<path fill="#010101" d="M245.04,282.637c0,0,8.887,5.479,17.167,4.982c6.797-0.405,9.678-3.559,9.793-4.269
					c0,0-0.23,3.964-6.799,4.879C258.636,289.146,249.765,287.01,245.04,282.637z"/>
				<path fill="#010101" d="M273.574,279.789c0,0,3.072,0.512,3.585,1.41c0.512,0.895,0.283,4.447-0.257,3.199
					c-1.022-2.367-3.264-6.082-15.745-4.799c-6.378,0.652-13.056-1.41-19.138,0.574c0,0-1.854,0.064-2.302,0
					c-1.134-0.162-3.714-0.064-7.681,3.199c-0.313,0.258,1.087-4.863,8.704-4.16C243.802,279.496,256.165,274.67,273.574,279.789z"
					/>
				<path fill="#010101" d="M278.311,139.111c0,0,15.874,16.896,14.849,40.961l-5.12-3.072c0,0,11.776,7.553,12.8,17.922
					c0.586,5.91-2.304,11.008-3.329,13.312c-1.023,2.303-1.533,7.168-1.278,11.264c0.255,4.098,0.921,19.053-0.768,27.395
					c-1.438,7.094-7.913,33.398-12.801,50.947c-2.079,7.467-3.872,13.348-4.865,15.486c-2.853,6.148-5.887,9.09-12.288,10.625
					c-6.401,1.537-59.65-3.584-91.908-27.393c0,0-6.528-6.4-8.832-9.986c0,0,10.881,17.666,23.937,25.602
					c13.058,7.938,38.146,20.994,40.707,33.795l6.656-0.512c0,0,9.983-12.801,14.591-14.594c0,0,22.648-0.338,26.627-8.576
					c5.376-11.137,21.248-73.092,21.504-78.979c0.258-5.889-0.768-30.977-0.255-33.281c0,0,4.734-6.529,4.096-13.826
					c-0.976-11.111-7.168-15.104-7.168-15.104S299.304,157.288,278.311,139.111z"/>
				<path fill="#010101" d="M136.736,200.17c0,0-8.877-4.82-14.785-4.031c-5.76,0.768-13.824,7.68-10.369,20.543
					c3.457,12.865,9.986,27.074,12.098,30.146s8.064,6.912,15.168,9.408c0,0,7.104,5.568,12.481,3.842c0,0-4.993,1.535-7.68,0.766
					c0,0,7.296,2.689,12.479-1.535l-2.303-6.336c0,0-9.217,3.84-17.281,0.385c-8.065-3.457-9.601-6.145-11.905-9.217
					s-10.561-23.234-11.328-28.227c-0.769-4.992-0.931-16.492,9.023-18.049C128.479,196.906,136.736,200.17,136.736,200.17z"/>
				<path fill="#010101" d="M135.969,208.234c-0.193-0.574-7.489-7.68-14.594-4.992c-4.744,1.795-9.215,10.369-2.112,25.729
					c0,0-2.879-7.104-1.535-14.592c0,0,5.76-9.217,15.169-4.416c0,0-2.688,1.92-3.457,4.223c0,0,3.648-4.031,7.489-2.688
					L135.969,208.234z"/>
				<path fill="#010101" d="M129.055,225.322c0,0,6.721-9.791,8.834-8.062c2.112,1.727,3.648,4.607,3.648,9.023
					s2.495,8.064,4.031,10.369c1.537,2.303,1.343,9.217-9.793,4.99c0,0,8.066,2.113,8.834-0.383c0.767-2.496,0.575-3.84-0.96-5.568
					c-1.537-1.729-4.609-0.959-4.034-11.137c0,0,0.578-4.416-2.11-5.76C137.505,218.795,134.239,219.18,129.055,225.322z"/>
				<path fill="#010101" d="M270.95,226.283c0,0,7.488,13.824,6.08,18.434c-1.336,4.373-4.864,7.168-4.864,7.168
					s5.505-3.072,6.465-6.209C280.499,239.572,270.95,226.283,270.95,226.283z"/>
				<path fill="#010101" d="M137.889,254.316c0,0,22.656,62.594-1.92,112.133c0,0,19.585-49.922-2.688-112.9l3.265-0.191l5.184,24
					c0,0-10.753-17.666-13.058-19.969c-2.303-2.305-36.097-58.371-17.664-105.221c0,0,3.456-13.824,9.217-18.049
					c5.76-4.225,6.145-4.992,6.528-6.145c0.384-1.151,14.977-24.193,29.569-26.881c0,0,42.626-27.649,73.73-11.137
					c0,0,11.138,7.297,15.361,8.064s37.25,25.729,41.474,38.785c4.225,13.057,8.447,23.811,6.529,37.25
					c0,0-4.993-30.081-15.618-34.689c-10.622-4.607-13.952,11.648-27.393,10.113c-13.44-1.537-24.961-8.833-24.961-8.833
					s17.28,9.601,22.657,4.224c5.376-5.376-1.153-11.136-1.153-11.136s-35.712-5.761-35.712,4.608c0,0-1.025,3.84,2.815,7.68
					c0,0-5.633-1.793-5.89-9.473c0,0-2.815,7.169-0.767,12.289c0,0-3.072-5.377-3.072-8.961c0,0,0,16.641-16.896,15.617
					c0,0,8.193,1.279,7.425-13.057c0,0-18.179,9.473-7.938,27.905c0,0-7.936-4.352-6.144-18.688c0,0-2.56,13.824-9.217,19.201
					c0,0-6.144,6.656,5.632,9.984c0,0-4.608,2.816-6.655,2.303c0,0-3.072,5.121-3.841,6.145c0,0,0.257,4.098,3.841,5.377
					c0,0-4.608,0.77-8.449-1.279c0,0,1.757,1.611,2.561,2.814c0.512,0.77,0.255,5.889,0.255,5.889s-7.936-1.791-9.471-3.582
					c0,0,4.863,5.887,7.167,6.91c0,0-6.913,10.752-7.424,18.178c0,0-6.655-22.018-22.272-24.834c0,0-19.201-5.633-19.714,7.168
					c-0.603,15.092,3.072,23.299,5.12,27.393c2.049,4.098,13.314,18.18,13.314,18.18L137.889,254.316z"/>
				<path fill="#010101" d="M283.686,197.225c0,0-11.775,1.025-16.384,11.904c0,0,3.457-10.879,14.722-13.824L283.686,197.225z"/>
				<path fill="#010101" d="M268.069,256.623c0,0,0.706-1.348,4.929-2.756c0,0,0.576,1.539-3.264,3.648
					C269.734,257.516,268.326,257.262,268.069,256.623z"/>
				<path fill="#010101" d="M276.262,248.301c0,0-0.766,4.543-2.559,6.463c-1.792,1.92-4.032,3.264-4.032,3.264
					s4.736-1.982,5.632-3.902c0.895-1.92,1.856-6.979,1.856-6.979L276.262,248.301z"/>
				<path fill="#010101" d="M267.56,376.689c0,0-5.635-49.154-4.099-49.154s4.099-1.537,4.099-1.537V376.689z"/>
				<path fill="#010101" d="M430.381,428.916c0,0-4.096-24.578-19.969-33.281c-15.872-8.705-119.813-47.617-119.813-47.617
					s-10.753-6.146-16.896-6.146s-8.705-0.51-8.705-0.51v4.352c0,0,14.594,4.607,11.138,18.049
					c-3.457,13.439-18.434,46.082-59.522,61.826c0,0-56.067-16.129-87.558-51.074c0,0-12.287-18.434-2.303-26.881
					c0,0,9.601,1.92,17.28-10.752c0,0-4.224,6.143-10.752,6.527c0,0-14.978-4.225-21.12,3.457
					c-6.146,7.68-12.674,12.672-12.674,12.672s-56.066,15.361-80.644,26.496c-24.576,11.137-48.002,14.594-54.915,44.932
					c0,0,11.904-28.803,56.451-41.859c0,0,77.956-25.729,79.876-26.496c0,0,1.92,12.289,11.136,21.889c0,0-9.984-15.744-7.68-22.658
					c0,0,6.912-10.752,9.217-10.752c0,0,15.743,54.916,104.068,77.188c0,0,51.073-19.969,62.211-64.898
					c0,0,1.152-11.904-3.842-17.281c0,0,10.754,3.072,13.825,5.377c3.072,2.305,116.358,45.314,120.197,47.234
					C413.229,400.627,423.724,403.061,430.381,428.916z"/>
				<g>
					<defs>
						<path id="SVGID_205_" d="M214.309,207.85c0,0,10.56-7.104,16.032-6.336c5.472,0.768,4.032,2.592,4.896,4.322
							c0.864,1.727,0.384,3.742,0.384,3.742S224.195,215.625,214.309,207.85z"/>
					</defs>
					<clipPath id="SVGID_10_">
						<use xlink:href="#SVGID_205_"  overflow="visible"/>
					</clipPath>
					<ellipse clip-path="url(#SVGID_10_)" fill="#94976B" cx="227.536" cy="206.912" rx="4.697" ry="5.186"/>
					<path clip-path="url(#SVGID_10_)" fill="#010101" d="M225.686,210.043c-0.681-0.65-1.11-1.609-1.11-2.68
						c0-1.959,1.438-3.549,3.213-3.549c1.775,0,3.215,1.59,3.215,3.549c0,0.969-0.354,1.844-0.923,2.484
						c0.9-0.768,1.484-1.967,1.484-3.322c0-2.318-1.705-4.199-3.807-4.199c-2.098,0-3.801,1.881-3.801,4.199
						C223.957,208,224.646,209.295,225.686,210.043z"/>
					<ellipse clip-path="url(#SVGID_10_)" fill="#010101" cx="227.92" cy="206.426" rx="2.769" ry="3.059"/>
					<path clip-path="url(#SVGID_10_)" fill="#010101" d="M224.902,211.238c-0.85-0.814-1.391-2.008-1.391-3.348
						c0-2.445,1.796-4.432,4.012-4.432c2.219,0,4.016,1.986,4.016,4.432c0,1.207-0.441,2.305-1.152,3.104
						c1.126-0.957,1.854-2.457,1.854-4.146c0-2.896-2.128-5.244-4.75-5.244c-2.623,0-4.748,2.348-4.748,5.244
						C222.742,208.688,223.602,210.303,224.902,211.238z"/>
				</g>
				<g>
					<defs>
						<path id="SVGID_207_" d="M271.91,210.059c0,0,10.08-5.568,14.594-3.264c4.511,2.303,4.224,4.607,4.224,4.607l-1.633,3.264
							c0,0-10.272,3.457-17.664-4.031C271.431,210.443,271.91,210.059,271.91,210.059z"/>
					</defs>
					<clipPath id="SVGID_12_">
						<use xlink:href="#SVGID_207_"  overflow="visible"/>
					</clipPath>
					<ellipse clip-path="url(#SVGID_12_)" fill="#94976B" cx="284.431" cy="210.139" rx="4.381" ry="4.838"/>
					<path clip-path="url(#SVGID_12_)" fill="#010101" d="M281.976,214.174c-0.793-0.758-1.298-1.873-1.298-3.123
						c0-2.283,1.676-4.131,3.743-4.131s3.744,1.848,3.744,4.131c0,1.127-0.411,2.148-1.074,2.895
						c1.048-0.895,1.728-2.291,1.728-3.867c0-2.701-1.984-4.891-4.43-4.891s-4.429,2.189-4.429,4.891
						C279.96,211.793,280.762,213.301,281.976,214.174z"/>
					<path clip-path="url(#SVGID_12_)" fill="#010101" d="M282.707,213.059c-0.636-0.607-1.038-1.502-1.038-2.5
						c0-1.826,1.343-3.309,2.998-3.309s2.997,1.482,2.997,3.309c0,0.904-0.33,1.721-0.859,2.318
						c0.838-0.717,1.382-1.836,1.382-3.098c0-2.162-1.588-3.916-3.547-3.916c-1.957,0-3.546,1.754-3.546,3.916
						C281.094,211.152,281.736,212.361,282.707,213.059z"/>
					<ellipse clip-path="url(#SVGID_12_)" fill="#010101" cx="284.789" cy="209.686" rx="2.582" ry="2.852"/>
				</g>
				<path fill="#FFFFFF" d="M285.814,208.893c-0.005-0.031-0.012-0.062-0.017-0.092c-0.062-0.328-0.337-0.5-0.631-0.533
					c-0.063-0.391-0.346-0.742-0.873-0.771c-0.617-0.033-1.438,0.586-1.065,1.271c0.214,0.393,0.625,0.613,1.065,0.588
					c0.019-0.002,0.03-0.008,0.048-0.012c0.099,0.303,0.355,0.533,0.722,0.533C285.601,209.877,285.908,209.383,285.814,208.893z"/>
				<path fill="#FFFFFF" d="M228.206,202.992c-0.516,0.049-1.045,0.258-1.382,0.67c-0.24,0.293-0.152,0.693,0.217,0.822
					c0.399,0.139,0.733,0.318,1.165,0.354C229.399,204.936,229.392,202.881,228.206,202.992z"/>
				<path fill="#FFFFFF" d="M230.158,203.672c-0.023-0.01-0.045-0.02-0.066-0.029c-0.434-0.197-0.977,0.031-0.977,0.561
					c0,0.527,0.543,0.756,0.977,0.559c0.021-0.01,0.043-0.02,0.066-0.031C230.558,204.549,230.558,203.855,230.158,203.672z"/>
				<path fill="#554B4B" d="M236.58,125.799c0,0-8.96-8.961-17.152-4.096c-8.191,4.863-8.96,11.264-8.96,11.264l0.512-4.607
					c0,0-3.386,4.823-4.607,6.655c-0.513,0.769,2.816-14.08,13.056-15.616c10.24-1.536,12.801-2.305,23.297,7.425
					c0,0-4.865-3.072-7.681-4.353C235.044,122.471,235.812,124.006,236.58,125.799z"/>
				<path fill="#554B4B" d="M255.525,118.374c-0.256-0.769-5.633-10.239-14.336-12.8c0,0,3.327,4.607,3.84,7.424
					c0,0-8.705-15.361-19.201-1.535l-1.024-2.561c0,0-6.145,2.303-6.656,3.327c-0.511,1.024-10.56,1.345-13.248,19.778l1.216-13.89
					c0,0-2.561,3.329-7.168,5.376c0,0,4.096-3.584,4.864-6.656c0,0-7.938,3.84-10.497,5.121c0,0,5.889-5.377,6.145-6.145
					l-7.937,3.328c0,0,16.129-11.008,18.945-13.057c2.815-2.048,5.376-4.097,5.376-4.097s-6.399-1.536-14.849,3.329
					c-8.447,4.863-11.521,4.352-11.521,4.352s-5.121,6.016-10.496,11.265c0,0,8.511-12.429,9.984-13.313
					c1.279-0.768-3.072,2.561-7.424,2.049c-4.354-0.512-3.328-2.049-3.328-2.049s-5.634,6.4-8.449,7.169l6.401-7.425
					c0,0-12.032,9.729-14.338,13.312c0,0,1.024-6.399,0.769-5.375c-0.256,1.023-6.657,5.888-9.984,6.912c0,0,8.17-7.082,8.449-8.193
					c0.254-1.023-5.634,3.584-10.499,4.865c-4.862,1.279-8.704,1.791-8.704,1.791s18.689-24.576,35.586-27.393
					c0,0-4.644,2.452-4.351,3.328c4.734-2.624,31.232-18.752,55.298-3.84c4.464,2.767,7.167,5.889,15.36,8.703
					c0,0-5.89-2.814-7.68-4.607c0,0,6.145,1.28,12.544,4.607c6.401,3.329,16.385,10.753,22.273,21.25c0,0-6.146-9.984-17.152-13.312
					c0,0,5.374,4.864,6.911,7.936c0,0-4.608-4.096-6.911-4.863L255.525,118.374z"/>
				<path fill="#554B4B" d="M187.043,134.119c0,0-6.721,10.944-4.607,21.312c0,0,1.533-11.904,13.247-16.32
					c0,0-6.336-0.768-10.752,6.145C184.931,145.256,185.315,136.039,187.043,134.119z"/>
				<path fill="#554B4B" d="M200.482,137.575c0,0,1.921,11.137-4.992,15.169c0,0,10.176-3.84,7.873-17.857
					c0,0,0.384,5.568-0.96,8.641C202.403,143.527,201.635,138.535,200.482,137.575z"/>
				<path fill="#554B4B" d="M248.294,146.982c0,0,6.528-1.535,2.879-13.247c0,0,3.842,8.063,1.152,11.905
					c0,0,9.793,1.919,14.401-8.834C266.727,136.807,265.573,149.096,248.294,146.982z"/>
				<path fill="#554B4B" d="M126.368,132.583c0,0-9.793,5.952-10.561,11.905c0,0,3.84-4.801,4.8-4.993c0,0-3.264,5.185-5.953,11.328
					c-2.688,6.146-6.143,17.856-6.143,17.28c0-0.575,4.991-11.135,8.256-14.4c0,0-1.537,5.568,0.767,4.609
					c2.306-0.961,11.521-3.456,13.25-2.305l-2.496-1.535c0,0,5.568,1.535,6.912,1.728c1.345,0.192,6.528-10.753,8.832-11.904
					c0,0-3.456,4.224-3.839,9.024c0,0,2.111-6.912,11.328-13.058c0,0-2.688,4.417-0.769,6.337s1.728,6.145,1.728,6.145
					s1.536-4.416,0.961-6.145c0,0,4.031,5.376,2.495,6.912c-1.535,1.536-1.151,6.529-1.151,6.529s-0.191-3.841,4.416-7.297
					c4.608-3.457,6.336-10.753,6.336-10.753s0,6.528-1.92,9.217s-2.111,6.528-2.111,6.528s5.76-14.018,16.705-21.121
					c0,0-7.49,4.416-9.409,6.721c0,0,2.496-5.761,2.304-6.913c0,0-4.608,7.681-4.992,8.641c0,0,0.769-9.216-1.344-10.944
					c0,0,2.496,6.336-1.536,9.217c-4.032,2.879-4.032,2.879-4.032,2.879s-1.344-5.567,0.192-9.023c0,0-3.457,4.416-3.648,5.951
					l-0.96-4.031c0,0-0.769-2.688-1.921-2.881c-1.151-0.191-10.176,0.576-10.176,0.576s-4.033,3.648-4.607,8.641
					c0,0,1.92-8.256,2.688-9.408c0,0-5.185-0.191-6.529-0.385c0,0-3.839,3.266-5.185,5.186c0,0,1.729-6.145,2.497-6.528
					c0,0-9.409,6.528-10.944,13.44c0,0,4.992-12.673,7.681-13.44l-3.841,2.111l1.921-4.608"/>
				<path fill="#554B4B" d="M250.021,120.486c0,0,7.872,8.641,7.872,16.32C257.893,136.807,254.629,126.439,250.021,120.486z"/>
				<path fill="#554B4B" d="M259.622,119.143c0,0,3.455,7.681,3.648,11.713L259.622,119.143z"/>
				<path fill="#554B4B" d="M176.289,151.976c0.045-0.69-1.15,17.858-13.248,22.081c0,0,9.792-6.912,9.408-18.24
					c0,0,0.384,6.721-0.766,9.793C171.684,165.609,175.906,157.929,176.289,151.976z"/>
				<path fill="#554B4B" d="M167.649,176.938c0,0,2.688,3.84,5.567,3.84c0,0-2.111,2.496-9.407,0.385c0,0,4.224,0.574,6.144,0
					C169.953,181.162,167.649,177.896,167.649,176.938z"/>
				<path fill="#554B4B" d="M159.394,184.809c0,0,4.224,6.338,7.296,8.064c0,0-3.456,0.961-6.912-0.959c0,0,2.304-0.193,3.072,0
					C163.617,192.105,159.777,186.152,159.394,184.809z"/>
				<path fill="#554B4B" d="M145.952,158.888c0,0-4.415,11.713-6.912,12.864C139.04,171.752,144.417,161.959,145.952,158.888z"/>
			</g>
		</g>
		<g>
			<path fill="#FFFFFF" d="M200.001,524.574c-15.624,0-28.334-12.711-28.334-28.334c0-15.622,12.71-28.332,28.334-28.332
				c15.622,0,28.332,12.71,28.332,28.332C228.333,511.863,215.623,524.574,200.001,524.574z"/>
			<path fill="#D4B86E" d="M200.001,469.908c14.543,0,26.332,11.789,26.332,26.332c0,14.545-11.789,26.334-26.332,26.334
				c-14.545,0-26.334-11.789-26.334-26.334C173.667,481.697,185.456,469.908,200.001,469.908 M200.001,465.908
				c-16.726,0-30.334,13.607-30.334,30.332c0,16.727,13.608,30.334,30.334,30.334c16.726,0,30.332-13.607,30.332-30.334
				C230.333,479.516,216.727,465.908,200.001,465.908L200.001,465.908z"/>
		</g>
		<g>
			<path fill="#ED3B27" d="M177.334,490.631c3.098-12.521,15.758-20.154,28.275-17.057c12.521,3.098,20.154,15.758,17.058,28.277
				c-3.099,12.52-15.757,20.156-28.277,17.057C181.871,515.811,174.234,503.15,177.334,490.631"/>
			<g>
				<defs>
					<path id="SVGID_209_" d="M177.334,490.631c3.098-12.521,15.758-20.154,28.275-17.057c12.521,3.098,20.154,15.758,17.058,28.277
						c-3.099,12.52-15.757,20.156-28.277,17.057C181.871,515.811,174.234,503.15,177.334,490.631"/>
				</defs>
				<clipPath id="SVGID_14_">
					<use xlink:href="#SVGID_209_"  overflow="visible"/>
				</clipPath>
				<path clip-path="url(#SVGID_14_)" fill="#F2F2F2" d="M197.133,471.682c-2.819-0.535-5.629,1.08-8.318,1.549v18.656h-11.754
					c-0.539,2.818-0.541,5.627-0.077,8.316h11.831v19.045c2.824,0.492,5.634,1.824,8.318,1.316v-20.361h25.879
					c0.489-2.824,0.444-5.633-0.066-8.316h-25.812V471.682z"/>
			</g>
		</g>
	</g>
	<g display="inline">
		<g>
			<defs>
				<polygon id="SVGID_211_" points="775.999,420.615 619.999,490.74 463.999,420.615 463.999,145.678 775.999,145.678 				"/>
			</defs>
			<clipPath id="SVGID_16_">
				<use xlink:href="#SVGID_211_"  overflow="visible"/>
			</clipPath>
			<path clip-path="url(#SVGID_16_)" fill="#1C8644" d="M881.206,476.822c0,0-7.494-8.115-17.404-17.118
				c7.617,4.761,13.146,8.212,13.146,8.212s-39.879-31.359-44.523-33.295c-4.648-1.937-26.717-13.164-33.686-16.262
				c-6.969-3.097-36.393-20.521-37.941-20.907s-21.682-12.001-21.682-12.001s-8.131-2.712-9.291-4.646
				c-1.162-1.936-8.906-10.065-10.842-11.228c-1.906-1.145-4.926-3.943-14.096-0.986c0.402-14.064,0.906-28.311,1.164-35.378
				c3.789-5.246,6.529-10.624,7.559-17.825c0.922-6.453,2.301-14.735,3.609-22.705c8.275,1.452,14.152-8.411,14.152-8.411
				c3.873-5.161,4.906-16.39,4.906-16.776s2.062-13.81,2.709-17.939c0.645-4.13-1.678-11.744-2.451-14.454
				c-0.775-2.71-1.291-4.388-5.293-4.903c-2.713-0.351-6.193,2.918-8.154,5.059c0.135-2.652,0.311-4.877,0.541-6.221
				c0.969-5.613,3.291-15.68,4.064-18.584c0.775-2.904,6.582-31.166-9.098-45.686c0,0-5.227-5.42-5.613-8.711
				c-0.389-3.291-5.033-11.809-7.164-13.551c0,0-6.775-18.584-21.293-25.553c0,0-5.807-1.355-7.162-2.904
				s-18.004-23.035-35.039-23.424c-17.035-0.387-22.842,6.97-22.842,6.97s-30.393,3.291-38.33,26.714
				c0,0-12.389,6.582-12.584,20.714c-0.191,14.132-0.387-1.162-0.387-1.162s-22.842,30.199-21.1,54.01
				c1.363,18.629,3.555,31.332,4.631,36.351c-2.709-1.94-5.861-3.334-8.76-2.473c-3.623,1.074-5.904,5.399-7.324,9.918
				c-0.307,0.893-0.58,1.879-0.814,2.963c-1.133,4.731-1.412,8.928-1.412,8.928c-0.646,10.713,11.484,31.232,15.873,35.232
				c4.826,4.4,6.453,5.163,13.164,4.646c3.154-0.242,4.701-0.085,5.467,0.148c0.154,0.818,0.311,1.641,0.469,2.466
				c-0.049-0.138-0.076-0.212-0.076-0.212c0.195,0.579,4.754,45.079,7.787,74.825c-0.391,0.339-0.898,0.783-1.482,1.298l-0.42-0.06
				c0,0-0.188,0.22-0.455,0.835c-1.73,1.538-3.824,3.443-5.352,4.973c-3.1,3.097-8.906,3.097-8.906,3.097s-5.42-1.548-8.129,0.387
				c-2.711,1.937-11.23,6.969-14.326,9.293c-3.098,2.322-71.625,21.293-105.695,36.006c-22.678,9.793-33.17,24.724-37.656,33.618
				c-5.283,7.639-9.578,16.032-9.578,22.907c0,16.262,15.486,40.266,15.486,40.266s466.92,8.518,480.857-1.548
				C894.37,511.667,881.206,476.822,881.206,476.822z M576.177,371.546c0.021,0.219,0.045,0.432,0.066,0.648l-0.307-0.044
				C576.015,371.948,576.093,371.747,576.177,371.546z"/>
		</g>
		<g>
			<defs>
				<polygon id="SVGID_213_" points="775.999,420.65 619.999,490.768 463.999,420.65 463.999,72.381 775.999,72.381 
					775.999,334.107 				"/>
			</defs>
			<clipPath id="SVGID_18_">
				<use xlink:href="#SVGID_213_"  overflow="visible"/>
			</clipPath>
			<g clip-path="url(#SVGID_18_)">
				<path fill="#FFFFFF" d="M852.706,473.822c0,0-27.875-30.199-47.234-38.718c-19.359-8.517-50.332-24.778-58.85-30.198
					s-30.199-16.261-30.199-16.261l-11.42-7.55c0,0-10.262,19.939-11.809,23.036c-1.551,3.098-56.527,71.238-109.955,27.102
					c-53.43-44.137-48.783-49.557-48.783-49.557s-5.809-6.969-11.229-2.324c-5.42,4.647-19.486,12.004-22.584,12.004
					c-3.096,0-68.4,25.165-82.338,27.487c-13.938,2.323-29.967,13.938-34.34,17.036c-4.377,3.097-28.381,27.876-28.381,44.136
					c0,16.262,15.486,40.266,15.486,40.266s466.92,8.518,480.859-1.548C865.868,508.667,852.706,473.822,852.706,473.822z"/>
				<path fill="#010101" d="M675.979,365.717c-0.873,0.292,9.857,7.829,9.582,19.455c0,0-19.164,39.779-64.461,56.62
					c0,0-49.09-10.945-71.934-43.854c0,0-7.742-17.037-0.773-30.975c0,0-5.42,4.646-8.518,7.744
					c-3.098,3.097-8.904,3.097-8.904,3.097s-5.42-1.548-8.131,0.387c-2.711,1.937-11.229,6.969-14.324,9.293
					c-3.098,2.322-71.627,21.293-105.695,36.006c-34.07,14.712-40.654,41.039-40.654,41.039s16.648-30.586,40.654-39.104
					c0,0,102.598-32.908,104.533-34.845c1.936-1.936,15.1-10.066,17.422-9.68c0,0,3.098,15.875,8.906,25.555
					c0,0-6.582-14.713-5.42-25.555c0,0,6.193-0.387,8.902-1.162c2.711-0.773,2.711-0.773,2.711-0.773s3.484,16.26,10.453,23.229
					c0,0,23.248,32.821,71.643,42.5c0,0,55.348-21.979,67.738-66.116c0,0,2.322-11.228-6.582-12.389c0,0,4.258-3.485,10.451,6.193
					c6.195,9.681,11.615,9.293,12.777,10.067s10.066,7.743,10.066,7.743s15.1,7.356,18.197,9.679
					c3.096,2.322,49.943,24.778,57.686,29.812c7.746,5.033,56.143,35.231,56.143,35.231s-39.879-31.359-44.525-33.295
					c-4.648-1.937-26.715-13.164-33.684-16.262c-6.969-3.097-36.393-20.521-37.941-20.907c-1.551-0.387-21.682-12.001-21.682-12.001
					s-8.131-2.712-9.293-4.646c-1.16-1.936-8.904-10.065-10.84-11.228S685.478,362.535,675.979,365.717z"/>
			</g>
		</g>
	</g>
	<g display="inline">
		<g>
			<defs>
				<polygon id="SVGID_233_" points="-64,420.271 -220,490.389 -376,420.271 -376,71.998 -64,71.998 -64,333.729 				"/>
			</defs>
			<clipPath id="SVGID_20_">
				<use xlink:href="#SVGID_233_"  overflow="visible"/>
			</clipPath>
			<g clip-path="url(#SVGID_20_)">
				<path fill="#B7202D" d="M-453.843,428.865c0,0,42.687-20.172,50.902-23.608c6.291-2.627,18.546-19.798,23.208-17.885
					c4.66,1.914,12.668,6.419,12.668,6.419l15.698-11.486c0,0,14.663-3.7,17.308-3.739c2.646-0.041,21.702-8.272,24.654-9.807
					c2.236-1.162,10.706-2.812,10.706-2.812s4.473,32.676,20.591,48.304c16.116,15.628,71.17,25.365,97.451,13.714
					c26.281-11.65,54.436-30.605,54.436-30.605l10.326-16.696l7.325,3.194l14.632,5.066c0,0,80.361,20.591,103.752,79.106
					l9.453,55.421c0,0-436.755-10.474-473.903-17.179C-491.785,499.569-453.843,428.865-453.843,428.865z"/>
			</g>
		</g>
	</g>
</g>
<g id="Layer_1_copy">
	<g>
		<g>
			<defs>
				<polygon id="SVGID_371_" points="-64,-159.385 -220,-89.26 -376,-159.385 -376,-434.322 -64,-434.322 				"/>
			</defs>
			<clipPath id="SVGID_22_">
				<use xlink:href="#SVGID_371_"  overflow="visible"/>
			</clipPath>
			<g clip-path="url(#SVGID_22_)">
			</g>
		</g>
		<g>
			<defs>
				<polygon id="SVGID_373_" points="-64,-159.387 -220,-89.27 -376,-159.387 -376,-507.66 -64,-507.66 -64,-245.93 				"/>
			</defs>
			<clipPath id="SVGID_24_">
				<use xlink:href="#SVGID_373_"  overflow="visible"/>
			</clipPath>
			<g clip-path="url(#SVGID_24_)">
				<path fill="#FFFFFF" d="M3.917-92.525c0,0-10.826-18.273-17.267-23.096c-6.441-4.818-20.213-13.984-22.6-19.352
					c-2.389-5.368-9.343-12.886-12.095-14.629c-2.754-1.743-31.269-8.189-32.545-12.057c-1.276-3.869-5.983-11.892-12.361-14.002
					c-6.376-2.111-9.941-5.358-11.614-6.074c-1.674-0.713-10.443-2.014-10.901-2.304c-0.459-0.29-6.481-6.476-7.561-7.505
					c-1.079-1.031-3.71-4.132-3.71-4.132l-0.5-1.944c0,0-24.82,46.381-49.308,55.697c0,0-14.881-6.107-23.44-11.331
					c-8.562-5.222-44.864-35.87-47.977-40.017c-3.111-4.146-14.055-21.061-14.055-21.061l-2.466-2.354
					c0,0-13.721,18.703-24.527,20.465c-10.805,1.762-29.837,12.455-37.89,15.959c-8.054,3.504-22.408,8.061-22.408,8.061
					s-41.749,18.459-48.03,20.416c-6.282,1.955-33.632,17.666-39.212,23.824c-5.58,6.156-51.715,81.367-49.739,88.553
					c1.979,7.185,188.058,52.816,216.969,52.135c28.908-0.68,233.538-37.443,246.789-37.754
					c13.249-0.313,44.17-17.916,42.279-21.486C17.856-50.084,3.917-92.525,3.917-92.525z"/>
			</g>
		</g>
	</g>
	<g>
		<rect fill="#A0272A" width="400" height="560"/>
		<g>
			<polygon fill="#F4FBFE" points="399.992,243.094 399.992,42.939 0.008,333.826 0.008,560 			"/>
		</g>
		<g>
			<rect x="55.404" y="31.167" fill="#D3B76E" width="289.191" height="48.5"/>
			<polygon fill="#D3B76E" points="68.398,72.855 29.744,72.855 38.111,55.417 29.744,37.979 81.064,37.979 81.064,50.012 
				55.404,50.012 			"/>
			<polygon fill="#D3B76E" points="331.602,72.855 370.256,72.855 361.889,55.417 370.256,37.979 318.936,37.979 318.936,50.012 
				344.596,50.012 			"/>
			<g>
				<g>
					<path fill="#A29054" d="M77.255,60.884h-6.967l-1.196,3.082h-3.449l6.623-16.098h3.012L81.9,63.966h-3.449L77.255,60.884z
						 M76.151,58.056l-1.587-4.07c-0.345-0.896-0.759-2.23-0.781-2.23H73.76c-0.022,0-0.437,1.334-0.781,2.23l-1.587,4.07H76.151z"
						/>
					<path fill="#A29054" d="M97.012,47.868v16.098h-3.013l-4.575-6.209c-1.449-1.978-3.22-4.508-3.243-4.508h-0.022
						c-0.023,0,0.022,2.323,0.022,5.52v5.197h-3.196V47.868h3.013l4.668,6.278c1.104,1.448,3.127,4.323,3.15,4.323h0.023
						c0.022,0-0.023-2.621-0.023-5.335v-5.267H97.012z"/>
					<path fill="#A29054" d="M107.202,47.868c4.599,0,8.324,3.289,8.324,8.117c0,4.807-3.703,7.98-8.278,7.98h-6.991V47.868H107.202
						z M107.248,60.976c2.667,0,4.967-1.862,4.967-4.99c0-3.127-2.3-5.127-5.013-5.127h-3.749v10.117H107.248z"/>
					<path fill="#A29054" d="M126.567,63.966l-3.196-5.496c-0.069,0-0.115,0-0.185,0h-2.438v5.496h-3.196V47.868h5.634
						c3.955,0,6.324,2.139,6.324,5.381c0,2.208-1.081,3.818-3.035,4.623l3.679,6.094H126.567z M120.749,55.618h2.852
						c1.771,0,2.599-1.15,2.599-2.369c0-1.264-0.851-2.391-2.599-2.391h-2.852V55.618z"/>
					<path fill="#A29054" d="M143.815,60.976v2.99h-11.521V47.868h11.383v2.99h-8.187v3.426h6.462v2.806h-6.462v3.886H143.815z"/>
					<path fill="#A29054" d="M156.558,60.884h-6.967l-1.196,3.082h-3.449l6.623-16.098h3.012l6.623,16.098h-3.449L156.558,60.884z
						 M155.454,58.056l-1.587-4.07c-0.345-0.896-0.759-2.23-0.781-2.23h-0.023c-0.022,0-0.437,1.334-0.781,2.23l-1.587,4.07H155.454
						z"/>
					<path fill="#A29054" d="M170.382,52.767c-0.368-1.609-1.771-2.438-3.196-2.438c-1.472,0-2.414,0.713-2.414,1.679
						c0,1.288,1.816,1.747,3.84,2.438c2.346,0.805,5.036,2.047,5.036,4.921c0,2.875-2.483,4.921-6.163,4.921
						c-3.38,0-5.703-1.908-6.576-4.829l3.081-0.828c0.345,1.449,1.633,2.807,3.633,2.807c1.725,0,2.622-0.852,2.622-1.932
						c0-1.633-2.185-2.023-4.461-2.829c-1.909-0.69-4.301-1.679-4.301-4.483c0-2.507,2.483-4.646,5.887-4.646
						c3.013,0,5.404,1.84,6.094,4.369L170.382,52.767z"/>
					<path fill="#A29054" d="M192.185,52.651c-0.852-1.195-2.461-1.954-4.048-1.954c-3.012,0-5.013,2.161-5.013,5.22
						c0,3.15,2.139,5.174,5.013,5.174c1.84,0,3.542-0.966,4.347-2.368l3.219,0.851c-1.333,2.852-4.185,4.714-7.565,4.714
						c-4.622,0-8.347-3.519-8.347-8.37s3.725-8.37,8.347-8.37c3.174,0,5.887,1.679,7.312,4.254L192.185,52.651z"/>
					<path fill="#A29054" d="M210.768,47.868v16.098h-3.196v-6.646h-6.968v6.646h-3.196V47.868h3.196v6.439h6.968v-6.439H210.768z"
						/>
					<path fill="#A29054" d="M223.028,63.966l-3.196-5.496c-0.069,0-0.115,0-0.185,0h-2.438v5.496h-3.196V47.868h5.634
						c3.955,0,6.324,2.139,6.324,5.381c0,2.208-1.081,3.818-3.035,4.623l3.679,6.094H223.028z M217.21,55.618h2.852
						c1.771,0,2.599-1.15,2.599-2.369c0-1.264-0.851-2.391-2.599-2.391h-2.852V55.618z"/>
					<path fill="#A29054" d="M228.756,63.966V47.868h3.196v16.098H228.756z"/>
					<path fill="#A29054" d="M243.337,52.767c-0.368-1.609-1.771-2.438-3.196-2.438c-1.472,0-2.414,0.713-2.414,1.679
						c0,1.288,1.816,1.747,3.84,2.438c2.346,0.805,5.036,2.047,5.036,4.921c0,2.875-2.483,4.921-6.163,4.921
						c-3.38,0-5.703-1.908-6.576-4.829l3.081-0.828c0.345,1.449,1.633,2.807,3.633,2.807c1.725,0,2.622-0.852,2.622-1.932
						c0-1.633-2.185-2.023-4.461-2.829c-1.909-0.69-4.301-1.679-4.301-4.483c0-2.507,2.483-4.646,5.887-4.646
						c3.013,0,5.404,1.84,6.094,4.369L243.337,52.767z"/>
					<path fill="#A29054" d="M260.148,47.868v2.99h-5.059v13.107h-3.196V50.858h-5.013v-2.99H260.148z"/>
					<path fill="#A29054" d="M273.327,60.976v2.99h-11.521V47.868h11.383v2.99h-8.187v3.426h6.462v2.806h-6.462v3.886H273.327z"/>
					<path fill="#A29054" d="M290.255,47.868v16.098h-3.013l-4.575-6.209c-1.449-1.978-3.22-4.508-3.243-4.508h-0.022
						c-0.023,0,0.022,2.323,0.022,5.52v5.197h-3.196V47.868h3.013l4.668,6.278c1.104,1.448,3.127,4.323,3.15,4.323h0.023
						c0.022,0-0.023-2.621-0.023-5.335v-5.267H290.255z"/>
					<path fill="#A29054" d="M301.641,52.767c-0.368-1.609-1.771-2.438-3.196-2.438c-1.472,0-2.414,0.713-2.414,1.679
						c0,1.288,1.816,1.747,3.84,2.438c2.346,0.805,5.036,2.047,5.036,4.921c0,2.875-2.483,4.921-6.163,4.921
						c-3.38,0-5.703-1.908-6.576-4.829l3.081-0.828c0.345,1.449,1.633,2.807,3.633,2.807c1.725,0,2.622-0.852,2.622-1.932
						c0-1.633-2.185-2.023-4.461-2.829c-1.909-0.69-4.301-1.679-4.301-4.483c0-2.507,2.483-4.646,5.887-4.646
						c3.013,0,5.404,1.84,6.094,4.369L301.641,52.767z"/>
					<path fill="#A29054" d="M318.43,60.976v2.99h-11.521V47.868h11.383v2.99h-8.187v3.426h6.462v2.806h-6.462v3.886H318.43z"/>
					<path fill="#A29054" d="M335.357,47.868v16.098h-3.013l-4.575-6.209c-1.449-1.978-3.22-4.508-3.243-4.508h-0.022
						c-0.023,0,0.022,2.323,0.022,5.52v5.197h-3.196V47.868h3.013l4.668,6.278c1.104,1.448,3.127,4.323,3.15,4.323h0.023
						c0.022,0-0.023-2.621-0.023-5.335v-5.267H335.357z"/>
				</g>
				<g>
					<g>
						<path fill="#FFFFFF" d="M76.255,59.884h-6.967l-1.196,3.082h-3.449l6.623-16.098h3.012L80.9,62.966h-3.449L76.255,59.884z
							 M75.151,57.056l-1.587-4.07c-0.345-0.896-0.759-2.23-0.781-2.23H72.76c-0.022,0-0.437,1.334-0.781,2.23l-1.587,4.07H75.151z"
							/>
						<path fill="#FFFFFF" d="M96.012,46.868v16.098h-3.013l-4.575-6.209c-1.449-1.978-3.22-4.508-3.243-4.508h-0.022
							c-0.023,0,0.022,2.323,0.022,5.52v5.197h-3.196V46.868h3.013l4.668,6.278c1.104,1.448,3.127,4.323,3.15,4.323h0.023
							c0.022,0-0.023-2.621-0.023-5.335v-5.267H96.012z"/>
						<path fill="#FFFFFF" d="M106.202,46.868c4.599,0,8.324,3.289,8.324,8.117c0,4.807-3.703,7.98-8.278,7.98h-6.991V46.868
							H106.202z M106.248,59.976c2.667,0,4.967-1.862,4.967-4.99c0-3.127-2.3-5.127-5.013-5.127h-3.749v10.117H106.248z"/>
						<path fill="#FFFFFF" d="M125.567,62.966l-3.196-5.496c-0.069,0-0.115,0-0.185,0h-2.438v5.496h-3.196V46.868h5.634
							c3.955,0,6.324,2.139,6.324,5.381c0,2.208-1.081,3.818-3.035,4.623l3.679,6.094H125.567z M119.749,54.618h2.852
							c1.771,0,2.599-1.15,2.599-2.369c0-1.264-0.851-2.391-2.599-2.391h-2.852V54.618z"/>
						<path fill="#FFFFFF" d="M142.815,59.976v2.99h-11.521V46.868h11.383v2.99h-8.187v3.426h6.462v2.806h-6.462v3.886H142.815z"/>
						<path fill="#FFFFFF" d="M155.558,59.884h-6.967l-1.196,3.082h-3.449l6.623-16.098h3.012l6.623,16.098h-3.449L155.558,59.884z
							 M154.454,57.056l-1.587-4.07c-0.345-0.896-0.759-2.23-0.781-2.23h-0.023c-0.022,0-0.437,1.334-0.781,2.23l-1.587,4.07
							H154.454z"/>
						<path fill="#FFFFFF" d="M169.382,51.767c-0.368-1.609-1.771-2.438-3.196-2.438c-1.472,0-2.414,0.713-2.414,1.679
							c0,1.288,1.816,1.747,3.84,2.438c2.346,0.805,5.036,2.047,5.036,4.921c0,2.875-2.483,4.921-6.163,4.921
							c-3.38,0-5.703-1.908-6.576-4.829l3.081-0.828c0.345,1.449,1.633,2.807,3.633,2.807c1.725,0,2.622-0.852,2.622-1.932
							c0-1.633-2.185-2.023-4.461-2.829c-1.909-0.69-4.301-1.679-4.301-4.483c0-2.507,2.483-4.646,5.887-4.646
							c3.013,0,5.404,1.84,6.094,4.369L169.382,51.767z"/>
						<path fill="#FFFFFF" d="M191.185,51.651c-0.852-1.195-2.461-1.954-4.048-1.954c-3.012,0-5.013,2.161-5.013,5.22
							c0,3.15,2.139,5.174,5.013,5.174c1.84,0,3.542-0.966,4.347-2.368l3.219,0.851c-1.333,2.852-4.185,4.714-7.565,4.714
							c-4.622,0-8.347-3.519-8.347-8.37s3.725-8.37,8.347-8.37c3.174,0,5.887,1.679,7.312,4.254L191.185,51.651z"/>
						<path fill="#FFFFFF" d="M209.768,46.868v16.098h-3.196v-6.646h-6.968v6.646h-3.196V46.868h3.196v6.439h6.968v-6.439H209.768z"
							/>
						<path fill="#FFFFFF" d="M222.028,62.966l-3.196-5.496c-0.069,0-0.115,0-0.185,0h-2.438v5.496h-3.196V46.868h5.634
							c3.955,0,6.324,2.139,6.324,5.381c0,2.208-1.081,3.818-3.035,4.623l3.679,6.094H222.028z M216.21,54.618h2.852
							c1.771,0,2.599-1.15,2.599-2.369c0-1.264-0.851-2.391-2.599-2.391h-2.852V54.618z"/>
						<path fill="#FFFFFF" d="M227.756,62.966V46.868h3.196v16.098H227.756z"/>
						<path fill="#FFFFFF" d="M242.337,51.767c-0.368-1.609-1.771-2.438-3.196-2.438c-1.472,0-2.414,0.713-2.414,1.679
							c0,1.288,1.816,1.747,3.84,2.438c2.346,0.805,5.036,2.047,5.036,4.921c0,2.875-2.483,4.921-6.163,4.921
							c-3.38,0-5.703-1.908-6.576-4.829l3.081-0.828c0.345,1.449,1.633,2.807,3.633,2.807c1.725,0,2.622-0.852,2.622-1.932
							c0-1.633-2.185-2.023-4.461-2.829c-1.909-0.69-4.301-1.679-4.301-4.483c0-2.507,2.483-4.646,5.887-4.646
							c3.013,0,5.404,1.84,6.094,4.369L242.337,51.767z"/>
						<path fill="#FFFFFF" d="M259.148,46.868v2.99h-5.059v13.107h-3.196V49.858h-5.013v-2.99H259.148z"/>
						<path fill="#FFFFFF" d="M272.327,59.976v2.99h-11.521V46.868h11.383v2.99h-8.187v3.426h6.462v2.806h-6.462v3.886H272.327z"/>
						<path fill="#FFFFFF" d="M289.255,46.868v16.098h-3.013l-4.575-6.209c-1.449-1.978-3.22-4.508-3.243-4.508h-0.022
							c-0.023,0,0.022,2.323,0.022,5.52v5.197h-3.196V46.868h3.013l4.668,6.278c1.104,1.448,3.127,4.323,3.15,4.323h0.023
							c0.022,0-0.023-2.621-0.023-5.335v-5.267H289.255z"/>
						<path fill="#FFFFFF" d="M300.641,51.767c-0.368-1.609-1.771-2.438-3.196-2.438c-1.472,0-2.414,0.713-2.414,1.679
							c0,1.288,1.816,1.747,3.84,2.438c2.346,0.805,5.036,2.047,5.036,4.921c0,2.875-2.483,4.921-6.163,4.921
							c-3.38,0-5.703-1.908-6.576-4.829l3.081-0.828c0.345,1.449,1.633,2.807,3.633,2.807c1.725,0,2.622-0.852,2.622-1.932
							c0-1.633-2.185-2.023-4.461-2.829c-1.909-0.69-4.301-1.679-4.301-4.483c0-2.507,2.483-4.646,5.887-4.646
							c3.013,0,5.404,1.84,6.094,4.369L300.641,51.767z"/>
						<path fill="#FFFFFF" d="M317.43,59.976v2.99h-11.521V46.868h11.383v2.99h-8.187v3.426h6.462v2.806h-6.462v3.886H317.43z"/>
						<path fill="#FFFFFF" d="M334.357,46.868v16.098h-3.013l-4.575-6.209c-1.449-1.978-3.22-4.508-3.243-4.508h-0.022
							c-0.023,0,0.022,2.323,0.022,5.52v5.197h-3.196V46.868h3.013l4.668,6.278c1.104,1.448,3.127,4.323,3.15,4.323h0.023
							c0.022,0-0.023-2.621-0.023-5.335v-5.267H334.357z"/>
					</g>
				</g>
			</g>
			<rect x="49.207" y="37.979" fill="#A29054" width="6.197" height="34.877"/>
			<rect x="344.596" y="37.979" fill="#A29054" width="6.197" height="34.877"/>
		</g>
		<g>
			<polygon fill="#E0B928" points="39.5,423.526 39.5,141.178 360.5,141.178 360.5,423.526 200,495.674 			"/>
			<g>
				<path fill="#010101" d="M356,145.678v274.938L200,490.74L44,420.615V145.678H356 M365,136.678h-9H44h-9v9v274.938v5.822
					l5.31,2.387l156,70.125l3.69,1.658l3.689-1.658l156-70.125l5.311-2.387v-5.822V145.678V136.678L365,136.678z"/>
			</g>
		</g>
		<g>
			<path fill="#D4B86E" d="M365,136.678v9v274.938v5.801L200,500.24L35,426.404v-5.789V145.678v-9h9h312H365 M372,129.678h-7h-9H44
				h-9h-7v7v9v274.938v5.789v4.537l4.141,1.853l165,73.836l2.859,1.279l2.858-1.279l165-73.824l4.142-1.853v-4.537v-5.801V145.678
				v-9V129.678L372,129.678z"/>
		</g>
		<g>
			<defs>
				<polygon id="SVGID_443_" points="356,420.615 200,490.74 44,420.615 44,145.678 356,145.678 				"/>
			</defs>
			<clipPath id="SVGID_26_">
				<use xlink:href="#SVGID_443_"  overflow="visible"/>
			</clipPath>
			<path clip-path="url(#SVGID_26_)" fill="#C79C2D" d="M388.479,408.699c-2.99-5.139-7.071-10.053-12.564-13.064
				c-15.872-8.705-119.813-47.617-119.813-47.617s-10.753-6.146-16.896-6.146c-2.723,0-4.738-0.1-6.143-0.211v-13.17
				c4.383-1.27,8.285-3.215,9.728-6.203c5.376-11.137,21.248-73.092,21.504-78.979c0.258-5.889-0.768-30.977-0.255-33.281
				c0,0,1.504-2.074,2.702-5.191c0.554-1.068,0.985-2.365,1.122-3.934c0.28-1.488,0.414-3.072,0.271-4.701
				c-0.976-11.111-7.168-15.104-7.168-15.104s1.314-8.196-1.83-18.639c-0.862-8.559-3.801-16.545-6.747-25.652
				c-4.224-13.057-37.25-38.018-41.474-38.785s-15.361-8.064-15.361-8.064c-31.104-16.513-73.73,11.137-73.73,11.137
				c-14.593,2.688-29.186,25.729-29.569,26.881c-0.384,1.152-0.769,1.92-6.528,6.145c-5.761,4.225-9.217,18.049-9.217,18.049
				c-18.433,46.85,15.361,102.916,17.664,105.221c1.555,1.555,6.95,10.092,10.299,15.488c6.23,26.303,5.622,49.334,3.384,65.965
				c-0.001,0.002-0.003,0.004-0.003,0.006c-1.812,1.832-4.991,4.32-9.07,4.561c0,0-14.978-4.225-21.12,3.457
				c-3.806,4.754-7.753,8.477-10.212,10.623c-1.546,0.938-3.074,1.816-4.535,2.623c-10.338,2.885-56.802,16.059-78.57,25.922
				c-24.576,11.137-48.002,14.594-54.915,44.932c0,0,0.544-1.307,1.812-3.473c-8.952,17.166-17.884,37.986-17.173,45.459
				c1.025,10.752,16.897,78.852,16.897,78.852l495.637-30.723C426.604,521.08,410.123,441.834,388.479,408.699z"/>
		</g>
		<g>
			<defs>
				<polygon id="SVGID_445_" points="356,420.65 200,490.768 44,420.65 44,72.38 356,72.38 356,334.107 				"/>
			</defs>
			<clipPath id="SVGID_28_">
				<use xlink:href="#SVGID_445_"  overflow="visible"/>
			</clipPath>
			<g clip-path="url(#SVGID_28_)">
				<path fill="#CF202A" d="M461.102,521.08c0,0-24.064-115.717-52.227-125.957c-28.16-10.24-56.321-21.506-66.562-24.578
					c-10.241-3.07-59.906-23.041-59.906-23.041s18.944,25.604-11.776,47.619c-30.722,22.018-39.426,35.33-39.426,35.33
					s-29.186,7.68-70.66-19.457c-41.475-27.139-47.105-41.986-47.105-41.986l0.513-19.969c0,0-2.562,2.561-10.753,7.68
					c-8.192,5.119-16.386,8.703-16.386,8.703s-99.844,27.65-110.085,43.014c-10.24,15.359-29.185,53.76-28.161,64.514
					c1.025,10.752,16.897,78.852,16.897,78.852L461.102,521.08z"/>
				<path fill="#901C1E" d="M293.031,398.322c0,0,8.449-6.527,9.216-15.744c0.769-9.217,1.152-23.424-6.528-29.186
					c0,0,6.528,23.426-8.064,38.018l0.385,4.225c0,0,4.992,8.064,14.208,9.6c9.217,1.537,36.866,0.385,58.755,29.57
					c0,0-12.288-27.65-54.146-31.873C306.855,402.932,299.942,405.234,293.031,398.322z"/>
				<path fill="#901C1E" d="M240.037,451.318c0,0,29.186-14.594,38.401-16.129c9.216-1.537,7.681-6.529,7.681-6.529
					s-24.194,4.992-34.946,10.752C240.42,445.174,240.037,451.318,240.037,451.318z"/>
				<path fill="#901C1E" d="M76.828,408.307c0,0,22.274-10.369,29.954-7.68c7.681,2.689,53.379,16.514,53.379,39.553
					c0,1.537-64.898-36.863-94.469-24.576c-29.567,12.289-49.922,50.691-49.922,50.691s14.208-56.451,97.157-75.652
					C112.928,390.643,89.886,399.092,76.828,408.307z"/>
				<path fill="#901C1E" d="M93.727,363.762c1.151,0,4.992-1.152,4.992-1.152s-3.456,13.824,0,21.889c0,0-9.217-19.969-7.681-20.354
					C92.574,363.762,93.727,363.762,93.727,363.762z"/>
				<path fill="#FFFFFF" d="M326.179,370.768l-22.638,5.066c0,0,20.357,6.369,22.729,6.895c2.372,0.523,22.757-3.92,22.757-3.92
					L326.179,370.768z"/>
				<path fill="#FFFFFF" d="M365.884,383.998l-19.753,4.422c0,0,17.763,5.557,19.831,6.016c2.069,0.459,19.859-3.42,19.859-3.42
					L365.884,383.998z"/>
				<path fill="#FFFFFF" d="M403.084,399.809l-16.151,3.613c0,0,14.524,4.545,16.216,4.92c1.691,0.373,16.236-2.799,16.236-2.799
					L403.084,399.809z"/>
				<path fill="#FFFFFF" d="M60.701,374.643l12.288,2.049c0,0-17.665,7.168-20.48,8.703s-19.2-0.766-19.2-0.766L60.701,374.643z"/>
				<path fill="#FFFFFF" d="M13.851,391.281L-9.19,403.316c0,0,13.313-2.307,15.873-1.793c2.561,0.512,23.554-8.959,23.554-8.959
					L13.851,391.281z"/>
				<path fill="#FFFFFF" d="M103.199,356.721c0,0-4.609,18.049,13.824,32.258c18.433,14.207,62.709,35.979,68.098,49.154
					c8.066,19.713,28.035,28.162,43.012,19.969c21.941-12.004,9.216-23.553,30.209-38.402c13.125-9.283,43.01-34.305,34.306-67.074
					c0,0-9.729-9.729-19.457-7.68c-9.729,2.047,0,0,0,0s6.656,10.24,4.607,18.432c-2.048,8.193-21.504,50.691-61.441,62.979
					c0,0-53.251-19.969-71.172-35.328c-17.921-15.361-27.65-38.402-28.161-40.451C116.512,348.529,103.199,356.721,103.199,356.721z
					"/>
				<path fill="#FCC9B0" d="M216.996,428.275c0,0,62.85-29.824,59.778-72.322c0,0-3.328-8.193-6.912-9.729
					c-3.585-1.537-3.585-3.072-3.585-3.072l-0.256-16.129c0,0,8.448,0,9.217-5.633c0.768-5.631,10.241-23.553,14.594-44.033
					c4.353-20.482,8.448-34.051,8.448-34.051s-1.023-22.785-0.769-23.553c0.256-0.768-0.769-9.727,0.512-11.008
					c1.28-1.279,6.913-5.377,3.072-15.104c-3.84-9.73-7.168-13.057-7.168-13.057s2.304-17.922-4.352-28.674
					c-6.658-10.754-11.778-19.97-11.778-19.97s-54.786-16.896-66.818-13.056s-89.347,37.633-92.163,50.689
					c-2.817,13.057-9.217,16.129-7.682,34.562c1.537,18.432,7.936,35.328,12.033,41.217c4.096,5.889,16.896,21.762,17.153,25.09
					c0.255,3.326,6.655,26.369,4.607,47.873c-2.049,21.506-0.512,17.154-1.536,19.459c-1.023,2.303-6.4,6.91-14.848,7.936
					c-8.449,1.023-9.218,9.984-8.449,10.752s4.865,25.857,33.026,42.498C153.122,398.963,205.092,426.611,216.996,428.275z"/>
				<path fill="#FFFFFF" d="M214.309,207.85c0,0,10.56-7.104,16.032-6.336c5.472,0.768,4.032,2.592,4.896,4.322
					c0.864,1.727,0.384,3.742,0.384,3.742S224.195,215.625,214.309,207.85z"/>
				<path fill="#FFFFFF" d="M271.91,210.059c0,0,10.08-5.568,14.594-3.264c4.511,2.303,4.224,4.607,4.224,4.607l-1.633,3.264
					c0,0-10.272,3.457-17.664-4.031C271.431,210.443,271.91,210.059,271.91,210.059z"/>
				<path fill="#CE917D" d="M193.571,206.123c0,0,20.353-7.682,28.607-7.873c0,0-15.936,9.023-16.703,9.984
					c0,0,9.023,4.801,20.544,3.84c0,0-9.023-1.346-9.984-2.881c-0.959-1.533-0.959-1.344-0.959-1.344s9.792-6.143,12.864-6.336
					c3.072-0.191,5.567,1.535,5.567,1.535l3.201,6.211c0,0-4.113,2.096-7.377,2.287c0,0,5.904,0.336,6.48,0.336
					c0,0,8.063-0.191,9.601-0.191c0,0-4.608-4.609-4.993-5.762c-0.191-0.574,6.337,0.961,7.104,0.961c0.77,0,8.45-3.457,8.641-4.033
					c0.192-0.576,0.552-15.508-11.52-17.473C228.133,182.697,203.172,192.105,193.571,206.123z"/>
				<path fill="#CE917D" d="M266.534,209.002c0,0,4.737-11.648,12.801-14.08c0,0,8.576-8.32,14.466-6.016
					c5.888,2.305,7.935,6.016,7.551,8.959s-2.048,9.217-2.048,9.217s-1.92-2.305-4.992-3.457c0,0,2.815,5.762,2.815,7.682
					c0,0-4.352,4.736-5.505,4.865c0,0-4.735,4.158-10.399,2.24c0,0,3.744,2.398,5.184,3.166c1.441,0.768,0.769,0.482,0.769,0.482
					s-8.353-2.4-14.209-7.201c0,0,4.705,1.92,10.849,1.344c0,0-3.313-0.797-3.553-1.152c-0.191-0.287,4.705,1.057,6.818,0.289
					c2.11-0.77,2.015-1.635,2.015-1.635l1.152-4.414c0,0-4.417-5.473-14.688-1.248l-4.128,2.592c0,0,3.456,3.457,5.664,3.648
					c0,0-5.761-0.768-8.16-3.457c0,0,5.76-6.432,17.088-5.76c0,0-12.576-2.785-18.528,6.049c0,0,0.096,5.088,0.959,7.199
					c0,0-4.031-4.896-2.591-13.92C265.862,204.395,265.959,208.17,266.534,209.002z"/>
				<path fill="#CE917D" d="M244.453,244.141c0,0-0.768,5.951,1.535,7.486c0,0,12.098-7.871,16.13-5.373
					c4.032,2.494,6.335,3.455,6.335,3.455s6.337-1.729,6.528-5.186c0.192-3.455-1.919-14.016-5.759-20.545
					c0,0,10.176,14.592,8.448,19.393c-1.729,4.801-1.921,5.568-1.921,5.568s1.152,2.305-0.191,4.225
					c-1.345,1.92-4.16,3.904-5.824,4.352c-1.665,0.449-4.161-0.127-4.161-0.127s-2.879-1.729-5.184-1.537
					c-2.304,0.193-6.337,3.648-12.673,1.344C241.381,254.893,242.149,250.859,244.453,244.141z"/>
				<path fill="#CE917D" d="M229.283,288.494c0,0-0.384-10.367,4.801-10.945c2.864-0.318,7.489,0.385,7.489,0.385
					s8.353-6.816,13.633-6.816c0,0,1.44,0.096,3.168,0.961c1.727,0.863,2.88,0.863,4.031,0.576c1.151-0.289,3.84-0.961,4.225-0.865
					c0.384,0.096,4.032,0.191,5.952,4.992l1.057,2.594c0,0,3.264,0.189,4.128,1.15s1.152,3.648,1.056,5.664
					c0,0-0.575,0.096-1.633-0.768c-1.055-0.863-2.399-5.088-5.472-5.857c-3.072-0.768-8.641-1.727-8.641-1.727
					s-13.535,0.576-14.976,0.768s-5.666,1.344-5.666,1.344l0.481,0.48C242.917,280.43,234.181,281.676,229.283,288.494z"/>
				<path fill="#CE917D" d="M246.086,284.654c0,0,6.143,4.031,10.271,4.703c4.129,0.674,13.44-0.576,15.553-3.936
					c0,0-3.265,4.32-3.841,4.705c0,0-0.671,3.648-1.632,5.951c0,0,3.554,1.344,5.856,2.881c0,0-15.842-4.994-38.977,0.768
					c0,0,13.631-4.705,17.088-4.512c0,0-3.744-2.785-6.24-6.529c0,0,2.688,1.248,6.145,0.096
					C250.31,288.781,247.621,286.67,246.086,284.654z"/>
				<path fill="#CE917D" d="M280.229,292.719c0,0,2.24-13.441,0.13-15.361c-1.916-1.74-6.913,1.922-7.297,1.664
					c-0.385-0.256-0.641,0.768-0.641,0.768S278.567,284.141,280.229,292.719z"/>
				<path fill="#CE917D" d="M261.414,231.531c0.511,1.023,3.073,8.705,1.536,9.217c-1.536,0.512-11.009,0.256-14.08,3.326
					c0,0,7.423-6.4,9.983-7.936S261.414,231.531,261.414,231.531z"/>
				<path fill="#CE917D" d="M255.27,200.043c0,0,3.839,9.984,5.12,15.617c1.28,5.631,2.049,8.703,2.049,8.703l-7.169-15.104
					c0,0-4.352,8.703-12.801,9.215c0,0,7.681-4.863,6.912-12.031L255.27,200.043z"/>
				<path fill="#CE917D" d="M270.631,136.039c0,0,17.409,11.266,17.666,37.891l-8.706-0.257c0,0,10.495,1.536,18.433,12.544
					c7.937,11.008-2.56-5.119-2.56-5.119s-3.842-40.193-20.482-48.643C258.342,124.006,270.631,136.039,270.631,136.039z"/>
				<path fill="#CE917D" d="M157.089,257.389c0,0,4.096,28.801,15.36,41.09c11.266,12.287,46.979,38.273,48.515,45.953
					c1.535,7.682-0.512,18.945-0.512,18.945s-9.654-8.74-10.368-9.217c4.225,6.145,9.216,26.498,9.216,26.498
					s16.13-12.287,39.042-51.074c0,0-24.578-1.537-49.667-12.289s-25.744-14.096-30.464-18.816
					C173.602,293.869,160.161,279.406,157.089,257.389z"/>
				<path fill="#CE917D" d="M164.001,285.037c0.774,1.148,18.268,22.764,59.011,29.441c0,0,35.658-3.574,45.314,0.258
					c7.14,2.832,12.801-9.346,12.801-9.346s-0.646,18.092-15.617,19.33c-14.969,1.236-23.05-0.258-24.59-1.018
					c-1.542-0.76-29.234,4.744-48.886-6.664C172.385,305.633,164.001,285.037,164.001,285.037z"/>
				<path fill="#CE917D" d="M256.294,187.242c-0.334-1.002,1.792,11.008-3.585,13.566l2.561,3.586
					C255.27,204.395,261.414,202.602,256.294,187.242z"/>
				<path fill="#CE917D" d="M135.456,209.26c0.193-0.576-6.017-7.746-12.544-5.248c-6.528,2.494-13.412,18.488,5.567,38.785
					c0,0-11.104-11.672-8.256-27.074c0,0,1.919-4.416,9.216-1.537c0.246,0.098,0,0,0,0s3.904-4.223,4.865-4.031
					C135.265,210.346,135.456,209.26,135.456,209.26z"/>
				<path fill="#CE917D" d="M125.625,230.688c0,0,8.296-13.877,11.367-12.854c3.072,1.025,3.969,7.936,3.841,10.625
					c-0.128,2.688,1.887,4.629,3.167,6.291c1.281,1.664,1.75,5.688,1.75,5.688S143.5,246,132.125,240c0,0,7.17,3.562,9.219-0.02
					c0,0-8.832-5.633-4.607-14.211c0,0-8.986,3.293-5.236,13.293c0,0-3.375-5.938-0.908-11.244
					C130.592,227.818,126.906,228.129,125.625,230.688z"/>
				<path fill="#CE917D" d="M274.981,268.141c-0.374-0.729,7.318,8.641,6.527,11.137s-2.176,4.223-2.176,4.223
					S278.146,274.285,274.981,268.141z"/>
				<path fill="#CE917D" d="M198.562,189.418c0,0,11.905-11.904,28.802-12.289C227.364,177.129,208.162,170.984,198.562,189.418z"/>
				<path fill="#CE917D" d="M283.432,147.943c0,0-8.45-8.064-14.594-3.455c-6.144,4.607-21.121,12.672-38.402,6.912
					c0,0,16.513,0.383,16.13-7.297c-0.384-7.681-8.833-9.601-8.833-9.601s-25.729-0.768-23.809,6.528
					c1.92,7.297,3.457,9.6,3.457,9.6s-5.761-3.455-8.066-6.527c0,0-1.152,6.145-1.152,7.297c0,1.151-5.375-3.841-5.375-3.841
					s-2.305,9.601-11.904,12.288c0,0,4.251-9.6,1.535-9.6c-1.151,0-12.287,11.135-6.912,24.576c0,0-5.375-5.375-5.76-6.527
					c-0.383-1.152-6.529,7.296-3.072,9.984c3.457,2.688,2.689,3.84,1.537,4.992c-1.153,1.152-6.913,4.992-6.527,8.447
					c0.382,3.457,2.686,2.689,0,6.914c-2.689,4.223-7.938,13.951-6.019,22.4c1.921,8.447,30.339,17.023,27.649,34.305
					c-2.688,17.281-7.424,39.938,4.096,55.299c0,0-29.695-4.096-38.4-37.891c-5.856-22.732-5.461-28.457-5.885-30.998
					c-0.375-2.25,6.269-6.635,2.044-23.146c-4.224-16.514-5.761-20.738-4.609-26.883c1.153-6.145,8.45-27.648,10.369-30.721
					c1.921-3.071,14.594-20.353,16.513-20.353c1.922,0,16.897-23.425,31.105-23.425c14.209,0,38.019,3.455,41.858,5.76
					s13.056,6.145,14.592,8.832c1.537,2.688,3.841-7.68,8.449-3.84S283.432,147.943,283.432,147.943z"/>
				<path fill="#CE917D" d="M161.058,259.438c0.255,1.023,1.535,10.24-8.961,15.104c0,0,3.329-2.559,3.84-6.398
					c0,0-4.097,4.605-7.68,6.398c0,0,22.017,39.684-9.217,97.029c0,0,1.536,13.824,3.584,17.408
					c2.05,3.586-18.944-12.287-21.506-26.625c-2.558-14.336,0-16.385,0-16.385s20.483,2.305,24.324-13.568
					c0,0,2.814-54.531-9.218-73.73l-1.537-4.609c0,0,15.617,2.814,22.273-3.072C163.617,245.1,161.058,259.438,161.058,259.438z"/>
				<path fill="#CE917D" d="M258.854,326.129c0,0,8.832,46.85,6.527,52.609c-2.304,5.76-8.063,20.354-8.063,20.354
					s26.497-31.105,21.121-43.395s-8.063-11.904-8.063-11.904l-4.098-0.641l-0.256-16.129L258.854,326.129z"/>
				<path fill="#CE917D" d="M124.832,196.713c0,0,22.208,6.585,20.418,19.912c-1.961,14.594,3.625,16.25,3.625,16.25
					s3.5,2.625,4.5,11.5c1.096,9.73,6.786-8.875,6.786-8.875s-4.607-19.969-9.602-28.803
					C145.568,197.865,130.592,195.562,124.832,196.713"/>
				<path fill="#010101" d="M199.16,201.814c0,0,11.602-2.812,13.781-3.393c0,0-6.728,1.256-8.009,1.377
					c0,0,10.766-2.498,12.687-2.359l-5.888-0.033c0,0,7.812-0.596,9.217-0.203l-3.453-0.531c0,0,6.018-0.223,9.347-0.33
					c3.33-0.109-1.532-0.65-1.532-0.65s6.66-0.191,7.17-0.215c7.427-0.34,8.329-1.486,12.552-1.334
					c4.12,0.146,7.14-2.514,4.504-3.943c-5.488-2.975-13.042-2.506-17.145-1.377c-0.523,0.143-6.25,1.754-6.25,1.754l6.771-3.16
					l-11.095,3.615l5.682-2.943l-18.315,7.383l4.228-0.615l-10.256,2.629l7.048-1.24l-8.332,2l6.918-0.982l-8.846,2.381l5.766-1.119
					l-6.156,2.143l3.587-0.494L199.16,201.814z"/>
				<path fill="#010101" d="M300.968,195.818c0,0-0.768-3.713-4.095-5.504c0,0,1.918,1.406,2.815,4.352c0,0-1.664-4.225-9.729-3.584
					c0,0,3.199-0.641,4.864-0.641c0,0-7.169-0.768-12.545,3.455c0,0,3.072-2.43,3.84-2.814c0,0-6.017,2.561-5.633,4.096
					s5.12,3.969,8.833,4.607c0,0-2.944-0.639-4.863-2.559c0,0,6.399,1.664,9.472,3.199c3.072,1.537,4.737,3.713,4.864,4.736
					c0,0-0.511-2.688-3.072-4.479c0,0,3.969,2.047,4.48,5.629C300.2,206.312,302.377,199.914,300.968,195.818z"/>
				<path fill="#010101" d="M237.093,210.922c-0.36,0.133-0.384-1.662-0.384-1.662c-2.561,2.303-5.6,1.951-5.6,1.951
					c3.198-0.768,4.063-2.721,4.063-2.721c-0.128-2.686-3.841-6.271-3.841-6.271c-6.271-1.281-16.256,5.631-16.256,5.631
					c2.112,3.168,9.072,3.842,9.072,3.842c-6.193,0.238-10.225-2.816-10.225-2.816c-0.384-0.129-3.072,0.254-3.072,0.254
					c8.064-7.807,20.097-8.32,20.097-8.32s4.865,3.33,7.297,7.682c0,0,2.816,1.535,3.072,2.176
					C241.317,210.666,239.909,209.898,237.093,210.922z"/>
				<path fill="#010101" d="M206.756,207.723l2.688,0.256c0,0,14.336-8.576,21.248-7.936c0,0,3.456-0.385,7.425,3.84
					c0,0-3.073-4.482-6.272-5.121C226.602,197.713,210.085,205.93,206.756,207.723z"/>
				<path fill="#010101" d="M283.432,215.402c0,0,2.686,0.256,4.479-0.896c0,0,1.536-1.471,1.728-4.543c0,0-3.601-3.34-8-2.881
					c-6.143,0.641-9.601,3.969-9.601,3.969s2.176,2.176,4.353,3.072c0,0-4.673-1.215-5.824-3.842c0,0,6.208-5.887,16.191-4.352
					c0,0,1.025-0.383,0.896-1.279c0,0-4.031-2.111-15.104,1.154c0,0,6.018-4.162,13.889-3.266c5.27,0.598,8.257,7.742,8.257,7.742
					s-1.536,2.561-3.84,3.33l-1.025,2.176c0,0-1.664,2.943-9.471,1.279c0,0,6.016,0.961,8.769-1.217l-0.577-0.318
					C288.551,215.531,285.927,216.172,283.432,215.402z"/>
				<path fill="#010101" d="M260.198,253.262c0,0-3.841,4.127-6.146,2.879c-2.303-1.248,0.385-4.129,1.922-4.703
					c1.534-0.578,7.774-0.865,9.792,2.014C265.767,253.451,263.173,252.109,260.198,253.262z"/>
				<path fill="#010101" d="M244.357,245.869c0,0-2.688,7.199,0.479,9.6s6.432,1.727,6.432,1.727s-2.688,1.25-6.336-0.287
					C240.144,254.893,244.357,245.869,244.357,245.869z"/>
				<path fill="#010101" d="M240.037,279.406c0,0,11.392-9.346,16-8.449s4.256,1.984,9.729,0.514c0,0,6.271-1.281,7.808,8.318
					l-0.512-0.127c0,0-1.632-8.832-7.104-7.441c-3.917,0.996-5.233,1.201-9.984-0.672c0,0-5.568-0.143-13.891,7.473L240.037,279.406
					z"/>
				<path fill="#010101" d="M245.04,282.637c0,0,8.887,5.479,17.167,4.982c6.797-0.405,9.678-3.559,9.793-4.269
					c0,0-0.23,3.964-6.799,4.879C258.636,289.146,249.765,287.01,245.04,282.637z"/>
				<path fill="#010101" d="M273.574,279.789c0,0,3.072,0.512,3.585,1.41c0.512,0.895,0.283,4.447-0.257,3.199
					c-1.022-2.367-3.264-6.082-15.745-4.799c-6.378,0.652-13.056-1.41-19.138,0.574c0,0-1.854,0.064-2.302,0
					c-1.134-0.162-3.714-0.064-7.681,3.199c-0.313,0.258,2.13-4.039,8.704-4.16C243.814,279.156,256.165,274.67,273.574,279.789z"/>
				<path fill="#010101" d="M278.311,139.111c0,0,15.874,16.896,14.849,40.961l-5.12-3.072c0,0,11.776,7.553,12.8,17.922
					c0.586,5.91-2.304,11.008-3.329,13.312c-1.023,2.303-1.533,7.168-1.278,11.264c0.255,4.098,0.921,19.053-0.768,27.395
					c-1.438,7.094-7.913,33.398-12.801,50.947c-2.079,7.467-3.872,13.348-4.865,15.486c-2.853,6.148-5.887,9.09-12.288,10.625
					c-6.401,1.537-59.65-3.584-91.908-27.393c0,0-6.528-6.4-8.832-9.986c0,0,10.881,17.666,23.937,25.602
					c13.058,7.938,38.146,20.994,40.707,33.795l6.656-0.512c0,0,9.983-12.801,14.591-14.594c0,0,22.648-0.338,26.627-8.576
					c5.376-11.137,21.248-73.092,21.504-78.979c0.258-5.889-0.768-30.977-0.255-33.281c0,0,4.734-6.529,4.096-13.826
					c-0.976-11.111-7.168-15.104-7.168-15.104S299.304,157.288,278.311,139.111z"/>
				<path fill="#010101" d="M136.875,202.25c0,0-9.016-6.9-14.924-6.111c-5.76,0.768-13.824,7.68-10.369,20.543
					c3.457,12.865,9.986,27.074,12.098,30.146s8.064,6.912,15.168,9.408c0,0,7.104,5.568,12.481,3.842c0,0-4.993,1.535-7.68,0.766
					c0,0,7.296,2.689,12.479-1.535l-2.303-6.336c0,0-9.217,3.84-17.281,0.385c-8.065-3.457-9.601-6.145-11.905-9.217
					s-10.561-23.234-11.328-28.227c-0.769-4.992-0.931-16.492,9.023-18.049C128.479,196.906,136.875,202.25,136.875,202.25z"/>
				<path fill="#010101" d="M135.969,208.234c-0.193-0.574-7.489-7.68-14.594-4.992c-4.744,1.795-9.215,10.369-2.112,25.729
					c0,0-2.879-7.104-1.535-14.592c0,0,5.76-9.217,15.169-4.416c0,0-2.688,1.92-3.457,4.223c0,0,3.648-4.031,7.489-2.688
					L135.969,208.234z"/>
				<path fill="#010101" d="M129.055,225.322c0,0,6.721-9.791,8.834-8.062c2.112,1.727,3.648,4.607,3.648,9.023
					s2.495,8.064,4.031,10.369c1.537,2.303,1.343,9.217-9.793,4.99c0,0,8.066,2.113,8.834-0.383c0.767-2.496,0.575-3.84-0.96-5.568
					c-1.537-1.729-4.609-0.959-4.034-11.137c0,0,0.578-4.416-2.11-5.76C137.505,218.795,134.239,219.18,129.055,225.322z"/>
				<path fill="#010101" d="M270.95,226.283c0,0,7.488,13.824,6.08,18.434c-1.336,4.373-4.864,7.168-4.864,7.168
					s5.505-3.072,6.465-6.209C280.499,239.572,270.95,226.283,270.95,226.283z"/>
				<path fill="#010101" d="M137.889,254.316c0,0,22.656,62.594-1.92,112.133c0,0,19.585-49.922-2.688-112.9l3.265-0.191l5.184,24
					c0,0-10.753-17.666-13.058-19.969c-2.303-2.305-36.097-58.371-17.664-105.221c0,0,3.456-13.824,9.217-18.049
					c5.76-4.225,6.145-4.992,6.528-6.145c0.384-1.151,14.977-24.193,29.569-26.881c0,0,42.626-27.649,73.73-11.137
					c0,0,11.138,7.297,15.361,8.064s37.25,25.729,41.474,38.785c4.225,13.057,8.447,23.811,6.529,37.25
					c0,0-4.993-30.081-15.618-34.689c-10.622-4.607-13.952,11.648-27.393,10.113c-13.44-1.537-24.961-8.833-24.961-8.833
					s17.28,9.601,22.657,4.224c5.376-5.376-1.153-11.136-1.153-11.136s-35.712-5.761-35.712,4.608c0,0-1.025,3.84,2.815,7.68
					c0,0-5.633-1.793-5.89-9.473c0,0-2.815,7.169-0.767,12.289c0,0-3.072-5.377-3.072-8.961c0,0,0,16.641-16.896,15.617
					c0,0,8.193,1.279,7.425-13.057c0,0-18.179,9.473-7.938,27.905c0,0-7.936-4.352-6.144-18.688c0,0-2.56,13.824-9.217,19.201
					c0,0-6.144,6.656,5.632,9.984c0,0-4.608,2.816-6.655,2.303c0,0-3.072,5.121-3.841,6.145c0,0,0.257,4.098,3.841,5.377
					c0,0-4.608,0.77-8.449-1.279c0,0,1.757,1.611,2.561,2.814c0.512,0.77,0.255,5.889,0.255,5.889s-7.936-1.791-9.471-3.582
					c0,0,4.863,5.887,7.167,6.91c0,0-6.913,10.752-7.424,18.178c0,0-6.655-22.018-22.272-24.834c0,0-19.201-5.633-19.714,7.168
					c-0.603,15.092,3.072,23.299,5.12,27.393c2.049,4.098,13.314,18.18,13.314,18.18L137.889,254.316z"/>
				<path fill="#010101" d="M283.686,197.225c0,0-11.775,1.025-16.384,11.904c0,0,3.457-10.879,14.722-13.824L283.686,197.225z"/>
				<path fill="#010101" d="M268.069,256.623c0,0,0.706-1.348,4.929-2.756c0,0,0.576,1.539-3.264,3.648
					C269.734,257.516,268.326,257.262,268.069,256.623z"/>
				<path fill="#010101" d="M276.262,248.301c0,0-0.766,4.543-2.559,6.463c-1.792,1.92-4.032,3.264-4.032,3.264
					s4.736-1.982,5.632-3.902c0.895-1.92,1.856-6.979,1.856-6.979L276.262,248.301z"/>
				<path fill="#010101" d="M267.56,376.689c0,0-5.635-49.154-4.099-49.154s4.099-1.537,4.099-1.537V376.689z"/>
				<path fill="#010101" d="M430.381,428.916c0,0-4.096-24.578-19.969-33.281c-15.872-8.705-119.813-47.617-119.813-47.617
					s-10.753-6.146-16.896-6.146s-8.705-0.51-8.705-0.51v4.352c0,0,14.594,4.607,11.138,18.049
					c-3.457,13.439-18.434,46.082-59.522,61.826c0,0-56.067-16.129-87.558-51.074c0,0-12.287-18.434-2.303-26.881
					c0,0,9.601,1.92,17.28-10.752c0,0-4.224,6.143-10.752,6.527c0,0-14.978-4.225-21.12,3.457
					c-6.146,7.68-12.674,12.672-12.674,12.672s-56.066,15.361-80.644,26.496c-24.576,11.137-48.002,14.594-54.915,44.932
					c0,0,11.904-28.803,56.451-41.859c0,0,77.956-25.729,79.876-26.496c0,0,1.92,12.289,11.136,21.889c0,0-9.984-15.744-7.68-22.658
					c0,0,6.912-10.752,9.217-10.752c0,0,15.743,54.916,104.068,77.188c0,0,51.073-19.969,62.211-64.898
					c0,0,1.152-11.904-3.842-17.281c0,0,10.754,3.072,13.825,5.377c3.072,2.305,116.358,45.314,120.197,47.234
					C413.229,400.627,423.724,403.061,430.381,428.916z"/>
				<g>
					<defs>
						<path id="SVGID_447_" d="M214.309,207.85c0,0,10.56-7.104,16.032-6.336c5.472,0.768,4.032,2.592,4.896,4.322
							c0.864,1.727,0.384,3.742,0.384,3.742S224.195,215.625,214.309,207.85z"/>
					</defs>
					<clipPath id="SVGID_30_">
						<use xlink:href="#SVGID_447_"  overflow="visible"/>
					</clipPath>
					<ellipse clip-path="url(#SVGID_30_)" fill="#94976B" cx="227.536" cy="206.912" rx="4.697" ry="5.186"/>
					<path clip-path="url(#SVGID_30_)" fill="#010101" d="M225.686,210.043c-0.681-0.65-1.11-1.609-1.11-2.68
						c0-1.959,1.438-3.549,3.213-3.549c1.775,0,3.215,1.59,3.215,3.549c0,0.969-0.354,1.844-0.923,2.484
						c0.9-0.768,1.484-1.967,1.484-3.322c0-2.318-1.705-4.199-3.807-4.199c-2.098,0-3.801,1.881-3.801,4.199
						C223.957,208,224.646,209.295,225.686,210.043z"/>
					<ellipse clip-path="url(#SVGID_30_)" fill="#010101" cx="227.92" cy="206.426" rx="2.769" ry="3.059"/>
					<path clip-path="url(#SVGID_30_)" fill="#010101" d="M224.902,211.238c-0.85-0.814-1.391-2.008-1.391-3.348
						c0-2.445,1.796-4.432,4.012-4.432c2.219,0,4.016,1.986,4.016,4.432c0,1.207-0.441,2.305-1.152,3.104
						c1.126-0.957,1.854-2.457,1.854-4.146c0-2.896-2.128-5.244-4.75-5.244c-2.623,0-4.748,2.348-4.748,5.244
						C222.742,208.688,223.602,210.303,224.902,211.238z"/>
				</g>
				<g>
					<defs>
						<path id="SVGID_449_" d="M271.91,210.059c0,0,10.08-5.568,14.594-3.264c4.511,2.303,4.224,4.607,4.224,4.607l-1.633,3.264
							c0,0-10.272,3.457-17.664-4.031C271.431,210.443,271.91,210.059,271.91,210.059z"/>
					</defs>
					<clipPath id="SVGID_32_">
						<use xlink:href="#SVGID_449_"  overflow="visible"/>
					</clipPath>
					<ellipse clip-path="url(#SVGID_32_)" fill="#94976B" cx="284.431" cy="210.139" rx="4.381" ry="4.838"/>
					<path clip-path="url(#SVGID_32_)" fill="#010101" d="M281.976,214.174c-0.793-0.758-1.298-1.873-1.298-3.123
						c0-2.283,1.676-4.131,3.743-4.131s3.744,1.848,3.744,4.131c0,1.127-0.411,2.148-1.074,2.895
						c1.048-0.895,1.728-2.291,1.728-3.867c0-2.701-1.984-4.891-4.43-4.891s-4.429,2.189-4.429,4.891
						C279.96,211.793,280.762,213.301,281.976,214.174z"/>
					<path clip-path="url(#SVGID_32_)" fill="#010101" d="M282.707,213.059c-0.636-0.607-1.038-1.502-1.038-2.5
						c0-1.826,1.343-3.309,2.998-3.309s2.997,1.482,2.997,3.309c0,0.904-0.33,1.721-0.859,2.318
						c0.838-0.717,1.382-1.836,1.382-3.098c0-2.162-1.588-3.916-3.547-3.916c-1.957,0-3.546,1.754-3.546,3.916
						C281.094,211.152,281.736,212.361,282.707,213.059z"/>
					<ellipse clip-path="url(#SVGID_32_)" fill="#010101" cx="284.789" cy="209.686" rx="2.582" ry="2.852"/>
				</g>
				<path fill="#FFFFFF" d="M285.814,208.893c-0.005-0.031-0.012-0.062-0.017-0.092c-0.062-0.328-0.337-0.5-0.631-0.533
					c-0.063-0.391-0.346-0.742-0.873-0.771c-0.617-0.033-1.438,0.586-1.065,1.271c0.214,0.393,0.625,0.613,1.065,0.588
					c0.019-0.002,0.03-0.008,0.048-0.012c0.099,0.303,0.355,0.533,0.722,0.533C285.601,209.877,285.908,209.383,285.814,208.893z"/>
				<path fill="#FFFFFF" d="M228.206,202.992c-0.516,0.049-1.045,0.258-1.382,0.67c-0.24,0.293-0.152,0.693,0.217,0.822
					c0.399,0.139,0.733,0.318,1.165,0.354C229.399,204.936,229.392,202.881,228.206,202.992z"/>
				<path fill="#FFFFFF" d="M230.158,203.672c-0.023-0.01-0.045-0.02-0.066-0.029c-0.434-0.197-0.977,0.031-0.977,0.561
					c0,0.527,0.543,0.756,0.977,0.559c0.021-0.01,0.043-0.02,0.066-0.031C230.558,204.549,230.558,203.855,230.158,203.672z"/>
				<path fill="#554B4B" d="M236.58,125.799c0,0-8.96-8.961-17.152-4.096c-8.191,4.863-8.96,11.264-8.96,11.264l0.512-4.607
					c0,0-3.386,4.823-4.607,6.655c-0.513,0.769,2.816-14.08,13.056-15.616c10.24-1.536,12.801-2.305,23.297,7.425
					c0,0-4.865-3.072-7.681-4.353C235.044,122.471,235.812,124.006,236.58,125.799z"/>
				<path fill="#554B4B" d="M255.525,118.374c-0.256-0.769-5.633-10.239-14.336-12.8c0,0,3.327,4.607,3.84,7.424
					c0,0-8.705-15.361-19.201-1.535l-1.024-2.561c0,0-6.145,2.303-6.656,3.327c-0.511,1.024-10.56,1.345-13.248,19.778l1.216-13.89
					c0,0-2.561,3.329-7.168,5.376c0,0,4.096-3.584,4.864-6.656c0,0-7.938,3.84-10.497,5.121c0,0,5.889-5.377,6.145-6.145
					l-7.937,3.328c0,0,16.129-11.008,18.945-13.057c2.815-2.048,5.376-4.097,5.376-4.097s-6.399-1.536-14.849,3.329
					c-8.447,4.863-11.521,4.352-11.521,4.352s-5.121,6.016-10.496,11.265c0,0,8.511-12.429,9.984-13.313
					c1.279-0.768-3.072,2.561-7.424,2.049c-4.354-0.512-3.328-2.049-3.328-2.049s-5.634,6.4-8.449,7.169l6.401-7.425
					c0,0-12.032,9.729-14.338,13.312c0,0,1.024-6.399,0.769-5.375c-0.256,1.023-6.657,5.888-9.984,6.912c0,0,8.17-7.082,8.449-8.193
					c0.254-1.023-5.634,3.584-10.499,4.865c-4.862,1.279-8.704,1.791-8.704,1.791s18.689-24.576,35.586-27.393
					c0,0-4.644,2.452-4.351,3.328c4.734-2.624,31.232-18.752,55.298-3.84c4.464,2.767,7.167,5.889,15.36,8.703
					c0,0-5.89-2.814-7.68-4.607c0,0,6.145,1.28,12.544,4.607c6.401,3.329,16.385,10.753,22.273,21.25c0,0-6.146-9.984-17.152-13.312
					c0,0,5.374,4.864,6.911,7.936c0,0-4.608-4.096-6.911-4.863L255.525,118.374z"/>
				<path fill="#554B4B" d="M187.043,134.119c0,0-6.721,10.944-4.607,21.312c0,0,1.533-11.904,13.247-16.32
					c0,0-6.336-0.768-10.752,6.145C184.931,145.256,185.315,136.039,187.043,134.119z"/>
				<path fill="#554B4B" d="M200.482,137.575c0,0,1.921,11.137-4.992,15.169c0,0,10.176-3.84,7.873-17.857
					c0,0,0.384,5.568-0.96,8.641C202.403,143.527,201.635,138.535,200.482,137.575z"/>
				<path fill="#554B4B" d="M248.294,146.982c0,0,6.528-1.535,2.879-13.247c0,0,3.842,8.063,1.152,11.905
					c0,0,9.793,1.919,14.401-8.834C266.727,136.807,265.573,149.096,248.294,146.982z"/>
				<path fill="#554B4B" d="M126.368,132.583c0,0-9.793,5.952-10.561,11.905c0,0,3.84-4.801,4.8-4.993c0,0-3.264,5.185-5.953,11.328
					c-2.688,6.146-6.143,17.856-6.143,17.28c0-0.575,4.991-11.135,8.256-14.4c0,0-1.537,5.568,0.767,4.609
					c2.306-0.961,11.521-3.456,13.25-2.305l-2.496-1.535c0,0,5.568,1.535,6.912,1.728c1.345,0.192,6.528-10.753,8.832-11.904
					c0,0-3.456,4.224-3.839,9.024c0,0,2.111-6.912,11.328-13.058c0,0-2.688,4.417-0.769,6.337s1.728,6.145,1.728,6.145
					s1.536-4.416,0.961-6.145c0,0,4.031,5.376,2.495,6.912c-1.535,1.536-1.151,6.529-1.151,6.529s-0.191-3.841,4.416-7.297
					c4.608-3.457,6.336-10.753,6.336-10.753s0,6.528-1.92,9.217s-2.111,6.528-2.111,6.528s5.76-14.018,16.705-21.121
					c0,0-7.49,4.416-9.409,6.721c0,0,2.496-5.761,2.304-6.913c0,0-4.608,7.681-4.992,8.641c0,0,0.769-9.216-1.344-10.944
					c0,0,2.496,6.336-1.536,9.217c-4.032,2.879-4.032,2.879-4.032,2.879s-1.344-5.567,0.192-9.023c0,0-3.457,4.416-3.648,5.951
					l-0.96-4.031c0,0-0.769-2.688-1.921-2.881c-1.151-0.191-10.176,0.576-10.176,0.576s-4.033,3.648-4.607,8.641
					c0,0,1.92-8.256,2.688-9.408c0,0-5.185-0.191-6.529-0.385c0,0-3.839,3.266-5.185,5.186c0,0,1.729-6.145,2.497-6.528
					c0,0-9.409,6.528-10.944,13.44c0,0,4.992-12.673,7.681-13.44l-3.841,2.111l1.921-4.608"/>
				<path fill="#554B4B" d="M250.021,120.486c0,0,7.872,8.641,7.872,16.32C257.893,136.807,254.629,126.439,250.021,120.486z"/>
				<path fill="#554B4B" d="M259.622,119.143c0,0,3.455,7.681,3.648,11.713L259.622,119.143z"/>
				<path fill="#554B4B" d="M176.289,151.976c0.045-0.69-1.15,17.858-13.248,22.081c0,0,9.792-6.912,9.408-18.24
					c0,0,0.384,6.721-0.766,9.793C171.684,165.609,175.906,157.929,176.289,151.976z"/>
				<path fill="#554B4B" d="M167.649,176.938c0,0,2.688,3.84,5.567,3.84c0,0-2.111,2.496-9.407,0.385c0,0,4.224,0.574,6.144,0
					C169.953,181.162,167.649,177.896,167.649,176.938z"/>
				<path fill="#554B4B" d="M159.394,184.809c0,0,4.224,6.338,7.296,8.064c0,0-3.456,0.961-6.912-0.959c0,0,2.304-0.193,3.072,0
					C163.617,192.105,159.777,186.152,159.394,184.809z"/>
				<path fill="#554B4B" d="M145.952,158.888c0,0-4.415,11.713-6.912,12.864C139.04,171.752,144.417,161.959,145.952,158.888z"/>
			</g>
		</g>
		<g>
			<path fill="#FFFFFF" d="M200.001,524.574c-15.624,0-28.334-12.711-28.334-28.334c0-15.622,12.71-28.332,28.334-28.332
				c15.622,0,28.332,12.71,28.332,28.332C228.333,511.863,215.623,524.574,200.001,524.574z"/>
			<path fill="#D4B86E" d="M200.001,469.908c14.543,0,26.332,11.789,26.332,26.332c0,14.545-11.789,26.334-26.332,26.334
				c-14.545,0-26.334-11.789-26.334-26.334C173.667,481.697,185.456,469.908,200.001,469.908 M200.001,465.908
				c-16.726,0-30.334,13.607-30.334,30.332c0,16.727,13.608,30.334,30.334,30.334c16.726,0,30.332-13.607,30.332-30.334
				C230.333,479.516,216.727,465.908,200.001,465.908L200.001,465.908z"/>
		</g>
		<g>
			<path fill="#ED3B27" d="M177.334,490.631c3.098-12.521,15.758-20.154,28.275-17.057c12.521,3.098,20.154,15.758,17.058,28.277
				c-3.099,12.52-15.757,20.156-28.277,17.057C181.871,515.811,174.234,503.15,177.334,490.631"/>
			<g>
				<defs>
					<path id="SVGID_451_" d="M177.334,490.631c3.098-12.521,15.758-20.154,28.275-17.057c12.521,3.098,20.154,15.758,17.058,28.277
						c-3.099,12.52-15.757,20.156-28.277,17.057C181.871,515.811,174.234,503.15,177.334,490.631"/>
				</defs>
				<clipPath id="SVGID_34_">
					<use xlink:href="#SVGID_451_"  overflow="visible"/>
				</clipPath>
				<path clip-path="url(#SVGID_34_)" fill="#F2F2F2" d="M197.133,471.682c-2.819-0.535-5.629,1.08-8.318,1.549v18.656h-11.754
					c-0.539,2.818-0.541,5.627-0.077,8.316h11.831v19.045c2.824,0.492,5.634,1.824,8.318,1.316v-20.361h25.879
					c0.489-2.824,0.444-5.633-0.066-8.316h-25.812V471.682z"/>
			</g>
		</g>
	</g>
	<g>
		<g>
			<defs>
				<polygon id="SVGID_453_" points="775.999,420.615 619.999,490.74 463.999,420.615 463.999,145.678 775.999,145.678 				"/>
			</defs>
			<clipPath id="SVGID_36_">
				<use xlink:href="#SVGID_453_"  overflow="visible"/>
			</clipPath>
			<path clip-path="url(#SVGID_36_)" fill="#1C8644" d="M881.206,476.822c0,0-7.494-8.115-17.404-17.118
				c7.617,4.761,13.146,8.212,13.146,8.212s-39.879-31.359-44.523-33.295c-4.648-1.937-26.717-13.164-33.686-16.262
				c-6.969-3.097-36.393-20.521-37.941-20.907s-21.682-12.001-21.682-12.001s-8.131-2.712-9.291-4.646
				c-1.162-1.936-8.906-10.065-10.842-11.228c-1.906-1.145-4.926-3.943-14.096-0.986c0.402-14.064,0.906-28.311,1.164-35.378
				c3.789-5.246,6.529-10.624,7.559-17.825c0.922-6.453,2.301-14.735,3.609-22.705c8.275,1.452,14.152-8.411,14.152-8.411
				c3.873-5.161,4.906-16.39,4.906-16.776s2.062-13.81,2.709-17.939c0.645-4.13-1.678-11.744-2.451-14.454
				c-0.775-2.71-1.291-4.388-5.293-4.903c-2.713-0.351-6.193,2.918-8.154,5.059c0.135-2.652,0.311-4.877,0.541-6.221
				c0.969-5.613,3.291-15.68,4.064-18.584c0.775-2.904,6.582-31.166-9.098-45.686c0,0-5.227-5.42-5.613-8.711
				c-0.389-3.291-5.033-11.809-7.164-13.551c0,0-6.775-18.584-21.293-25.553c0,0-5.807-1.355-7.162-2.904
				s-18.004-23.035-35.039-23.424c-17.035-0.387-22.842,6.97-22.842,6.97s-30.393,3.291-38.33,26.714
				c0,0-12.389,6.582-12.584,20.714c-0.191,14.132-0.387-1.162-0.387-1.162s-22.842,30.199-21.1,54.01
				c1.363,18.629,3.555,31.332,4.631,36.351c-2.709-1.94-5.861-3.334-8.76-2.473c-3.623,1.074-5.904,5.399-7.324,9.918
				c-0.307,0.893-0.58,1.879-0.814,2.963c-1.133,4.731-1.412,8.928-1.412,8.928c-0.646,10.713,11.484,31.232,15.873,35.232
				c4.826,4.4,6.453,5.163,13.164,4.646c3.154-0.242,4.701-0.085,5.467,0.148c0.154,0.818,0.311,1.641,0.469,2.466
				c-0.049-0.138-0.076-0.212-0.076-0.212c0.195,0.579,4.754,45.079,7.787,74.825c-0.391,0.339-0.898,0.783-1.482,1.298l-0.42-0.06
				c0,0-0.188,0.22-0.455,0.835c-1.73,1.538-3.824,3.443-5.352,4.973c-3.1,3.097-8.906,3.097-8.906,3.097s-5.42-1.548-8.129,0.387
				c-2.711,1.937-11.23,6.969-14.326,9.293c-3.098,2.322-71.625,21.293-105.695,36.006c-22.678,9.793-33.17,24.724-37.656,33.618
				c-5.283,7.639-9.578,16.032-9.578,22.907c0,16.262,15.486,40.266,15.486,40.266s466.92,8.518,480.857-1.548
				C894.37,511.667,881.206,476.822,881.206,476.822z M576.177,371.546c0.021,0.219,0.045,0.432,0.066,0.648l-0.307-0.044
				C576.015,371.948,576.093,371.747,576.177,371.546z"/>
		</g>
		<g>
			<defs>
				<polygon id="SVGID_455_" points="775.999,420.65 619.999,490.768 463.999,420.65 463.999,72.381 775.999,72.381 
					775.999,334.107 				"/>
			</defs>
			<clipPath id="SVGID_38_">
				<use xlink:href="#SVGID_455_"  overflow="visible"/>
			</clipPath>
			<g clip-path="url(#SVGID_38_)">
				<path fill="#FFFFFF" d="M852.706,473.822c0,0-27.875-30.199-47.234-38.718c-19.359-8.517-50.332-24.778-58.85-30.198
					s-30.199-16.261-30.199-16.261l-11.42-7.55c0,0-10.262,19.939-11.809,23.036c-1.551,3.098-56.527,71.238-109.955,27.102
					c-53.43-44.137-48.783-49.557-48.783-49.557s-5.809-6.969-11.229-2.324c-5.42,4.647-19.486,12.004-22.584,12.004
					c-3.096,0-68.4,25.165-82.338,27.487c-13.938,2.323-29.967,13.938-34.34,17.036c-4.377,3.097-28.381,27.876-28.381,44.136
					c0,16.262,15.486,40.266,15.486,40.266s466.92,8.518,480.859-1.548C865.868,508.667,852.706,473.822,852.706,473.822z"/>
				<path fill="#010101" d="M675.979,365.717c-0.873,0.292,9.857,7.829,9.582,19.455c0,0-19.164,39.779-64.461,56.62
					c0,0-49.09-10.945-71.934-43.854c0,0-7.742-17.037-0.773-30.975c0,0-5.42,4.646-8.518,7.744
					c-3.098,3.097-8.904,3.097-8.904,3.097s-5.42-1.548-8.131,0.387c-2.711,1.937-11.229,6.969-14.324,9.293
					c-3.098,2.322-71.627,21.293-105.695,36.006c-34.07,14.712-40.654,41.039-40.654,41.039s16.648-30.586,40.654-39.104
					c0,0,102.598-32.908,104.533-34.845c1.936-1.936,15.1-10.066,17.422-9.68c0,0,3.098,15.875,8.906,25.555
					c0,0-6.582-14.713-5.42-25.555c0,0,6.193-0.387,8.902-1.162c2.711-0.773,2.711-0.773,2.711-0.773s3.484,16.26,10.453,23.229
					c0,0,23.248,32.821,71.643,42.5c0,0,55.348-21.979,67.738-66.116c0,0,2.322-11.228-6.582-12.389c0,0,4.258-3.485,10.451,6.193
					c6.195,9.681,11.615,9.293,12.777,10.067s10.066,7.743,10.066,7.743s15.1,7.356,18.197,9.679
					c3.096,2.322,49.943,24.778,57.686,29.812c7.746,5.033,56.143,35.231,56.143,35.231s-39.879-31.359-44.525-33.295
					c-4.648-1.937-26.715-13.164-33.684-16.262c-6.969-3.097-36.393-20.521-37.941-20.907c-1.551-0.387-21.682-12.001-21.682-12.001
					s-8.131-2.712-9.293-4.646c-1.16-1.936-8.904-10.065-10.84-11.228S685.478,362.535,675.979,365.717z"/>
			</g>
		</g>
	</g>
	<g>
		<g>
			<defs>
				<polygon id="SVGID_475_" points="-64,420.271 -220,490.389 -376,420.271 -376,71.998 -64,71.998 -64,333.729 				"/>
			</defs>
			<clipPath id="SVGID_40_">
				<use xlink:href="#SVGID_475_"  overflow="visible"/>
			</clipPath>
			<g clip-path="url(#SVGID_40_)">
				<path fill="#B7202D" d="M-453.843,428.865c0,0,42.687-20.172,50.902-23.608c6.291-2.627,18.546-19.798,23.208-17.885
					c4.66,1.914,12.668,6.419,12.668,6.419l15.698-11.486c0,0,14.663-3.7,17.308-3.739c2.646-0.041,21.702-8.272,24.654-9.807
					c2.236-1.162,10.706-2.812,10.706-2.812s4.473,32.676,20.591,48.304c16.116,15.628,71.17,25.365,97.451,13.714
					c26.281-11.65,54.436-30.605,54.436-30.605l10.326-16.696l7.325,3.194l14.632,5.066c0,0,80.361,20.591,103.752,79.106
					l9.453,55.421c0,0-436.755-10.474-473.903-17.179C-491.785,499.569-453.843,428.865-453.843,428.865z"/>
			</g>
		</g>
	</g>
</g>
</svg>
