<?xml version="1.0" encoding="utf-8"?>
<!-- Generator: Adobe Illustrator 16.0.0, SVG Export Plug-In . SVG Version: 6.00 Build 0)  -->
<!DOCTYPE svg PUBLIC "-//W3C//DTD SVG 1.1//EN" "http://www.w3.org/Graphics/SVG/1.1/DTD/svg11.dtd">
<svg version="1.1" xmlns="http://www.w3.org/2000/svg" xmlns:xlink="http://www.w3.org/1999/xlink" x="0px" y="0px" width="400px"
	 height="560px" viewBox="0 0 400 560" enable-background="new 0 0 400 560" xml:space="preserve">
<g id="Layer_1" display="none">
	<g display="inline">
		<g>
			<defs>
				<polygon id="SVGID_67_" points="-64,420.613 -220,490.73 -376,420.613 -376,72.34 -64,72.34 -64,334.07 				"/>
			</defs>
			<clipPath id="SVGID_2_">
				<use xlink:href="#SVGID_67_"  overflow="visible"/>
			</clipPath>
			<g clip-path="url(#SVGID_2_)">
				<path fill="#C52328" d="M9.741,555.505c0,0-8.631-100.488-42.539-121.45c-46.236-27.742-65.965-37.605-68.431-38.222
					c-2.466-0.617-34.523-14.18-36.989-15.412c-2.467-1.233-14.18-9.248-14.18-9.248s5.067,52.682-46.826,58.277
					c-47.159,5.086-87.776-33.001-102.366-55.812c0,0-15.412,5.55-18.495,6.165c-3.082,0.618-101.722,49.938-112.818,63.5
					c-11.097,13.563-8.014,156.59-8.014,156.59L9.741,555.505z"/>
			</g>
		</g>
	</g>
	<g display="inline">
		<g>
			<g>
				<defs>
					<polygon id="SVGID_73_" points="-63.837,-161.645 -219.837,-91.52 -375.837,-161.645 -375.837,-436.582 -63.837,-436.582 					
						"/>
				</defs>
				<clipPath id="SVGID_4_">
					<use xlink:href="#SVGID_73_"  overflow="visible"/>
				</clipPath>
				<g clip-path="url(#SVGID_4_)">
					<g>
						<path fill="#437FA9" d="M68.313-68.752c0,0-1.782-5.802-4.798-14.683c2.199,5.276,3.548,8.544,3.548,8.544
							s-30.169-83.984-38.322-91.73c-3.285-3.121-5.966-5.171-8.14-6.548l0.258-0.111c0,0-0.508-0.209-1.367-0.56
							c-2.408-1.383-4.086-1.87-5.172-2.104c-4.878-1.974-11.262-4.527-14.661-5.763c-5.98-2.174-25.549-10.056-27.451-11.144
							c-1.903-1.088-25.006-11.96-36.421-18.482c-8.37-4.782-15.858-9.124-19.261-11.103c-0.024-0.026-0.037-0.04-0.037-0.04
							l-0.036-0.002c-1.192-0.693-1.867-1.087-1.867-1.087s-11.575-9.257-25.968-10.761c-0.018-0.051-0.037-0.102-0.055-0.153
							c-4.118-14.207-5.505-35.562-5.505-35.562s0.815-10.872,1.358-15.764c0.488-4.391,5.131-13.588,6.08-15.434
							c2.16-1.582,4.275-4.01,6.151-7.669c6.488-12.654,5.878-21.947,5.151-28.812c12.577-38.281-1.082-73.53-2.094-74.947
							c-1.02-1.427-2.854-7.949-2.854-7.949c-6.931-24.258-49.943-50.758-54.835-53c-4.893-2.243-11.62-7.542-11.62-7.542
							c0.816,1.019,3.671,3.465,3.671,3.465c-2.854-0.204-12.844-3.874-12.844-3.874c2.854,2.039,12.027,5.3,12.027,5.3
							c-10.193-1.834-37.305-12.842-37.305-12.842c-11.822-2.039-25.684,4.688-25.684,4.688c0.612,0,4.688,0.408,4.688,0.408
							c-4.281,0.407-16.104,9.173-16.104,9.173l5.301,0.815c-1.02,0-6.728,4.077-6.728,4.077l4.893-0.408
							c-6.728,2.039-8.154,6.115-8.154,6.115c0.815-0.612,4.893-2.039,4.893-2.039c-10.804,5.504-17.123,27.52-17.938,28.131
							c-0.618,0.464-3.689,2.562-5.144,3.554c1.196-0.607,3.309-1.312,3.309-1.312c-8.357,5.504-11.822,16.92-11.822,16.92
							c0.406-1.224,3.057-4.077,3.057-4.077c-6.047,8.753-6.503,30.927-6.412,40.229c-0.266,2.824-0.47,5.813-0.586,8.966
							c0,0,1.359,9.241-0.815,15.493c-2.174,6.251-4.349,17.666-2.718,29.354c1.631,11.686,3.805,39.953,4.077,44.03
							c0.259,3.896,8.471,32.854,25.329,46.802l6.893,28.611c-0.009,0.005-0.021,0.011-0.03,0.015l-0.12-0.411
							c0,0-3.805,2.087-8.873,4.849c-7.047,3.453-16.598,8.076-25.101,12.001c-15.901,7.339-46.886,17.124-51.37,19.569
							l-0.283,0.223c-1.822,0.51-4.473,1.23-8.279,2.224c-9.376,2.446-36.022,58.575-35.469,57.485
							c0.735-1.448,1.459-2.854,2.174-4.228c-1.59,3.27-2.669,5.931-2.989,7.625c-1.902,10.057-0.972,46.363,3.31,49.421
							c0.797,0.569,15.298,2.22,38.589,4.237c0.148,6.365,0.328,11.019,0.548,12.885c1.223,10.396,3.057,20.18,3.057,20.18
							l37.914-25.684c0,0,0.021-1.55,0.07-4.121c17.146,1.222,36.23,2.444,56.417,3.547l-6.954,48.272l62.373-8.562l5.232-36.968
							c22.82,0.804,45.976,1.342,68.483,1.469c-4.62,36.768-8.896,70.967-8.896,70.967l45.864,14.064
							c0,0,10.033-56.859,13.507-85.536C7.341-47.804,56.847-54.122,68.313-68.752z M-188.254-150.494
							c-0.038,0.074-0.072,0.143-0.105,0.208C-188.317-150.369-188.28-150.441-188.254-150.494z M-188.445-150.115
							c-0.096,0.189-0.167,0.33-0.219,0.434C-188.601-149.809-188.521-149.965-188.445-150.115z M-238.257-186.896
							c0.279,1.606,0.417,2.592,0.366,2.743c-0.402-2.012-0.804-4.116-1.171-6.086L-238.257-186.896z M-234.89-179.32
							c0.08,0.126,0.16,0.252,0.241,0.377c-1.13-1.213-2.02-2.386-2.593-3.484C-236.622-181.441-235.687-180.265-234.89-179.32z
							 M-352.603-149.43c-4.032,6.259-8.341,13.241-12.039,19.658C-360.105-137.86-356.094-144.303-352.603-149.43z"/>
					</g>
				</g>
			</g>
			<g>
				<defs>
					<polygon id="SVGID_75_" points="-63.837,-161.645 -219.837,-91.527 -375.837,-161.645 -375.837,-509.918 -63.837,-509.918 
						-45.925,-364.854 -63.837,-248.188 					"/>
				</defs>
				<clipPath id="SVGID_6_">
					<use xlink:href="#SVGID_75_"  overflow="visible"/>
				</clipPath>
				<g clip-path="url(#SVGID_6_)">
				</g>
			</g>
		</g>
	</g>
	<g display="inline">
		<polygon fill="#213E73" points="400.361,559.742 0.361,560.258 -0.361,0 399.639,0 		"/>
		<g>
			<polygon fill="#E02B3A" points="399.935,242.836 399.676,42.682 0.069,334.084 0.361,560.258 			"/>
		</g>
		<g>
			<g>
				<polygon fill="#FFFFFF" points="39.848,423.733 39.482,141.385 360.482,140.971 360.848,423.319 200.44,495.674 				"/>
				<g>
					<path fill="#020202" d="M355.988,145.477l0.355,274.938l-155.91,70.326l-156.09-69.924l-0.355-274.938L355.988,145.477
						 M364.977,136.465l-9,0.012l-312,0.402l-9,0.012l0.012,9l0.355,274.938l0.007,5.821l5.313,2.381l156.09,69.924l3.692,1.653
						l3.688-1.663l155.91-70.326l5.308-2.394l-0.008-5.822l-0.355-274.938L364.977,136.465L364.977,136.465z"/>
				</g>
			</g>
			<g>
				<path fill="#D3B76E" d="M364.814,136.465l0.012,9l0.355,274.938l0.007,5.826L200.284,500.24L35.188,426.279l-0.007-5.451
					l-0.355-274.938l-0.011-9l9-0.012l311.999-0.402L364.814,136.465 M371.806,129.456l-7,0.009l-9,0.012l-311.999,0.402l-9,0.012
					l-7,0.009l0.008,6.999l0.011,9l0.355,274.938l0.007,5.451l0.006,4.528l4.132,1.852l165.096,73.961l2.865,1.283l2.863-1.285
					l164.904-74.012l4.139-1.858l-0.005-4.536l-0.007-5.826l-0.355-274.938l-0.012-9L371.806,129.456L371.806,129.456z"/>
			</g>
			<g>
				<defs>
					<polygon id="SVGID_83_" points="356.344,420.414 200.434,490.74 44.344,420.816 43.988,145.879 355.988,145.477 					"/>
				</defs>
				<clipPath id="SVGID_8_">
					<use xlink:href="#SVGID_83_"  overflow="visible"/>
				</clipPath>
				<path clip-path="url(#SVGID_8_)" fill="#DDDCD4" d="M464.982,499.126c0.013,0.047,0.006,0.015-0.018-0.076
					c-0.195-0.858-2.277-9.742-6.888-20.938c-6.005-15.528-15.761-35.231-28.624-42.854c-22.841-13.535-27.914-16.495-31.723-20.302
					c-3.807-3.807-63.868-23.264-72.749-27.07c-8.883-3.807-27.493-14.381-30.455-15.65c-2.961-1.269-8.034-1.691-8.034-1.691
					s-5.686-3.651-9.098-5.391c-3.835-41.904,5.217-76.556,7.279-83.747c14.424,2.287,22.541-14.205,22.541-14.205
					c11.702-20.867-0.702-40.184-0.702-40.184s-0.738-0.387-1.846-0.791c-0.067-0.651-0.187-5.497,7.201-25.715
					c8.036-21.995-5.499-59.638-5.499-59.638c-24.532-67.252-115.047-57.102-115.047-57.102
					c-58.792,18.611-63.444,58.792-63.444,58.792s-6.345,13.958-10.151,28.762s5.922,33.837,5.922,33.837
					c-0.549-3.571-0.741-9.279-0.809-12.845c0.796,7.714,5.744,20.035,5.744,20.035c0.055,4.649-0.779,14.098-2.822,24.743
					c-1.651,8.598-1.268,18.188,1.481,28.339c0.448,1.656,15.438,47.795,24.531,59.216c0.45,0.564,0.921,1.102,1.405,1.616
					l-1.604,47.643c-4.033,1.354-16.773,6.059-22.43,13.129c0,0-11.42,6.768-27.069,14.805
					c-15.651,8.036-79.518,27.492-94.744,49.486c-10.697,15.452-19.718,35.064-24.142,45.374
					c-6.971,12.356-12.823,23.463-13.504,27.377c-1.69,9.727-4.653,41.873,26.647,57.946
					c31.301,16.072,480.491-5.076,479.645-26.224C475.135,534.655,464.982,499.126,464.982,499.126z M310.19,237.696
					c0.643,2.433,0.956,4.848,1.022,7.184C310.986,242.404,310.65,239.958,310.19,237.696z M-9.703,484.301
					c4.173-7.752,9.115-16.494,13.752-23.593C0.552,466.781-4.52,475.36-9.703,484.301z M389.981,415.068
					c3.181,1.386,5.479,2.52,6.481,3.271c6.766,5.075,30.875,16.918,33.413,19.456c0.277,0.277,0.794,0.759,1.486,1.427
					c-2.701-2.156-5.589-4.071-8.677-5.657C405.066,424.519,395.223,418.555,389.981,415.068z"/>
			</g>
			<g>
				<defs>
					<polygon id="SVGID_85_" points="356.344,420.414 200.434,490.732 44.344,420.816 43.895,72.543 355.894,72.141 
						373.993,217.182 356.231,333.871 					"/>
				</defs>
				<clipPath id="SVGID_10_">
					<use xlink:href="#SVGID_85_"  overflow="visible"/>
				</clipPath>
				<g clip-path="url(#SVGID_10_)">
					<path fill="#E02B3A" d="M442.982,500.126c0,0-10.998-49.487-42.297-65.561c-31.3-16.071-38.066-22.416-38.066-22.416
						s-62.177-22.84-71.06-26.224c-8.881-3.385-19.878-9.729-19.878-9.729s-16.919,54.562-83.748,74.864
						c0,0-69.79-17.764-69.367-62.176l1.058-6.767c0,0-7.19,4.018-11.42,7.4c-4.229,3.384-29.607,14.594-31.724,16.073
						c-2.113,1.48-66.192,30.031-73.172,34.26c-6.979,4.231-13.536,6.557-16.92,13.958c-3.382,7.401-37.009,61.543-38.701,71.271
						c-1.69,9.727-4.653,41.873,26.647,57.946c31.301,16.072,480.491-5.076,479.645-26.224
						C453.135,535.655,442.982,500.126,442.982,500.126z"/>
					<path fill="#FBC3A9" d="M257.723,389.871c0,0-9.304-49.838-2.325-79.658c6.979-29.818,6.132-28.761,6.132-28.761
						s10.574,0.423,16.073-4.653c5.499-5.075,12.479-16.072,11.844-27.704c-0.635-11.631-3.522-24.178-10.433-21.077
						c-6.91,3.101,2.183-3.454-3.104-7.05c-5.287-3.595-17.763-31.723-20.513-38.913c-2.75-7.19,21.505-45.397-14.309-56.395
						c-35.813-10.997-118.716-6.203-126.044,11.843c-7.333,18.045-10.152,53.012-9.025,56.677s1.974,24.815,1.127,29.045
						c-0.847,4.229-5.075,29.042-1.974,39.193c3.104,10.152,22.276,58.936,24.529,62.318c2.261,3.385,2.261,3.385,2.261,3.385v14.1
						l-1.692,34.399c0,0-10.436,4.229-10.716,9.024c-0.281,4.795-3.948,15.224,4.512,26.222
						c8.458,10.996,38.912,40.677,62.882,37.787c0,0,39.686-2.397,73.878-50.755L257.723,389.871z"/>
					<path fill="#FFFFFF" d="M183.846,217.161c0,0,3.523-8.317,10.433-6.908c6.91,1.41,15.791,5.216,15.791,5.216l-1.55,2.114
						c0,0-9.378,3.808-22.701,1.058C182.54,218.536,183.846,217.161,183.846,217.161z"/>
					<path fill="#FFFFFF" d="M122.691,218.959c0,0,1.161,1.904,2.854,2.749c1.693,0.846,10.291,1.869,18.718-2.749
						c0,0-5.604-6.768-10.998-6.239C127.871,213.249,122.691,218.959,122.691,218.959z"/>
					<path fill="#D0967B" d="M164.67,235.983c0,0-1.902,4.864-1.268,5.287c0.634,0.424,8.67,4.23,10.149,4.442
						C175.033,245.923,170.804,239.579,164.67,235.983z"/>
					<path fill="#D0967B" d="M142.538,258.754c0,0-0.285-8.178,4.367-8.813c3.642-0.497,8.98,3.025,15.512-1.763
						c4.229-3.103,15.648,5.075,12.826,10.434c0,0,0.707,1.692-4.651,1.976c-5.359,0.281-10.15-1.976-10.574-0.845
						c-0.423,1.126-0.143,6.625-0.284,7.048c-0.139,0.423-1.27,2.538-2.114,2.68c-0.847,0.139-3.808-1.411-3.808-1.411l1.555-8.316
						C155.366,259.742,146.695,264.956,142.538,258.754z"/>
					<path fill="#D0967B" d="M213.312,187.342c0,0-23.263-4.018-43.564,14.169c0,0-4.958-0.564-5.711-1.692
						c-0.423-0.634,1.903,7.19,3.171,8.248c0,0,0.847,6.768,1.27,7.402c0.423,0.634,6.557,2.326,6.557,2.326
						s8.036,13.323,18.61,19.034c0,0-8.248-4.653-12.055-14.592l1.691-2.115c0,0,9.867,0.283,12.828-0.563
						c0,0-8.386,0.563-10.29-0.917c-1.903-1.481,2.325-6.345,3.174-6.557c0.845-0.211,6.767-1.269,7.401-1.057
						c0.635,0.212,10.149,1.692,12.266,2.539c2.115,0.845,0,4.124,0,4.124s-4.442,1.585-6.979,2.009c0,0,8.479-0.85,9.517-1.058
						c1.057-0.212,13.958,2.75,13.958,2.75s-12.901-16.073-35.74-13.958l-1.271-1.692c0,0,6.558-3.383,10.998-3.383
						c0,0-7.4-1.48-16.707,4.018c0,0,14.169-16.284,50.122,3.172C232.557,209.548,223.885,191.36,213.312,187.342z"/>
					<path fill="#D0967B" d="M120.681,204.05c5.36-0.424,15.228-2.679,23.407,5.92c0,0-4.372-2.82-12.548-3.243
						c0,0,16.354,6.487,16.072,11.703c-0.282,5.216-1.268,6.768-1.268,6.768s4.789-7.19,4.651-8.459
						c-0.143-1.269-4.936-10.434-4.936-10.434s8.459,0.565,9.306,0.706c0.845,0.141,3.383-3.947,4.09-4.652
						c0,0-1.815,2.374-2.822,1.409c-6.768-6.485-25.24-10.855-32.567-12.546l-3.524,3.101l2.677-4.087
						c0,0-12.55,9.446-16.355,19.314C106.681,210.021,115.322,204.472,120.681,204.05z"/>
					<path fill="#D0967B" d="M129.707,222.8c0,0-5.06,0.441-8.92-1.568c0,0-3.98,1.85-5.815,3.542c0,0,3.226-12.055,15.723-13.676
						c11.086-1.438,18.188,7.331,15.366,12.407c0,0-0.708-2.255-1.131-2.678c0,0-4.369,13.533-16.073,17.481
						c0,0,8.32-5.217,11.28-13.535c0,0-6.485,2.255-8.743,1.692c-2.253-0.564-4.949-2.75-4.949-2.75s8.175,0.774,10.574-1.058
						l1.587-1.164c0,0,1.248,0.46,3.785-1.656c2.539-2.114,0-4.371-3.522-5.357c-3.521-0.986-12.827-0.141-14.519,2.115
						c-1.692,2.255-2.115,2.96-2.115,2.96S126.2,222.57,129.707,222.8z"/>
					<path fill="#D0967B" d="M140.033,291.498c0,0,2.573-15.261,12.021-17.871c0,0,1.55,0.918,3.031,1.27
						c1.479,0.35,2.464,0.211,3.24-0.212c0.777-0.422,5.077-2.187,6.133-1.904c1.058,0.285,18.189,9.868,21.645,12.479l0.281,0.918
						c0,0-13.819-3.811-17.271-3.668c-3.454,0.143-10.575,3.244-14.593,2.61c-4.021-0.634-4.727-0.919-4.865-0.634
						c-0.137,0.28-7.613,6.201-7.613,6.201L140.033,291.498z"/>
					<path fill="#D0967B" d="M141.726,316.348c0,0,18.503-19.562,43.775-8.883c0,0-10.784-6.979-21.36-8.565
						c0,0,7.19-2.009,11.316-0.741c0,0-6.45-5.498-6.98-5.814c0,0,5.71-5.922,6.134-6.873c0,0-5.394,3.701-7.825,4.441
						c-2.432,0.739-10.892,2.96-13.111,2.96c-2.222,0-8.036-3.489-8.036-3.489s3.911,4.336,4.44,4.758c0,0-2.643,5.393-3.808,10.892
						c0,0,4.97-3.7,6.873-4.124C153.144,300.908,147.222,304.504,141.726,316.348z"/>
					<path fill="#D0967B" d="M255.185,283.566c0,0-3.316,19.364-16.634,27.354c-14.098,8.46-36.943,11.843-40.89,11.843
						c-3.944,0-34.964-7.896-49.345,4.23c0,0-11.278,5.072-20.302-7.052c0,0-0.41,2.551,4.229,7.614
						c3.103,3.383,14.661,7.051,14.661,7.051s33.558,20.58,37.505,21.426c3.947,0.847,41.452-31.3,47.088-33.553
						C237.136,320.227,254.622,312.891,255.185,283.566z"/>
					<path fill="#D0967B" d="M272.104,240.988c0,0,3.949-10.151,8.602-10.151c4.048,0,16.672,21.537-1.728,39.196
						c0,0,12.299-12.831-0.952-32.005C278.025,238.027,274.288,238.098,272.104,240.988z"/>
					<path fill="#D0967B" d="M281.41,252.796c0,0-6.028-8.037-9.836-6.768c-3.805,1.269-0.527,4.547-0.738,8.882
						c-0.213,4.336-2.54,7.507-2.54,7.507s1.376,1.481,3.386,1.798c2.009,0.317,8.142,0.634,9.833-4.652
						C283.206,254.276,281.41,252.796,281.41,252.796z"/>
					<path fill="#D0967B" d="M137.602,330.939c0,0-6.77,78.249-7.192,81.633c-0.422,3.384-1.057,3.806-1.057,3.806
						s-13.746-8.459-11.209-21.57c2.537-13.112,8.883-18.61,10.151-18.188s2.961-5.076,2.961-5.076l2.538-44.412L137.602,330.939z"
						/>
					<path fill="#D0967B" d="M159.595,404.113c0.423,1.691,14.381,35.529,19.034,38.066c4.651,2.537,12.688-1.692,12.688-1.692
						l17.343-38.066c0,0-14.806,22.841-17.343,23.264c-2.537,0.422-10.996,0-13.111-1.27c-2.114-1.269,0.424,6.768,0.424,6.768
						L159.595,404.113z"/>
					<path fill="#D0967B" d="M215.004,438.796c0,0,18.609-29.607,21.571-37.221c0,0-2.115,20.302-7.614,27.916
						C223.463,437.104,215.004,438.796,215.004,438.796z"/>
					<path fill="#D0967B" d="M270.2,376.197c0,0-2.961,14.592-13.112,28.338c0,0-21.64-53.293,4.301-122.375
						c0,0-13.813,52.447-6.767,86.847c0,0,1.978-1.128,3.385,0.283C259.415,370.698,270.2,376.197,270.2,376.197z"/>
					<path fill="#D0967B" d="M112.222,177.262c0,0,10.436-26.224,42.013-27.069c0,0-4.507,2.254-6.199,2.254
						c0,0,18.327-0.282,29.886-1.691c0,0-6.646,2.175-7.613,2.82c-0.846,0.563,23.971-4.23,27.916-4.513
						c0,0-12.124,7.05-14.381,6.769c0,0,36.095-2.256,39.197-2.256s-0.28,8.74,0.845,11.278c0,0,0.281-3.949,6.204-9.306
						c5.921-5.356,4.794-8.459,3.103-10.714c-1.693-2.256-11.279-9.305-12.972-10.151c-1.689-0.846-17.481-4.231-21.713-5.358
						c-4.229-1.127-21.147-1.692-25.661-0.846c-4.509,0.846-24.813,2.537-26.223,4.512
						C145.214,134.965,109.122,146.243,112.222,177.262z"/>
					<path fill="#D0967B" d="M172.919,238.944c0.633,0.211,12.053,7.825,17.13,24.321c0,0-6.345-10.786-12.055-16.707
						L172.919,238.944z"/>
					<path fill="#D0967B" d="M140.561,253.113l-8.036,18.188c0,0,9.306-12.478,9.306-13.958
						C141.83,255.863,140.561,253.113,140.561,253.113z"/>
					<path fill="#D0967B" d="M271.258,234.079c0,0,5.393-3.171,6.133-3.171c0.742,0,4.368-2.29,6.413-1.621
						c2.045,0.669-3.769-2.609-4.826-2.503C277.919,226.89,275.065,227.312,271.258,234.079"/>
					<path fill="#D0967B" d="M273.373,226.89c0,0-10.363,12.689-9.095,19.668c1.269,6.978,3.808,10.362-0.634,14.168
						c-4.442,3.807-7.402,12.689-7.402,12.689s-3.806-19.457-0.845-28.551c2.96-9.094,9.939-19.879,10.997-20.091
						C267.451,224.563,273.373,226.89,273.373,226.89z"/>
					<path fill="#D0967B" d="M273.516,271.866c0,0-4.371,1.127-7.615-1.269c-2.199-1.626-2.818,3.242,0.144,3.526
						C269.004,274.404,273.516,271.866,273.516,271.866z"/>
					<path fill="#010101" d="M115.045,171.903c-5.076,14.1-7.575,30.697-6.769,38.631c1.974,19.456-7.333,33.838-1.411,53.576
						c5.916,19.718,19.314,51.962,23.544,57.312c4.792,6.061,14.17,14.169,20.725,11.493c20.205-8.255,39.76-7.898,45.119-7.053
						c5.356,0.846,28.764-4.791,40.605-10.996c10.585-5.545,16.355-21.711,16.355-21.711s-0.851,19.173-21.716,27.07
						c0,0-43.422,26.22-50.471,28.478c-7.052,2.256-27.916-10.432-30.454-11.277c0,0-13.205-2.241-20.799-11.774
						c-9.094-11.42-24.083-57.56-24.531-59.216c-2.749-10.151-3.133-19.741-1.481-28.339c2.043-10.645,2.877-20.094,2.822-24.743
						C106.513,207.01,106.09,189.457,115.045,171.903z"/>
					<path fill="#010101" d="M140.666,291.286c0,0,2.149-15.333,11.633-17.024c0,0,3.067,2.537,6.134,1.162
						c3.064-1.374,5.286-2.22,7.717-1.269c2.433,0.952,16.391,9.835,18.296,10.786c1.901,0.952,3.064,0.635,3.064,0.635
						s-15.12-10.363-21.147-12.795c0,0-2.359-2.042-7.964,1.342c0,0-1.83,1.295-5.148-0.813c-2.326-1.48-11.104,3.913-13.217,18.188
						L140.666,291.286z"/>
					<path fill="#010101" d="M148.597,290.546"/>
					<path fill="#010101" d="M146.026,289.595c0,0,3.701,2.22,5.076,2.114c1.374-0.105,7.296-3.701,11.842-2.855
						c4.548,0.846,9.729-2.114,9.729-2.114s-5.604,4.652-6.872,4.97c0,0,5.394,4.408,5.921,4.831c0,0-15.227-1.691-23.125,5.075
						c0,0,2.612-6.84,3.88-8.002c0,0-1.057,0-1.798-0.529C149.938,292.555,146.026,289.595,146.026,289.595z"/>
					<path fill="#010101" d="M140.703,290.618c0,0,9.024-8.036,10.996-7.897c1.975,0.139,4.368,2.254,8.318,0.562
						c3.949-1.692,3.88-2.75,6.064-2.961c2.184-0.208,15.576,4.586,18.363,4.619c2.783,0.033,8.848-1.236,7.579,2.293
						c-0.822,2.281-3.807,0-6.487-0.707c-2.68-0.707-11.423-2.676-15.79-2.537c-4.37,0.139-10.011,3.668-18.751,2.114
						c0,0-5.554,2.736-9.166,5.499c-2.4,1.83-4.512,2.537-4.934,0.846C136.18,289.574,140.703,290.618,140.703,290.618z"/>
					<path fill="#010101" d="M153.25,256.392c0,0-2.854-3.489-4.863-2.961c-2.01,0.528-2.326,5.181-0.425,4.97
						C149.866,258.189,150.607,255.863,153.25,256.392z"/>
					<path fill="#010101" d="M160.335,256.92c0,0,0.951-4.971,2.854-5.076c1.904-0.105,8.46,3.701,6.239,5.393
						C167.207,258.93,163.295,258.506,160.335,256.92z"/>
					<path fill="#010101" d="M171.966,237.887c0,0,7.135,8.388,6.345,14.804c-0.846,6.874-6.026,7.475-6.733,7.897
						c0,0,9.166-0.706,8.214-9.8C179.139,244.524,171.966,237.887,171.966,237.887z"/>
					<path fill="#010101" d="M143.807,246.065c0,0-3.246,6.344-2.539,9.305c0.701,2.961,3.521,5.356,5.215,6.345
						c0,0-3.912-0.776-6.06-5.356C140.423,256.358,138.868,252.833,143.807,246.065z"/>
					<path fill="#010101" d="M198.653,198.4c7.001-0.316,14.103,0.639,14.103,0.639s-5.096-3.923-7.352-4.196
						c0,0,7.062,2.927,9.328,5.032c0,0-5.099-4.913-5.383-5.333l6.368,4.906l-5.949-5.895l7.357,5.604l-5.804-5.188l7.636,5.18
						c0,0-5.094-4.208-4.673-4.068c0.424,0.142,6.931,4.339,6.931,4.339l-5.238-4.487l6.223,4.342l-5.237-4.908l5.803,4.482
						l-1.849-2.388l4.244,2.941c0,0-6.378-7.019-9.626-8.413c0,0,3.258,2.942,4.107,4.067c0,0-3.255-2.946-6.223-4.34
						c0,0,1.956,1.443,2.406,2.103c0.287,0.422-4.666-2.656-5.516-3.076c0,0,2.764,2.17,3.686,3.084
						c0.426,0.421-3.68-2.52-5.093-2.797c0,0-8.115-1.864-15.505,0.497c-7.391,2.361-17.103,6.003-19.833,10.244
						c-2.729,4.243-5.683,5.527-5.683,5.527s5.062-2.563,6.959-4.052C176.738,200.758,196.889,198.479,198.653,198.4z"/>
					<path fill="#010101" d="M111.799,205.601c0,0,4.792-4.934,6.484-5.922c0,0-3.101,3.383-3.946,4.23l4.652-3.808l-2.96,3.384
						l4.937-3.666l-2.822,3.102l3.669-1.692l-1.554,1.692c0,0,23.686-0.423,32.78,0.705c2.113-1.552-16.846-9.304-28.266-10.292
						c0,0-5.195,3.273-5.784,3.665c-0.423,0.282,4.368-3.665,4.368-3.665l-6.345,4.653l3.385-4.373l-8.738,8.743l4.085-3.102
						l-3.806,4.37l3.951-3.666L111.799,205.601z"/>
					<path fill="#010101" d="M193.75,219.699c0,0-3.841-0.424-6.802-1.127c0,0-0.146-4.089,3.808-6.487
						c0,0,7.188-2.256,17.617,3.807l-0.845,2.257c0,0-3.099,0.985-4.229,1.126c0,0,4.374,0.281,7.335-2.115
						c0,0,8.178,1.131,8.74,1.411c0.562,0.281-11.988-8.695-23.267-9.165c-13.535-0.563-16.212,12.549-16.212,12.549
						s3.102-2.679,3.808-2.539C183.704,219.418,188.812,220.826,193.75,219.699z"/>
					<path fill="#010101" d="M129.707,222.8c0,0-3.811-0.843-5.641-3.242c0,0,2.682-5.299,7.474-5.075
						c9.021,0.423,11.697,4.229,11.697,4.229s-2.253,2.396-4.93,2.819c0,0,5.075,0.001,7.048-1.973c0,0,0.846,1.41,0.564,3.102
						c0,0,1.287-2.171-0.422-4.793c-2.115-3.244-6.768-6.204-13.396-6.204c-6.63,0-14.524,7.331-15.651,11.137
						c0,0,2.4-2.678,4.937-2.678C121.388,220.122,123.785,222.377,129.707,222.8z"/>
					<path fill="#010101" d="M271.258,234.079c0,0,4.372-7.894,7.332-7.753c2.962,0.141,5.923,1.692,5.923,1.692
						s12.404,19.316,0.702,40.184c0,0-8.6,17.48-23.826,13.959c0,0-1.409,2.537-2.396,5.498c-0.161,0.482-0.705-8.602,2.68-13.113
						c0,0-1.412,3.1-0.564,4.792c0,0,14.522,4.229,22.84-12.265c0,0,11.982-20.584-0.144-37.785c0,0-3.379-1.691-4.79-1.269
						C277.603,228.44,274.784,229.427,271.258,234.079z"/>
					<path fill="#010101" d="M274.219,238.029c0,0,3.664-6.487,6.768-6.627c0,0,14.1,11.984,3.103,30.878
						c0,0,4.507-16.778-6.206-26.789C277.883,235.49,275.488,236.196,274.219,238.029z"/>
					<path fill="#010101" d="M277.179,248.25c0.569,0.354-3.806-3.808-6.556-2.75c-2.749,1.059-3.384,3.384-1.902,5.288
						c1.479,1.903,0.845,7.19-1.057,10.152c-1.904,2.96,5.497,5.921,10.995,2.326c0,0-4.229,2.326-9.304-0.423
						c0,0,6.133-5.921,1.057-13.112C270.412,249.73,270.412,244.02,277.179,248.25z"/>
					<path fill="#010101" d="M263.082,281.029c0,0-15.512,49.064-4.935,104.896c0,0-15.229-38.067,2.112-104.051L263.082,281.029z"
						/>
					<path fill="#010101" d="M131.256,325.018l-2.961,87.978c0,0,7.19-81.21,6.345-83.325
						C133.794,327.557,131.256,325.018,131.256,325.018z"/>
					<path fill="#010101" d="M106.584,213.354c0,0-6.627-16.496-5.781-23.263c0,0,0,10.574,0.846,16.073
						c0,0-9.729-19.034-5.922-33.837s10.151-28.762,10.151-28.762s4.652-40.182,63.444-58.792c0,0,90.515-10.151,115.047,57.102
						c0,0,13.535,37.643,5.499,59.638s-7.189,25.801-7.189,25.801s-21.994-3.806-27.916,23.687c0,0,3.385-28.762-4.23-39.336
						c-7.613-10.575-22.84-29.185-20.726-59.638c0,0-3.383,8.882-4.229,10.997l-0.423-10.575c0,0-16.072,2.96-33.838,2.96
						c0,0,11.422-3.807,17.766-11.419c0,0-19.88,5.921-28.339,8.037c0,0,13.11-6.345,14.381-7.614c0,0-15.228,5.076-37.646,5.499
						c0,0,9.307-1.269,14.382-4.653c0,0-5.498,2.96-13.957,1.692s-31.3,4.652-42.721,20.303L106.584,213.354z"/>
					<path fill="#010101" d="M114.972,386.137c0.191-2.148-6.133,5.287-7.402,6.556c-1.27,1.27-16.918,10.574-24.954,12.267
						c-8.036,1.69-79.097,36.798-89.67,43.565c-10.574,6.768-34.683,56.255-34.683,56.255s11.843-30.453,27.07-52.448
						c15.227-21.994,79.093-41.45,94.744-49.486c15.649-8.037,27.069-14.805,27.069-14.805c6.768-8.459,23.686-13.535,23.686-13.535
						l-0.845,4.23c-11.421,3.806-10.152,22.84-10.152,22.84s29.749,38.205,49.487,45.257c0,0,19.431,1.884,27.916,0.424
						c13.536-2.327,50.967-22.841,71.906-69.367l-13.96-8.036v-3.808c3.384,1.693,9.308,5.499,9.308,5.499s5.073,0.423,8.034,1.691
						c2.962,1.27,21.572,11.844,30.455,15.65c8.881,3.807,68.942,23.264,72.749,27.07c3.809,3.807,8.882,6.767,31.723,20.302
						c22.84,13.536,35.883,65.156,35.529,63.868c-10.998-40.182-32.567-58.791-35.106-61.33
						c-2.538-2.538-26.647-14.381-33.413-19.456c-6.769-5.076-72.328-27.493-73.598-28.339c-1.27-0.847-10.997-4.229-14.381-6.344
						c-3.383-2.116-13.323-5.076-13.323-5.076s-31.722,60.484-76.347,70.847c-6.544,1.521-19.879,0.846-26.223-0.424
						c-9.802-1.96-23.687-11.842-52.235-43.776C116.079,400.627,114.417,392.402,114.972,386.137z"/>
					<path fill="#010101" d="M143.807,314.582c0,0,10.997-17.342,38.628-8.459C182.435,306.123,160.58,299.779,143.807,314.582z"/>
					<path fill="#D0967B" d="M153.039,227.312l-10.151,18.822c0,0,2.96-10.785,4.018-11.419
						C147.962,234.079,153.039,227.312,153.039,227.312z"/>
					<g>
						<defs>
							<path id="SVGID_87_" d="M183.846,217.161c0,0,3.523-8.317,10.433-6.908c6.91,1.41,15.791,5.216,15.791,5.216l-1.55,2.114
								c0,0-8.882,3.808-22.701,1.058C182.54,218.536,183.846,217.161,183.846,217.161z"/>
						</defs>
						<clipPath id="SVGID_12_">
							<use xlink:href="#SVGID_87_"  overflow="visible"/>
						</clipPath>
						<path clip-path="url(#SVGID_12_)" fill="#010101" d="M202.242,214.112c0,3.183-2.577,5.763-5.764,5.763
							c-3.18,0-5.764-2.58-5.764-5.763c0-3.182,2.584-5.763,5.764-5.763C199.665,208.35,202.242,210.931,202.242,214.112z"/>
					</g>
					<g>
						<defs>
							<path id="SVGID_89_" d="M122.691,218.959c0,0,1.161,1.904,2.854,2.749c1.693,0.846,10.437,2.009,18.718-2.749
								c0,0-5.604-6.768-10.998-6.239C127.871,213.249,122.691,218.959,122.691,218.959z"/>
						</defs>
						<clipPath id="SVGID_14_">
							<use xlink:href="#SVGID_89_"  overflow="visible"/>
						</clipPath>
						<circle clip-path="url(#SVGID_14_)" fill="#010101" cx="133.794" cy="217.55" r="5.182"/>
					</g>
					<path fill="#9E1F23" d="M363.466,508.163c0,0,6.345-35.106-7.613-48.219c-13.959-13.112-73.316-44.269-75.854-43.847
						c-2.539,0.423-38.349,14.381-38.349,14.381s35.107-15.508,40.604-18.045c0,0,44.836,20.018,76.699,47.088
						C358.954,459.521,370.655,477.71,363.466,508.163z"/>
					<path fill="#9E1F23" d="M134.216,429.352c0,0-37.505-9.874-39.197-9.874c-1.691,0-94.883,12.551-86.423,113.641
						c0,0-8.036-93.338,86.708-110.533L134.216,429.352z"/>
					<path fill="#9E1F23" d="M149.728,442.887c0,0,10.994,8.737,13.251,9.866c2.256,1.132,30.734,2.539,34.683,1.978
						c3.948-0.569,24.251-11.565,24.251-11.565s-20.021,13.258-24.251,14.103c-4.229,0.846-32.427-0.284-34.964-1.976
						C160.161,453.601,149.728,442.887,149.728,442.887z"/>
					<path fill="#554B4C" d="M171.158,91.822c0,0-26.226,7.613-35.812,20.02c0,0,14.942-8.458,17.765-9.023
						c0,0-11.846,10.716-15.51,15.227c0,0,19.736-14.381,25.377-16.073c0,0-8.459,7.614-10.152,9.023
						c0,0,18.896-12.972,25.944-15.509l-11.844,4.794l10.998-7.332c0,0-14.665,6.486-16.639,7.332
						C159.313,101.127,171.158,91.822,171.158,91.822z"/>
					<path fill="#554B4C" d="M181.027,99.999c0,0-20.306,13.537-23.124,16.355C157.903,116.354,174.541,106.203,181.027,99.999z"/>
					<path fill="#554B4C" d="M179.896,109.021c0,0-21.147,14.666-24.53,17.484l17.482-9.588l-12.97,9.023l29.323-15.227
						l-12.689,4.795L179.896,109.021z"/>
					<path fill="#2D2727" d="M113.63,169.226l-8.036,31.159c0,0-4.368-11.138-4.931-14.803c0,0-1.837,5.909-1.837,6.767
						c0,0.423-3.242-15.652-2.537-17.907c0.707-2.255,8.743-22.841,8.743-22.841l-1.832,7.333c0,0,5.639-10.009,8.315-12.267
						c0,0-6.056,12.4-6.623,13.252c-0.284,0.424,6.484-7.613,7.469-8.035c0,0-5.496,8.881-6.622,12.265
						c0,0,10.005-7.896,14.096-10.574c0,0-7.19,12.264-8.458,15.79L113.63,169.226z"/>
					<path fill="#2D2727" d="M242.776,180.082c0,0,1.128,6.768,6.768,11.843c0,0-2.253-5.077-2.818-9.024
						c-0.566-3.948-0.566-3.948-0.566-3.948s3.95,10.15,9.025,15.79l-2.257-10.714c0,0,9.025,13.533,12.409,17.482
						c0,0-11.278-23.687-12.971-27.07c0,0,2.818,6.47,2.818,8.742c0,0.846-6.766-9.871-6.766-9.871l2.537,10.151l-7.614-12.97
						l1.692,11.561L242.776,180.082z"/>
					<path fill="#FFFFFF" d="M136.996,218.188c-0.022-0.025-0.043-0.049-0.067-0.074c-0.332-0.378-0.987-0.369-1.371-0.042
						c-0.297-1.005-1.909,0.684-0.495,0.773c0.013,0.001,0.026,0.001,0.039,0.002c-0.078,0.633,0.328,1.282,1.092,1.282
						C137.233,220.13,137.627,218.916,136.996,218.188z"/>
					<path fill="#FFFFFF" d="M196.822,215.398c-0.023-0.112,0-0.24-0.069-0.329c-0.255-0.332-0.479-0.59-0.909-0.67
						c-0.535-0.1-1.278,0.14-1.368,0.775c-0.005,0.031-0.005,0.064-0.012,0.096c-0.166,1.165,1.066,2.07,2.028,1.182
						c0.033-0.029,0.066-0.057,0.091-0.085c0.037-0.032,0.041-0.094,0.068-0.132c0.197,0.975,1.824,1.424,2.286,0.111
						C199.373,215.104,197.517,214.331,196.822,215.398z"/>
					<path fill="#A76F65" d="M224.379,253.389c-0.076-0.104-0.151-0.208-0.227-0.313c-0.598-0.838-1.708,0.271-0.867,0.869
						c0.104,0.074,0.21,0.148,0.312,0.223C224.058,254.493,224.702,253.847,224.379,253.389z"/>
					<path fill="#A76F65" d="M242.08,250.769c0.015,0.091,0.024,0.182,0.037,0.273c0.092,0.66,1.234,0.66,1.327,0
						c0.011-0.091,0.022-0.182,0.036-0.273C243.646,249.596,241.915,249.596,242.08,250.769z"/>
					<path fill="#A76F65" d="M240.805,256.173c-1.145,0-1.145,1.771,0,1.771C241.947,257.944,241.947,256.173,240.805,256.173z"/>
					<path fill="#A76F65" d="M232.794,280.183l0.029,0.248c0.061,0.47,0.676,0.47,0.734,0l0.029-0.248
						C233.65,279.675,232.731,279.675,232.794,280.183z"/>
					<path fill="#A76F65" d="M232.503,284.273c-0.042-0.068-0.085-0.138-0.124-0.207c-0.269-0.447-0.922-0.447-1.19,0
						c-0.04,0.069-0.083,0.139-0.125,0.207C230.132,285.827,233.435,285.827,232.503,284.273z"/>
					<path fill="#A76F65" d="M240.497,328.421c-0.022-0.073-0.043-0.151-0.065-0.228c-0.224-0.744-1.282-0.744-1.508,0
						c-0.023,0.076-0.043,0.154-0.066,0.228C238.445,329.789,240.909,329.789,240.497,328.421z"/>
					<path fill="#A76F65" d="M156.283,183.211c-0.317-1.155-2.055-0.711-1.851,0.431
						C154.659,184.895,156.62,184.444,156.283,183.211z"/>
					<path fill="#A76F65" d="M153.558,194.015c-0.076-0.021-0.155-0.041-0.229-0.062c-1.321-0.354-1.321,1.934,0,1.58
						c0.073-0.02,0.152-0.041,0.229-0.061C154.28,195.279,154.28,194.208,153.558,194.015z"/>
					<path fill="#A76F65" d="M109.665,254.017c-0.08-0.022-0.152-0.043-0.23-0.064c-1.895-0.531-1.895,2.802,0,2.27
						c0.078-0.023,0.15-0.042,0.23-0.062C110.722,255.859,110.722,254.315,109.665,254.017z"/>
					<path fill="#A76F65" d="M121.98,287.981c0.023,0.079,0.05,0.152,0.069,0.229c0.188,0.598,1.024,0.598,1.209,0
						c0.026-0.076,0.05-0.149,0.074-0.229C123.683,286.858,121.628,286.858,121.98,287.981z"/>
				</g>
			</g>
			<g>
				<path fill="#FFFFFF" d="M200.303,524.574c-15.604,0-28.314-12.694-28.334-28.298c-0.01-7.568,2.928-14.687,8.272-20.045
					c5.344-5.357,12.456-8.313,20.025-8.323c15.639,0,28.348,12.693,28.369,28.295c0.02,15.623-12.673,28.351-28.295,28.371H200.303
					z"/>
				<path fill="#D3B76E" d="M200.305,469.908c14.527-0.001,26.311,11.767,26.33,26.298c0.019,14.545-11.755,26.349-26.298,26.368
					c-0.011,0-0.023,0-0.034,0c-14.53,0-26.315-11.767-26.334-26.301c-0.02-14.543,11.755-26.347,26.3-26.365
					C200.28,469.908,200.293,469.908,200.305,469.908 M200.306,465.908h-0.001h-0.003h-0.039
					c-8.102,0.011-15.716,3.175-21.438,8.911c-5.722,5.736-8.867,13.357-8.856,21.46c0.021,16.704,13.629,30.295,30.334,30.295
					c16.764-0.022,30.354-13.647,30.332-30.373C230.612,479.497,217.007,465.908,200.306,465.908L200.306,465.908z"/>
			</g>
			<g>
				<g>
					<g>
						<path fill="#F2F2F2" d="M177.652,490.666c3.078-12.512,15.717-20.153,28.225-17.075c12.512,3.078,20.153,15.714,17.075,28.225
							c-3.079,12.51-15.714,20.154-28.226,17.074C182.219,515.812,174.571,503.176,177.652,490.666"/>
						<path fill="#E02B3A" d="M209.639,494.906c0.447,4.874-3.137,9.188-8.007,9.638c-4.871,0.45-9.186-3.131-9.634-8.004
							c-0.451-4.871,3.133-9.187,8.003-9.636C204.872,486.454,209.186,490.036,209.639,494.906"/>
						<path fill="#213E73" d="M193.235,491.156c-1.263,2.096-0.598,4.814,1.496,6.076c2.092,1.266,4.812,0.594,6.076-1.499
							c1.261-2.093,3.979-2.759,6.074-1.496c2.09,1.262,2.761,3.981,1.496,6.071c-2.527,4.186-7.962,5.523-12.148,2.998
							C192.049,500.779,190.708,495.342,193.235,491.156"/>
					</g>
					<path fill="#404041" d="M186.441,505.637l2.306,3.408l1.151-0.773l-2.31-3.41L186.441,505.637z M186.076,505.098l1.148-0.777
						l-2.307-3.411l-1.151,0.775L186.076,505.098z M182,502.884l4.98,7.36l1.146-0.774l-4.979-7.36L182,502.884z M185.538,500.49
						l4.98,7.361l1.146-0.777l-4.979-7.363L185.538,500.49z M216.095,490.961l-2.304-3.413l-1.149,0.776l2.306,3.412
						L216.095,490.961z M213.422,487.008l-2.304-3.412l-1.147,0.776l2.306,3.411L213.422,487.008z M218.491,489.343l1.146-0.777
						l-2.31-3.411l-1.147,0.777L218.491,489.343z M216.963,484.613l-2.307-3.411l-1.149,0.776l2.31,3.412L216.963,484.613z
						 M217.864,489.766l-4.974-7.365l-1.152,0.775l4.98,7.361L217.864,489.766z M213.542,509.437l1.151,0.772l2.299-3.417
						l-1.151-0.774L213.542,509.437z M216.205,505.478l1.149,0.771l2.3-3.414l-1.152-0.771L216.205,505.478z M214.067,504.828
						l-2.296,3.415l1.147,0.776l2.3-3.417L214.067,504.828z M217.88,501.643l-1.147-0.774l-2.301,3.417l1.15,0.775L217.88,501.643z
						 M212.297,503.634l-2.301,3.417l1.153,0.773l2.295-3.416L212.297,503.634z M213.812,503.868l2.294-3.417l-1.149-0.777
						l-2.298,3.418L213.812,503.868z M185.526,491l1.149,0.772l4.959-7.377l-1.147-0.771L185.526,491z M184.9,490.58l4.965-7.377
						l-1.152-0.771l-4.962,7.378L184.9,490.58z M188.091,482.012l-1.147-0.773l-4.965,7.376l1.151,0.774L188.091,482.012z"/>
				</g>
			</g>
		</g>
		<g>
			
				<rect x="55.114" y="31.166" transform="matrix(1 -0.0013 0.0013 1 -0.0715 0.2583)" fill="#D3B76E" width="289.192" height="48.5"/>
			<polygon fill="#D3B76E" points="68.131,73.023 29.477,73.073 37.821,55.625 29.432,38.198 80.752,38.133 80.768,50.164 
				55.107,50.197 			"/>
			<polygon fill="#D3B76E" points="331.334,72.684 369.988,72.634 361.599,55.207 369.943,37.759 318.623,37.825 318.639,49.856 
				344.299,49.823 			"/>
			
				<text transform="matrix(1 -0.0013 0.0013 1 70.5449 65.6226)" fill="#9B8E52" font-family="'Novecentowide-DemiBold'" font-size="27.1191" letter-spacing="2">Ki Sung-Yueng</text>
			<g>
				
					<text transform="matrix(1 -0.0013 0.0013 1 69.543 64.624)" fill="#FFFFFF" font-family="'Novecentowide-DemiBold'" font-size="27.1191" letter-spacing="2">Ki Sung-Yueng</text>
			</g>
			
				<rect x="34.578" y="52.509" transform="matrix(0.0013 1 -1 0.0013 107.556 3.5202)" fill="#9B8E52" width="34.875" height="6.197"/>
			
				<rect x="329.967" y="52.127" transform="matrix(0.0013 1 -1 0.0013 402.1823 -292.2496)" fill="#9B8E52" width="34.875" height="6.197"/>
		</g>
	</g>
	<g display="inline">
		<g>
			<g>
				<defs>
					<polygon id="SVGID_93_" points="776.344,420.414 620.434,490.732 464.344,420.816 463.895,72.543 775.894,72.141 
						793.993,217.182 776.231,333.871 					"/>
				</defs>
				<clipPath id="SVGID_16_">
					<use xlink:href="#SVGID_93_"  overflow="visible"/>
				</clipPath>
				<g clip-path="url(#SVGID_16_)">
					<path fill="#E02B3A" d="M851.657,499.716c0,0-16.588-51.109-31.384-64.56c-14.794-13.45-64.559-43.937-78.009-49.765
						s-36.763-16.14-38.556-17.485c-1.795-1.344-25.107-13.001-25.107-13.001s0,17.036-4.484,25.555
						c-4.482,8.518-17.035,44.833-52.006,61.196c0,0-20.623,4.26-27.349,0.674c-6.725-3.587-41.246-30.487-44.385-34.073
						c-3.138-3.587-6.726-23.762-6.726-23.762l-0.896-8.07c0,0-95.047,34.073-112.532,40.799
						c-17.484,6.724-31.831,16.14-34.072,22.415c-2.242,6.277-26.9,48.421-27.349,53.353S826.103,523.03,851.657,499.716z"/>
					<path fill="#010101" d="M371.794,486.38c0,0,18.639-46.003,32.917-59.092c14.276-13.087,123.734-49.178,128.096-50.763
						c4.363-1.586,16.26-9.121,16.26-9.121l0.793,9.518c0,0-12.69,4.759-15.465,5.156c-2.777,0.396-115.407,40.056-126.512,48.779
						C396.779,439.583,381.312,465.361,371.794,486.38z"/>
				</g>
			</g>
		</g>
	</g>
</g>
<g id="Layer_1_copy">
	<g>
		<g>
			<defs>
				<polygon id="SVGID_331_" points="-64,420.613 -220,490.73 -376,420.613 -376,72.34 -64,72.34 -64,334.07 				"/>
			</defs>
			<clipPath id="SVGID_18_">
				<use xlink:href="#SVGID_331_"  overflow="visible"/>
			</clipPath>
			<g clip-path="url(#SVGID_18_)">
				<path fill="#C52328" d="M9.741,555.505c0,0-8.631-100.488-42.539-121.45c-46.236-27.742-65.965-37.605-68.431-38.222
					c-2.466-0.617-34.523-14.18-36.989-15.412c-2.467-1.233-14.18-9.248-14.18-9.248s5.067,52.682-46.826,58.277
					c-47.159,5.086-87.776-33.001-102.366-55.812c0,0-15.412,5.55-18.495,6.165c-3.082,0.618-101.722,49.938-112.818,63.5
					c-11.097,13.563-8.014,156.59-8.014,156.59L9.741,555.505z"/>
			</g>
		</g>
	</g>
	<g>
		<polygon fill="#213E73" points="400.361,559.742 0.361,560.258 -0.361,0 399.639,0 		"/>
		<g>
			<polygon fill="#E02B3A" points="399.935,242.836 399.676,42.682 0.069,334.084 0.361,560.258 			"/>
		</g>
		<g>
			<g>
				<polygon fill="#FFFFFF" points="39.848,423.733 39.482,141.385 360.482,140.971 360.848,423.319 200.44,495.674 				"/>
				<g>
					<path fill="#010101" d="M355.988,145.477l0.355,274.938l-155.91,70.326l-156.09-69.924l-0.355-274.938L355.988,145.477
						 M364.977,136.465l-9,0.012l-312,0.402l-9,0.012l0.012,9l0.355,274.938l0.007,5.821l5.313,2.381l156.09,69.924l3.692,1.653
						l3.688-1.663l155.91-70.326l5.308-2.394l-0.008-5.822l-0.355-274.938L364.977,136.465L364.977,136.465z"/>
				</g>
			</g>
			<g>
				<path fill="#D3B76E" d="M364.814,136.465l0.012,9l0.355,274.938l0.007,5.826L200.284,500.24L35.188,426.279l-0.007-5.451
					l-0.355-274.938l-0.011-9l9-0.012l311.999-0.402L364.814,136.465 M371.806,129.456l-7,0.009l-9,0.012l-311.999,0.402l-9,0.012
					l-7,0.009l0.008,6.999l0.011,9l0.355,274.938l0.007,5.451l0.006,4.528l4.132,1.852l165.096,73.961l2.865,1.283l2.863-1.285
					l164.904-74.012l4.139-1.858l-0.005-4.536l-0.007-5.826l-0.355-274.938l-0.012-9L371.806,129.456L371.806,129.456z"/>
			</g>
			<g>
				<defs>
					<polygon id="SVGID_337_" points="356.344,420.414 200.434,490.74 44.344,420.816 43.988,145.879 355.988,145.477 					"/>
				</defs>
				<clipPath id="SVGID_20_">
					<use xlink:href="#SVGID_337_"  overflow="visible"/>
				</clipPath>
				<path clip-path="url(#SVGID_20_)" fill="#DDDCD4" d="M464.982,499.126c0.013,0.047,0.006,0.015-0.018-0.076
					c-0.195-0.858-2.277-9.742-6.888-20.938c-6.005-15.528-15.761-35.231-28.624-42.854c-22.841-13.535-27.914-16.495-31.723-20.302
					c-3.807-3.807-63.868-23.264-72.749-27.07c-8.883-3.807-27.493-14.381-30.455-15.65c-2.961-1.269-8.034-1.691-8.034-1.691
					s-5.686-3.651-9.098-5.391c-3.835-41.904,5.217-76.556,7.279-83.747c14.424,2.287,22.541-14.205,22.541-14.205
					c11.702-20.867-0.702-40.184-0.702-40.184s-0.738-0.387-1.846-0.791c-0.067-0.651-0.187-5.497,7.201-25.715
					c8.036-21.995-5.499-59.638-5.499-59.638c-24.532-67.252-115.047-57.102-115.047-57.102
					c-58.792,18.611-63.444,58.792-63.444,58.792s-6.345,13.958-10.151,28.762s5.922,33.837,5.922,33.837
					c-0.549-3.571-0.741-9.279-0.809-12.845c0.796,7.714,5.744,20.035,5.744,20.035c0.055,4.649-0.779,14.098-2.822,24.743
					c-1.651,8.598-1.268,18.188,1.481,28.339c0.448,1.656,15.438,47.795,24.531,59.216c0.45,0.564,0.921,1.102,1.405,1.616
					l-1.604,47.643c-4.033,1.354-16.773,6.059-22.43,13.129c0,0-11.42,6.768-27.069,14.805
					c-15.651,8.036-79.518,27.492-94.744,49.486c-10.697,15.452-19.718,35.064-24.142,45.374
					c-6.971,12.356-12.823,23.463-13.504,27.377c-1.69,9.727-4.653,41.873,26.647,57.946
					c31.301,16.072,480.491-5.076,479.645-26.224C475.135,534.655,464.982,499.126,464.982,499.126z M310.19,237.696
					c0.643,2.433,0.956,4.848,1.022,7.184C310.986,242.404,310.65,239.958,310.19,237.696z M-9.703,484.301
					c4.173-7.752,9.115-16.494,13.752-23.593C0.552,466.781-4.52,475.36-9.703,484.301z M389.981,415.068
					c3.181,1.386,5.479,2.52,6.481,3.271c6.766,5.075,30.875,16.918,33.413,19.456c0.277,0.277,0.794,0.759,1.486,1.427
					c-2.701-2.156-5.589-4.071-8.677-5.657C405.066,424.519,395.223,418.555,389.981,415.068z"/>
			</g>
			<g>
				<defs>
					<polygon id="SVGID_339_" points="356.344,420.414 200.434,490.732 44.344,420.816 43.895,72.543 355.894,72.141 
						373.993,217.182 356.231,333.871 					"/>
				</defs>
				<clipPath id="SVGID_22_">
					<use xlink:href="#SVGID_339_"  overflow="visible"/>
				</clipPath>
				<g clip-path="url(#SVGID_22_)">
					<path fill="#E02B3A" d="M442.982,500.126c0,0-10.998-49.487-42.297-65.561c-31.3-16.071-38.066-22.416-38.066-22.416
						s-62.177-22.84-71.06-26.224c-8.881-3.385-19.878-9.729-19.878-9.729s-16.919,54.562-83.748,74.864
						c0,0-69.79-17.764-69.367-62.176l1.058-6.767c0,0-7.19,4.018-11.42,7.4c-4.229,3.384-29.607,14.594-31.724,16.073
						c-2.113,1.48-66.192,30.031-73.172,34.26c-6.979,4.231-13.536,6.557-16.92,13.958c-3.382,7.401-37.009,61.543-38.701,71.271
						c-1.69,9.727-4.653,41.873,26.647,57.946c31.301,16.072,480.491-5.076,479.645-26.224
						C453.135,535.655,442.982,500.126,442.982,500.126z"/>
					<path fill="#FBC3A9" d="M257.723,389.871c0,0-9.304-49.838-2.325-79.658c6.979-29.818,6.132-28.761,6.132-28.761
						s10.574,0.423,16.073-4.653c5.499-5.075,12.479-16.072,11.844-27.704c-0.635-11.631-3.522-24.178-10.433-21.077
						c-6.91,3.101,2.183-3.454-3.104-7.05c-5.287-3.595-17.763-31.723-20.513-38.913c-2.75-7.19,21.505-45.397-14.309-56.395
						c-35.813-10.997-118.716-6.203-126.044,11.843c-7.333,18.045-10.152,53.012-9.025,56.677s1.974,24.815,1.127,29.045
						c-0.847,4.229-5.075,29.042-1.974,39.193c3.104,10.152,22.276,58.936,24.529,62.318c2.261,3.385,2.261,3.385,2.261,3.385v14.1
						l-1.692,34.399c0,0-10.436,4.229-10.716,9.024c-0.281,4.795-3.948,15.224,4.512,26.222
						c8.458,10.996,38.912,40.677,62.882,37.787c0,0,39.686-2.397,73.878-50.755L257.723,389.871z"/>
					<path fill="#FFFFFF" d="M183.846,217.161c0,0,3.523-8.317,10.433-6.908c6.91,1.41,15.791,5.216,15.791,5.216l-1.55,2.114
						c0,0-9.378,3.808-22.701,1.058C182.54,218.536,183.846,217.161,183.846,217.161z"/>
					<path fill="#FFFFFF" d="M122.691,218.959c0,0,1.161,1.904,2.854,2.749c1.693,0.846,10.291,1.869,18.718-2.749
						c0,0-5.604-6.768-10.998-6.239C127.871,213.249,122.691,218.959,122.691,218.959z"/>
					<path fill="#D0967B" d="M164.67,235.983c0,0-1.902,4.864-1.268,5.287c0.634,0.424,8.67,4.23,10.149,4.442
						C175.033,245.923,170.804,239.579,164.67,235.983z"/>
					<path fill="#D0967B" d="M142.538,258.754c0,0-0.285-8.178,4.367-8.813c3.642-0.497,8.98,3.025,15.512-1.763
						c4.229-3.103,15.648,5.075,12.826,10.434c0,0,0.707,1.692-4.651,1.976c-5.359,0.281-10.15-1.976-10.574-0.845
						c-0.423,1.126-0.143,6.625-0.284,7.048c-0.139,0.423-1.27,2.538-2.114,2.68c-0.847,0.139-3.808-1.411-3.808-1.411l1.555-8.316
						C155.366,259.742,146.695,264.956,142.538,258.754z"/>
					<path fill="#D0967B" d="M213.312,187.342c0,0-23.263-4.018-43.564,14.169c0,0-4.958-0.564-5.711-1.692
						c-0.423-0.634,1.903,7.19,3.171,8.248c0,0,0.847,6.768,1.27,7.402c0.423,0.634,6.557,2.326,6.557,2.326
						s8.036,13.323,18.61,19.034c0,0-8.248-4.653-12.055-14.592l1.691-2.115c0,0,9.867,0.283,12.828-0.563
						c0,0-8.386,0.563-10.29-0.917c-1.903-1.481,2.325-6.345,3.174-6.557c0.845-0.211,6.767-1.269,7.401-1.057
						c0.635,0.212,10.149,1.692,12.266,2.539c2.115,0.845,0,4.124,0,4.124s-4.442,1.585-6.979,2.009c0,0,8.479-0.85,9.517-1.058
						c1.057-0.212,13.958,2.75,13.958,2.75s-12.901-16.073-35.74-13.958l-1.271-1.692c0,0,6.558-3.383,10.998-3.383
						c0,0-7.4-1.48-16.707,4.018c0,0,14.169-16.284,50.122,3.172C232.557,209.548,223.885,191.36,213.312,187.342z"/>
					<path fill="#D0967B" d="M120.681,204.05c5.36-0.424,15.228-2.679,23.407,5.92c0,0-4.372-2.82-12.548-3.243
						c0,0,16.354,6.487,16.072,11.703c-0.282,5.216-1.268,6.768-1.268,6.768s4.789-7.19,4.651-8.459
						c-0.143-1.269-4.936-10.434-4.936-10.434s8.459,0.565,9.306,0.706c0.845,0.141,3.383-3.947,4.09-4.652
						c0,0-1.815,2.374-2.822,1.409c-6.768-6.485-25.24-10.855-32.567-12.546l-3.524,3.101l2.677-4.087
						c0,0-12.55,9.446-16.355,19.314C106.681,210.021,115.322,204.472,120.681,204.05z"/>
					<path fill="#D0967B" d="M129.707,222.8c0,0-5.06,0.441-8.92-1.568c0,0-3.98,1.85-5.815,3.542c0,0,3.226-12.055,15.723-13.676
						c11.086-1.438,18.188,7.331,15.366,12.407c0,0-0.708-2.255-1.131-2.678c0,0-4.369,13.533-16.073,17.481
						c0,0,8.32-5.217,11.28-13.535c0,0-6.485,2.255-8.743,1.692c-2.253-0.564-4.949-2.75-4.949-2.75s8.175,0.774,10.574-1.058
						l1.587-1.164c0,0,1.248,0.46,3.785-1.656c2.539-2.114,0-4.371-3.522-5.357c-3.521-0.986-12.827-0.141-14.519,2.115
						c-1.692,2.255-2.115,2.96-2.115,2.96S126.2,222.57,129.707,222.8z"/>
					<path fill="#D0967B" d="M140.033,291.498c0,0,2.573-15.261,12.021-17.871c0,0,1.55,0.918,3.031,1.27
						c1.479,0.35,2.464,0.211,3.24-0.212c0.777-0.422,5.077-2.187,6.133-1.904c1.058,0.285,18.189,9.868,21.645,12.479l0.281,0.918
						c0,0-13.819-3.811-17.271-3.668c-3.454,0.143-10.575,3.244-14.593,2.61c-4.021-0.634-4.727-0.919-4.865-0.634
						c-0.137,0.28-7.613,6.201-7.613,6.201L140.033,291.498z"/>
					<path fill="#D0967B" d="M141.726,316.348c0,0,18.503-19.562,43.775-8.883c0,0-10.784-6.979-21.36-8.565
						c0,0,7.19-2.009,11.316-0.741c0,0-6.45-5.498-6.98-5.814c0,0,5.71-5.922,6.134-6.873c0,0-5.394,3.701-7.825,4.441
						c-2.432,0.739-10.892,2.96-13.111,2.96c-2.222,0-8.036-3.489-8.036-3.489s3.911,4.336,4.44,4.758c0,0-2.643,5.393-3.808,10.892
						c0,0,4.97-3.7,6.873-4.124C153.144,300.908,147.222,304.504,141.726,316.348z"/>
					<path fill="#D0967B" d="M255.185,283.566c0,0-3.316,19.364-16.634,27.354c-14.098,8.46-36.943,11.843-40.89,11.843
						c-3.944,0-34.964-7.896-49.345,4.23c0,0-11.278,5.072-20.302-7.052c0,0-0.41,2.551,4.229,7.614
						c3.103,3.383,14.661,7.051,14.661,7.051s33.558,20.58,37.505,21.426c3.947,0.847,41.452-31.3,47.088-33.553
						C237.136,320.227,254.622,312.891,255.185,283.566z"/>
					<path fill="#D0967B" d="M272.104,240.988c0,0,3.949-10.151,8.602-10.151c4.048,0,16.672,21.537-1.728,39.196
						c0,0,12.299-12.831-0.952-32.005C278.025,238.027,274.288,238.098,272.104,240.988z"/>
					<path fill="#D0967B" d="M281.41,252.796c0,0-6.028-8.037-9.836-6.768c-3.805,1.269-0.527,4.547-0.738,8.882
						c-0.213,4.336-2.54,7.507-2.54,7.507s1.376,1.481,3.386,1.798c2.009,0.317,8.142,0.634,9.833-4.652
						C283.206,254.276,281.41,252.796,281.41,252.796z"/>
					<path fill="#D0967B" d="M137.602,330.939c0,0-6.77,78.249-7.192,81.633c-0.422,3.384-1.057,3.806-1.057,3.806
						s-13.746-8.459-11.209-21.57c2.537-13.112,8.883-18.61,10.151-18.188s2.961-5.076,2.961-5.076l2.538-44.412L137.602,330.939z"
						/>
					<path fill="#D0967B" d="M159.595,404.113c0.423,1.691,14.381,35.529,19.034,38.066c4.651,2.537,12.688-1.692,12.688-1.692
						l17.343-38.066c0,0-14.806,22.841-17.343,23.264c-2.537,0.422-10.996,0-13.111-1.27c-2.114-1.269,0.424,6.768,0.424,6.768
						L159.595,404.113z"/>
					<path fill="#D0967B" d="M215.004,438.796c0,0,18.609-29.607,21.571-37.221c0,0-2.115,20.302-7.614,27.916
						C223.463,437.104,215.004,438.796,215.004,438.796z"/>
					<path fill="#D0967B" d="M270.2,376.197c0,0-2.961,14.592-13.112,28.338c0,0-21.64-53.293,4.301-122.375
						c0,0-13.813,52.447-6.767,86.847c0,0,1.978-1.128,3.385,0.283C259.415,370.698,270.2,376.197,270.2,376.197z"/>
					<path fill="#D0967B" d="M112.222,177.262c0,0,10.436-26.224,42.013-27.069c0,0-4.507,2.254-6.199,2.254
						c0,0,18.327-0.282,29.886-1.691c0,0-6.646,2.175-7.613,2.82c-0.846,0.563,23.971-4.23,27.916-4.513
						c0,0-12.124,7.05-14.381,6.769c0,0,36.095-2.256,39.197-2.256s-0.28,8.74,0.845,11.278c0,0,0.281-3.949,6.204-9.306
						c5.921-5.356,4.794-8.459,3.103-10.714c-1.693-2.256-11.279-9.305-12.972-10.151c-1.689-0.846-17.481-4.231-21.713-5.358
						c-4.229-1.127-21.147-1.692-25.661-0.846c-4.509,0.846-24.813,2.537-26.223,4.512
						C145.214,134.965,109.122,146.243,112.222,177.262z"/>
					<path fill="#D0967B" d="M172.919,238.944c0.633,0.211,12.053,7.825,17.13,24.321c0,0-6.345-10.786-12.055-16.707
						L172.919,238.944z"/>
					<path fill="#D0967B" d="M140.561,253.113l-8.036,18.188c0,0,9.306-12.478,9.306-13.958
						C141.83,255.863,140.561,253.113,140.561,253.113z"/>
					<path fill="#D0967B" d="M271.258,234.079c0,0,5.393-3.171,6.133-3.171c0.742,0,4.368-2.29,6.413-1.621
						c2.045,0.669-3.769-2.609-4.826-2.503C277.919,226.89,275.065,227.312,271.258,234.079"/>
					<path fill="#D0967B" d="M273.373,226.89c0,0-10.363,12.689-9.095,19.668c1.269,6.978,3.808,10.362-0.634,14.168
						c-4.442,3.807-7.402,12.689-7.402,12.689s-3.806-19.457-0.845-28.551c2.96-9.094,9.939-19.879,10.997-20.091
						C267.451,224.563,273.373,226.89,273.373,226.89z"/>
					<path fill="#D0967B" d="M273.516,271.866c0,0-4.371,1.127-7.615-1.269c-2.199-1.626-2.818,3.242,0.144,3.526
						C269.004,274.404,273.516,271.866,273.516,271.866z"/>
					<path fill="#010101" d="M115.045,171.903c-5.076,14.1-7.575,30.697-6.769,38.631c1.974,19.456-7.333,33.838-1.411,53.576
						c5.916,19.718,19.314,51.962,23.544,57.312c4.792,6.061,14.17,14.169,20.725,11.493c20.205-8.255,39.76-7.898,45.119-7.053
						c5.356,0.846,28.764-4.791,40.605-10.996c10.585-5.545,16.355-21.711,16.355-21.711s-0.851,19.173-21.716,27.07
						c0,0-43.422,26.22-50.471,28.478c-7.052,2.256-27.916-10.432-30.454-11.277c0,0-13.205-2.241-20.799-11.774
						c-9.094-11.42-24.083-57.56-24.531-59.216c-2.749-10.151-3.133-19.741-1.481-28.339c2.043-10.645,2.877-20.094,2.822-24.743
						C106.513,207.01,106.09,189.457,115.045,171.903z"/>
					<path fill="#010101" d="M140.666,291.286c0,0,2.149-15.333,11.633-17.024c0,0,3.067,2.537,6.134,1.162
						c3.064-1.374,5.286-2.22,7.717-1.269c2.433,0.952,16.391,9.835,18.296,10.786c1.901,0.952,3.064,0.635,3.064,0.635
						s-15.12-10.363-21.147-12.795c0,0-2.359-2.042-7.964,1.342c0,0-1.83,1.295-5.148-0.813c-2.326-1.48-11.104,3.913-13.217,18.188
						L140.666,291.286z"/>
					<path fill="#010101" d="M148.597,290.546"/>
					<path fill="#010101" d="M146.026,289.595c0,0,3.701,2.22,5.076,2.114c1.374-0.105,7.296-3.701,11.842-2.855
						c4.548,0.846,9.729-2.114,9.729-2.114s-5.604,4.652-6.872,4.97c0,0,5.394,4.408,5.921,4.831c0,0-15.227-1.691-23.125,5.075
						c0,0,2.612-6.84,3.88-8.002c0,0-1.057,0-1.798-0.529C149.938,292.555,146.026,289.595,146.026,289.595z"/>
					<path fill="#010101" d="M140.703,290.618c0,0,9.024-8.036,10.996-7.897c1.975,0.139,4.368,2.254,8.318,0.562
						c3.949-1.692,3.88-2.75,6.064-2.961c2.184-0.208,15.576,4.586,18.363,4.619c2.783,0.033,8.848-1.236,7.579,2.293
						c-0.822,2.281-3.807,0-6.487-0.707c-2.68-0.707-11.423-2.676-15.79-2.537c-4.37,0.139-10.011,3.668-18.751,2.114
						c0,0-5.554,2.736-9.166,5.499c-2.4,1.83-4.512,2.537-4.934,0.846C136.18,289.574,140.703,290.618,140.703,290.618z"/>
					<path fill="#010101" d="M153.25,256.392c0,0-2.854-3.489-4.863-2.961c-2.01,0.528-2.326,5.181-0.425,4.97
						C149.866,258.189,150.607,255.863,153.25,256.392z"/>
					<path fill="#010101" d="M160.335,256.92c0,0,0.951-4.971,2.854-5.076c1.904-0.105,8.46,3.701,6.239,5.393
						C167.207,258.93,163.295,258.506,160.335,256.92z"/>
					<path fill="#010101" d="M171.966,237.887c0,0,7.135,8.388,6.345,14.804c-0.846,6.874-6.026,7.475-6.733,7.897
						c0,0,9.166-0.706,8.214-9.8C179.139,244.524,171.966,237.887,171.966,237.887z"/>
					<path fill="#010101" d="M143.807,246.065c0,0-3.246,6.344-2.539,9.305c0.701,2.961,3.521,5.356,5.215,6.345
						c0,0-3.912-0.776-6.06-5.356C140.423,256.358,138.868,252.833,143.807,246.065z"/>
					<path fill="#010101" d="M198.653,198.4c7.001-0.316,14.103,0.639,14.103,0.639s-5.096-3.923-7.352-4.196
						c0,0,7.062,2.927,9.328,5.032c0,0-5.099-4.913-5.383-5.333l6.368,4.906l-5.949-5.895l7.357,5.604l-5.804-5.188l7.636,5.18
						c0,0-5.094-4.208-4.673-4.068c0.424,0.142,6.931,4.339,6.931,4.339l-5.238-4.487l6.223,4.342l-5.237-4.908l5.803,4.482
						l-1.849-2.388l4.244,2.941c0,0-6.378-7.019-9.626-8.413c0,0,3.258,2.942,4.107,4.067c0,0-3.255-2.946-6.223-4.34
						c0,0,1.956,1.443,2.406,2.103c0.287,0.422-4.666-2.656-5.516-3.076c0,0,2.764,2.17,3.686,3.084
						c0.426,0.421-3.68-2.52-5.093-2.797c0,0-8.115-1.864-15.505,0.497c-7.391,2.361-17.103,6.003-19.833,10.244
						c-2.729,4.243-5.683,5.527-5.683,5.527s5.062-2.563,6.959-4.052C176.738,200.758,196.889,198.479,198.653,198.4z"/>
					<path fill="#010101" d="M111.799,205.601c0,0,4.792-4.934,6.484-5.922c0,0-3.101,3.383-3.946,4.23l4.652-3.808l-2.96,3.384
						l4.937-3.666l-2.822,3.102l3.669-1.692l-1.554,1.692c0,0,23.686-0.423,32.78,0.705c2.113-1.552-16.846-9.304-28.266-10.292
						c0,0-5.195,3.273-5.784,3.665c-0.423,0.282,4.368-3.665,4.368-3.665l-6.345,4.653l3.385-4.373l-8.738,8.743l4.085-3.102
						l-3.806,4.37l3.951-3.666L111.799,205.601z"/>
					<path fill="#010101" d="M193.75,219.699c0,0-3.841-0.424-6.802-1.127c0,0-0.146-4.089,3.808-6.487
						c0,0,7.188-2.256,17.617,3.807l-0.845,2.257c0,0-3.099,0.985-4.229,1.126c0,0,4.374,0.281,7.335-2.115
						c0,0,8.178,1.131,8.74,1.411c0.562,0.281-11.988-8.695-23.267-9.165c-13.535-0.563-16.212,12.549-16.212,12.549
						s3.102-2.679,3.808-2.539C183.704,219.418,188.812,220.826,193.75,219.699z"/>
					<path fill="#010101" d="M129.707,222.8c0,0-3.811-0.843-5.641-3.242c0,0,2.682-5.299,7.474-5.075
						c9.021,0.423,11.697,4.229,11.697,4.229s-2.253,2.396-4.93,2.819c0,0,5.075,0.001,7.048-1.973c0,0,0.846,1.41,0.564,3.102
						c0,0,1.287-2.171-0.422-4.793c-2.115-3.244-6.768-6.204-13.396-6.204c-6.63,0-14.524,7.331-15.651,11.137
						c0,0,2.4-2.678,4.937-2.678C121.388,220.122,123.785,222.377,129.707,222.8z"/>
					<path fill="#010101" d="M271.258,234.079c0,0,4.372-7.894,7.332-7.753c2.962,0.141,5.923,1.692,5.923,1.692
						s12.404,19.316,0.702,40.184c0,0-8.6,17.48-23.826,13.959c0,0-1.409,2.537-2.396,5.498c-0.161,0.482-0.705-8.602,2.68-13.113
						c0,0-1.412,3.1-0.564,4.792c0,0,14.522,4.229,22.84-12.265c0,0,11.982-20.584-0.144-37.785c0,0-3.379-1.691-4.79-1.269
						C277.603,228.44,274.784,229.427,271.258,234.079z"/>
					<path fill="#010101" d="M274.219,238.029c0,0,3.664-6.487,6.768-6.627c0,0,14.1,11.984,3.103,30.878
						c0,0,4.507-16.778-6.206-26.789C277.883,235.49,275.488,236.196,274.219,238.029z"/>
					<path fill="#010101" d="M277.179,248.25c0.569,0.354-3.806-3.808-6.556-2.75c-2.749,1.059-3.384,3.384-1.902,5.288
						c1.479,1.903,0.845,7.19-1.057,10.152c-1.904,2.96,5.497,5.921,10.995,2.326c0,0-4.229,2.326-9.304-0.423
						c0,0,6.133-5.921,1.057-13.112C270.412,249.73,270.412,244.02,277.179,248.25z"/>
					<path fill="#010101" d="M263.082,281.029c0,0-15.512,49.064-4.935,104.896c0,0-15.229-38.067,2.112-104.051L263.082,281.029z"
						/>
					<path fill="#010101" d="M131.256,325.018l-2.961,87.978c0,0,7.19-81.21,6.345-83.325
						C133.794,327.557,131.256,325.018,131.256,325.018z"/>
					<path fill="#010101" d="M106.584,213.354c0,0-6.627-16.496-5.781-23.263c0,0,0,10.574,0.846,16.073
						c0,0-9.729-19.034-5.922-33.837s10.151-28.762,10.151-28.762s4.652-40.182,63.444-58.792c0,0,90.515-10.151,115.047,57.102
						c0,0,13.535,37.643,5.499,59.638s-7.189,25.801-7.189,25.801s-21.994-3.806-27.916,23.687c0,0,3.385-28.762-4.23-39.336
						c-7.613-10.575-22.84-29.185-20.726-59.638c0,0-3.383,8.882-4.229,10.997l-0.423-10.575c0,0-16.072,2.96-33.838,2.96
						c0,0,11.422-3.807,17.766-11.419c0,0-19.88,5.921-28.339,8.037c0,0,13.11-6.345,14.381-7.614c0,0-15.228,5.076-37.646,5.499
						c0,0,9.307-1.269,14.382-4.653c0,0-5.498,2.96-13.957,1.692s-31.3,4.652-42.721,20.303L106.584,213.354z"/>
					<path fill="#010101" d="M114.972,386.137c0.191-2.148-6.133,5.287-7.402,6.556c-1.27,1.27-16.918,10.574-24.954,12.267
						c-8.036,1.69-79.097,36.798-89.67,43.565c-10.574,6.768-34.683,56.255-34.683,56.255s11.843-30.453,27.07-52.448
						c15.227-21.994,79.093-41.45,94.744-49.486c15.649-8.037,27.069-14.805,27.069-14.805c6.768-8.459,23.686-13.535,23.686-13.535
						l-0.845,4.23c-11.421,3.806-10.152,22.84-10.152,22.84s29.749,38.205,49.487,45.257c0,0,19.431,1.884,27.916,0.424
						c13.536-2.327,50.967-22.841,71.906-69.367l-13.96-8.036v-3.808c3.384,1.693,9.308,5.499,9.308,5.499s5.073,0.423,8.034,1.691
						c2.962,1.27,21.572,11.844,30.455,15.65c8.881,3.807,68.942,23.264,72.749,27.07c3.809,3.807,8.882,6.767,31.723,20.302
						c22.84,13.536,35.883,65.156,35.529,63.868c-10.998-40.182-32.567-58.791-35.106-61.33
						c-2.538-2.538-26.647-14.381-33.413-19.456c-6.769-5.076-72.328-27.493-73.598-28.339c-1.27-0.847-10.997-4.229-14.381-6.344
						c-3.383-2.116-13.323-5.076-13.323-5.076s-31.722,60.484-76.347,70.847c-6.544,1.521-19.879,0.846-26.223-0.424
						c-9.802-1.96-23.687-11.842-52.235-43.776C116.079,400.627,114.417,392.402,114.972,386.137z"/>
					<path fill="#010101" d="M143.807,314.582c0,0,10.997-17.342,38.628-8.459C182.435,306.123,160.58,299.779,143.807,314.582z"/>
					<path fill="#D0967B" d="M153.039,227.312l-10.151,18.822c0,0,2.96-10.785,4.018-11.419
						C147.962,234.079,153.039,227.312,153.039,227.312z"/>
					<g>
						<defs>
							<path id="SVGID_341_" d="M183.846,217.161c0,0,3.523-8.317,10.433-6.908c6.91,1.41,15.791,5.216,15.791,5.216l-1.55,2.114
								c0,0-8.882,3.808-22.701,1.058C182.54,218.536,183.846,217.161,183.846,217.161z"/>
						</defs>
						<clipPath id="SVGID_24_">
							<use xlink:href="#SVGID_341_"  overflow="visible"/>
						</clipPath>
						<path clip-path="url(#SVGID_24_)" fill="#010101" d="M202.242,214.112c0,3.183-2.577,5.763-5.764,5.763
							c-3.18,0-5.764-2.58-5.764-5.763c0-3.182,2.584-5.763,5.764-5.763C199.665,208.35,202.242,210.931,202.242,214.112z"/>
					</g>
					<g>
						<defs>
							<path id="SVGID_343_" d="M122.691,218.959c0,0,1.161,1.904,2.854,2.749c1.693,0.846,10.437,2.009,18.718-2.749
								c0,0-5.604-6.768-10.998-6.239C127.871,213.249,122.691,218.959,122.691,218.959z"/>
						</defs>
						<clipPath id="SVGID_26_">
							<use xlink:href="#SVGID_343_"  overflow="visible"/>
						</clipPath>
						<circle clip-path="url(#SVGID_26_)" fill="#010101" cx="133.794" cy="217.55" r="5.182"/>
					</g>
					<path fill="#9E1F23" d="M363.466,508.163c0,0,6.345-35.106-7.613-48.219c-13.959-13.112-73.316-44.269-75.854-43.847
						c-2.539,0.423-38.349,14.381-38.349,14.381s35.107-15.508,40.604-18.045c0,0,44.836,20.018,76.699,47.088
						C358.954,459.521,370.655,477.71,363.466,508.163z"/>
					<path fill="#9E1F23" d="M134.216,429.352c0,0-37.505-9.874-39.197-9.874c-1.691,0-94.883,12.551-86.423,113.641
						c0,0-8.036-93.338,86.708-110.533L134.216,429.352z"/>
					<path fill="#9E1F23" d="M149.728,442.887c0,0,10.994,8.737,13.251,9.866c2.256,1.132,30.734,2.539,34.683,1.978
						c3.948-0.569,24.251-11.565,24.251-11.565s-20.021,13.258-24.251,14.103c-4.229,0.846-32.427-0.284-34.964-1.976
						C160.161,453.601,149.728,442.887,149.728,442.887z"/>
					<path fill="#554B4C" d="M171.158,91.822c0,0-26.226,7.613-35.812,20.02c0,0,14.942-8.458,17.765-9.023
						c0,0-11.846,10.716-15.51,15.227c0,0,19.736-14.381,25.377-16.073c0,0-8.459,7.614-10.152,9.023
						c0,0,18.896-12.972,25.944-15.509l-11.844,4.794l10.998-7.332c0,0-14.665,6.486-16.639,7.332
						C159.313,101.127,171.158,91.822,171.158,91.822z"/>
					<path fill="#554B4C" d="M181.027,99.999c0,0-20.306,13.537-23.124,16.355C157.903,116.354,174.541,106.203,181.027,99.999z"/>
					<path fill="#554B4C" d="M179.896,109.021c0,0-21.147,14.666-24.53,17.484l17.482-9.588l-12.97,9.023l29.323-15.227
						l-12.689,4.795L179.896,109.021z"/>
					<path fill="#2D2727" d="M113.63,169.226l-8.036,31.159c0,0-4.368-11.138-4.931-14.803c0,0-1.837,5.909-1.837,6.767
						c0,0.423-3.242-15.652-2.537-17.907c0.707-2.255,8.743-22.841,8.743-22.841l-1.832,7.333c0,0,5.639-10.009,8.315-12.267
						c0,0-6.056,12.4-6.623,13.252c-0.284,0.424,6.484-7.613,7.469-8.035c0,0-5.496,8.881-6.622,12.265
						c0,0,10.005-7.896,14.096-10.574c0,0-7.19,12.264-8.458,15.79L113.63,169.226z"/>
					<path fill="#2D2727" d="M242.776,180.082c0,0,1.128,6.768,6.768,11.843c0,0-2.253-5.077-2.818-9.024
						c-0.566-3.948-0.566-3.948-0.566-3.948s3.95,10.15,9.025,15.79l-2.257-10.714c0,0,9.025,13.533,12.409,17.482
						c0,0-11.278-23.687-12.971-27.07c0,0,2.818,6.47,2.818,8.742c0,0.846-6.766-9.871-6.766-9.871l2.537,10.151l-7.614-12.97
						l1.692,11.561L242.776,180.082z"/>
					<path fill="#FFFFFF" d="M136.996,218.188c-0.022-0.025-0.043-0.049-0.067-0.074c-0.332-0.378-0.987-0.369-1.371-0.042
						c-0.297-1.005-1.909,0.684-0.495,0.773c0.013,0.001,0.026,0.001,0.039,0.002c-0.078,0.633,0.328,1.282,1.092,1.282
						C137.233,220.13,137.627,218.916,136.996,218.188z"/>
					<path fill="#FFFFFF" d="M196.822,215.398c-0.023-0.112,0-0.24-0.069-0.329c-0.255-0.332-0.479-0.59-0.909-0.67
						c-0.535-0.1-1.278,0.14-1.368,0.775c-0.005,0.031-0.005,0.064-0.012,0.096c-0.166,1.165,1.066,2.07,2.028,1.182
						c0.033-0.029,0.066-0.057,0.091-0.085c0.037-0.032,0.041-0.094,0.068-0.132c0.197,0.975,1.824,1.424,2.286,0.111
						C199.373,215.104,197.517,214.331,196.822,215.398z"/>
					<path fill="#A76F65" d="M224.379,253.389c-0.076-0.104-0.151-0.208-0.227-0.313c-0.598-0.838-1.708,0.271-0.867,0.869
						c0.104,0.074,0.21,0.148,0.312,0.223C224.058,254.493,224.702,253.847,224.379,253.389z"/>
					<path fill="#A76F65" d="M242.08,250.769c0.015,0.091,0.024,0.182,0.037,0.273c0.092,0.66,1.234,0.66,1.327,0
						c0.011-0.091,0.022-0.182,0.036-0.273C243.646,249.596,241.915,249.596,242.08,250.769z"/>
					<path fill="#A76F65" d="M240.805,256.173c-1.145,0-1.145,1.771,0,1.771C241.947,257.944,241.947,256.173,240.805,256.173z"/>
					<path fill="#A76F65" d="M232.794,280.183l0.029,0.248c0.061,0.47,0.676,0.47,0.734,0l0.029-0.248
						C233.65,279.675,232.731,279.675,232.794,280.183z"/>
					<path fill="#A76F65" d="M232.503,284.273c-0.042-0.068-0.085-0.138-0.124-0.207c-0.269-0.447-0.922-0.447-1.19,0
						c-0.04,0.069-0.083,0.139-0.125,0.207C230.132,285.827,233.435,285.827,232.503,284.273z"/>
					<path fill="#A76F65" d="M240.497,328.421c-0.022-0.073-0.043-0.151-0.065-0.228c-0.224-0.744-1.282-0.744-1.508,0
						c-0.023,0.076-0.043,0.154-0.066,0.228C238.445,329.789,240.909,329.789,240.497,328.421z"/>
					<path fill="#A76F65" d="M156.283,183.211c-0.317-1.155-2.055-0.711-1.851,0.431
						C154.659,184.895,156.62,184.444,156.283,183.211z"/>
					<path fill="#A76F65" d="M153.558,194.015c-0.076-0.021-0.155-0.041-0.229-0.062c-1.321-0.354-1.321,1.934,0,1.58
						c0.073-0.02,0.152-0.041,0.229-0.061C154.28,195.279,154.28,194.208,153.558,194.015z"/>
					<path fill="#A76F65" d="M109.665,254.017c-0.08-0.022-0.152-0.043-0.23-0.064c-1.895-0.531-1.895,2.802,0,2.27
						c0.078-0.023,0.15-0.042,0.23-0.062C110.722,255.859,110.722,254.315,109.665,254.017z"/>
					<path fill="#A76F65" d="M121.98,287.981c0.023,0.079,0.05,0.152,0.069,0.229c0.188,0.598,1.024,0.598,1.209,0
						c0.026-0.076,0.05-0.149,0.074-0.229C123.683,286.858,121.628,286.858,121.98,287.981z"/>
				</g>
			</g>
			<g>
				<path fill="#FFFFFF" d="M200.303,524.574c-15.604,0-28.314-12.694-28.334-28.298c-0.01-7.568,2.928-14.687,8.272-20.045
					c5.344-5.357,12.456-8.313,20.025-8.323c15.639,0,28.348,12.693,28.369,28.295c0.02,15.623-12.673,28.351-28.295,28.371H200.303
					z"/>
				<path fill="#D3B76E" d="M200.305,469.908c14.527-0.001,26.311,11.767,26.33,26.298c0.019,14.545-11.755,26.349-26.298,26.368
					c-0.011,0-0.023,0-0.034,0c-14.53,0-26.315-11.767-26.334-26.301c-0.02-14.543,11.755-26.347,26.3-26.365
					C200.28,469.908,200.293,469.908,200.305,469.908 M200.306,465.908h-0.001h-0.003h-0.039
					c-8.102,0.011-15.716,3.175-21.438,8.911c-5.722,5.736-8.867,13.357-8.856,21.46c0.021,16.704,13.629,30.295,30.334,30.295
					c16.764-0.022,30.354-13.647,30.332-30.373C230.612,479.497,217.007,465.908,200.306,465.908L200.306,465.908z"/>
			</g>
			<g>
				<g>
					<g>
						<path fill="#F2F2F2" d="M177.652,490.666c3.078-12.512,15.717-20.153,28.225-17.075c12.512,3.078,20.153,15.714,17.075,28.225
							c-3.079,12.51-15.714,20.154-28.226,17.074C182.219,515.812,174.571,503.176,177.652,490.666"/>
						<path fill="#E02B3A" d="M209.639,494.906c0.447,4.874-3.137,9.188-8.007,9.638c-4.871,0.45-9.186-3.131-9.634-8.004
							c-0.451-4.871,3.133-9.187,8.003-9.636C204.872,486.454,209.186,490.036,209.639,494.906"/>
						<path fill="#213E73" d="M193.235,491.156c-1.263,2.096-0.598,4.814,1.496,6.076c2.092,1.266,4.812,0.594,6.076-1.499
							c1.261-2.093,3.979-2.759,6.074-1.496c2.09,1.262,2.761,3.981,1.496,6.071c-2.527,4.186-7.962,5.523-12.148,2.998
							C192.049,500.779,190.708,495.342,193.235,491.156"/>
					</g>
					<path fill="#404041" d="M186.441,505.637l2.306,3.408l1.151-0.773l-2.31-3.41L186.441,505.637z M186.076,505.098l1.148-0.777
						l-2.307-3.411l-1.151,0.775L186.076,505.098z M182,502.884l4.98,7.36l1.146-0.774l-4.979-7.36L182,502.884z M185.538,500.49
						l4.98,7.361l1.146-0.777l-4.979-7.363L185.538,500.49z M216.095,490.961l-2.304-3.413l-1.149,0.776l2.306,3.412
						L216.095,490.961z M213.422,487.008l-2.304-3.412l-1.147,0.776l2.306,3.411L213.422,487.008z M218.491,489.343l1.146-0.777
						l-2.31-3.411l-1.147,0.777L218.491,489.343z M216.963,484.613l-2.307-3.411l-1.149,0.776l2.31,3.412L216.963,484.613z
						 M217.864,489.766l-4.974-7.365l-1.152,0.775l4.98,7.361L217.864,489.766z M213.542,509.437l1.151,0.772l2.299-3.417
						l-1.151-0.774L213.542,509.437z M216.205,505.478l1.149,0.771l2.3-3.414l-1.152-0.771L216.205,505.478z M214.067,504.828
						l-2.296,3.415l1.147,0.776l2.3-3.417L214.067,504.828z M217.88,501.643l-1.147-0.774l-2.301,3.417l1.15,0.775L217.88,501.643z
						 M212.297,503.634l-2.301,3.417l1.153,0.773l2.295-3.416L212.297,503.634z M213.812,503.868l2.294-3.417l-1.149-0.777
						l-2.298,3.418L213.812,503.868z M185.526,491l1.149,0.772l4.959-7.377l-1.147-0.771L185.526,491z M184.9,490.58l4.965-7.377
						l-1.152-0.771l-4.962,7.378L184.9,490.58z M188.091,482.012l-1.147-0.773l-4.965,7.376l1.151,0.774L188.091,482.012z"/>
				</g>
			</g>
		</g>
		<g>
			
				<rect x="55.114" y="31.166" transform="matrix(1 -0.0013 0.0013 1 -0.0715 0.2583)" fill="#D3B76E" width="289.192" height="48.5"/>
			<polygon fill="#D3B76E" points="68.131,73.023 29.477,73.073 37.821,55.625 29.432,38.198 80.752,38.133 80.768,50.164 
				55.107,50.197 			"/>
			<polygon fill="#D3B76E" points="331.334,72.684 369.988,72.634 361.599,55.207 369.943,37.759 318.623,37.825 318.639,49.856 
				344.299,49.823 			"/>
			<g>
				<g>
					<path fill="#9B8E52" d="M83.652,65.582l-6.219-8.506l-2.113,2.118l0.009,6.399l-3.769,0.005l-0.024-18.98l3.769-0.005
						l0.005,3.742c0.004,3.119-0.05,4.258-0.022,4.257h0.027c0.027,0,0.948-1.031,2.709-2.796l5.198-5.213l4.636-0.006l-7.934,7.982
						l8.202,10.999L83.652,65.582z"/>
					<path fill="#9B8E52" d="M93.742,65.569l-0.024-18.98l3.769-0.005l0.024,18.98L93.742,65.569z"/>
					<path fill="#9B8E52" d="M123.799,52.325c-0.437-1.897-2.091-2.871-3.772-2.869c-1.735,0.002-2.846,0.844-2.845,1.983
						c0.002,1.519,2.145,2.058,4.532,2.868c2.767,0.946,5.94,2.405,5.945,5.795c0.004,3.389-2.921,5.806-7.26,5.812
						c-3.985,0.005-6.728-2.242-7.762-5.684l3.633-0.981c0.408,1.708,1.929,3.306,4.288,3.303c2.033-0.002,3.09-1.007,3.088-2.282
						c-0.003-1.925-2.579-2.383-5.266-3.328c-2.251-0.811-5.072-1.973-5.077-5.281c-0.003-2.956,2.922-5.481,6.935-5.486
						c3.553-0.005,6.375,2.161,7.192,5.143L123.799,52.325z"/>
					<path fill="#9B8E52" d="M149.363,46.517l0.014,10.737c0.007,5.586-3.189,8.626-8.179,8.633
						c-5.016,0.007-8.192-3.026-8.199-8.612l-0.014-10.737l3.769-0.005l0.014,10.683c0.005,3.525,1.525,5.15,4.427,5.146
						c2.874-0.003,4.391-1.632,4.386-5.157l-0.014-10.683L149.363,46.517z"/>
					<path fill="#9B8E52" d="M172.333,46.487l0.024,18.98l-3.553,0.004l-5.405-7.313c-1.711-2.33-3.803-5.31-3.83-5.31h-0.027
						c-0.027,0,0.031,2.739,0.036,6.508l0.008,6.128l-3.769,0.005l-0.024-18.98l3.552-0.005l5.514,7.396
						c1.304,1.707,3.693,5.093,3.721,5.093h0.027c0.027,0-0.031-3.091-0.035-6.291l-0.008-6.209L172.333,46.487z"/>
					<path fill="#9B8E52" d="M193.75,63.461c-1.028,1.167-3.277,2.363-5.745,2.366c-5.45,0.007-9.847-4.136-9.854-9.857
						c-0.007-5.721,4.379-9.875,9.829-9.882c3.769,0.022,6.917,1.97,8.629,5.005l-3.849,1.008c-1.032-1.409-2.904-2.301-4.775-2.299
						c-3.552,0.004-5.907,2.556-5.903,6.163c0.005,3.769,2.611,6.179,6.136,6.174c3.254-0.004,4.96-1.796,5.555-3.261l-0.001-0.813
						l-5.26,0.007l-0.004-3.064l8.486-0.011l0.014,10.439l-3.254,0.004c-0.002-1.573,0.024-1.953,0.024-1.98L193.75,63.461z"/>
					<path fill="#9B8E52" d="M215.95,54.24l0.004,3.091l-12.364,0.016l-0.004-3.091L215.95,54.24z"/>
					<path fill="#9B8E52" d="M239.587,46.4l-7.309,10.286l0.012,8.704l-3.742,0.005l-0.012-8.704l-7.307-10.267l4.23-0.005
						l3.911,5.445c0.516,0.759,1.005,1.409,1.032,1.409h0.027c0.026,0,0.514-0.652,1.028-1.412l3.87-5.455L239.587,46.4z"/>
					<path fill="#9B8E52" d="M260.849,46.373l0.014,10.737c0.007,5.586-3.189,8.627-8.179,8.633
						c-5.016,0.006-8.192-3.026-8.199-8.612l-0.014-10.737l3.769-0.004l0.014,10.683c0.005,3.525,1.525,5.15,4.427,5.146
						c2.874-0.004,4.391-1.633,4.386-5.158l-0.014-10.683L260.849,46.373z"/>
					<path fill="#9B8E52" d="M280.881,61.803l0.005,3.525l-13.583,0.018l-0.024-18.98l13.421-0.017l0.004,3.525l-9.652,0.012
						l0.006,4.04l7.618-0.01l0.004,3.308l-7.618,0.01l0.006,4.583L280.881,61.803z"/>
					<path fill="#9B8E52" d="M304.211,46.317l0.024,18.98l-3.553,0.004l-5.405-7.314c-1.711-2.33-3.803-5.31-3.83-5.31h-0.027
						c-0.027,0,0.031,2.739,0.036,6.508l0.008,6.128l-3.769,0.005l-0.024-18.98l3.552-0.004l5.514,7.395
						c1.304,1.707,3.693,5.093,3.721,5.093h0.027c0.027,0-0.031-3.091-0.035-6.291l-0.008-6.209L304.211,46.317z"/>
					<path fill="#9B8E52" d="M325.629,63.291c-1.028,1.167-3.277,2.363-5.745,2.366c-5.45,0.007-9.848-4.136-9.855-9.857
						c-0.007-5.721,4.38-9.875,9.83-9.882c3.769,0.022,6.917,1.97,8.629,5.005l-3.849,1.008c-1.032-1.409-2.904-2.302-4.775-2.299
						c-3.552,0.005-5.907,2.557-5.903,6.163c0.005,3.769,2.611,6.179,6.136,6.174c3.254-0.004,4.96-1.796,5.555-3.261l-0.001-0.813
						l-5.26,0.007l-0.004-3.064l8.486-0.011l0.014,10.439l-3.254,0.004c-0.002-1.573,0.024-1.952,0.024-1.979H325.629z"/>
				</g>
				<g>
					<g>
						<path fill="#FFFFFF" d="M82.65,64.583l-6.219-8.506l-2.113,2.118l0.009,6.399l-3.769,0.005l-0.024-18.98l3.769-0.005
							l0.005,3.742c0.004,3.119-0.05,4.258-0.022,4.257h0.027c0.027,0,0.948-1.031,2.709-2.796l5.198-5.213l4.636-0.006
							l-7.934,7.982l8.202,10.999L82.65,64.583z"/>
						<path fill="#FFFFFF" d="M92.74,64.571l-0.024-18.98l3.769-0.005l0.024,18.98L92.74,64.571z"/>
						<path fill="#FFFFFF" d="M122.797,51.327c-0.437-1.897-2.091-2.871-3.772-2.869c-1.735,0.002-2.846,0.844-2.845,1.983
							c0.002,1.519,2.145,2.058,4.532,2.868c2.767,0.946,5.94,2.405,5.945,5.795c0.004,3.389-2.921,5.806-7.26,5.812
							c-3.985,0.005-6.728-2.242-7.762-5.684l3.633-0.981c0.408,1.708,1.929,3.306,4.288,3.303c2.033-0.002,3.09-1.007,3.088-2.282
							c-0.003-1.925-2.579-2.383-5.266-3.328c-2.251-0.811-5.072-1.973-5.077-5.281c-0.003-2.956,2.922-5.481,6.935-5.486
							c3.553-0.005,6.375,2.161,7.192,5.143L122.797,51.327z"/>
						<path fill="#FFFFFF" d="M148.361,45.519l0.014,10.737c0.007,5.586-3.189,8.626-8.179,8.633
							c-5.016,0.007-8.192-3.026-8.199-8.612l-0.014-10.737l3.769-0.005l0.014,10.683c0.005,3.525,1.525,5.15,4.427,5.146
							c2.874-0.003,4.391-1.632,4.386-5.157l-0.014-10.683L148.361,45.519z"/>
						<path fill="#FFFFFF" d="M171.331,45.489l0.024,18.98l-3.553,0.004l-5.405-7.313c-1.711-2.33-3.803-5.31-3.83-5.31h-0.027
							c-0.027,0,0.031,2.739,0.036,6.508l0.008,6.128l-3.769,0.005l-0.024-18.98l3.552-0.005l5.514,7.396
							c1.304,1.707,3.693,5.093,3.721,5.093h0.027c0.027,0-0.031-3.091-0.035-6.291l-0.008-6.209L171.331,45.489z"/>
						<path fill="#FFFFFF" d="M192.748,62.462c-1.028,1.167-3.277,2.363-5.745,2.366c-5.45,0.007-9.847-4.136-9.854-9.857
							c-0.007-5.721,4.379-9.875,9.829-9.882c3.769,0.022,6.917,1.97,8.629,5.005l-3.849,1.008
							c-1.032-1.409-2.904-2.301-4.775-2.299c-3.552,0.004-5.907,2.556-5.903,6.163c0.005,3.769,2.611,6.179,6.136,6.174
							c3.254-0.004,4.96-1.796,5.555-3.261l-0.001-0.813l-5.26,0.007l-0.004-3.064l8.486-0.011l0.014,10.439l-3.254,0.004
							c-0.002-1.573,0.024-1.953,0.024-1.98L192.748,62.462z"/>
						<path fill="#FFFFFF" d="M214.948,53.242l0.004,3.091l-12.364,0.016l-0.004-3.091L214.948,53.242z"/>
						<path fill="#FFFFFF" d="M238.585,45.402l-7.309,10.286l0.012,8.704l-3.742,0.005l-0.012-8.704l-7.307-10.267l4.23-0.005
							l3.911,5.445c0.516,0.759,1.005,1.409,1.032,1.409h0.027c0.026,0,0.514-0.652,1.028-1.412l3.87-5.455L238.585,45.402z"/>
						<path fill="#FFFFFF" d="M259.847,45.375l0.014,10.737c0.007,5.586-3.189,8.627-8.179,8.633
							c-5.016,0.006-8.192-3.026-8.199-8.612l-0.014-10.737l3.769-0.004l0.014,10.683c0.005,3.525,1.525,5.15,4.427,5.146
							c2.874-0.004,4.391-1.633,4.386-5.158l-0.014-10.683L259.847,45.375z"/>
						<path fill="#FFFFFF" d="M279.879,60.804l0.005,3.525l-13.583,0.018l-0.024-18.98l13.421-0.017l0.004,3.525l-9.652,0.012
							l0.006,4.04l7.618-0.01l0.004,3.308l-7.618,0.01l0.006,4.583L279.879,60.804z"/>
						<path fill="#FFFFFF" d="M303.209,45.319l0.024,18.98l-3.553,0.004l-5.405-7.314c-1.711-2.33-3.803-5.31-3.83-5.31h-0.027
							c-0.027,0,0.031,2.739,0.036,6.508l0.008,6.128l-3.769,0.005l-0.024-18.98l3.552-0.004l5.514,7.395
							c1.304,1.707,3.693,5.093,3.721,5.093h0.027c0.027,0-0.031-3.091-0.035-6.291l-0.008-6.209L303.209,45.319z"/>
						<path fill="#FFFFFF" d="M324.627,62.292c-1.028,1.167-3.277,2.363-5.745,2.366c-5.45,0.007-9.848-4.136-9.855-9.857
							c-0.007-5.721,4.38-9.875,9.83-9.882c3.769,0.022,6.917,1.97,8.629,5.005l-3.849,1.008c-1.032-1.409-2.904-2.302-4.775-2.299
							c-3.552,0.005-5.907,2.557-5.903,6.163c0.005,3.769,2.611,6.179,6.136,6.174c3.254-0.004,4.96-1.796,5.555-3.261l-0.001-0.813
							l-5.26,0.007l-0.004-3.064l8.486-0.011l0.014,10.439l-3.254,0.004c-0.002-1.573,0.024-1.952,0.024-1.979H324.627z"/>
					</g>
				</g>
			</g>
			
				<rect x="34.578" y="52.509" transform="matrix(0.0013 1 -1 0.0013 107.556 3.5202)" fill="#9B8E52" width="34.875" height="6.197"/>
			
				<rect x="329.967" y="52.127" transform="matrix(0.0013 1 -1 0.0013 402.1823 -292.2496)" fill="#9B8E52" width="34.875" height="6.197"/>
		</g>
	</g>
	<g>
		<g>
			<g>
				<defs>
					<polygon id="SVGID_347_" points="776.344,420.414 620.434,490.732 464.344,420.816 463.895,72.543 775.894,72.141 
						793.993,217.182 776.231,333.871 					"/>
				</defs>
				<clipPath id="SVGID_28_">
					<use xlink:href="#SVGID_347_"  overflow="visible"/>
				</clipPath>
				<g clip-path="url(#SVGID_28_)">
					<path fill="#E02B3A" d="M851.657,499.716c0,0-16.588-51.109-31.384-64.56c-14.794-13.45-64.559-43.937-78.009-49.765
						s-36.763-16.14-38.556-17.485c-1.795-1.344-25.107-13.001-25.107-13.001s0,17.036-4.484,25.555
						c-4.482,8.518-17.035,44.833-52.006,61.196c0,0-20.623,4.26-27.349,0.674c-6.725-3.587-41.246-30.487-44.385-34.073
						c-3.138-3.587-6.726-23.762-6.726-23.762l-0.896-8.07c0,0-95.047,34.073-112.532,40.799
						c-17.484,6.724-31.831,16.14-34.072,22.415c-2.242,6.277-26.9,48.421-27.349,53.353S826.103,523.03,851.657,499.716z"/>
					<path fill="#010101" d="M371.794,486.38c0,0,18.639-46.003,32.917-59.092c14.276-13.087,123.734-49.178,128.096-50.763
						c4.363-1.586,16.26-9.121,16.26-9.121l0.793,9.518c0,0-12.69,4.759-15.465,5.156c-2.777,0.396-115.407,40.056-126.512,48.779
						C396.779,439.583,381.312,465.361,371.794,486.38z"/>
				</g>
			</g>
		</g>
	</g>
	<g>
		<g>
			<g>
				<defs>
					<polygon id="SVGID_507_" points="-64,-159.385 -220,-89.26 -376,-159.385 -376,-434.322 -64,-434.322 					"/>
				</defs>
				<clipPath id="SVGID_30_">
					<use xlink:href="#SVGID_507_"  overflow="visible"/>
				</clipPath>
				<g clip-path="url(#SVGID_30_)">
					<g>
						<path fill="#437FA9" d="M60.309-65.252c0,0-1.782-5.802-4.798-14.683c2.199,5.276,3.548,8.544,3.548,8.544
							s-30.169-83.984-38.322-91.73c-3.285-3.121-5.966-5.171-8.14-6.548l0.258-0.111c0,0-0.508-0.209-1.367-0.56
							c-2.408-1.383-4.086-1.87-5.172-2.104c-4.878-1.974-11.262-4.527-14.661-5.763c-5.98-2.174-25.549-10.056-27.451-11.144
							c-1.903-1.088-25.006-11.96-36.421-18.482c-8.37-4.782-15.858-9.124-19.261-11.103c-0.024-0.026-0.037-0.04-0.037-0.04
							l-0.036-0.002c-1.192-0.693-1.867-1.087-1.867-1.087s-11.575-9.257-25.968-10.761c-0.018-0.051-0.037-0.102-0.055-0.153
							c-4.118-14.207-5.505-35.562-5.505-35.562s0.815-10.872,1.358-15.764c0.488-4.391,5.131-13.588,6.08-15.434
							c2.16-1.582,4.275-4.01,6.151-7.669c6.488-12.654,5.878-21.947,5.151-28.812c12.577-38.281-1.082-73.53-2.094-74.947
							c-1.02-1.427-2.854-7.949-2.854-7.949c-6.931-24.258-49.943-50.759-54.835-53.001c-4.893-2.242-11.62-7.541-11.62-7.541
							c0.816,1.019,3.671,3.465,3.671,3.465c-2.854-0.204-12.844-3.873-12.844-3.873c2.854,2.038,12.027,5.299,12.027,5.299
							c-10.193-1.834-37.305-12.841-37.305-12.841c-11.822-2.039-25.684,4.689-25.684,4.689c0.612,0,4.688,0.407,4.688,0.407
							c-4.281,0.407-16.104,9.173-16.104,9.173l5.301,0.815c-1.02,0-6.728,4.077-6.728,4.077l4.893-0.408
							c-6.728,2.039-8.154,6.115-8.154,6.115c0.815-0.611,4.893-2.038,4.893-2.038c-10.804,5.504-17.123,27.52-17.938,28.131
							c-0.618,0.464-3.689,2.562-5.144,3.554c1.196-0.607,3.309-1.312,3.309-1.312c-8.357,5.504-11.822,16.92-11.822,16.92
							c0.406-1.224,3.057-4.077,3.057-4.077c-6.047,8.753-6.503,30.927-6.412,40.229c-0.266,2.824-0.47,5.813-0.586,8.966
							c0,0,1.359,9.241-0.815,15.493c-2.174,6.251-4.349,17.666-2.718,29.354c1.631,11.686,3.805,39.953,4.077,44.03
							c0.259,3.896,8.471,32.854,25.329,46.802l6.893,28.611c-0.009,0.005-0.021,0.011-0.03,0.015l-0.12-0.411
							c0,0-3.805,2.087-8.873,4.849c-7.047,3.453-16.598,8.076-25.101,12.001c-15.901,7.339-46.886,17.124-51.37,19.569
							l-0.283,0.223c-1.822,0.51-4.473,1.23-8.279,2.224c-9.376,2.446-36.022,58.575-35.469,57.485
							c0.735-1.448,1.459-2.854,2.174-4.228c-1.59,3.27-2.669,5.931-2.989,7.625c-1.902,10.057-0.972,46.363,3.31,49.421
							c0.797,0.569,15.298,2.22,38.589,4.237c0.148,6.365,0.328,11.019,0.548,12.885c1.223,10.396,3.057,20.18,3.057,20.18
							l37.914-25.684c0,0,0.021-1.55,0.07-4.121c17.146,1.222,36.23,2.444,56.417,3.547l-6.954,48.272l62.373-8.562l5.232-36.968
							c22.82,0.804,45.976,1.342,68.483,1.469c-4.62,36.768-8.896,70.967-8.896,70.967l45.864,14.064
							c0,0,10.033-56.859,13.507-85.536C-0.664-44.304,48.842-50.622,60.309-65.252z M-196.259-146.994
							c-0.038,0.074-0.072,0.143-0.105,0.208C-196.322-146.869-196.285-146.941-196.259-146.994z M-196.45-146.615
							c-0.096,0.189-0.167,0.33-0.219,0.434C-196.605-146.309-196.526-146.465-196.45-146.615z M-246.262-183.396
							c0.279,1.606,0.417,2.592,0.366,2.743c-0.402-2.012-0.804-4.116-1.171-6.086L-246.262-183.396z M-242.895-175.82
							c0.08,0.126,0.16,0.252,0.241,0.377c-1.13-1.213-2.02-2.386-2.593-3.484C-244.627-177.941-243.691-176.765-242.895-175.82z
							 M-360.607-145.93c-4.032,6.259-8.341,13.241-12.039,19.658C-368.11-134.36-364.099-140.803-360.607-145.93z"/>
					</g>
				</g>
			</g>
			<g>
				<defs>
					<polygon id="SVGID_509_" points="-64,-159.385 -220,-89.268 -376,-159.385 -376,-507.659 -64,-507.659 -63.865,-362.334 
						-64,-245.928 					"/>
				</defs>
				<clipPath id="SVGID_32_">
					<use xlink:href="#SVGID_509_"  overflow="visible"/>
				</clipPath>
				<g clip-path="url(#SVGID_32_)">
				</g>
			</g>
		</g>
	</g>
</g>
</svg>
