<?xml version="1.0" encoding="utf-8"?>
<!-- Generator: Adobe Illustrator 16.0.0, SVG Export Plug-In . SVG Version: 6.00 Build 0)  -->
<!DOCTYPE svg PUBLIC "-//W3C//DTD SVG 1.1//EN" "http://www.w3.org/Graphics/SVG/1.1/DTD/svg11.dtd">
<svg version="1.1" xmlns="http://www.w3.org/2000/svg" xmlns:xlink="http://www.w3.org/1999/xlink" x="0px" y="0px" width="400px"
	 height="560px" viewBox="0 0 400 560" enable-background="new 0 0 400 560" xml:space="preserve">
<g id="Layer_1" display="none">
	<g display="inline">
		<g>
			<g>
				<defs>
					<polygon id="SVGID_83_" points="-63.656,420.414 -219.566,490.74 -375.656,420.816 -376.012,145.879 -64.012,145.477 					"/>
				</defs>
				<clipPath id="SVGID_2_">
					<use xlink:href="#SVGID_83_"  overflow="visible"/>
				</clipPath>
				<path clip-path="url(#SVGID_2_)" fill="#DDDCD4" d="M44.982,499.126c0.013,0.047,0.006,0.015-0.018-0.076
					c-0.195-0.858-2.277-9.742-6.888-20.938c-6.005-15.528-15.761-35.231-28.624-42.854c-22.841-13.535-27.914-16.495-31.723-20.302
					c-3.807-3.807-63.868-23.264-72.749-27.07c-8.883-3.807-27.493-14.381-30.455-15.65c-2.961-1.269-8.034-1.691-8.034-1.691
					s-5.686-3.651-9.098-5.391c-3.835-41.904,5.217-76.556,7.279-83.747c14.424,2.287,22.541-14.205,22.541-14.205
					c11.702-20.867-0.702-40.184-0.702-40.184s-0.738-0.387-1.846-0.791c-0.067-0.651-0.187-5.497,7.201-25.715
					c8.036-21.995-5.499-59.638-5.499-59.638c-24.532-67.252-115.047-57.102-115.047-57.102
					c-58.792,18.611-63.444,58.792-63.444,58.792s-6.345,13.958-10.151,28.762s5.922,33.837,5.922,33.837
					c-0.549-3.571-0.741-9.279-0.809-12.845c0.796,7.714,5.744,20.035,5.744,20.035c0.055,4.649-0.779,14.098-2.822,24.743
					c-1.651,8.598-1.268,18.188,1.481,28.339c0.448,1.656,15.438,47.795,24.531,59.216c0.45,0.564,0.921,1.102,1.405,1.616
					l-1.604,47.643c-4.033,1.354-16.773,6.059-22.43,13.129c0,0-11.42,6.768-27.069,14.805
					c-15.651,8.036-79.518,27.492-94.744,49.486c-10.697,15.452-19.718,35.064-24.142,45.374
					c-6.971,12.356-12.823,23.463-13.504,27.377c-1.69,9.727-4.653,41.873,26.647,57.946
					c31.301,16.072,480.491-5.076,479.645-26.224C55.135,534.655,44.982,499.126,44.982,499.126z M-109.81,237.696
					c0.643,2.433,0.956,4.848,1.022,7.184C-109.014,242.404-109.35,239.958-109.81,237.696z M-429.703,484.301
					c4.173-7.752,9.115-16.494,13.752-23.593C-419.448,466.781-424.52,475.36-429.703,484.301z M-30.019,415.068
					c3.181,1.386,5.479,2.52,6.481,3.271c6.766,5.075,30.875,16.918,33.413,19.456c0.277,0.277,0.794,0.759,1.486,1.427
					c-2.701-2.156-5.589-4.071-8.677-5.657C-14.934,424.519-24.777,418.555-30.019,415.068z"/>
			</g>
			<g>
				<defs>
					<polygon id="SVGID_85_" points="-63.656,420.414 -219.566,490.732 -375.656,420.816 -376.105,72.543 -64.106,72.141 
						-46.007,217.182 -63.769,333.871 					"/>
				</defs>
				<clipPath id="SVGID_4_">
					<use xlink:href="#SVGID_85_"  overflow="visible"/>
				</clipPath>
				<g clip-path="url(#SVGID_4_)">
					<path fill="#E02B3A" d="M22.982,500.126c0,0-10.998-49.487-42.297-65.561c-31.3-16.071-38.066-22.416-38.066-22.416
						s-62.177-22.84-71.06-26.224c-8.881-3.385-19.878-9.729-19.878-9.729s-16.919,54.562-83.748,74.864
						c0,0-69.79-17.764-69.367-62.176l1.058-6.767c0,0-7.19,4.018-11.42,7.4c-4.229,3.384-29.607,14.594-31.724,16.073
						c-2.113,1.48-66.192,30.031-73.172,34.26c-6.979,4.231-13.536,6.557-16.92,13.958c-3.382,7.401-37.009,61.543-38.701,71.271
						c-1.69,9.727-4.653,41.873,26.647,57.946c31.301,16.072,480.491-5.076,479.645-26.224
						C33.135,535.655,22.982,500.126,22.982,500.126z"/>
					<path fill="#010101" d="M-305.028,386.137c0.191-2.148-6.133,5.287-7.402,6.556c-1.27,1.27-16.918,10.574-24.954,12.267
						c-8.036,1.69-79.097,36.798-89.67,43.565c-10.574,6.768-34.683,56.255-34.683,56.255s11.843-30.453,27.07-52.448
						c15.227-21.994,79.093-41.45,94.744-49.486c15.649-8.037,27.069-14.805,27.069-14.805c6.768-8.459,23.686-13.535,23.686-13.535
						l-0.845,4.23c-11.421,3.806-10.152,22.84-10.152,22.84s29.749,38.205,49.487,45.257c0,0,19.431,1.884,27.916,0.424
						c13.536-2.327,50.967-22.841,71.906-69.367l-13.96-8.036v-3.808c3.384,1.693,9.308,5.499,9.308,5.499s5.073,0.423,8.034,1.691
						c2.962,1.27,21.572,11.844,30.455,15.65c8.881,3.807,68.942,23.264,72.749,27.07c3.809,3.807,8.882,6.767,31.723,20.302
						c22.84,13.536,35.883,65.156,35.529,63.868c-10.998-40.182-32.567-58.791-35.106-61.33
						c-2.538-2.538-26.647-14.381-33.413-19.456c-6.769-5.076-72.328-27.493-73.598-28.339c-1.27-0.847-10.997-4.229-14.381-6.344
						c-3.383-2.116-13.323-5.076-13.323-5.076s-31.722,60.484-76.347,70.847c-6.544,1.521-19.879,0.846-26.223-0.424
						c-9.802-1.96-23.687-11.842-52.235-43.776C-303.921,400.627-305.583,392.402-305.028,386.137z"/>
				</g>
			</g>
		</g>
	</g>
	<g display="inline">
		<polygon fill="#223F72" points="400.361,559.742 0.361,560.258 -0.361,0 399.639,0 		"/>
		<g>
			<polygon fill="#E02B3A" points="399.935,242.836 399.676,42.682 0.069,334.084 0.361,560.258 			"/>
		</g>
		<g>
			<g>
				<polygon fill="#FFFFFF" points="39.848,423.733 39.482,141.385 360.482,140.971 360.848,423.319 200.44,495.674 				"/>
				<g>
					<path fill="#020202" d="M355.988,145.477l0.355,274.938l-155.91,70.326l-156.09-69.924l-0.355-274.938L355.988,145.477
						 M364.977,136.465l-9,0.012l-312,0.402l-9,0.012l0.012,9l0.355,274.938l0.008,5.821l5.312,2.381l156.09,69.924l3.692,1.653
						l3.688-1.663l155.91-70.326l5.308-2.394l-0.008-5.822l-0.355-274.938L364.977,136.465L364.977,136.465z"/>
				</g>
			</g>
			<g>
				<path fill="#D3B76E" d="M364.814,136.465l0.012,9l0.355,274.938l0.007,5.826L200.284,500.24L35.188,426.279l-0.007-5.451
					l-0.355-274.938l-0.011-9l9-0.012l311.999-0.402L364.814,136.465 M371.806,129.456l-7,0.009l-9,0.012l-311.999,0.402l-9,0.012
					l-7,0.009l0.009,6.999l0.011,9l0.355,274.938l0.007,5.451l0.006,4.528l4.132,1.852l165.096,73.961l2.865,1.283l2.863-1.285
					l164.904-74.012l4.139-1.858l-0.005-4.536l-0.007-5.826l-0.355-274.938l-0.012-9L371.806,129.456L371.806,129.456z"/>
			</g>
			<g>
				<defs>
					<polygon id="SVGID_91_" points="356.344,420.414 200.434,490.74 44.344,420.816 43.988,145.879 355.988,145.477 					"/>
				</defs>
				<clipPath id="SVGID_6_">
					<use xlink:href="#SVGID_91_"  overflow="visible"/>
				</clipPath>
				<path clip-path="url(#SVGID_6_)" fill="#DCDBD4" d="M453.07,501.465c-0.341-2.35-1.711-6.257-3.835-11.057
					c0.585,1.757,1.107,3.379,1.564,4.829c-1.021-2.731-2.173-5.729-3.432-8.871c0.672,1.402,1.297,2.754,1.867,4.042
					c-5.125-15.378-15.129-41.011-29.224-50.749c-21.203-14.649-74.787-48.573-82.497-50.886
					c-7.709-2.313-23.515-10.794-29.684-12.336c-6.168-1.543-14.648-10.794-18.504-11.565c-3.854-0.771-3.194-2.747-3.194-2.747
					l-0.837-30.537c0.973-2.521,1.586-5.392,1.708-8.685c0.228-6.135,0.632-14.993,1.153-23.304c2.4,1.057,7.085,2.43,10.903-0.665
					c5.312-4.308,14.3-14.44,14.366-27.299c0.414-0.831,0.728-1.58,0.887-2.19c0.373-1.426-0.145-3.467-1.046-5.619
					c0.02-0.152,0.042-0.32,0.065-0.508l0.545,1.479c0,0,1.31-13.8,2.324-20.773c1.163-7.989-1.678-11.277-4.939-10.313
					c-0.066,0.02-0.126,0.05-0.192,0.07c-0.173-4.917-0.669-23.537,1.21-35.806c2.222-14.521-23.533-89.774-88.323-88.902
					c0,0-49.061-1.185-69.437,20.918c-17.141,18.594-25.856,20.918-30.506,29.634c-6.321,11.852-15.979,16.561,0,94.642
					c-2.352,2.352,3.229,19.864,4.374,23.355c-0.372,4.874-0.47,9.848,0.42,11.726c0.223,0.471,0.498,0.956,0.804,1.445
					c0.775,2.882,4.609,15.971,11.254,20.2c2.77,1.763,4.662,0.614,5.77-0.669c0.332,2.616,0.624,4.986,0.913,6.915
					c0.452,3.018,0.749,7.342,1.413,11.978c0.088,0.771,0.208,1.535,0.356,2.29c1.376,8.125,4.101,16.691,10.868,20.596
					c0.143,0.082,0.292,0.169,0.436,0.252v28.589c-2.797,1.745-11.376,7.019-14.901,8.3c-4.239,1.541-110.638,36.623-124.515,49.344
					c-11.527,10.566-25.977,43.2-30.544,53.957c-2.518,4.924-4.245,8.656-4.359,9.909c-0.436,4.794,444.515,29.199,469.354,6.537
					C455.657,508.989,454.709,506.068,453.07,501.465z M2.011,471.387c-3.073,5.626-6.311,11.551-9.048,16.736
					C-4.271,482.551-1.194,476.846,2.011,471.387z"/>
			</g>
			<g>
				<defs>
					<polygon id="SVGID_93_" points="356.344,420.414 200.434,490.732 44.344,420.816 43.895,72.543 355.894,72.141 
						373.993,217.182 356.231,333.871 					"/>
				</defs>
				<clipPath id="SVGID_8_">
					<use xlink:href="#SVGID_93_"  overflow="visible"/>
				</clipPath>
				<g clip-path="url(#SVGID_8_)">
					<path fill="#FBC3A9" d="M254.565,363.871c0,0-0.895-42.143-0.597-43.04c0.3-0.896,2.392-11.358,2.989-15.242
						c0.598-3.886,0.523-23.762,0.523-23.762s7.172,4.482,10.534,2.241c3.364-2.241,13.226-10.76,15.917-23.09l1.344-8.069
						l-0.224-4.483c0,0,2.914-22.417,2.914-24.21c0-1.794-0.447-5.829-2.69-6.949c-2.241-1.121-6.725-0.449-6.725-0.449
						s-43.114-57.386-62.243-60.076c-19.129-2.689-79.505-26.601-89.068-19.727c-9.564,6.874-30.786,92.057-29.889,96.541
						c0.896,4.483-5.306,4.782-5.306,4.782s-1.42,3.137-0.075,9.115c1.346,5.978,3.289,14.049,3.289,14.049l0.298,10.76l1.943,4.632
						c0,0,1.345,5.53,2.839,8.22c1.494,2.689,6.726,9.115,7.922,9.713c1.194,0.598,1.941,0.747,2.389,0.449
						c0.449-0.3,4.335-1.943,4.335-1.943s1.196,20.324,2.541,25.106s5.679,12.403,5.828,11.955s6.426,7.473,6.726,8.22
						c0.298,0.747,0.298,14.646,0.298,14.646s0.226,18.008,0,18.681c-0.224,0.673-1.792,10.087-1.792,10.087l-0.449,19.055
						c0,0-2.69,6.949,23.089,24.658c25.779,17.71,27.123,17.037,27.123,17.037s19.728,1.345,23.763-1.122
						c4.035-2.465,39.678-24.433,52.902-63.438L254.565,363.871z"/>
					<path fill="#E02B3A" d="M431.657,499.716c0,0-16.588-51.109-31.384-64.56c-14.794-13.45-64.559-43.937-78.009-49.765
						s-36.763-16.14-38.556-17.485c-1.795-1.344-25.107-13.001-25.107-13.001s0,17.036-4.484,25.555
						c-4.482,8.518-17.035,44.833-52.006,61.196c0,0-20.623,4.26-27.349,0.674c-6.725-3.587-41.246-30.487-44.385-34.073
						c-3.138-3.587-6.726-23.762-6.726-23.762l-0.896-8.07c0,0-95.047,34.073-112.532,40.799
						c-17.484,6.724-31.831,16.14-34.072,22.415c-2.242,6.277-26.9,48.421-27.349,53.353S406.103,523.03,431.657,499.716z"/>
					<path fill="#9E2024" d="M242.91,419.465c0,0,24.658-26.451,26.9-27.348c0,0,94.598,33.176,100.873,52.455
						c6.277,19.277,11.657,57.386,11.657,57.386s-6.725-49.766-17.933-58.731c-11.209-8.966-87.426-43.04-92.805-45.73
						L242.91,419.465z"/>
					<path fill="#9E2024" d="M125.671,415.43c0,0-25.331-12.33-28.918-12.33c-3.586,0-68.594,25.779-82.044,42.368
						C1.259,462.056-1.88,488.06-1.88,488.06s9.414-34.074,17.484-39.902c8.07-5.827,78.458-40.798,81.148-40.35
						C99.443,408.257,125.671,415.43,125.671,415.43z"/>
					<path fill="#9E2024" d="M149.432,437.174c0,0,21.072,16.588,22.865,16.588s27.797,0.896,30.038-0.448
						s24.883-19.278,24.883-19.278s-21.968,20.848-24.21,21.297c-2.241,0.448-29.59,1.345-30.935,0.896
						C170.728,455.78,149.432,437.174,149.432,437.174z"/>
					<path fill="#FFFFFF" d="M151.226,224.665c0,0-18.082,3.064-27.722-1.122c0,0,5.754-6.725,10.835-7.473
						c5.081-0.745,14.495,0.972,16.438,3.812C152.721,222.722,151.226,224.665,151.226,224.665z"/>
					<path fill="#FFFFFF" d="M193.146,220.031c0,0,20.25,1.421,29.29-5.155c0,0-10.162-8.219-18.232-5.753
						S191.8,216.52,193.146,220.031z"/>
					<path fill="#CF957A" d="M116.929,197.54c0,0-13.002,48.42-4.034,66.354c6.672,13.348,18.828,27.796,19.726,31.832
						c0,0-8.52-6.726-10.761-7.623c0,0,0.58,24.555,1.346,30.487c1.793,13.898,27.796,19.727,30.486,21.52l-6.725-16.14
						c0,0,13.001,21.071,18.382,22.417c5.379,1.344,18.829,2.689,26.451-0.897c7.622-3.586,17.934-21.968,17.934-21.968
						s-6.095,17.567-7.175,19.727c-0.896,1.793,36.765-23.312,40.352-26.451c3.586-3.139,3.138-39.453,1.345-42.143l-15.692,8.966
						c0,0,11.209-11.209,13.899-16.589s6.24-39.297,4.932-44.533c-1.195-4.782-7.323-18.084-8.667-23.016
						c-1.346-4.931-21.671-12.403-27.5-14.645c-5.827-2.241-21.669-17.784-20.771-19.128c0.896-1.346,28.244-4.932,30.038-4.036
						c1.793,0.896,29.142,21.52,29.142,21.52s10.76,23.762,10.312,26.899c-0.448,3.139,4.931,7.623,4.931,9.864
						c0,2.243-2.241,20.175-2.689,22.865c-0.447,2.69-1.345,11.657-1.345,11.657s1.345,7.173-1.345,19.278
						c-2.69,12.104-3.138,36.763-3.138,36.763s0,8.968-6.277,13.002c-6.277,4.035-27.349,14.347-30.486,17.934
						c-3.14,3.586-24.659,16.589-34.521,16.589c-9.864,0-35.419-8.52-44.385-13.898c-8.968-5.38-17.485-11.209-17.485-11.209
						s-8.069-11.657-7.174-22.865c0.897-11.208-2.241-34.073-4.483-38.556c-2.241-4.484-12.104-26.003-11.656-34.074
						c0.448-8.069,5.828-40.798,6.725-43.039C107.514,192.161,116.929,197.54,116.929,197.54z"/>
					<path fill="#CF957A" d="M149.508,299.61c0,0,14.646-11.357,17.335-11.059c0,0,4.185,1.045,6.575,0.597
						c2.393-0.447,7.024-1.644,7.024-1.644s8.667-0.597,23.163,9.416c0,0-3.437,1.045-4.034,0.747
						c-0.599-0.299-10.911-4.186-15.842-3.586c-4.932,0.598-17.484,1.493-20.623,2.688c-3.139,1.197-9.265,3.438-10.162,3.738
						C152.048,300.806,149.508,299.61,149.508,299.61"/>
					<path fill="#CF957A" d="M157.502,302.45c0,0,9.416,3.139,15.243,3.139c5.829,0,18.606-3.139,21.744-6.053
						C194.489,299.536,181.713,317.918,157.502,302.45z"/>
					<path fill="#CF957A" d="M199.571,297.668c0,0,1.942,0.148,3.288,0.148c1.344,0,4.186,2.243,3.587,5.23
						c0,0,2.091-5.678,1.046-7.92c-1.046-2.241-7.323-6.426-10.909-7.173c0,0,7.322,4.781,8.069,6.874s0,0,0,0
						S201.813,297.966,199.571,297.668z"/>
					<path fill="#CF957A" d="M147.863,291.092c0,0-5.979,9.863-4.633,13.45s2.69,4.932,2.69,4.932s2.541-7.322,5.23-8.667
						c0,0-3.587,0-3.736-0.747C147.266,299.312,146.369,295.127,147.863,291.092z"/>
					<path fill="#CF957A" d="M195.498,259.747c0.449,3.474-2.578,6.948-2.578,6.948c-0.783-3.361-8.294-3.137-8.294-3.137
						c1.121-1.458,3.251-2.019,3.251-2.019c-4.596-0.335-9.303,2.019-12.741,4.596c-2.353,1.765-6.479,1.088-8.667-0.224
						c-5.23-3.139-11.432-2.465-11.432-2.465c2.316,1.12,4.035,2.988,4.035,2.988c-6.8-0.224-7.734,4.634-7.734,4.634
						c6.837,9.638,15.691,4.258,15.691,4.258l0.897,9.415l1.345-4.035l3.138,2.354l2.018-2.241l1.569-3.812l0.56,6.502l0.562-8.52
						l3.026-2.241c8.405,3.811,14.122-3.026,15.804-5.717C197.628,264.342,195.498,259.747,195.498,259.747z M174.763,271.216
						c-0.075,0.375-0.896,0.523-2.241,1.121c-1.345,0.599-3.96,0.225-5.23-0.672c-1.271-0.897-2.915-2.541-3.811-3.961
						c-0.897-1.418-4.781-3.138-4.781-3.138c7.396,1.832,9.078,5.493,9.078,5.493c2.95,2.391,6.053,0,6.053,0
						c3.587-5.568,9.824-5.94,9.824-5.94C180.144,264.715,174.839,270.842,174.763,271.216z"/>
					<path fill="#CF957A" d="M219.821,228.027c0,0-16.589,5.156-29.703-5.605c0,0,5.493,2.467,7.51,2.916l-5.491-2.916
						c0,0,14.347,2.69,24.658-1.905c0,0-2.355,4.26-4.708,5.716c0,0-6.164,0.672-9.752-0.448
						C202.335,225.786,210.405,229.82,219.821,228.027z"/>
					<path fill="#CF957A" d="M212.273,219.658c0,0,8.221-2.093,10.162-4.782c0,0-8.669-5.829-13.3-6.127
						c-4.633-0.3-15.094,5.081-16.888,7.472c-1.793,2.391-0.149,3.735-0.149,3.735s10.312,0.449,12.853-0.298
						c0,0-12.853,2.989-16.438,2.391c0,0-1.345-3.587-0.896-4.334c0,0-0.357,3.91-0.599,4.632c-0.15,0.449-1.645-4.782-1.345-6.874
						c0,0-2.242,10.163,7.771,22.118c0,0-9.564-9.415-10.013-11.358c-0.449-1.943-5.978-11.357-7.621-15.393l-0.897-3.287
						c0,0,5.53-2.989,6.576-4.782c0,0-8.369-2.69-8.07-7.771c0.3-5.082,22.865-12.703,35.419-10.461
						c12.554,2.242,17.634,3.886,26.302,20.026c0,0-9.864-11.06-30.936-7.024c0,0,10.76-1.494,17.934,2.84
						c0,0-6.726-4.035-20.474-0.747c0,0-4.931,2.391-5.978,6.277c0,0,21.071-7.771,35.119,5.978c0,0-8.519-8.967-26.899-6.577
						c0,0,16.587-1.942,27.646,11.807c0,0-3.884-3.586-9.115-4.932c0,0,5.381,4.185,6.277,5.53c0,0-2.242-0.598-3.886-0.897
						C224.827,216.818,220.044,219.21,212.273,219.658z"/>
					<path fill="#CF957A" d="M110.987,216.931c0,0,12.665-13.786,23.425-12.665c0,0,3.363,2.465,3.812,3.361
						c0,0,3.587,0.448,4.484,1.345c0,0-11.433-0.672-23.538,8.743c0,0,10.984-7.623,21.071-6.276c0,0-18.718,2.578-24.321,16.139
						c0,0,3.138-2.241,3.922-2.577c0,0-2.129,4.707-2.465,5.604c0,0,4.146-4.708,5.155-5.493c0,0,6.389,1.457,9.078,1.009
						c0,0-4.594-0.111-8.294-2.241c0,0,6.838-7.958,11.321-8.183c4.483-0.223,13.338,1.57,15.019,3.812
						c1.682,2.241,1.569,5.156,1.569,5.156s-6.165,1.121-8.742,0.561c0,0,7.733,2.017,10.312,1.008c0,0,0.146-1.354,0-1.793
						c-0.111-0.337,1.457,1.345,1.682,2.241c0,0,0.448-5.156-4.484-10.536c0,0,6.277,3.25,7.397,9.415c0,0,0.337,7.173-2.913,12.89
						c0,0,6.276-8.182,7.061-12.553c0.785-4.371,3.251-11.88-1.681-17.036c0,0,3.474,0.784,4.146,1.457
						c0,0,4.483-6.949,0.225-15.804c0,0,1.345,3.812-0.337,7.734c0,0-3.251-6.501-10.535-7.958
						C146.069,192.833,123.316,184.091,110.987,216.931z"/>
					<path fill="#CF957A" d="M111.996,219.509c0,0,5.829-20.623,10.984-26.228c5.156-5.604,4.036-14.57,3.363-16.364
						s-0.299-1.645-0.299-1.645s1.867,4.559,2.315,6.8c0.449,2.241,0.226,1.344,0.226,1.344s1.568-16.588-1.794-22.416
						c0,0,13.002,21.295,41.246,26.899c0,0-8.219-4.558-10.76-9.041c0,0,5.604,4.333,15.019,7.472c0,0-7.546-4.333-10.088-7.771
						c0,0,12.105,5.081,17.038,6.651c0,0-7.024-3.812-8.817-7.547c-0.835-1.739,1.419-1.197,1.419-1.197s13.675,5.605,22.193,4.932
						c8.517-0.672,14.795,3.138,14.795,3.138s-2.466-13.001-11.657-18.381s-74.423-36.315-82.941-30.263
						c-8.519,6.053-15.242,71.733-13.226,77.562C103.03,219.284,111.996,219.509,111.996,219.509z"/>
					<path fill="#CF957A" d="M186.867,252.237c0,0-2.539,5.23-1.492,5.978c1.044,0.746,7.321,2.689,8.219,4.034
						C193.594,262.249,192.845,256.421,186.867,252.237z"/>
					<path fill="#CF957A" d="M154.498,259.992c0,0,6.096-4.048,6.42-5.212c0.322-1.164-0.635-5.794-0.635-5.794
						S156.485,255.49,154.498,259.992z"/>
					<path fill="#CF957A" d="M174.763,207.254c0,0,4.185,15.543,3.887,17.037c-0.301,1.495-1.793,16.738-1.793,16.738
						s5.379-16.14,5.677-17.933c0.3-1.793-4.781-17.634-4.781-17.634L174.763,207.254z"/>
					<path fill="#CF957A" d="M162.883,217.267l-1.346,15.692l3.139,11.881c0,0-7.174-12.106-6.726-13.002
						C158.398,230.941,162.883,217.267,162.883,217.267z"/>
					<path fill="#CF957A" d="M203.158,270.021c0,0,11.956,16.737,11.656,21.222c-0.299,4.483-5.679,22.117-5.679,22.117
						s9.266-17.335,8.368-22.416C216.608,285.861,203.158,270.021,203.158,270.021z"/>
					<path fill="#CF957A" d="M146.069,280.781c0,0-6.875,16.736-6.275,20.922c0.598,4.184,7.173,18.829,7.173,18.829
						s-9.564-15.542-9.265-18.829C138,298.416,142.483,287.057,146.069,280.781z"/>
					<path fill="#CF957A" d="M232.598,333.385c0,0-25.105,61.87-25.554,63.215c-0.449,1.345,4.482-39.005,4.482-40.35
						s-8.519,18.381-11.209,21.072c-2.689,2.689-27.796,1.793-32.728-0.449c-5.886-2.676-11.656-14.795-11.656-14.795
						s11.656,47.971,10.76,46.627c-0.896-1.346-26.899-61.422-26.899-61.422l-7.623-6.725c0,0,22.417,13.898,36.315,14.347
						s26.451-0.448,33.177-4.035c6.725-3.587,14.347-10.312,17.485-11.656C222.286,337.868,232.598,333.385,232.598,333.385z"/>
					<path fill="#010101" d="M229.459,340.109"/>
					<g>
						<defs>
							<path id="SVGID_95_" d="M151.226,224.665c0,0-18.082,3.064-27.722-1.122c0,0,5.754-6.725,10.835-7.473
								c5.081-0.745,14.495,0.972,16.438,3.812C152.721,222.722,151.226,224.665,151.226,224.665z"/>
						</defs>
						<clipPath id="SVGID_10_">
							<use xlink:href="#SVGID_95_"  overflow="visible"/>
						</clipPath>
						<circle clip-path="url(#SVGID_10_)" fill="#010101" cx="137.776" cy="218.536" r="6.5"/>
					</g>
					<g>
						<defs>
							<path id="SVGID_97_" d="M193.146,220.031c0,0,20.25,1.421,29.29-5.155c0,0-10.162-8.219-18.232-5.753
								S191.8,216.52,193.146,220.031z"/>
						</defs>
						<clipPath id="SVGID_12_">
							<use xlink:href="#SVGID_97_"  overflow="visible"/>
						</clipPath>
						<circle clip-path="url(#SVGID_12_)" fill="#010101" cx="206.521" cy="212.26" r="6.501"/>
					</g>
					<path fill="#CF957A" d="M272.836,235.312c0,0,7.509-18.718,12.44-15.69c0,0,1.795,3.138-1.12,21.294
						c0,0-1.904-10.311-5.268-12.44C278.889,228.475,275.525,230.493,272.836,235.312z"/>
					<path fill="#CF957A" d="M270.818,242.598"/>
					<path fill="#CF957A" d="M270.258,242.934c0.337-0.113,4.073-1.755,6.128-0.71c2.055,1.047,6.649,5.306,6.314,7.996
						c-0.338,2.689-8.295,15.803-13.228,15.691c0,0-0.783-1.569-0.223-2.69s3.697-4.482,4.034-6.5
						c0.337-2.019-0.561-8.071-1.345-9.416C271.154,245.96,270.258,242.934,270.258,242.934z"/>
					<path fill="#CF957A" d="M262.86,275.326c0,0,7.734,2.915,9.64-2.466c0,0-1.682,0.897-4.147,0
						C265.886,271.963,262.076,272.524,262.86,275.326z"/>
					<path fill="#CF957A" d="M94.812,254.104c0,0,0.896-5.529,1.569-5.604c0,0,3.511,3.661,4.108,4.633
						c0,0-4.333-10.238-7.472-12.106C93.018,241.028,91.747,240.543,94.812,254.104z"/>
					<path fill="#CF957A" d="M96.305,270.469c0,0-0.148-10.761,4.633-10.162c0,0,2.541-0.075,2.241,7.099
						c0,0,1.346,4.334,2.467,5.604c1.12,1.27,2.236,2.932,2.467,3.735C108.56,278.314,102.73,281.379,96.305,270.469z"/>
					<path fill="#CF957A" d="M245.301,327.706l6.575,58.882c0,0,1.794-13.151,1.794-18.532c0-5.379-0.299-48.42-0.299-48.42
						L245.301,327.706z"/>
					<polyline fill="#CF957A" points="129.93,339.661 128.137,404.819 133.816,384.495 136.804,342.053 129.93,339.661 					"/>
					<path fill="#CF957A" d="M124.325,376.425c0.673,0,5.604-1.569,5.604-1.569s-1.793,21.071-1.569,22.192
						c0.226,1.121,0,5.828,0,5.828S123.205,379.115,124.325,376.425"/>
					<path fill="#CF957A" d="M126.643,228.027c0,0,16.737,0.448,21.071-0.598l-1.344,1.943l4.332-1.195c0,0-6.574,8.966-20.772,8.22
						c0,0,9.415-1.047,14.198-4.783c0,0-7.175,2.092-9.565,1.346C132.171,232.211,126.643,228.027,126.643,228.027z"/>
					<path fill="#010101" d="M105.72,218.612c0,0-4.482,34.522,0.896,45.729c5.38,11.208,6.726,29.141,8.071,38.108
						c1.344,8.967,1.344,29.141,13.001,35.866c11.656,6.725,26.451,15.692,33.177,17.934c6.725,2.242,26.899,5.828,39.004-0.896
						c12.105-6.726,34.971-21.072,43.041-24.658c8.068-3.587,14.795-10.312,15.243-22.417s1.569-34.521,2.913-43.488
						c0,0-4.706,14.123-6.053,42.591c0,0-1.568,13.675-13.449,19.279c0,0-26.676,14.795-42.143,24.658
						c0,0-13.898,8.518-39.454-0.448c0,0-26.899-13.45-30.038-14.795c-3.138-1.346-10.76-8.967-12.104-29.142
						c0,0-1.345-24.211-3.587-31.832c0,0,5.38,4.035,7.621,8.069c0,0-5.379-8.965-9.863-13.897
						C107.514,264.342,103.927,245.064,105.72,218.612z"/>
					<path fill="#010101" d="M156.157,270.73c0,0,5.492-3.25,6.726-2.915c1.232,0.336,2.998,2.869,3.475,3.026
						C166.693,270.955,160.528,274.765,156.157,270.73z"/>
					<path fill="#010101" d="M177.08,268.863c0,0,2.391-3.512,5.753-2.952s7.285,2.801,7.285,2.801s-6.275,2.467-9.19,1.233
						C178.014,268.712,177.08,268.863,177.08,268.863z"/>
					<path fill="#010101" d="M159.072,264.79c0,0,5.828,4.147,6.948,6.613c1.122,2.465,4.11,2.129,6.017,2.017l0.148-1.494
						c0,0-3.811,0.822-5.156-1.196C165.685,268.712,164.563,266.695,159.072,264.79z"/>
					<path fill="#010101" d="M182.049,264.79c0,0-5.829,4.147-6.95,6.613c-1.12,2.465-4.222,2.092-6.126,1.98l-0.263-1.457
						c0,0,4.035,0.822,5.38-1.196C175.436,268.712,176.556,266.695,182.049,264.79z"/>
					<path fill="#010101" d="M156.082,255.674c0,0-5.529,10.461-5.081,12.255c0.449,1.793,3.587,6.725,5.829,8.069
						c0,0-7.626-4.085-7.473-8.069C149.507,264.042,156.082,255.674,156.082,255.674z"/>
					<path fill="#010101" d="M191.65,250.743c0,0,4.633,12.254,4.185,14.047c-0.448,1.793-2.992,6.277-5.233,7.621
						c0,0,7.625-4.085,7.473-8.069C197.926,260.456,191.65,250.743,191.65,250.743z"/>
					<path fill="#010101" d="M154.588,299.462c0,0-2.541,0.598-4.483-0.897s-2.988-3.587-2.54-4.482c0,0-4.035,5.827-2.241,9.563
						c0,0,0.447,1.271,3.736-0.598c1.742-0.99,2.241-1.271,5.154-0.373c-0.598-1.494-0.074-2.167-0.074-2.167
						s24.061-7.473,41.546-4.185c0,0,3.289,2.241,4.483,2.54c1.195,0.299,3.973-1.473,4.483-1.644
						c0.448-0.15,1.14,1.485,1.644,2.242c0.299,0.447,0.897-3.588-3.885-7.323c0,0,1.344,2.093,1.046,3.735
						c0,0-2.69,1.346-3.438,1.047c-0.747-0.3-11.507-4.334-17.334-3.438c-5.829,0.897-9.566,1.197-14.348,1.346
						C168.338,294.828,159.968,296.473,154.588,299.462z"/>
					<path fill="#010101" d="M149.992,300.32c0,0,14.034-11.34,16.701-10.983c3.362,0.448,8.182,1.12,13.562-1.346
						c3.015-1.382,19.166,6.091,22.303,8.481l0.898-0.599c0,0-10.312-7.473-23.313-9.116c0,0-6.726,2.99-13.45,1.196
						c0,0-9.564,3.998-17.934,11.918L149.992,300.32z"/>
					<path fill="#010101" d="M159.52,303.122c0,0,18.829,4.484,32.505-2.018C192.024,301.104,178.947,311.268,159.52,303.122z"/>
					<path fill="#010101" d="M129.706,203.145c0,0-3.362,0.672-4.483,1.346c0,0,4.02-5.875,14.347-2.243
						c12.104,4.259,15.691,6.725,19.503,1.345c0,0-2.915,2.241-5.381,2.241c0,0,6.053-1.568,4.932-4.931
						c0,0-0.148,1.868-1.494,2.465c0,0,2.539-4.184-0.599-5.678c-3.138-1.495-16.76-5.258-26.004-2.69
						c-5.38,1.495-8.517,5.678-8.517,5.678s1.345-1.494,4.185-2.54c0,0-4.185,3.287-6.576,5.828c0,0,3.139-1.344,5.68-2.242
						c0,0-4.634,2.54-6.576,4.035c0,0,3.288-0.896,4.483-1.345c0,0-5.081,3.139-5.828,3.886c0,0,3.438-1.644,4.034-1.794
						c0,0-4.633,2.99-4.783,3.586C116.628,210.093,124.55,204.938,129.706,203.145z"/>
					<path fill="#010101" d="M177.9,196.196c0.27,0.965,0.897,6.949,10.312,2.465c9.415-4.483,20.848-7.173,27.797-4.932
						c0,0-2.466-1.681-8.07-2.018c0,0,2.915-0.897,10.76,2.69c0,0-2.803-2.13-4.035-2.354c0,0,6.053,1.009,9.079,3.25
						c0,0-3.475-2.689-5.268-3.361c0,0,8.069,2.689,12.105,8.517c0,0-6.501-10.983-18.606-12.777c0,0,2.689,1.793,3.362,2.241
						c0,0-7.845-4.707-17.261-2.689C181.966,190.681,176.779,192.161,177.9,196.196z"/>
					<path fill="#010101" d="M204.055,220.107c0,0-6.575,0.297-9.415-0.599c0,0-1.046-2.392-0.598-3.587
						c0,0,7.771-6.576,14.646-6.277s13.15,5.231,13.15,5.231s-2.093,2.689-7.174,3.736c0,0,5.68-0.15,8.818-3.139
						c0,0,2.24,0.299,3.287,0.896c1.047,0.599,1.047,0.599,1.047,0.599s-7.771-6.277-14.795-7.921c0,0,8.518,0,15.99,5.679
						c0,0-8.519-6.726-17.037-7.323c-9.559-0.671-17.335,4.484-23.163,10.91c0,0-0.151,1.794,0.746,3.288
						c0,0-0.897-2.241,0.599-3.138l0.299,2.093C190.455,220.556,195.387,221.152,204.055,220.107z"/>
					<path fill="#010101" d="M143.679,225.337c0,0,5.381,0.149,6.874-1.195c0,0,0.448-1.943-1.195-4.035
						c0,0-5.077-3.189-9.563-3.438c-5.382-0.299-9.864,0.896-15.693,6.725c0,0,1.496,1.644,4.335,2.241c0,0-2.989,0.15-5.53-1.494
						c0,0-1.942,1.644-3.287,2.988c0,0,3.437-5.978,5.528-7.173c0,0-4.931,2.243-7.471,5.23c0,0,7.322-10.46,19.727-10.46
						c12.403,0,15.691,4.782,16.289,9.714c0,0-0.447-1.345-1.494-2.093c0,0,0.598,2.69,0,2.99
						C151.6,225.636,147.266,226.083,143.679,225.337z"/>
					<path fill="#010101" d="M273.994,226.682c0,0,2.54-8.219,9.115-10.162c3.355-0.991,6.278,2.391,5.082,10.61
						c-1.044,7.174-2.618,22.197-2.618,22.197l-1.046-2.839c0,0,2.318-16.368,2.318-19.207c0-2.84,1.645-10.013-3.885-9.416
						C282.961,217.865,277.283,220.106,273.994,226.682z"/>
					<path fill="#010101" d="M278.775,236.657c0,0,8.744,11.77,7.473,16.626c-1.198,4.587-10.609,16.589-10.609,16.589
						s7.243-13.848,8.294-17.746C284.979,248.239,278.775,236.657,278.775,236.657z"/>
					<path fill="#010101" d="M257.705,283.471c0,0,7.321,4.632,12.852,0.149c5.529-4.483,14.944-15.095,14.795-28.544l-1.195,1.943
						c0,0-3.885,18.531-14.646,25.107c0,0-6.277,2.689-10.909-0.896L257.705,283.471z"/>
					<path fill="#010101" d="M276.834,227.877c0,0,5.379-8.668,7.172-7.92c1.794,0.748,0.3,15.841,0,17.187
						c0,0-1.792-7.771-4.184-10.461C279.822,226.682,277.431,227.28,276.834,227.877z"/>
					<path fill="#010101" d="M276.386,242.224c0,0-6.876-1.943-6.575,0.598c0.298,2.541,4.932,8.07,1.644,13.45
						c-3.287,5.38-2.84,9.864-2.84,9.864s4.036,2.541,8.221-6.127c0,0-3.888,6.127-7.024,5.082c0,0,0.597-3.737,1.793-4.334
						c1.195-0.599,7.473-5.829,1.645-13.75c0,0-2.99-3.287-2.094-3.735C272.052,242.821,272.35,241.925,276.386,242.224z"/>
					<path fill="#010101" d="M95.184,262.325c0,0-7.396-21.969-4.707-24.658c2.69-2.69,5.38-0.673,7.621,1.344
						c0,0-3.811-2.018-6.052-0.672c0,0,1.569,14.57,3.138,19.278V262.325z"/>
					<path fill="#010101" d="M96.305,249.771c0,0-2.914,19.728-0.896,23.986c2.018,4.258,7.846,9.64,7.846,9.64
						s-6.949-7.847-6.726-11.433C96.753,268.377,96.305,249.771,96.305,249.771z"/>
					<path fill="#010101" d="M113.641,291.989c0,0.672-3.438,3.062-5.23,2.167c-1.794-0.896-7.846-7.621-10.312-16.812l-2.018-2.69
						c0,0,4.034,16.471,11.732,21.371c4.932,3.138,7.173-2.69,7.173-2.69L113.641,291.989z"/>
					<path fill="#010101" d="M119.17,149.271c0,0,26.601,32.877,51.706,38.257c0,0-14.644-6.874-25.702-16.737
						c0,0,15.543,12.255,32.279,14.646c0,0-9.564-5.978-13.45-8.967c0,0,17.336,7.473,22.118,8.668c0,0-10.76-7.472-12.852-10.462
						c0,0,8.069,3.886,19.427,4.185c11.358,0.299,21.52,4.783,23.313,5.979c0,0-8.668-6.576-14.646-8.668
						c0,0,26.602,5.978,34.97,14.645c0,0-5.38-10.161-12.554-13.449c0,0,19.728,11.059,25.107,23.911
						c5.381,12.853,11.656,20.025,11.656,20.025s2.99,31.382-2.689,40.05c0,0,8.069-11.059,9.563-17.037
						c1.494-5.977,4.783-25.703,15.543-26.451c0,0-1.047-23.462,1.195-38.108c2.286-14.939-24.21-92.356-90.863-91.459
						c0,0-50.472-1.219-71.434,21.52c-17.634,19.128-26.6,21.52-31.383,30.486c-6.503,12.192-16.438,17.037,0,97.364
						c0,0,8.668,8.144,11.656,17.41c2.99,9.266,6.277,11.357,6.277,11.357l-2.988-13.151c0,0-0.598-42.442,7.771-50.213
						c8.37-7.771,14.944-25.404,5.978-42.741c0,0,5.38,5.978,6.875,14.944C126.045,175.273,124.251,158.236,119.17,149.271z"/>
					<path fill="#010101" d="M97.873,262.1c0,0,1.941-2.982,3.812-1.943c1.345,0.749,1.568,2.84,1.793,6.203
						c0.224,3.362,4.932,8.742,4.932,10.76s-2.914,2.465-6.725-0.224c0,0,6.947,3.512,6.052-0.298
						c-0.441-1.877-7.061-3.477-4.783-10.312C103.179,265.612,102.881,257.095,97.873,262.1z"/>
					<path fill="#010101" d="M94.623,251.9c0,0-2.258-9.751-0.784-9.751c0.076,0,0.486,0.224,0.486,0.224s4.108,5.828,5.566,9.303
						c0,0-3.587-4.708-4.483-5.156C95.408,246.521,94.96,250.331,94.623,251.9z"/>
					<path fill="#010101" d="M128.137,336.524v68.893c0,0,8.069-63.962,5.828-65.308
						C131.723,338.766,128.137,336.524,128.137,336.524z"/>
					<path fill="#010101" d="M-48.206,486.38c0,0,18.639-46.003,32.917-59.092c14.276-13.087,123.734-49.178,128.096-50.763
						c4.363-1.586,16.26-9.121,16.26-9.121l0.793,9.518c0,0-12.69,4.759-15.465,5.156c-2.777,0.396-115.407,40.056-126.512,48.779
						C-23.221,439.583-38.688,465.361-48.206,486.38z"/>
					<path fill="#010101" d="M429.092,493.035c0,2.509-12.292-49.573-34.105-64.643c-21.812-15.071-76.938-49.971-84.869-52.35
						c-7.932-2.38-24.191-11.104-30.538-12.69c-6.345-1.588-15.069-11.104-19.036-11.898c-3.964-0.793-3.286-2.826-3.286-2.826
						L256.36,315.9l-6.277,7.621l2.926,64.815l2.903-31.639c0,0,11.77,5.066,17.322,9.43s27.364,12.294,30.141,13.088
						s13.066,7.176,14.257,7.969c1.189,0.794,59.509,27.327,76.562,45.174C411.246,450.204,429.092,485.502,429.092,493.035z"/>
					<path fill="#010101" d="M148.311,348.18c-1.143-1.145,15.692,19.727,20.625,21.072c4.931,1.345,25.554-0.448,27.797-1.346
						c2.24-0.896,17.932-23.312,17.932-23.312s-15.691,11.207-26.451,11.656C177.453,356.698,149.208,349.076,148.311,348.18z"/>
					<path fill="#010101" d="M203.457,440.087c0,0,48.121-31.083,50.213-72.031l1.196-16.737l6.574,3.587
						c0,0-4.782,23.313-5.978,28.692c0,0-19.129,44.535-54.099,60.975c0,0-21.36,1.19-25.405-0.3
						c-5.68-2.092-36.165-21.52-48.42-37.66c0,0-7.473-19.428-6.276-28.692l9.157-2.847c0,0-4.676,22.273-0.49,29.446
						c0,0,31.384,30.488,45.432,35.868C181.806,442.855,203.457,440.087,203.457,440.087z"/>
					<path fill="#352B2A" d="M151.301,110.115c0,0,12.553,18.382,31.385,21.521c0,0-11.657-4.035-16.59-11.209
						c0,0,10.761,4.932,26.003,8.967c15.243,4.036,33.626,13.002,36.764,16.141c0,0-14.346-10.76-17.933-12.553
						c0,0,26.451,8.518,31.831,13.898c0,0-15.691-10.313-24.21-14.795c0,0,26.451,8.966,29.589,11.657c0,0-13-10.312-14.794-11.208
						c0,0,20.344,7.936,23.313,10.312c2.241,1.793-18.382-15.691-36.315-20.624c0,0,28.245,10.312,30.487,11.657
						c0,0-8.967-7.621-10.312-8.518l13.899,7.622c0,0-11.657-23.762-41.695-32.28c0,0,18.829,8.519,24.658,17.037
						c0,0-16.14-14.795-47.523-17.934c0,0,14.346,2.242,19.727,8.519c0,0-21.071-9.415-37.211-2.242c0,0,13.002,5.38,15.243,7.623
						c0,0-12.554-4.932-24.21-4.932c0,0,8.518,1.792,10.312,3.585l-14.347-1.793l5.828,3.587
						C165.199,114.151,156.681,114.599,151.301,110.115z"/>
					<path fill="#352B2A" d="M265.774,226.682c0,0-2.466-14.57-4.482-17.261c0,0,5.154,3.587,7.845,4.708c0,0-3.586-3.138-5.38-5.38
						c0,0,6.054,3.138,7.847,2.913c1.793-0.223,8.069-6.276,8.069-6.276l1.12,8.966c0,0-6.276,3.812-7.396,5.829l2.018-4.708
						C275.414,215.474,268.464,220.182,265.774,226.682z"/>
					<path fill="#FFFFFF" d="M209.191,212.552c-0.145-0.683-0.678-1.276-1.48-1.22c-0.035,0.002-0.071,0.006-0.107,0.008
						c-0.828,0.058-1.386,0.615-1.443,1.442l-0.009,0.107c-0.097,1.395,1.75,2.015,2.663,1.103c0.08-0.081,0.134-0.175,0.19-0.27
						C209.648,213.667,209.714,212.77,209.191,212.552z"/>
					<path fill="#FFFFFF" d="M140.576,217.716c-0.257-0.257-0.588-0.399-0.93-0.439c-0.146-0.058-0.297-0.098-0.463-0.154
						c-0.921-0.312-1.592,0.775-1.277,1.508c-0.086,0.62,0.151,1.285,0.752,1.571c0.57,0.274,1.027,0.274,1.598,0
						C141.189,219.756,141.253,218.394,140.576,217.716z"/>
				</g>
			</g>
			<g>
				<path fill="#FFFFFF" d="M200.305,524.574c-15.604,0-28.316-12.694-28.336-28.298c-0.01-7.568,2.928-14.687,8.272-20.045
					s12.456-8.314,20.025-8.323c15.639,0,28.348,12.692,28.368,28.294c0.02,15.624-12.673,28.352-28.295,28.372H200.305z"/>
				<path fill="#D3B76E" d="M200.305,469.908c14.527-0.001,26.311,11.766,26.33,26.297c0.019,14.545-11.755,26.35-26.298,26.369
					c-0.011,0-0.021,0-0.032,0c-14.53,0-26.317-11.767-26.336-26.301c-0.02-14.543,11.755-26.348,26.3-26.365
					C200.28,469.908,200.293,469.908,200.305,469.908 M200.307,465.908h-0.002h-0.003h-0.039c-8.102,0.01-15.716,3.174-21.438,8.911
					c-5.722,5.735-8.867,13.357-8.856,21.46c0.021,16.704,13.63,30.295,30.336,30.295c16.762-0.022,30.352-13.648,30.33-30.374
					C230.612,479.497,217.007,465.908,200.307,465.908L200.307,465.908z"/>
			</g>
			<g>
				<g>
					<g>
						<path fill="#F2F2F2" d="M177.652,490.666c3.078-12.512,15.717-20.154,28.225-17.076c12.512,3.078,20.153,15.715,17.075,28.225
							c-3.079,12.51-15.714,20.154-28.226,17.074C182.219,515.812,174.571,503.176,177.652,490.666"/>
						<path fill="#E02B3A" d="M209.639,494.906c0.447,4.873-3.137,9.188-8.007,9.637c-4.871,0.451-9.186-3.131-9.634-8.004
							c-0.451-4.871,3.133-9.186,8.003-9.635C204.872,486.453,209.186,490.035,209.639,494.906"/>
						<path fill="#223F72" d="M193.235,491.156c-1.263,2.096-0.598,4.814,1.496,6.076c2.092,1.266,4.812,0.594,6.076-1.5
							c1.261-2.092,3.979-2.758,6.074-1.496c2.09,1.262,2.761,3.982,1.496,6.072c-2.527,4.186-7.962,5.523-12.148,2.998
							C192.049,500.779,190.708,495.342,193.235,491.156"/>
					</g>
					<path fill="#404041" d="M186.441,505.637l2.306,3.408l1.151-0.773l-2.31-3.41L186.441,505.637z M186.076,505.098l1.148-0.777
						l-2.307-3.412l-1.151,0.775L186.076,505.098z M182,502.883l4.98,7.361l1.146-0.775l-4.979-7.359L182,502.883z M185.538,500.49
						l4.98,7.361l1.146-0.777l-4.979-7.363L185.538,500.49z M216.095,490.961l-2.304-3.414l-1.149,0.777l2.306,3.412
						L216.095,490.961z M213.422,487.008l-2.304-3.412l-1.147,0.775l2.306,3.412L213.422,487.008z M218.491,489.342l1.146-0.777
						l-2.31-3.41l-1.147,0.777L218.491,489.342z M216.963,484.613l-2.307-3.412l-1.149,0.777l2.31,3.412L216.963,484.613z
						 M217.864,489.766l-4.974-7.365l-1.152,0.775l4.98,7.361L217.864,489.766z M213.542,509.436l1.151,0.773l2.299-3.418
						l-1.151-0.773L213.542,509.436z M216.205,505.477l1.149,0.771l2.3-3.414l-1.152-0.771L216.205,505.477z M214.067,504.828
						l-2.296,3.414l1.147,0.777l2.3-3.418L214.067,504.828z M217.88,501.643l-1.147-0.775l-2.301,3.418l1.15,0.775L217.88,501.643z
						 M212.297,503.633l-2.301,3.418l1.153,0.773l2.295-3.416L212.297,503.633z M213.812,503.867l2.294-3.416l-1.149-0.777
						l-2.298,3.418L213.812,503.867z M185.526,491l1.149,0.771l4.959-7.377l-1.147-0.771L185.526,491z M184.9,490.58l4.965-7.377
						l-1.152-0.771l-4.962,7.377L184.9,490.58z M188.091,482.012l-1.147-0.773l-4.965,7.375l1.151,0.775L188.091,482.012z"/>
				</g>
			</g>
		</g>
		<g>
			
				<rect x="55.114" y="31.166" transform="matrix(1 -0.0013 0.0013 1 -0.0715 0.2583)" fill="#D3B76E" width="289.192" height="48.5"/>
			<polygon fill="#D3B76E" points="68.131,73.023 29.477,73.073 37.821,55.625 29.432,38.198 80.752,38.133 80.768,50.164 
				55.107,50.197 			"/>
			<polygon fill="#D3B76E" points="331.334,72.684 369.988,72.634 361.599,55.207 369.943,37.759 318.623,37.825 318.639,49.856 
				344.299,49.823 			"/>
			
				<text transform="matrix(1 -0.0013 0.0013 1 70.8838 65.6216)" fill="#9B8D51" font-family="'Novecentowide-DemiBold'" font-size="27.1191">Lee Chung-yong</text>
			<g>
				
					<text transform="matrix(1 -0.0013 0.0013 1 69.8818 64.623)" fill="#FFFFFF" font-family="'Novecentowide-DemiBold'" font-size="27.1191">Lee Chung-yong</text>
			</g>
			
				<rect x="34.578" y="52.509" transform="matrix(0.0013 1 -1 0.0013 107.556 3.5202)" fill="#9B8D51" width="34.875" height="6.197"/>
			
				<rect x="329.967" y="52.127" transform="matrix(0.0013 1 -1 0.0013 402.1823 -292.2496)" fill="#9B8D51" width="34.875" height="6.197"/>
		</g>
	</g>
	<g display="inline">
		<g>
			<defs>
				<polygon id="SVGID_189_" points="776,420.615 620,490.74 464,420.615 464,145.678 776,145.678 				"/>
			</defs>
			<clipPath id="SVGID_14_">
				<use xlink:href="#SVGID_189_"  overflow="visible"/>
			</clipPath>
			<path clip-path="url(#SVGID_14_)" fill="#27387B" d="M827.434,470.004c0,0-10.652-49.988-26.582-65.083
				c-0.311-0.39-0.621-0.77-0.931-1.134c-10.725-12.591-89.999-46.631-99.791-47.564c-8.067-0.769-26.562-4.064-32.837-5.204
				l0.165-6.653c5.474-3.783,10.382-10.71,12.387-23.115c0,0,2.798-22.85,4.197-25.881c1.399-3.03,3.963-11.425,1.632-23.082
				c0,0,0.932-23.549,3.264-29.844c2.333-6.295,1.865-17.487,0.467-24.248c-1.398-6.763-1.632-17.021,1.167-21.685
				c1.962-3.271,3.683-6.318,2.612-10.98c-0.014-0.218-0.03-0.442-0.049-0.677c-0.02-0.244-0.153-0.493-0.353-0.742
				c-0.539-1.639-1.392-3.462-2.679-5.554c0,0,0.955-24.561-20.595-46.832c-0.121-3.325-1.062-18.263-8.2-21.366
				c0,0-28.331-17.702-44.066-21.334c-27.279-6.295-39.87-4.546-39.87-4.546s-77.291,20.401-88.017,88.017
				c-10.725,67.615,26.113,97.926,32.177,102.589c0,0-4.664,1.864-11.659-5.13c0,0,2.332,8.86,13.524,12.125
				c0,0-6.996,0.932-8.395,0.466c0,0,6.062,6.062,12.124,7.927c0,0,3.265,4.663,6.062,10.726c0.488,1.058,1.005,2.158,1.525,3.255
				c0.551,5.418,1.139,11.189,1.729,16.94c-4.514,3.452-14.55,20.529-15.379,21.772c-0.933,1.398-23.781,10.727-27.979,12.591
				c-2.916,1.295-55.546,35.659-89.925,58.562c-5.42,3.483-10.392,6.787-14.584,9.771c-7.618,5.143-12.938,8.818-14.401,10.008
				c-3.834,3.114-7.541,9.675-10.243,15.319c-4.911,7.911-9.342,17.322-9.342,17.322s0.923-0.681,2.498-1.832
				c-0.348,1.206-0.569,2.298-0.632,3.231c-0.467,6.994,58.289,72.278,66.217,74.61c7.927,2.331,373.051-15.389,380.512-19.118
				c6.797-3.397,18.428-51.289,20.446-59.794C825.767,467.336,827.434,470.004,827.434,470.004z"/>
		</g>
		<g>
			<defs>
				<polygon id="SVGID_191_" points="776,420.613 620,490.73 464,420.613 464,72.34 776,72.34 776,334.07 				"/>
			</defs>
			<clipPath id="SVGID_16_">
				<use xlink:href="#SVGID_191_"  overflow="visible"/>
			</clipPath>
			<g clip-path="url(#SVGID_16_)">
				<path fill="#8CB3D3" d="M852.937,464.543c0,0-7.695-46.165-33.575-62.253s-52.46-27.279-52.46-27.279
					s-20.052-12.591-36.372-14.922c-16.321-2.332-34.974-5.597-34.974-5.597s4.662,30.777-0.467,39.17
					c-5.129,8.395-8.859,33.575-41.968,47.564c0,0-40.146-14.256-79.273-62.951c-20.985-26.114-24.715-28.445-24.715-28.445
					s-29.336,9.364-50.828,24.715c-22.85,16.32-80.207,48.03-91.863,60.619c-11.659,12.591-20.519,27.979-20.984,34.975
					c-0.467,6.994,58.289,72.278,66.217,74.61c7.927,2.331,373.051-15.389,380.512-19.118S852.937,464.543,852.937,464.543z"/>
				<path fill="#7599B2" d="M383.591,468.739c0,0,11.191-23.78,17.721-27.512c6.528-3.731,81.604-55.492,84.402-55.957
					c2.798-0.468,40.569-30.778,45.698-30.778c5.13,0,20.051-6.062,20.051-6.062l8.395,16.322c0,0-11.657-0.468-15.389,2.798
					c0,0,9.327,13.989,13.989,18.652c0,0-16.786-16.786-22.383-20.518c-5.596-3.731-37.771,18.187-39.637,20.984
					c-1.864,2.797-12.124,21.915-20.518,24.247c0,0,9.794-7.926,11.658-14.455c0,0-17.72,5.596-20.983,10.259
					c-3.265,4.663-12.125,25.181-17.254,32.643c-5.129,7.461-13.523,16.787-13.523,16.787s-2.797-17.255-7.927-16.787
					C422.762,439.829,383.591,468.739,383.591,468.739z"/>
				<path fill="#020202" d="M388.721,461.279c0,0,6.994-19.12,14.455-25.182c7.46-6.062,114.713-76.477,118.91-78.341
					s27.046-11.192,27.979-12.591s13.523-22.85,16.787-22.383l1.4,5.596c0,0-12.125,16.788-13.057,23.316
					c49.615,71.859,87.199,84.17,96.643,87.899c0,0,33.458-11.424,43.25-50.128l-0.466-32.642l-0.466-4.197
					c0,0,25.18,4.662,34.974,5.595c9.792,0.934,89.066,34.974,99.791,47.564c10.726,12.591,21.916,41.09,22.384,53.653
					c0,0-12.59-44.326-26.113-52.721c-13.524-8.394-73.679-41.501-94.663-44.766l-32.176-5.13c0,0,1.399,29.844,0.467,33.575
					c0,0-7.346,35.646-45.583,52.461c0,0-48.613-17.838-78.923-59.455c0,0-18.652-25.647-22.851-27.979
					c-4.195-2.332-23.315,3.265-27.045,6.062c-3.73,2.798-114.247,72.747-119.844,79.274
					C398.979,447.29,388.721,461.279,388.721,461.279z"/>
			</g>
		</g>
	</g>
</g>
<g id="Layer_1_copy">
	<g>
		<g>
			<g>
				<defs>
					<polygon id="SVGID_337_" points="-63.656,420.414 -219.566,490.74 -375.656,420.816 -376.012,145.879 -64.012,145.477 					"/>
				</defs>
				<clipPath id="SVGID_18_">
					<use xlink:href="#SVGID_337_"  overflow="visible"/>
				</clipPath>
				<path clip-path="url(#SVGID_18_)" fill="#DDDCD4" d="M44.982,499.126c0.013,0.047,0.006,0.015-0.018-0.076
					c-0.195-0.858-2.277-9.742-6.888-20.938c-6.005-15.528-15.761-35.231-28.624-42.854c-22.841-13.535-27.914-16.495-31.723-20.302
					c-3.807-3.807-63.868-23.264-72.749-27.07c-8.883-3.807-27.493-14.381-30.455-15.65c-2.961-1.269-8.034-1.691-8.034-1.691
					s-5.686-3.651-9.098-5.391c-3.835-41.904,5.217-76.556,7.279-83.747c14.424,2.287,22.541-14.205,22.541-14.205
					c11.702-20.867-0.702-40.184-0.702-40.184s-0.738-0.387-1.846-0.791c-0.067-0.651-0.187-5.497,7.201-25.715
					c8.036-21.995-5.499-59.638-5.499-59.638c-24.532-67.252-115.047-57.102-115.047-57.102
					c-58.792,18.611-63.444,58.792-63.444,58.792s-6.345,13.958-10.151,28.762s5.922,33.837,5.922,33.837
					c-0.549-3.571-0.741-9.279-0.809-12.845c0.796,7.714,5.744,20.035,5.744,20.035c0.055,4.649-0.779,14.098-2.822,24.743
					c-1.651,8.598-1.268,18.188,1.481,28.339c0.448,1.656,15.438,47.795,24.531,59.216c0.45,0.564,0.921,1.102,1.405,1.616
					l-1.604,47.643c-4.033,1.354-16.773,6.059-22.43,13.129c0,0-11.42,6.768-27.069,14.805
					c-15.651,8.036-79.518,27.492-94.744,49.486c-10.697,15.452-19.718,35.064-24.142,45.374
					c-6.971,12.356-12.823,23.463-13.504,27.377c-1.69,9.727-4.653,41.873,26.647,57.946
					c31.301,16.072,480.491-5.076,479.645-26.224C55.135,534.655,44.982,499.126,44.982,499.126z M-109.81,237.696
					c0.643,2.433,0.956,4.848,1.022,7.184C-109.014,242.404-109.35,239.958-109.81,237.696z M-429.703,484.301
					c4.173-7.752,9.115-16.494,13.752-23.593C-419.448,466.781-424.52,475.36-429.703,484.301z M-30.019,415.068
					c3.181,1.386,5.479,2.52,6.481,3.271c6.766,5.075,30.875,16.918,33.413,19.456c0.277,0.277,0.794,0.759,1.486,1.427
					c-2.701-2.156-5.589-4.071-8.677-5.657C-14.934,424.519-24.777,418.555-30.019,415.068z"/>
			</g>
			<g>
				<defs>
					<polygon id="SVGID_339_" points="-63.656,420.414 -219.566,490.732 -375.656,420.816 -376.105,72.543 -64.106,72.141 
						-46.007,217.182 -63.769,333.871 					"/>
				</defs>
				<clipPath id="SVGID_20_">
					<use xlink:href="#SVGID_339_"  overflow="visible"/>
				</clipPath>
				<g clip-path="url(#SVGID_20_)">
					<path fill="#E02B3A" d="M22.982,500.126c0,0-10.998-49.487-42.297-65.561c-31.3-16.071-38.066-22.416-38.066-22.416
						s-62.177-22.84-71.06-26.224c-8.881-3.385-19.878-9.729-19.878-9.729s-16.919,54.562-83.748,74.864
						c0,0-69.79-17.764-69.367-62.176l1.058-6.767c0,0-7.19,4.018-11.42,7.4c-4.229,3.384-29.607,14.594-31.724,16.073
						c-2.113,1.48-66.192,30.031-73.172,34.26c-6.979,4.231-13.536,6.557-16.92,13.958c-3.382,7.401-37.009,61.543-38.701,71.271
						c-1.69,9.727-4.653,41.873,26.647,57.946c31.301,16.072,480.491-5.076,479.645-26.224
						C33.135,535.655,22.982,500.126,22.982,500.126z"/>
					<path fill="#010101" d="M-305.028,386.137c0.191-2.148-6.133,5.287-7.402,6.556c-1.27,1.27-16.918,10.574-24.954,12.267
						c-8.036,1.69-79.097,36.798-89.67,43.565c-10.574,6.768-34.683,56.255-34.683,56.255s11.843-30.453,27.07-52.448
						c15.227-21.994,79.093-41.45,94.744-49.486c15.649-8.037,27.069-14.805,27.069-14.805c6.768-8.459,23.686-13.535,23.686-13.535
						l-0.845,4.23c-11.421,3.806-10.152,22.84-10.152,22.84s29.749,38.205,49.487,45.257c0,0,19.431,1.884,27.916,0.424
						c13.536-2.327,50.967-22.841,71.906-69.367l-13.96-8.036v-3.808c3.384,1.693,9.308,5.499,9.308,5.499s5.073,0.423,8.034,1.691
						c2.962,1.27,21.572,11.844,30.455,15.65c8.881,3.807,68.942,23.264,72.749,27.07c3.809,3.807,8.882,6.767,31.723,20.302
						c22.84,13.536,35.883,65.156,35.529,63.868c-10.998-40.182-32.567-58.791-35.106-61.33
						c-2.538-2.538-26.647-14.381-33.413-19.456c-6.769-5.076-72.328-27.493-73.598-28.339c-1.27-0.847-10.997-4.229-14.381-6.344
						c-3.383-2.116-13.323-5.076-13.323-5.076s-31.722,60.484-76.347,70.847c-6.544,1.521-19.879,0.846-26.223-0.424
						c-9.802-1.96-23.687-11.842-52.235-43.776C-303.921,400.627-305.583,392.402-305.028,386.137z"/>
				</g>
			</g>
		</g>
	</g>
	<g>
		<polygon fill="#223F72" points="400.361,559.742 0.361,560.258 -0.361,0 399.639,0 		"/>
		<g>
			<polygon fill="#E02B3A" points="399.935,242.836 399.676,42.682 0.069,334.084 0.361,560.258 			"/>
		</g>
		<g>
			<g>
				<polygon fill="#FFFFFF" points="39.848,423.733 39.482,141.385 360.482,140.971 360.848,423.319 200.44,495.674 				"/>
				<g>
					<path fill="#010101" d="M355.988,145.477l0.355,274.938l-155.91,70.326l-156.09-69.924l-0.355-274.938L355.988,145.477
						 M364.977,136.465l-9,0.012l-312,0.402l-9,0.012l0.012,9l0.355,274.938l0.008,5.821l5.312,2.381l156.09,69.924l3.692,1.653
						l3.688-1.663l155.91-70.326l5.308-2.394l-0.008-5.822l-0.355-274.938L364.977,136.465L364.977,136.465z"/>
				</g>
			</g>
			<g>
				<path fill="#D3B76E" d="M364.814,136.465l0.012,9l0.355,274.938l0.007,5.826L200.284,500.24L35.188,426.279l-0.007-5.451
					l-0.355-274.938l-0.011-9l9-0.012l311.999-0.402L364.814,136.465 M371.806,129.456l-7,0.009l-9,0.012l-311.999,0.402l-9,0.012
					l-7,0.009l0.009,6.999l0.011,9l0.355,274.938l0.007,5.451l0.006,4.528l4.132,1.852l165.096,73.961l2.865,1.283l2.863-1.285
					l164.904-74.012l4.139-1.858l-0.005-4.536l-0.007-5.826l-0.355-274.938l-0.012-9L371.806,129.456L371.806,129.456z"/>
			</g>
			<g>
				<defs>
					<polygon id="SVGID_345_" points="356.344,420.414 200.434,490.74 44.344,420.816 43.988,145.879 355.988,145.477 					"/>
				</defs>
				<clipPath id="SVGID_22_">
					<use xlink:href="#SVGID_345_"  overflow="visible"/>
				</clipPath>
				<path clip-path="url(#SVGID_22_)" fill="#DCDBD4" d="M453.07,501.465c-0.341-2.35-1.711-6.257-3.835-11.057
					c0.585,1.757,1.107,3.379,1.564,4.829c-1.021-2.731-2.173-5.729-3.432-8.871c0.672,1.402,1.297,2.754,1.867,4.042
					c-5.125-15.378-15.129-41.011-29.224-50.749c-21.203-14.649-74.787-48.573-82.497-50.886
					c-7.709-2.313-23.515-10.794-29.684-12.336c-6.168-1.543-14.648-10.794-18.504-11.565c-3.854-0.771-3.194-2.747-3.194-2.747
					l-0.837-30.537c0.973-2.521,1.586-5.392,1.708-8.685c0.228-6.135,0.632-14.993,1.153-23.304c2.4,1.057,7.085,2.43,10.903-0.665
					c5.312-4.308,14.3-14.44,14.366-27.299c0.414-0.831,0.728-1.58,0.887-2.19c0.373-1.426-0.145-3.467-1.046-5.619
					c0.02-0.152,0.042-0.32,0.065-0.508l0.545,1.479c0,0,1.31-13.8,2.324-20.773c1.163-7.989-1.678-11.277-4.939-10.313
					c-0.066,0.02-0.126,0.05-0.192,0.07c-0.173-4.917-0.669-23.537,1.21-35.806c2.222-14.521-23.533-89.774-88.323-88.902
					c0,0-49.061-1.185-69.437,20.918c-17.141,18.594-25.856,20.918-30.506,29.634c-6.321,11.852-15.979,16.561,0,94.642
					c-2.352,2.352,3.229,19.864,4.374,23.355c-0.372,4.874-0.47,9.848,0.42,11.726c0.223,0.471,0.498,0.956,0.804,1.445
					c0.775,2.882,4.609,15.971,11.254,20.2c2.77,1.763,4.662,0.614,5.77-0.669c0.332,2.616,0.624,4.986,0.913,6.915
					c0.452,3.018,0.749,7.342,1.413,11.978c0.088,0.771,0.208,1.535,0.356,2.29c1.376,8.125,4.101,16.691,10.868,20.596
					c0.143,0.082,0.292,0.169,0.436,0.252v28.589c-2.797,1.745-11.376,7.019-14.901,8.3c-4.239,1.541-110.638,36.623-124.515,49.344
					c-11.527,10.566-25.977,43.2-30.544,53.957c-2.518,4.924-4.245,8.656-4.359,9.909c-0.436,4.794,444.515,29.199,469.354,6.537
					C455.657,508.989,454.709,506.068,453.07,501.465z M2.011,471.387c-3.073,5.626-6.311,11.551-9.048,16.736
					C-4.271,482.551-1.194,476.846,2.011,471.387z"/>
			</g>
			<g>
				<defs>
					<polygon id="SVGID_347_" points="356.344,420.414 200.434,490.732 44.344,420.816 43.895,72.543 355.894,72.141 
						373.993,217.182 356.231,333.871 					"/>
				</defs>
				<clipPath id="SVGID_24_">
					<use xlink:href="#SVGID_347_"  overflow="visible"/>
				</clipPath>
				<g clip-path="url(#SVGID_24_)">
					<path fill="#FBC3A9" d="M254.565,363.871c0,0-0.895-42.143-0.597-43.04c0.3-0.896,2.392-11.358,2.989-15.242
						c0.598-3.886,0.523-23.762,0.523-23.762s7.172,4.482,10.534,2.241c3.364-2.241,13.226-10.76,15.917-23.09l1.344-8.069
						l-0.224-4.483c0,0,2.914-22.417,2.914-24.21c0-1.794-0.447-5.829-2.69-6.949c-2.241-1.121-6.725-0.449-6.725-0.449
						s-43.114-57.386-62.243-60.076c-19.129-2.689-79.505-26.601-89.068-19.727c-9.564,6.874-30.786,92.057-29.889,96.541
						c0.896,4.483-5.306,4.782-5.306,4.782s-1.42,3.137-0.075,9.115c1.346,5.978,3.289,14.049,3.289,14.049l0.298,10.76l1.943,4.632
						c0,0,1.345,5.53,2.839,8.22c1.494,2.689,6.726,9.115,7.922,9.713c1.194,0.598,1.941,0.747,2.389,0.449
						c0.449-0.3,4.335-1.943,4.335-1.943s1.196,20.324,2.541,25.106s5.679,12.403,5.828,11.955s6.426,7.473,6.726,8.22
						c0.298,0.747,0.298,14.646,0.298,14.646s0.226,18.008,0,18.681c-0.224,0.673-1.792,10.087-1.792,10.087l-0.449,19.055
						c0,0-2.69,6.949,23.089,24.658c25.779,17.71,27.123,17.037,27.123,17.037s19.728,1.345,23.763-1.122
						c4.035-2.465,39.678-24.433,52.902-63.438L254.565,363.871z"/>
					<path fill="#E02B3A" d="M431.657,499.716c0,0-16.588-51.109-31.384-64.56c-14.794-13.45-64.559-43.937-78.009-49.765
						s-36.763-16.14-38.556-17.485c-1.795-1.344-25.107-13.001-25.107-13.001s0,17.036-4.484,25.555
						c-4.482,8.518-17.035,44.833-52.006,61.196c0,0-20.623,4.26-27.349,0.674c-6.725-3.587-41.246-30.487-44.385-34.073
						c-3.138-3.587-6.726-23.762-6.726-23.762l-0.896-8.07c0,0-95.047,34.073-112.532,40.799
						c-17.484,6.724-31.831,16.14-34.072,22.415c-2.242,6.277-26.9,48.421-27.349,53.353S406.103,523.03,431.657,499.716z"/>
					<path fill="#9E2024" d="M242.91,419.465c0,0,24.658-26.451,26.9-27.348c0,0,94.598,33.176,100.873,52.455
						c6.277,19.277,11.657,57.386,11.657,57.386s-6.725-49.766-17.933-58.731c-11.209-8.966-87.426-43.04-92.805-45.73
						L242.91,419.465z"/>
					<path fill="#9E2024" d="M125.671,415.43c0,0-25.331-12.33-28.918-12.33c-3.586,0-68.594,25.779-82.044,42.368
						C1.259,462.056-1.88,488.06-1.88,488.06s9.414-34.074,17.484-39.902c8.07-5.827,78.458-40.798,81.148-40.35
						C99.443,408.257,125.671,415.43,125.671,415.43z"/>
					<path fill="#9E2024" d="M149.432,437.174c0,0,21.072,16.588,22.865,16.588s27.797,0.896,30.038-0.448
						s24.883-19.278,24.883-19.278s-21.968,20.848-24.21,21.297c-2.241,0.448-29.59,1.345-30.935,0.896
						C170.728,455.78,149.432,437.174,149.432,437.174z"/>
					<path fill="#FFFFFF" d="M151.226,224.665c0,0-18.082,3.064-27.722-1.122c0,0,5.754-6.725,10.835-7.473
						c5.081-0.745,14.495,0.972,16.438,3.812C152.721,222.722,151.226,224.665,151.226,224.665z"/>
					<path fill="#FFFFFF" d="M193.146,220.031c0,0,20.25,1.421,29.29-5.155c0,0-10.162-8.219-18.232-5.753
						S191.8,216.52,193.146,220.031z"/>
					<path fill="#CF957A" d="M116.929,197.54c0,0-13.002,48.42-4.034,66.354c6.672,13.348,18.828,27.796,19.726,31.832
						c0,0-8.52-6.726-10.761-7.623c0,0,0.58,24.555,1.346,30.487c1.793,13.898,27.796,19.727,30.486,21.52l-6.725-16.14
						c0,0,13.001,21.071,18.382,22.417c5.379,1.344,18.829,2.689,26.451-0.897c7.622-3.586,17.934-21.968,17.934-21.968
						s-6.095,17.567-7.175,19.727c-0.896,1.793,36.765-23.312,40.352-26.451c3.586-3.139,3.138-39.453,1.345-42.143l-15.692,8.966
						c0,0,11.209-11.209,13.899-16.589s6.24-39.297,4.932-44.533c-1.195-4.782-7.323-18.084-8.667-23.016
						c-1.346-4.931-21.671-12.403-27.5-14.645c-5.827-2.241-21.669-17.784-20.771-19.128c0.896-1.346,28.244-4.932,30.038-4.036
						c1.793,0.896,29.142,21.52,29.142,21.52s10.76,23.762,10.312,26.899c-0.448,3.139,4.931,7.623,4.931,9.864
						c0,2.243-2.241,20.175-2.689,22.865c-0.447,2.69-1.345,11.657-1.345,11.657s1.345,7.173-1.345,19.278
						c-2.69,12.104-3.138,36.763-3.138,36.763s0,8.968-6.277,13.002c-6.277,4.035-27.349,14.347-30.486,17.934
						c-3.14,3.586-24.659,16.589-34.521,16.589c-9.864,0-35.419-8.52-44.385-13.898c-8.968-5.38-17.485-11.209-17.485-11.209
						s-8.069-11.657-7.174-22.865c0.897-11.208-2.241-34.073-4.483-38.556c-2.241-4.484-12.104-26.003-11.656-34.074
						c0.448-8.069,5.828-40.798,6.725-43.039C107.514,192.161,116.929,197.54,116.929,197.54z"/>
					<path fill="#CF957A" d="M149.508,299.61c0,0,14.646-11.357,17.335-11.059c0,0,4.185,1.045,6.575,0.597
						c2.393-0.447,7.024-1.644,7.024-1.644s8.667-0.597,23.163,9.416c0,0-3.437,1.045-4.034,0.747
						c-0.599-0.299-10.911-4.186-15.842-3.586c-4.932,0.598-17.484,1.493-20.623,2.688c-3.139,1.197-9.265,3.438-10.162,3.738
						C152.048,300.806,149.508,299.61,149.508,299.61"/>
					<path fill="#CF957A" d="M157.502,302.45c0,0,9.416,3.139,15.243,3.139c5.829,0,18.606-3.139,21.744-6.053
						C194.489,299.536,181.713,317.918,157.502,302.45z"/>
					<path fill="#CF957A" d="M199.571,297.668c0,0,1.942,0.148,3.288,0.148c1.344,0,4.186,2.243,3.587,5.23
						c0,0,2.091-5.678,1.046-7.92c-1.046-2.241-7.323-6.426-10.909-7.173c0,0,7.322,4.781,8.069,6.874s0,0,0,0
						S201.813,297.966,199.571,297.668z"/>
					<path fill="#CF957A" d="M147.863,291.092c0,0-5.979,9.863-4.633,13.45s2.69,4.932,2.69,4.932s2.541-7.322,5.23-8.667
						c0,0-3.587,0-3.736-0.747C147.266,299.312,146.369,295.127,147.863,291.092z"/>
					<path fill="#CF957A" d="M195.498,259.747c0.449,3.474-2.578,6.948-2.578,6.948c-0.783-3.361-8.294-3.137-8.294-3.137
						c1.121-1.458,3.251-2.019,3.251-2.019c-4.596-0.335-9.303,2.019-12.741,4.596c-2.353,1.765-6.479,1.088-8.667-0.224
						c-5.23-3.139-11.432-2.465-11.432-2.465c2.316,1.12,4.035,2.988,4.035,2.988c-6.8-0.224-7.734,4.634-7.734,4.634
						c6.837,9.638,15.691,4.258,15.691,4.258l0.897,9.415l1.345-4.035l3.138,2.354l2.018-2.241l1.569-3.812l0.56,6.502l0.562-8.52
						l3.026-2.241c8.405,3.811,14.122-3.026,15.804-5.717C197.628,264.342,195.498,259.747,195.498,259.747z M174.763,271.216
						c-0.075,0.375-0.896,0.523-2.241,1.121c-1.345,0.599-3.96,0.225-5.23-0.672c-1.271-0.897-2.915-2.541-3.811-3.961
						c-0.897-1.418-4.781-3.138-4.781-3.138c7.396,1.832,9.078,5.493,9.078,5.493c2.95,2.391,6.053,0,6.053,0
						c3.587-5.568,9.824-5.94,9.824-5.94C180.144,264.715,174.839,270.842,174.763,271.216z"/>
					<path fill="#CF957A" d="M219.821,228.027c0,0-16.589,5.156-29.703-5.605c0,0,5.493,2.467,7.51,2.916l-5.491-2.916
						c0,0,14.347,2.69,24.658-1.905c0,0-2.355,4.26-4.708,5.716c0,0-6.164,0.672-9.752-0.448
						C202.335,225.786,210.405,229.82,219.821,228.027z"/>
					<path fill="#CF957A" d="M212.542,218.75c0,0,7.952-1.185,9.894-3.874c0,0-8.669-5.829-13.3-6.127
						c-4.633-0.3-15.094,5.081-16.888,7.472c-1.793,2.391-0.149,3.735-0.149,3.735s10.361,0.625,12.901-0.123
						c0,0-12.901,2.813-16.487,2.216c0,0-1.345-3.587-0.896-4.334c0,0-0.357,3.91-0.599,4.632c-0.15,0.449-1.645-4.782-1.345-6.874
						c0,0-2.242,10.163,7.771,22.118c0,0-9.564-9.415-10.013-11.358c-0.449-1.943-5.978-11.357-7.621-15.393l-0.897-3.287
						c0,0,5.53-2.989,6.576-4.782c0,0-8.369-2.69-8.07-7.771c0.3-5.082,22.865-12.703,35.419-10.461
						c12.554,2.242,17.634,3.886,26.302,20.026c0,0-9.864-11.06-30.936-7.024c0,0,10.76-1.494,17.934,2.84
						c0,0-6.726-4.035-20.474-0.747c0,0-4.931,2.391-5.978,6.277c0,0,21.071-7.771,35.119,5.978c0,0-8.519-8.967-26.899-6.577
						c0,0,16.587-1.942,27.646,11.807c0,0-3.884-3.586-9.115-4.932c0,0,5.381,4.185,6.277,5.53c0,0-2.242-0.598-3.886-0.897
						C224.827,216.818,220.312,218.302,212.542,218.75z"/>
					<path fill="#CF957A" d="M110.987,216.931c0,0,12.665-13.786,23.425-12.665c0,0,3.363,2.465,3.812,3.361
						c0,0,3.587,0.448,4.484,1.345c0,0-11.433-0.672-23.538,8.743c0,0,10.984-7.623,21.071-6.276c0,0-18.718,2.578-24.321,16.139
						c0,0,3.138-2.241,3.922-2.577c0,0-2.129,4.707-2.465,5.604c0,0,4.146-4.708,5.155-5.493c0,0,6.611,0.794,9.301,0.346
						c0,0-5.666-0.583-8.517-1.579c0,0,6.838-7.958,11.321-8.183c4.483-0.223,13.338,1.57,15.019,3.812
						c1.682,2.241,1.569,5.156,1.569,5.156s-6.106,1.396-8.684,0.835c0,0,7.675,1.742,10.253,0.733c0,0,0.146-1.354,0-1.793
						c-0.111-0.337,1.457,1.345,1.682,2.241c0,0,0.448-5.156-4.484-10.536c0,0,6.277,3.25,7.397,9.415c0,0,0.337,7.173-2.913,12.89
						c0,0,6.276-8.182,7.061-12.553c0.785-4.371,3.251-11.88-1.681-17.036c0,0,3.474,0.784,4.146,1.457
						c0,0,4.483-6.949,0.225-15.804c0,0,1.345,3.812-0.337,7.734c0,0-3.251-6.501-10.535-7.958
						C146.069,192.833,123.316,184.091,110.987,216.931z"/>
					<path fill="#CF957A" d="M111.996,219.509c0,0,5.829-20.623,10.984-26.228c5.156-5.604,4.036-14.57,3.363-16.364
						s-0.299-1.645-0.299-1.645s1.867,4.559,2.315,6.8c0.449,2.241,0.226,1.344,0.226,1.344s1.568-16.588-1.794-22.416
						c0,0,13.002,21.295,41.246,26.899c0,0-8.219-4.558-10.76-9.041c0,0,5.604,4.333,15.019,7.472c0,0-7.546-4.333-10.088-7.771
						c0,0,12.105,5.081,17.038,6.651c0,0-7.024-3.812-8.817-7.547c-0.835-1.739,1.419-1.197,1.419-1.197s13.675,5.605,22.193,4.932
						c8.517-0.672,14.795,3.138,14.795,3.138s-2.466-13.001-11.657-18.381s-74.423-36.315-82.941-30.263
						c-8.519,6.053-15.242,71.733-13.226,77.562C103.03,219.284,111.996,219.509,111.996,219.509z"/>
					<path fill="#CF957A" d="M186.867,252.237c0,0-2.539,5.23-1.492,5.978c1.044,0.746,7.321,2.689,8.219,4.034
						C193.594,262.249,192.845,256.421,186.867,252.237z"/>
					<path fill="#CF957A" d="M154.498,259.992c0,0,6.096-4.048,6.42-5.212c0.322-1.164-0.635-5.794-0.635-5.794
						S156.485,255.49,154.498,259.992z"/>
					<path fill="#CF957A" d="M174.763,207.254c0,0,4.185,15.543,3.887,17.037c-0.301,1.495-1.793,16.738-1.793,16.738
						s5.379-16.14,5.677-17.933c0.3-1.793-4.781-17.634-4.781-17.634L174.763,207.254z"/>
					<path fill="#CF957A" d="M162.883,217.267l-1.346,15.692l3.139,11.881c0,0-7.174-12.106-6.726-13.002
						C158.398,230.941,162.883,217.267,162.883,217.267z"/>
					<path fill="#CF957A" d="M203.158,270.021c0,0,11.956,16.737,11.656,21.222c-0.299,4.483-5.679,22.117-5.679,22.117
						s9.266-17.335,8.368-22.416C216.608,285.861,203.158,270.021,203.158,270.021z"/>
					<path fill="#CF957A" d="M146.069,280.781c0,0-6.875,16.736-6.275,20.922c0.598,4.184,7.173,18.829,7.173,18.829
						s-9.564-15.542-9.265-18.829C138,298.416,142.483,287.057,146.069,280.781z"/>
					<path fill="#CF957A" d="M232.598,333.385c0,0-25.105,61.87-25.554,63.215c-0.449,1.345,4.482-39.005,4.482-40.35
						s-8.519,18.381-11.209,21.072c-2.689,2.689-27.796,1.793-32.728-0.449c-5.886-2.676-11.656-14.795-11.656-14.795
						s11.656,47.971,10.76,46.627c-0.896-1.346-26.899-61.422-26.899-61.422l-7.623-6.725c0,0,22.417,13.898,36.315,14.347
						s26.451-0.448,33.177-4.035c6.725-3.587,14.347-10.312,17.485-11.656C222.286,337.868,232.598,333.385,232.598,333.385z"/>
					<path fill="#010101" d="M229.459,340.109"/>
					<g>
						<defs>
							<path id="SVGID_349_" d="M151.226,224.665c0,0-18.082,3.064-27.722-1.122c0,0,5.754-6.725,10.835-7.473
								c5.081-0.745,14.495,0.972,16.438,3.812C152.721,222.722,151.226,224.665,151.226,224.665z"/>
						</defs>
						<clipPath id="SVGID_26_">
							<use xlink:href="#SVGID_349_"  overflow="visible"/>
						</clipPath>
						<circle clip-path="url(#SVGID_26_)" fill="#010101" cx="137.776" cy="218.536" r="6.5"/>
					</g>
					<g>
						<defs>
							<path id="SVGID_351_" d="M193.146,220.031c0,0,20.25,1.421,29.29-5.155c0,0-10.162-8.219-18.232-5.753
								S191.8,216.52,193.146,220.031z"/>
						</defs>
						<clipPath id="SVGID_28_">
							<use xlink:href="#SVGID_351_"  overflow="visible"/>
						</clipPath>
						<circle clip-path="url(#SVGID_28_)" fill="#010101" cx="206.521" cy="212.26" r="6.501"/>
					</g>
					<path fill="#CF957A" d="M272.836,235.312c0,0,7.509-18.718,12.44-15.69c0,0,1.795,3.138-1.12,21.294
						c0,0-1.904-10.311-5.268-12.44C278.889,228.475,275.525,230.493,272.836,235.312z"/>
					<path fill="#CF957A" d="M270.818,242.598"/>
					<path fill="#CF957A" d="M270.258,242.934c0.337-0.113,4.073-1.755,6.128-0.71c2.055,1.047,6.649,5.306,6.314,7.996
						c-0.338,2.689-8.295,15.803-13.228,15.691c0,0-0.783-1.569-0.223-2.69s3.697-4.482,4.034-6.5
						c0.337-2.019-0.561-8.071-1.345-9.416C271.154,245.96,270.258,242.934,270.258,242.934z"/>
					<path fill="#CF957A" d="M262.86,275.326c0,0,7.734,2.915,9.64-2.466c0,0-1.682,0.897-4.147,0
						C265.886,271.963,262.076,272.524,262.86,275.326z"/>
					<path fill="#CF957A" d="M94.812,254.104c0,0,0.896-5.529,1.569-5.604c0,0,3.511,3.661,4.108,4.633
						c0,0-4.333-10.238-7.472-12.106C93.018,241.028,91.747,240.543,94.812,254.104z"/>
					<path fill="#CF957A" d="M96.305,270.469c0,0-0.148-10.761,4.633-10.162c0,0,2.541-0.075,2.241,7.099
						c0,0,1.346,4.334,2.467,5.604c1.12,1.27,2.236,2.932,2.467,3.735C108.56,278.314,102.73,281.379,96.305,270.469z"/>
					<path fill="#CF957A" d="M245.301,327.706l6.575,58.882c0,0,1.794-13.151,1.794-18.532c0-5.379-0.299-48.42-0.299-48.42
						L245.301,327.706z"/>
					<polyline fill="#CF957A" points="129.93,339.661 128.137,404.819 133.816,384.495 136.804,342.053 129.93,339.661 					"/>
					<path fill="#CF957A" d="M124.325,376.425c0.673,0,5.604-1.569,5.604-1.569s-1.793,21.071-1.569,22.192
						c0.226,1.121,0,5.828,0,5.828S123.205,379.115,124.325,376.425"/>
					<path fill="#CF957A" d="M126.643,228.027c0,0,16.737,0.448,21.071-0.598l-1.344,1.943l4.332-1.195c0,0-6.574,8.966-20.772,8.22
						c0,0,9.415-1.047,14.198-4.783c0,0-7.175,2.092-9.565,1.346C132.171,232.211,126.643,228.027,126.643,228.027z"/>
					<path fill="#010101" d="M105.72,218.612c0,0-4.482,34.522,0.896,45.729c5.38,11.208,6.726,29.141,8.071,38.108
						c1.344,8.967,1.344,29.141,13.001,35.866c11.656,6.725,26.451,15.692,33.177,17.934c6.725,2.242,26.899,5.828,39.004-0.896
						c12.105-6.726,34.971-21.072,43.041-24.658c8.068-3.587,14.795-10.312,15.243-22.417s1.569-34.521,2.913-43.488
						c0,0-4.706,14.123-6.053,42.591c0,0-1.568,13.675-13.449,19.279c0,0-26.676,14.795-42.143,24.658
						c0,0-13.898,8.518-39.454-0.448c0,0-26.899-13.45-30.038-14.795c-3.138-1.346-10.76-8.967-12.104-29.142
						c0,0-1.345-24.211-3.587-31.832c0,0,5.38,4.035,7.621,8.069c0,0-5.379-8.965-9.863-13.897
						C107.514,264.342,103.927,245.064,105.72,218.612z"/>
					<path fill="#010101" d="M156.157,270.73c0,0,5.492-3.25,6.726-2.915c1.232,0.336,2.998,2.869,3.475,3.026
						C166.693,270.955,160.528,274.765,156.157,270.73z"/>
					<path fill="#010101" d="M177.08,268.863c0,0,2.391-3.512,5.753-2.952s7.285,2.801,7.285,2.801s-6.275,2.467-9.19,1.233
						C178.014,268.712,177.08,268.863,177.08,268.863z"/>
					<path fill="#010101" d="M159.072,264.79c0,0,5.828,4.147,6.948,6.613c1.122,2.465,4.11,2.129,6.017,2.017l0.148-1.494
						c0,0-3.811,0.822-5.156-1.196C165.685,268.712,164.563,266.695,159.072,264.79z"/>
					<path fill="#010101" d="M182.049,264.79c0,0-5.829,4.147-6.95,6.613c-1.12,2.465-4.222,2.092-6.126,1.98l-0.263-1.457
						c0,0,4.035,0.822,5.38-1.196C175.436,268.712,176.556,266.695,182.049,264.79z"/>
					<path fill="#010101" d="M156.082,255.674c0,0-5.529,10.461-5.081,12.255c0.449,1.793,3.587,6.725,5.829,8.069
						c0,0-7.626-4.085-7.473-8.069C149.507,264.042,156.082,255.674,156.082,255.674z"/>
					<path fill="#010101" d="M191.65,250.743c0,0,4.633,12.254,4.185,14.047c-0.448,1.793-2.992,6.277-5.233,7.621
						c0,0,7.625-4.085,7.473-8.069C197.926,260.456,191.65,250.743,191.65,250.743z"/>
					<path fill="#010101" d="M154.588,299.462c0,0-2.541,0.598-4.483-0.897s-2.988-3.587-2.54-4.482c0,0-4.035,5.827-2.241,9.563
						c0,0,0.447,1.271,3.736-0.598c1.742-0.99,2.241-1.271,5.154-0.373c-0.598-1.494-0.074-2.167-0.074-2.167
						s24.061-7.473,41.546-4.185c0,0,3.289,2.241,4.483,2.54c1.195,0.299,3.973-1.473,4.483-1.644
						c0.448-0.15,1.14,1.485,1.644,2.242c0.299,0.447,0.897-3.588-3.885-7.323c0,0,1.344,2.093,1.046,3.735
						c0,0-2.69,1.346-3.438,1.047c-0.747-0.3-11.507-4.334-17.334-3.438c-5.829,0.897-9.566,1.197-14.348,1.346
						C168.338,294.828,159.968,296.473,154.588,299.462z"/>
					<path fill="#010101" d="M149.992,300.32c0,0,14.034-11.34,16.701-10.983c3.362,0.448,8.182,1.12,13.562-1.346
						c3.015-1.382,19.166,6.091,22.303,8.481l0.898-0.599c0,0-10.312-7.473-23.313-9.116c0,0-6.726,2.99-13.45,1.196
						c0,0-9.564,3.998-17.934,11.918L149.992,300.32z"/>
					<path fill="#010101" d="M159.52,303.122c0,0,18.829,4.484,32.505-2.018C192.024,301.104,178.947,311.268,159.52,303.122z"/>
					<path fill="#010101" d="M129.706,203.145c0,0-3.362,0.672-4.483,1.346c0,0,4.02-5.875,14.347-2.243
						c12.104,4.259,15.691,6.725,19.503,1.345c0,0-2.915,2.241-5.381,2.241c0,0,6.053-1.568,4.932-4.931
						c0,0-0.148,1.868-1.494,2.465c0,0,2.539-4.184-0.599-5.678c-3.138-1.495-16.76-5.258-26.004-2.69
						c-5.38,1.495-8.517,5.678-8.517,5.678s1.345-1.494,4.185-2.54c0,0-4.185,3.287-6.576,5.828c0,0,3.139-1.344,5.68-2.242
						c0,0-4.634,2.54-6.576,4.035c0,0,3.288-0.896,4.483-1.345c0,0-5.081,3.139-5.828,3.886c0,0,3.438-1.644,4.034-1.794
						c0,0-4.633,2.99-4.783,3.586C116.628,210.093,124.55,204.938,129.706,203.145z"/>
					<path fill="#010101" d="M177.9,196.196c0.27,0.965,0.897,6.949,10.312,2.465c9.415-4.483,20.848-7.173,27.797-4.932
						c0,0-2.466-1.681-8.07-2.018c0,0,2.915-0.897,10.76,2.69c0,0-2.803-2.13-4.035-2.354c0,0,6.053,1.009,9.079,3.25
						c0,0-3.475-2.689-5.268-3.361c0,0,8.069,2.689,12.105,8.517c0,0-6.501-10.983-18.606-12.777c0,0,2.689,1.793,3.362,2.241
						c0,0-7.845-4.707-17.261-2.689C181.966,190.681,176.779,192.161,177.9,196.196z"/>
					<path fill="#010101" d="M204.417,220c0,0-6.938,0.405-9.777-0.491c0,0-1.046-2.392-0.598-3.587c0,0,7.771-6.576,14.646-6.277
						s13.15,5.231,13.15,5.231s-2.549,2.494-7.63,3.541c0,0,6.834-0.792,9.274-2.943c0,0,2.24,0.299,3.287,0.896
						c1.047,0.599,1.047,0.599,1.047,0.599s-7.771-6.277-14.795-7.921c0,0,7.291,0.202,15.99,5.679c0,0-8.519-6.726-17.037-7.323
						c-9.559-0.671-17.335,4.484-23.163,10.91c0,0-0.151,1.794,0.746,3.288c0,0-0.897-2.241,0.599-3.138l0.299,2.093
						C190.455,220.556,195.749,221.045,204.417,220z"/>
					<path fill="#010101" d="M142.875,225.5c0,0,6.185-0.014,7.678-1.358c0,0,0.448-1.943-1.195-4.035c0,0-5.077-3.189-9.563-3.438
						c-5.382-0.299-9.864,0.896-15.693,6.725c0,0,1.191,1.105,4.566,1.647c0,0-4.25-0.125-5.762-0.899c0,0-1.942,1.644-3.287,2.988
						c0,0,3.437-5.978,5.528-7.173c0,0-4.931,2.243-7.471,5.23c0,0,7.322-10.46,19.727-10.46c12.403,0,15.691,4.782,16.289,9.714
						c0,0-0.447-1.345-1.494-2.093c0,0,0.598,2.69,0,2.99C151.6,225.636,146.5,226,142.875,225.5z"/>
					<path fill="#010101" d="M273.994,226.682c0,0,2.54-8.219,9.115-10.162c3.355-0.991,6.278,2.391,5.082,10.61
						c-1.044,7.174-2.618,22.197-2.618,22.197l-1.046-2.839c0,0,2.318-16.368,2.318-19.207c0-2.84,1.645-10.013-3.885-9.416
						C282.961,217.865,277.283,220.106,273.994,226.682z"/>
					<path fill="#010101" d="M278.775,236.657c0,0,8.744,11.77,7.473,16.626c-1.198,4.587-10.609,16.589-10.609,16.589
						s7.243-13.848,8.294-17.746C284.979,248.239,278.775,236.657,278.775,236.657z"/>
					<path fill="#010101" d="M257.705,283.471c0,0,7.321,4.632,12.852,0.149c5.529-4.483,14.944-15.095,14.795-28.544l-1.195,1.943
						c0,0-3.885,18.531-14.646,25.107c0,0-6.277,2.689-10.909-0.896L257.705,283.471z"/>
					<path fill="#010101" d="M276.834,227.877c0,0,5.379-8.668,7.172-7.92c1.794,0.748,0.3,15.841,0,17.187
						c0,0-1.792-7.771-4.184-10.461C279.822,226.682,277.431,227.28,276.834,227.877z"/>
					<path fill="#010101" d="M276.386,242.224c0,0-6.876-1.943-6.575,0.598c0.298,2.541,4.932,8.07,1.644,13.45
						c-3.287,5.38-2.84,9.864-2.84,9.864s4.036,2.541,8.221-6.127c0,0-3.888,6.127-7.024,5.082c0,0,0.597-3.737,1.793-4.334
						c1.195-0.599,7.473-5.829,1.645-13.75c0,0-2.99-3.287-2.094-3.735C272.052,242.821,272.35,241.925,276.386,242.224z"/>
					<path fill="#010101" d="M95.184,262.325c0,0-7.396-21.969-4.707-24.658c2.69-2.69,5.38-0.673,7.621,1.344
						c0,0-3.811-2.018-6.052-0.672c0,0,1.569,14.57,3.138,19.278V262.325z"/>
					<path fill="#010101" d="M96.305,249.771c0,0-2.914,19.728-0.896,23.986c2.018,4.258,7.846,9.64,7.846,9.64
						s-6.949-7.847-6.726-11.433C96.753,268.377,96.305,249.771,96.305,249.771z"/>
					<path fill="#010101" d="M113.641,291.989c0,0.672-3.438,3.062-5.23,2.167c-1.794-0.896-7.846-7.621-10.312-16.812l-2.018-2.69
						c0,0,4.034,16.471,11.732,21.371c4.932,3.138,7.173-2.69,7.173-2.69L113.641,291.989z"/>
					<path fill="#010101" d="M119.17,149.271c0,0,26.601,32.877,51.706,38.257c0,0-14.644-6.874-25.702-16.737
						c0,0,15.543,12.255,32.279,14.646c0,0-9.564-5.978-13.45-8.967c0,0,17.336,7.473,22.118,8.668c0,0-10.76-7.472-12.852-10.462
						c0,0,8.069,3.886,19.427,4.185c11.358,0.299,21.52,4.783,23.313,5.979c0,0-8.668-6.576-14.646-8.668
						c0,0,26.602,5.978,34.97,14.645c0,0-5.38-10.161-12.554-13.449c0,0,19.728,11.059,25.107,23.911
						c5.381,12.853,11.656,20.025,11.656,20.025s2.99,31.382-2.689,40.05c0,0,8.069-11.059,9.563-17.037
						c1.494-5.977,4.783-25.703,15.543-26.451c0,0-1.047-23.462,1.195-38.108c2.286-14.939-24.21-92.356-90.863-91.459
						c0,0-50.472-1.219-71.434,21.52c-17.634,19.128-26.6,21.52-31.383,30.486c-6.503,12.192-16.438,17.037,0,97.364
						c0,0,8.668,8.144,11.656,17.41c2.99,9.266,6.277,11.357,6.277,11.357l-2.988-13.151c0,0-0.598-42.442,7.771-50.213
						c8.37-7.771,14.944-25.404,5.978-42.741c0,0,5.38,5.978,6.875,14.944C126.045,175.273,124.251,158.236,119.17,149.271z"/>
					<path fill="#010101" d="M97.873,262.1c0,0,1.941-2.982,3.812-1.943c1.345,0.749,1.568,2.84,1.793,6.203
						c0.224,3.362,4.932,8.742,4.932,10.76s-2.914,2.465-6.725-0.224c0,0,6.947,3.512,6.052-0.298
						c-0.441-1.877-7.061-3.477-4.783-10.312C103.179,265.612,102.881,257.095,97.873,262.1z"/>
					<path fill="#010101" d="M94.623,251.9c0,0-2.258-9.751-0.784-9.751c0.076,0,0.486,0.224,0.486,0.224s4.108,5.828,5.566,9.303
						c0,0-3.587-4.708-4.483-5.156C95.408,246.521,94.96,250.331,94.623,251.9z"/>
					<path fill="#010101" d="M128.137,336.524v68.893c0,0,8.069-63.962,5.828-65.308
						C131.723,338.766,128.137,336.524,128.137,336.524z"/>
					<path fill="#010101" d="M-48.206,486.38c0,0,18.639-46.003,32.917-59.092c14.276-13.087,123.734-49.178,128.096-50.763
						c4.363-1.586,16.26-9.121,16.26-9.121l0.793,9.518c0,0-12.69,4.759-15.465,5.156c-2.777,0.396-115.407,40.056-126.512,48.779
						C-23.221,439.583-38.688,465.361-48.206,486.38z"/>
					<path fill="#010101" d="M429.092,493.035c0,2.509-12.292-49.573-34.105-64.643c-21.812-15.071-76.938-49.971-84.869-52.35
						c-7.932-2.38-24.191-11.104-30.538-12.69c-6.345-1.588-15.069-11.104-19.036-11.898c-3.964-0.793-3.286-2.826-3.286-2.826
						L256.36,315.9l-6.277,7.621l2.926,64.815l2.903-31.639c0,0,11.77,5.066,17.322,9.43s27.364,12.294,30.141,13.088
						s13.066,7.176,14.257,7.969c1.189,0.794,59.509,27.327,76.562,45.174C411.246,450.204,429.092,485.502,429.092,493.035z"/>
					<path fill="#010101" d="M148.311,348.18c-1.143-1.145,15.692,19.727,20.625,21.072c4.931,1.345,25.554-0.448,27.797-1.346
						c2.24-0.896,17.932-23.312,17.932-23.312s-15.691,11.207-26.451,11.656C177.453,356.698,149.208,349.076,148.311,348.18z"/>
					<path fill="#010101" d="M203.457,440.087c0,0,48.121-31.083,50.213-72.031l1.196-16.737l6.574,3.587
						c0,0-4.782,23.313-5.978,28.692c0,0-19.129,44.535-54.099,60.975c0,0-21.36,1.19-25.405-0.3
						c-5.68-2.092-36.165-21.52-48.42-37.66c0,0-7.473-19.428-6.276-28.692l9.157-2.847c0,0-4.676,22.273-0.49,29.446
						c0,0,31.384,30.488,45.432,35.868C181.806,442.855,203.457,440.087,203.457,440.087z"/>
					<path fill="#352B2A" d="M151.301,110.115c0,0,12.553,18.382,31.385,21.521c0,0-11.657-4.035-16.59-11.209
						c0,0,10.761,4.932,26.003,8.967c15.243,4.036,33.626,13.002,36.764,16.141c0,0-14.346-10.76-17.933-12.553
						c0,0,26.451,8.518,31.831,13.898c0,0-15.691-10.313-24.21-14.795c0,0,26.451,8.966,29.589,11.657c0,0-13-10.312-14.794-11.208
						c0,0,20.344,7.936,23.313,10.312c2.241,1.793-18.382-15.691-36.315-20.624c0,0,28.245,10.312,30.487,11.657
						c0,0-8.967-7.621-10.312-8.518l13.899,7.622c0,0-11.657-23.762-41.695-32.28c0,0,18.829,8.519,24.658,17.037
						c0,0-16.14-14.795-47.523-17.934c0,0,14.346,2.242,19.727,8.519c0,0-21.071-9.415-37.211-2.242c0,0,13.002,5.38,15.243,7.623
						c0,0-12.554-4.932-24.21-4.932c0,0,8.518,1.792,10.312,3.585l-14.347-1.793l5.828,3.587
						C165.199,114.151,156.681,114.599,151.301,110.115z"/>
					<path fill="#352B2A" d="M265.774,226.682c0,0-2.466-14.57-4.482-17.261c0,0,5.154,3.587,7.845,4.708c0,0-3.586-3.138-5.38-5.38
						c0,0,6.054,3.138,7.847,2.913c1.793-0.223,8.069-6.276,8.069-6.276l1.12,8.966c0,0-6.276,3.812-7.396,5.829l2.018-4.708
						C275.414,215.474,268.464,220.182,265.774,226.682z"/>
					<path fill="#FFFFFF" d="M209.191,212.552c-0.145-0.683-0.678-1.276-1.48-1.22c-0.035,0.002-0.071,0.006-0.107,0.008
						c-0.828,0.058-1.386,0.615-1.443,1.442l-0.009,0.107c-0.097,1.395,1.75,2.015,2.663,1.103c0.08-0.081,0.134-0.175,0.19-0.27
						C209.648,213.667,209.714,212.77,209.191,212.552z"/>
					<path fill="#FFFFFF" d="M140.576,217.716c-0.257-0.257-0.588-0.399-0.93-0.439c-0.146-0.058-0.297-0.098-0.463-0.154
						c-0.921-0.312-1.592,0.775-1.277,1.508c-0.086,0.62,0.151,1.285,0.752,1.571c0.57,0.274,1.027,0.274,1.598,0
						C141.189,219.756,141.253,218.394,140.576,217.716z"/>
				</g>
			</g>
			<g>
				<path fill="#FFFFFF" d="M200.305,524.574c-15.604,0-28.316-12.694-28.336-28.298c-0.01-7.568,2.928-14.687,8.272-20.045
					s12.456-8.314,20.025-8.323c15.639,0,28.348,12.692,28.368,28.294c0.02,15.624-12.673,28.352-28.295,28.372H200.305z"/>
				<path fill="#D3B76E" d="M200.305,469.908c14.527-0.001,26.311,11.766,26.33,26.297c0.019,14.545-11.755,26.35-26.298,26.369
					c-0.011,0-0.021,0-0.032,0c-14.53,0-26.317-11.767-26.336-26.301c-0.02-14.543,11.755-26.348,26.3-26.365
					C200.28,469.908,200.293,469.908,200.305,469.908 M200.307,465.908h-0.002h-0.003h-0.039c-8.102,0.01-15.716,3.174-21.438,8.911
					c-5.722,5.735-8.867,13.357-8.856,21.46c0.021,16.704,13.63,30.295,30.336,30.295c16.762-0.022,30.352-13.648,30.33-30.374
					C230.612,479.497,217.007,465.908,200.307,465.908L200.307,465.908z"/>
			</g>
			<g>
				<g>
					<g>
						<path fill="#F2F2F2" d="M177.652,490.666c3.078-12.512,15.717-20.154,28.225-17.076c12.512,3.078,20.153,15.715,17.075,28.225
							c-3.079,12.51-15.714,20.154-28.226,17.074C182.219,515.812,174.571,503.176,177.652,490.666"/>
						<path fill="#E02B3A" d="M209.639,494.906c0.447,4.873-3.137,9.188-8.007,9.637c-4.871,0.451-9.186-3.131-9.634-8.004
							c-0.451-4.871,3.133-9.186,8.003-9.635C204.872,486.453,209.186,490.035,209.639,494.906"/>
						<path fill="#223F72" d="M193.235,491.156c-1.263,2.096-0.598,4.814,1.496,6.076c2.092,1.266,4.812,0.594,6.076-1.5
							c1.261-2.092,3.979-2.758,6.074-1.496c2.09,1.262,2.761,3.982,1.496,6.072c-2.527,4.186-7.962,5.523-12.148,2.998
							C192.049,500.779,190.708,495.342,193.235,491.156"/>
					</g>
					<path fill="#404041" d="M186.441,505.637l2.306,3.408l1.151-0.773l-2.31-3.41L186.441,505.637z M186.076,505.098l1.148-0.777
						l-2.307-3.412l-1.151,0.775L186.076,505.098z M182,502.883l4.98,7.361l1.146-0.775l-4.979-7.359L182,502.883z M185.538,500.49
						l4.98,7.361l1.146-0.777l-4.979-7.363L185.538,500.49z M216.095,490.961l-2.304-3.414l-1.149,0.777l2.306,3.412
						L216.095,490.961z M213.422,487.008l-2.304-3.412l-1.147,0.775l2.306,3.412L213.422,487.008z M218.491,489.342l1.146-0.777
						l-2.31-3.41l-1.147,0.777L218.491,489.342z M216.963,484.613l-2.307-3.412l-1.149,0.777l2.31,3.412L216.963,484.613z
						 M217.864,489.766l-4.974-7.365l-1.152,0.775l4.98,7.361L217.864,489.766z M213.542,509.436l1.151,0.773l2.299-3.418
						l-1.151-0.773L213.542,509.436z M216.205,505.477l1.149,0.771l2.3-3.414l-1.152-0.771L216.205,505.477z M214.067,504.828
						l-2.296,3.414l1.147,0.777l2.3-3.418L214.067,504.828z M217.88,501.643l-1.147-0.775l-2.301,3.418l1.15,0.775L217.88,501.643z
						 M212.297,503.633l-2.301,3.418l1.153,0.773l2.295-3.416L212.297,503.633z M213.812,503.867l2.294-3.416l-1.149-0.777
						l-2.298,3.418L213.812,503.867z M185.526,491l1.149,0.771l4.959-7.377l-1.147-0.771L185.526,491z M184.9,490.58l4.965-7.377
						l-1.152-0.771l-4.962,7.377L184.9,490.58z M188.091,482.012l-1.147-0.773l-4.965,7.375l1.151,0.775L188.091,482.012z"/>
				</g>
			</g>
		</g>
		<g>
			
				<rect x="55.114" y="31.166" transform="matrix(1 -0.0013 0.0013 1 -0.0715 0.2583)" fill="#D3B76E" width="289.192" height="48.5"/>
			<polygon fill="#D3B76E" points="68.131,73.023 29.477,73.073 37.821,55.625 29.432,38.198 80.752,38.133 80.768,50.164 
				55.107,50.197 			"/>
			<polygon fill="#D3B76E" points="331.334,72.684 369.988,72.634 361.599,55.207 369.943,37.759 318.623,37.825 318.639,49.856 
				344.299,49.823 			"/>
			<g>
				<g>
					<path fill="#9B8D51" d="M86.236,62.065l0.006,3.525l-13.15,0.017l-0.023-18.98l3.768-0.005l0.02,15.455L86.236,62.065z"/>
					<path fill="#9B8D51" d="M102.617,62.044l0.004,3.525l-13.584,0.018l-0.023-18.98l13.422-0.018l0.004,3.525l-9.654,0.012
						l0.006,4.04l7.619-0.01l0.004,3.309l-7.619,0.01l0.006,4.582L102.617,62.044z"/>
					<path fill="#9B8D51" d="M120.297,62.021l0.006,3.525l-13.584,0.017l-0.025-18.98l13.422-0.017l0.004,3.524l-9.652,0.013
						l0.006,4.04l7.619-0.01l0.004,3.308l-7.619,0.011l0.006,4.582L120.297,62.021z"/>
					<path fill="#9B8D51" d="M144.557,52.175c-1.006-1.409-2.904-2.302-4.775-2.299c-3.551,0.004-5.906,2.557-5.902,6.163
						c0.004,3.715,2.529,6.098,5.918,6.093c2.17-0.003,4.176-1.145,5.123-2.799l3.797,0.998c-1.57,3.364-4.928,5.564-8.914,5.569
						c-5.451,0.007-9.848-4.136-9.855-9.856c-0.008-5.722,4.379-9.876,9.83-9.883c3.742-0.005,6.943,1.971,8.629,5.005
						L144.557,52.175z"/>
					<path fill="#9B8D51" d="M167.139,46.506l0.025,18.98l-3.77,0.005l-0.01-7.837l-8.217,0.011l0.012,7.836l-3.77,0.005
						l-0.023-18.98l3.768-0.005l0.01,7.593l8.217-0.011l-0.01-7.592L167.139,46.506z"/>
					<path fill="#9B8D51" d="M187.234,46.479l0.014,10.737c0.006,5.586-3.189,8.627-8.178,8.633
						c-5.016,0.007-8.191-3.025-8.199-8.611l-0.014-10.737l3.77-0.005l0.014,10.683c0.004,3.525,1.525,5.15,4.426,5.146
						c2.873-0.004,4.391-1.633,4.385-5.157l-0.014-10.684L187.234,46.479z"/>
					<path fill="#9B8D51" d="M207.492,46.453l0.025,18.98l-3.553,0.005l-5.406-7.313c-1.711-2.33-3.803-5.311-3.83-5.311h-0.027
						c-0.027,0,0.031,2.739,0.037,6.508l0.008,6.128l-3.77,0.005l-0.023-18.98l3.551-0.005l5.514,7.396
						c1.305,1.707,3.693,5.093,3.721,5.093h0.027c0.027,0-0.031-3.091-0.035-6.29l-0.008-6.21L207.492,46.453z"/>
					<path fill="#9B8D51" d="M226.199,63.431c-1.029,1.167-3.277,2.362-5.746,2.366c-5.449,0.007-9.848-4.136-9.855-9.857
						c-0.006-5.721,4.381-9.875,9.83-9.882c3.77,0.021,6.918,1.97,8.629,5.005l-3.848,1.008c-1.033-1.408-2.904-2.301-4.775-2.299
						c-3.553,0.005-5.908,2.557-5.904,6.163c0.006,3.77,2.611,6.179,6.137,6.174c3.254-0.004,4.959-1.796,5.555-3.261l-0.002-0.812
						l-5.26,0.007l-0.004-3.064l8.486-0.012l0.014,10.439l-3.254,0.005c-0.002-1.573,0.025-1.952,0.025-1.979H226.199z"/>
					<path fill="#9B8D51" d="M245.686,54.213l0.004,3.092l-12.363,0.016l-0.004-3.091L245.686,54.213z"/>
					<path fill="#9B8D51" d="M266.611,46.377l-7.309,10.286l0.012,8.704l-3.742,0.005l-0.012-8.704L248.254,46.4l4.23-0.005
						l3.912,5.445c0.516,0.759,1.004,1.408,1.031,1.408h0.027c0.027,0,0.514-0.651,1.029-1.411l3.869-5.455L266.611,46.377z"/>
					<path fill="#9B8D51" d="M275.914,45.985c5.449-0.007,9.875,4.136,9.881,9.857c0.008,5.721-4.406,9.875-9.855,9.882
						c-5.451,0.008-9.848-4.136-9.855-9.856C266.076,50.146,270.463,45.993,275.914,45.985z M275.934,62.011
						c3.498-0.005,5.936-2.529,5.93-6.163c-0.004-3.66-2.447-6.152-5.945-6.147c-3.471,0.005-5.908,2.502-5.902,6.163
						C270.02,59.496,272.463,62.016,275.934,62.011z"/>
					<path fill="#9B8D51" d="M305.391,46.327l0.025,18.98l-3.553,0.005l-5.406-7.314c-1.711-2.329-3.803-5.31-3.83-5.31H292.6
						c-0.027,0,0.031,2.738,0.037,6.508l0.008,6.128l-3.77,0.005l-0.023-18.98l3.551-0.005l5.514,7.396
						c1.305,1.707,3.693,5.093,3.721,5.093h0.027c0.027,0-0.031-3.092-0.035-6.291l-0.008-6.209L305.391,46.327z"/>
					<path fill="#9B8D51" d="M324.098,63.304c-1.029,1.168-3.277,2.363-5.746,2.366c-5.449,0.008-9.848-4.136-9.855-9.856
						c-0.006-5.722,4.381-9.875,9.83-9.883c3.77,0.022,6.918,1.971,8.629,5.006l-3.848,1.008c-1.033-1.409-2.904-2.302-4.775-2.299
						c-3.553,0.005-5.908,2.557-5.904,6.163c0.006,3.769,2.611,6.179,6.137,6.174c3.254-0.004,4.959-1.796,5.555-3.261l-0.002-0.813
						l-5.26,0.007l-0.004-3.064l8.486-0.011l0.014,10.439l-3.254,0.004c-0.002-1.572,0.025-1.952,0.025-1.979H324.098z"/>
				</g>
				<g>
					<g>
						<path fill="#FFFFFF" d="M85.234,61.067l0.006,3.524l-13.15,0.017l-0.023-18.98l3.768-0.005l0.02,15.456L85.234,61.067z"/>
						<path fill="#FFFFFF" d="M101.615,61.046l0.004,3.524l-13.584,0.018l-0.023-18.98l13.422-0.017l0.004,3.524l-9.654,0.013
							l0.006,4.04l7.619-0.01l0.004,3.308l-7.619,0.01l0.006,4.583L101.615,61.046z"/>
						<path fill="#FFFFFF" d="M119.295,61.023l0.006,3.524l-13.584,0.018l-0.025-18.98l13.422-0.018l0.004,3.525l-9.652,0.013
							l0.006,4.04l7.619-0.011l0.004,3.309l-7.619,0.01l0.006,4.583L119.295,61.023z"/>
						<path fill="#FFFFFF" d="M143.555,51.176c-1.006-1.408-2.904-2.301-4.775-2.299c-3.551,0.005-5.906,2.557-5.902,6.163
							c0.004,3.715,2.529,6.098,5.918,6.094c2.17-0.003,4.176-1.145,5.123-2.8l3.797,0.999c-1.57,3.363-4.928,5.564-8.914,5.569
							c-5.451,0.007-9.848-4.136-9.855-9.857c-0.008-5.721,4.379-9.875,9.83-9.882c3.742-0.005,6.943,1.97,8.629,5.005
							L143.555,51.176z"/>
						<path fill="#FFFFFF" d="M166.137,45.507l0.025,18.98l-3.77,0.005l-0.01-7.836l-8.217,0.01l0.012,7.837l-3.77,0.005
							l-0.023-18.98l3.768-0.005l0.01,7.592l8.217-0.01l-0.01-7.593L166.137,45.507z"/>
						<path fill="#FFFFFF" d="M186.232,45.481l0.014,10.737c0.006,5.586-3.189,8.626-8.178,8.633
							c-5.016,0.007-8.191-3.026-8.199-8.612l-0.014-10.737l3.77-0.005l0.014,10.684c0.004,3.524,1.525,5.149,4.426,5.146
							c2.873-0.003,4.391-1.632,4.385-5.157l-0.014-10.683L186.232,45.481z"/>
						<path fill="#FFFFFF" d="M206.49,45.455l0.025,18.98l-3.553,0.005l-5.406-7.314c-1.711-2.33-3.803-5.31-3.83-5.31h-0.027
							c-0.027,0,0.031,2.738,0.037,6.508l0.008,6.128l-3.77,0.005l-0.023-18.98l3.551-0.005l5.514,7.396
							c1.305,1.707,3.693,5.093,3.721,5.093h0.027c0.027,0-0.031-3.092-0.035-6.291l-0.008-6.209L206.49,45.455z"/>
						<path fill="#FFFFFF" d="M225.197,62.432c-1.029,1.168-3.277,2.363-5.746,2.366c-5.449,0.007-9.848-4.136-9.855-9.856
							c-0.006-5.722,4.381-9.876,9.83-9.883c3.77,0.022,6.918,1.971,8.629,5.005l-3.848,1.009c-1.033-1.409-2.904-2.302-4.775-2.299
							c-3.553,0.004-5.908,2.557-5.904,6.163c0.006,3.769,2.611,6.179,6.137,6.174c3.254-0.004,4.959-1.796,5.555-3.261
							l-0.002-0.813l-5.26,0.007l-0.004-3.064l8.486-0.011l0.014,10.439l-3.254,0.004c-0.002-1.572,0.025-1.952,0.025-1.979H225.197
							z"/>
						<path fill="#FFFFFF" d="M244.684,53.215l0.004,3.091l-12.363,0.017l-0.004-3.092L244.684,53.215z"/>
						<path fill="#FFFFFF" d="M265.609,45.379l-7.309,10.285l0.012,8.704l-3.742,0.005l-0.012-8.704l-7.307-10.267l4.23-0.006
							l3.912,5.445c0.516,0.759,1.004,1.409,1.031,1.409h0.027c0.027,0,0.514-0.651,1.029-1.412l3.869-5.455L265.609,45.379z"/>
						<path fill="#FFFFFF" d="M274.912,44.987c5.449-0.007,9.875,4.136,9.881,9.856c0.008,5.722-4.406,9.876-9.855,9.883
							c-5.451,0.007-9.848-4.136-9.855-9.857C265.074,49.148,269.461,44.994,274.912,44.987z M274.932,61.012
							c3.498-0.004,5.936-2.529,5.93-6.162c-0.004-3.661-2.447-6.152-5.945-6.148c-3.471,0.005-5.908,2.503-5.902,6.163
							C269.018,58.498,271.461,61.017,274.932,61.012z"/>
						<path fill="#FFFFFF" d="M304.389,45.329l0.025,18.98l-3.553,0.004L295.455,57c-1.711-2.33-3.803-5.311-3.83-5.311h-0.027
							c-0.027,0,0.031,2.739,0.037,6.508l0.008,6.128l-3.77,0.005l-0.023-18.98l3.551-0.004l5.514,7.395
							c1.305,1.707,3.693,5.094,3.721,5.093h0.027c0.027,0-0.031-3.091-0.035-6.29l-0.008-6.21L304.389,45.329z"/>
						<path fill="#FFFFFF" d="M323.096,62.306c-1.029,1.167-3.277,2.363-5.746,2.366c-5.449,0.007-9.848-4.136-9.855-9.857
							c-0.006-5.721,4.381-9.875,9.83-9.882c3.77,0.021,6.918,1.97,8.629,5.005l-3.848,1.009c-1.033-1.409-2.904-2.302-4.775-2.3
							c-3.553,0.005-5.908,2.557-5.904,6.163c0.006,3.77,2.611,6.179,6.137,6.175c3.254-0.005,4.959-1.796,5.555-3.262l-0.002-0.812
							l-5.26,0.007l-0.004-3.064l8.486-0.011l0.014,10.439l-3.254,0.004c-0.002-1.573,0.025-1.952,0.025-1.979H323.096z"/>
					</g>
				</g>
			</g>
			
				<rect x="34.578" y="52.509" transform="matrix(0.0013 1 -1 0.0013 107.556 3.5202)" fill="#9B8D51" width="34.875" height="6.197"/>
			
				<rect x="329.967" y="52.127" transform="matrix(0.0013 1 -1 0.0013 402.1823 -292.2496)" fill="#9B8D51" width="34.875" height="6.197"/>
		</g>
	</g>
	<g>
		<g>
			<defs>
				<polygon id="SVGID_431_" points="776,420.615 620,490.74 464,420.615 464,145.678 776,145.678 				"/>
			</defs>
			<clipPath id="SVGID_30_">
				<use xlink:href="#SVGID_431_"  overflow="visible"/>
			</clipPath>
			<path clip-path="url(#SVGID_30_)" fill="#27387B" d="M827.434,470.004c0,0-10.652-49.988-26.582-65.083
				c-0.311-0.39-0.621-0.77-0.931-1.134c-10.725-12.591-89.999-46.631-99.791-47.564c-8.067-0.769-26.562-4.064-32.837-5.204
				l0.165-6.653c5.474-3.783,10.382-10.71,12.387-23.115c0,0,2.798-22.85,4.197-25.881c1.399-3.03,3.963-11.425,1.632-23.082
				c0,0,0.932-23.549,3.264-29.844c2.333-6.295,1.865-17.487,0.467-24.248c-1.398-6.763-1.632-17.021,1.167-21.685
				c1.962-3.271,3.683-6.318,2.612-10.98c-0.014-0.218-0.03-0.442-0.049-0.677c-0.02-0.244-0.153-0.493-0.353-0.742
				c-0.539-1.639-1.392-3.462-2.679-5.554c0,0,0.955-24.561-20.595-46.832c-0.121-3.325-1.062-18.263-8.2-21.366
				c0,0-28.331-17.702-44.066-21.334c-27.279-6.295-39.87-4.546-39.87-4.546s-77.291,20.401-88.017,88.017
				c-10.725,67.615,26.113,97.926,32.177,102.589c0,0-4.664,1.864-11.659-5.13c0,0,2.332,8.86,13.524,12.125
				c0,0-6.996,0.932-8.395,0.466c0,0,6.062,6.062,12.124,7.927c0,0,3.265,4.663,6.062,10.726c0.488,1.058,1.005,2.158,1.525,3.255
				c0.551,5.418,1.139,11.189,1.729,16.94c-4.514,3.452-14.55,20.529-15.379,21.772c-0.933,1.398-23.781,10.727-27.979,12.591
				c-2.916,1.295-55.546,35.659-89.925,58.562c-5.42,3.483-10.392,6.787-14.584,9.771c-7.618,5.143-12.938,8.818-14.401,10.008
				c-3.834,3.114-7.541,9.675-10.243,15.319c-4.911,7.911-9.342,17.322-9.342,17.322s0.923-0.681,2.498-1.832
				c-0.348,1.206-0.569,2.298-0.632,3.231c-0.467,6.994,58.289,72.278,66.217,74.61c7.927,2.331,373.051-15.389,380.512-19.118
				c6.797-3.397,18.428-51.289,20.446-59.794C825.767,467.336,827.434,470.004,827.434,470.004z"/>
		</g>
		<g>
			<defs>
				<polygon id="SVGID_433_" points="776,420.613 620,490.73 464,420.613 464,72.34 776,72.34 776,334.07 				"/>
			</defs>
			<clipPath id="SVGID_32_">
				<use xlink:href="#SVGID_433_"  overflow="visible"/>
			</clipPath>
			<g clip-path="url(#SVGID_32_)">
				<path fill="#8CB3D3" d="M852.937,464.543c0,0-7.695-46.165-33.575-62.253s-52.46-27.279-52.46-27.279
					s-20.052-12.591-36.372-14.922c-16.321-2.332-34.974-5.597-34.974-5.597s4.662,30.777-0.467,39.17
					c-5.129,8.395-8.859,33.575-41.968,47.564c0,0-40.146-14.256-79.273-62.951c-20.985-26.114-24.715-28.445-24.715-28.445
					s-29.336,9.364-50.828,24.715c-22.85,16.32-80.207,48.03-91.863,60.619c-11.659,12.591-20.519,27.979-20.984,34.975
					c-0.467,6.994,58.289,72.278,66.217,74.61c7.927,2.331,373.051-15.389,380.512-19.118S852.937,464.543,852.937,464.543z"/>
				<path fill="#7599B2" d="M383.591,468.739c0,0,11.191-23.78,17.721-27.512c6.528-3.731,81.604-55.492,84.402-55.957
					c2.798-0.468,40.569-30.778,45.698-30.778c5.13,0,20.051-6.062,20.051-6.062l8.395,16.322c0,0-11.657-0.468-15.389,2.798
					c0,0,9.327,13.989,13.989,18.652c0,0-16.786-16.786-22.383-20.518c-5.596-3.731-37.771,18.187-39.637,20.984
					c-1.864,2.797-12.124,21.915-20.518,24.247c0,0,9.794-7.926,11.658-14.455c0,0-17.72,5.596-20.983,10.259
					c-3.265,4.663-12.125,25.181-17.254,32.643c-5.129,7.461-13.523,16.787-13.523,16.787s-2.797-17.255-7.927-16.787
					C422.762,439.829,383.591,468.739,383.591,468.739z"/>
				<path fill="#020202" d="M388.721,461.279c0,0,6.994-19.12,14.455-25.182c7.46-6.062,114.713-76.477,118.91-78.341
					s27.046-11.192,27.979-12.591s13.523-22.85,16.787-22.383l1.4,5.596c0,0-12.125,16.788-13.057,23.316
					c49.615,71.859,87.199,84.17,96.643,87.899c0,0,33.458-11.424,43.25-50.128l-0.466-32.642l-0.466-4.197
					c0,0,25.18,4.662,34.974,5.595c9.792,0.934,89.066,34.974,99.791,47.564c10.726,12.591,21.916,41.09,22.384,53.653
					c0,0-12.59-44.326-26.113-52.721c-13.524-8.394-73.679-41.501-94.663-44.766l-32.176-5.13c0,0,1.399,29.844,0.467,33.575
					c0,0-7.346,35.646-45.583,52.461c0,0-48.613-17.838-78.923-59.455c0,0-18.652-25.647-22.851-27.979
					c-4.195-2.332-23.315,3.265-27.045,6.062c-3.73,2.798-114.247,72.747-119.844,79.274
					C398.979,447.29,388.721,461.279,388.721,461.279z"/>
			</g>
		</g>
	</g>
</g>
</svg>
