<svg id="Layer_1" data-name="Layer 1" xmlns="http://www.w3.org/2000/svg" xmlns:xlink="http://www.w3.org/1999/xlink" viewBox="0 0 64 64"><defs><style>.cls-1{fill:#dbb66b;opacity:0.2;}.cls-2{fill:#231f20;stroke-width:2.54px;}.cls-2,.cls-3{stroke:#231f20;stroke-linecap:round;stroke-linejoin:round;}.cls-3{stroke-width:2.57px;fill:url(#linear-gradient);}.cls-4{fill:#020202;}</style><linearGradient id="linear-gradient" x1="33.69" y1="48.76" x2="33.69" y2="12.48" gradientUnits="userSpaceOnUse"><stop offset="0" stop-color="#dbb66b"/><stop offset="0.1" stop-color="#e1c283"/><stop offset="0.3" stop-color="#ecd8af"/><stop offset="0.5" stop-color="#f4e9d2"/><stop offset="0.69" stop-color="#faf5eb"/><stop offset="0.86" stop-color="#fefcfa"/><stop offset="1" stop-color="#fff"/></linearGradient></defs><title>sell-icon</title><circle class="cls-1" cx="32" cy="32" r="32"/><circle class="cls-2" cx="32" cy="33.25" r="18.14"/><circle class="cls-3" cx="33.69" cy="30.62" r="18.14"/><polygon class="cls-4" points="39.65 26.13 39.65 22.32 37.93 20.82 35.24 20.82 35.24 18.42 32.13 18.42 32.13 20.82 29.45 20.82 27.73 22.32 27.73 29.86 29.45 31.36 35.69 31.36 36.11 31.72 36.11 35.89 35.69 36.25 31.66 36.25 31.24 35.89 31.24 33.93 27.73 33.93 27.73 37.73 29.45 39.23 32.13 39.23 32.13 41.37 35.24 41.37 35.24 39.23 37.93 39.23 39.65 37.73 39.65 29.88 37.93 28.38 31.66 28.38 31.24 28.02 31.24 25.85 31.22 25.52 29.83 23.83 31.66 23.83 35.66 23.83 35.69 23.83 36.11 24.19 36.11 26.13 39.65 26.13"/></svg>