<svg id="Layer_1" data-name="Layer 1" xmlns="http://www.w3.org/2000/svg" xmlns:xlink="http://www.w3.org/1999/xlink" viewBox="0 0 64 64"><defs><style>.cls-1{fill:#dbb66b;opacity:0.2;}.cls-2,.cls-3,.cls-4,.cls-5,.cls-6{stroke:#231f20;stroke-linecap:round;stroke-linejoin:round;}.cls-2,.cls-5,.cls-6{stroke-width:2.57px;}.cls-2{fill:url(#linear-gradient);}.cls-3{fill:none;stroke-width:2.25px;}.cls-4{fill:#231f20;stroke-width:2.01px;}.cls-5{fill:url(#linear-gradient-2);}.cls-6{fill:#fff;}</style><linearGradient id="linear-gradient" x1="23.86" y1="34.59" x2="23.86" y2="12.01" gradientUnits="userSpaceOnUse"><stop offset="0" stop-color="#dbb66b"/><stop offset="0.06" stop-color="#e0c07f"/><stop offset="0.2" stop-color="#e9d3a6"/><stop offset="0.34" stop-color="#f1e3c6"/><stop offset="0.49" stop-color="#f7efdf"/><stop offset="0.65" stop-color="#fcf8f1"/><stop offset="0.81" stop-color="#fefdfc"/><stop offset="1" stop-color="#fff"/></linearGradient><linearGradient id="linear-gradient-2" x1="39.75" y1="50" x2="39.75" y2="27.42" xlink:href="#linear-gradient"/></defs><title>trade-icon</title><circle class="cls-1" cx="31.95" cy="32" r="32"/><polygon class="cls-2" points="20.79 34.59 31.8 34.59 31.8 12.01 15.92 12.01 15.92 30.13 15.92 34.59 20.79 34.59"/><polygon class="cls-3" points="27.07 24.03 23.86 26.51 20.65 24.03 20.65 19.23 27.07 19.23 27.07 24.03"/><polygon class="cls-4" points="16.8 41.71 19.36 39.23 21.91 41.71 21.91 42.01 16.8 42.01 16.8 41.71"/><polygon class="cls-5" points="36.68 50 47.69 50 47.69 27.42 31.8 27.42 31.8 45.54 31.8 50 36.68 50"/><polygon class="cls-3" points="42.96 39.44 39.75 41.92 36.53 39.44 36.53 34.64 42.96 34.64 42.96 39.44"/><polyline class="cls-3" points="27.3 47.04 19.36 47.04 19.36 40.62"/><polygon class="cls-4" points="46.82 19.79 44.26 22.27 41.7 19.79 41.7 19.49 46.82 19.49 46.82 19.79"/><polyline class="cls-3" points="36.32 14.46 44.26 14.46 44.26 20.88"/><line class="cls-6" x1="16.67" y1="33.25" x2="31.05" y2="33.25"/><line class="cls-6" x1="32.43" y1="48.26" x2="46.82" y2="48.26"/></svg>