<svg width="686" height="813" viewBox="0 0 686 813" fill="none" xmlns="http://www.w3.org/2000/svg">
<path d="M904.484 777.273C905.335 783.232 905.761 786.85 905.761 786.85C908.526 683.626 863.855 619.137 848.539 599.343C845.774 595.725 843.859 593.596 843.434 592.958C840.881 589.127 836.414 584.019 827.054 576.144C824.289 573.803 811.313 568.269 794.296 561.671C761.75 548.263 706.868 529.32 704.528 528.469C702.826 527.83 700.912 527.192 697.934 525.702C705.166 523.148 711.335 520.807 714.738 519.104C730.48 511.229 732.394 496.757 730.267 483.348C728.991 474.409 726.651 459.723 730.267 444.825C733.883 429.926 723.46 420.136 723.46 420.136C721.971 413.751 731.331 402.045 732.182 388.211C732.607 383.316 730.48 377.569 727.714 372.035C727.927 366.076 729.416 360.755 733.032 352.242C735.798 345.857 734.947 337.982 734.947 336.705C737.499 334.789 739.627 333.087 740.478 332.022C743.03 328.83 744.519 321.168 742.392 317.337C739.627 312.442 733.458 300.523 726.651 287.753C727.927 274.557 733.458 264.979 736.436 258.169C737.5 255.615 737.712 251.996 737.5 248.378C740.69 244.973 739.627 229.01 733.032 224.754C726.651 187.72 704.953 156.859 687.51 137.066C692.616 136.64 722.609 132.383 732.182 107.482C731.756 108.546 727.502 117.272 713.037 122.167C713.037 122.167 718.567 113.654 717.929 97.6912C717.929 97.6912 730.267 89.1778 730.692 65.3403C730.692 65.3403 729.842 78.3232 721.12 88.965C721.12 88.965 733.032 56.6141 717.929 30.861C717.929 30.861 721.12 37.6718 717.929 53.6344C717.929 53.6344 718.993 30.4354 703.464 17.0268C703.464 17.0268 713.037 30.861 710.271 57.4654C710.271 57.4654 707.081 39.8001 695.806 29.584C695.806 29.584 708.144 43.4183 707.506 65.3403C707.506 65.3403 699.635 33.6279 683.043 20.0065C683.043 20.0065 685.17 22.1348 685.809 24.2632C685.809 24.2632 679.002 16.3883 667.089 11.0674C667.089 11.0674 670.493 13.8343 671.344 14.6856C671.344 14.6856 663.898 9.7904 657.942 8.08772C657.942 8.08772 661.346 11.2803 662.197 13.1958C662.197 13.1958 655.39 11.2802 654.113 11.2802C654.113 11.2802 649.008 5.53371 644.754 3.6182C644.754 3.6182 647.732 7.02354 649.221 11.7059C649.221 11.7059 641.988 11.9188 640.074 11.2802L641.776 18.5166C641.776 18.5166 634.543 7.44922 628.374 3.83103C628.374 3.83103 629.651 6.17221 630.501 8.08772C631.352 10.0032 630.501 8.93907 630.501 8.93907L628.374 6.59789C628.374 6.59789 627.311 10.0032 627.098 10.8546C626.885 11.7059 623.056 9.79041 623.056 9.79041C623.056 9.79041 619.653 2.34118 616.887 -6.4952e-06C616.887 -6.4952e-06 618.589 6.59788 617.951 10.2161C617.951 10.2161 613.909 2.76685 607.315 -6.4952e-06C607.315 -6.4952e-06 608.804 1.277 609.442 8.51339C609.442 8.51339 604.124 5.74655 603.061 5.53371C603.061 5.53371 604.975 7.66206 605.613 9.79041C605.613 9.79041 602.21 5.74654 599.232 3.83103C599.232 3.83103 600.508 6.81072 600.721 12.9829C600.721 12.9829 596.679 7.87489 594.339 7.02355C591.999 6.17221 590.51 7.02355 589.659 7.23638C588.808 7.44922 589.659 10.6417 589.659 10.6417L583.278 5.32087L584.767 10.0032C584.767 10.0032 581.789 6.38505 579.874 6.59789C577.96 6.81072 576.045 7.44923 575.832 8.72624C575.62 10.0032 575.832 12.7701 575.832 12.7701L569.664 6.17221L571.365 12.5573C571.365 12.5573 567.324 7.66206 563.707 5.74654C563.707 5.74654 564.984 8.08773 565.196 10.0032C565.196 10.0032 561.793 7.87489 560.729 7.02355C559.666 6.17221 559.453 13.8343 559.666 15.9626C559.666 15.9626 554.986 10.2161 549.242 6.38504C549.242 6.38504 550.306 10.2161 550.944 15.7498C550.944 15.7498 547.115 12.9829 545.626 12.7701C544.137 12.5573 540.096 13.8343 539.457 14.2599C538.819 14.6856 536.479 20.2193 535.841 20.4322C535.203 20.645 526.907 17.2396 526.907 17.2396C526.907 17.2396 489.043 20.2193 480.534 26.1787V20.645C480.534 20.645 462.027 30.4354 456.922 38.3103L459.049 30.2226C459.049 30.2226 421.611 55.9756 410.336 86.6238C410.336 86.6238 390.979 103.012 390.979 105.14C390.979 107.269 392.681 115.995 392.681 115.995C392.681 115.995 387.15 110.887 384.597 109.61C384.597 109.61 385.874 114.718 388.001 118.549C390.128 122.38 390.128 122.38 390.128 122.38L381.194 113.867C381.194 113.867 382.47 126.424 380.768 131.532C379.279 136.001 353.328 203.044 377.79 293.499C381.832 310.952 387.788 328.404 393.532 345.218C400.764 366.714 408.422 388.849 412.251 411.41C412.464 412.261 412.464 413.112 412.676 414.177C414.378 422.69 417.782 440.568 415.016 456.105C414.804 457.169 414.591 458.021 414.378 459.085C404.806 461 378.428 466.96 371.196 476.112C362.262 487.392 362.9 498.672 354.817 501.013C350.349 502.29 343.755 504.631 339.288 508.888C337.586 510.378 235.906 562.735 196.34 576.144C157.413 589.765 82.5353 613.39 77.43 616.795C72.3247 620.201 47.8619 647.444 46.3729 655.744C46.3729 655.744 13.6141 688.521 3.40352 739.814C3.40352 739.814 5.53071 732.152 9.35967 721.936C3.1908 738.537 0 751.52 0 751.52C21.6974 771.952 100.404 785.999 202.722 795.577C207.615 814.306 211.018 831.333 211.231 842.4C211.231 842.4 222.93 925.832 215.485 950.095L345.882 956.906C345.882 956.906 356.731 903.91 350.988 888.798C345.031 873.687 331.417 818.137 334.821 806.218C335.034 805.793 335.034 805.367 335.034 804.941C352.051 805.793 369.282 806.644 386.725 807.495C416.505 813.455 446.712 821.755 446.712 821.755C440.968 817.286 433.523 813.029 425.44 809.198C446.499 810.049 467.771 810.688 488.83 811.326C496.063 887.734 506.06 984.361 501.38 1021.82L637.308 1005.01C637.308 1005.01 632.629 891.991 626.46 814.519C676.023 815.37 722.396 815.583 762.388 815.796C763.451 822.181 761.324 820.266 760.686 828.14C760.26 832.184 757.921 853.255 754.942 877.305C752.39 893.481 750.263 906.251 750.263 906.251C750.263 906.251 751.114 903.271 752.39 898.376C748.561 928.811 744.945 957.97 743.881 960.311C741.967 965.419 783.021 869.43 794.083 847.083C797.912 839.421 803.655 827.715 809.824 815.796C868.535 815.796 905.548 815.37 905.548 815.37C905.761 801.962 905.335 789.404 904.484 777.273ZM168.474 591.255L122.101 612.326C113.805 614.667 106.36 616.795 99.9783 617.86C98.702 617.434 97.4257 617.008 95.9366 616.795C95.9366 616.795 136.141 602.748 168.474 591.255ZM82.3226 624.67C82.748 624.457 82.9607 624.457 83.3862 624.245C85.7261 623.819 90.6186 623.18 97.0002 623.606L92.7458 625.522L82.3226 624.67Z" transform="translate(-263 10.2148)" fill="#467FAC"/>
<path d="M6.10352e-06 0.0932186C6.10352e-06 0.0932186 6.10352e-06 -0.116552 6.10352e-06 0.0932186V0.0932186Z" transform="translate(448.758 110.582)" fill="#6D9BD2"/>
<path d="M291.709 486.443C292.985 488.997 297.877 587.752 257.035 610.951C243.634 618.4 228.105 640.322 206.195 643.089C161.524 648.836 103.239 625.211 73.0326 591.157C28.1488 540.503 -3.33375 465.585 0.282489 459.625C3.68601 453.453 -5.03553 439.619 7.30222 439.832C19.64 439.832 54.3133 410.035 54.9515 408.119C55.5896 406.204 56.8659 347.461 32.8286 284.675C17.3 244.024 31.3396 109.938 57.2914 89.9313C83.0304 69.9248 180.882 -3.29038 191.73 0.114975C202.366 3.52033 287.029 20.9728 291.709 24.591C296.388 27.9964 375.946 100.36 383.816 171.447C383.816 171.447 388.071 187.622 383.816 195.072C379.562 202.521 374.882 221.463 374.457 224.656C374.031 227.848 377.009 231.467 377.009 231.467C377.009 231.467 391.049 255.304 390.836 258.071C390.623 260.625 389.56 267.648 389.56 267.648L382.54 274.246C382.54 274.246 382.327 282.334 381.689 285.527C381.264 288.719 373.606 308.3 375.307 317.665C377.009 327.029 368.075 367.042 365.522 377.471C362.97 387.687 345.527 464.733 302.557 477.291L291.709 486.443Z" transform="translate(124.084 73.7402)" fill="#FACBBE"/>
<path d="M4.05731e-07 242.419C4.05731e-07 242.419 16.5921 176.866 45.0966 148.772C73.601 120.677 81.0462 110.674 81.0462 110.674L99.9783 112.377L345.67 1.29904e-05L359.284 29.7969C359.284 29.7969 582.427 198.362 591.148 206.875C599.87 215.389 659.857 61.9349 665.6 47.4622C671.344 32.9894 684.532 29.1583 684.532 29.1583C684.532 29.1583 697.934 -5.95935 709.633 1.27704C721.333 8.72626 725.587 10.2161 728.991 11.4931C732.394 12.7701 839.18 49.5905 845.987 57.6783C852.794 65.5532 875.129 83.2185 875.129 83.2185C875.129 83.2185 937.456 152.177 937.243 308.398C937.456 308.611 81.8971 319.252 4.05731e-07 242.419Z" transform="translate(-252.787 535.703)" fill="white"/>
<path d="M0.00579422 26.6044C0.00579422 26.6044 -1.27053 84.7083 34.041 105.14C69.3524 125.573 149.122 186.231 162.098 197.936C162.098 197.936 287.603 191.339 290.794 187.508C293.985 183.677 352.482 93.2217 354.397 47.4622H333.125C333.125 47.4622 313.129 147.707 232.083 185.592C232.083 185.592 109.982 108.546 68.7143 72.5767C27.8721 37.0333 47.2296 1.29904e-05 47.2296 1.29904e-05C47.2296 1.29904e-05 13.8326 9.7904 8.72732 22.1348C3.1966 34.4792 0.00579422 26.6044 0.00579422 26.6044Z" transform="translate(86.2832 509.096)" fill="white"/>
<path d="M-2.59668e-05 11.5341C-2.59668e-05 11.5341 21.272 24.3042 36.8005 19.6218C48.5001 16.0037 34.0351 6.42609 34.0351 6.42609C34.0351 6.42609 37.4387 -0.59746 30.4189 0.0410446C23.3992 0.892384 11.4868 2.59505 -2.59668e-05 11.5341Z" transform="translate(380.055 255.146)" fill="white"/>
<path d="M1.16224 0.0333203C1.58768 -0.179515 10.5219 0.671838 11.16 1.31034C12.0109 1.94885 10.7346 1.31034 10.7346 1.31034C10.7346 1.31034 4.77849 11.3136 3.50217 11.7392C2.22585 12.1649 -2.02856 2.16167 1.16224 0.0333203Z" transform="translate(486.953 271.332)" fill="white"/>
<path d="M10.6034 3.83103C11.0288 3.40536 6.34902 13.8343 8.05078 21.0707C8.05078 21.0707 38.0442 13.6214 48.0421 17.8781C48.0421 17.8781 45.9149 9.57756 44.2131 -6.4952e-06C44.2131 -6.4952e-06 50.1692 16.6011 53.9982 18.7295C76.3338 31.2867 81.4391 13.8343 82.5027 17.4524C84.2045 24.0503 71.654 32.1381 71.654 32.1381C71.654 32.1381 52.7219 48.952 46.3403 50.4418C39.746 51.9317 11.667 47.2493 2.73278 36.3947C-6.20145 25.5402 9.53978 5.10804 10.6034 3.83103Z" transform="translate(432.416 317.766)" fill="#CF9289"/>
<path d="M70.4312 104.399L57.0299 113.764L65.7513 101.633L58.3061 106.741C58.3061 106.741 58.9443 102.271 58.7316 99.9299C58.5189 97.5887 53.6263 97.3759 53.6263 97.3759L58.7316 85.4571L47.8829 96.3117C47.8829 96.3117 48.7338 93.332 49.1592 92.4807C49.5847 91.6294 49.1592 89.2882 46.8193 86.7342C44.4794 84.1801 49.1592 78.2208 49.1592 78.2208L41.0759 85.0315L42.7776 80.1363L35.3324 75.4539C45.543 60.1298 44.054 48.6367 44.054 48.6367C83.4071 22.0324 130.844 33.3126 136.587 34.164C142.33 35.2281 153.179 31.3971 153.179 31.3971C152.541 32.2484 148.287 34.164 148.287 34.164C155.094 37.7822 171.26 38.8463 173.6 38.2078C175.94 37.5693 179.344 34.164 179.344 34.164C178.493 36.5051 175.94 38.4207 175.94 38.4207C181.684 37.3565 184.662 32.0356 184.662 32.0356C184.024 33.0998 183.811 37.3565 183.811 37.3565C195.51 34.8025 203.168 37.5693 203.168 37.5693L196.149 30.7586C196.149 30.7586 202.317 28.4174 193.171 11.8163C183.811 -4.78482 136.374 0.961708 136.374 0.961708C136.374 0.961708 40.6504 5.43125 30.8653 6.92109C21.0802 8.1981 4.06263 60.5555 0.871838 78.6464C-2.31896 96.7374 4.27534 183.787 4.27534 183.787C4.27534 183.787 8.74247 203.58 24.271 249.34C40.0123 295.099 75.5365 310.636 75.5365 310.636C-4.6589 311.488 111.699 325.109 99.1484 292.546C92.3413 274.88 91.9159 259.343 91.9159 259.343L122.973 267.857L32.1416 204.006C23.8456 157.821 70.4312 104.399 70.4312 104.399Z" transform="translate(240.916 89.0645)" fill="#CF9289"/>
<path d="M41.4971 102.374C41.4971 102.374 9.37642 93.0088 2.78211 68.5328C-3.81221 43.844 1.71851 -6.49521e-06 15.1199 -6.49521e-06C28.9466 -6.49521e-06 48.0914 20.2193 50.8568 27.4557C53.6221 34.6921 41.2844 44.6953 41.2844 44.6953C41.2844 44.6953 28.0958 29.584 22.3523 32.3509C17.8852 34.4792 4.48388 60.2323 7.8874 66.4045C11.7164 72.5767 17.6725 90.0291 41.4971 102.374Z" transform="translate(155.83 265.621)" fill="#CF9289"/>
<path d="M24.8882 1.48985C24.8882 1.48985 10.636 7.23639 9.14694 7.8749C9.14694 7.8749 4.46713 30.0097 1.29834e-05 32.1381C1.29834e-05 32.1381 22.5483 29.584 25.1009 16.814C27.6536 4.04386 25.1009 1.29904e-05 25.1009 1.29904e-05" transform="translate(188.184 309.037)" fill="#CF9289"/>
<path d="M6.80702 19.1551C6.80702 19.1551 23.8246 1.48983 25.5264 -1.29904e-05C25.5264 -1.29904e-05 27.0154 3.83104 27.0154 8.93908C27.2281 13.8343 25.5264 16.1754 29.5681 19.1551C33.6097 22.1348 35.5242 25.3273 35.0988 26.6043C34.6733 27.8814 32.9716 27.6685 32.9716 27.6685C32.9716 27.6685 19.5702 18.5166 -6.49169e-06 25.3273C-6.49169e-06 25.5402 5.74342 20.4321 6.80702 19.1551Z" transform="translate(197.967 326.701)" fill="#CF9289"/>
<path d="M39.7077 51.8844C39.9204 52.5229 35.2406 14.8512 10.7778 4.63508C-13.4722 -5.79383 10.7778 4.63508 10.7778 4.63508L8.6506 13.787C8.6506 13.5741 33.7515 25.2801 39.7077 51.8844Z" transform="translate(179.314 269.711)" fill="#CF9289"/>
<path d="M111.678 30.7067C117.634 30.2811 124.867 18.1495 124.228 9.8489C124.228 9.8489 92.5331 0.696993 76.3664 1.12266C76.3664 1.12266 30.4189 -10.1576 -2.59668e-05 38.7944C-2.59668e-05 38.7944 25.9518 21.9805 42.9694 18.788C42.9694 18.788 55.3071 21.1291 58.7106 23.0447C58.7106 23.0447 38.0769 26.8757 24.0373 44.3281C24.0373 44.3281 48.7128 30.2811 62.3269 31.7709C62.3269 31.7709 40.6295 36.6661 33.1843 47.095L35.7369 48.372C35.7369 48.372 32.3334 54.757 32.3334 57.5239C32.3334 57.5239 43.8202 80.7229 73.3883 66.2501C73.3883 66.2501 57.0089 70.0812 47.0111 64.9731C47.0111 64.9731 58.498 66.8886 63.6032 64.3346C59.7743 61.5678 58.0725 56.6726 58.7106 54.5442C58.7106 54.5442 45.3093 52.8415 43.1821 49.2234C40.8422 45.6052 42.3313 45.6052 42.3313 45.6052C42.3313 45.6052 62.3269 38.5816 67.6449 38.5816C72.9629 38.5816 76.7918 34.1121 76.7918 34.1121L84.8752 35.6019L89.7677 41.7741L72.7502 36.2404C72.7502 36.2404 82.9607 54.757 72.9629 55.8212C62.9651 56.8854 72.9629 55.8212 72.9629 55.8212C72.9629 55.8212 84.6625 57.0983 89.7677 50.926C89.7677 50.926 93.8094 51.1389 94.4476 53.4801C94.4476 53.4801 93.8094 64.7603 82.3226 72.2095C82.3226 72.2095 93.1713 70.294 98.4893 56.2469C98.4893 56.2469 107.423 60.0779 108.913 62.632C108.913 62.632 107.211 52.8415 104.871 50.2875C102.531 47.7335 104.233 49.2234 104.233 49.2234C104.233 49.2234 108.7 50.926 109.763 50.2875C110.827 49.649 115.294 64.1218 118.059 64.5475C123.377 65.186 133.588 88.385 133.588 88.385C133.588 88.385 113.592 36.4533 111.678 30.7067Z" transform="translate(340.701 219.803)" fill="#CF9289"/>
<path d="M-2.59668e-05 7.61673C-2.59668e-05 7.61673 10.2105 -1.32233 18.0812 0.16751C25.9518 1.44452 25.5264 3.14718 25.9518 3.57285C26.3773 4.21135 19.3575 21.2382 19.783 22.9408C8.5088 15.9173 2.55264 18.4713 2.55264 18.4713C2.55264 18.4713 -0.425453 14.8531 0.212707 9.10657L-2.59668e-05 7.61673Z" transform="translate(480.033 247.146)" fill="#CF9289"/>
<path d="M5.64887 0.212835C5.64887 0.212835 2.4581 8.08772 0.756337 9.7904C-0.945421 11.4931 0.756337 9.7904 0.756337 9.7904L4.58527 17.0268C4.58527 17.0268 3.73439 10.8546 5.64887 8.51338C7.35062 6.1722 7.77606 -1.29904e-05 7.77606 -1.29904e-05L5.64887 0.212835Z" transform="translate(490.336 272.428)" fill="#CF9289"/>
<path d="M0 33.8407C0 33.8407 9.5724 18.3038 11.9123 18.3038C14.2522 18.3038 49.1383 -1.29904e-05 49.1383 -1.29904e-05C49.1383 -1.29904e-05 38.0769 10.4289 37.6514 13.4086C37.6514 13.4086 55.0944 9.36473 62.1142 15.1113C75.3028 25.5402 73.601 10.8546 75.3028 12.5572C77.0045 14.0471 72.9629 60.0194 72.9629 60.0194C72.9629 60.0194 71.0484 38.5231 51.4782 37.4589C32.1207 36.3948 0 33.8407 0 33.8407Z" transform="translate(414.51 388.422)" fill="#CF9289"/>
<path d="M1.29834e-05 1.29904e-05C1.29834e-05 1.29904e-05 21.9102 19.1551 44.8839 19.7936C67.8576 20.4321 69.1339 16.1755 69.1339 16.1755C69.1339 16.1755 71.8993 31.4996 54.6689 31.9252C37.4386 32.1381 9.78512 20.4322 1.29834e-05 1.29904e-05Z" transform="translate(415.793 426.094)" fill="#CF9289"/>
<path d="M70.6237 232.13C87.0031 151.253 128.271 142.952 128.271 142.952C128.271 142.952 127.845 138.696 126.569 132.524C126.356 131.247 119.975 138.057 114.444 142.314C118.273 135.29 123.165 128.054 125.505 125.713C121.038 108.26 117.422 100.811 99.979 87.4025C77.4307 69.9501 66.582 36.3222 88.9175 18.2312C88.9175 18.2312 36.8012 -27.7411 14.2529 26.3189C-8.08264 80.379 2.12791 144.017 3.61695 147.422C4.89326 150.827 24.6762 200.631 24.6762 200.631L38.0775 225.958C38.0775 226.171 59.1368 288.106 70.6237 232.13Z" transform="translate(232.637 104.146)" fill="#CF9289"/>
<path d="M-1.29834e-05 1.52643C1.27631 1.31359 45.7348 9.82701 58.7107 41.3266C58.7107 41.3266 63.8159 37.2827 60.8379 29.195C58.0725 21.1072 38.0768 -6.77413 -1.29834e-05 1.52643Z" transform="translate(173.928 257.068)" fill="#CF9289"/>
<path d="M1.29834e-05 1.29904e-05C1.29834e-05 1.29904e-05 32.7589 57.8911 55.7326 46.8237C55.7326 46.8237 57.0089 37.6718 55.5199 35.7562C54.2435 33.8407 39.7786 22.7733 39.7786 22.7733C39.7786 22.7733 15.3158 15.1113 1.29834e-05 1.29904e-05Z" transform="translate(171.164 364.371)" fill="#CF9289"/>
<path d="M0.196211 0.0566171C-1.08011 -1.22039 4.45061 19.4246 0.196211 29.4278C0.196211 29.4278 7.21596 26.4482 6.5778 21.5529C5.93964 16.6577 5.30149 5.80316 0.196211 0.0566171Z" transform="translate(467.074 209.162)" fill="#CF9289"/>
<path d="M-2.59668e-05 20.4322C-2.59668e-05 20.4322 1.70173 10.6417 8.50877 5.95938C15.3158 1.48985 17.0176 0 17.0176 0L20.4211 12.9829C20.4211 13.1958 1.91445 17.4525 -2.59668e-05 20.4322Z" transform="translate(487.479 230.072)" fill="#CF9289"/>
<path d="M13.8268 -6.4952e-06C13.8268 -6.4952e-06 16.5921 16.1755 12.5505 21.0707C8.50879 25.9659 2.76536 38.3103 4.04168 43.4183L1.29834e-05 37.8846C1.29834e-05 37.8846 1.91449 31.7124 3.19081 27.8814C4.46713 24.0503 9.7851 21.922 8.08334 18.7295C6.5943 15.5369 1.91448 10.2161 1.91448 10.2161C1.91448 10.2161 6.80704 0.851333 13.8268 -6.4952e-06Z" transform="translate(491.309 249.658)" fill="#CF9289"/>
<path d="M2.33259 41.5028C2.33259 41.5028 33.3897 27.8814 37.0059 23.199C40.6222 18.5167 55.2998 -2.59808e-05 55.2998 -2.59808e-05C55.2998 -2.59808e-05 42.3239 115.995 154.002 197.724C154.002 197.724 116.776 174.95 78.2735 148.133C34.2405 117.272 -10.856 80.0259 2.33259 41.5028Z" transform="translate(127.779 473.344)" fill="#CF9289"/>
<path d="M0 4.4901C0 4.4901 20.8465 -3.59765 25.5264 1.93605C30.4189 7.46976 10.636 15.3447 6.38159 14.919C1.91448 14.2805 0 4.4901 0 4.4901Z" transform="translate(307.092 677.217)" fill="#CF9289"/>
<path d="M47.6492 2.45942L1.29834e-05 96.3196C1.29834e-05 96.3196 57.6471 7.99313 58.2852 2.45942C58.9234 -3.07428 47.6492 2.45942 47.6492 2.45942Z" transform="translate(356.232 555.381)" fill="#CF9289"/>
<path d="M0 76.6844C0 76.6844 31.908 24.1142 36.5878 21.1345C41.2677 18.1548 54.669 8.36438 54.669 8.36438L49.9891 17.0906C49.9891 17.0906 74.0265 -1.21318 81.6844 0.0638294C89.3423 1.34084 97.213 8.15159 97.213 8.15159L103.382 16.0264C103.382 16.0264 42.544 26.0297 32.9716 43.695C23.3992 61.3603 8.50879 88.3903 8.50879 88.3903L0 76.6844Z" transform="translate(368.777 359.629)" fill="#CF9289"/>
<path d="M3.82897 0.00316182C4.04169 -0.209673 17.8685 10.432 17.443 12.1347C17.0176 13.8374 17.443 12.1347 17.443 12.1347L15.954 19.5839C15.954 19.5839 15.7412 22.7765 12.7632 18.7326C9.78508 14.6887 -2.59668e-05 0.00316182 -2.59668e-05 0.00316182H3.82897Z" transform="translate(483.223 363.307)" fill="#CF9289"/>
<path d="M134.013 337.359V314.585C134.013 314.585 102.956 164.962 88.4914 148.574C74.0265 132.186 46.5856 59.3964 45.9475 47.9033C45.3093 36.4102 29.1426 6.82618 29.9935 4.05933C30.8444 1.50531 22.3356 -5.51824 8.08335 8.31602C10.2105 10.2315 25.5264 22.7888 19.9957 47.2648C17.6558 58.1194 22.761 69.8253 25.3137 70.8895C27.8663 71.9536 40.8422 98.7708 28.2917 115.798C15.7413 132.824 -6.49169e-06 121.757 -6.49169e-06 121.757C-6.49169e-06 121.757 2.76536 133.037 5.53072 146.659C15.7413 148.361 21.6974 145.169 28.9299 136.868C28.9299 136.868 24.4628 149.851 7.44518 155.811C9.14694 168.155 9.99782 181.564 7.87062 192.418C7.87062 192.418 67.8576 293.728 65.305 292.451C65.305 292.451 34.2479 267.762 4.46712 207.742C4.46712 207.742 16.3794 244.776 60.6251 317.139C98.4892 379.074 122.314 393.76 122.314 393.76L146.989 339.487L134.013 337.359Z" transform="translate(210.732 265.602)" fill="#CF9289"/>
<path d="M37.4308 0C37.4308 0 51.683 17.4524 52.9593 20.0065C52.9593 20.0065 5.73551 56.4012 1.48111 74.4922C-2.56056 92.3703 -0.646033 19.7936 37.4308 0Z" transform="translate(305.188 247.102)" fill="#CF9289"/>
<path d="M80.4682 127.062C80.4682 127.062 72.5975 55.9756 0.0600924 6.59787C-1.00351 1.70267 12.3979 6.49521e-06 12.3979 6.49521e-06C12.3979 6.49521e-06 90.2533 73.8537 77.2774 130.255" transform="translate(424.668 120.041)" fill="#CF9289"/>
<path d="M0.0907895 1.29904e-05C-1.61097 1.27702 21.1501 34.6921 22.8518 35.3306C24.5536 35.9691 45.4001 35.5434 62.8431 3.19254C62.8431 3.19254 45.4001 28.5199 29.2334 28.5199C20.0865 28.7327 0.0907895 1.29904e-05 0.0907895 1.29904e-05Z" transform="translate(288.705 655.953)" fill="#CF9289"/>
<path d="M6.49169e-06 2.34121C6.49169e-06 2.34121 12.5505 3.40538 8.29606 41.7157C4.25439 80.0259 35.5242 299.671 27.6536 361.606L168.261 344.154C168.261 344.154 159.327 121.954 149.117 80.0259C139.119 38.0975 142.31 1.29904e-05 142.31 1.29904e-05C142.31 1.29904e-05 121.676 7.02352 87.8533 4.68234C54.2436 2.34116 3.1908 3.83105 6.49169e-06 2.34121Z" transform="translate(238.596 696.395)" fill="#A4DEF9"/>
<path d="M2.59668e-05 2.59808e-05C2.59668e-05 2.59808e-05 65.305 226.669 69.7721 243.27C74.0265 259.871 70.623 253.699 69.7721 264.128C68.9212 274.557 54.4562 395.66 52.5418 400.981C50.6273 406.302 92.9585 306.908 104.445 283.709C115.932 260.51 145.713 202.406 145.288 200.49C144.649 198.575 170.176 137.704 167.41 102.799C164.645 67.8943 142.097 34.9049 142.097 34.9049L2.59668e-05 2.59808e-05Z" transform="translate(464.932 593.387)" fill="#A4DEF9"/>
<path d="M132.155 2.59808e-05C132.155 2.59808e-05 57.4906 28.9455 0.268943 51.2932C-1.64553 66.4044 7.2887 90.6677 7.2887 98.5425C7.2887 98.5425 50.8962 217.943 51.7471 259.871C51.7471 259.871 63.8721 346.07 56.0015 371.397L191.079 378.42C191.079 378.42 202.353 323.509 196.397 307.759C190.228 292.009 176.188 234.544 179.804 222.412C183.421 210.281 178.954 189.423 175.55 181.548C172.147 173.673 160.66 127.914 163.425 116.846C165.978 105.779 170.445 85.9853 160.872 66.6173C150.875 47.0365 132.155 2.59808e-05 132.155 2.59808e-05Z" transform="translate(-85.6445 612.543)" fill="#A4DEF9"/>
<path d="M0 0C0 0 9.35966 16.814 6.16886 28.9456C6.16886 28.9456 49.9891 43.2055 71.2611 32.9894C92.5331 22.7733 71.2611 32.9894 71.2611 32.9894C71.2611 32.9894 61.6887 20.2193 54.2435 18.5167C47.2238 16.3883 0 0 0 0Z" transform="translate(242.209 706.824)" fill="#5CB1D3"/>
<path d="M0 49.8033C0 49.8033 48.2874 31.9252 53.3927 26.6043C58.4979 21.2835 84.237 8.93908 90.1932 7.8749C95.9366 6.81073 108.7 -1.29904e-05 108.7 -1.29904e-05C108.7 -1.29904e-05 80.6208 19.1551 72.9629 30.0097C65.0922 40.8643 58.0725 51.7189 23.8246 47.4622C-10.636 43.2055 22.1228 47.4622 22.1228 47.4622L0 49.8033Z" transform="translate(260.291 718.316)" fill="#5CB1D3"/>
<path d="M134.652 27.3693C134.652 27.3693 135.715 13.3222 131.886 7.36281C128.057 1.1906 9.57238 -2.21478 -6.49169e-06 1.61625C-6.49169e-06 1.61625 1.70175 23.3254 30.8444 27.3693C30.8444 27.3693 14.8904 22.6869 7.65792 13.7479C7.65792 13.7479 25.5264 19.4944 49.9891 21.4099C74.6646 23.1126 134.652 27.3693 134.652 27.3693Z" transform="translate(-38.1523 802.686)" fill="#5CB1D3"/>
<path d="M71.8993 1.29904e-05C71.8993 1.29904e-05 13.8268 3.40537 3.24585e-06 21.2835C3.24585e-06 21.2835 25.5264 37.4589 54.8817 38.3103C54.8817 38.3103 31.2698 34.0536 20.2084 24.0503C20.2084 24.0503 63.3905 21.2835 68.0703 27.2428C68.0703 27.4557 72.7502 5.32088 71.8993 1.29904e-05Z" transform="translate(9.07031 704.908)" fill="#5CB1D3"/>
<path d="M0 226.882C0 226.882 12.3378 147.707 16.3794 130.681C20.2084 113.654 38.5023 44.4825 39.9913 35.3306C41.2676 26.1787 49.9891 3.83105 81.8971 2.59808e-05C81.8971 2.59808e-05 62.3269 3.19252 55.7326 17.6653C55.7326 17.6653 74.0265 1.27698 81.8971 9.79038C89.7677 18.3038 87.2151 30.6482 69.5594 46.398C51.9036 62.1478 38.9277 64.7018 29.7808 107.269C20.2084 149.623 0 226.882 0 226.882Z" transform="translate(524.064 711.508)" fill="#5CB1D3"/>
<path d="M1.29834e-05 67.065C1.29834e-05 67.065 2.55264 13.8563 39.1404 0.0220538C39.1404 -0.190781 0.212733 -0.19078 1.29834e-05 67.065Z" transform="translate(541.299 705.529)" fill="#5CB1D3"/>
<path d="M9.85599 133.66C9.85599 133.66 25.81 85.5596 7.94152 52.9959C-9.92694 20.4322 7.94152 52.9959 7.94152 52.9959L12.6214 28.307C12.6214 28.307 16.2376 14.6856 14.9613 -2.59808e-05C14.9613 -2.59808e-05 22.4065 24.6888 18.3648 36.3947C18.3648 36.3947 29.0008 74.2794 9.85599 133.66Z" transform="translate(415.934 593.598)" fill="#E0E1E2"/>
<path d="M3.82895 0.0576013C3.82895 0.0576013 70.6229 -1.6451 113.38 13.4662C113.38 13.4662 48.0747 2.61159 28.9299 13.4662C9.78511 24.3207 -1.29834e-05 27.3004 -1.29834e-05 27.3004L3.82895 0.0576013Z" transform="translate(77.1406 704.852)" fill="#E0E1E2"/>
<path d="M-1.29834e-05 0C-1.29834e-05 0 84.6625 15.7498 117.634 41.9285C117.634 41.9285 31.0571 18.3038 4.46711 21.0706C4.46711 21.0706 1.70175 4.2567 -1.29834e-05 0Z" transform="translate(92.0312 808.984)" fill="#E0E1E2"/>
<path d="M-1.29834e-05 -1.29904e-05C-1.29834e-05 -1.29904e-05 12.9759 37.8846 119.549 96.8398C143.16 109.823 153.584 120.465 153.584 120.465L167.198 113.228C167.198 113.015 49.5637 51.506 -1.29834e-05 -1.29904e-05Z" transform="translate(90.9688 587.422)" fill="#E0E1E2"/>
<path d="M0 100.671C0 100.671 51.0528 64.0633 56.7962 2.59808e-05C56.7962 2.59808e-05 64.0286 51.7189 7.23246 100.671L0 101.309" transform="translate(375.16 599.77)" fill="#E0E1E2"/>
<path d="M0.122708 2.55403C-0.302732 10.0033 -2.0045 53.8472 44.5811 81.7286C91.5922 109.823 177.318 159.626 177.318 159.626C177.318 159.626 285.805 158.988 290.272 158.988C294.74 158.988 333.455 104.289 350.472 15.7498C350.472 15.7498 343.665 16.1754 343.452 17.0268C338.56 61.0836 315.161 122.38 288.358 154.305C288.358 154.305 194.336 154.944 181.147 155.582C181.147 155.582 55.0044 80.4516 38.625 71.9382C22.2455 63.4248 4.58981 29.3712 7.35517 -1.29904e-05L0.122708 2.55403Z" transform="translate(84.248 541.664)" fill="white"/>
<path d="M15.5285 0.81726C15.5285 0.81726 122.101 -0.459723 129.972 0.178781C137.842 0.817286 137.842 3.3713 137.842 3.3713C137.842 3.3713 11.6996 4.6483 9.14694 5.28681C6.5943 5.92531 1.29834e-05 7.20231 1.29834e-05 7.20231L15.5285 0.81726Z" transform="translate(244.555 700.258)" fill="#5CB1D3"/>
<path d="M4.46709 4.46955L26.59 2.55404L2.59668e-05 0L4.46709 4.46955Z" transform="translate(374.523 700.438)" fill="#E0E1E2"/>
<path d="M5.66162 13.8816C5.66162 13.8816 -21.7792 65.6004 44.1639 109.232C44.1639 109.232 17.9994 88.3738 8.21425 59.0026C8.21425 59.0026 34.3788 123.066 178.177 174.785C321.976 226.504 178.177 174.785 178.177 174.785C178.177 174.785 64.585 100.931 29.2735 66.239C29.2735 66.239 13.745 40.2731 17.9994 12.3917C22.041 -15.4897 17.9994 12.3917 17.9994 12.3917C17.9994 12.3917 8.21426 8.56069 5.66162 13.8816Z" transform="translate(112.746 503.521)" fill="#E0E1E2"/>
<path d="M64.6668 37.3848C64.6668 37.3848 72.112 23.3377 59.1361 9.71625C46.3729 -3.90518 -6.49169e-06 0.777157 -6.49169e-06 0.777157C-6.49169e-06 0.777157 43.8203 8.01358 51.0527 23.7634C58.0725 39.3003 64.6668 37.3848 64.6668 37.3848Z" transform="translate(183.074 697.109)" fill="#E0E1E2"/>
<path d="M32.5461 1.29904e-05C32.5461 1.06419 36.3751 11.4931 34.886 23.8375C34.886 23.8375 33.8225 15.1113 31.0571 9.79043C31.0571 9.79043 27.2281 48.3135 0 70.6611C0 70.6611 24.25 29.3712 21.9101 4.68234L32.5461 1.29904e-05Z" transform="translate(395.369 555.922)" fill="#E0E1E2"/>
<path d="M2.59668e-05 30.4729C2.59668e-05 30.4729 29.568 9.61508 43.1821 13.0204C56.5835 16.4258 95.0858 25.152 103.169 21.5338C111.252 18.1285 116.145 10.8921 117.847 6.20973C117.847 6.20973 113.167 13.659 106.998 16.8515C106.998 16.8515 112.529 11.7434 115.507 6.20973C115.507 6.20973 111.465 10.6793 109.125 13.2333C109.125 13.2333 112.103 9.40226 113.167 6.20973C113.167 6.20973 109.551 10.6793 107.849 12.3819C107.849 12.3819 110.402 7.69957 110.189 7.06106C109.976 6.42256 78.7063 0.03753 68.0703 0.4632C68.0703 0.4632 74.6646 2.16587 76.1537 3.44287C76.1537 3.44287 66.794 -0.388166 55.7326 2.16585C55.7326 2.16585 61.0505 0.888869 61.9014 0.4632C61.9014 0.4632 32.1207 -6.1347 2.59668e-05 30.4729Z" transform="translate(344.744 223.439)" fill="#010101"/>
<path d="M-1.29834e-05 22.3477C-1.29834e-05 22.3477 7.65789 15.5369 12.5504 18.3038C17.6557 20.8578 25.7391 27.6685 29.7808 25.3273C33.6097 22.9862 32.5461 3.61821 24.8882 1.29904e-05C24.8882 1.29904e-05 20.6338 2.76685 18.7194 5.10804C18.7194 5.10804 21.0593 4.04386 24.0374 3.40535C24.0374 3.40535 19.3575 4.68237 14.6776 8.30056C14.6776 8.30056 12.3377 10.4289 11.6996 13.4086C11.4869 13.8343 4.67982 17.6653 -1.29834e-05 22.3477Z" transform="translate(480.244 232.414)" fill="#010101"/>
<path d="M-2.59668e-05 7.54129C-2.59668e-05 7.54129 6.16885 -0.972105 21.2719 0.0920696C31.9079 0.943409 41.9058 10.9466 42.5439 14.5648C42.5439 14.5648 38.9277 8.17978 30.4189 5.62576C30.4189 5.62576 39.9913 11.798 37.2259 14.5648C32.3334 19.46 4.67981 26.9093 -2.59668e-05 7.54129Z" transform="translate(447.061 338.74)" fill="#010101"/>
<path d="M18.2939 106.417C18.2939 106.417 32.3334 95.1372 35.9496 91.519C38.715 88.5393 39.1404 80.2387 36.5878 75.5564C5.95613 18.9423 1.29834e-05 -6.4952e-06 1.29834e-05 -6.4952e-06C1.29834e-05 -6.4952e-06 32.9716 63.6376 40.4168 77.0462C42.544 80.8772 40.8422 88.965 38.2896 92.1575C35.3115 95.7757 19.9957 106.205 18.2939 106.417Z" transform="translate(475.355 251.785)" fill="#010101"/>
<path d="M7.46282 6.4952e-06C7.46282 6.4952e-06 8.52643 8.72624 5.54836 15.537C1.50668 24.6889 -0.195091 30.861 0.0176284 38.3102" transform="translate(499.162 348.838)" stroke="black" stroke-width="1.2286" stroke-miterlimit="10"/>
<path d="M68.9827 182.612C69.8336 167.501 76.0025 156.859 79.1933 149.41C83.0223 140.684 76.6406 120.677 76.6406 120.677C67.4937 50.229 3.89052 -1.29904e-05 3.89052 -1.29904e-05C3.89052 -1.29904e-05 -1.64021 0 0.486989 1.27701C22.6098 13.4086 69.8336 75.9821 74.9389 123.87C74.9389 123.87 74.5135 129.829 76.0025 131.532C77.4915 133.235 80.2569 142.387 77.4915 149.623C74.7262 156.859 68.9828 163.457 67.7065 180.697L68.9827 182.612Z" transform="translate(430.191 118.123)" fill="#010101"/>
<path d="M-2.59668e-05 13.3489C-2.59668e-05 13.3489 26.8027 -1.12392 43.8203 6.3253C43.8203 6.3253 39.9913 8.24081 37.0133 8.87931C34.0352 9.51782 17.8685 9.51783 4.4671 20.7981L7.2325 22.0751C7.2325 22.0751 3.19081 29.7372 2.76537 31.0142C2.76537 31.0142 2.33993 36.335 12.3378 40.8045C12.3378 40.8045 7.01978 36.9735 5.1053 33.3553L9.3597 35.058C9.3597 35.058 9.78508 27.6088 11.6996 25.9061C11.6996 25.9061 21.0592 29.0986 27.6535 29.0986C27.6535 29.0986 16.5922 26.3318 12.3378 22.5008C12.3378 22.5008 20.8465 13.5617 39.5659 15.2644C39.5659 15.2644 44.033 20.3724 43.8203 22.5008C42.9694 28.8858 39.7786 29.3115 35.3115 30.3757C35.3115 30.3757 43.3948 31.8655 49.9891 27.6088C49.9891 27.6088 50.6273 15.9029 43.1821 11.859C43.1821 11.859 51.6909 15.2644 54.2435 22.7136C54.2435 22.7136 69.9848 24.4163 73.601 29.5243C73.601 29.5243 68.283 22.9264 70.4102 20.3724C72.3247 17.8184 74.8774 12.0718 74.8774 12.0718C74.8774 12.0718 59.1361 1.85578 42.5439 0.578767C25.9518 -0.698242 22.1228 -1.12391 -2.59668e-05 13.3489Z" transform="translate(371.547 245.459)" fill="#010101"/>
<path d="M19.783 15.2324C19.783 15.2324 14.6777 -1.58157 -1.29834e-05 0.121108C-1.29834e-05 0.121108 0.850853 7.78316 0.850853 7.57033L3.19078 12.0399C3.19078 12.0399 11.6996 10.1244 19.783 15.2324Z" transform="translate(480.244 255.492)" fill="#010101"/>
<path d="M14.0395 2.45186C14.0395 2.45186 6.1689 -1.37916 2.59668e-05 0.536357L6.38162 10.9653C6.38162 10.9653 9.57236 6.9214 8.72149 3.09037C8.93421 3.09037 10.2105 2.45186 14.0395 2.45186Z" transform="translate(484.072 270.188)" fill="#010101"/>
<path d="M0 15.5369C0 15.5369 10.4233 4.04386 51.4782 0C51.4782 0 42.7566 1.70269 39.9913 3.40537C39.9913 3.40537 55.3072 1.70267 59.7743 8.30055C59.7743 8.30055 58.4979 3.831 58.0725 2.76683C58.0725 2.76683 61.476 5.74655 60.8379 17.2396C60.8379 17.2396 65.305 22.3477 66.1559 26.8172C66.1559 26.8172 61.9015 21.4963 56.7962 22.3477C56.7962 22.3477 57.4343 28.5199 32.7588 21.4963C14.4649 16.3883 0 15.5369 0 15.5369Z" transform="translate(414.51 406.729)" fill="#010101"/>
<path d="M9.40286 1.29904e-05C9.40286 1.29904e-05 3.65944 13.4086 4.2976 21.7092C4.72304 27.8814 15.359 33.2023 26.2077 37.2461C26.2077 37.2461 -1.23311 31.0739 0.0432072 21.7092C1.31953 12.9829 9.40286 1.29904e-05 9.40286 1.29904e-05Z" transform="translate(429.785 327.125)" fill="#010101"/>
<path d="M-1.29834e-05 7.44923C-1.29834e-05 7.44923 6.80701 8.51341 10.4232 7.44923C14.0395 6.38506 19.783 1.29904e-05 19.783 1.29904e-05C19.783 1.29904e-05 3.61622 5.53372 -1.29834e-05 7.44923Z" transform="translate(446.209 317.549)" fill="#CF9289"/>
<path d="M1.76035 0.0635187C2.18579 -1.00066 -0.154117 11.5566 3.03668 18.793C4.73844 22.8369 5.80208 26.4551 5.80208 26.4551L0.484082 16.239C0.484082 16.239 -1.21773 9.42825 1.76035 0.0635187Z" transform="translate(479.336 246.828)" fill="#010101"/>
<path d="M239.948 80.3154C239.948 80.3154 236.757 79.8897 228.461 82.018C220.165 84.1464 208.04 80.3154 208.04 80.3154C208.04 80.3154 188.044 90.5314 187.406 90.5314C186.555 90.5314 175.707 105.856 175.707 105.856L183.152 92.6598C183.152 92.6598 171.878 97.7679 168.474 99.6834C163.794 102.237 156.987 110.538 156.987 110.538L169.325 94.5753C155.498 105.004 125.93 147.146 125.93 147.146C129.759 133.098 129.972 134.588 133.163 126.713C133.163 126.713 114.018 119.477 72.3247 92.6598C40.4168 72.2276 13.4013 45.8361 18.7193 3.69483C20.4211 -9.50094 -6.49169e-06 16.8906 -6.49169e-06 16.8906C-6.49169e-06 16.8906 16.8049 53.711 22.3356 123.095C25.9518 168.855 39.3532 187.158 39.3532 187.158C54.4563 210.357 79.9827 235.472 97.8511 257.82C119.336 284.85 148.478 284.637 148.478 284.637C148.478 284.637 223.568 262.076 239.948 253.989C256.327 245.901 258.242 230.79 256.115 216.955C254.626 207.803 252.286 192.479 256.115 177.155C259.944 161.831 249.095 151.615 249.095 151.615C247.393 145.017 257.178 132.886 258.242 118.626C259.093 103.94 239.948 80.3154 239.948 80.3154ZM238.672 128.416C235.906 133.524 237.395 144.591 236.544 146.72C235.693 148.848 233.779 149.7 233.779 149.7C233.779 149.7 235.481 161.405 232.29 165.449C229.099 169.28 194.426 171.834 170.814 145.868C170.814 145.868 176.345 156.085 178.259 157.574C178.259 157.574 169.325 168.642 157.838 159.064C157.838 159.064 158.902 140.76 163.156 136.291C163.156 136.291 210.167 107.345 216.549 108.622C222.93 109.899 235.906 110.325 238.884 110.325C241.65 110.325 241.437 123.521 238.672 128.416Z" transform="translate(246.891 284.061)" fill="#010101"/>
<path d="M92.794 89.0242C92.794 89.0242 104.494 127.973 86.4124 132.868C51.739 142.02 32.1688 121.375 19.4056 104.135C4.94069 84.5547 2.38805 68.3792 2.38805 68.3792C-5.48258 35.8155 6.85519 1.33624 28.3399 0.0592298C50.4627 -1.21778 71.9474 18.5759 71.9474 18.5759C71.9474 18.5759 47.0592 0.910582 27.9144 2.40043C8.98237 3.89027 -1.65361 35.8155 3.66439 66.2509C3.66439 66.2509 8.34421 85.406 22.171 103.071C22.171 103.071 46.2083 132.443 75.9891 128.399C75.9891 128.399 85.9869 126.909 86.4124 125.632C86.8378 124.355 83.8597 121.375 89.3905 111.798C94.9212 102.433 94.0703 99.4531 92.794 89.0242Z" transform="translate(149.205 257.043)" fill="#010101"/>
<path d="M16.3998 1.29904e-05C16.3998 1.29904e-05 -0.192324 26.3915 3.42391 39.1616C6.82743 51.7189 23.2069 65.3403 28.9503 69.597C28.9503 69.597 2.99849 53.8472 0.445849 41.29C-3.17039 23.199 16.3998 1.29904e-05 16.3998 1.29904e-05Z" transform="translate(162.635 295.199)" fill="#010101"/>
<path d="M4.2544 15.4947C4.2544 15.4947 14.6777 2.08613 16.1667 0.596286C17.6557 -1.10639 19.5702 1.02197 19.1448 4.64017C18.7193 8.25836 17.0176 16.7717 20.2084 19.7514C23.3992 22.7311 28.079 26.9878 28.9299 28.4776C29.9935 30.1803 29.9935 33.7985 26.1645 32.3087C24.6755 31.6702 12.125 24.0081 6.49169e-06 25.498C6.49169e-06 25.498 11.4869 23.5824 20.4211 27.4135C23.6119 28.6905 27.0154 26.9878 22.1229 23.3696C19.1448 21.2413 15.3158 17.8359 16.1667 14.4306C19.3575 1.44763 15.3158 3.78881 14.0395 4.85298C12.9759 6.12999 4.2544 15.4947 4.2544 15.4947Z" transform="translate(206.689 324.613)" fill="#010101"/>
<path d="M0.0242565 0.0212133C-1.03934 -0.617291 33.2085 13.217 37.0375 32.3721C37.0375 32.3721 28.9541 43.2267 23.2107 44.5037C23.2107 44.5037 26.8269 24.0716 18.9563 14.0683C18.7436 14.0683 14.7019 8.74744 0.0242565 0.0212133Z" transform="translate(174.119 266.023)" fill="#010101"/>
<path d="M-1.29834e-05 7.72784C-1.29834e-05 7.72784 12.7632 1.34281 13.6141 0.0658055C14.465 -1.2112 17.8684 16.4541 10.636 22.4135C10.636 22.4135 12.7632 14.1129 9.14694 6.238L-1.29834e-05 7.72784Z" transform="translate(200.518 307.91)" fill="#010101"/>
<path d="M331.684 142.174C331.684 142.174 367.846 139.832 378.695 111.313C378.695 111.313 374.866 121.103 358.699 126.637C358.699 126.637 364.443 117.698 363.592 101.309C363.592 101.309 376.355 92.5831 376.781 67.6815C376.781 67.6815 375.93 81.0901 366.783 92.1575C366.783 92.1575 379.121 58.5296 363.592 31.9252C363.592 31.9252 366.996 38.9488 363.592 55.5499C363.592 55.5499 364.656 31.4995 348.702 17.6653C348.702 17.6653 358.487 32.1381 355.721 59.5938C355.721 59.5938 352.531 41.29 340.618 30.8611C340.618 30.8611 353.594 45.3338 352.743 67.8943C352.743 67.8943 344.66 34.9049 327.43 21.0707C327.43 21.0707 329.557 23.199 330.195 25.3274C330.195 25.3274 323.175 17.2396 310.838 11.7059C310.838 11.7059 314.241 14.4728 315.092 15.3241C315.092 15.3241 307.434 10.2161 301.052 8.5134C301.052 8.5134 304.456 11.7059 305.307 13.8343C305.307 13.8343 298.287 11.9188 297.011 11.9188C297.011 11.9188 291.693 5.95938 287.438 4.04387C287.438 4.04387 290.416 7.44921 291.905 12.3444C291.905 12.3444 284.46 12.5573 282.546 11.9188L284.248 19.368C284.248 19.368 276.802 7.8749 270.208 4.04387C270.208 4.04387 271.484 6.38505 272.335 8.30056C273.186 10.2161 272.335 9.15189 272.335 9.15189L270.208 6.81071C270.208 6.81071 269.144 10.2161 268.932 11.0674C268.719 11.9187 264.89 10.0032 264.89 10.0032C264.89 10.0032 261.487 2.34119 258.508 3.2476e-06C258.508 3.2476e-06 260.21 6.81072 259.572 10.6417C259.572 10.6417 255.53 2.97969 248.511 3.2476e-06C248.511 3.2476e-06 250 1.27701 250.638 8.72623C250.638 8.72623 245.107 5.95937 244.043 5.74654C244.043 5.74654 245.958 7.87489 246.596 10.0032C246.596 10.0032 243.193 5.95937 240.002 3.83102C240.002 3.83102 241.278 6.81071 241.491 13.1958C241.491 13.1958 237.449 7.87488 234.897 7.02354C232.557 6.1722 231.068 7.02356 230.004 7.23639C228.94 7.44923 230.004 10.6417 230.004 10.6417L223.41 5.10804L224.899 10.0032C224.899 10.0032 221.921 6.38505 219.793 6.59788C217.879 6.81071 215.964 7.44922 215.752 8.72623C215.539 10.0032 215.752 12.7701 215.752 12.7701L209.37 5.95937L211.072 12.5573C211.072 12.5573 207.03 7.44922 203.201 5.53371C203.201 5.53371 204.478 7.87489 204.69 9.7904C204.69 9.7904 201.287 7.66205 200.223 6.81071C199.16 5.95937 198.947 13.8343 199.16 15.9626C199.16 15.9626 194.267 10.0032 188.311 6.17222C188.311 6.17222 189.374 10.0032 190.013 15.7498C190.013 15.7498 186.184 12.9829 184.482 12.7701C182.993 12.5573 178.738 13.8343 178.1 14.2599C177.462 14.6856 175.122 20.4321 174.484 20.645C173.846 20.8578 165.337 17.4525 165.337 17.4525C165.337 17.4525 126.197 20.4321 117.475 26.6044V20.8578C117.475 20.8578 98.3305 30.8611 93.0125 39.1616L95.1397 30.8611C95.1397 30.8611 56.4247 57.4654 44.5123 89.1778C44.5123 89.1778 24.5167 106.205 24.5167 108.333C24.5167 110.461 26.2184 119.613 26.2184 119.613C26.2184 119.613 20.475 114.292 17.9224 113.015C17.9224 113.015 19.1987 118.336 21.3259 122.167C23.4531 125.998 23.4531 125.998 23.4531 125.998L14.3061 117.272C14.3061 117.272 15.5825 130.255 13.8807 135.576C12.179 140.897 -20.7926 225.818 21.3259 335.641C21.3259 335.641 12.6044 262.425 53.0211 256.466C53.0211 256.466 84.5037 268.172 103.223 285.624C123.431 304.354 124.708 316.273 124.708 316.273C124.708 316.273 136.195 326.914 135.556 316.273C133.855 282.432 152.149 222.838 173.421 202.406L148.958 221.774L169.379 199.639L165.975 199.213C165.975 199.213 166.401 192.616 165.124 191.764C163.848 190.913 161.721 189.21 161.721 189.21L166.613 181.335L154.063 192.19C154.063 192.19 159.806 184.315 158.317 182.187C157.041 180.058 156.616 176.866 156.616 176.866L157.041 173.46L145.767 184.741L152.787 172.183C152.787 172.183 147.894 169.629 146.618 169.204C145.342 168.778 143.214 167.501 143.214 167.501L133.216 177.93C133.216 177.93 148.107 153.454 148.107 152.177C148.107 150.9 151.936 132.17 151.936 132.17C151.936 132.17 185.12 103.651 245.533 117.272C245.533 117.272 264.252 124.721 278.717 108.971C278.717 108.971 273.824 118.975 267.017 121.529C267.017 121.529 279.568 123.657 284.46 123.231C289.353 122.806 295.309 114.505 298.5 107.482C298.5 107.482 295.522 119.613 293.607 121.954C293.607 121.954 301.052 115.356 303.605 109.823C303.605 109.823 297.862 122.806 299.776 121.529C301.478 120.252 306.37 119.4 306.37 119.4C306.37 119.4 324.026 133.873 331.684 142.174Z" transform="translate(126.439)" fill="#010101"/>
<path d="M1.27631 232.841L6.49169e-06 229.223C0.425446 229.01 39.7786 215.602 44.033 191.339C46.7984 175.163 43.3948 156.859 41.6931 147.92C41.4803 146.643 41.2677 145.792 41.0549 144.941C37.0133 121.529 29.1426 98.7554 21.6974 76.6206C13.1886 51.9317 4.4671 26.3915 1.27631 0.425663L5.10527 0C8.29607 25.3273 17.0176 50.8675 25.3136 75.3435C32.9716 97.6912 40.8422 120.677 44.8839 144.302C45.0966 145.153 45.0966 146.005 45.522 147.282C47.2238 156.434 50.84 175.163 47.862 191.977C45.9475 203.257 37.4387 213.473 22.5483 222.625C11.9123 229.223 1.70175 232.628 1.27631 232.841Z" transform="translate(133.297 281.152)" fill="#010101"/>
<path d="M5.76116 74.2794C5.76116 74.2794 3.84667 24.6888 1.29403 -2.59808e-05L0.0177331 29.7969C0.0177331 30.0097 -0.620433 41.29 5.76116 74.2794Z" transform="translate(179.016 436.1)" fill="#010101"/>
<path d="M6.52509 0C6.52509 0 1.20709 46.8237 23.3299 77.4719C23.3299 77.4719 24.6063 110.674 25.2444 112.377C25.6699 114.079 1.41982 50.0162 0.143498 39.5873C-1.13282 29.3712 6.52509 0 6.52509 0Z" transform="translate(142.727 277.961)" fill="#010101"/>
<path d="M38.2896 1.29904e-05C38.2896 1.29904e-05 5.95615 55.337 0 66.6173C0 66.6173 28.9299 3.61819 31.0571 2.97969C33.1843 2.34118 38.2896 1.29904e-05 38.2896 1.29904e-05Z" transform="translate(368.777 560.18)" fill="#010101"/>
<path d="M127.632 84.2826L101.042 106.63L75.941 115.356H94.873L62.1142 166.65C62.1142 166.65 20.2084 130.681 0 86.8366C0 86.8366 22.5483 121.529 43.6075 139.407C44.2457 140.045 45.0966 140.684 45.7347 141.109C67.4322 158.349 17.0176 94.073 15.7412 84.2826C14.4649 74.4922 8.29606 1.29904e-05 8.29606 1.29904e-05C8.29606 1.29904e-05 32.7588 39.5873 127.632 84.2826Z" transform="translate(276.246 481.432)" fill="#010101"/>
<path d="M10.2105 1.29904e-05C10.2105 1.29904e-05 139.119 45.3338 148.904 53.6344C158.689 61.9349 163.369 67.043 165.921 71.0868C166.347 71.7253 168.261 73.8537 171.239 77.6847C187.193 98.1169 233.354 164.947 230.588 271.79C230.588 271.79 215.06 133.235 171.239 83.8569C171.239 83.8569 198.68 146.218 167.41 223.477C167.41 223.477 199.957 124.083 152.946 68.32C152.946 68.32 152.095 65.3403 152.946 68.32C152.946 68.32 165.071 60.6579 2.59668e-05 4.89519L10.2105 1.29904e-05Z" transform="translate(454.295 543.152)" fill="#010101"/>
<path d="M348.435 0C347.159 1.27701 241.437 55.5499 200.595 69.8098C159.753 83.8569 82.1098 108.333 76.7918 111.738C71.4738 115.144 46.3729 143.451 44.4584 151.964C44.4584 151.964 10.4233 185.805 4.05731e-07 239.014C4.05731e-07 239.014 15.7413 183.251 38.2896 171.119C60.8379 158.988 50.4146 152.177 50.4146 152.177C50.4146 152.177 74.8774 121.316 82.748 119.613C90.6186 117.911 129.759 114.505 156.774 158.988C156.774 158.988 146.351 124.934 95.7239 111.951C95.7239 111.951 199.957 75.7692 211.656 70.0227C222.292 64.4889 333.97 20.4321 337.586 14.8984C341.415 8.93906 348.435 0 348.435 0Z" transform="translate(-249.596 526.979)" fill="#010101"/>
<path d="M6.64946 39.1616C16.86 39.1616 38.3447 25.753 30.4741 2.59808e-05C30.4741 2.59808e-05 22.8162 15.9626 13.6692 17.0268C4.52226 18.091 0.906029 18.5166 0.906029 18.5166C0.906029 18.5166 -3.77382 28.0942 8.13849 34.9049C8.13849 34.9049 16.2218 33.8408 23.8797 20.2193C23.667 20.2193 21.3271 34.9049 6.64946 39.1616Z" transform="translate(214.93 372.037)" fill="#010101"/>
<path d="M3.24585e-06 90.242C70.1975 76.4077 232.503 1.0642 234.417 2.59808e-05L234.204 14.4728C226.972 17.8781 99.1274 78.7489 19.7829 100.245C14.0395 101.735 3.24585e-06 90.242 3.24585e-06 90.242Z" transform="translate(-149.408 549.756)" fill="#010101"/>
<path d="M-3.24585e-06 83.2185C78.0681 62.1478 208.253 0.851352 209.954 1.29904e-05L219.952 18.3038C213.145 21.4963 96.3621 69.1714 14.4649 93.8602L-3.24585e-06 83.2185Z" transform="translate(-123.453 569.758)" fill="#010101"/>
<path d="M3.61626 0L185.066 59.8066L184.003 67.4687L0 11.2802L3.61626 0Z" transform="translate(425.148 545.07)" fill="#010101"/>
<path d="M0 2.59808e-05L190.597 57.2526L188.044 65.9788L1.27633 13.1957L0 2.59808e-05Z" transform="translate(429.402 560.395)" fill="#010101"/>
<path d="M9.57239 20.4321C14.8591 20.4321 19.1448 15.8582 19.1448 10.2161C19.1448 4.57388 14.8591 -1.29904e-05 9.57239 -1.29904e-05C4.2857 -1.29904e-05 0 4.57388 0 10.2161C0 15.8582 4.2857 20.4321 9.57239 20.4321Z" transform="translate(397.494 255.402)" fill="#010101"/>
<path d="M50.5422 2.45258C50.5422 2.45258 15.6562 35.6548 87.9809 87.7994C160.306 140.157 230.503 183.575 230.503 183.575C230.503 183.575 314.527 139.944 326.865 52.0431L333.034 48.6378C333.034 48.6378 329.418 129.302 230.078 187.619C230.078 187.619 108.402 107.806 81.3865 89.5021C54.3711 71.1983 29.9084 44.1683 43.097 7.56067C43.097 7.56067 18.8469 9.47613 0.127602 36.5061C0.127602 36.5061 -3.48863 19.2665 27.7812 3.51675C27.3557 3.72959 43.5224 -3.71963 50.5422 2.45258Z" transform="translate(87.8633 508.139)" fill="#010101"/>
<path d="M0.645067 99.3939C-4.24749 60.2323 20.0026 45.9723 29.1495 43.4183C38.0838 40.8643 37.0202 31.9252 46.5925 19.5808C56.3777 7.02354 97.858 2.59808e-05 97.858 2.59808e-05C99.3471 9.15193 82.9676 28.5199 82.9676 28.5199L75.9479 36.3947C50.847 55.9755 48.7197 89.1778 48.7197 89.1778C48.7197 89.1778 38.2965 74.7051 43.4018 52.1446C43.6145 52.1446 5.96306 46.6108 0.645067 99.3939Z" transform="translate(83.9414 468.875)" fill="#010101"/>
<path d="M37.4625 2.59808e-05C37.4625 2.59808e-05 -1.03981 36.6076 11.9361 73.2152C11.9361 73.2152 -9.12318 44.9081 4.7036 17.4524C4.7036 17.4524 30.8682 3.83105 37.4625 2.59808e-05Z" transform="translate(129.871 496.545)" fill="#010101"/>
<path d="M1.29834e-05 4.25669C1.29834e-05 4.25669 2.76537 7.87488 7.44521 6.8107C10.4233 6.1722 11.6996 1.91551 11.4869 -6.4952e-06C11.4869 -6.4952e-06 12.7632 7.87488 7.01974 8.93905C2.12719 9.57756 1.29834e-05 4.25669 1.29834e-05 4.25669Z" transform="translate(399.838 265.621)" fill="#764D1E"/>
<path d="M1.11779 0.0417611C0.266915 0.254596 -0.158525 0.893094 0.0541952 1.5316C0.0541952 1.74443 0.266941 1.95727 0.479661 2.17011C0.0542212 2.59578 0.0541822 3.4471 0.905061 3.4471C1.54322 3.4471 1.75598 2.80859 1.54326 2.38293C1.54326 2.38293 1.54327 2.38293 1.75599 2.38293C2.18143 2.17009 2.60686 1.74444 2.60686 1.10594C2.81958 0.467431 1.96867 -0.171074 1.11779 0.0417611Z" transform="translate(405.738 264.301)" fill="white"/>
<path d="M1.11783 -1.29904e-05C0.266954 -1.29904e-05 -0.158486 0.851352 0.0542342 1.48986C0.0542342 1.70269 0.266915 1.9155 0.479635 2.12834C0.905074 2.55401 1.54326 2.55401 1.9687 2.12834C2.18142 1.9155 2.18138 1.70269 2.3941 1.48986C2.60682 0.638518 1.96871 -1.29904e-05 1.11783 -1.29904e-05Z" transform="translate(489.34 274.557)" fill="white"/>
<path d="M0 0.906698C0.42544 0.481028 0.425433 0.0553711 0.425433 0.0553711C0.425433 -0.157464 0.42544 0.268193 0 0.906698Z" transform="translate(192.225 202.994)" fill="#3E3231"/>
<path d="M0 0.425696C0.212701 0.212841 0.425396 -6.4958e-06 0.425396 -6.4958e-06C0.425396 -6.4958e-06 0.212701 0.212841 0 0.425696Z" transform="translate(253.912 163.459)" fill="#3E3231"/>
<path d="M1.29834e-05 -1.29904e-05C0.425453 0.638492 0.850905 1.27702 1.27634 1.48986C1.27634 1.48986 0.638172 0.851327 1.29834e-05 -1.29904e-05Z" transform="translate(327.514 454.402)" fill="#3E3231"/>
<path d="M226.334 317.55C224.419 275.621 234.417 257.956 234.417 257.956C232.077 256.679 217.612 249.655 217.612 249.655L222.292 255.402C216.123 253.273 192.724 234.331 192.724 234.331C193.362 235.608 203.998 246.888 203.998 246.888C194.213 242.419 176.557 225.179 176.557 225.179C177.621 226.456 185.279 237.949 185.279 237.949C170.814 227.095 152.733 202.619 152.733 202.619L158.264 215.815C120.825 174.737 119.761 146.643 122.101 131.958C125.505 115.356 132.099 88.965 143.799 65.9788C143.799 65.9788 131.461 74.9179 123.165 89.8163C123.165 89.8163 131.674 66.6173 153.796 45.5467C153.796 45.5467 136.992 58.9553 134.226 61.7221C134.226 61.7221 153.584 43.844 153.796 43.2055C154.009 42.567 153.796 37.0333 153.796 37.0333L150.393 34.6921L136.353 50.0162L146.989 34.6921L133.801 45.5467L145.713 28.5199C145.713 28.5199 143.799 24.0503 143.799 23.199L127.419 37.4589L139.331 16.6011L132.737 12.9829L110.614 35.5434L131.248 6.4952e-06C131.248 6.4952e-06 109.551 16.1754 100.616 27.03C100.616 27.03 112.741 9.36474 115.507 6.38505C111.678 9.79041 86.1515 33.4151 80.4081 39.3745L91.2568 22.9862C91.2568 22.9862 63.6032 50.229 62.5396 51.7189L74.0265 33.2022C74.0265 33.2022 50.4146 57.8911 49.351 58.9553C49.351 58.9553 52.3291 49.3777 53.6054 46.398C50.2019 51.7189 30.6316 78.9617 29.1426 81.3029L41.9058 56.4012L21.9101 87.9008L22.3356 76.4077C22.3356 76.4077 11.4869 104.502 10.636 112.377C10.636 112.377 11.0614 95.1372 11.6996 93.6473C11.6996 93.6473 4.46713 114.079 6.16889 127.062C6.16889 127.062 4.2544 116.208 4.89255 109.397C4.89255 109.397 1.70175 121.529 3.61622 133.66C3.61622 133.66 -6.49169e-06 123.019 -6.49169e-06 121.316C-6.49169e-06 121.316 0.425433 142.174 4.25439 156.221L4.04169 148.559C4.04169 148.559 7.87063 168.565 12.3377 182.825C16.8049 197.085 26.1645 218.794 26.3773 219.433C26.59 220.071 25.9518 200.278 25.3137 199.213C19.9957 188.359 7.87065 167.714 10.4233 142.387C12.3378 124.083 21.272 95.35 45.0966 97.0527C45.0966 97.0527 61.9015 98.5425 88.9169 120.039C99.3401 128.339 105.722 136.214 109.338 141.535C109.976 142.387 110.402 143.025 110.827 143.876C118.272 157.072 132.312 200.916 132.312 200.916L126.568 191.977C129.759 200.916 131.461 230.074 131.461 230.074C131.461 230.074 131.461 230.074 131.461 230.287C131.461 230.074 133.163 220.497 133.163 220.497C132.524 224.754 135.715 250.081 135.715 250.081C135.29 247.101 136.353 242.419 136.353 242.419C137.63 259.659 148.691 269.236 148.691 269.236C146.777 267.108 142.097 254.338 142.097 254.338C146.989 261.574 160.603 279.452 160.603 279.452C158.902 276.898 149.329 258.382 149.329 258.382C160.178 271.152 175.281 287.114 175.281 287.114C171.452 282.645 161.242 263.49 161.242 263.49C168.687 272.641 184.215 291.797 188.682 297.543C183.364 290.094 173.579 269.236 173.579 269.236C181.875 278.175 201.446 305.631 201.446 305.631C199.744 303.29 188.044 276.047 188.044 276.047C195.915 284.56 213.571 312.442 213.571 312.442C207.615 302.225 198.893 279.665 198.893 279.665C209.954 299.033 222.079 317.762 222.079 317.762C218.463 304.78 216.549 290.945 217.4 277.962C217.4 291.797 226.334 317.55 226.334 317.55Z" transform="translate(138.404 157.287)" fill="#3E3231"/>
<path d="M108.7 80.8773C108.062 80.6644 118.272 88.7521 117.209 102.799C117.209 102.799 116.783 97.4784 114.656 92.796C114.656 92.796 116.145 98.3297 113.167 109.184C113.167 109.184 113.592 104.076 113.167 101.735C113.167 101.735 112.529 107.482 108.913 113.654C108.913 113.654 110.614 110.036 110.189 103.438C110.189 103.438 108.487 114.505 100.191 121.742C100.191 121.742 106.36 115.144 107.211 101.948C107.211 101.948 106.147 109.184 100.191 115.782C100.191 115.782 102.318 111.738 102.744 108.333C102.744 108.333 99.1274 116.208 92.7458 119.826C92.7458 119.826 98.2765 115.144 99.9783 104.502C99.9783 104.502 98.2765 114.718 85.7261 120.252C85.7261 120.252 90.6186 117.059 92.7458 108.12C92.7458 108.12 87.4278 116.846 75.941 121.103C75.941 121.103 79.9826 117.911 81.0462 115.995C81.0462 115.995 75.0901 120.89 69.5594 121.742C69.5594 121.742 72.7501 118.975 73.601 116.421C73.601 116.421 71.0484 118.975 64.8795 120.89C64.8795 120.89 69.1339 117.485 71.0484 110.036C71.0484 110.036 66.1558 118.123 60.6251 120.677C60.6251 120.677 64.2414 116.208 64.4541 110.461C64.4541 110.461 61.9015 117.698 58.2852 120.039C58.2852 120.039 59.7743 115.782 59.1361 112.164C59.1361 112.164 58.2852 117.485 51.6909 122.167C51.6909 122.167 54.4562 119.613 54.2435 111.738C54.2435 111.738 54.0308 113.654 53.3927 114.931C53.3927 114.931 54.0308 107.482 49.351 101.309C49.351 101.309 50.84 103.863 50.2019 110.036C50.2019 110.036 50.4146 100.458 43.1821 94.2858C43.1821 94.2858 45.522 97.2655 45.7347 104.715C45.7347 104.715 45.9475 98.9682 40.2041 94.2858C40.2041 94.2858 42.9694 97.904 42.7567 103.012C42.7567 103.012 41.4803 96.8399 38.5023 94.2858C38.5023 94.2858 39.3532 97.904 36.5878 101.735C36.5878 101.735 37.4387 98.9682 37.0133 96.4142C37.0133 96.4142 36.1624 102.374 32.7589 105.14C32.7589 105.14 36.3751 101.097 34.2479 87.2623C34.2479 87.2623 35.0987 93.4345 32.1207 98.7554C32.1207 98.7554 34.2479 93.0088 32.1207 83.8569C32.1207 83.8569 32.3334 87.688 29.5681 93.6474C29.5681 93.6474 30.6316 90.4548 29.9935 84.9211C29.9935 84.9211 29.568 88.3265 26.5899 91.3062C26.5899 91.3062 28.5045 87.688 27.4409 80.4516C27.4409 80.4516 27.4408 83.4313 26.5899 85.3468C26.5899 85.3468 26.8027 79.3874 25.3137 75.5564C25.3137 75.5564 26.8027 81.7286 22.1229 89.3907C22.1229 89.3907 24.0373 83.4313 23.6119 78.5361C23.6119 78.5361 23.3992 83.2184 18.2939 85.9853C18.2939 85.9853 22.1229 83.8569 24.2501 73.0023C24.2501 73.0023 22.5483 77.4719 17.6558 80.2387C17.6558 80.2387 21.4847 75.7692 23.1865 70.874C23.1865 70.874 18.5066 76.8334 11.0614 78.3232C11.0614 78.3232 19.783 73.428 24.0373 65.3403C24.0373 65.3403 18.0812 71.9382 9.57236 73.428C9.57236 73.428 17.8685 69.3841 22.9737 60.2323C22.9737 60.2323 18.0812 66.8302 9.57236 68.32C9.57236 68.32 17.0176 62.9991 21.2719 53.6344C21.2719 53.6344 14.8904 62.1478 9.57236 64.489C9.57236 64.489 15.954 58.1039 18.2939 48.3135C18.2939 48.3135 14.2522 56.4012 6.5943 60.0194C6.5943 60.0194 11.6996 55.5499 13.4014 48.3135C13.4014 48.3135 11.6996 51.2932 8.93423 51.9317C8.93423 51.9317 12.5505 48.1007 13.4014 43.6312C13.4014 43.6312 10.2105 47.0365 8.7215 47.8879C8.7215 47.8879 12.5505 41.5028 15.1031 32.3509C15.1031 32.3509 11.2742 39.8001 4.0417 43.844C4.0417 43.844 9.78512 36.8204 14.465 28.7327C16.1667 25.9659 17.6558 22.7733 18.9321 20.0065C18.9321 20.0065 9.14692 33.6279 -2.59668e-05 40.2258C-2.59668e-05 40.2258 11.0614 30.0097 17.2303 17.2396C17.8684 16.1755 18.2939 14.8985 18.7194 13.8343C18.7194 13.8343 11.0614 26.1787 1.70177 32.7766C1.70177 32.7766 20.6338 11.2803 25.9518 1.29904e-05C25.9518 1.29904e-05 22.761 13.6214 18.7194 17.6653C18.7194 17.6653 21.6974 14.6856 22.5483 13.6214C22.5483 13.6214 19.5702 22.9862 15.3158 29.584C15.3158 29.584 19.5702 25.753 20.6338 24.476C20.6338 24.476 17.443 35.5434 13.6141 40.8643C13.6141 40.8643 20.2084 34.4792 22.5483 29.584C22.5483 29.584 19.1448 40.2258 14.8904 44.9082C14.8904 44.9082 22.1229 38.9488 25.1009 32.9894C25.1009 32.9894 23.1865 40.013 22.1229 41.7157C22.1229 41.7157 27.6536 35.9691 28.5045 34.0536C28.5045 34.0536 25.7391 43.2054 22.3355 46.1851C22.3355 46.1851 29.568 38.7359 31.0571 35.5434C31.0571 35.5434 26.8027 44.9082 23.3991 47.8879C23.3991 47.8879 33.6097 39.5873 36.1623 35.1178C36.1623 35.1178 32.5461 44.4825 29.3553 46.8237C29.3553 46.8237 33.397 44.0568 34.6733 43.2055C34.6733 43.2055 28.7172 55.3371 28.2917 59.3809C28.2917 59.3809 31.2698 54.06 34.0351 51.506C34.0351 51.506 31.6952 57.8911 31.9079 61.5093C31.9079 61.5093 33.397 57.8911 35.0987 56.1884C35.0987 56.1884 32.7588 64.9146 33.1843 69.1713C33.1843 69.1713 34.4606 63.6376 35.7369 61.2964C35.7369 61.2964 34.886 67.8943 36.3751 71.2997C36.3751 71.2997 38.2896 67.2558 41.2677 64.2761C41.2677 64.2761 39.3531 69.597 40.4167 75.3435C40.4167 75.3435 41.6931 68.5328 47.4365 60.0194C47.4365 60.0194 43.1821 70.0226 45.5221 80.2387C45.5221 80.2387 45.7347 69.1714 49.1383 64.0633C49.1383 64.0633 49.351 71.7253 49.5637 72.7895C49.5637 72.7895 50.6273 67.6815 51.9036 66.6173C51.9036 66.6173 50.6273 74.2793 52.7545 80.2387C52.7545 80.2387 52.9672 72.5767 55.0944 69.1713C55.0944 69.1713 54.2435 75.5564 55.7326 80.0259C55.7326 80.0259 56.158 74.4922 58.7106 71.7253C58.7106 71.7253 57.2216 77.8976 58.0725 84.9211C58.0725 84.9211 58.4979 78.1104 61.6887 74.9178C61.6887 74.9178 59.1361 81.0901 60.1997 88.3265C60.1997 88.3265 61.0506 78.5361 65.5177 74.4922C65.5177 74.4922 63.6032 78.1104 63.8159 83.0056C63.8159 83.0056 66.1559 75.5564 73.1756 71.2997C73.1756 71.2997 68.7085 75.3435 67.2194 82.5799C67.2194 82.5799 71.0484 74.4922 76.1537 72.3639C76.1537 72.3639 73.6011 75.5564 72.9629 77.0462C72.9629 77.0462 77.0046 72.5767 78.4936 72.5767C78.4936 72.5767 77.0045 74.0665 76.7918 76.4077C76.7918 76.4077 78.919 72.5767 79.9826 72.3639C79.9826 72.3639 84.0243 72.5767 87.0024 77.6847C87.0024 77.6847 85.3006 73.2152 83.1734 72.3639C83.1734 72.3639 88.066 73.428 91.8949 79.3874C91.8949 79.3874 90.1932 73.6409 87.4278 71.9382C87.4278 71.9382 92.9586 75.7692 97.6384 82.3671C97.6384 82.3671 95.0858 77.4719 90.1932 71.2997C90.1932 71.2997 103.807 80.8773 107.849 91.519C107.849 91.519 104.445 77.6847 94.873 71.2997C94.873 71.2997 101.255 73.428 105.296 79.3874C105.296 79.3874 102.106 71.7254 95.5112 67.2558C95.5112 67.2558 104.233 72.7895 105.722 74.4922C105.722 74.4922 101.042 65.9788 95.7239 63.2119C95.7239 63.2119 103.382 66.8301 107.636 72.151C107.636 72.151 105.509 63.6376 100.404 59.5938C100.404 59.5938 116.57 68.32 118.485 85.3468C118.485 85.3468 115.932 77.8976 109.338 72.3639C109.338 72.3639 116.57 81.0901 117.634 87.6879C117.634 87.6879 113.167 79.1745 107.849 77.0462C107.849 77.0462 115.72 84.0698 117.847 92.1575C118.272 91.7318 113.592 83.0056 108.7 80.8773Z" transform="translate(381.117 416.516)" fill="#3E3231"/>
<path d="M6.80703 0.00569468C6.59431 -0.20714 16.5922 5.53936 16.5922 20.6506C16.5922 20.6506 16.5921 16.1811 12.9759 11.2859C12.9759 11.2859 16.1667 17.671 15.7413 25.5459C15.7413 25.5459 15.5285 20.4378 12.125 15.5426C12.125 15.5426 14.4649 22.779 14.2522 30.4411C14.2522 30.4411 13.4013 23.2047 9.99783 18.5223C9.78511 18.3095 9.78508 18.3095 9.57236 18.0967C9.57236 18.0967 12.125 23.4175 12.7632 36.1876C12.7632 36.1876 12.125 33.4208 10.2106 30.6539C10.2106 30.6539 12.125 34.9106 13.1886 45.3395C13.1886 45.3395 12.3378 38.9544 8.2961 34.6978C8.2961 34.6978 11.9123 41.9341 13.4014 51.7245C13.4014 51.7245 11.4869 45.1267 9.3597 42.3598C9.3597 42.3598 13.1886 51.2989 14.0395 57.684C14.0395 57.684 12.5505 52.3631 11.2742 50.8732C11.2742 50.8732 13.1886 57.8967 13.4014 58.9609C13.6141 60.2379 13.4014 59.3866 13.4014 59.3866C13.4014 59.3866 6.80701 46.1908 -2.59668e-05 39.1673C-2.59668e-05 39.1673 7.44522 45.5524 9.3597 49.1706C9.3597 49.1706 5.31797 40.6571 1.06357 35.9748C1.06357 35.9748 6.5943 40.0187 8.7215 44.9139C8.7215 44.9139 6.38158 37.8903 3.4035 33.6336C3.4035 33.6336 8.50879 38.9545 8.93423 40.4443C8.93423 40.4443 7.23247 33.4208 4.67984 30.0154C4.67984 30.0154 8.93422 32.9951 9.7851 34.2721C9.7851 34.2721 8.7215 29.3769 6.5943 26.6101C6.5943 26.6101 9.35966 28.3127 9.7851 28.9513C9.7851 28.9513 8.50882 23.8432 7.2325 21.7148C7.2325 21.7148 9.57239 23.6303 9.99783 24.9073C9.99783 24.9073 8.93424 16.8196 7.01977 13.6271C7.01977 13.6271 10.636 16.1811 11.2742 17.671C11.2742 17.671 10.4233 11.7116 8.2961 8.94472C8.2961 8.94472 11.6996 10.2218 12.5505 14.0528C12.5505 14.0528 9.9978 6.81637 7.44517 3.62385C7.44517 3.62385 11.4869 5.53936 12.5505 8.94472C12.9759 9.37039 10.4233 3.19822 6.80703 0.00569468Z" transform="translate(485.352 436.73)" fill="#3E3231"/>
<path d="M16.1667 24.6888C16.3794 26.6043 18.0812 20.0065 18.0812 20.0065C18.2939 21.922 18.0812 25.1145 18.0812 25.1145C19.3575 22.3477 19.9957 19.1551 19.9957 19.1551C20.4211 22.3476 19.5702 25.753 19.5702 25.753C20.6338 24.2632 21.4847 21.2835 21.4847 21.2835C21.9101 22.7733 21.4847 25.1145 21.4847 25.1145C22.5483 23.8375 22.761 21.7092 22.761 21.7092C23.6119 23.199 24.2501 25.753 24.2501 25.753C24.6755 24.2632 24.2501 22.1349 24.2501 22.1349C25.5264 24.2632 25.7391 27.2429 25.7391 27.2429C26.3772 25.5402 26.59 23.8375 26.59 23.8375C27.2282 25.3273 27.2281 27.8814 27.2281 27.8814C28.079 26.1787 28.079 23.4118 28.079 23.4118C29.3553 26.3915 28.079 30.2225 28.079 30.2225C30.2062 27.6685 30.2062 21.4963 30.2062 21.4963C31.0571 26.8172 29.3553 30.861 29.3553 30.861C32.1207 27.4557 31.908 22.1349 31.908 22.1349C32.7589 27.2429 31.0571 30.861 31.0571 30.861C33.397 28.9455 34.0352 22.1349 34.0352 22.1349C35.0988 26.6044 32.7589 30.4354 32.7589 30.4354C35.0988 28.0942 36.5878 20.8578 36.5878 20.8578C37.4387 25.9659 34.6733 30.4354 34.6733 30.4354C36.5878 29.1584 39.3532 20.645 39.3532 20.645C39.7786 24.9017 37.0133 30.4354 37.0133 30.4354C40.6295 27.2429 42.1185 20.0065 42.1185 20.0065C42.544 25.753 40.6294 30.4354 40.6294 30.4354C44.4584 24.6889 44.6712 17.2396 44.6712 17.2396C45.5221 23.4118 43.6076 29.3712 43.6076 29.3712C46.3729 26.1787 47.4365 20.645 47.4365 20.645C47.8619 23.4118 46.7984 28.307 46.7984 28.307C49.7765 23.8375 50.6273 17.8782 50.6273 17.8782C50.84 18.9423 51.0528 22.5605 51.0528 22.5605C52.3291 18.7295 52.329 13.6215 52.329 13.6215C53.1799 15.7498 53.18 21.2835 53.18 21.2835C54.4563 16.3883 54.0308 11.0674 54.0308 11.0674C55.9453 14.8984 55.5198 19.368 55.5198 19.368C56.7962 13.4086 56.158 9.79039 56.158 9.79039C57.8598 12.5572 58.498 17.0268 58.498 17.0268C59.1361 11.2802 56.5834 7.02356 56.5834 7.02356C59.1361 9.79042 60.6252 14.0471 60.6252 14.0471C59.987 7.23637 54.0308 2.55402 54.0308 2.55402C54.0308 2.55402 55.0944 3.831 55.3072 5.32085C55.3072 5.32085 53.8181 3.831 52.7545 3.1925C52.7545 3.1925 54.8817 5.74655 55.5198 8.08774C55.5198 8.08774 53.8181 5.32085 52.329 4.25667C52.329 4.25667 53.3926 5.74654 54.4562 8.93906C54.4562 8.93906 52.9672 6.17222 51.4782 4.89522C51.4782 4.89522 52.5418 7.02355 53.18 11.0674C53.18 11.0674 51.4782 6.59786 49.9892 5.32085C49.9892 5.32085 51.2654 9.15187 51.4782 13.8342C51.4782 13.8342 50.4146 7.87489 48.9256 5.74654C48.9256 5.74654 48.9256 7.66205 48.7128 10.0032C48.7128 10.0032 48.5001 7.44923 47.6492 5.95939C47.6492 5.95939 47.8619 8.51341 47.011 11.2803C47.011 11.2803 47.0111 8.51339 46.1602 6.81072C46.1602 6.81072 46.1602 9.15187 45.3093 11.7059C45.3093 11.7059 45.0966 8.51341 44.6712 7.02356C44.6712 7.02356 44.2457 9.36476 43.8202 10.4289C43.8202 10.4289 43.6076 7.66207 43.3948 7.02356C43.3948 7.02356 42.7567 9.57757 42.544 10.0032L42.3312 7.02356C42.3312 7.02356 41.4804 9.57757 41.4804 10.0032L41.2676 7.02356C41.2676 7.02356 40.6295 9.15193 39.7786 10.4289C39.7786 10.4289 39.7786 7.87492 39.7786 7.23641C39.7786 7.23641 38.9277 9.36473 37.6514 11.0674C37.6514 11.0674 38.5023 8.93905 38.2896 7.66204C38.2896 7.66204 37.6514 8.93906 37.226 10.0032L37.0133 7.44919C37.0133 7.44919 35.9497 9.15189 35.9497 9.79039L35.7369 7.44919C35.7369 7.44919 34.8861 10.0032 35.0988 10.6417C35.0988 10.6417 34.6733 8.08771 34.6733 7.66204C34.6733 7.66204 33.8225 9.57758 33.8225 10.2161L33.6097 7.02356C33.6097 7.02356 31.6953 9.79042 31.908 11.2803C31.908 11.2803 31.2698 8.08772 31.4825 6.81072C31.4825 6.81072 30.4189 10.2161 30.4189 10.8546L29.9935 7.02356C29.9935 7.02356 28.9299 10.4289 28.9299 11.2803C28.9299 11.2803 28.5045 7.44921 28.7172 6.59787C28.7172 6.59787 27.4408 8.51339 27.0154 10.0032C27.0154 10.0032 26.8027 7.44925 27.4409 6.17224C27.4409 6.17224 25.7391 9.15193 25.5264 10.4289C25.5264 10.4289 25.7391 6.81074 25.7391 6.17224C25.7391 6.17224 23.8246 9.36476 23.8246 10.4289V5.95939C23.8246 5.95939 22.3356 9.36475 22.3356 10.2161L22.1229 5.32085C22.1229 5.32085 20.4211 9.57758 20.4211 11.2803C20.4211 11.2803 19.783 7.44919 19.9957 5.32085C19.9957 5.32085 18.7193 8.08772 18.5066 10.0032C18.5066 10.0032 17.8685 5.95939 18.0812 4.89522C18.0812 4.89522 17.0176 8.72626 17.0176 9.36476C17.0176 9.36476 15.954 4.04386 16.1667 3.61819C16.1667 3.61819 15.1031 6.59791 15.1031 7.23641L14.6777 2.34117C14.6777 2.34117 13.8268 6.17218 13.6141 7.44919V2.34117C13.6141 2.34117 11.4869 6.17222 11.4869 7.02356C11.6996 7.8749 11.6996 7.87489 11.6996 7.87489L11.4869 1.277C11.4869 1.277 9.14695 6.1722 9.14695 6.59787C8.93423 7.23637 9.14695 -2.59808e-05 9.14695 -2.59808e-05C9.14695 -2.59808e-05 0.638185 8.30055 2.59668e-05 17.2396C2.59668e-05 17.2396 1.27629 11.7059 4.46709 8.30059C4.46709 8.30059 1.91449 12.3444 1.91449 17.0268C1.91449 17.0268 3.19078 11.4931 6.80702 6.81072C6.80702 6.81072 4.89254 11.4931 4.67982 15.9626C4.67982 15.9626 6.59431 11.0674 8.08335 9.57754C8.08335 9.57754 7.23247 12.3444 7.01975 15.9626C7.01975 15.9626 8.08333 12.5572 9.78508 9.79039C9.78508 9.79039 8.7215 14.6856 8.93422 16.6011C8.93422 16.6011 10.4232 12.5573 10.8487 11.4931C10.8487 11.4931 9.99783 16.3883 10.2105 19.1551C10.2105 19.1551 11.0615 14.2599 11.6996 13.1958C11.6996 13.1958 11.2742 19.5808 11.4869 21.2835C11.4869 21.2835 11.9123 17.8781 13.4013 15.3241C13.4013 15.3241 12.5505 19.5808 12.7632 21.922C12.7632 21.922 14.0395 17.4524 14.8904 15.9626C14.8904 15.9626 13.8268 21.7092 14.0395 22.7733C14.0395 22.7733 15.3158 18.0909 16.1667 17.0268C16.1667 17.0268 15.1031 22.3476 15.3158 23.4118C15.3158 23.4118 17.0176 19.1551 17.6557 18.5166C17.0176 19.368 16.1667 23.8375 16.1667 24.6888Z" transform="translate(427.703 449.934)" fill="#3E3231"/>
<path d="M0 65.5531L27.0154 28.9456C27.0154 28.9456 24.0374 35.5434 23.8246 36.3948C23.8246 36.3948 34.4606 22.1348 37.0132 20.8578C37.0132 20.8578 32.5461 26.1787 31.908 27.4557C31.908 27.4557 38.5023 20.4322 41.2676 18.3038C41.2676 18.3038 38.0769 22.1348 37.6514 23.4118C37.6514 23.4118 41.9058 18.3038 45.0966 16.3883C45.0966 16.3883 41.0549 21.4963 39.9913 22.9861C39.9913 22.9861 46.7983 15.9626 48.7128 14.8984C48.7128 14.8984 45.9475 18.091 45.7347 18.5167L50.2019 14.8984C50.2019 14.8984 43.3949 25.1145 41.9058 28.7327C41.9058 28.7327 46.3729 23.4118 46.5856 23.199C46.5856 23.199 44.6712 28.0942 44.6712 28.5199C44.6712 28.5199 57.8598 11.0674 61.0506 8.5134C61.0506 8.5134 59.3488 11.2802 59.1361 11.7059C59.1361 11.7059 63.3905 7.2364 65.7304 5.53372C65.7304 5.53372 62.3269 10.8546 62.1142 11.4931C62.1142 11.4931 69.3466 4.04385 70.8357 2.97968C70.8357 2.97968 67.0067 8.51338 64.8795 11.4931C64.8795 11.4931 72.3247 3.19252 76.3664 1.06417C76.3664 1.06417 72.112 7.02356 71.8993 7.66207C71.8993 7.66207 79.3445 0.212835 79.9826 0C79.9826 0 76.5791 5.9594 75.941 6.81074C75.941 6.81074 81.2589 0.638531 81.6844 0.425696C81.6844 0.425696 81.259 2.9797 81.0462 3.40537L82.9607 0.851326C82.9607 0.851326 83.3861 4.89522 82.9607 5.53372C82.9607 5.53372 84.6624 2.55399 84.6624 1.70265C84.6624 1.70265 84.6625 3.83101 84.0243 7.23637C84.0243 7.23637 85.7261 3.40538 85.9388 2.55404C85.9388 2.55404 85.7261 5.95935 85.5134 8.0877C85.5134 8.0877 85.5134 8.7262 85.5134 8.0877C85.5134 7.44919 87.2151 2.97968 87.2151 2.97968C87.2151 2.97968 86.7897 6.59791 86.577 8.93909C86.577 8.93909 89.1296 3.83104 89.1296 3.40537C89.1296 2.9797 88.066 7.87492 87.8532 8.93909C87.8532 8.93909 90.4059 6.17224 90.6186 5.74657C90.6186 5.3209 89.555 9.7904 88.4914 13.8343L93.1712 5.53372C93.1712 5.53372 89.9804 14.2599 89.9804 14.6856L93.5967 6.59789L90.6186 15.1113C90.6186 15.1113 93.384 7.2364 93.5967 6.59789C93.5967 6.59789 91.4695 15.3241 91.895 15.7498C92.3204 15.9626 91.895 15.7498 91.895 15.7498L94.873 9.36472C94.873 9.36472 93.1712 13.8343 93.1712 14.6856L95.7239 9.15187C95.7239 9.15187 95.0857 17.8782 94.6603 18.5167C94.6603 18.5167 94.2348 17.6653 94.4476 16.3883C94.4476 16.3883 94.0221 20.4321 92.3204 22.9861C92.3204 22.9861 92.7458 21.7091 92.7458 20.8578C92.7458 20.8578 91.8949 22.3477 91.044 23.4118C91.044 23.4118 91.8949 21.7092 92.1076 20.2193C92.1076 20.2193 90.6186 22.3476 89.7678 22.9861C89.7678 22.9861 90.4059 20.8578 90.4059 20.2193C90.4059 20.2193 88.9169 22.1348 87.6406 23.4118C87.6406 23.4118 88.4914 21.4963 88.7042 20.2193C88.7042 20.2193 87.2151 22.7733 86.7896 23.4118C86.7896 23.4118 87.4278 19.7936 87.4278 17.8781C87.4278 17.8781 86.7896 21.0706 85.9388 21.922C85.9388 21.922 86.3642 17.6653 86.1515 14.8984C86.1515 14.8984 85.5133 18.091 84.8752 19.5808C84.8752 19.5808 84.8752 15.3241 84.6624 13.4086C84.6624 13.4086 84.237 16.8139 83.5988 17.8781C83.5988 17.8781 83.8116 12.9829 83.8116 11.2802C83.8116 11.2802 82.9607 15.3241 82.5352 16.6011C82.5352 16.6011 82.748 11.7059 82.3226 8.72624C82.3226 8.72624 80.8335 13.6214 80.6208 14.8984C80.6208 14.8984 81.259 9.1519 81.259 7.44922C81.259 7.44922 80.1954 12.3444 78.7063 15.1113C78.7063 15.1113 79.7699 9.36475 79.7699 7.66207C79.7699 7.66207 78.2809 11.2803 75.5155 16.1755C75.5155 16.1755 77.8555 9.36472 78.0682 8.30055C78.0682 8.30055 74.4519 15.5369 69.7721 20.8578C69.7721 20.8578 74.0265 12.5573 74.4519 11.0674C74.4519 11.0674 68.9212 20.8578 65.5177 24.9017C65.5177 24.9017 70.8357 14.4728 71.4739 12.1316C71.4739 12.1316 62.7523 25.5402 57.2216 30.4354C57.2216 30.4354 66.1559 14.8984 67.2195 12.5572C67.2195 12.5572 56.7962 28.3071 50.4146 33.4151C50.4146 33.4151 61.2633 15.7498 62.7523 12.5572C62.7523 12.5572 46.7983 35.1178 41.0549 38.736C41.0549 38.736 54.2435 21.7091 56.3707 17.6653C56.3707 17.6653 41.9058 34.9049 37.6514 38.3103C37.6514 38.3103 42.9694 30.2225 43.6076 29.3712C43.6076 29.3712 32.7588 41.5028 29.3553 44.6953C29.3553 44.6953 38.2895 31.7124 40.204 28.307C40.204 28.307 20.6338 53.6344 16.3794 57.0397C16.3794 57.0397 26.59 42.567 29.9935 37.0333C29.9935 37.0333 10.2106 60.0194 7.65792 61.935C7.65792 61.935 20.8465 44.2697 22.3356 41.5028C22.1229 41.0771 3.40352 62.7863 0 65.5531Z" transform="translate(375.16 367.354)" fill="#3E3231"/>
<path d="M26.59 63.4248C26.59 63.4248 24.0374 54.6986 20.6338 51.9317C20.6338 51.9317 23.6119 54.6985 24.4628 55.9756C24.4628 55.9756 22.761 50.6547 21.272 48.7392C21.272 48.7392 23.8246 52.5702 25.1009 54.2729C25.1009 54.2729 23.6119 47.4622 22.1228 45.5467C22.1228 45.5467 25.7391 49.8033 26.59 51.506C26.59 51.506 24.8882 43.844 23.6119 41.7157C23.6119 41.7157 26.3772 44.9081 27.2281 46.1851C27.2281 46.1851 25.1009 38.9488 24.0373 37.6717C24.0373 37.6717 27.6536 41.5028 28.079 42.567C28.079 42.567 27.4408 40.2258 27.2281 39.8001C27.2281 39.8001 29.3553 41.29 29.568 41.7157C29.568 41.7157 27.4408 35.5434 26.3772 34.2664C26.3772 34.2664 28.9299 37.6718 29.568 38.0974C30.2062 38.5231 27.8663 31.2867 25.1009 27.4557C25.1009 27.4557 25.5264 29.7969 25.7391 30.8611C25.7391 30.8611 24.2501 27.4557 22.5483 24.9017C22.5483 24.9017 22.9737 27.6685 22.9737 28.307C22.9737 28.307 21.6974 24.0504 20.6338 22.5605C20.6338 22.5605 21.0592 25.1145 21.0592 26.1787C21.0592 26.1787 19.5702 20.8578 17.2303 17.6653C17.2303 17.6653 18.0812 19.7937 18.5066 21.4963C18.5066 21.4963 17.2303 18.0909 15.7413 16.3883C15.7413 16.3883 16.1667 18.3038 16.3794 19.1552C16.3794 19.1552 15.5285 17.4524 14.8904 16.3883C14.8904 16.3883 15.1031 18.3038 15.1031 18.5166C15.1031 18.5166 14.2522 17.0268 13.8268 16.3883C13.8268 16.3883 14.4649 18.5166 14.4649 18.9423C14.4649 18.9423 13.4013 17.2396 12.7632 16.3883C12.7632 16.3883 12.9759 18.3038 12.9759 19.1552C12.9759 19.1552 12.3377 17.4524 11.4869 16.3883C11.4869 16.3883 11.9123 18.091 12.1251 18.9423C12.1251 18.9423 11.2742 16.6011 10.8487 16.3883C10.8487 16.3883 11.0615 18.5166 11.0615 18.9423C11.0615 18.9423 10.4232 16.6011 10.2105 16.3883C10.2105 16.3883 9.9978 18.5166 10.2105 18.7295C10.4232 19.1551 9.78511 16.8139 9.57239 16.6011V18.7295C9.57239 18.7295 8.7215 16.8139 8.29606 16.3883C8.29606 16.3883 8.29605 16.3883 8.08333 16.1755C8.08333 16.1755 8.08333 18.091 8.08333 18.7295C8.08333 18.7295 7.44518 16.814 7.23246 16.1755C7.23246 16.1755 7.23246 17.6653 7.23246 18.3038C7.23246 18.3038 6.80703 17.0268 6.38159 16.6011C6.38159 16.6011 6.59433 17.8781 6.59433 18.5166C6.59433 18.5166 6.1689 17.2396 5.74346 16.814C5.74346 16.814 5.95618 18.0909 5.74346 18.5166C5.74346 18.5166 5.31798 17.2396 5.10526 17.0268C5.10526 17.0268 5.10526 18.5166 5.10526 18.9423C5.10526 18.9423 4.46712 17.4525 4.2544 17.0268C4.2544 17.0268 4.46712 18.5166 4.2544 18.9423C4.2544 18.9423 3.82893 17.4525 3.82893 17.2396C3.82893 17.2396 3.61626 18.9423 3.61626 19.1552C3.61626 19.1552 3.19081 17.2396 3.40353 17.2396C3.40353 17.4525 3.1908 18.9423 3.1908 19.1552C3.1908 19.1552 2.76533 17.4525 2.76533 17.2396C2.76533 17.2396 2.33993 18.9423 2.33993 19.1552C2.33993 19.368 2.33993 19.368 2.33993 19.368L1.91446 17.6653C1.91446 17.6653 1.48906 19.3679 1.48906 19.5808C1.48906 19.5808 1.48905 17.8781 1.27633 17.6653C1.27633 17.6653 0.850853 19.1552 0.638133 19.1552V17.4524C0.638133 17.4524 0 19.1552 0 19.368C0 19.5808 1.48901 14.0471 1.70173 12.5573C1.70173 12.5573 1.48906 15.9626 1.48906 16.3883C1.48906 16.3883 2.1272 13.1958 2.1272 12.5573C2.1272 12.5573 2.33993 15.5369 2.33993 16.3883C2.33993 16.3883 2.76538 12.9829 2.55266 11.7059C2.55266 11.7059 3.19081 14.0471 3.40353 14.6856C3.40353 14.6856 3.40352 11.7059 3.1908 10.8546C3.1908 10.8546 4.04168 13.1958 4.2544 13.8343C4.2544 13.8343 5.31799 10.6418 4.2544 8.72626C4.2544 8.72626 6.16887 12.3444 6.38159 13.4086C6.38159 13.4086 6.59429 10.8546 5.95613 9.15189C5.95613 9.15189 7.23249 10.8546 7.65792 12.3444C7.65792 12.3444 8.29608 10.6418 7.65792 8.72626C7.65792 8.72626 10.2105 11.0674 10.4233 13.4086C10.2105 10.8546 10.4233 10.2161 9.57239 8.30056C9.57239 8.30056 11.6996 10.2161 12.7632 12.5573C12.7632 12.5573 11.6996 8.08775 11.4869 7.66208C11.4869 7.66208 14.4649 10.0032 14.8904 11.0674C14.8904 11.0674 14.4649 8.5134 13.8268 7.23639C13.8268 7.23639 15.3158 8.08771 15.7413 9.15189C15.7413 9.15189 15.3158 7.02352 15.1031 5.74652C15.1031 5.74652 17.443 9.36476 17.6557 9.79043L14.2523 1.70267C14.2523 1.70267 18.7193 7.66204 18.932 8.08771L15.5285 0.85134C15.5285 0.85134 18.2939 4.25671 18.932 6.38506L17.0176 1.29904e-05C17.0176 1.29904e-05 20.4211 6.17222 21.272 10.6418C21.272 10.6418 20.6338 4.68235 20.4211 3.83101C20.4211 3.83101 22.3356 9.15193 22.5483 9.79043L21.9101 4.25671C21.9101 4.25671 24.4628 12.5573 24.8882 14.8985C24.8882 14.8985 23.8246 7.87489 23.8246 7.23639C23.8246 6.59788 23.8246 6.59791 23.8246 6.59791C23.8246 6.59791 26.1645 14.26 26.1645 15.1113L25.5264 9.15189C25.5264 9.15189 27.6536 16.1754 27.8663 17.8781L27.4408 12.3444C27.4408 12.3444 28.2917 14.8984 28.9299 17.4524C29.3553 18.9423 29.568 20.4322 29.568 21.4963C29.568 21.4963 29.7808 19.1551 29.568 17.8781C29.568 17.8781 34.0352 23.4118 35.0988 32.5637C35.0988 32.5637 33.397 27.2428 32.1207 24.9017C32.1207 24.9017 34.2479 29.7969 34.2479 37.459C34.2479 37.459 32.9715 28.9455 30.4189 24.9017C30.4189 24.9017 33.397 31.9253 33.6097 40.6515C33.6097 40.6515 32.3334 36.3948 31.908 34.9049C31.908 34.9049 32.5461 40.8643 32.7588 44.0568C32.7588 44.0568 32.1207 42.1413 31.908 41.29C31.908 41.29 32.5461 44.2696 31.908 47.2493C31.908 47.2493 31.4825 45.5467 31.0571 44.4825C31.0571 44.4825 31.2698 47.0365 30.2062 50.8675C30.2062 50.8675 29.9935 48.952 29.568 47.8879C29.568 47.8879 29.3553 52.1446 28.7172 55.5499C28.7172 55.5499 28.5045 54.0601 28.079 52.9959C28.079 52.9959 28.079 55.9756 27.6536 58.1039C27.6536 58.1039 27.4409 55.9756 27.0154 55.1242C27.0154 55.1242 27.0154 58.7424 27.0154 60.2323C27.0154 60.2323 26.59 58.3168 25.9518 57.2526C26.1646 57.6782 26.59 60.8708 26.59 63.4248Z" transform="translate(468.756 367.564)" fill="#3E3231"/>
<path d="M7.01975 94.7115L29.5681 65.766C29.5681 65.766 21.0593 85.3468 20.4211 87.2623C19.7829 89.1778 41.0549 54.9114 41.0549 54.9114C41.0549 54.9114 35.7369 66.4045 34.4606 68.7457L43.1821 59.3809C43.1821 59.3809 35.7369 74.4922 35.0988 76.6205C35.0988 76.6205 40.6295 70.6612 40.4167 70.6612C40.204 70.6612 37.8641 75.5564 38.2895 76.1949C38.715 76.8334 31.4825 93.6473 31.4825 93.6473L66.794 37.4589L62.9651 45.7595L66.794 42.3541C66.794 42.3541 65.305 47.675 65.0923 48.3135C64.6668 48.952 57.6471 59.8066 57.6471 59.8066L65.0923 51.2932L62.7523 56.4012L66.794 53.2087L65.7304 55.5499V58.5296L68.2831 55.9756L79.1317 38.3103C79.1317 38.3103 63.6032 66.8302 60.4124 71.0868L64.2414 66.6173C64.2414 66.6173 55.5198 86.6238 54.669 87.9008C54.669 87.9008 83.1734 38.5231 85.5133 34.6921C85.5133 34.6921 81.6844 44.2697 81.4717 45.5467L85.5133 40.2258C85.5133 40.2258 81.0462 51.2932 80.4081 52.783L82.5353 50.0162C82.5353 50.0162 78.2809 64.0633 76.3664 67.2558L83.5989 56.4012C83.5989 56.4012 77.2173 74.2794 76.3664 76.6205C76.3664 76.6205 87.8533 56.6141 90.6186 50.6547C90.6186 50.6547 88.9169 59.5938 88.9169 60.2323C88.9169 60.2323 92.1076 50.4419 92.9585 48.952C92.9585 48.952 91.6822 62.9991 91.8949 67.8943C91.8949 67.8943 94.6603 50.4419 94.873 49.3777L95.9366 53.2087C95.9366 53.2087 97.2129 45.5467 97.2129 43.6312C97.2129 43.6312 96.5748 49.5905 97.2129 50.6547C97.8511 51.7189 98.9147 62.9991 98.9147 62.9991V40.6515C98.9147 40.6515 103.169 55.3371 103.382 57.2526C103.382 57.2526 102.105 40.6515 102.105 41.29C102.105 41.9285 108.062 55.7627 108.274 56.4012C108.274 56.4012 104.871 40.013 104.871 39.3745C104.871 39.3745 105.934 41.9285 105.934 42.3541C105.934 42.7798 105.934 42.7798 105.934 42.7798C105.934 42.7798 106.573 36.3948 106.36 35.5434C106.36 35.5434 107.636 38.3103 107.636 38.9488V32.9894C107.636 32.9894 108.913 37.6718 109.125 38.0974L109.763 34.0536C109.763 34.0536 111.678 38.9488 111.678 39.5873C111.678 39.5873 111.891 36.8204 112.316 36.6076C112.954 36.3948 113.805 35.5434 113.805 35.5434L114.869 38.7359C114.869 38.7359 114.869 31.9252 114.869 31.2867C114.869 31.2867 126.781 47.8878 129.121 53.6344C129.121 53.6344 121.038 45.5467 115.507 42.7798C115.507 42.7798 141.246 65.5531 150.606 74.705C150.606 74.705 134.439 57.2526 131.674 55.3371L134.226 56.6141C134.226 56.6141 129.972 42.567 126.143 37.2461C126.143 37.2461 134.652 47.675 137.204 52.9959C137.204 52.9959 147.415 58.1039 149.329 60.0194C151.031 61.9349 160.178 70.2355 160.178 70.2355C160.178 70.2355 138.055 38.5231 131.674 32.5637C131.674 32.5637 142.097 40.6515 145.075 44.4825L144.649 40.0129C144.649 40.0129 148.904 42.3541 150.18 43.4183C150.18 43.4183 148.478 37.0333 146.777 34.4792C146.777 34.4792 166.56 55.9756 168.261 58.9553C168.261 58.9553 155.711 40.013 155.498 39.3745C155.498 39.3745 161.454 43.844 162.518 44.9082C162.518 44.9082 158.689 35.3306 155.711 32.3509C155.711 32.3509 174.005 45.5467 186.768 60.6579C186.768 60.6579 174.643 44.9082 172.941 43.4183C172.941 43.4183 187.406 58.5296 192.724 64.489C192.724 64.489 177.408 37.4589 170.601 31.0739C170.601 31.0739 195.064 50.0162 208.678 65.1275C208.678 65.1275 184.428 33.2022 176.345 27.6685C176.345 27.6685 193.575 41.9285 196.128 45.3338C196.128 45.3338 185.492 30.2226 183.577 27.6685C183.577 27.6685 198.255 40.4386 200.807 43.844C200.807 43.844 199.106 37.8846 198.255 37.0333C198.255 37.0333 204.636 40.6515 205.487 41.7156C206.338 42.7798 191.022 20.8578 187.406 17.8781C187.406 17.8781 212.082 41.7156 218.676 50.229C218.676 50.229 202.509 24.476 200.807 23.199C200.807 23.199 219.527 43.844 223.781 50.6547C223.781 50.6547 219.314 38.5231 217.612 35.9691C217.612 35.9691 235.268 50.6547 244.202 67.043C244.202 67.043 229.525 36.8204 222.93 29.1584C222.93 29.1584 237.395 40.013 244.202 56.6141C244.202 56.6141 225.483 21.2835 215.485 12.1316C215.485 12.1316 242.288 36.1819 253.349 58.7424C253.349 58.7424 247.606 42.7798 245.479 39.8001C245.479 39.8001 255.476 51.506 257.178 54.9114C257.178 54.9114 243.351 24.6889 238.672 18.9423C238.672 18.9423 244.84 25.9659 245.904 27.8814L239.948 17.0268C239.948 17.0268 262.071 39.5873 273.345 65.1275C273.345 65.1275 260.156 31.0739 253.349 23.6247C253.349 23.6247 274.196 52.9959 277.387 66.4045C277.387 66.4045 275.685 46.8237 271.643 40.0129C271.643 40.0129 277.387 50.229 278.663 56.4012C278.663 56.4012 275.898 37.8846 267.601 28.9455C267.601 28.9455 283.13 44.0568 284.406 68.1072C284.406 68.1072 285.683 50.229 284.406 43.844C284.406 43.844 291.852 61.7221 290.788 79.1746C290.788 79.1746 294.404 63.4248 293.341 57.0397C293.341 57.0397 297.382 72.3639 295.468 89.6035C295.468 89.6035 298.02 74.0665 298.02 70.2355C298.02 70.2355 300.786 87.9008 295.042 100.884C295.042 100.884 307.593 83.8569 309.933 71.2997C309.933 71.2997 309.72 89.1778 303.764 98.3297C303.764 98.3297 313.123 90.0291 315.251 84.7083C315.251 84.7083 307.38 115.782 293.553 126.85C293.553 126.85 307.167 119.613 312.911 107.907C312.911 107.907 309.082 128.552 292.702 133.66C292.702 133.66 314.4 126.211 321.207 118.762C321.207 118.762 312.698 123.019 308.444 123.87C308.444 123.87 316.952 110.887 315.251 95.7757C315.251 95.7757 323.334 87.2623 326.099 79.3874C326.099 79.3874 320.569 88.965 315.889 91.519C315.889 91.519 328.865 67.043 319.292 36.1819C319.292 36.1819 319.718 46.1852 316.952 50.6547C316.952 50.6547 316.74 64.7018 314.4 70.874C314.4 70.874 317.591 35.9691 307.167 21.2835C307.167 21.2835 312.06 34.4792 309.507 55.5499C309.507 55.5499 309.933 61.0836 309.933 62.7863C309.933 62.7863 305.678 41.29 300.786 35.7563C300.786 35.7563 309.933 52.1445 305.04 68.1072C305.04 68.1072 297.595 37.4589 285.257 22.9862C285.257 22.9862 292.277 36.6076 294.83 44.9082C294.83 44.9082 283.981 20.2193 271.856 12.5573C271.856 12.5573 279.939 19.368 284.194 31.2867C284.194 31.2867 273.558 14.4728 261.007 8.30057C261.007 8.30057 265.262 10.0032 269.729 18.5166C269.729 18.5166 262.283 11.0674 258.667 10.4289C254.838 10.0032 252.711 9.36474 252.711 9.36474C252.711 9.36474 256.115 13.8343 259.093 19.1551C259.093 19.1551 249.946 8.5134 246.755 6.17222C246.755 6.17222 250.158 11.0674 252.286 17.4525C252.286 17.4525 246.117 8.72623 244.202 8.5134C242.501 8.08773 237.608 8.93906 237.608 8.93906L238.884 16.6011C238.884 16.6011 229.525 5.53371 228.036 4.04387C228.036 4.04387 233.141 14.2599 234.417 16.6011C234.417 16.6011 225.483 6.38504 224.845 5.74654C224.207 5.10803 233.354 18.7295 234.204 20.4321L222.505 8.08772L224.419 12.7701L220.803 8.08772L218.25 7.66206V11.7059C218.25 11.7059 215.698 3.61819 215.06 2.34118C215.06 2.34118 215.06 8.5134 213.358 11.7059C213.358 11.7059 208.04 2.97969 205.275 3.2476e-06C205.275 3.2476e-06 208.465 5.74654 209.742 14.0471C209.742 14.0471 205.487 7.23638 201.658 4.46953C201.658 4.46953 203.786 8.93906 205.913 14.0471C205.913 14.0471 198.68 6.59788 196.34 4.2567C196.34 4.2567 196.979 9.57756 197.404 14.4728L201.233 19.5808C201.233 19.5808 190.384 7.66206 186.768 5.10804C186.768 5.10804 191.448 11.7059 192.724 13.8343L184.215 5.74654L194.639 18.7295L180.386 5.10804L184.215 13.8343C184.215 13.8343 176.132 5.5337 174.856 4.8952L175.919 8.72623C175.919 8.72623 172.941 4.89521 172.516 5.32087C172.09 5.74654 170.176 7.02354 170.176 7.02354L170.389 8.93906L178.685 20.8578L165.709 7.23639C165.709 7.23639 172.303 17.6653 173.792 20.2193C173.792 20.2193 163.369 8.08772 160.603 5.95937C160.603 5.95937 164.432 12.1316 165.921 15.5369C165.921 15.5369 156.349 6.81071 155.073 5.74654C155.073 5.74654 154.647 11.7059 154.647 12.7701C154.647 12.7701 158.902 18.7295 160.391 21.2835C160.391 21.2835 149.755 11.4931 145.926 7.66206C145.926 7.66206 147.84 11.4931 148.478 15.9626C148.478 15.9626 152.52 20.0065 153.584 22.3477C153.584 22.3477 142.735 12.5573 137.204 10.4289C137.204 10.4289 139.97 12.5573 140.82 13.6214C140.82 13.6214 137.842 11.9188 136.353 11.9188C134.864 11.9188 131.035 16.6011 130.397 18.3038L132.312 12.3444C132.312 12.3444 127.845 18.9423 127.206 21.0707V17.8781C127.206 17.8781 119.974 14.8984 119.123 14.6856C119.123 14.6856 112.529 20.2193 112.529 20.8578L117.421 14.4728C117.421 14.4728 86.577 16.1754 73.1756 22.9862C73.1756 22.9862 64.0287 34.2664 62.5396 37.4589C62.5396 37.4589 68.7085 21.4963 69.3466 20.4321C69.3466 20.4321 63.6032 28.7327 63.3905 29.5841L67.2195 20.645C67.2195 20.645 48.5001 37.2461 46.1602 43.4183L55.7326 28.307C55.7326 28.307 39.9913 46.1852 37.8641 50.8675C37.8641 50.8675 44.8839 32.1381 46.5856 30.6482C46.5856 30.6482 20.4211 47.675 1.06359 83.8569C1.06359 83.8569 20.2084 60.6579 23.1865 59.3809C23.1865 59.3809 3.19079 89.3906 -6.49169e-06 94.2858L20.4211 70.6612L7.01975 94.7115Z" transform="translate(173.506 5.32031)" fill="#3E3231"/>
<path d="M8.72154 -6.4952e-06C8.72154 -6.4952e-06 11.6996 19.368 1.29834e-05 29.3712C1.29834e-05 29.3712 9.99785 13.1958 8.72154 -6.4952e-06Z" transform="translate(450.891 79.3906)" fill="#3E3231"/>
<path d="M0.0121936 0.0584752C-0.413246 -1.21853 10.4354 18.7879 10.4354 23.896C10.4354 24.1088 1.28851 5.37935 0.0121936 0.0584752Z" transform="translate(435.771 61.2402)" fill="#3E3231"/>
</svg>
