<svg id="Layer_1" data-name="Layer 1" xmlns="http://www.w3.org/2000/svg" xmlns:xlink="http://www.w3.org/1999/xlink" viewBox="0 0 64 64"><defs><style>.cls-1{fill:#dbb66b;opacity:0.2;}.cls-2,.cls-5{fill:#231f20;}.cls-2,.cls-3,.cls-4,.cls-5,.cls-6,.cls-7{stroke:#231f20;stroke-linecap:round;stroke-linejoin:round;}.cls-2,.cls-3,.cls-4,.cls-6,.cls-7{stroke-width:2.65px;}.cls-3{fill:url(#linear-gradient);}.cls-4{fill:url(#linear-gradient-2);}.cls-5{stroke-width:1.05px;}.cls-6{fill:url(#linear-gradient-3);}.cls-7{fill:url(#linear-gradient-4);}</style><linearGradient id="linear-gradient" x1="16.2" y1="32.44" x2="45.83" y2="32.44" gradientTransform="translate(-0.44 63.3) rotate(-90)" gradientUnits="userSpaceOnUse"><stop offset="0" stop-color="#dbb66b"/><stop offset="0.1" stop-color="#e1c283"/><stop offset="0.3" stop-color="#ecd8af"/><stop offset="0.5" stop-color="#f4e9d2"/><stop offset="0.69" stop-color="#faf5eb"/><stop offset="0.86" stop-color="#fefcfa"/><stop offset="1" stop-color="#fff"/></linearGradient><linearGradient id="linear-gradient-2" x1="14.25" y1="24.66" x2="49.75" y2="24.66" gradientTransform="matrix(1, 0, 0, 1, 0, 0)" xlink:href="#linear-gradient"/><linearGradient id="linear-gradient-3" x1="24.22" y1="17.47" x2="24.22" y2="17.47" gradientTransform="matrix(1, 0, 0, 1, 0, 0)" xlink:href="#linear-gradient"/><linearGradient id="linear-gradient-4" x1="39.78" y1="17.47" x2="39.78" y2="17.47" gradientTransform="matrix(1, 0, 0, 1, 0, 0)" xlink:href="#linear-gradient"/></defs><title>calendar-icon</title><circle class="cls-1" cx="32" cy="32" r="32"/><polygon class="cls-2" points="14.25 29.48 14.25 49.19 48.92 49.19 49.75 49.19 49.75 40.1 49.75 19.56 45.94 19.56 27.78 19.56 14.25 19.56 14.25 29.48"/><polygon class="cls-3" points="14.25 27.39 14.25 47.1 48.92 47.1 49.75 47.1 49.75 38.01 49.75 17.47 45.94 17.47 27.78 17.47 14.25 17.47 14.25 27.39"/><line class="cls-4" x1="14.25" y1="24.66" x2="49.75" y2="24.66"/><rect class="cls-5" x="21.48" y="29.5" width="4.31" height="4.31"/><rect class="cls-5" x="21.48" y="37.86" width="4.31" height="4.31"/><rect class="cls-5" x="29.85" y="29.5" width="4.31" height="4.31"/><rect class="cls-5" x="29.85" y="37.86" width="4.31" height="4.31"/><rect class="cls-5" x="38.21" y="29.5" width="4.31" height="4.31"/><rect class="cls-5" x="38.21" y="37.86" width="4.31" height="4.31"/><line class="cls-6" x1="24.22" y1="20.13" x2="24.22" y2="14.81"/><line class="cls-7" x1="39.78" y1="20.13" x2="39.78" y2="14.81"/></svg>