<svg id="Layer_1" data-name="Layer 1" xmlns="http://www.w3.org/2000/svg" xmlns:xlink="http://www.w3.org/1999/xlink" viewBox="0 0 64 64"><defs><style>.cls-1{opacity:0.4;fill:url(#linear-gradient);}.cls-2,.cls-3,.cls-4{fill:#c3e8f3;}.cls-3{opacity:0.7;}.cls-4,.cls-5,.cls-6{stroke:#49bbce;}.cls-13,.cls-14,.cls-4,.cls-5,.cls-6,.cls-7,.cls-8{stroke-miterlimit:10;}.cls-13,.cls-14,.cls-4,.cls-5,.cls-6,.cls-7{stroke-width:2.03px;}.cls-10,.cls-5{fill:#e2f3f8;}.cls-11,.cls-6{fill:#97d8e7;}.cls-13,.cls-14,.cls-7,.cls-8{fill:none;}.cls-7{stroke:#97d8e7;}.cls-8{stroke:#e2f3f8;stroke-width:1.84px;}.cls-9{fill:#cfcfce;}.cls-12{fill:#fff;}.cls-13{stroke:#75cedb;}.cls-14{stroke:#fff;}</style><linearGradient id="linear-gradient" x1="32" y1="62.7" x2="32" y2="1.3" gradientUnits="userSpaceOnUse"><stop offset="0" stop-color="#daf0f6"/><stop offset="1" stop-color="#fff"/></linearGradient></defs><title>diamond-icon</title><circle class="cls-1" cx="32" cy="32" r="30.7"/><path class="cls-2" d="M32,64A32,32,0,1,1,64,32,32,32,0,0,1,32,64ZM32,2.61A29.4,29.4,0,1,0,61.4,32,29.43,29.43,0,0,0,32,2.61Z"/><ellipse class="cls-3" cx="31.53" cy="52.25" rx="14.39" ry="5.43"/><polygon class="cls-4" points="50.33 31.62 50.33 19.1 32.15 9.31 13.97 19.1 13.97 31.95 13.97 32.56 13.97 42.97 32.15 52.76 50.33 42.97 50.33 32.23 50.33 31.62"/><polygon class="cls-4" points="50.33 30.04 50.33 17.53 32.15 7.74 13.97 17.53 13.97 30.37 13.97 30.99 13.97 41.4 32.15 51.19 50.33 41.4 50.33 30.66 50.33 30.04"/><polyline class="cls-5" points="50.33 22.97 50.33 17.53 32.15 7.74 13.97 17.53 13.97 22.97"/><polyline class="cls-6" points="13.97 35.48 13.97 41.4 32.15 51.19 50.33 41.4 50.33 35.48"/><polygon class="cls-4" points="21.95 36.02 21.95 22.3 32.15 16.8 42.35 22.3 42.35 36.02 32.15 41.51 21.95 36.02"/><polyline class="cls-7" points="40.51 29.83 40.51 34.92 32.15 39.42 23.79 34.92 23.79 30.04"/><polyline class="cls-8" points="23.79 30.04 23.79 23.39 32.15 18.89 40.51 23.39 40.51 29.83"/><circle class="cls-9" cx="32.15" cy="28.79" r="5.05" transform="translate(-10.88 25.55) rotate(-37.54)"/><path class="cls-10" d="M32.15,34.65a5.86,5.86,0,1,1,3.56-1.21h0A5.83,5.83,0,0,1,32.15,34.65Zm0-10.09a4.24,4.24,0,1,0,.56,0A4.28,4.28,0,0,0,32.14,24.56Z"/><circle class="cls-2" cx="32.15" cy="29.77" r="5.05" transform="translate(-11.48 25.75) rotate(-37.54)"/><path class="cls-11" d="M32.15,35.62a5.86,5.86,0,1,1,3.56-1.21h0A5.83,5.83,0,0,1,32.15,35.62Zm0-10.09a4.24,4.24,0,1,0,.56,0A4.28,4.28,0,0,0,32.14,25.54Z"/><polygon class="cls-11" points="30.61 30.92 32.93 31.6 34.3 29.61 32.82 27.69 30.54 28.5 30.61 30.92"/><path class="cls-11" d="M29.6,26.12l-.15.11a4.38,4.38,0,0,0-1.56,2.31l-.11.39L30,28.15l-.06-2.26Z"/><path class="cls-11" d="M27.81,30.66l.12.38.06.18a4.38,4.38,0,0,0,1.72,2.2l.34.22L30,31.3Z"/><path class="cls-11" d="M34.89,33.2l.32-.25L33,32.28l-1.28,1.86h.58A4.38,4.38,0,0,0,34.89,33.2Z"/><path class="cls-11" d="M36.2,31.54l.13-.37.06-.18a4.38,4.38,0,0,0-.1-2.79l-.14-.38-1.32,1.93Z"/><path class="cls-11" d="M35.11,26.44l-.32-.24-.15-.11A4.38,4.38,0,0,0,32,25.32l-.41,0L33,27.19Z"/><polygon class="cls-12" points="36.56 38.39 37.54 41.74 38.27 38.39 41.23 37.59 38.34 37.01 37.33 34.41 36.56 37.37 34.08 37.81 36.56 38.39"/><polyline class="cls-13" points="48.49 40.3 32.15 49.1 15.81 40.3"/><polyline class="cls-14" points="15.81 18.63 32.15 9.83 48.49 18.63"/><line class="cls-5" x1="21.95" y1="22.29" x2="13.97" y2="17.53"/><line class="cls-5" x1="21.95" y1="36.02" x2="13.97" y2="41.4"/><line class="cls-5" x1="42.35" y1="36.02" x2="50.33" y2="41.4"/><line class="cls-5" x1="42.35" y1="22.29" x2="50.33" y2="17.53"/><line class="cls-5" x1="32.15" y1="7.74" x2="32.15" y2="16.8"/><line class="cls-5" x1="32.15" y1="41.51" x2="32.15" y2="51.19"/></svg>