<svg id="Layer_1" data-name="Layer 1" xmlns="http://www.w3.org/2000/svg" viewBox="0 0 38.4 47.33"><defs><style>.cls-1,.cls-8{fill:#c3e8f3;}.cls-1,.cls-2,.cls-3{stroke:#49bbce;}.cls-1,.cls-11,.cls-12,.cls-2,.cls-3,.cls-4,.cls-5{stroke-miterlimit:10;}.cls-1,.cls-11,.cls-12,.cls-2,.cls-3,.cls-4{stroke-width:2.03px;}.cls-2,.cls-7{fill:#e2f3f8;}.cls-3,.cls-9{fill:#97d8e7;}.cls-11,.cls-12,.cls-4,.cls-5{fill:none;}.cls-4{stroke:#97d8e7;}.cls-5{stroke:#e2f3f8;stroke-width:1.84px;}.cls-6{fill:#cfcfce;}.cls-10{fill:#fff;}.cls-11{stroke:#75cedb;}.cls-12{stroke:#fff;}</style></defs><title>Artboard 2</title><polygon class="cls-1" points="37.38 25.03 37.38 12.52 19.2 2.73 1.02 12.52 1.02 25.36 1.02 25.98 1.02 36.39 19.2 46.18 37.38 36.39 37.38 25.65 37.38 25.03"/><polygon class="cls-1" points="37.38 23.46 37.38 10.94 19.2 1.16 1.02 10.94 1.02 23.79 1.02 24.4 1.02 34.82 19.2 44.61 37.38 34.82 37.38 24.07 37.38 23.46"/><polyline class="cls-2" points="37.38 16.38 37.38 10.94 19.2 1.15 1.02 10.94 1.02 16.38"/><polyline class="cls-3" points="1.02 28.9 1.02 34.82 19.2 44.61 37.38 34.82 37.38 28.9"/><polygon class="cls-1" points="9 29.43 9 15.71 19.2 10.22 29.4 15.71 29.4 29.43 19.2 34.93 9 29.43"/><polyline class="cls-4" points="27.56 23.25 27.56 28.33 19.2 32.83 10.84 28.33 10.84 23.46"/><polyline class="cls-5" points="10.84 23.46 10.84 16.81 19.2 12.31 27.56 16.81 27.56 23.25"/><circle class="cls-6" cx="19.2" cy="22.2" r="5.05"/><path class="cls-7" d="M19.21,28.06a5.86,5.86,0,1,1,3.56-1.21h0A5.8,5.8,0,0,1,19.21,28.06Zm0-10.09a4.28,4.28,0,1,0,.56,0A5.46,5.46,0,0,0,19.19,18Z"/><circle class="cls-8" cx="19.2" cy="23.18" r="5.05"/><path class="cls-9" d="M19.21,29a5.86,5.86,0,1,1,3.56-1.21h0A5.8,5.8,0,0,1,19.21,29Zm0-10.09a4.28,4.28,0,1,0,.56,0A3.6,3.6,0,0,0,19.19,19Z"/><polygon class="cls-9" points="17.66 24.33 19.98 25.02 21.35 23.02 19.87 21.1 17.59 21.91 17.66 24.33"/><path class="cls-9" d="M16.66,19.54a.91.91,0,0,0-.16.11A4.36,4.36,0,0,0,14.94,22l-.11.39L17,21.57,17,19.31Z"/><path class="cls-9" d="M14.86,24.07l.11.38.06.18a4.43,4.43,0,0,0,.66,1.21,4.34,4.34,0,0,0,1.06,1l.34.22L17,24.71Z"/><path class="cls-9" d="M21.94,26.61l.32-.25L20,25.7l-1.28,1.86h.58A4.39,4.39,0,0,0,21.94,26.61Z"/><path class="cls-9" d="M23.25,25l.13-.37a1.21,1.21,0,0,0,.05-.18,4.37,4.37,0,0,0-.09-2.79l-.14-.38-1.33,1.93Z"/><path class="cls-9" d="M22.16,19.85l-.31-.23-.15-.11A4.32,4.32,0,0,0,19,18.74h-.4L20,20.61Z"/><polygon class="cls-10" points="23.61 31.8 24.59 35.15 25.32 31.8 28.28 31.01 25.39 30.43 24.38 27.83 23.61 30.79 21.13 31.22 23.61 31.8"/><polyline class="cls-11" points="35.54 33.72 19.2 42.51 2.86 33.72"/><polyline class="cls-12" points="2.86 12.04 19.2 3.25 35.54 12.04"/><line class="cls-2" x1="9" y1="15.71" x2="1.02" y2="10.94"/><line class="cls-2" x1="9" y1="29.43" x2="1.02" y2="34.82"/><line class="cls-2" x1="29.4" y1="29.43" x2="37.38" y2="34.82"/><line class="cls-2" x1="29.4" y1="15.71" x2="37.38" y2="10.94"/><line class="cls-2" x1="19.2" y1="1.15" x2="19.2" y2="10.22"/><line class="cls-2" x1="19.2" y1="34.93" x2="19.2" y2="44.61"/></svg>