<svg id="Layer_1" data-name="Layer 1" xmlns="http://www.w3.org/2000/svg" viewBox="0 0 31.2 32.77"><defs><style>.cls-1,.cls-6{fill:#f2bb1a;}.cls-1{stroke:#c37e2a;stroke-width:2.6px;}.cls-1,.cls-2,.cls-3{stroke-miterlimit:10;}.cls-2,.cls-3{fill:none;stroke-width:2.68px;}.cls-2{stroke:#f5cc6a;}.cls-3{stroke:#e0a526;}.cls-4{fill:#f4d295;}.cls-5{fill:#f5cc6a;}.cls-7{fill:#e0a526;}.cls-8{fill:#fff;}</style></defs><title>Artboard 3</title><circle class="cls-1" cx="15.6" cy="17.17" r="14.3"/><circle class="cls-1" cx="15.6" cy="15.6" r="14.3"/><path class="cls-2" d="M4.18,15.6A11.42,11.42,0,0,1,27,15.6"/><path class="cls-3" d="M27,16A11.42,11.42,0,0,1,4.18,16"/><circle class="cls-4" cx="15.69" cy="15.32" r="5.75"/><path class="cls-5" d="M15.7,22a6.68,6.68,0,1,1,4.06-1.38h0A6.64,6.64,0,0,1,15.7,22Zm0-11.51a4.78,4.78,0,1,0,.64,0C16.1,10.51,15.89,10.49,15.68,10.49Z"/><circle class="cls-6" cx="15.69" cy="16.43" r="5.75"/><path class="cls-7" d="M15.7,23.12a6.69,6.69,0,1,1,4.06-1.39h0A6.65,6.65,0,0,1,15.7,23.12Zm0-11.51a4.74,4.74,0,0,0-2.93,1,4.82,4.82,0,1,0,3.57-1A4.68,4.68,0,0,0,15.68,11.61Z"/><polygon class="cls-7" points="13.93 17.75 16.58 18.53 18.14 16.25 16.46 14.06 13.86 14.98 13.93 17.75"/><path class="cls-7" d="M12.79,12.27l-.17.13A5,5,0,0,0,10.83,15l-.12.45,2.52-.9L13.16,12Z"/><path class="cls-7" d="M10.74,17.45l.13.43c0,.07.05.14.07.2a5,5,0,0,0,.75,1.39,5,5,0,0,0,1.21,1.12l.38.26-.07-2.67Z"/><path class="cls-7" d="M18.82,20.35l.36-.29-2.56-.76-1.46,2.13h.66A5,5,0,0,0,18.82,20.35Z"/><path class="cls-7" d="M20.31,18.45l.14-.42c0-.08.05-.14.07-.21a5,5,0,0,0-.11-3.18l-.16-.43-1.51,2.2Z"/><path class="cls-7" d="M19.07,12.64l-.36-.27-.17-.13a5.07,5.07,0,0,0-3.06-.88l-.47,0,1.63,2.12Z"/><polygon class="cls-8" points="5.81 9.72 6.81 13.13 7.55 9.72 10.56 8.9 7.62 8.32 6.59 5.67 5.81 8.68 3.28 9.13 5.81 9.72"/></svg>