<svg id="Layer_1" data-name="Layer 1" xmlns="http://www.w3.org/2000/svg" xmlns:xlink="http://www.w3.org/1999/xlink" viewBox="0 0 64 64"><defs><style>.cls-1{opacity:0.3;fill:url(#linear-gradient);}.cls-2{fill:#fff;}.cls-3,.cls-4,.cls-8,.cls-9{fill:none;}.cls-3{stroke:#f2bb1a;}.cls-3,.cls-4,.cls-7,.cls-8,.cls-9{stroke-miterlimit:10;}.cls-3,.cls-4,.cls-7{stroke-width:2.6px;}.cls-4,.cls-7{stroke:#c37e2a;}.cls-5,.cls-6,.cls-7{fill:#f2bb1a;}.cls-6{opacity:0.5;}.cls-8{stroke:#f5cc6a;}.cls-8,.cls-9{stroke-width:2.68px;}.cls-9{stroke:#e0a526;}.cls-10{fill:#f4d295;}.cls-11{fill:#f5cc6a;}.cls-12{fill:#e0a526;}</style><linearGradient id="linear-gradient" x1="32" y1="62.7" x2="32" y2="1.3" gradientUnits="userSpaceOnUse"><stop offset="0" stop-color="#dbb66b"/><stop offset="0.09" stop-color="#dbb66b" stop-opacity="0.96"/><stop offset="0.25" stop-color="#dbb66b" stop-opacity="0.85"/><stop offset="0.44" stop-color="#dbb66b" stop-opacity="0.68"/><stop offset="0.66" stop-color="#dbb66b" stop-opacity="0.44"/><stop offset="0.9" stop-color="#dbb66b" stop-opacity="0.13"/><stop offset="1" stop-color="#dbb66b" stop-opacity="0"/></linearGradient></defs><title>gold-icon</title><circle class="cls-1" cx="32" cy="32" r="30.7"/><polygon class="cls-2" points="32.05 22.35 19.37 4.4 14.11 7.09 9.93 12.07 25.46 33.48 32.05 22.35"/><polygon class="cls-2" points="33.29 22.35 45.97 4.4 51.23 7.09 55.41 12.07 39.88 33.48 33.29 22.35"/><line class="cls-3" x1="14.11" y1="7.46" x2="25.46" y2="23.79"/><line class="cls-3" x1="50.76" y1="8.21" x2="39.42" y2="24.54"/><line class="cls-4" x1="32.05" y1="22.35" x2="19.37" y2="4.4"/><line class="cls-4" x1="21.78" y1="28.85" x2="9.1" y2="10.9"/><line class="cls-4" x1="33.29" y1="22.35" x2="45.97" y2="4.4"/><line class="cls-4" x1="43.56" y1="28.85" x2="55.41" y2="12.07"/><path class="cls-5" d="M32,64A32,32,0,1,1,64,32,32,32,0,0,1,32,64ZM32,2.61A29.39,29.39,0,1,0,61.39,32,29.43,29.43,0,0,0,32,2.61Z"/><ellipse class="cls-6" cx="31.53" cy="52.25" rx="14.39" ry="5.43"/><circle class="cls-7" cx="32.05" cy="38.22" r="14.3"/><circle class="cls-7" cx="32.05" cy="36.65" r="14.3"/><path class="cls-8" d="M20.63,36.65a11.42,11.42,0,1,1,22.84,0"/><path class="cls-9" d="M43.47,37a11.42,11.42,0,0,1-22.84,0"/><circle class="cls-10" cx="32.14" cy="36.37" r="5.75" transform="translate(-15.5 27.11) rotate(-37.54)"/><path class="cls-11" d="M32.15,43a6.68,6.68,0,1,1,4.07-1.38h0A6.65,6.65,0,0,1,32.15,43Zm0-11.51a4.83,4.83,0,1,0,.64,0A4.89,4.89,0,0,0,32.13,31.54Z"/><circle class="cls-5" cx="32.14" cy="37.48" r="5.75" transform="matrix(0.79, -0.61, 0.61, 0.79, -16.18, 27.34)"/><path class="cls-12" d="M32.15,44.17a6.68,6.68,0,1,1,4.07-1.38h0A6.65,6.65,0,0,1,32.15,44.17Zm0-11.51a4.83,4.83,0,1,0,.64,0A4.89,4.89,0,0,0,32.13,32.66Z"/><polygon class="cls-12" points="30.38 38.8 33.03 39.58 34.59 37.3 32.91 35.11 30.31 36.03 30.38 38.8"/><path class="cls-12" d="M29.24,33.33l-.17.13a5,5,0,0,0-1.78,2.64l-.12.45,2.52-.89-.07-2.58Z"/><path class="cls-12" d="M27.19,38.5l.13.43.07.2a5,5,0,0,0,2,2.51l.39.26-.07-2.67Z"/><path class="cls-12" d="M35.27,41.4l.36-.29-2.56-.76-1.46,2.13h.66A5,5,0,0,0,35.27,41.4Z"/><path class="cls-12" d="M36.76,39.5l.15-.43.06-.2a5,5,0,0,0-.11-3.18l-.16-.43-1.51,2.2Z"/><path class="cls-12" d="M35.52,33.69l-.36-.27L35,33.29a5,5,0,0,0-3.06-.88l-.46,0,1.63,2.12Z"/><polygon class="cls-2" points="22.27 30.77 23.26 34.18 24 30.77 27.01 29.96 24.07 29.37 23.04 26.72 22.27 29.73 19.73 30.18 22.27 30.77"/></svg>