<svg id="Layer_1" data-name="Layer 1" xmlns="http://www.w3.org/2000/svg" xmlns:xlink="http://www.w3.org/1999/xlink" viewBox="0 0 64 64"><defs><style>.cls-1{fill:#fff;}.cls-2{fill:url(#linear-gradient);}.cls-3{fill:#231f20;}.cls-10,.cls-3{opacity:0.4;}.cls-11,.cls-4{fill:none;}.cls-11,.cls-4,.cls-6,.cls-7,.cls-8,.cls-9{stroke:#000;}.cls-11,.cls-4,.cls-6,.cls-7,.cls-9{stroke-miterlimit:10;}.cls-4{stroke-width:1.89px;}.cls-5{fill:url(#linear-gradient-2);}.cls-11,.cls-6,.cls-7,.cls-9{stroke-width:1.73px;}.cls-6{fill:url(#linear-gradient-3);}.cls-7{fill:url(#linear-gradient-4);}.cls-8{stroke-linecap:square;stroke-linejoin:bevel;stroke-width:0.79px;}.cls-9{fill:url(#linear-gradient-5);}.cls-12{opacity:0.15;}</style><linearGradient id="linear-gradient" y1="32" x2="64" y2="32" gradientUnits="userSpaceOnUse"><stop offset="0" stop-color="#d18246"/><stop offset="1" stop-color="#dbb66b"/></linearGradient><linearGradient id="linear-gradient-2" x1="32.02" y1="48.71" x2="32.02" y2="11.83" gradientTransform="translate(23.91 -13.04) rotate(36.01)" gradientUnits="userSpaceOnUse"><stop offset="0" stop-color="#a7a9ac"/><stop offset="1" stop-color="#e6e7e8"/></linearGradient><linearGradient id="linear-gradient-3" x1="13.73" y1="29.46" x2="29.91" y2="29.46" gradientUnits="userSpaceOnUse"><stop offset="0" stop-color="#1b75bc"/><stop offset="0.26" stop-color="#177ec4"/><stop offset="0.67" stop-color="#0b96da"/><stop offset="1" stop-color="#00aeef"/></linearGradient><linearGradient id="linear-gradient-4" x1="28.56" y1="38.41" x2="47.28" y2="38.41" xlink:href="#linear-gradient"/><linearGradient id="linear-gradient-5" x1="25.35" y1="18.7" x2="49.44" y2="18.7" gradientUnits="userSpaceOnUse"><stop offset="0" stop-color="#006838"/><stop offset="0.17" stop-color="#006e41"/><stop offset="0.44" stop-color="#007d59"/><stop offset="0.79" stop-color="#009681"/><stop offset="1" stop-color="#00a79d"/></linearGradient></defs><title>modern-ball-icon</title><circle class="cls-1" cx="32" cy="32" r="30.7"/><path class="cls-2" d="M32,64A32,32,0,1,1,64,32,32,32,0,0,1,32,64ZM32,2.6A29.4,29.4,0,1,0,61.4,32,29.44,29.44,0,0,0,32,2.6Z"/><ellipse class="cls-3" cx="31.73" cy="49.76" rx="14.39" ry="5.43"/><circle class="cls-4" cx="32.02" cy="31.84" r="18.44" transform="translate(-12.6 24.91) rotate(-36.01)"/><circle class="cls-5" cx="32.02" cy="30.27" r="18.44" transform="translate(-11.68 24.61) rotate(-36.01)"/><path class="cls-1" d="M32,15.73c8.07,0,14.94,3.69,17.53,8.84a18.44,18.44,0,0,0-35.05,0C17.1,19.4,24,15.73,32,15.73Z"/><circle class="cls-4" cx="32.02" cy="30.27" r="18.44" transform="translate(-11.68 24.61) rotate(-36.01)"/><path class="cls-6" d="M18.07,18.21a18.34,18.34,0,0,0-3.43,5.91h0s1.91,6.28,4.52,9.29l-.28.86a6,6,0,0,1-5.15-1.65,18.31,18.31,0,0,0,1.71,5.71l.12-.1s6.58,4.4,13.52,1.42l.84-3.56A20.1,20.1,0,0,1,18.07,18.21Z"/><path class="cls-7" d="M43.21,44.92a18.39,18.39,0,0,0,4.07-4.29l-.12-.09s.52-7.9-5.52-12.42l-3.5,1.05a20.1,20.1,0,0,1-9.57,19.2,18.49,18.49,0,0,0,6.83,0h0s4.49-4.8,5.79-8.56l.88-.18A6,6,0,0,1,43.21,44.92Z"/><path class="cls-8" d="M22.74,21.67a12.65,12.65,0,0,1,5-9.12l-.23-.16a18.54,18.54,0,0,0-4,1.54A11.62,11.62,0,0,0,22.74,21.67Z"/><path class="cls-8" d="M29.22,42.6a12.65,12.65,0,0,1-10.39.24l0,.28a18.54,18.54,0,0,0,3.36,2.72A11.62,11.62,0,0,0,29.22,42.6Z"/><path class="cls-8" d="M44.11,26.53a12.65,12.65,0,0,1,5.4,8.88l.25-.12A18.54,18.54,0,0,0,50.44,31,11.62,11.62,0,0,0,44.11,26.53Z"/><path class="cls-9" d="M49.44,24.21a18.43,18.43,0,0,0-2.5-4.79c-.29-.4-.59-.77-.91-1.14,0,0-6.4-1.48-10.31-.73l-.6-.67A5.85,5.85,0,0,1,38,13.7a7.13,7.13,0,0,1,1.1-.45,18.53,18.53,0,0,0-5.71-1.36l-.06.14s-7.1,3.5-8,11L28,25.52A20.1,20.1,0,0,1,49.44,24.21Z"/><g class="cls-10"><path class="cls-1" d="M46.93,19.45c-.3-.41-.61-.8-.93-1.17a44.1,44.1,0,0,0-4.72-.77,16,16,0,0,1,8,6.63l.1.05A18.39,18.39,0,0,0,46.93,19.45Z"/><path class="cls-1" d="M28.5,16a25,25,0,0,1,7,0A6.15,6.15,0,0,1,38,13.7a7.13,7.13,0,0,1,1.06-.44,18.53,18.53,0,0,0-5.69-1.35l-.05.12A17,17,0,0,0,28.5,16Z"/></g><path class="cls-11" d="M49.44,24.21a18.43,18.43,0,0,0-2.5-4.79c-.29-.4-.59-.77-.91-1.14,0,0-6.4-1.48-10.31-.73l-.6-.67A5.85,5.85,0,0,1,38,13.7a7.13,7.13,0,0,1,1.1-.45,18.53,18.53,0,0,0-5.71-1.36l-.06.14s-7.1,3.5-8,11L28,25.52A20.1,20.1,0,0,1,49.44,24.21Z"/><path class="cls-12" d="M42.86,45.45a18.4,18.4,0,0,0,7.57-14C49,37.87,41.33,42.77,32,42.77s-17-4.9-18.41-11.31a18.44,18.44,0,0,0,29.26,14Z"/></svg>