<svg id="Layer_1" data-name="Layer 1" xmlns="http://www.w3.org/2000/svg" xmlns:xlink="http://www.w3.org/1999/xlink" viewBox="0 0 64 64"><defs><style>.cls-1,.cls-12{fill:#fff;}.cls-2{fill:url(#linear-gradient);}.cls-3{fill:#231f20;opacity:0.4;}.cls-4{fill:none;}.cls-11,.cls-12,.cls-14,.cls-4,.cls-8,.cls-9{stroke:#000;stroke-miterlimit:10;stroke-width:1.89px;}.cls-5{fill:url(#linear-gradient-2);}.cls-6{fill:url(#linear-gradient-3);}.cls-7{fill:#e2e2e2;}.cls-8{fill:url(#linear-gradient-4);}.cls-9{fill:url(#linear-gradient-5);}.cls-10{fill:url(#linear-gradient-6);}.cls-11{fill:url(#linear-gradient-7);}.cls-13{opacity:0.15;}.cls-14{fill:#5c5c5c;}</style><linearGradient id="linear-gradient" y1="32" x2="64" y2="32" gradientUnits="userSpaceOnUse"><stop offset="0" stop-color="#d18246"/><stop offset="1" stop-color="#dbb66b"/></linearGradient><linearGradient id="linear-gradient-2" x1="32" y1="48.97" x2="32" y2="12.09" gradientTransform="translate(24.07 -12.98) rotate(36.01)" gradientUnits="userSpaceOnUse"><stop offset="0" stop-color="#a7a9ac"/><stop offset="1" stop-color="#e6e7e8"/></linearGradient><linearGradient id="linear-gradient-3" x1="16.59" y1="16.68" x2="27.96" y2="16.68" gradientUnits="userSpaceOnUse"><stop offset="0" stop-color="#808285"/><stop offset="1" stop-color="#e2e2e2"/></linearGradient><linearGradient id="linear-gradient-4" x1="13.68" y1="35.5" x2="20.6" y2="35.5" gradientUnits="userSpaceOnUse"><stop offset="0" stop-color="#414042"/><stop offset="1" stop-color="#808285"/></linearGradient><linearGradient id="linear-gradient-5" x1="43.16" y1="36.02" x2="50.27" y2="36.02" xlink:href="#linear-gradient-4"/><linearGradient id="linear-gradient-6" x1="36.58" y1="17" x2="47.75" y2="17" xlink:href="#linear-gradient-3"/><linearGradient id="linear-gradient-7" x1="31.97" y1="38.59" x2="31.97" y2="24.33" xlink:href="#linear-gradient-4"/></defs><title>soccer-ball-icon</title><circle class="cls-1" cx="32" cy="32" r="30.7"/><path class="cls-2" d="M32,64A32,32,0,1,1,64,32,32,32,0,0,1,32,64ZM32,2.6A29.4,29.4,0,1,0,61.4,32,29.44,29.44,0,0,0,32,2.6Z"/><ellipse class="cls-3" cx="31.73" cy="49.76" rx="14.39" ry="5.43"/><circle class="cls-4" cx="32" cy="32.1" r="18.44" transform="translate(-12.76 24.95) rotate(-36.01)"/><circle class="cls-5" cx="32" cy="30.53" r="18.44" transform="translate(-11.84 24.65) rotate(-36.01)"/><path class="cls-1" d="M32,16c8.07,0,14.94,3.69,17.53,8.84a18.44,18.44,0,0,0-35.05,0C17.09,19.64,23.95,16,32,16Z"/><path class="cls-6" d="M26.54,13.06l-.67.2a16.38,16.38,0,0,0-8.41,6.21l-.87,1.25h8.76l2.61-8Z"/><path class="cls-7" d="M25.87,13.26a16.38,16.38,0,0,0-8.41,6.21l-.87,1.25h1.2a20.37,20.37,0,0,1,8.92-4.18L28,12.66l-1.42.4Z"/><path class="cls-4" d="M26.54,13.06l-.67.2a16.38,16.38,0,0,0-8.41,6.21l-.87,1.25h8.76l2.61-8Z"/><path class="cls-8" d="M13.69,30.33c0,.25,0,.48,0,.7A16.38,16.38,0,0,0,17,40.94l.91,1.22,2.7-8.33-6.85-5Z"/><path class="cls-9" d="M46.69,41.46l.42-.56a16.38,16.38,0,0,0,3.15-10l0-1.52-7.08,5.15,2.62,8Z"/><path class="cls-10" d="M46.93,19.94l-.4-.57A16.38,16.38,0,0,0,38,13.29l-1.45-.45,2.71,8.33h8.46Z"/><path class="cls-7" d="M47.75,21.16l-.82-1.23-.4-.57A16.38,16.38,0,0,0,38,13.29l-1.45-.45,1.24,3.8a19.81,19.81,0,0,1,8.91,4.53Z"/><path class="cls-4" d="M46.93,19.94l-.4-.57A16.38,16.38,0,0,0,38,13.29l-1.45-.45,2.71,8.33h8.46Z"/><polygon class="cls-11" points="31.96 38.59 39.46 33.14 36.6 24.33 27.33 24.33 24.47 33.14 31.96 38.59"/><line class="cls-12" x1="27.33" y1="24.33" x2="25.34" y2="20.71"/><line class="cls-12" x1="24.47" y1="33.14" x2="20.6" y2="33.82"/><line class="cls-12" x1="31.97" y1="38.59" x2="31.97" y2="42.39"/><line class="cls-12" x1="39.46" y1="33.14" x2="43.16" y2="34.57"/><line class="cls-12" x1="36.6" y1="24.33" x2="39.29" y2="21.17"/><circle class="cls-4" cx="32" cy="30.53" r="18.44" transform="translate(-11.84 24.65) rotate(-36.01)"/><path class="cls-13" d="M42.84,45.45a18.4,18.4,0,0,0,7.57-14C49,37.87,41.31,42.77,32,42.77s-17-4.9-18.41-11.31a18.44,18.44,0,0,0,29.26,14Z"/><path class="cls-14" d="M26.15,47.88l.66.23A16.38,16.38,0,0,0,37.25,48l1.44-.49-7.09-5.15-6.84,5Z"/></svg>