<svg id="Layer_1" data-name="Layer 1" xmlns="http://www.w3.org/2000/svg" xmlns:xlink="http://www.w3.org/1999/xlink" viewBox="0 0 64 64"><defs><style>.cls-1{fill:#dbb66b;opacity:0.2;}.cls-2,.cls-3,.cls-4{stroke:#231f20;stroke-linecap:round;stroke-linejoin:round;stroke-width:2.64px;}.cls-2{fill:url(#linear-gradient);}.cls-3{fill:url(#linear-gradient-2);}.cls-4{fill:none;}</style><linearGradient id="linear-gradient" x1="32" y1="50.35" x2="32" y2="14.76" gradientUnits="userSpaceOnUse"><stop offset="0" stop-color="#dbb66b"/><stop offset="0.06" stop-color="#e0c07f"/><stop offset="0.2" stop-color="#e9d3a6"/><stop offset="0.34" stop-color="#f1e3c6"/><stop offset="0.49" stop-color="#f7efdf"/><stop offset="0.65" stop-color="#fcf8f1"/><stop offset="0.81" stop-color="#fefdfc"/><stop offset="1" stop-color="#fff"/></linearGradient><linearGradient id="linear-gradient-2" y1="49.3" y2="13.7" xlink:href="#linear-gradient"/></defs><title>suppy-icon-1</title><circle class="cls-1" cx="32" cy="32.03" r="32"/><polygon class="cls-2" points="53.74 25.22 53.74 35.89 28.25 50.35 10.26 39.09 10.26 29.1 35.83 14.76 53.74 25.22"/><polygon class="cls-3" points="53.74 24.17 53.74 34.84 28.25 49.3 10.26 38.04 10.26 28.04 35.83 13.71 53.74 24.17"/><polygon class="cls-4" points="28.17 38.25 53.74 24.17 35.83 13.71 10.26 27.79 28.17 38.25"/><polyline class="cls-4" points="10.75 33.27 28.29 43.67 53.18 29.89"/><polygon class="cls-4" points="31.73 28.92 27.23 27.88 26.83 24.34 32.17 21.12 38.7 24.88 31.73 28.92"/></svg>